<?xml version="1.0" encoding="utf-8"?>
<!-- Generator: Adobe Illustrator 17.1.0, SVG Export Plug-In . SVG Version: 6.00 Build 0)  -->
<svg version="1.2" baseProfile="tiny" id="Layer_1" xmlns="http://www.w3.org/2000/svg" xmlns:xlink="http://www.w3.org/1999/xlink"
	 x="0px" y="0px" viewBox="0 328 640 480" xml:space="preserve">
<g>
		<path fill="#8E918B" d="M509.4,428.2C455.3,440.7,390.1,448,320,448s-135.3-7.3-189.4-19.8c-44.8,37.8-72.3,89-72.3,145.4
			C58.2,690,175.4,784.3,320,784.3c144.6,0,261.8-94.3,261.8-210.7C581.8,517.3,554.2,466,509.4,428.2z"/>
		<path fill="#FFFFFF" d="M508.1,428.5c-53.5,12.3-117.9,19.5-187.2,19.5s-133.7-7.2-187.2-19.5c-44.3,37.3-71.5,87.8-71.5,143.4
			c0,114.7,115.8,207.7,258.7,207.7c142.9,0,258.7-93,258.7-207.7C579.5,516.2,552.3,465.7,508.1,428.5z"/>
		<path fill="#E6F5F8" d="M475.1,459.4c-44.1,10.1-97.1,16-154.2,16c-57.1,0-110.2-5.9-154.2-16c-36.5,30.7-58.9,72.3-58.9,118.1
			c0,94.5,95.4,171.1,213.1,171.1c117.7,0,213.1-76.6,213.1-171.1C533.9,531.7,511.5,490.1,475.1,459.4z"/>
		<path fill="#CFE7E8" d="M508.1,428.5c-53.5,12.3-117.9,19.5-187.2,19.5s-133.7-7.2-187.2-19.5c22.4,40.5,57.2,46.8,88.3,82.8
			c15.9,18.4,0-11.5,98.9-6.5c104.6,5.3,101.2,10.5,104.6,5.3C435.1,494.7,491,474.5,508.1,428.5z"/>
		<path fill="#FFFFFF" d="M419.7,511.3c-28.3,6.5-62.3,10.3-98.9,10.3c-36.6,0-70.7-3.8-98.9-10.3c-23.4,19.7-37.8,46.4-37.8,75.7
			c0,60.6,61.2,109.8,136.7,109.8S457.5,647.6,457.5,587C457.5,557.6,443.1,531,419.7,511.3z"/>
			<path fill="#768F9C" d="M354.3,551c0,11.6-13.6,20.9-30.4,20.9c-16.8,0-30.4-9.4-30.4-20.9c0-11.5,13.6-20.9,30.4-20.9
				C340.7,530.1,354.3,539.4,354.3,551z"/>
			<path fill="#010101" d="M345.5,550.1c0,6.7-9.4,12.2-21,12.2s-21-5.4-21-12.2c0-6.7,9.4-12.2,21-12.2S345.5,543.4,345.5,550.1z"
				/>
	<path fill="#93D7E6" d="M363.7,566.5c-2.6,0.7-37,5.3-39.8,5.3c-17.5,0-30.4-3.4-30.4-20.9c0-17.5,16.1-21.1,33.7-21.1
		c11.2,0,21.4,12.4,27.1,21.1c135.4-60.8-200-66.7-200,65c0,50.3,55.3,88.8,174,72.7c118.7-16,136.8-69.4,143.9-84.2
		C486.1,575.9,405.6,548.3,363.7,566.5z"/>
		<path fill="#0EBBD6" d="M184.1,591.6c0-25.6,9-46.2,23.5-62.7c-30.9,18.6-53.3,46.8-53.3,87.1c0,50.3,30.5,107.1,149.2,91.1
			c81.7-11,147.4-48.3,168.7-102.5C303.5,690.1,184.1,641.9,184.1,591.6z"/>
		<path fill="#9A9B9D" d="M341.2,491.9l0.1-132.6c0-3.5-4.4-6.3-9.9-6.3h-6.6c-5.5,0-9.9,2.8-9.9,6.3l-4.6,132.2
			c-2.9,2.1-4.8,4.8-4.8,7.8v14.1c0,9,8.2,16.4,18.2,16.4h3.6c10,0,18.2-7.3,18.2-16.4v-14.1C345.4,496.5,343.8,493.9,341.2,491.9z"
			/>
		<path fill="#ACADB0" d="M465.9,391.3c0,0-16.8,5.3-23.2-1.1c-6.4-6.4-1.1-23.2-1.1-23.2c0.8-5.6-2.4-6.4-7.5-6.4
			c-5.1,0-8.3,0.8-7.5,6.4c0,0,5.3,16.8-1.1,23.2c-6.4,6.4-23.2,1.1-23.2,1.1c-5.6-0.8-6.4,2.4-6.4,7.5c0,5.1,0.8,8.3,6.4,7.5
			c0,0,16.8-5.3,23.2,1.1c6.4,6.4,1.1,23.2,1.1,23.2c-0.8,5.6,2.4,6.4,7.5,6.4c5.1,0,8.3-0.8,7.5-6.4c0,0-5.3-16.8,1.1-23.2
			c6.4-6.4,23.2-1.1,23.2-1.1c5.6,0.8,6.4-2.4,6.4-7.5C472.3,393.7,471.5,390.5,465.9,391.3z"/>
		<path fill="#ACADB0" d="M262.6,381.6c4.5-3.4,2.8-6.2-0.8-9.8c-3.6-3.6-6.4-5.3-9.8-0.8c0,0-8.1,15.6-17.2,15.6
			c-9.1,0-17.2-15.6-17.2-15.6c-3.4-4.5-6.2-2.8-9.8,0.8c-3.6,3.6-5.3,6.4-0.8,9.8c0,0,15.6,8.1,15.6,17.2
			c0,9.1-15.6,17.2-15.6,17.2c-4.5,3.4-2.8,6.2,0.8,9.8c3.6,3.6,6.4,5.3,9.8,0.8c0,0,8.1-15.6,17.2-15.6c9.1,0,17.2,15.6,17.2,15.6
			c3.4,4.5,6.2,2.8,9.8-0.8c3.6-3.6,5.3-6.4,0.8-9.8c0,0-15.6-8.1-15.6-17.2C246.9,389.7,262.6,381.6,262.6,381.6z"/>
		<path fill="#FFFEF9" d="M325.5,477.1h-3.1c-8.6,0-15.6,5-15.6,11.1v13.5c0,8.6,7,15.6,15.6,15.6h3.1c8.6,0,15.6-7,15.6-15.6v-13.5
			C341.1,482.1,334.1,477.1,325.5,477.1z"/>
			<path fill="#E2E6ED" d="M436.9,393.4c0,2.4-1.9,4.3-4.3,4.3H219.8c-2.4,0-4.3-1.9-4.3-4.3v-2.9c0-2.4,1.9-4.3,4.3-4.3h212.8
				c2.4,0,4.3,1.9,4.3,4.3L436.9,393.4L436.9,393.4z"/>
			<path fill="none" stroke="#FFFEF9" stroke-width="2" stroke-linecap="round" stroke-miterlimit="10" d="M431.1,389.5"/>
			<path fill="none" stroke="#FFFEF9" stroke-width="2" stroke-linecap="round" stroke-miterlimit="10" d="M222.6,389.5"/>
				<path fill="#E2E6ED" d="M355.7,392.3c0,16.3-13.2,29.5-29.5,29.5s-29.5-13.2-29.5-29.5c0-16.3,13.2-29.5,29.5-29.5
					S355.7,376,355.7,392.3z"/>
				<path fill="#8E918B" d="M329.2,370.5h-3.1c-8.6,0-15.6,5.7-15.6,12.7v15.5c0,9.9,7,17.9,15.6,17.9h3.1c8.6,0,17-5.6,17-15.5
					v-17.7C346.2,376.4,337.8,370.5,329.2,370.5z"/>
				<path fill="#FFFEF9" d="M327.6,369h-3.1c-8.6,0-15.6,5.7-15.6,12.7v15.4c0,9.9,7,17.9,15.6,17.9h3.1c8.6,0,15.6-8,15.6-17.9
					v-15.4C343.3,374.7,336.3,369,327.6,369z"/>
				<path fill="#FFFEF9" d="M431.1,390.5H222.6c-0.6,0-1-0.4-1-1s0.4-1,1-1h208.5c0.6,0,1,0.4,1,1S431.6,390.5,431.1,390.5z"/>
		<path fill="#B9C2C2" d="M338.8,497.1c0,3.2-4.2,5.9-9.4,5.9h-11c-5.2,0-9.4-2.6-9.4-5.9l5.7-132.5c0-3.2,4.2-5.9,9.4-5.9h4.1
			c5.2,0,9.4,2.6,9.4,5.9L338.8,497.1z"/>
		<path fill="#D3D8E2" d="M337.4,494.4c0,3.3-3.8,6-8.5,6H319c-4.7,0-8.5-2.7-8.5-6l4.4-139.7c0-3.3,3.8-6,8.5-6h5.7
			c4.7,0,8.5,2.7,8.5,6L337.4,494.4z"/>
			<path fill="#9F2521" d="M423.5,384.8c-6.3,6.3-22.6,1.1-22.6,1.1c-5.4-0.8-6.2,2.3-6.2,7.3c0,4.9,0.8,8,6.2,7.3
				c0,0,16.3-5.2,22.6,1.1c6.3,6.3,1.1,22.6,1.1,22.6c-0.8,5.4,2.3,6.2,7.3,6.2c4.9,0,8-0.8,7.3-6.2c0,0-5.2-16.3,1.1-22.6
				c6.3-6.3,22.6-1.1,22.6-1.1c5.4,0.8,6.2-2.3,6.2-7.3c0-5-0.8-8-6.2-7.3c0,0-16.3,5.2-22.6-1.1c-6.3-6.3-1.1-22.6-1.1-22.6
				c0.8-5.4-2.3-6.2-7.3-6.2c-4.9,0-8,0.8-7.3,6.2C424.6,362.3,429.8,378.6,423.5,384.8z"/>
		<circle fill="#DB9C5C" cx="431.9" cy="393.2" r="7.9"/>
			<path fill="#10576C" d="M434.1,391.7c-0.1-0.2-0.1-0.5-0.3-0.7c-0.1-0.2-0.2-0.4-0.4-0.5c-0.2-0.1-0.4-0.3-0.6-0.3
				c-0.2-0.1-0.5-0.1-0.8-0.1c-0.4,0-0.8,0.1-1.1,0.3c-0.3,0.2-0.6,0.4-0.8,0.7c-0.2,0.3-0.3,0.6-0.4,1c-0.1,0.4-0.1,0.8-0.1,1.1
				c0,0.4,0,0.8,0.1,1.1c0.1,0.4,0.2,0.7,0.4,1c0.2,0.3,0.5,0.5,0.8,0.7c0.3,0.2,0.7,0.3,1.1,0.3c0.3,0,0.6-0.1,0.8-0.2
				c0.2-0.1,0.5-0.3,0.6-0.5c0.2-0.2,0.3-0.4,0.4-0.7c0.1-0.3,0.2-0.5,0.2-0.8h1.4c0,0.5-0.1,0.9-0.3,1.3c-0.2,0.4-0.4,0.8-0.7,1
				c-0.3,0.3-0.7,0.5-1.1,0.7c-0.4,0.2-0.9,0.2-1.4,0.2c-0.6,0-1.2-0.1-1.6-0.3c-0.5-0.2-0.9-0.5-1.2-0.9c-0.3-0.4-0.6-0.8-0.8-1.4
				c-0.2-0.5-0.3-1.1-0.3-1.7c0-0.6,0.1-1.1,0.3-1.6c0.2-0.5,0.4-1,0.8-1.4c0.3-0.4,0.7-0.7,1.2-0.9c0.5-0.2,1-0.3,1.6-0.3
				c0.5,0,0.9,0.1,1.3,0.2c0.4,0.1,0.8,0.3,1.1,0.6c0.3,0.2,0.6,0.5,0.7,0.9c0.2,0.3,0.3,0.7,0.4,1.2L434.1,391.7L434.1,391.7z"/>

			<path fill="#9F2521" d="M217.8,393.2c0,8.9-15.2,16.7-15.2,16.7c-4.4,3.3-2.7,6,0.8,9.5c3.5,3.5,6.2,5.1,9.5,0.8
				c0,0,7.9-15.2,16.7-15.2c8.9,0,16.7,15.2,16.7,15.2c3.3,4.4,6,2.7,9.5-0.8c3.5-3.5,5.1-6.2,0.8-9.5c0,0-15.2-7.9-15.2-16.7
				c0-8.9,15.2-16.7,15.2-16.7c4.4-3.3,2.7-6-0.8-9.5c-3.5-3.5-6.2-5.1-9.5-0.8c0,0-7.9,15.2-16.7,15.2c-8.9,0-16.7-15.2-16.7-15.2
				c-3.3-4.4-6-2.7-9.5,0.8c-3.5,3.5-5.1,6.2-0.8,9.5C202.6,376.5,217.8,384.3,217.8,393.2z"/>
		<path fill="#DB9C5C" d="M237.5,393.2c0,4.4-3.5,7.9-7.9,7.9s-7.9-3.5-7.9-7.9c0-4.4,3.5-7.9,7.9-7.9S237.5,388.8,237.5,393.2z"/>
			<path fill="#10576C" d="M226.3,389.1h1.4v3.2h3.7v-3.2h1.4v8.1h-1.4v-3.7h-3.7v3.7h-1.4V389.1z"/>
	<path fill="#FFFFFF" d="M240.5,550.3c-5.1,0-9.3-4.2-9.3-9.3s4.2-9.3,9.3-9.3c5.1,0,9.3,4.2,9.3,9.3
		C249.8,546.1,245.6,550.3,240.5,550.3z M240.5,535.4c-3.1,0-5.5,2.5-5.5,5.5c0,3.1,2.5,5.5,5.5,5.5c3.1,0,5.5-2.5,5.5-5.5
		C246,537.9,243.6,535.4,240.5,535.4z"/>
	<path fill="#FFFFFF" d="M397.6,663.2c-7.2,0-13.1-5.5-13.1-12.4c0-5.2,2.5-11.7,9.7-12.9l0.3,2c-5.9,1-8,6.5-8,10.9
		c0,5.7,5,10.4,11.1,10.4c3.4,0,6.6-1.4,8.6-3.8c1.4-1.6,2.9-4.4,2.3-8.7l2-0.3c0.7,5-1.1,8.4-2.7,10.3
		C405.3,661.5,401.5,663.2,397.6,663.2z"/>
	<path fill="#FFFFFF" d="M405.7,643.4c-4.9,0-9-4.1-9-9.2s4.1-9.2,9.2-9.2s9.2,4.1,9.2,9.2c0.2,2.1-0.5,4.3-2,6
		c-1.7,2-4.3,3.1-7.2,3.2C405.9,643.4,405.8,643.4,405.7,643.4z M405.9,626.9c-4,0-7.2,3.3-7.2,7.2c0,3.9,3.2,7.2,7,7.2l0.2,0
		c2.3-0.1,4.5-1,5.8-2.6c1.1-1.3,1.6-2.9,1.5-4.6C413.2,630.2,409.9,626.9,405.9,626.9z"/>
	<path fill="#FFFFFF" d="M258.4,664c-6.4,0-11.6-5.2-11.6-11.6c0-6.4,5.2-11.6,11.6-11.6s11.6,5.2,11.6,11.6
		C270.1,658.8,264.9,664,258.4,664z M258.4,642.8c-5.3,0-9.6,4.3-9.6,9.6c0,5.3,4.3,9.6,9.6,9.6c5.3,0,9.6-4.3,9.6-9.6
		C268.1,647.1,263.8,642.8,258.4,642.8z"/>
		<path fill="#FFFFFF" d="M325.3,540.7C325.3,540.7,325.3,540.7,325.3,540.7c-1.5,0-2.6-1.2-2.6-2.6l0-2.6c0-1.4,1.2-2.6,2.6-2.6
			c0,0,0,0,0,0c1.4,0,2.6,1.2,2.6,2.6l0,2.6C327.9,539.6,326.7,540.7,325.3,540.7z"/>
		<path fill="#FFFFFF" d="M324.5,662.1C324.5,662.1,324.5,662.1,324.5,662.1c-1.5,0-2.6-1.2-2.6-2.6l0-5.4c0-1.4,1.2-2.6,2.6-2.6
			c0,0,0,0,0,0c1.4,0,2.6,1.2,2.6,2.6l0,5.4C327.1,661,325.9,662.1,324.5,662.1z M324.6,648.6C324.6,648.6,324.6,648.6,324.6,648.6
			c-1.5,0-2.6-1.2-2.6-2.6l0-5.4c0-1.4,1.2-2.6,2.6-2.6c0,0,0,0,0,0c1.4,0,2.6,1.2,2.6,2.6l0,5.4C327.2,647.5,326,648.6,324.6,648.6
			z M324.7,635.1C324.7,635.1,324.7,635.1,324.7,635.1c-1.5,0-2.6-1.2-2.6-2.6l0-5.4c0-1.4,1.2-2.6,2.6-2.6c0,0,0,0,0,0
			c1.4,0,2.6,1.2,2.6,2.6l0,5.4C327.3,634,326.1,635.1,324.7,635.1z M324.8,621.7C324.8,621.7,324.8,621.7,324.8,621.7
			c-1.5,0-2.6-1.2-2.6-2.6l0-5.4c0-1.4,1.2-2.6,2.6-2.6c0,0,0,0,0,0c1.4,0,2.6,1.2,2.6,2.6l0,5.4
			C327.4,620.5,326.2,621.7,324.8,621.7z M324.9,608.2C324.9,608.2,324.8,608.2,324.9,608.2c-1.5,0-2.6-1.2-2.6-2.6l0-5.4
			c0-1.4,1.2-2.6,2.6-2.6c0,0,0,0,0,0c1.4,0,2.6,1.2,2.6,2.6l0,5.4C327.5,607,326.3,608.2,324.9,608.2z M324.9,594.7
			C324.9,594.7,324.9,594.7,324.9,594.7c-1.5,0-2.6-1.2-2.6-2.6l0-5.4c0-1.4,1.2-2.6,2.6-2.6c0,0,0,0,0,0c1.4,0,2.6,1.2,2.6,2.6
			l0,5.4C327.5,593.5,326.4,594.7,324.9,594.7z M325,581.2C325,581.2,325,581.2,325,581.2c-1.5,0-2.6-1.2-2.6-2.6l0-5.4
			c0-1.4,1.2-2.6,2.6-2.6c0,0,0,0,0,0c1.4,0,2.6,1.2,2.6,2.6l0,5.4C327.6,580,326.5,581.2,325,581.2z M325.1,567.7
			C325.1,567.7,325.1,567.7,325.1,567.7c-1.5,0-2.6-1.2-2.6-2.6l0-5.4c0-1.4,1.2-2.6,2.6-2.6c0,0,0,0,0,0c1.4,0,2.6,1.2,2.6,2.6
			l0,5.4C327.7,566.5,326.6,567.7,325.1,567.7z M325.2,554.2C325.2,554.2,325.2,554.2,325.2,554.2c-1.5,0-2.6-1.2-2.6-2.6l0-5.4
			c0-1.4,1.2-2.6,2.6-2.6c0,0,0,0,0,0c1.4,0,2.6,1.2,2.6,2.6l0,5.4C327.8,553.1,326.7,554.2,325.2,554.2z"/>
		<path fill="#FFFFFF" d="M324.4,672.8C324.4,672.8,324.4,672.8,324.4,672.8c-1.5,0-2.6-1.2-2.6-2.6l0-2.6c0-1.4,1.2-2.6,2.6-2.6
			c0,0,0,0,0,0c1.4,0,2.6,1.2,2.6,2.6l0,2.6C327,671.7,325.9,672.8,324.4,672.8z"/>

		<path fill="#FFFFFF" d="M311.1,536.5c-0.2,0-0.3,0-0.5,0c-1.4-0.3-2.4-1.6-2.1-3l0.5-2.6c0.3-1.4,1.6-2.4,3-2.1
			c1.4,0.3,2.4,1.6,2.1,3l-0.5,2.6C313.4,535.6,312.3,536.5,311.1,536.5z"/>
		<path fill="#FFFFFF" d="M289.2,655.9c-0.2,0-0.3,0-0.5,0c-1.4-0.3-2.4-1.6-2.1-3l1-5.3c0.3-1.4,1.6-2.4,3-2.1
			c1.4,0.3,2.4,1.6,2.1,3l-1,5.3C291.5,655,290.4,655.9,289.2,655.9z M291.6,642.7c-0.2,0-0.3,0-0.5,0c-1.4-0.3-2.4-1.6-2.1-3l1-5.3
			c0.3-1.4,1.6-2.4,3-2.1c1.4,0.3,2.4,1.6,2.1,3l-1,5.3C294,641.8,292.9,642.7,291.6,642.7z M294.1,629.4c-0.2,0-0.3,0-0.5,0
			c-1.4-0.3-2.4-1.6-2.1-3l1-5.3c0.3-1.4,1.6-2.4,3-2.1c1.4,0.3,2.4,1.6,2.1,3l-1,5.3C296.4,628.5,295.3,629.4,294.1,629.4z
			 M296.5,616.1c-0.2,0-0.3,0-0.5,0c-1.4-0.3-2.4-1.6-2.1-3l1-5.3c0.3-1.4,1.6-2.4,3-2.1c1.4,0.3,2.4,1.6,2.1,3l-1,5.3
			C298.8,615.2,297.7,616.1,296.5,616.1z M298.9,602.9c-0.2,0-0.3,0-0.5,0c-1.4-0.3-2.4-1.6-2.1-3l1-5.3c0.3-1.4,1.6-2.4,3-2.1
			c1.4,0.3,2.4,1.6,2.1,3l-1,5.3C301.3,602,300.2,602.9,298.9,602.9z M301.4,589.6c-0.2,0-0.3,0-0.5,0c-1.4-0.3-2.4-1.6-2.1-3l1-5.3
			c0.3-1.4,1.6-2.4,3-2.1c1.4,0.3,2.4,1.6,2.1,3l-1,5.3C303.7,588.7,302.6,589.6,301.4,589.6z M303.8,576.3c-0.2,0-0.3,0-0.5,0
			c-1.4-0.3-2.4-1.6-2.1-3l1-5.3c0.3-1.4,1.6-2.4,3-2.1c1.4,0.3,2.4,1.6,2.1,3l-1,5.3C306.1,575.4,305,576.3,303.8,576.3z
			 M306.2,563.1c-0.2,0-0.3,0-0.5,0c-1.4-0.3-2.4-1.6-2.1-3l1-5.3c0.3-1.4,1.6-2.4,3-2.1c1.4,0.3,2.4,1.6,2.1,3l-1,5.3
			C308.6,562.2,307.5,563.1,306.2,563.1z M308.7,549.8c-0.2,0-0.3,0-0.5,0c-1.4-0.3-2.4-1.6-2.1-3l1-5.3c0.3-1.4,1.6-2.4,3-2.1
			c1.4,0.3,2.4,1.6,2.1,3l-1,5.3C311,548.9,309.9,549.8,308.7,549.8z"/>
		<path fill="#FFFFFF" d="M287.3,666.4c-0.2,0-0.3,0-0.5,0c-1.4-0.3-2.4-1.6-2.1-3l0.5-2.6c0.3-1.4,1.6-2.4,3-2.1
			c1.4,0.3,2.4,1.6,2.1,3l-0.5,2.6C289.6,665.6,288.5,666.4,287.3,666.4z"/>

		<path fill="#FFFFFF" d="M339,536.5c-1.2,0-2.3-0.9-2.6-2.1l-0.5-2.6c-0.3-1.4,0.7-2.8,2.1-3c1.4-0.3,2.8,0.7,3,2.1l0.5,2.6
			c0.3,1.4-0.7,2.8-2.1,3C339.4,536.5,339.2,536.5,339,536.5z"/>
		<path fill="#FFFFFF" d="M361,655.9c-1.2,0-2.3-0.9-2.6-2.1l-1-5.3c-0.3-1.4,0.7-2.8,2.1-3c1.4-0.3,2.8,0.7,3,2.1l1,5.3
			c0.3,1.4-0.7,2.8-2.1,3C361.3,655.9,361.1,655.9,361,655.9z M358.5,642.7c-1.2,0-2.3-0.9-2.6-2.1l-1-5.3c-0.3-1.4,0.7-2.8,2.1-3
			c1.4-0.3,2.8,0.7,3,2.1l1,5.3c0.3,1.4-0.7,2.8-2.1,3C358.8,642.6,358.7,642.7,358.5,642.7z M356.1,629.4c-1.2,0-2.3-0.9-2.6-2.1
			l-1-5.3c-0.3-1.4,0.7-2.8,2.1-3c1.4-0.3,2.8,0.7,3,2.1l1,5.3c0.3,1.4-0.7,2.8-2.1,3C356.4,629.4,356.2,629.4,356.1,629.4z
			 M353.7,616.1c-1.2,0-2.3-0.9-2.6-2.1l-1-5.3c-0.3-1.4,0.7-2.8,2.1-3c1.4-0.3,2.8,0.7,3,2.1l1,5.3c0.3,1.4-0.7,2.8-2.1,3
			C354,616.1,353.8,616.1,353.7,616.1z M351.2,602.9c-1.2,0-2.3-0.9-2.6-2.1l-1-5.3c-0.3-1.4,0.7-2.8,2.1-3c1.4-0.3,2.8,0.7,3,2.1
			l1,5.3c0.3,1.4-0.7,2.8-2.1,3C351.5,602.8,351.4,602.9,351.2,602.9z M348.8,589.6c-1.2,0-2.3-0.9-2.6-2.1l-1-5.3
			c-0.3-1.4,0.7-2.8,2.1-3c1.4-0.3,2.8,0.7,3,2.1l1,5.3c0.3,1.4-0.7,2.8-2.1,3C349.1,589.6,348.9,589.6,348.8,589.6z M346.4,576.3
			c-1.2,0-2.3-0.9-2.6-2.1l-1-5.3c-0.3-1.4,0.7-2.8,2.1-3c1.4-0.3,2.8,0.7,3,2.1l1,5.3c0.3,1.4-0.7,2.8-2.1,3
			C346.7,576.3,346.5,576.3,346.4,576.3z M343.9,563.1c-1.2,0-2.3-0.9-2.6-2.1l-1-5.3c-0.3-1.4,0.7-2.8,2.1-3c1.4-0.3,2.8,0.7,3,2.1
			l1,5.3c0.3,1.4-0.7,2.8-2.1,3C344.2,563,344.1,563.1,343.9,563.1z M341.5,549.8c-1.2,0-2.3-0.9-2.6-2.1l-1-5.3
			c-0.3-1.4,0.7-2.8,2.1-3c1.4-0.3,2.8,0.7,3,2.1l1,5.3c0.3,1.4-0.7,2.8-2.1,3C341.8,549.8,341.6,549.8,341.5,549.8z"/>
		<path fill="#FFFFFF" d="M362.9,666.4c-1.2,0-2.3-0.9-2.6-2.1l-0.5-2.6c-0.3-1.4,0.7-2.8,2.1-3c1.4-0.3,2.8,0.7,3,2.1l0.5,2.6
			c0.3,1.4-0.7,2.8-2.1,3C363.2,666.4,363,666.4,362.9,666.4z"/>
</g>
</svg>
