<?xml version="1.0" encoding="utf-8"?>
<!-- Generator: Adobe Illustrator 17.1.0, SVG Export Plug-In . SVG Version: 6.00 Build 0)  -->
<svg version="1.2" baseProfile="tiny" id="Layer_1" xmlns="http://www.w3.org/2000/svg" xmlns:xlink="http://www.w3.org/1999/xlink"
	 x="0px" y="0px" viewBox="0 378 640 380" xml:space="preserve">
<g>
	<path fill="#B8CBD3" d="M568.6,432.9c-6.3-4.4-38.7-26.1-55.9-16.4c-5.1,2.9-9.2,7.4-10.7,14.1l-1.5-0.2l-1.2,8.4l2.1,0.3v0.1
		l3.9,0.4l8.4,1.2l1.2-8.4l-1-0.1c1-2.7,2.5-5.1,4.4-6.1c7.7-4.4,27.9,5.1,41.5,14l-5,58.3l11,1l5.6-64.7L568.6,432.9z"/>

	<path fill="#EDE30A" d="M350.9,444.5c0.8-1.3,0.4-3-1-3.8c-1.3-0.8-3-0.4-3.8,1c-0.8,1.3-0.4,3,1,3.8
				C348.4,446.2,350.1,445.8,350.9,444.5z"/>
	<path fill="#EDC70E" d="M393.8,462.7L393.8,462.7L393.8,462.7c-0.3-0.1-0.5-0.1-0.7-0.1c0,0,0,0-0.1,0h-0.1
				c-0.3,0-0.6-0.1-0.9-0.1c-2.4,0-4.7,1.2-7,2.3c-1.5,0.7-2.9,1.4-4.1,1.7c-0.7,0.2-1.5,0.3-2.4,0.3c-1.1,0-2.2-0.1-3.3-0.3
				c-1.4-0.2-2.8-0.5-4.3-0.7c0,0,0,0-0.1,0c-0.2,0-0.3,0-0.5-0.1c-0.5-0.1-1-0.1-1.5-0.2c-1.8-0.2-3.1-0.3-4.3-0.3
			c-1.8,0-3.5,0.2-5.8,0.7c2.6-3.3,2.8-1.4,7.2-7.8c4.7-6.8,1-16.1-3.5-20c-2.8-2.4-5.7-3.9-8.6-4.4c-0.8-0.2-1.6-0.2-2.4-0.2
			c-1.2,0-2.3,0.2-3.5,0.5c-4.3,1.3-7.3,3.6-8.4,4.6c-0.4,0.4-0.8,0.7-1.1,0.9c-0.9-0.4-1.9-1.2-2.9-1.9c-1.3-1-2.6-2-3.8-2.2
				c-0.1,0-0.3,0-0.4,0c-0.6,0-1.1,0.2-1.6,0.6l-0.1,0.1l0,0c-1.1,1-1.7,3.5,0.2,7.4c0.7,1.4,1.5,2.5,2.3,3.4
				c-0.5,0-1.1-0.1-1.6-0.1c-0.3,0-0.7,0-1.2,0c-1.2,0-2.1,0.4-2.3,1.1c-0.3,0.7,0.2,1.7,1.4,2.7c0.1,0.1,0.2,0.1,0.2,0.2
			c0.6,0.5,1.4,0.9,2.3,1.4c1.5,0.9,3.2,1.8,4.5,3.2l0,0c1.2,1.3,2.1,3,2.2,5.3c0.1,4.3-2.7,7-5.6,9.8c-1.4,1.3-2.8,2.7-3.8,4.3
				c-1.7,2.5-2.5,6.4-2,10.1c0.6,4.4,2.8,8.2,6.3,10.8c2.4,1.8,5,2.9,8.3,3.6c2.9,0.6,6.3,0.9,11,0.9c3.8,0,8.1-0.2,13.1-0.4
		c1.7-0.1,3.5-0.1,5.4-0.2c3.1-0.1,5.8-0.5,8.3-1.2c0.3-0.1,0.5-0.1,0.8-0.2c0.1,0,0.3-0.1,0.4-0.1c12.3-3.9,16.2-14.2,17.5-21.7
				C399,467.6,397.5,463.7,393.8,462.7z M385.1,464.9c1.6-0.8,3.2-1.6,4.8-2c-3.1,0.9-6.1,3.1-8.7,3.7
				C382.4,466.2,383.7,465.6,385.1,464.9z M348.1,434.1h0.1c-2.1,0.6-4,1.5-5.5,2.4C344.1,435.6,345.9,434.7,348.1,434.1z
				 M346,441.2c1.1-1.9,3.6-2.5,5.5-1.4s2.5,3.6,1.4,5.4c-1.1,1.9-3.6,2.5-5.5,1.4C345.5,445.5,344.9,443.1,346,441.2z M366.5,494.9
				c-5,0.4-8.6-0.5-11.3-2.1c4.2-0.6,7.6,0.7,13.1,1.6c0.3,0,0.6,0.1,0.8,0.1C368.3,494.7,367.4,494.9,366.5,494.9z M370,493.3
				c-0.3,0-0.5-0.1-0.8-0.1c-5.5-0.9-8.9-2.2-13.1-1.6c-1-0.6-1.8-1.2-2.5-1.9c0.3-0.1,0.6-0.2,0.9-0.3c5.1-1.2,8.6,0.3,14.8,1.3
				c2.7,0.4,4.7,0.7,6.6,0.7C374.1,492.3,372.2,492.9,370,493.3z M380.6,489c-3.8,0.5-6.5,0.3-11.2-0.5c-6.2-1-9.8-2.5-14.8-1.3
				c-1,0.2-1.8,0.6-2.6,1c-0.4-0.6-0.8-1.1-1.1-1.7c1-0.8,2.2-1.4,3.8-1.8c5.1-1.2,8.6,0.3,14.8,1.3c6,1,8.7,1.1,14.6-0.2
				C383.1,487,381.9,488,380.6,489z M386.6,483.7c-0.5,0.1-1.1,0.2-1.8,0.3c-6.3,1.4-9,1.3-15.2,0.3s-9.8-2.5-14.8-1.3
				c-2.1,0.5-3.6,1.5-4.7,2.6c-0.2-0.5-0.5-1.1-0.6-1.6c1-1.6,2.7-2.9,5.4-3.6c5.1-1.2,8.6,0.3,14.8,1.3c6.2,1,8.9,1.1,15.2-0.3
				c1.5-0.3,2.6-0.5,3.4-0.5C387.8,481.9,387.2,482.8,386.6,483.7z M388.3,479.5c-0.8,0-1.9,0.2-3.4,0.5c-6.3,1.4-9,1.3-15.2,0.3
				s-9.8-2.5-14.8-1.3c-2.6,0.6-4.3,2-5.4,3.6c-0.1-0.4-0.2-0.7-0.4-1c0-0.1-0.1-0.3-0.1-0.4c0.9-2.1,2.7-3.9,5.9-4.7
				c5.1-1.2,8.6,0.3,14.8,1.3c6.2,1,8.9,1.1,15.2-0.3c2.2-0.5,3.6-0.6,4.4-0.4C389.1,477.9,388.7,478.7,388.3,479.5z M390,475
				c-0.6-0.6-2.1-0.6-4.9,0.1c-6.3,1.4-9,1.3-15.2,0.3s-9.8-2.5-14.8-1.3c-3.8,0.9-5.7,3.2-6.3,5.8c-0.1-0.4-0.1-0.7-0.1-1.1
				c0.4-3,2.3-5.8,6.5-6.8c5.1-1.2,8.6,0.3,14.8,1.3c6.2,1,8.9,1.1,15.2-0.3c3.5-0.7,4.9-0.7,5.2,0.4
				C390.2,473.8,390.1,474.4,390,475z"/>
	<path fill="#15BBD6" d="M301.3,426.1c-3.4,0-6.2-2.8-6.2-6.2c0-3.4,2.8-6.2,6.2-6.2c3.4,0,6.2,2.8,6.2,6.2
		C307.5,423.3,304.7,426.1,301.3,426.1z M301.3,416.2c-2,0-3.7,1.7-3.7,3.7s1.7,3.7,3.7,3.7s3.7-1.7,3.7-3.7
		S303.3,416.2,301.3,416.2z"/>
	<path fill="#15BBD6" d="M312.5,486.9h-3c0-13-12.5-28.5-27.8-28.5c-3.6,0-7.2,0.4-10.6,1.8l-1.3,0.4l-0.6-1.4
		c-6-12.2-18.2-19.8-31.7-19.8c-16.8,0-31.3,11.9-34.7,28.2l-0.5,2.6l-2-1.8c-5.2-4.8-11.9-7.4-18.9-7.4c-9.1,0-17.7,4.5-22.9,12
		l-2.5-1.7c5.8-8.3,15.2-13.3,25.4-13.3c6.9,0,13.6,2.3,19,6.6c4.5-16.5,19.7-28.2,37.1-28.2c14.2,0,27,7.7,33.8,20.2
		c3.3-1.2,6.8-1.2,10.4-1.2C298.7,455.4,312.5,470.9,312.5,486.9z"/>
	<ellipse fill="#6C787C" cx="323.1" cy="684.6" rx="196.2" ry="30.8"/>
	<path fill="#FFFFFF" stroke="#E0E8ED" stroke-miterlimit="10" d="M583.9,494.9c-2-5.7-9.2-5.7-11.9-5.7c-1.5,0-3.3,0.1-5.1,0.3
		c-73.9,3.6-147,2.9-216.3-2c-104-7.4-196.8-15.1-278.6-34.5l-1.3-0.2c-6.7,0-13.9,0.7-16.4,6.1c-2.5,5.5,1.8,10.4,5.6,14.7
		c1.3,1.4,3.3,3.7,3.6,4.1c0,60,38.8,138.5,105.1,169.6c-9,7.2-15.8,15.6-22.8,24.8c-1.7,2.3-2.4,5.1-2.2,7.9
		c0.4,3.3,1.7,6.1,1.7,6.1c1.4,2.8,3.5,5.2,6,6.7c7.7,4.5,15.7,1.2,20.6-5.4c0.9-1.2,1.8-2.4,2.7-3.5c0,0,0.3-0.4,0.8-1.1
		c0.9-1.1,1.7-2.1,2.6-3.2c1.2-1.4,2.4-2.7,3.7-4c0.6-0.6,1.3-1.3,2-1.9c0.2-0.2,3.7-3.1,1.2-1.2c5.4-4.1,31.4-11.6,44.6-11.6
		l210.6,4.4h0.1c6,0,16,7.4,18.4,11c3.9,6,6.6,12.5,11.6,17.8c5.6,6,15.6,5.7,21.3,0c5.9-5.9,5.6-15.4,0-21.3
		c-0.1-0.1-0.1-0.1-0.2-0.2c-0.7-1.4-1.5-2.8-2.6-4.3c-1.3-2.4-2.6-4.8-4.1-7.2c-0.6-1-1.4-1.8-2.2-2.7
		c61.4-22.1,75.6-92.7,84.7-138.1l0.9-4.1c0.9-0.9,2.8-2.4,4.3-3.6C579.5,506.7,586.2,501.2,583.9,494.9z"/>
	<path fill="#B8CBD3" d="M547.4,591.6c-68.7,6.7-136.8,9.6-201.8,8.6c-90.2-1.4-171.9-3.4-245.9-13.6c17.4,25.4,40.7,47.3,68.9,60.6
		c-9,7.2-15.8,15.6-22.8,24.8c-1.7,2.3-2.4,5.1-2.2,7.9c-0.2,2.8,1.7,6.1,1.7,6.1c1.4,2.8,3.5,5.2,6,6.7c7.7,4.5,15.7,1.2,20.6-5.4
		c0.9-1.2,1.8-2.4,2.7-3.5c0,0,0.3-0.4,0.8-1.1c0.9-1.1,1.7-2.1,2.6-3.2c1.2-1.4,2.4-2.7,3.7-4c0.6-0.6,1.3-1.3,2-1.9
		c0.2-0.2,3.7-3.1,1.2-1.2c5.4-4.1,31.4-11.6,44.6-11.6l210.6,4.4h0.1c6,0,16,7.4,18.4,11c3.9,6,6.6,12.5,11.6,17.8
		c5.6,6,15.6,5.7,21.3,0c5.9-5.9,5.6-15.4,0-21.3c-0.1-0.1-0.1-0.1-0.2-0.2c-0.7-1.4-1.5-2.8-2.6-4.3c-1.3-2.4-2.6-4.8-4.1-7.2
		c-0.6-1-1.4-1.8-2.2-2.7C515.7,646.4,535.1,620.3,547.4,591.6z"/>
	<path fill="#15BBD6" d="M313.5,452.8c-5.3,0-9.5-4.3-9.5-9.6c0-5.3,4.3-9.6,9.5-9.6c5.3,0,9.6,4.3,9.6,9.6S318.8,452.8,313.5,452.8
		z M313.5,436.7c-3.6,0-6.5,2.9-6.5,6.5s2.9,6.5,6.5,6.5s6.5-2.9,6.5-6.5C320.1,439.6,317.2,436.7,313.5,436.7z"/>
	<path fill="#15BBD6" d="M419,431.1c-4.1,0-7.5-3.3-7.5-7.5s3.3-7.5,7.5-7.5c4.1,0,7.5,3.3,7.5,7.5S423.2,431.1,419,431.1z
		 M419,419.2c-2.5,0-4.4,2-4.4,4.4c0,2.5,2,4.4,4.4,4.4c2.5,0,4.4-2,4.4-4.4C423.5,421.2,421.5,419.2,419,419.2z"/>
	<path fill="#15BBD6" d="M424.7,485.9c-10.3,0-18.7-7.9-18.7-17.5c0-7.4,3.6-16.7,13.6-18.3l0.9,5.6c-8.3,1.4-8.9,10.1-8.9,12.7
		c0,6.4,6,11.9,13,11.9c4,0,7.8-1.7,10.2-4.4c2.3-2.6,3.1-6.1,2.5-10.1l5.6-0.8c1,7.2-1.5,11.9-3.9,14.6
		C435.8,483.5,430.4,485.9,424.7,485.9z"/>
	<path fill="#15BBD6" d="M437.6,462.2c-7,0-12.7-5.7-12.7-12.7s5.7-12.7,12.7-12.7s12.7,5.7,12.7,12.7
		C450.4,456.5,444.7,462.2,437.6,462.2z M437.6,442.4c-3.9,0-7.1,3.2-7.1,7.1s3.2,7.1,7.1,7.1s7.1-3.2,7.1-7.1
		C444.7,445.5,441.5,442.4,437.6,442.4z"/>
		<path fill="#15BBD6" d="M492.6,491.4l-2.9-0.6l0.3-1.6l2.9,0.6L492.6,491.4z M493.9,484.9l-2.9-0.6l1-4.9l2.9,0.6L493.9,484.9z
			 M495.8,475.1l-2.9-0.6l1-4.9l2.9,0.6L495.8,475.1z M497.8,465.3l-2.9-0.6l1-4.9l2.9,0.6L497.8,465.3z M499.7,455.5l-2.9-0.6
			l1-4.9l2.9,0.6L499.7,455.5z M501.6,445.6l-2.9-0.6l1-4.9l2.9,0.6L501.6,445.6z"/>
		<path fill="#15BBD6" d="M507.4,487.2l-3,0l0.1-5l3,0L507.4,487.2z M507.6,477.2l-3,0l0.1-5l3,0L507.6,477.2z M507.7,467.2l-3,0
			l0.1-5l3,0L507.7,467.2z M507.9,457.2l-3,0l0.1-5l3,0L507.9,457.2z M508.1,447.2l-3,0l0.1-5l3,0L508.1,447.2z"/>
		<path fill="#15BBD6" d="M517.1,487.5l-0.7-4.9l3-0.4l0.7,4.9L517.1,487.5z M515.6,477.6l-0.7-4.9l3-0.4l0.7,4.9L515.6,477.6z
			 M514.1,467.7l-0.7-4.9l3-0.4l0.7,4.9L514.1,467.7z M512.6,457.8l-0.7-4.9l3-0.4l0.7,4.9L512.6,457.8z M511.1,447.9l-0.7-4.9
			l3-0.4l0.7,4.9L511.1,447.9z"/>
</g>
</svg>
