<?xml version="1.0" encoding="utf-8"?>
<!-- Generator: Adobe Illustrator 17.1.0, SVG Export Plug-In . SVG Version: 6.00 Build 0)  -->
<svg version="1.2" baseProfile="tiny" id="Layer_1" xmlns="http://www.w3.org/2000/svg" xmlns:xlink="http://www.w3.org/1999/xlink"
	 x="0px" y="0px" viewBox="0 114 300 176" xml:space="preserve">
<ellipse fill="#0EA4DA" cx="148.3" cy="263" rx="140.3" ry="24.3"/>
<path fill="#585B56" d="M226.4,206.6c-3.9,0.1-6.8,0.8-6.8,1.6v6c0,0.8,2.9,1.5,6.8,1.6V206.6z"/>
<g>
	<ellipse fill="#003366" cx="138.6" cy="264.7" rx="94.3" ry="8"/>
	<g>
		<path fill="#CE3727" d="M188.4,161.9c0,0-50.5-3.7-58,2.5c-1.1,0.9-38.2,33.6-41.2,36.5H58.3c-9,0-10.8,9-12.7,15.8l-3,15.1
			c0,6.6,15.6-0.9,21.1,1.8c2.1,1,15.6,9.7,18.1,9.7l121.8,1.6c2.3-2.7,3.5-1.3,5.5-1.6c4-0.6,12.2,0.7,12.2-3.1
			c0,0,1.5-30.9-1.3-39.3c-3.3-21.8-22.2-35.1-22.2-35.1C194.7,162.7,190.3,161.9,188.4,161.9z M95.4,201.4c0,0,33.1-31.3,37.5-34.3
			c5.1-3.4,57.4-3.5,61.4,0c4.1,3.6,15.2,13.5,19,22.1c2.3,5.3,3,11.9,3,11.9L95.4,201.4z"/>
		<path fill="#B53333" d="M56.5,240.5c0,2.3-12.1,0.8-14.4,0.8l0,0c-2.3,0-4.2-1.9-4.2-4.2v-12.3c0-2.3,1.9-4.2,4.2-4.2l0,0
			c2.3,0,25.4,0.4,25.4,1.5c0,0-6.6,5.1-8.3,9.9C57.3,237.2,56.5,240.5,56.5,240.5z"/>
		<rect x="96" y="201.3" fill="#9F2521" width="1.3" height="36.1"/>
		<polygon fill="#9F2521" points="173.1,238.6 94.9,238.6 93.8,237.5 174.3,237.5 		"/>
		<path fill="#B53333" d="M222.4,222c-2.3,0-26.9-0.7-26.9,0.3c0,0,0,0,0,0.1c6.5,4.3,10.7,11.7,10.7,20.1c0,0.2,0,0.5,0,0.7
			c4,0.7,14.3-0.6,16.2-0.6c2.3,0,4.2-1.9,4.2-4.2v-12.3C226.6,223.9,224.7,222,222.4,222z"/>
		<path fill="#9F2521" d="M193.5,216.2c1.5-2.9,3.4-14.8,3.4-14.8V220h-7.3C189.5,220,192,219.1,193.5,216.2z"/>
		<path fill="#0A0F10" d="M217.6,243c0-0.3,0-0.3,0-0.6c0-10.8-6.7-19.5-20.5-19.5c-15.3,0-19.1,11.2-19.5,21.7l-4.2-0.1
			c1.1,12.3,11.5,22.1,24,22.1c13,0,24.1-9.5,24.1-24L217.6,243z"/>
		<path fill="#0A0F10" d="M237.2,233.2c0,4.7-2.4,6.6-5.3,6.6l0,0c-3,0-5.3-1.9-5.3-6.6v-32.7c0-4.7,2.4-6.6,5.3-6.6l0,0
			c3,0,5.3,1.9,5.3,6.6V233.2z"/>
		<rect x="111.2" y="187.6" fill="#CE3727" width="1.6" height="17.1"/>
		<circle fill="#585B56" cx="197.5" cy="242.5" r="15.6"/>
		<circle fill="#999999" cx="197.5" cy="242.5" r="6"/>
		<polygon fill="#424341" points="183.9,208.2 183.9,205.7 182.5,205.7 182.5,209.5 194.3,209.5 194.3,208.2 		"/>
		<polygon fill="#424341" points="143.7,208.2 143.7,205.7 142.4,205.7 142.4,209.5 154.2,209.5 154.2,208.2 		"/>
		<path fill="#424341" d="M97.3,208.1c-1.9-0.2-3.3-2.7-3-5.6c0.1-1.5,0.7-2.8,1.4-3.7c-1.4,0.7-2.4,2.5-2.6,4.6
			c-0.3,2.9,1.1,5.4,3,5.6c0.9,0.1,1.5,0,2.2-0.9C97.9,208.5,97.9,207.9,97.3,208.1z"/>
		<g>
			<polygon fill="#0A0F10" points="117.5,198.7 116.6,199 117.7,201.4 119.9,201.4 114.7,189.5 112.8,190.3 112.8,190.4 
				115.8,197.2 116.7,196.8 			"/>
			<polygon fill="#0A0F10" points="112.8,200.7 116.6,199 117.5,198.7 116.7,196.8 115.8,197.2 112.8,198.5 			"/>
		</g>
		<g>
			<path fill="#574319" d="M154.1,193.1c0.2-2.1-1.4-3.9-3.4-4.1s-3.9,1.4-4.1,3.4l-0.1,1.5c0.3,1.1,0.4,2.3,0.2,3.5l-0.6,3.6h7.3
				L154.1,193.1z"/>
			<path fill="#574319" d="M150.7,188.5c2.1,0.2,3.9-1.4,4.1-3.4l0.3-3.2c0.2-2.1-1.4-3.9-3.4-4.1c-2.1-0.2-3.9,1.4-4.1,3.4
				l-0.3,3.2C147.1,186.6,148.7,188.4,150.7,188.5z"/>
			<path fill="#574319" d="M188.1,189c-2.1-0.2-3.9,1.4-4.1,3.4l-0.8,8.6h7.5l0.7-8C191.7,191.1,190.1,189.2,188.1,189z"/>
			<path fill="#574319" d="M189,177.8c-2.1-0.2-3.9,1.4-4.1,3.4l-0.3,3.2c-0.2,2.1,1.4,3.9,3.4,4.1c2.1,0.2,3.9-1.4,4.1-3.4l0.3-3.2
				C192.6,179.8,191.1,178,189,177.8z"/>
		</g>
		<polygon fill="#CE3727" points="155,164.2 158.5,164.1 158.5,201.1 155,201.1 		"/>
		<polygon fill="#CE3727" points="193.7,166.6 197.2,166.6 200.2,202.2 196.7,202.2 		"/>
		<path fill="#9F2521" d="M151.9,233.7c1.5-2.9,3.4-32.4,3.4-32.4v36.1H148C147.9,237.5,150.4,236.6,151.9,233.7z"/>
	</g>
</g>
<path fill="#0A0F10" d="M91.9,243.3c0-0.3,0-0.6,0-0.8c0-10.8-8.7-19.5-19.5-19.5c-10.5,0-19.1,8.4-19.5,18.8l-4.8-0.2
	c0,0.3,0,0.6,0,0.9c0,13.4,10.8,24.1,24.1,24.1c13,0,23.6-10.3,24.1-23.2L91.9,243.3z"/>
<circle fill="#585B56" cx="72.6" cy="242.5" r="15.6"/>
<circle fill="#999999" cx="72.5" cy="242.5" r="6"/>
<path fill="#FFFFFF" d="M37.7,237.3c-2.1,0-2.1-11.7,0-11.7C39.9,225.6,39.9,237.3,37.7,237.3z"/>
<path fill="#FFFFFF" d="M224.4,220.5c0,0.9-1,1.6-2.2,1.6l0,0c-1.2,0-2.2-0.7-2.2-1.6v-9.7c0-0.9,1-1.6,2.2-1.6l0,0
	c1.2,0,2.2,0.7,2.2,1.6V220.5z"/>
<g>
	<path fill="#0EBBD6" d="M158.2,157.6c0.2,1.1,0.3,2,1.1,2.7c-0.2-0.9-0.4-1.9-0.6-3c0-0.5,0-0.9,0.1-1.3
		C158.5,156.6,158.1,157.2,158.2,157.6z"/>
	<g>
		<path fill="#4E4E4E" d="M154,119.1l0.5,8.3c-8.1,0-16.5,2.3-16.5,10.4v0.1h44.5v-0.1c0-8.1-5.7-10.4-13.8-10.4l1-8.2"/>
		<path fill="#0EBBD6" d="M86.5,201.1l-1.9-0.5c0.1-0.4,0.2-0.7,0.3-1.1l1.9,0.5C86.6,200.4,86.6,200.8,86.5,201.1z M87.2,198.2
			l-1.9-0.5c0.3-1,0.6-2,0.9-2.9l1.9,0.6C87.8,196.3,87.5,197.2,87.2,198.2z M88.7,193.5l-1.9-0.6c0.3-1,0.7-1.9,1-2.9l1.9,0.7
			C89.4,191.6,89,192.5,88.7,193.5z M90.5,188.9l-1.9-0.8c0.4-0.9,0.8-1.9,1.2-2.8l1.8,0.8C91.2,187,90.8,187.9,90.5,188.9z
			 M92.5,184.3l-1.8-0.9c0.4-0.9,0.9-1.8,1.4-2.7l1.8,0.9C93.3,182.6,92.9,183.4,92.5,184.3z M94.8,180l-1.7-1
			c0.5-0.9,1-1.8,1.6-2.6l1.7,1.1C95.8,178.3,95.3,179.1,94.8,180z M97.3,175.8l-1.7-1.1c0.6-0.8,1.2-1.7,1.7-2.5l1.6,1.2
			C98.5,174.1,97.9,175,97.3,175.8z M100.2,171.8l-1.6-1.2c0.6-0.8,1.3-1.6,1.9-2.4l1.5,1.3C101.5,170.2,100.8,171,100.2,171.8z
			 M103.4,168.1l-1.5-1.4c0.7-0.8,1.4-1.5,2.1-2.2l1.4,1.4C104.8,166.6,104.1,167.3,103.4,168.1z M106.9,164.6l-1.3-1.5
			c0.8-0.7,1.6-1.3,2.4-1.9l1.2,1.6C108.4,163.3,107.7,164,106.9,164.6z M133.4,163c-0.4-0.9-0.9-1.7-1.4-2.4l1.6-1.2
			c0.6,0.8,1.2,1.8,1.6,2.8L133.4,163z M110.8,161.6l-1.1-1.6c0.9-0.6,1.7-1.1,2.6-1.6l1,1.7C112.4,160.5,111.6,161.1,110.8,161.6z
			 M130.7,159.3c-0.7-0.6-1.4-1.1-2.2-1.5l0.9-1.8c1,0.5,1.9,1.1,2.7,1.8L130.7,159.3z M114.9,159.1l-0.9-1.8c1-0.5,1.9-0.9,2.9-1.2
			l0.7,1.9C116.7,158.3,115.8,158.7,114.9,159.1z M119.4,157.4l-0.5-1.9c1.1-0.3,2.1-0.5,3.1-0.6l0.2,2
			C121.3,157,120.4,157.2,119.4,157.4z M126.8,157.2c-0.9-0.2-1.8-0.4-2.7-0.4l0-2c1.1,0,2.2,0.2,3.2,0.4L126.8,157.2z"/>
		<path fill="#0EBBD6" d="M233.5,195l0-0.1l2-0.4l0,0.1L233.5,195z M233.1,192.9c-0.2-1-0.4-2-0.7-2.9l1.9-0.5
			c0.2,1,0.5,1.9,0.7,2.9L233.1,192.9z M231.9,188.1c-0.3-1-0.5-1.9-0.8-2.9l1.9-0.6c0.3,0.9,0.5,1.9,0.8,2.9L231.9,188.1z
			 M230.6,183.3c-0.3-1-0.6-1.9-0.9-2.8l1.9-0.7c0.3,0.9,0.6,1.9,0.9,2.9L230.6,183.3z M229,178.7c-0.4-1-0.7-1.9-1.1-2.8l1.8-0.8
			c0.4,0.9,0.8,1.8,1.1,2.8L229,178.7z M227.1,174.1c-0.4-0.9-0.8-1.8-1.3-2.7l1.8-0.9c0.4,0.9,0.9,1.8,1.3,2.7L227.1,174.1z
			 M224.9,169.7c-0.5-0.9-1-1.7-1.5-2.5l1.7-1.1c0.5,0.8,1.1,1.7,1.6,2.6L224.9,169.7z M222.3,165.6c-0.6-0.8-1.2-1.6-1.8-2.3
			l1.5-1.3c0.6,0.8,1.3,1.6,1.9,2.4L222.3,165.6z M219.2,161.8c-0.7-0.7-1.4-1.4-2.1-2l1.3-1.5c0.8,0.7,1.5,1.4,2.2,2.1L219.2,161.8
			z M193.3,161h-2c0-1.1,0.5-2.2,1.4-3.3l1.6,1.2C193.6,159.6,193.3,160.4,193.3,161z M215.6,158.6c-0.8-0.6-1.6-1.1-2.4-1.6l1-1.7
			c0.9,0.5,1.8,1.1,2.6,1.7L215.6,158.6z M195.5,157.7l-1.3-1.6c0.8-0.6,1.7-1.2,2.7-1.7l0.9,1.8
			C196.9,156.6,196.2,157.1,195.5,157.7z M211.5,156.2c-0.9-0.4-1.8-0.7-2.7-0.9l0.5-1.9c1,0.3,2,0.6,3,1L211.5,156.2z M199.6,155.5
			l-0.6-1.9c1-0.3,2-0.6,3.1-0.7l0.3,2C201.4,155,200.4,155.2,199.6,155.5z M207,154.9c-0.8-0.1-1.6-0.2-2.5-0.2l-0.4,0l0-2l0.4,0
			c0.9,0,1.8,0.1,2.8,0.2L207,154.9z"/>
		<path fill="#0EBBD6" d="M43.3,222.2l-2-0.4c0.2-1,0.4-2,0.6-3l2,0.4C43.7,220.2,43.5,221.2,43.3,222.2z M44.3,217.4l-1.9-0.5
			c0.3-1,0.5-2,0.8-2.9l1.9,0.6C44.8,215.4,44.6,216.4,44.3,217.4z M45.7,212.6l-1.9-0.6c0.3-1,0.7-2,1-2.9l1.9,0.7
			C46.3,210.7,46,211.7,45.7,212.6z M47.4,208l-1.8-0.8c0.4-1,0.8-1.9,1.3-2.8l1.8,0.9C48.2,206.2,47.8,207.1,47.4,208z M49.6,203.7
			l-1.7-1c0.5-0.9,1.1-1.8,1.6-2.6l1.6,1.1C50.6,202,50.1,202.8,49.6,203.7z M84.6,201.5c-0.1-0.2-0.2-0.4-0.3-0.5l1.8-1
			c0.1,0.2,0.2,0.4,0.3,0.6L84.6,201.5z M52.3,199.6l-1.6-1.2c0.7-0.8,1.3-1.6,2.1-2.3l1.4,1.4C53.5,198.2,52.9,198.9,52.3,199.6z
			 M83.3,199.4c-0.5-0.7-1.2-1.5-1.9-2.1l1.4-1.4c0.8,0.8,1.5,1.6,2.1,2.4L83.3,199.4z M55.6,196.2l-1.3-1.5
			c0.8-0.7,1.7-1.3,2.5-1.9l1.1,1.7C57.1,195,56.3,195.5,55.6,196.2z M80.1,196c-0.7-0.6-1.5-1.1-2.4-1.6l1-1.7
			c0.9,0.5,1.8,1.1,2.6,1.8L80.1,196z M59.5,193.5l-0.9-1.8c0.9-0.5,1.9-0.9,2.9-1.2l0.6,1.9C61.3,192.7,60.4,193.1,59.5,193.5z
			 M76,193.5c-0.9-0.4-1.8-0.8-2.7-1l0.6-1.9c1,0.3,2,0.7,2.9,1.1L76,193.5z M71.5,192c-0.9-0.2-1.9-0.3-2.8-0.4l0.1-2
			c1,0.1,2.1,0.2,3.1,0.4L71.5,192z M64,191.9l-0.4-2c1-0.2,2.1-0.3,3.1-0.4l0.1,2C65.8,191.6,64.9,191.8,64,191.9z"/>
		<path fill="#0EBBD6" d="M264.3,252.9c0-1-0.1-2-0.1-3l2-0.1c0,1,0.1,2,0.1,3L264.3,252.9z M264.1,247.9c-0.1-1-0.1-2-0.2-3l2-0.1
			c0.1,1,0.1,2,0.2,3L264.1,247.9z M263.8,243c-0.1-1-0.1-2-0.2-3l2-0.2c0.1,1,0.2,2,0.2,3L263.8,243z M263.4,238
			c-0.1-1-0.2-2-0.3-3l2-0.2c0.1,1,0.2,2,0.3,3L263.4,238z M262.9,233.1c-0.1-1-0.2-2-0.3-3l2-0.2c0.1,1,0.2,2,0.3,3L262.9,233.1z
			 M262.3,228.1c-0.1-1-0.3-2-0.4-3l2-0.3c0.1,1,0.3,2,0.4,3L262.3,228.1z M261.6,223.2c-0.2-1-0.3-2-0.5-2.9l2-0.4
			c0.2,1,0.3,2,0.5,3L261.6,223.2z M260.7,218.3c-0.2-1-0.4-2-0.6-2.9l1.9-0.4c0.2,0.9,0.4,1.9,0.6,3L260.7,218.3z M259.6,213.5
			c-0.2-1-0.5-1.9-0.8-2.9l1.9-0.6c0.3,0.9,0.5,1.9,0.8,2.9L259.6,213.5z M258.3,208.8c-0.3-1-0.6-1.9-1-2.8l1.9-0.7
			c0.3,0.9,0.7,1.9,1,2.9L258.3,208.8z M256.6,204.2c-0.4-0.9-0.8-1.8-1.3-2.6l1.8-0.9c0.5,0.9,0.9,1.8,1.3,2.8L256.6,204.2z
			 M254.4,199.9c-0.5-0.9-1.1-1.6-1.7-2.3l1.5-1.3c0.6,0.8,1.2,1.6,1.8,2.5L254.4,199.9z M251.4,196.2c-0.7-0.7-1.4-1.2-2.2-1.6
			l1-1.7c0.9,0.5,1.8,1.2,2.6,1.9L251.4,196.2z M235.8,195.9l-0.9-1.8c0.7-0.4,1.7-0.8,2.8-1.3l0.7,1.9
			C237.5,195.1,236.6,195.6,235.8,195.9z M240.3,194.1l-0.6-1.9c1.1-0.3,2.1-0.6,3.1-0.7l0.2,2C242.2,193.5,241.3,193.7,240.3,194.1
			z M247.6,193.8c-0.8-0.3-1.7-0.4-2.7-0.5l0.1-2c1.1,0,2.2,0.2,3.2,0.6L247.6,193.8z"/>
	</g>
	<path fill="#0EBBD6" d="M135.7,161.2l-1.9-0.6l0.8-2.9l1.9,0.6L135.7,161.2z M137.1,156.5l-1.9-0.6l0.8-2.9l1.9,0.6L137.1,156.5z
		 M138.5,151.7l-1.9-0.6l0.8-2.9l1.9,0.6L138.5,151.7z M139.9,146.9l-1.9-0.6l0.8-2.9l1.9,0.6L139.9,146.9z M141.3,142.1l-1.9-0.6
		l0.8-2.9l1.9,0.6L141.3,142.1z"/>
	<path fill="#0EBBD6" d="M148.2,163.5l0-0.5l2-0.1l0,0.5L148.2,163.5z M148.1,160.9l-0.2-3l2-0.1l0.2,3L148.1,160.9z M147.8,155.9
		l-0.2-3l2-0.1l0.2,3L147.8,155.9z M147.5,150.9l-0.2-3l2-0.1l0.2,3L147.5,150.9z M147.2,145.9l-0.2-3l2-0.1l0.2,3L147.2,145.9z
		 M147,141l-0.2-3l2-0.1l0.2,3L147,141z"/>
	<path fill="#0EBBD6" d="M188.3,159.9l-0.8-1.8l1.8-0.8l0.8,1.8L188.3,159.9z M186.3,155.3l-0.8-1.8l1.8-0.8l0.8,1.8L186.3,155.3z
		 M184.4,150.7l-0.8-1.8l1.8-0.8l0.8,1.8L184.4,150.7z M182.4,146.1l-0.8-1.8l1.8-0.8l0.8,1.8L182.4,146.1z M180.5,141.5l-0.8-1.8
		l1.8-0.8l0.8,1.8L180.5,141.5z"/>
	<path fill="#0EBBD6" d="M174.4,161.1l-0.1-2.1l2-0.1l0.1,2.1L174.4,161.1z M174.1,156.9l-0.2-3l2-0.1l0.2,3L174.1,156.9z
		 M173.8,151.9l-0.2-3l2-0.1l0.2,3L173.8,151.9z M173.5,146.9l-0.2-3l2-0.1l0.2,3L173.5,146.9z M173.2,142l-0.2-3l2-0.1l0.2,3
		L173.2,142z"/>
	<path fill="#0EBBD6" d="M165.7,163.4l-2-0.1l0-0.9l2,0.1L165.7,163.4z M165.8,160.5l-2-0.1l0.1-3l2,0.1L165.8,160.5z M166,155.5
		l-2-0.1l0.1-3l2,0.1L166,155.5z M166.1,150.5l-2-0.1l0.1-3l2,0.1L166.1,150.5z M166.3,145.5l-2-0.1l0.1-3l2,0.1L166.3,145.5z
		 M166.5,140.5l-2-0.1l0.1-3l2,0.1L166.5,140.5z"/>
	<path fill="#0EBBD6" d="M157,161.9l-0.2-3l2-0.2l0.2,3L157,161.9z M156.6,156.9l-0.2-3l2-0.2l0.2,3L156.6,156.9z M156.2,151.9
		l-0.2-3l2-0.2l0.2,3L156.2,151.9z M155.8,147l-0.2-3l2-0.2l0.2,3L155.8,147z M155.4,142l-0.2-3l2-0.2l0.2,3L155.4,142z"/>
	<path fill="#0EBBD6" d="M236.4,195.2h-2c0-1.1,0.1-2.1,0.3-3.2l2,0.4C236.5,193.3,236.4,194.3,236.4,195.2z M237.2,190.6l-1.9-0.7
		c0.4-1,0.8-2,1.4-2.9l1.7,1C237.9,188.9,237.5,189.8,237.2,190.6z M239.5,186.6l-1.6-1.3c0.7-0.8,1.4-1.6,2.2-2.3l1.3,1.5
		C240.7,185.2,240.1,185.9,239.5,186.6z M243,183.5l-1.1-1.7c0.9-0.6,1.8-1.1,2.8-1.5l0.8,1.8C244.6,182.5,243.7,182.9,243,183.5z
		 M247.2,181.5l-0.6-1.9c1-0.3,2-0.5,3.1-0.7l0.3,2C249,181,248.1,181.2,247.2,181.5z M251.9,180.7l-0.1-2c0.2,0,0.3,0,0.5,0v2
		C252.2,180.7,252,180.7,251.9,180.7z"/>
	<path fill="#0EBBD6" d="M82.7,200.4h-2c0-0.4,0-1,0.1-1.7c0-0.4,0-0.8,0.1-1.3l2,0.1c0,0.5,0,0.9-0.1,1.3
		C82.7,199.5,82.7,200,82.7,200.4z M82.9,195.4l-2,0l0-0.3c0-0.9,0-1.8-0.1-2.6l2-0.2c0.1,0.9,0.1,1.8,0.1,2.8L82.9,195.4z
		 M80.5,190.6c-0.2-1-0.5-1.9-0.8-2.6l1.8-0.8c0.4,0.9,0.7,1.9,0.9,3.1L80.5,190.6z M78.9,186.5c-0.5-0.7-1.2-1.2-2-1.5l0.8-1.8
		c1.1,0.5,2,1.2,2.7,2.1L78.9,186.5z M75.2,184.5c-0.3,0-0.7-0.1-1-0.1c-0.3,0-0.6,0-0.9,0l-0.2-2c0.4,0,0.7,0,1,0
		c0.4,0,0.8,0,1.2,0.1L75.2,184.5z"/>
	<path fill="#0EBBD6" d="M19.4,263.2l-2-0.1c0.1-1,0.2-2,0.2-3l2,0.2C19.6,261.2,19.5,262.2,19.4,263.2z M19.8,258.3l-2-0.2
		c0.1-1,0.2-2,0.3-3l2,0.2C20,256.3,19.9,257.2,19.8,258.3z M20.3,253.3l-2-0.2c0.1-1,0.2-2,0.4-3l2,0.3
		C20.6,251.3,20.5,252.3,20.3,253.3z M21,248.4l-2-0.3c0.2-1,0.3-2,0.5-3l2,0.3C21.3,246.4,21.1,247.4,21,248.4z M21.8,243.5l-2-0.4
		c0.2-1,0.4-2,0.6-3l2,0.4C22.2,241.5,22,242.5,21.8,243.5z M22.8,238.6l-1.9-0.5c0.2-1,0.5-2,0.7-2.9l1.9,0.5
		C23.3,236.7,23,237.6,22.8,238.6z M24.1,233.9l-1.9-0.6c0.3-1,0.6-2,1-2.9l1.9,0.7C24.7,232,24.4,232.9,24.1,233.9z M25.7,229.3
		l-1.8-0.8c0.4-1,0.8-1.9,1.3-2.8l1.8,0.9C26.5,227.4,26.1,228.3,25.7,229.3z M27.9,224.9l-1.7-1c0.6-1,1.2-1.8,1.8-2.6l1.5,1.3
		C28.9,223.3,28.4,224.1,27.9,224.9z M39.9,222.4c0-0.2-0.3-0.9-1.3-1.6l1.2-1.6c1.2,1,2,2.2,2,3.2L39.9,222.4z M30.8,221.3
		l-1.3-1.5c0.9-0.8,1.8-1.4,2.8-1.8l0.7,1.9C32.3,220.2,31.5,220.7,30.8,221.3z M37.2,219.9c-0.8-0.3-1.6-0.5-2.5-0.4l-0.2-2
		c1.2-0.1,2.3,0.1,3.4,0.5L37.2,219.9z"/>
</g>
<path fill="#9F2521" d="M96.1,198c-0.5,0.2-1,0.5-1.4,0.9c-0.9,1.8-1.1,4.5-1.1,4.5s-0.1,1.9,0.8,3.2c0.8,1,1.4,1.7,3.5,1.6
	c0.1-0.1,0.3-0.2,0.4-0.3L96.1,198z"/>
</svg>
