<?xml version="1.0" encoding="utf-8"?>
<!-- Generator: Adobe Illustrator 17.1.0, SVG Export Plug-In . SVG Version: 6.00 Build 0)  -->
<svg version="1.2" baseProfile="tiny" id="Layer_1" xmlns="http://www.w3.org/2000/svg" xmlns:xlink="http://www.w3.org/1999/xlink"
	 x="0px" y="0px" viewBox="-4 512.7 300 134" xml:space="preserve">
<path fill="#585B56" d="M233.5,571.7c-3.9,0.1-6.8,0.8-6.8,1.6v6c0,0.8,2.9,1.5,6.8,1.6V571.7z"/>
<g>
	<linearGradient id="SVGID_1_" gradientUnits="userSpaceOnUse" x1="51.3333" y1="629.7578" x2="240" y2="629.7578">
		<stop  offset="0" style="stop-color:#000000;stop-opacity:0.1"/>
		<stop  offset="0.9913" style="stop-color:#000000;stop-opacity:0.7"/>
	</linearGradient>
	<ellipse fill="url(#SVGID_1_)" cx="145.7" cy="629.8" rx="94.3" ry="8"/>
	<g>
		<path fill="#CE3727" d="M195.5,527c0,0-50.5-3.7-58,2.5c-1.1,0.9-38.2,33.6-41.2,36.5H65.4c-9,0-10.8,9-12.7,15.8l-3,15.1
			c0,6.6,15.6-0.9,21.1,1.8c2.1,1,15.6,9.7,18.1,9.7l121.8,1.6c2.3-2.7,3.5-1.3,5.5-1.6c4-0.6,12.2,0.7,12.2-3.1
			c0,0,1.5-30.9-1.3-39.3c-3.3-21.8-22.2-35.1-22.2-35.1C201.8,527.8,197.4,527,195.5,527z M102.5,566.5c0,0,33.1-31.3,37.5-34.3
			c5.1-3.4,57.4-3.5,61.4,0c4.1,3.6,15.2,13.5,19,22.1c2.3,5.3,3,11.9,3,11.9L102.5,566.5z"/>
		<path fill="#B53333" d="M63.6,605.6c0,2.3-12.1,0.8-14.4,0.8l0,0c-2.3,0-4.2-1.9-4.2-4.2v-12.3c0-2.3,1.9-4.2,4.2-4.2l0,0
			c2.3,0,25.4,0.4,25.4,1.5c0,0-6.6,5.1-8.3,9.9C64.4,602.3,63.6,605.6,63.6,605.6z"/>
		<rect x="103.1" y="566.4" fill="#9F2521" width="1.3" height="36.1"/>
		<polygon fill="#9F2521" points="180.2,603.7 102,603.7 100.9,602.6 181.4,602.6 		"/>
		<path fill="#B53333" d="M229.5,587.1c-2.3,0-26.9-0.7-26.9,0.3c0,0,0,0,0,0.1c6.5,4.3,10.7,11.7,10.7,20.1c0,0.2,0,0.5,0,0.7
			c4,0.7,14.3-0.6,16.2-0.6c2.3,0,4.2-1.9,4.2-4.2v-12.3C233.7,589,231.8,587.1,229.5,587.1z"/>
		<path fill="#9F2521" d="M200.6,581.3c1.5-2.9,3.4-14.8,3.4-14.8v18.5h-7.3C196.6,585.1,199.1,584.2,200.6,581.3z"/>
		<path fill="#0A0F10" d="M224.7,608.1c0-0.3,0-0.3,0-0.6c0-10.8-6.7-19.5-20.5-19.5c-15.3,0-19.1,11.2-19.5,21.7l-4.2-0.1
			c1.1,12.3,11.5,22.1,24,22.1c13,0,24.1-9.5,24.1-24L224.7,608.1z"/>
		<path fill="#0A0F10" d="M244.2,598.3c0,4.7-2.4,6.6-5.3,6.6l0,0c-3,0-5.3-1.9-5.3-6.6v-32.7c0-4.7,2.4-6.6,5.3-6.6l0,0
			c3,0,5.3,1.9,5.3,6.6V598.3z"/>
		<rect x="118.3" y="552.7" fill="#CE3727" width="1.6" height="17.1"/>
		<circle fill="#585B56" cx="204.5" cy="607.6" r="15.6"/>
		<circle fill="#999999" cx="204.5" cy="607.6" r="6"/>
		<polygon fill="#424341" points="190.9,573.3 190.9,570.8 189.6,570.8 189.6,574.6 201.4,574.6 201.4,573.3 		"/>
		<polygon fill="#424341" points="150.8,573.3 150.8,570.8 149.5,570.8 149.5,574.6 161.3,574.6 161.3,573.3 		"/>
		<g>
			<path fill="#424341" d="M104.4,573.2c-1.9-0.2-3.3-2.7-3-5.6c0.1-1.5,0.7-2.8,1.4-3.7c-1.4,0.7-2.4,2.5-2.6,4.6
				c-0.3,2.9,1.1,5.4,3,5.6c0.9,0.1,1.9-0.4,2.6-1.3C105.4,573.2,104.9,573.3,104.4,573.2z"/>
			<path fill="#787A76" d="M104.2,562.9c-0.9-0.1-1.7,0.4-2.4,1.1c0.5-0.3,1-0.4,1.5-0.4c1.9,0.2,3.3,2.7,3,5.6
				c-0.1,1.5-0.8,2.9-1.5,3.8c1.3-0.8,2.2-2.4,2.4-4.5C107.6,565.6,106.2,563.1,104.2,562.9z"/>
		</g>
		<g>
			<polygon fill="#0A0F10" points="124.6,563.8 123.7,564.1 124.8,566.5 127,566.5 121.8,554.6 119.9,555.4 119.9,555.5 
				122.9,562.3 123.8,561.9 			"/>
			<polygon fill="#0A0F10" points="119.9,565.8 123.7,564.1 124.6,563.8 123.8,561.9 122.9,562.3 119.9,563.6 			"/>
		</g>
		<g>
			<path fill="#574319" d="M161.2,558.2c0.2-2.1-1.4-3.9-3.4-4.1c-2.1-0.2-3.9,1.4-4.1,3.4l-0.1,1.5c0.3,1.1,0.4,2.3,0.2,3.5
				l-0.6,3.6h7.3L161.2,558.2z"/>
			<path fill="#574319" d="M157.8,553.6c2.1,0.2,3.9-1.4,4.1-3.4l0.3-3.2c0.2-2.1-1.4-3.9-3.4-4.1c-2.1-0.2-3.9,1.4-4.1,3.4
				l-0.3,3.2C154.2,551.7,155.7,553.5,157.8,553.6z"/>
			<ellipse fill="#333333" cx="148.5" cy="548.1" rx="6" ry="7.3"/>
			<path fill="#333333" d="M153.6,559.1c-0.7-2.6-2.6-4.6-5-5.2c-2.7-0.6-5.3,0.9-6.7,3.4l-7.3,3.5l-9.3-3.8c-1.2-0.5-2.5,0-3,1.1
				c-0.5,1.1,0,2.3,1.2,2.8l10.1,4.1c0.7,0.3,1.5,0.2,2.1-0.1c0.3,0,0.6-0.1,0.9-0.2l4-1.9l-0.6,3.5h13.2l0.6-3.6
				C154,561.4,153.9,560.2,153.6,559.1z"/>
			<path fill="#574319" d="M195.2,554.1c-2.1-0.2-3.9,1.4-4.1,3.4l-0.8,8.6h7.5l0.7-8C198.8,556.2,197.2,554.3,195.2,554.1z"/>
			<path fill="#574319" d="M196.1,542.9c-2.1-0.2-3.9,1.4-4.1,3.4l-0.3,3.2c-0.2,2.1,1.4,3.9,3.4,4.1c2.1,0.2,3.9-1.4,4.1-3.4
				l0.3-3.2C199.7,544.9,198.2,543.1,196.1,542.9z"/>
		</g>
		<polygon fill="#CE3727" points="162.1,529.3 165.5,529.2 165.5,566.2 162.1,566.2 		"/>
		<polygon fill="#CE3727" points="200.8,531.7 204.3,531.7 207.3,567.3 203.8,567.3 		"/>
		<path fill="#9F2521" d="M159,598.8c1.5-2.9,3.4-32.4,3.4-32.4v36.1H155C155,602.6,157.5,601.7,159,598.8z"/>
	</g>
</g>
<path fill="#0A0F10" d="M99,608.4c0-0.3,0-0.6,0-0.8c0-10.8-8.7-19.5-19.5-19.5c-10.5,0-19.1,8.4-19.5,18.8l-4.8-0.2
	c0,0.3,0,0.6,0,0.9c0,13.4,10.8,24.1,24.1,24.1c13,0,23.6-10.3,24.1-23.2L99,608.4z"/>
<circle fill="#585B56" cx="79.7" cy="607.6" r="15.6"/>
<circle fill="#999999" cx="79.6" cy="607.6" r="6"/>
<path fill="#FFFFFF" d="M44.8,602.4c-2.1,0-2.1-11.7,0-11.7C46.9,590.7,46.9,602.4,44.8,602.4z"/>
<path fill="#FFFFFF" d="M231.4,585.6c0,0.9-1,1.6-2.2,1.6l0,0c-1.2,0-2.2-0.7-2.2-1.6v-9.7c0-0.9,1-1.6,2.2-1.6l0,0
	c1.2,0,2.2,0.7,2.2,1.6V585.6z"/>
</svg>
