<?xml version="1.0" encoding="utf-8"?>
<!-- Generator: Adobe Illustrator 17.1.0, SVG Export Plug-In . SVG Version: 6.00 Build 0)  -->
<svg version="1.2" baseProfile="tiny" id="Layer_1" xmlns="http://www.w3.org/2000/svg" xmlns:xlink="http://www.w3.org/1999/xlink"
	 x="0px" y="0px" viewBox="0 63 300 237" xml:space="preserve">
<g>
	<circle fill="#FFC854" cx="152.3" cy="183.4" r="93.2"/>
	<path fill="#020202" d="M152.3,89.5c-51.8,0-93.8,42-93.8,93.8s42.1,93.8,93.8,93.8c51.8,0,93.8-42,93.8-93.8
		C246.2,131.6,204.1,89.5,152.3,89.5z M152.3,273.8c-49.8,0-90.4-40.6-90.4-90.4S102.5,93,152.3,93s90.4,40.6,90.4,90.4
		C242.8,233.2,202.2,273.8,152.3,273.8z"/>
	<path fill="#0A773C" d="M116,194.9c0.3-0.6,0.6-1.2,0.6-1.8c1.2-4.9-1.8-9.8-6.7-11c-4.4-1.1-8.9,1.3-10.6,5.4
		c-0.6-0.4-1.4-0.6-2.1-0.8c-4.9-1.2-9.8,1.8-11,6.7c-1.1,4.8,1.7,9.5,6.2,10.8c0.4,1.5,1.1,6.1-2.7,9.9c-4.5,4.7,2.1,5.3,6.2,6.2
		c4,1,11.7,3.3,8.4-2.8c-1.9-3.5-0.8-6.4,0.6-8.3c0.9,0.7,2,1.2,3.3,1.6c4.9,1.2,9.8-1.8,11-6.7C120.2,200.6,118.8,197.1,116,194.9z
		"/>
	<path fill="#0A773C" d="M91,155.2c-0.2-0.4-0.4-0.9-0.7-1.3c-2.2-3.1-6.5-3.9-9.6-1.7c-2.8,1.9-3.8,5.7-2.2,8.7
		c-0.5,0.2-1.1,0.5-1.5,0.8c-3.1,2.2-3.9,6.5-1.7,9.6c2.1,3,6.2,3.8,9.3,1.9c1,0.5,4,2.4,4.3,6.5c0.4,4.9,4.1,1.5,6.6-0.3
		c2.6-1.8,7.7-4.9,2.6-6.1c-2.9-0.7-4.1-2.8-4.4-4.5c0.9-0.2,1.7-0.5,2.5-1.1c3.1-2.2,3.9-6.5,1.7-9.6
		C96.3,155.8,93.6,154.7,91,155.2z"/>
	<g>
		<path fill="#707259" d="M221.2,163.3c0-27.7-24.4-50.1-54.5-50.1s-55.3,22.5-54.5,50.1c1.1,37.1,30.8,24.8,27,47.9
			c-0.8,5-22.5,10.4-25,23.8c-3.6,19.6,8.5,28.8,33.8,25.4C200.7,253.2,221.2,187.8,221.2,163.3z"/>
		<path fill="#B45737" d="M217.7,158c0-27.7-24.4-50.1-54.5-50.1s-55.3,22.5-54.5,50.1c1.1,37.1,30.8,24.8,27,47.9
			c-0.8,5-22.5,10.4-25,23.8c-3.6,19.6,8.5,28.8,33.8,25.4C197.2,248,217.7,182.5,217.7,158z"/>
		<path fill="#A02722" d="M164.1,120.2c-0.4-0.3-0.8-0.5-1.5-0.5c-20.1-1.6-41,8-42.9,28.5c-0.1,0.1-0.2,0.3-0.3,0.4
			c-0.7,1-0.4,2.1,0.2,2.8c0,1.1,0.1,2.3,0.2,3.4c0.9,9.7,8,21.1,15.8,26.9c1.9,1.9,3.5,3.9,4.6,6.5c1.7,4.3,1.1,9.5,3.6,13.5
			c5.5,9.1,20,12,29.5,14.8c0.8,0.3,2,0,2.6-0.7c0.2-0.2,0.3-0.4,0.5-0.6c11.6,3.3,34.5-45.6,34.5-60.1
			C210.9,139.6,184.1,121.4,164.1,120.2z M167,208.3c0.3,0.2,0.5,0.3,0.8,0.5c0.3,0.2,0.7,0.3,1,0.4c0.1,0.2,0.2,0.3,0.3,0.5
			c-0.7-0.2-1.5-0.5-2.2-0.7C167.1,208.8,167,208.5,167,208.3z"/>
		<path fill="#AF812C" d="M170.5,228c0,6.7-7.4,12.1-16.7,12.1c-9.2,0-27.9-3.8-27.9-10.4c0-6.7,18.8-13.8,27.9-13.8
			C163.1,215.9,170.5,221.3,170.5,228z"/>
		<path fill="#8D4523" d="M161.4,228c0,4-4.4,7.1-9.8,7.1c-5.4,0-16.4-2.2-16.4-6.1s11-8,16.4-8C157,220.9,161.4,224.1,161.4,228z"
			/>
		<path fill="#B45737" d="M192.8,171.1c-0.6-15-11.3-39.5-26-41.5c-14.3-2-33.4,5.9-35,24.3c-0.1,1.3,0.3,2.1,0.9,2.6
			c0.1,0.3,0.2,0.6,0.4,0.9c5.5,9.3,11.4,18.2,17.4,27.1c4.1,5.8,8.9,13,15.9,13.8C183.5,200,193.6,191,192.8,171.1z M157.3,189.3
			c-6.8-9.2-15.4-20.1-21.3-30c-0.1-0.2-2.4-6.9-2.5-7.1c1.8-15.3,28-23.4,37.9-17.5c9.8,5.8,19.1,29.7,19.6,41.3
			C191.9,196.9,165.5,200.5,157.3,189.3z"/>
	</g>
	<path fill="#020202" d="M34.8,125.9c0,0,4.1,22.9,1,31.8c0,0-1,1.1-2.1,2.1s-4.5,3.2-4.9,10.6c-0.5,7.3-1.3,22.5,1.9,44.5
		c3.1,22,3.2,32.1,2.4,32.5c-0.7,0.4-5.4,3.2-11.2-0.3c0,0-0.5-1.4-0.4-2.4c0.5-7.1,1-31.6,1.8-40.9c0.8-10.7,1.8-26.1,1.4-34.2
		c-0.4-8-0.9-7.3-2.8-9.6c-1.9-2.2-2.8-3-2.5-13.5c0.3-10.5,0-20.8,0-20.8s1-1.5,1.3,0c0.2,1.5,1.7,21.4,1.7,21.4l1.5-0.2l0.3-21.1
		c0,0,1.5-0.9,1.5,0.1c0,0.9,1.7,21.4,1.7,21.4h1.5v-20.6c0,0,1-1.1,1.3,0c0.2,1.3,2.4,20.4,2.4,20.4H34L33.2,126
		C33.3,126.1,34.8,124.9,34.8,125.9"/>
	<path fill="#020202" d="M268.9,170.8c0.3,3.8,0.1,5.6,0.5,7.5c0,0,8.6-2.6,8.6-0.6c0,7.6-0.7,18.2-1.4,25.8
		c-0.6,8.4-1.1,30.6-1.7,37c-0.1,0.9,0.4,2.2,0.4,2.2c5.2,3.2,9.4,0.7,10.1,0.3c0.7-0.4,0.6-9.5-2.2-29.5c-2.9-20-3.2-44.9-3-53.9
		c0-0.2,1.3-36.9,1.3-37.1C280.5,122.6,266.1,134.1,268.9,170.8z"/>
</g>
</svg>
