<?xml version="1.0" encoding="utf-8"?>
<!-- Generator: Adobe Illustrator 17.1.0, SVG Export Plug-In . SVG Version: 6.00 Build 0)  -->
<svg version="1.2" baseProfile="tiny" id="Layer_1" xmlns="http://www.w3.org/2000/svg" xmlns:xlink="http://www.w3.org/1999/xlink"
	 x="0px" y="0px" viewBox="0 0 640 230" xml:space="preserve">
<g>
	<g>
		<circle fill="#B8DA96" cx="113.251" cy="119" r="87.306"/>
		<g>
			<path fill="#020202" d="M113.241,31.083c-48.471,0-87.912,39.431-87.912,87.912c0,48.49,39.44,87.922,87.912,87.922
				c48.49,0,87.931-39.431,87.931-87.922C201.172,70.515,161.731,31.083,113.241,31.083z M113.241,195.491
				c-42.17,0-76.481-34.307-76.481-76.496c0-42.175,34.311-76.486,76.481-76.486c42.18,0,76.491,34.311,76.491,76.486
				C189.731,161.184,155.421,195.491,113.241,195.491z"/>
		</g>
	</g>
	<g>
		<path fill="#ED6A58" d="M119.946,150.799l-0.449-0.446l11.485-11.571c-2.464-3.725-5.254-7.568-8.331-11.439l-13.576,10.452
			l-0.449-0.446l12.187-12.279c-0.315-0.383-0.627-0.766-0.947-1.15c-2.648-3.168-5.103-6.342-7.424-9.413l-13.894,10.696
			l-0.449-0.446l12.545-12.641c-3.013-4.025-5.801-7.802-8.488-11.065l-14.48,11.147l-0.449-0.446l12.939-13.037
			c-7.666-8.662-14.737-12.398-24.2-4.486c-16.619,13.895,3.398,26.884,21.442,48.466s37.699,34.875,43.9,29.69
			c4.524-3.782,0.633-16.354-8.803-31.255L119.946,150.799z"/>
		<g>
			<path fill="#B2D238" d="M81.094,90.461c-1.657,0.248-2.996,1.466-4.245,2.592c0.243-0.247,0.527-0.497,0.776-0.727
				c-1.087,0.554-2.03,1.327-2.883,2.207c0.387-0.185,0.836-0.308,1.216-0.463c-1.497,1.235-2.682,2.862-3.927,4.388
				c0.51-0.395,1.021-0.79,1.525-1.18c-0.461,0.534-0.839,1.269-1.275,1.81c1.589-1.195,3.161-2.655,4.447-4.189
				c1.553-1.32,3.095-2.675,4.713-3.908C81.359,90.772,81.244,90.481,81.094,90.461z"/>
			<path fill="#B2D238" d="M73.231,96.079l4.95-6.243c-2.088,1.524-3.308,1.473-6.309,1.599c-0.016,0.071,0.088,0.976,0.101,1.036
				c-1.858,0.148-3.124,7.368-2.558,8.711c0.967-0.772,1.804-1.726,2.617-2.722c-0.248,0.191-0.495,0.383-0.74,0.573
				C72.004,98.113,72.628,97.054,73.231,96.079z"/>
			<path fill="#B2D238" d="M82.232,90.392c-0.268,0.192-0.527,0.4-0.79,0.6c0.035,0.093,0.066,0.176,0.089,0.215
				C81.851,91.008,82.084,90.736,82.232,90.392z"/>
		</g>
		<g>
			<path fill="#B2D238" d="M73.049,96.073c0.069-0.058,0.138-0.115,0.206-0.173c0.628-0.525,0.539-1.582,0-2.121
				c-0.616-0.616-1.495-0.524-2.121,0c-0.069,0.058-0.138,0.115-0.206,0.173c-0.628,0.525-0.539,1.582,0,2.121
				C71.544,96.69,72.423,96.597,73.049,96.073L73.049,96.073z"/>
		</g>
		<path fill="#0E9547" d="M77.459,77.24c0.85,3.91,0.939,7.871,0.199,11.772c-0.495,0.257-0.969,0.575-1.428,0.941
			c-0.949-1.392-1.898-2.783-2.846-4.175c-1.276-1.872-3.959,0.4-2.695,2.253c0.972,1.425,1.944,2.851,2.915,4.276
			c-0.148,0.132-0.298,0.261-0.448,0.387c-0.185,0.154-0.323,0.323-0.423,0.499c-1.177-0.739-2.354-1.478-3.531-2.217
			c-0.649-0.407-1.297-0.814-1.946-1.221c-0.122-0.076-0.678-0.38-1.177-0.66c0.015-0.153,0.018-0.312-0.009-0.484
			c-0.013-0.086-0.027-0.172-0.04-0.258c-0.096-0.616-0.552-1.152-1.137-1.36c-2.045-0.726-4.256,1.57-2.648,3.454
			c0.973,1.14,2.405,1.818,3.66,2.605c1.668,1.047,3.336,2.094,5.004,3.14l-1.299,1.01c-1.791,1.391,0.468,4.081,2.253,2.695
			c3.475-2.699,6.95-5.398,10.424-8.097c1.083-0.842,0.665-2.534-0.532-3.001c-0.172-0.067-0.336-0.107-0.501-0.155
			c0.621-3.977,0.538-7.998-0.329-11.988C80.443,74.445,76.978,75.026,77.459,77.24z"/>
	</g>
	<g>
		<circle fill="#42652F" cx="313.477" cy="119" r="87.306"/>
		<g>
			<path fill="#020202" d="M313.467,31.083c-48.471,0-87.912,39.431-87.912,87.912c0,48.49,39.44,87.922,87.912,87.922
				c48.49,0,87.931-39.431,87.931-87.922C401.398,70.515,361.957,31.083,313.467,31.083z M313.467,195.491
				c-42.17,0-76.481-34.307-76.481-76.496c0-42.175,34.311-76.486,76.481-76.486c42.18,0,76.491,34.311,76.491,76.486
				C389.958,161.184,355.647,195.491,313.467,195.491z"/>
		</g>
	</g>
	<g>
		<circle fill="#FFC854" cx="512.441" cy="119" r="87.306"/>
		<g>
			<path fill="#020202" d="M512.432,31.083c-48.471,0-87.912,39.431-87.912,87.912c0,48.49,39.44,87.922,87.912,87.922
				c48.49,0,87.931-39.431,87.931-87.922C600.363,70.515,560.922,31.083,512.432,31.083z M512.432,195.491
				c-42.17,0-76.481-34.307-76.481-76.496c0-42.175,34.311-76.486,76.481-76.486c42.18,0,76.491,34.311,76.491,76.486
				C588.922,161.184,554.612,195.491,512.432,195.491z"/>
		</g>
	</g>
	<g>
		<path fill="#ED6A58" d="M293.761,145.506l-0.171-0.609l15.694-4.414c-0.31-4.456-0.845-9.175-1.617-14.058l-16.963,2.409
			l-0.171-0.609l16.654-4.684c-0.086-0.489-0.168-0.975-0.258-1.467c-0.745-4.061-1.318-8.033-1.824-11.848l-17.36,2.466
			l-0.171-0.609l17.144-4.822c-0.639-4.987-1.206-9.647-1.938-13.811l-18.092,2.569l-0.171-0.609l17.682-4.973
			c-2.405-11.314-6.719-18.048-18.852-15.823c-21.307,3.907-10.284,25.071-5.21,52.74c5.073,27.67,15.632,48.919,23.583,47.461
			c5.8-1.063,8.606-13.921,7.733-31.536L293.761,145.506z"/>
		<g>
			<path fill="#B2D238" d="M289.666,73.858c-1.565-0.6-3.329-0.2-4.971,0.166c0.333-0.095,0.703-0.173,1.033-0.25
				c-1.219-0.053-2.42,0.155-3.596,0.501c0.428,0.03,0.88,0.144,1.286,0.196c-1.911,0.338-3.744,1.17-5.578,1.885
				c0.638-0.092,1.278-0.185,1.908-0.276c-0.664,0.238-1.355,0.691-2.001,0.948c1.971-0.257,4.059-0.754,5.933-1.455
				c2.001-0.384,4.011-0.804,6.026-1.08C289.743,74.259,289.787,73.949,289.666,73.858z"/>
			<path fill="#B2D238" d="M280.056,74.874l7.383-2.995c-2.568,0.298-3.605-0.348-6.278-1.716c-0.049,0.054-0.404,0.893-0.422,0.951
				c-1.69-0.786-6.347,4.874-6.517,6.321c1.221-0.195,2.42-0.613,3.618-1.08c-0.31,0.045-0.619,0.09-0.926,0.134
				C277.986,76.04,279.051,75.426,280.056,74.874z"/>
			<path fill="#B2D238" d="M290.69,74.358c-0.328,0.035-0.656,0.088-0.983,0.133c-0.015,0.098-0.029,0.186-0.029,0.231
				C290.055,74.706,290.392,74.585,290.69,74.358z"/>
		</g>
		<g>
			<path fill="#B2D238" d="M279.899,74.781c0.088-0.016,0.176-0.032,0.265-0.049c0.805-0.148,1.25-1.109,1.048-1.845
				c-0.231-0.839-1.042-1.195-1.845-1.048c-0.088,0.016-0.176,0.032-0.265,0.049c-0.805,0.148-1.25,1.109-1.048,1.845
				C278.284,74.572,279.095,74.929,279.899,74.781L279.899,74.781z"/>
		</g>
		<path fill="#B2D238" d="M293.014,60.562c-1.186,3.821-3.059,7.313-5.625,10.343c-0.557-0.02-1.127,0.023-1.706,0.115
			c-0.14-1.679-0.281-3.357-0.421-5.035c-0.189-2.257-3.642-1.602-3.455,0.634c0.144,1.719,0.288,3.438,0.431,5.157
			c-0.194,0.041-0.388,0.081-0.58,0.116c-0.237,0.043-0.44,0.122-0.613,0.226c-0.661-1.223-1.321-2.446-1.982-3.668
			c-0.364-0.674-0.728-1.347-1.092-2.021c-0.068-0.126-0.403-0.665-0.699-1.155c0.088-0.125,0.169-0.262,0.231-0.426
			c0.031-0.081,0.062-0.162,0.092-0.244c0.22-0.584,0.087-1.275-0.32-1.744c-1.423-1.639-4.477-0.729-4.005,1.702
			c0.286,1.471,1.198,2.767,1.902,4.07c0.936,1.733,1.872,3.465,2.808,5.197l-1.628,0.239c-2.244,0.329-1.603,3.783,0.633,3.455
			c4.353-0.638,8.707-1.275,13.06-1.913c1.357-0.199,1.827-1.878,1.015-2.873c-0.117-0.143-0.24-0.258-0.36-0.382
			c2.5-3.156,4.407-6.696,5.618-10.596C296.988,59.598,293.686,58.398,293.014,60.562z"/>
	</g>
	<path fill="#0A773C" d="M338.563,93.34c0.359-0.733,0.65-1.512,0.85-2.339c1.472-6.104-2.284-12.247-8.388-13.719
		c-5.545-1.337-11.109,1.647-13.188,6.779c-0.81-0.423-1.675-0.766-2.603-0.99c-6.105-1.472-12.247,2.284-13.719,8.388
		c-1.427,5.918,2.066,11.858,7.842,13.557c0.444,1.843,1.33,7.59-3.311,12.427c-5.608,5.845,2.694,6.647,7.703,7.855
		s14.601,4.12,10.436-3.482c-2.403-4.386-0.987-8.047,0.642-10.363c1.188,0.879,2.569,1.54,4.096,1.909
		c6.105,1.472,12.247-2.283,13.719-8.388C343.721,100.494,341.978,96,338.563,93.34z"/>
	<path fill="#0A773C" d="M482.664,122.649c0.359-0.733,0.65-1.512,0.85-2.339c1.472-6.104-2.284-12.247-8.388-13.719
		c-5.545-1.337-11.109,1.647-13.188,6.78c-0.809-0.423-1.675-0.766-2.603-0.99c-6.105-1.472-12.247,2.284-13.719,8.388
		c-1.427,5.918,2.066,11.858,7.842,13.557c0.444,1.843,1.33,7.59-3.311,12.427c-5.608,5.845,2.694,6.647,7.703,7.855
		s14.601,4.12,10.436-3.482c-2.403-4.386-0.987-8.047,0.642-10.363c1.188,0.879,2.568,1.54,4.096,1.909
		c6.105,1.472,12.247-2.283,13.719-8.388C487.822,129.802,486.079,125.308,482.664,122.649z"/>
	<path fill="#F8DB94" d="M341.235,168.388c11.107-4.9,20.896-7.094,17.81-14.087c-1.653-3.747-12.988-15.54-23.5-25.532
		c-0.576,0.451-1.223,0.845-1.936,1.16c-3.908,1.724-8.253,0.455-9.705-2.837c-1.076-2.438-0.258-5.299,1.825-7.32
		c-4.7-4.113-8.175-6.785-8.814-6.503c-0.745,0.329-1.178,51.785,1.908,58.778C321.909,179.041,330.128,173.289,341.235,168.388z
		 M340.182,144.827c3.497-1.543,7.582,0.042,9.125,3.538c1.543,3.497-0.041,7.582-3.538,9.125s-7.582-0.041-9.125-3.538
		C335.102,150.455,336.686,146.369,340.182,144.827z M320.728,140.062c2.88-1.271,6.244,0.034,7.514,2.913
		c1.27,2.88-0.034,6.244-2.913,7.514c-2.88,1.27-6.244-0.034-7.514-2.913C316.544,144.697,317.849,141.333,320.728,140.062z"/>
	<g>
		<path fill="#020202" d="M331.186,98.399c0,0,17.22,10.236,21.367,17.166c0,0,0.187,1.326,0.219,2.517
			c0.06,1.185-0.364,4.734,4.089,9.138c4.472,4.399,13.956,13.48,30.078,23.745c16.113,10.267,22.697,15.918,22.569,16.667
			c-0.127,0.749-0.959,5.36-6.506,7.073c0,0-1.16-0.451-1.832-1.103c-4.344-4.304-20.004-18.439-25.62-24.1
			c-6.472-6.525-16.049-15.875-21.552-20.086c-5.505-4.217-5.316-3.474-7.842-3.522c-2.509-0.045-3.53,0.148-10.161-5.929
			c-6.592-6.085-13.563-11.735-13.563-11.735s-0.365-1.463,0.701-0.762c1.074,0.693,14.88,10.932,14.88,10.932l0.705-1.058
			l-13.612-12.026c0,0,0.224-1.479,0.858-0.922c0.617,0.567,14.898,10.928,14.898,10.928l0.82-0.921l-13.429-11.576
			c0,0-0.199-1.336,0.715-0.772c0.903,0.554,14.698,9.886,14.698,9.886l0.976-1.08l-14.145-11.381
			C330.497,99.479,330.57,97.838,331.186,98.399"/>
	</g>
	<path fill="#B45737" d="M559.91,99.988c0-19.863-17.514-35.964-39.119-35.964c-21.605,0-39.73,16.111-39.119,35.964
		c0.819,26.6,22.108,17.782,19.343,34.368c-0.598,3.585-16.134,7.469-17.927,17.03c-2.633,14.042,6.137,20.644,24.201,18.226
		C545.235,164.533,559.91,117.595,559.91,99.988z"/>
	<path fill="#A02722" d="M521.464,72.855c-0.275-0.21-0.617-0.356-1.036-0.388c-14.401-1.12-29.458,5.727-30.783,20.503
		c-0.068,0.11-0.136,0.223-0.204,0.329c-0.501,0.778-0.336,1.525,0.124,2.052c0.007,0.798,0.04,1.61,0.125,2.45
		c0.708,6.977,5.729,15.144,11.385,19.276c1.327,1.359,2.562,2.785,3.277,4.634c1.193,3.084,0.857,6.796,2.629,9.683
		c3.972,6.473,14.364,8.573,21.122,10.605c0.627,0.189,1.392-0.007,1.842-0.487c0.141-0.15,0.251-0.295,0.371-0.442
		c8.269,2.396,24.779-32.764,24.779-43.166C555.095,86.742,535.792,73.717,521.464,72.855z M523.533,136.043
		c0.201,0.126,0.4,0.254,0.602,0.377c0.242,0.118,0.491,0.219,0.736,0.33c0.084,0.119,0.172,0.235,0.256,0.354
		c-0.527-0.176-1.079-0.363-1.55-0.524C523.581,136.393,523.55,136.22,523.533,136.043z"/>
	<path fill="#AF812C" d="M526.113,150.191c0,4.785-5.339,8.665-11.925,8.665s-20.044-2.684-20.044-7.47
		c0-4.785,13.458-9.86,20.044-9.86S526.113,145.406,526.113,150.191z"/>
	<path fill="#8D4523" d="M519.499,150.191c0,2.805-3.13,5.079-6.991,5.079c-3.861,0-11.75-1.573-11.75-4.379s7.889-5.78,11.75-5.78
		C516.369,145.112,519.499,147.386,519.499,150.191z"/>
	<path fill="#B45737" d="M542.088,109.377c-0.469-10.741-8.05-28.306-18.668-29.791c-10.26-1.436-24.026,4.233-25.147,17.404
		c-0.074,0.874,0.199,1.503,0.636,1.905c0.063,0.218,0.146,0.437,0.278,0.66c3.951,6.661,8.12,13.119,12.499,19.424
		c2.908,4.186,6.368,9.37,11.466,9.897C535.42,130.145,542.71,123.628,542.088,109.377z M516.552,122.405
		c-4.85-6.547-11.031-14.422-15.238-21.512c-0.08-0.136-1.702-4.97-1.793-5.079c1.254-10.972,20.081-16.805,27.189-12.549
		c7.035,4.213,13.681,21.293,14.043,29.579C541.41,127.901,522.488,130.416,516.552,122.405z"/>
	<g>
		<path fill="#020202" d="M536.346,98.399c0,0,17.22,10.236,21.367,17.166c0,0,0.187,1.326,0.219,2.517
			c0.06,1.185-0.364,4.734,4.089,9.138c4.472,4.399,13.956,13.48,30.078,23.745c16.113,10.267,22.697,15.918,22.569,16.667
			c-0.127,0.749-0.958,5.36-6.506,7.073c0,0-1.16-0.451-1.832-1.103c-4.344-4.304-20.004-18.439-25.62-24.1
			c-6.472-6.525-16.049-15.875-21.552-20.086c-5.505-4.217-5.316-3.474-7.842-3.522c-2.509-0.045-3.53,0.148-10.161-5.929
			c-6.592-6.085-13.563-11.735-13.563-11.735s-0.365-1.463,0.701-0.762c1.074,0.693,14.88,10.932,14.88,10.932l0.705-1.058
			l-13.612-12.026c0,0,0.224-1.479,0.858-0.922c0.617,0.567,14.898,10.928,14.898,10.928l0.82-0.921l-13.429-11.576
			c0,0-0.199-1.336,0.715-0.772c0.903,0.554,14.698,9.886,14.698,9.886l0.976-1.08l-14.145-11.381
			C535.658,99.479,535.731,97.838,536.346,98.399"/>
	</g>
	<g>
		<path fill="#020202" d="M131.724,98.399c0,0,17.22,10.236,21.367,17.166c0,0,0.187,1.326,0.219,2.517
			c0.06,1.185-0.364,4.734,4.089,9.138c4.472,4.399,13.956,13.48,30.078,23.745c16.113,10.267,22.697,15.918,22.569,16.667
			c-0.127,0.749-0.959,5.36-6.506,7.073c0,0-1.16-0.451-1.833-1.103c-4.344-4.304-20.004-18.439-25.62-24.1
			c-6.472-6.525-16.049-15.875-21.552-20.086c-5.505-4.217-5.316-3.474-7.842-3.522c-2.509-0.045-3.53,0.148-10.161-5.929
			c-6.592-6.085-13.563-11.735-13.563-11.735s-0.365-1.463,0.701-0.762c1.074,0.693,14.88,10.932,14.88,10.932l0.705-1.058
			l-13.612-12.026c0,0,0.224-1.479,0.858-0.922c0.617,0.567,14.898,10.928,14.898,10.928l0.82-0.921l-13.428-11.576
			c0,0-0.199-1.336,0.715-0.772c0.903,0.554,14.698,9.886,14.698,9.886l0.976-1.08l-14.145-11.381
			C131.036,99.479,131.108,97.838,131.724,98.399"/>
	</g>
	<g>
		<path fill="#020202" d="M568.191,125.806c0.238,3.283,0.096,4.823,0.424,6.435c0.001,0.038,7.348-2.216,7.342-0.535
			c-0.03,6.579-0.621,15.619-1.139,22.242c-0.567,7.218-1.01,26.359-1.395,31.896c-0.054,0.844,0.324,1.911,0.324,1.911
			c4.466,2.805,8.13,0.64,8.719,0.285c0.591-0.355,0.575-8.232-1.908-25.391c-2.492-17.168-2.792-38.68-2.62-46.466
			c0.004-0.18,1.06-31.759,1.077-31.934C578.191,84.296,565.881,94.162,568.191,125.806z"/>
	</g>
	<path fill="#0A773C" d="M149.97,84.222c0.359-0.733,0.65-1.512,0.85-2.339c1.472-6.104-2.284-12.247-8.388-13.719
		c-5.545-1.337-11.109,1.647-13.188,6.779c-0.81-0.423-1.675-0.766-2.603-0.99c-6.105-1.472-12.247,2.284-13.719,8.388
		c-1.427,5.918,2.066,11.858,7.842,13.557c0.444,1.843,1.329,7.59-3.311,12.427c-5.608,5.845,2.694,6.647,7.703,7.855
		c5.009,1.208,14.601,4.12,10.436-3.482c-2.403-4.386-0.987-8.047,0.642-10.363c1.188,0.879,2.569,1.54,4.096,1.909
		c6.105,1.472,12.247-2.284,13.719-8.388C155.128,91.376,153.385,86.881,149.97,84.222z"/>
</g>
</svg>
