<?xml version="1.0" encoding="utf-8"?>
<!-- Generator: Adobe Illustrator 17.1.0, SVG Export Plug-In . SVG Version: 6.00 Build 0)  -->
<svg version="1.2" baseProfile="tiny" id="Layer_1" xmlns="http://www.w3.org/2000/svg" xmlns:xlink="http://www.w3.org/1999/xlink"
	 x="0px" y="0px" viewBox="10.9 226.3 625.3 625.9" xml:space="preserve">
	 <g>
		<circle fill="#009AEF" cx="323.9" cy="539.3" r="311.8"/>
		<path fill-rule="evenodd" fill="#AAC707" d="M635.8,539.3c0-7-0.3-14-0.7-20.9c-31.6,0.1-77.2,2.8-143,10.9
			c-179.5,22.1-158.9-9.1-304.7-20.2c-71.5-5.5-130.9-5.9-173.3-4.8c-1.3,11.5-2,23.2-2,35c0,172.2,139.6,311.8,311.8,311.8
			S635.8,711.5,635.8,539.3z"/>
		<path fill-rule="evenodd" fill="#666768" d="M323.9,851.1c107.9,0,203-54.8,259-138.1c-38.5-7.8-100.1-17.7-160.5-16.6
			c-63.4,1.2-100-3.8-126.9-9.9c-0.1-0.5-0.1-0.9-0.1-1.4c1-15.2,21.5-57.4,46.2-72.5c24.7-15.1,59.8-58.2,61.1-60
			c6.2-8.4-12.4-7.9-18.7-10.2c-34.4-12.3-102.4,21.6-139.5,26.1c-26-2.4-71-11.1-93.3-2.6c-15.3,5.8-48.5,37.3-68.5,68.8
			C63.6,665,51.7,673,49.5,683.6c-0.7,0.1-1.3,0.2-1.9,0.2C99.7,783.3,203.9,851.1,323.9,851.1z"/>
		<circle fill="none" cx="323.9" cy="539.3" r="311.8"/>
		<polygon fill="#A59244" points="606,460.3 433.7,458.2 239.6,315.4 475.4,348.9 "/>
		<polygon fill="#A59244" points="71.4,471.9 49.5,472.6 233.4,319.5 242.3,327 "/>
		<polygon fill="#F6E8D7" points="430.8,581.7 597.5,518.1 597.5,464.6 430.8,464.6 "/>
		<polygon fill="#B15117" points="182.2,354.3 129.1,399.7 129.1,327.6 182.2,327.6 "/>
		<rect x="111.3" y="449.5" fill="#393A3A" width="283.3" height="130.5"/>
		<polygon fill="#E0C99D" points="247.1,330.8 75.7,473.8 78.1,581.7 122.7,581.7 122.7,448.5 383.8,448.5 383.8,581.7 430.8,581.7 
			430.8,464.6 "/>
		<rect x="179" y="534" fill="#050B0C" width="16" height="50"/>
		<rect x="294" y="534" fill="#050B0C" width="15" height="50"/>
			<path fill="#577483" d="M294.5,528.7h-94.1c-6.5,0-11.4-5.9-10.1-12.3l2.5-12.6c0.8-4.3,4.3-7.6,8.7-8.2l46.2-6.3l45.9,6.5
				c4.3,0.6,7.8,3.9,8.6,8.1l2.5,12.5C305.9,522.7,301,528.7,294.5,528.7z"/>
			<path fill="#D23A34" d="M294.5,529.2h-94.1c-3.2,0-6.3-1.4-8.3-3.9c-2.1-2.5-2.9-5.8-2.3-8.9l2.5-12.6c0.9-4.5,4.6-8,9.1-8.6
				l46.3-6.3l0.1,0l45.9,6.5c4.5,0.6,8.1,4.1,9,8.5l2.5,12.5c0.6,3.2-0.2,6.4-2.3,8.9C300.8,527.7,297.8,529.2,294.5,529.2z
				 M247.7,489.7l-46.1,6.3c-4.2,0.6-7.5,3.7-8.3,7.8l-2.5,12.6c-0.6,2.9,0.2,5.8,2.1,8.1c1.9,2.3,4.6,3.6,7.6,3.6h94.1
				c2.9,0,5.7-1.3,7.6-3.6c1.9-2.3,2.6-5.2,2-8.1l-2.5-12.5c-0.8-4.1-4.1-7.2-8.2-7.7L247.7,489.7z"/>
		<path fill="#D23A34" d="M312.1,523c3.7-0.9,6.3-3.4,5.8-5.5c-0.5-2.2-3.9-3.2-7.7-2.3c-3.7,0.9-6.3,3.4-5.8,5.5
			c0.1,0.3,0.2,0.6,0.4,0.8H190.1c0.2-0.3,0.3-0.6,0.3-0.9c0.4-2.3-2.4-4.7-6.1-5.3c-3.8-0.6-7.1,0.8-7.5,3.1s2.4,4.7,6.1,5.3
			c0.1,0,0.3,0,0.4,0.1c-3.7,2.7-5.4,7.4-4.4,11.9l3,19.7c0.7,5,5,8.6,10,8.6h108c5,0,9.2-3.6,10-8.6l3.2-20.9c1-4.2-0.6-8.5-3.9-11.2
			C310.2,523.3,311.1,523.2,312.1,523z"/>
		<circle fill="#7895A4" cx="201.5" cy="542.8" r="11.3"/>
		<circle fill="#7895A4" cx="291.2" cy="542.8" r="11.3"/>
</g>
</svg>
