<?xml version="1.0" encoding="utf-8"?>
<!-- Generator: Adobe Illustrator 17.1.0, SVG Export Plug-In . SVG Version: 6.00 Build 0)  -->
<svg version="1.2" baseProfile="tiny" id="Layer_1" xmlns="http://www.w3.org/2000/svg" xmlns:xlink="http://www.w3.org/1999/xlink"
	 x="0px" y="0px" viewBox="5.1 492.4 628.3 627" xml:space="preserve">
	 <g>
		<circle fill="#009AEF" cx="319.4" cy="806.3" r="312.8"/>
		<path fill-rule="evenodd" fill="#AAC707" d="M567.5,615.8c-20.9,0.7-45.2,2.6-73.7,6.1c-180,22.2-165.2,12.3-311.5,1.2
			c-45.1-3.5-84.1-2.7-116.5-0.1C28.5,674.5,6.5,737.8,6.5,806.3c0,11.8,0.7,23.5,2,35c65.8,103.2,181.3,171.7,312.8,171.7
			c128.4,0,241.5-65.3,308.1-164.4c1.9-13.8,2.8-27.9,2.8-42.2C632.2,734.6,608.1,668.6,567.5,615.8z"/>
		<path fill-rule="evenodd" fill="#8EB207" d="M628.5,758.3c-28.4-2.8-76.6-7.8-157.8-16.8c-182.9-20.2-165.5-13.2-311.4,7.2
			c-62.1,8.7-112.6,14.9-150.4,19.2c-1.5,12.6-2.4,25.4-2.4,38.4c0,172.8,140.1,312.8,312.8,312.8s312.8-140.1,312.8-312.8
			C632.2,790,631,773.9,628.5,758.3z"/>
		<path fill-rule="evenodd" fill="#666768" d="M385.7,634.5l-88.9-0.5c0,0,114.3,29.4,105.3,57.1c-12.1,37-131.4,41.5-164.9,110.8
			S225.9,932,187.4,987.4c-16.2,23.3-39.9,46-61.9,64.5c53.3,42.1,120.6,67.3,193.8,67.3c28.8,0,56.7-3.9,83.3-11.2
			c6.2-45.6,9-118.2-24.1-164.9c-37.6-53-42-65.3-33.6-119.1c11.4-73.4,96.5-69.7,118.4-134.8C475.3,653.5,385.7,634.5,385.7,634.5z"
			/>
		<rect x="222" y="890.9" fill-rule="evenodd" fill="#474849" width="69.1" height="19.1"/>
		<path fill="none" d="M344.9,824c7.7-49.6,49-64,81.7-88.1l-89.1-5.4c-38.1,15.1-82.1,33.6-100.4,71.4
				c-33.5,69.2-11.3,130.2-49.8,185.5S68.5,1094.6,68.5,1094.6l187.4,91.2l138.9-35.8c0,0,35-134.6-16.3-206.9
				C340.9,890.1,336.6,877.8,344.9,824z"/>
		<path fill="#888889" d="M463.3,689.2c12-35.7-77.6-54.7-77.6-54.7l-88.9-0.5c0,0,114.3,29.4,105.3,57.1
				c-5.5,16.8-33,26.9-64.5,39.3l89.1,5.4C442.4,724.2,456.2,710.3,463.3,689.2z"/>
		
		<path fill="#FFDD00" d="M268.2,1113.1l-2.9-0.8l3.2-11.6l2.9,0.8L268.2,1113.1z M274.6,1090l-2.9-0.8l3.2-11.6l2.9,0.8L274.6,1090z
			 M281,1066.8l-2.9-0.8l3.2-11.6l2.9,0.8L281,1066.8z M287.5,1043.7l-2.9-0.8l3.2-11.6l2.9,0.8L287.5,1043.7z M293.9,1020.6l-2.9-0.8
			l3.2-11.6l2.9,0.8L293.9,1020.6z M300.4,997.4l-2.9-0.8l1.9-6.8c0.4-1.6,0.9-3.2,1.2-4.8l2.9,0.7c-0.4,1.6-0.8,3.3-1.3,4.9
			L300.4,997.4z M305.7,973.8l-3-0.4c0.5-3.8,0.8-7.8,0.9-11.8l3,0.1C306.6,965.8,306.2,969.9,305.7,973.8z M303.5,949.8
			c-0.2-3.8-0.5-7.7-1-11.9l3-0.4c0.5,4.3,0.8,8.2,1,12L303.5,949.8z M300.8,926.1c-0.7-4.3-1.5-8.6-2.1-11.8l3-0.5
			c0.6,3.2,1.4,7.5,2.1,11.9L300.8,926.1z M296.6,902.5c-0.9-4.8-1.5-8.4-2.1-11.9l3-0.5c0.5,3.4,1.2,7.1,2,11.8L296.6,902.5z
			 M292.8,878.7c-0.5-4.2-0.8-8.2-1-12l3-0.2c0.2,3.8,0.5,7.7,1,11.9L292.8,878.7z M294.7,854.6l-3-0.1c0.1-4.1,0.4-8.2,0.9-12.1
			l3,0.4C295.1,846.7,294.8,850.6,294.7,854.6z M297.6,831.1l-2.9-0.7c0.9-3.9,2-7.8,3.3-11.7l2.8,1
			C299.6,823.5,298.5,827.3,297.6,831.1z M305.2,808.7l-2.7-1.2c0.5-1.2,1.1-2.4,1.7-3.5c1.2-2.5,2.5-4.9,3.8-7.3l2.6,1.5
			c-1.3,2.3-2.6,4.7-3.7,7.1C306.3,806.4,305.7,807.6,305.2,808.7z M316.8,788.1l-2.5-1.7c2.3-3.3,4.7-6.5,7.3-9.7l2.3,1.9
			C321.4,781.7,319,784.9,316.8,788.1z M331.9,769.8l-2.1-2.1c2.8-2.8,5.7-5.6,8.8-8.3l2,2.3C337.6,764.4,334.7,767.1,331.9,769.8z
			 M349.9,754.2l-1.8-2.4c3.1-2.4,6.3-4.7,9.8-7l1.7,2.5C356.1,749.6,352.9,751.9,349.9,754.2z M369.6,740.8l-1.6-2.6
			c3.1-1.9,5.2-3.2,9.1-5.5l4.5,0.4C377.7,735.5,372.6,738.9,369.6,740.8z"/>
		<path fill="#FFDD00" d="M385.4,731.4l-5.3-0.4c1.9-1.1,3.8-2.2,5.6-3.3c1.6-0.9,3.2-1.8,4.8-2.8l1.5,2.6c-1.6,0.9-2.5,1.4-4.1,2.3
			C386,731,387.3,730.3,385.4,731.4z M402.3,721.5l-1.6-2.6c3.8-2.4,7.1-4.5,9.9-6.6l1.7,2.4C409.5,716.9,406.2,719.1,402.3,721.5z
			 M421.9,707.1l-2.1-2.2c3.1-2.9,5.5-5.9,7.5-8.9l2.5,1.6C427.7,700.9,425.1,704,421.9,707.1z M434,685.7l-3,0l0-0.2
			c0-3.2-1.2-6.6-3.7-9.9l2.4-1.8c2.8,3.8,4.2,7.7,4.2,11.6L434,685.7z M419.1,667.5c-2.8-2.1-6.2-4.3-9.9-6.4l1.5-2.6
			c3.9,2.2,7.4,4.4,10.3,6.6L419.1,667.5z M398.5,655.9c-3.4-1.5-7.1-3.1-11-4.6l1.1-2.8c4,1.5,7.7,3.1,11.2,4.7L398.5,655.9z
			 M376.3,647.2c-3.7-1.2-7.5-2.5-11.4-3.6l0.9-2.9c3.9,1.2,7.8,2.4,11.5,3.7L376.3,647.2z M353.3,640.3c-7-1.9-11.6-2.9-11.7-2.9
			l0.6-2.9c0,0,4.7,1,11.8,2.9L353.3,640.3z"/>
		<circle fill="none" cx="319.4" cy="806.3" r="312.8"/>
		<path fill="#ABADB0" d="M242.3,852.4c-0.3-2-1.5-3.9-3-5.2c0.2-1,0.3-2.1,0.2-3.3c-1.5-12.4-11.7-16.8-19.1-6.2
			c-0.6,0.8-1,1.7-1.2,2.6c-2.7,2.4-4.4,6-4.4,10.5c-1.7,3.5-2.1,6.9-1.5,10.1c-1.8,2.2-3.2,5.1-3.6,7.9c-0.6,4.5,0.3,8.4,2.7,11.8
			c1,1.4,2.2,2.6,3.4,3.8c-3.8,8.7,8.4,14.3,13.1,5.5c0.7-1.3,1.1-2.5,1.4-3.7c2.2-0.8,4.1-2.9,4.5-6.6c0.5-4.1,1.4-7.8,1.8-11.3
			C240.8,865.5,243.5,859.5,242.3,852.4z"/>
		<path fill="#050B0C" d="M302.8,770c0.1-0.1-26.4,34.1-29.9,44.4c-3.3,9.7-7.1,34.7-8.2,47.3c-0.7,8.1-0.3,9.2,0.8,1.2
			C269.1,833.9,264.8,817.1,302.8,770z"/>
		<path fill="#050B0C" d="M268.2,790.4c0.1-0.2-18.4,29.7-20.7,40.4c-2.2,10-3.2,35.2-2.9,47.9c0.2,8.1,0.8,9.2,0.9,1.1
			C245.9,850.5,235.7,841.5,268.2,790.4z"/>
		<rect x="222" y="886" fill="#050B0C" width="8" height="23"/>
		<rect x="283" y="886" fill="#050B0C" width="8" height="23"/>
		<path fill="#D23A34" d="M296.2,875.5c-0.4-1.3-2.6-1.9-5.1-1.2c-1.5,0.4-2.8,1.2-3.4,2c0-0.5,0-1-0.1-1.5l-2.3-6.5
			c-0.5-2.4-5.4-4.3-7.9-4.6l-19.9-1.4l-20.1,1.3c-2.5,0.3-7.5,2.2-8,4.7l-2.3,6.6c0,0.2,0,0.3-0.1,0.5c-0.8-0.7-2-1.3-3.5-1.5
			c-2.6-0.4-4.9,0.4-5.1,1.8c-0.2,1.4,1.7,2.8,4.3,3.2c0.4,0.1,0.7,0.1,1,0.1c-1.8,1.4-2.7,3.8-2.1,6.1l1.6,10.3
			c0.4,2.6,2.6,4.5,5.2,4.5h56.2c2.6,0,4.8-1.9,5.2-4.5l1.7-10.9c0.4-1.8-0.1-3.7-1.2-5c0.6,0,1.3-0.1,2.1-0.3
			C294.8,878.5,296.5,876.9,296.2,875.5z M286.4,877.7h-58.1c-0.3-0.8-0.4-1.7-0.2-2.6l2.3-6.6c0.4-2,5.1-3.6,7.1-3.9l20-1.3l19.8,1.4
			c2,0.3,6.7,1.8,7.1,3.8l2.3,6.5C286.7,876,286.7,876.8,286.4,877.7z"/>
		<path fill="#C4E3E4" d="M281.8,878.4h-49c-3.4,0-5.9-0.8-5.3-4.1l2.3-5.9c0.4-2.3,5.3-4,7.5-4.3l20-1.3l19.9,1.4
			c2.2,0.3,7,2,7.5,4.2l2.3,5.8C287.7,877.6,285.2,878.4,281.8,878.4z"/>
		<circle fill="#FFE500" cx="233.4" cy="888.8" r="5.9"/>
		<circle fill="#FFE500" cx="280.1" cy="888.8" r="5.9"/>
</g>
</svg>
