<?xml version="1.0" encoding="utf-8"?>
<!-- Generator: Adobe Illustrator 17.1.0, SVG Export Plug-In . SVG Version: 6.00 Build 0)  -->
<svg version="1.2" baseProfile="tiny" id="Layer_1" xmlns="http://www.w3.org/2000/svg" xmlns:xlink="http://www.w3.org/1999/xlink"
	 x="0px" y="0px" viewBox="18.9 751.3 761.7 514.8" xml:space="preserve">
<path fill="#9A9B9D" d="M653.6,774.4c21.3,0,38.7,3.7,38.7,25.1c0,21.3-7.5,52.3-38.7,52.3c-26.9,0-38.7-30.9-38.7-52.3
	C615.2,778.2,632.6,774.4,653.6,774.4z"/>
<ellipse fill="#FFFFFF" cx="400" cy="1101.2" rx="179.7" ry="96"/>
<path fill="#9A9B9D" d="M773.9,1238.6c0,10.9-8.8,20-20,20H48c-10.9,0-20-8.8-20-20l40-354.7c0-10.9,8.8-25.6,20-25.6h626.1
	c10.9,0,20,14.4,20,25.6L773.9,1238.6z"/>
<path fill="#FFFFFF" d="M770.9,1233.5c0,11.2-9.1,20.3-20.3,20.3H53.1c-11.2,0-20.3-9.1-20.3-20.3l40.5-358.9
	c0-11.2,9.1-20.3,20.3-20.3h617.1c11.2,0,20.3,9.1,20.3,20.3L770.9,1233.5z"/>
<path fill="#FFFFFF" d="M745.6,1235.6c0,10.4-8.5-3.7-47.2-3.7H49.1c17.9,0,9.3,14.1,9.3,3.7l40.3-340.5c0-10.4,8.5-18.9,18.9-18.9
	h568.5c10.4,0,18.9,8.5,18.9,18.9L745.6,1235.6z"/>
<polygon fill="#EBECED" points="685.6,1231.9 129.3,1231.9 153.6,947.1 654.1,947.1 "/>
<polygon fill="#FFFFFF" points="685.6,1226.6 129.3,1226.6 153.6,953.5 654.1,953.5 "/>
<path fill="#E2E3E4" d="M153.6,951.1l-36-74.9c-10.4,0-18.9,8.5-18.9,18.9L58.4,1213c0,10.4,8.5,18.9,18.9,18.9h52L153.6,951.1z"/>
<path fill="#E2E3E4" d="M686.1,876.2l-30.7,74.9l29.9,280.5h41.1c10.4,0,18.9-8.5,18.9-18.9l-40.3-317.9
	C705.1,884.7,696.5,876.2,686.1,876.2z"/>
<path fill="#F3F3F3" d="M730.7,876.2v-1.6c0-11.2-9.1-20.3-20.3-20.3H93.3c-11.2,0-20.3,9.1-20.3,20.3v1.6H730.7z"/>
<path fill="#A4B798" d="M652.3,769.5c21.3,0,38.7,3.7,38.7,25.1c0,21.3-7.5,52.3-38.7,52.3c-26.9,0-38.7-30.9-38.7-52.3
	C613.6,773.2,630.9,769.5,652.3,769.5z"/>
<path fill="#C5DDB6" d="M652.5,760c21.3,0,38.7,15.2,38.7,34c0,18.7-17.3,34-38.7,34s-38.7-15.2-38.7-34
	C614.1,775,631.5,760,652.5,760z"/>
<path fill="#2A421D" d="M652.3,774.1c9.1,0,16.5,7.5,16.5,16.5c0,9.1-7.5,16.5-16.5,16.5s-16.5-7.5-16.5-16.5
	C635.8,781.6,643.3,774.1,652.3,774.1z"/>
<path fill="#2A421D" d="M650.4,785c3.7,0,6.9,2.9,9.1,4.1v48.3c-2.2,6.6-5.1,9.8-9.1,9.8l0,0c-3.7,0-6.9-7.9-6.9-11.9v-43.3
	C643.5,788.2,646.4,785,650.4,785L650.4,785z"/>
<path fill="#9A9B9D" d="M552,797.5c0,0-49.6,3.5-63.5,1.9c-2.1-7.5-9.1-13.1-17.3-13.1c-5.1,0-9.6,2.1-12.8,5.3
	c-19.5-8.3-51.5-8.3-61.6-8.3c-10.9,0-48.8,0.8-69.1,9.9c-3.5-4-8.3-1.3-14.1-1.3c-8,0-14.9-0.3-17.3,7.2
	c-13.3,2.1-65.3-1.6-65.3-1.6c-6.1-0.8-6.9,2.7-6.9,8c0,5.6,0.8,9.1,6.9,8c0,0,53.3-4,66.4-1.3c2.9,5.9,9.1,10.1,16,10.1
	c5.3,0,10.1-2.4,13.6-6.1c15.2,7.2,41.1,12.5,57.6,14.7l-3.5,140.8c-2.7,1.9-4.3,4.3-4.3,7.2v13.1c0,8.3,7.5,15.2,16.8,15.2h3.5
	c9.3,0,16.8-6.7,16.8-15.2v-13.1c0-2.7-1.6-5.1-4-6.9V830.6c14.4-2.1,35.5-6.9,49.6-13.1c3.2,2.7,7.2,4.5,12,4.5
	c7.2,0,13.6-4.3,16.3-10.4c13.6-2.1,64.3,1.6,64.3,1.6c5.9,0.8,6.9-2.7,6.9-8C558.9,799.9,558.1,796.4,552,797.5z"/>
<path fill="#ACADB0" d="M429.9,1089.5c0,15.7-12.5,28.5-28,28.5s-28-12.8-28-28.5s12.5-28.5,28-28.5S429.9,1073.8,429.9,1089.5z"/>
<path fill="#587583" d="M421.9,1088.2c0,9.1-8.8,16.5-19.5,16.5s-19.5-7.5-19.5-16.5c0-9.1,8.8-16.5,19.5-16.5
	S421.9,1079.1,421.9,1088.2z"/>
<path fill="#D3D8E2" d="M326.1,798.6c0,10.1-8,18.1-18.1,18.1l0,0c-10.1,0-18.1-8-18.1-18.1l0,0c0-10.1,8-13.3,18.1-13.3l0,0
	C317.9,785.2,326.1,788.4,326.1,798.6L326.1,798.6z"/>
<path fill="#D3D8E2" d="M484,798.6c0,10.1-8,18.1-18.1,18.1l0,0c-10.1,0-18.1-8-18.1-18.1l0,0c0-10.1,8-13.3,18.1-13.3l0,0
	C475.7,785.2,484,788.4,484,798.6L484,798.6z"/>
<path fill="#D3D8E2" d="M390.7,942.3h-2.9c-8,0-14.4,4.5-14.4,10.1V965c0,8,6.4,14.4,14.4,14.4h2.9c8,0,14.4-6.4,14.4-14.4v-12.5
	C405.1,947.1,398.7,942.3,390.7,942.3z"/>
<path fill="none" stroke="#FFFEF9" stroke-width="2" stroke-linecap="round" stroke-miterlimit="10" d="M488.5,796.4"/>
<path fill="none" stroke="#FFFEF9" stroke-width="2" stroke-linecap="round" stroke-miterlimit="10" d="M295.2,796.4"/>
<path fill="#D3D8E2" d="M468.5,799.1c0,15.2-62.1,27.5-77.3,27.5c-15.2,0-82.1-12.3-82.1-27.5s67.2-16,82.1-16
	S468.5,783.9,468.5,799.1z"/>
<path fill="#A99C8F" d="M394.1,779.1h-2.9c-8,0-14.4,5.3-14.4,11.7v14.4c0,9.1,6.4,16.5,14.4,16.5h2.9c8,0,15.7-5.1,15.7-14.4v-16.5
	C409.9,784.4,402.1,779.1,394.1,779.1z"/>
<path fill="#FFFEF9" d="M392.5,777.5h-2.9c-8,0-14.4,5.3-14.4,11.7v14.4c0,9.1,6.4,16.5,14.4,16.5h2.9c8,0,14.4-7.5,14.4-16.5v-14.4
	C407.2,782.8,400.5,777.5,392.5,777.5z"/>
<path fill="#B9C2C2" d="M402.9,961c0,2.9-4,5.6-8.8,5.6H384c-4.8,0-8.8-2.4-8.8-5.6l5.3-187.5c0-2.9,4-5.6,8.8-5.6h3.7
	c4.8,0,8.8,2.4,8.8,5.6L402.9,961z"/>
<path fill="#D3D8E2" d="M401.6,958.3c0,3.2-3.5,5.6-8,5.6h-9.3c-4.3,0-8-2.4-8-5.6l4-194.1c0-3.2,3.5-5.6,8-5.6h5.3
	c4.3,0,8,2.4,8,5.6V958.3z"/>
<path fill="#9F2521" d="M455.7,790.6c-6.9,6.9-6.9,11.7,0,18.7s11.7,6.9,18.7,0s72.3-1.3,72.3-1.3c5.9,0.8,6.9-2.7,6.9-8
	c0-5.3-0.8-9.1-6.9-8c0,0-65.1,5.9-72.3-1.3C467.2,783.4,462.7,783.4,455.7,790.6z"/>
<path fill="#DB9C5C" d="M473.9,799.6c0,4.8-4,8.8-8.8,8.8c-4.8,0-8.8-4-8.8-8.8c0-4.8,4-8.8,8.8-8.8
	C469.9,791.1,473.9,794.8,473.9,799.6z"/>
<path fill="#10576C" d="M467.5,798c0-0.3,0-0.5-0.3-0.8c0-0.3-0.3-0.3-0.5-0.5c-0.3,0-0.3-0.3-0.5-0.3c-0.3,0-0.5,0-0.8,0
	c-0.5,0-0.8,0-1.3,0.3c-0.3,0.3-0.5,0.5-0.8,0.8c-0.3,0.3-0.3,0.5-0.5,1.1c0,0.3,0,0.8,0,1.3c0,0.5,0,0.8,0,1.3s0.3,0.8,0.5,1.1
	c0.3,0.3,0.5,0.5,0.8,0.8c0.3,0.3,0.8,0.3,1.3,0.3c0.3,0,0.5,0,1.1,0c0.3,0,0.5-0.3,0.8-0.5c0.3-0.3,0.3-0.5,0.5-0.8
	c0.3-0.3,0-0.5,0.3-0.8h1.6c0,0.5,0,1.1-0.3,1.6c-0.3,0.5-0.5,0.8-0.8,1.1c-0.3,0.3-0.8,0.5-1.3,0.8s-1.1,0.3-1.6,0.3
	c-0.5,0-1.3,0-1.9-0.3c-0.5-0.3-1.1-0.5-1.3-1.1c-0.3-0.3-0.5-0.8-0.8-1.6c-0.3-0.5-0.3-1.3-0.3-1.9c0-0.5,0-1.3,0.3-1.9
	c0.3-0.5,0.5-1.1,0.8-1.6c0.3-0.3,0.8-0.8,1.3-1.1s1.1-0.3,1.9-0.3c0.5,0,1.1,0,1.6,0.3c0.5,0,0.8,0.3,1.1,0.5
	c0.3,0.3,0.5,0.5,0.8,1.1c0.3,0.5,0.3,0.8,0.3,1.3L467.5,798L467.5,798z"/>
<path fill="#9F2521" d="M316.3,809c6.9-6.9,6.9-11.7,0-18.7c-6.9-6.9-11.7-6.9-18.7,0s-72.3,1.3-72.3,1.3c-5.9-0.8-6.9,2.7-6.9,8
	c0,5.3,0.8,9.1,6.9,8c0,0,65.1-5.9,72.3,1.3C304.5,815.9,309.3,815.9,316.3,809z"/>
<circle fill="#DB9C5C" cx="306.9" cy="799.6" r="8.8"/>
<path fill="#10576C" d="M303.2,795.4h1.6v3.7h4v-3.7h1.6v9.1h-1.6v-4h-4v4h-1.6V795.4z"/>
</svg>
