<?xml version="1.0" encoding="utf-8"?>
<!-- Generator: Adobe Illustrator 17.1.0, SVG Export Plug-In . SVG Version: 6.00 Build 0)  -->
<svg version="1.2" baseProfile="tiny" id="Layer_1" xmlns="http://www.w3.org/2000/svg" xmlns:xlink="http://www.w3.org/1999/xlink"
	 x="0px" y="0px" viewBox="0 29 300 226" xml:space="preserve">
<g>
	<path fill="#7D79BA" d="M248.1,200.9c0,18.4-16.6,33.3-37.1,33.3H98.5c-20.5,0-37.1-14.9-37.1-33.3v-3c0-18.4,16.6-33.3,37.1-33.3
		H211c25.3-2,48.2,10.4,37.1,33.3V200.9L248.1,200.9z"/>
	<path fill="#EF9AA8" d="M213.1,126.6c3.4-27.5-39.5-42.1-55.4-42.7c-8.3-0.6-29.9,4-44.5,6.6c-25.4,3-11.3-0.4-29.1,23.2
		c-18.6,20.8,11.4,51.4,33.1,52.9c8.3,0.6,16.4-2.2,23.5-7.4c5.9,7.4,13.9,12.1,23.2,12.7C185.7,173.5,209.6,154.3,213.1,126.6z"/>
	<path fill="#6A933F" d="M253.8,160.3c0,18.4-14.9,33.3-33.3,33.3l-36.1-8.3c-18.4,0-33.3-14.9-33.3-33.3v-16.7
		c0-18.4,43,7.5,46.4-13.5c3.3-21,23.2-28.2,23.2-28.2c18.4,0,33.3,14.9,33.3,33.3L253.8,160.3L253.8,160.3z"/>
	<path fill="#507228" d="M239.1,99.4c-1.4-1.2-3.6-0.2-3.6,1.6c0,0.2,7.3,17.8,7.3,18c0,37.9-40.6,51.1-81.6,51.1
		c-0.4,0-0.9,0-1.3,0c-2,0-3,2.4-1.5,3.7c5.9,5.3,13.6,8.6,22.2,8.6c0.1,0,0.3,0,0.4,0l35.9,8.3c31.3,9.2,46.9-5.3,33.3-33.3l0,0
		l12.3-28.3C262.3,119.2,245.8,105.5,239.1,99.4z"/>
	<path fill="#7C0D7F" d="M241.9,200.6c-2-1.3-4.1-2.5-6.2-3.7c-1.8-1-2.4-2.4-4.1-3.5c-3.7-2.3-7.9-4.3-10.2-8.2
		c-2.5-4.4-2.7-9.6-2.9-14.5c0-1.5-0.3-2.4-0.6-4c-0.5-2.2-1.8-1.5-3.6-2c-1.9,0.6-4,0.6-5.9,0.7c-2,0.1-2.8,0.8-4.7,1.4
		c-5,1.3-8.2-1-10.8-5.1c-3.7,1.2-6.9,2.8-10.3,5.3c-4.1,3.1-4.1,7,0.8,9.2c5.1-1.1,10.3,0,15.4-0.9c1.9-0.3,3.7-1.6,5.7-1.4
		c3.2,0.3,2.6-0.2,4.7,2.8c1.2,1.8,1.6,3.4,1.7,5.6c0.2,2.5-2.7,2.7-2.9,4.8c-0.3,3.4,1.4,6.3,3.5,8.9c2.6,3.2,6.2,6.3,10.2,7.7
		c1.1,0.4,4.1,0.1,4.8,0.6c1.6,1.6,3.3,3.2,5.1,4.6c2.6,2.1,6.8,3.1,10.2,1.8C247.7,208.3,244.3,204,241.9,200.6
		C241.5,200.3,241.9,200.6,241.9,200.6z M231,194.4c-2.3-1-1.2-0.9,0.6,0.3C231.5,194.6,231.2,194.5,231,194.4z"/>
	<path fill="#B98ABE" d="M159.8,124.5c-0.4-0.1-0.7-0.2-1-0.3c-1.4-0.5-1.3-2.8-1.2-5.4c0.1-1.8,0.2-4.3-0.5-4.7
		c-1.1-0.6-3.4,0.3-5.5,1.2c-2.1,0.8-4.1,1.6-5.4,1.2c-0.3-0.1-0.6-0.3-0.8-0.4c-6.5-5.8-4.7-22-2-26.3c2.1-3.3,7.1-4.1,14-2.1
		c4.1,1.1,8.5,3.1,13,5.7c5.7,3.3,10.5,7,13.3,10.5c3.3,4,4.1,7.5,2.3,10.3C183.1,118.5,169.2,127.1,159.8,124.5z M157.1,113
		c0.2,0,0.4,0.2,0.6,0.3c1.3,0.8,1.2,3.2,1.2,5.7c-0.1,1.6-0.2,4.1,0.4,4.4c8.6,3.3,23-5.6,25.7-9.8c1.9-3-0.1-6.6-2.2-9.1
		c-2.8-3.3-7.4-7-13-10.2c-4.4-2.5-8.8-4.5-12.7-5.5c-3.7-1-10.3-2.2-12.7,1.7c-2.6,4.1-4.1,19.7,1.8,25c0.7,0.6,2.9-0.2,4.9-1
		C153.2,113.4,155.4,112.5,157.1,113z"/>
	<path fill="#B98ABE" d="M169.4,114.5c-3.3-0.9-6.6-2.3-9.9-4.2c-11.3-6.5-17.5-16.5-13.8-22.2c1.3-2.1,5-6.8,17.6-3.3
		c3.3,0.9,6.2,2.8,9.5,4.7c17,9.8,18.2,15.3,13.8,22.2C184.1,115.6,177.5,116.7,169.4,114.5z M163.1,85.7c-12-3.3-15.3,1.2-16.4,2.9
		c-3.3,5.3,2.7,14.5,13.4,20.7c3.1,1.8,6.4,3.2,9.6,4.1c7.5,2.1,13.7,1.2,15.9-2.4c4.1-6.4,3-11.2-13.4-20.7
		C169.1,88.5,166.3,86.6,163.1,85.7z"/>
	<path fill="#B98ABE" d="M170.5,92.5c11.1,6.4,17.6,15.3,14.6,20c-3,4.7-14.4,3.3-25.4-3.1c-11.1-6.4-17.6-15.3-14.6-20
		C148,84.8,159.4,86.2,170.5,92.5z"/>
	<path fill="#91E2DC" d="M163.4,132.2c-15.4-28.1-41.4-43.5-58-34.4c-6.4,3.5-15,19.8-16.8,28.2c21.1-35.3-26.7-25.8-34.6-23.6
		c-19.3,5.5-11.4,59.1,4.5,87.6c15.5,28.1,49.1,36.2,65.7,27.1c6.4-3.5,10.4-10.1,12.1-18.5c9,4.2,17.8,4.8,25,0.9
		C177.8,190.5,178.8,160.3,163.4,132.2z"/>
	<path fill="#1C3C4C" d="M130.2,184c1-2.1,1.7-4.3,1.8-6.6c0-0.9,0-3.3-1.3-3.7c-6.8-1.8-13.8-0.8-20.7-1.2c-1.4-0.1-3.2,2.1-3.9,3
		c-1.5,1.9-2.7,4.2-3.5,6.5c-0.4,1.2-1.1,3.5-0.9,5.3c-0.1,0.3-0.2,0.6-0.3,0.8c-0.6,1.7-1.6,4.9-0.6,6.9c-0.1,0.3-0.2,0.5-0.3,0.7
		c-0.1,0.3-0.2,0.7-0.3,1c-1.2,1.7-2.1,3.8-2.7,5.6c-0.8,2.3-2.3,7.7,1.4,8.1c2.6,0.3,5.1-0.2,7.7-0.7c3.1-0.5,6.3-0.9,9.4-0.8
		c1.5,0,3.2-2.1,3.9-3c0.1-0.1,0.2-0.3,0.3-0.4c1.5-0.4,3-0.9,4.4-1.8c3.1-1.8,5.1-5.8,6.2-9c0.5-1.6,2.2-7-0.4-7.9
		c-0.4-0.1-0.8-0.3-1.2-0.4c0.1-0.5,0.2-1,0.3-1.5C129.9,184.6,130.1,184.3,130.2,184z"/>
	<path fill="#4AB749" d="M128.2,174.6l-16.9-26l21.3-13.8l16.9,26L128.2,174.6z M112.6,148.8l16,24.7l20-12.9l-16-24.7L112.6,148.8z
		"/>
	
		<rect x="115.6" y="154.1" transform="matrix(0.9997 2.559708e-02 -2.559708e-02 0.9997 3.9947 -3.0996)" fill="#4AB749" width="14.9" height="0.8"/>
	
		<rect x="133.1" y="140.7" transform="matrix(0.912 0.4101 -0.4101 0.912 72.4422 -41.7113)" fill="#4AB749" width="0.8" height="14.6"/>
	<path fill="#2B2E3D" d="M278.1,114.9l-1.9-0.6c-3-0.9-6.3,0.4-7.4,3l-1.4,3.1c-12.7,23.5-14.6,31.5-41,39.4
		c-26.4,7.9-103.6,9.7-129.3,0c-25.6-9.7-41.9-19.6-58-36.9c0,0-5.9-5.7-6.2-6c-1.6-2.2-4.8-3-7.4-1.8l-1.8,0.8
		c-2.9,1.2-4,4.2-2.6,6.8L62,220.9c0,9.7,9,17.6,20.1,17.6h144.6c11.1,0,20.1-7.8,20.1-17.6l35-99.5
		C282.7,118.8,281.1,115.9,278.1,114.9z M60.4,187c0-6.9,6.4-12.5,14.3-12.5h13.8c7.9,0,14.3,5.6,14.3,12.5
		c0,6.9-6.4,12.5-14.3,12.5H74.7C66.8,199.5,60.4,193.9,60.4,187z M98.2,229.7h-12c-6.9,0-12.5-5.6-12.5-12.5s5.6-12.5,12.5-12.5h12
		c6.9,0,12.5,5.6,12.5,12.5C110.7,224,105.1,229.7,98.2,229.7z M109.4,187c0-6.9,6.4-12.5,14.3-12.5h13.8c7.9,0,14.3,5.6,14.3,12.5
		c0,6.9-6.4,12.5-14.3,12.5h-13.8C115.7,199.5,109.4,193.9,109.4,187z M140.7,229.7h-11.8c-6.8,0-12.3-5.6-12.3-12.5
		s5.5-12.5,12.3-12.5h11.8c6.8,0,12.3,5.6,12.3,12.5C153,224,147.5,229.7,140.7,229.7z M183.5,229.7h-11.8
		c-6.8,0-12.3-5.6-12.3-12.5s5.5-12.5,12.3-12.5h11.8c6.8,0,12.3,5.6,12.3,12.5C195.8,224,190.3,229.7,183.5,229.7z M186.2,199.5
		h-13.8c-7.9,0-14.3-5.6-14.3-12.5c0-6.9,6.4-12.5,14.3-12.5h13.8c7.9,0,14.3,5.6,14.3,12.5C200.5,193.9,194.1,199.5,186.2,199.5z
		 M226.3,229.7h-11.8c-6.8,0-12.3-5.6-12.3-12.5s5.5-12.5,12.3-12.5h11.8c6.8,0,12.3,5.6,12.3,12.5
		C238.6,224,233.1,229.7,226.3,229.7z M235.1,199.5h-13.8c-7.9,0-14.3-5.6-14.3-12.5c0-6.9,6.4-12.5,14.3-12.5h13.8
		c7.9,0,14.3,5.6,14.3,12.5C249.3,193.9,243,199.5,235.1,199.5z"/>
	<path fill="#EF9AA8" d="M86.9,147.4c-4.6,5.9-5.5,7.6-11.5,3l-4.7-3.1c-2.5-2-7.8-2.2-8.5-5.1c-1-3.9,0.7-8.2,3.3-11.6l27.3-33.9
		c4.6-5.9,44.3-15.9,50.2-11.2l-7,1.4c-6.7,8.9-19.8,15.6-24.5,21.4L86.9,147.4z"/>
	<path fill="#4F702F" d="M128.9,154.4c-0.1,0.1-0.2,0.2-0.3,0.3C127.9,155.6,126.9,157.5,128.9,154.4z"/>
	<path fill="#1A6796" d="M129.2,209.6c0-0.4-0.4-2.7-0.6-3.5c-2.9-4.5-6.6-8.6-8.8-13.5c-3.6-8.1-4.5-16.8-4.5-25.5
		c0-1.4,1.3-2.1,2.5-1.9c2,0.3,3.9,0.3,5.9,0.2c0.1,0.4,2,0,1.9,0c-0.2,0,4.4,0.3,4.9,0c-0.4-0.8-3.9-10.3-4.1-11.2
		c-0.2-0.3-0.5-0.5-0.7-0.8c-1-1.1-1.9-2.2-2.9-3.3c-0.5-0.5-1-1.1-1.6-1.6c-0.1-0.1-0.1-0.1-0.2-0.2c-0.4-0.2-0.8-0.5-1.2-0.7
		c-0.3-0.1-0.5-0.2-0.8-0.2c-1.1-0.3-4.1-0.9-4.4-1c-2.2-0.2-7.6,0-7.8,0.1c-0.8,0.2-1.6,0.4-2.5,0.6c-0.8,0.2-1.7,0.4-2.5,0.8
		c-0.3,0.1-0.8,0.3-1.2,0.5c-0.8,0.4-1.6,0.9-2.5,1.5c0,0-0.1,0.1-0.2,0.2c-0.6,0.5-2.7,2.7-3.1,3.3c-1.7,2.7-3.2,5.3-5.2,7.8
		c-0.5,0.6-4.7,7.2-6,9.9c-0.4,0.7-0.8,1.3-1.2,1.8c-4.5,14,0.8,30,13.8,38.3c0,0-14,6.3-14.4,7.5c0,0.1,0,0.1-0.1,0.2
		c0.1,0.2,14.1,9.5,14.1,9.5c3.7,2.3,7.6,3.8,11.5,4.6c1.8-0.4,10.4-3.6,11.5-4.2c0.4-0.3,0.9-0.5,1.3-0.8c1-0.7,3.2-2.7,3.4-3
		c0.1-0.1,0.2-0.2,0.3-0.3c0.6-0.8,2.7-4.1,3.2-4.9c0.1-0.2,2.1-8.9,2.1-9.9C129.2,209.8,129.2,209.6,129.2,209.6z"/>
	<path fill="#1C3C4C" d="M117.4,198.6c-2.4-2.5-5.3-4.5-8.1-6.5c-2.4-1.6-5-3-7.1-5c-3.8-3.7-5.3-11.9-5.7-17.1
		c0-0.4-1.3,2.2-1.5,2.3c-0.6,0.5-1,1-1.4,1.6c-0.2,0.3-0.4,0.5-0.4,0.8c-0.3,1.1-1.6,2.1-2.2,3c-0.6,0.9-1,2-1.2,3
		c-0.7,2.6-0.9,5.2-0.4,7.8c0.8,5.3,4.4,9.6,9.1,11.9c3.9,1.9,8.4,3,12.5,4.4c2.4,0.8,6.3,5.3,6.3,4.9
		C117.3,207.2,118.8,200.2,117.4,198.6z"/>
	<path fill="#A50FA5" d="M222.6,203.5c-1.1-2.1-2.5-4.1-3.8-6.1c-1.2-1.7-1-3.3-2-4.9c-2.3-3.7-5-7.4-5.2-12c-0.2-5,2-9.8,4.1-14.3
		c1.7-3.7,2.1-6.2-2.5-7.6c-1.9-0.6-3.7-1.6-5.5-2.4c-0.1,0.2-4-0.5-4.5-0.6c-4.5-1.4-5.7-4.9-6.2-9.2c-3.8-0.6-7.4-0.7-11.6,0
		c-5.1,0.8-6.9,4.3-3.6,8.5c5,1.4,9.2,4.7,14.1,6.3c1.8,0.6,4,0.3,5.7,1.4c2.7,1.7,2.4,1.1,2.9,4.6c0.3,2.1-0.2,3.7-1,5.7
		c-1,2.3-3.6,1.2-4.8,2.9c-2.1,3.2-1.6,7-0.8,10.6c0.9,3.5,2.4,7.2,4.8,10c0.9,1.1,3.9,2.2,4.5,3.3c0.8,2.1,1.5,4.3,2.4,6.4
		c1.3,3.3,5.2,6.5,9.1,6.3C224.5,212.1,223,207.5,222.6,203.5C222.3,203.1,222.6,203.6,222.6,203.5z M215.8,193.1
		c-1.6-2-0.6-1.3,0.4,0.6C216.1,193.4,215.9,193.2,215.8,193.1z"/>
	<path fill="#F78716" d="M202.5,176.4c-1-0.4-2-0.4-3-0.8c-1-0.3-1.4-1.7-1.8-2.5c-1-2.3-1.3-5.1-1.9-7.6c-0.1-0.4-0.2-0.8-0.2-1.2
		c-4.1,0.2-8.3,0.1-12.4,0c0.4,1.3,0.7,2.6,0.9,4c0.5,3.8,0.6,7.6,1.5,11.3c0.4,2.1,0.9,4.2,1.5,6.3c-2.5,3.2-4.3,7.3-4.5,11.1
		c0,0,0,0.1-0.1,0.1c-0.3,0.4-0.7,0.9-1,1.4c-1.1,1.6-2.2,3.1-3.3,4.7c-2.4,3.7-3.9,7.7-5,11.9c-0.4,1.3-0.9,5,1,5.7
		c0.2,0.1,0.4,0.1,0.6,0.2l0.1,0.4c0.4,0.6,0.9,0.9,1.5,0.9c0,0,0.1,0.1,0.2,0.1c4.8,2.8,9.2-2.9,11.3-6.5c1.4-2.6,2.6-5.3,3.5-8.1
		c0.1-0.2,0.2-0.5,0.3-0.7c0.8-1.9,1.6-3.8,2.3-5.7c0.1-0.2,0.2-0.4,0.3-0.7l0,0c0.6-0.2,1.1-0.4,1.6-0.7c4-2.1,6.4-6.8,7.8-10.8
		c0.8-2.4,2.5-8.9,0.1-11.2C203.5,177.2,203.1,176.6,202.5,176.4z M184.6,194.1c-0.2,0.2-0.3,0.4-0.4,0.6
		C185.3,192.8,186.3,192.2,184.6,194.1z"/>
	<path fill="#91E2DC" d="M61.2,136.7c0-0.5,0-3.2-0.1-1.3c0.1-1.7,0-5.6-1.3-6.3c-1.6-1-3.1-2.3-4.6-3.4c-0.4-1.2-1-2.4-1.9-1.8
		c-0.1,0.1-0.2,0.2-0.4,0.3c-1-0.6-2-1-3.1-1.2c-1,0.4-1.9,1.3-2.6,2.6c-1.6,2.7-2.9,6.2-3.9,9.8c-1.2,4.2-2.9,11.9-1.3,16.4
		c0.1,0.2,0.1,0.6,0.2,1c-0.3,3-0.4,6-0.4,8.8c0,1.5,0,3.1,0.1,4.6c0,0.4,0,1.8,0,2.3c0,2.3,0.1,4.5,0.3,6.8
		c0.3,2.5,0.7,4.9,1.1,7.4c0,0.4,0.1,0.7,0.1,1c-0.8,3.6-1.1,7.4-0.8,10.8c0.5,5.2,3.2,3.8,4.9,1c4.9-8.4,7.8-19.6,9.7-30.8
		c0.3-2,0.7-4,1-6c0-0.2,0.4-1.7,0.5-2.4c1.3-4.5,2.3-9.6,2.5-14.6C61.4,140,61.3,138.3,61.2,136.7z"/>
	<polygon fill="#EF9AA8" points="72.1,161.6 68,159.2 72.1,150 66.7,158.4 56.3,152.2 61.5,143.6 77.2,153 	"/>
</g>
</svg>
