<?xml version="1.0" encoding="utf-8"?>
<!-- Generator: Adobe Illustrator 17.1.0, SVG Export Plug-In . SVG Version: 6.00 Build 0)  -->
<svg version="1.2" baseProfile="tiny" id="Layer_1" xmlns="http://www.w3.org/2000/svg" xmlns:xlink="http://www.w3.org/1999/xlink"
	 x="0px" y="0px" viewBox="109.5 1082.7 300 123.3" xml:space="preserve">
<g>
	<g>
		<polygon fill="#7ABC50" points="402.5,1199.3 114.5,1199.3 173,1100.7 342.7,1100.7 		"/>
		<polygon fill="#9CCC6E" points="273,1199.3 243.7,1199.3 248.7,1100.7 268,1100.7 		"/>
		<polygon fill="#9CCC6E" points="336.3,1199.3 306,1199.3 288,1100.7 306.3,1100.7 		"/>
		<polygon fill="#9CCC6E" points="404.3,1199.3 371,1199.3 325.3,1100.7 343.7,1100.7 		"/>
		<polygon fill="#9CCC6E" points="210.7,1199.3 180.3,1199.3 209.3,1100.7 228.7,1100.7 		"/>
		<polygon fill="#9CCC6E" points="144.3,1199.3 111,1199.3 171.7,1100.7 190,1100.7 		"/>
	</g>
	<g>
		<polyline fill="#4E4E4E" points="230.8,1128 230.9,1126.9 231.6,1126.8 231.6,1125.3 229,1125.3 229,1126.8 229.5,1126.9 
			229.6,1128 		"/>
		<path fill="none" stroke="#61F8FF" stroke-width="2" stroke-linecap="round" stroke-miterlimit="10" d="M231,1125.2
			c0-0.1,0-0.1,0-0.2"/>
		<path fill="none" stroke="#61F8FF" stroke-linecap="round" stroke-miterlimit="10" stroke-dasharray="1.0089,3.0267" d="
			M231.4,1123.8c4.1-12.6,7.9-14.5,22.6-11.1"/>
		<path fill="none" stroke="#61F8FF" stroke-linecap="round" stroke-miterlimit="10" stroke-dasharray="1,3" d="M230.8,1124.8
			c0-11.8,5.5-21.3,12.1-21.3"/>
		<path fill="none" stroke="#61F8FF" stroke-linecap="round" stroke-miterlimit="10" stroke-dasharray="1,3" d="M229.5,1124.9
			c0-11.5-5.5-20.9-12.2-20.9"/>
		<path fill="none" stroke="#61F8FF" stroke-linecap="round" stroke-miterlimit="10" stroke-dasharray="1,3" d="M230.2,1124.3
			c0-13.8,2.4-25,5.3-25"/>
		<path fill="none" stroke="#61F8FF" stroke-linecap="round" stroke-miterlimit="10" stroke-dasharray="1,3" d="M231.8,1124.8
			c0-3.2,9.5-11.7,17.5-1.4"/>
		<path fill="none" stroke="#61F8FF" stroke-linecap="round" stroke-miterlimit="10" stroke-dasharray="1,3" d="M229.3,1124.9
			c0-7.8-11-21.4-19.3-3"/>
	</g>
	<g>
		<polyline fill="#4E4E4E" points="147.6,1194.1 147.7,1192.8 148.6,1192.7 148.6,1190.9 145.5,1190.9 145.5,1192.7 146.1,1192.8 
			146.2,1194.1 		"/>
		<path fill="none" stroke="#61F8FF" stroke-width="2" stroke-linecap="round" stroke-miterlimit="10" d="M147.9,1190.7
			c0-0.1,0-0.1,0-0.2"/>
		<path fill="none" stroke="#61F8FF" stroke-linecap="round" stroke-miterlimit="10" stroke-dasharray="1.0089,3.0267" d="
			M148.4,1189.1c4.9-15.1,22.1-23.6,39.6-19.5"/>
		<path fill="none" stroke="#61F8FF" stroke-linecap="round" stroke-miterlimit="10" stroke-dasharray="1,3" d="M147.7,1190.2
			c0-14.1,6.5-25.6,14.5-25.6"/>
		<path fill="none" stroke="#61F8FF" stroke-linecap="round" stroke-miterlimit="10" stroke-dasharray="1,3" d="M146.1,1190.4
			c0-13.8-11.7-36.4-19.8-36.4"/>
		<path fill="none" stroke="#61F8FF" stroke-linecap="round" stroke-miterlimit="10" stroke-dasharray="1,3" d="M146.9,1189.7
			c0-16.5,2.8-29.9,6.4-29.9"/>
		<path fill="none" stroke="#61F8FF" stroke-linecap="round" stroke-miterlimit="10" stroke-dasharray="1,3" d="M148.8,1190.2
			c0-3.8,11.4-14,21-1.6"/>
		<path fill="none" stroke="#61F8FF" stroke-linecap="round" stroke-miterlimit="10" stroke-dasharray="1,3" d="M145.9,1190.4
			c0-9.3-23.6-27.5-33.5-5.4"/>
	</g>
	<g>
		<polyline fill="#4E4E4E" points="189.3,1159.9 189.4,1158.6 190.3,1158.4 190.3,1156.6 187.1,1156.6 187.1,1158.5 187.8,1158.6 
			187.8,1159.8 		"/>
		<path fill="none" stroke="#61F8FF" stroke-width="2" stroke-linecap="round" stroke-miterlimit="10" d="M189.5,1156.5
			c0-0.1,0-0.1,0-0.2"/>
		<path fill="none" stroke="#61F8FF" stroke-linecap="round" stroke-miterlimit="10" stroke-dasharray="1.0089,3.0267" d="
			M190,1154.9c4.9-15.1,22.1-23.6,39.6-19.5"/>
		<path fill="none" stroke="#61F8FF" stroke-linecap="round" stroke-miterlimit="10" stroke-dasharray="1,3" d="M189.3,1156
			c0-14.1,6.5-25.6,14.5-25.6"/>
		<path fill="none" stroke="#61F8FF" stroke-linecap="round" stroke-miterlimit="10" stroke-dasharray="1,3" d="M187.8,1156.1
			c0-13.8-6.5-25-14.6-25"/>
		<path fill="none" stroke="#61F8FF" stroke-linecap="round" stroke-miterlimit="10" stroke-dasharray="1,3" d="M188.6,1155.5
			c0-16.5,2.8-29.9,6.4-29.9"/>
		<path fill="none" stroke="#61F8FF" stroke-linecap="round" stroke-miterlimit="10" stroke-dasharray="1,3" d="M190.5,1156
			c0-3.8,11.4-14,21-1.6"/>
		<path fill="none" stroke="#61F8FF" stroke-linecap="round" stroke-miterlimit="10" stroke-dasharray="1,3" d="M187.6,1156.1
			c0-9.3-26.6-26.8-43.9-11.5"/>
	</g>
	<g>
		<polyline fill="#4E4E4E" points="341.3,1159.9 341.4,1158.6 342.3,1158.4 342.3,1156.6 339.1,1156.6 339.1,1158.5 339.8,1158.6 
			339.8,1159.8 		"/>
		<path fill="none" stroke="#61F8FF" stroke-width="2" stroke-linecap="round" stroke-miterlimit="10" d="M341.5,1156.5
			c0-0.1,0-0.1,0-0.2"/>
		<path fill="none" stroke="#61F8FF" stroke-linecap="round" stroke-miterlimit="10" stroke-dasharray="1.0089,3.0267" d="
			M342,1154.9c4.9-15.1,25.6-28.5,46-0.5"/>
		<path fill="none" stroke="#61F8FF" stroke-linecap="round" stroke-miterlimit="10" stroke-dasharray="1,3" d="M341.3,1156
			c0-14.1,6.5-25.6,14.5-25.6"/>
		<path fill="none" stroke="#61F8FF" stroke-linecap="round" stroke-miterlimit="10" stroke-dasharray="1,3" d="M339.8,1156.1
			c0-13.8-6.5-25-14.6-25"/>
		<path fill="none" stroke="#61F8FF" stroke-linecap="round" stroke-miterlimit="10" stroke-dasharray="1,3" d="M340.6,1155.5
			c0-16.5,2.8-29.9,6.4-29.9"/>
		<path fill="none" stroke="#61F8FF" stroke-linecap="round" stroke-miterlimit="10" stroke-dasharray="1,3" d="M342.5,1156
			c0-3.8,11.4-14,21-1.6"/>
		<path fill="none" stroke="#61F8FF" stroke-linecap="round" stroke-miterlimit="10" stroke-dasharray="1,3" d="M339.6,1156.1
			c0-9.3-23.6-27.5-33.5-5.4"/>
	</g>
	<g>
		<polyline fill="#4E4E4E" points="260.1,1159.9 260.2,1158.8 260.9,1158.7 260.9,1157.2 258.3,1157.2 258.3,1158.7 258.8,1158.8 
			258.9,1159.8 		"/>
		<path fill="none" stroke="#61F8FF" stroke-width="2" stroke-linecap="round" stroke-miterlimit="10" d="M260.3,1157.1
			c0-0.1,0-0.1,0-0.2"/>
		<path fill="none" stroke="#61F8FF" stroke-linecap="round" stroke-miterlimit="10" stroke-dasharray="1.0089,3.0267" d="
			M260.7,1155.7c4.1-12.6,18.3-19.9,27.2-3.2"/>
		<path fill="none" stroke="#61F8FF" stroke-linecap="round" stroke-miterlimit="10" stroke-dasharray="1,3" d="M260.1,1156.6
			c0-11.8,5.5-21.3,12.1-21.3"/>
		<path fill="none" stroke="#61F8FF" stroke-linecap="round" stroke-miterlimit="10" stroke-dasharray="1,3" d="M258.8,1156.8
			c0-11.5-5.5-20.9-12.2-20.9"/>
		<path fill="none" stroke="#61F8FF" stroke-linecap="round" stroke-miterlimit="10" stroke-dasharray="1,3" d="M259.5,1156.2
			c0-13.8,2.4-25,5.3-25"/>
		<path fill="none" stroke="#61F8FF" stroke-linecap="round" stroke-miterlimit="10" stroke-dasharray="1,3" d="M261.1,1156.6
			c0-3.2,9.5-11.7,17.5-1.4"/>
		<path fill="none" stroke="#61F8FF" stroke-linecap="round" stroke-miterlimit="10" stroke-dasharray="1,3" d="M258.7,1156.8
			c0-7.8-19.7-22.9-28-4.5"/>
	</g>
	<g>
		<polyline fill="#4E4E4E" points="384.8,1194.1 384.8,1192.8 385.5,1192.7 385.5,1190.9 382.4,1190.9 382.4,1192.7 383.3,1192.8 
			383.4,1194.1 		"/>
		<path fill="none" stroke="#61F8FF" stroke-width="2" stroke-linecap="round" stroke-miterlimit="10" d="M383.1,1190.8
			c0-0.1,0-0.1,0-0.2"/>
		<path fill="none" stroke="#61F8FF" stroke-linecap="round" stroke-miterlimit="10" stroke-dasharray="1,3" d="M382.6,1189.1
			c-4.9-15-22-23.5-39.4-19.4"/>
		<path fill="none" stroke="#61F8FF" stroke-linecap="round" stroke-miterlimit="10" stroke-dasharray="1,3" d="M383.3,1190.3
			c0-14.1-6.5-25.4-14.4-25.4"/>
		<path fill="none" stroke="#61F8FF" stroke-linecap="round" stroke-miterlimit="10" stroke-dasharray="1,3" d="M384.9,1190.4
			c0-13.7,6.5-24.9,14.6-24.9"/>
		<path fill="none" stroke="#61F8FF" stroke-linecap="round" stroke-miterlimit="10" stroke-dasharray="1,3" d="M384.1,1189.8
			c0-16.5-2.8-29.8-6.4-29.8"/>
		<path fill="none" stroke="#61F8FF" stroke-linecap="round" stroke-miterlimit="10" stroke-dasharray="1,3" d="M382.2,1190.3
			c0-3.8-11.4-13.9-20.9-1.6"/>
		<path fill="none" stroke="#61F8FF" stroke-linecap="round" stroke-miterlimit="10" stroke-dasharray="1,3" d="M385,1190.4
			c0-9.3,11.7-25.8,21.6-3.7"/>
	</g>
	<g>
		<polyline fill="#4E4E4E" points="200.2,1108.9 200.2,1108.2 200.6,1108.1 200.6,1107 198.7,1107 198.7,1108.1 199.3,1108.2 
			199.3,1109 		"/>
		<path fill="none" stroke="#61F8FF" stroke-width="2" stroke-linecap="round" stroke-miterlimit="10" d="M199.1,1106.9
			c0,0,0-0.1,0-0.1"/>
		<path fill="none" stroke="#61F8FF" stroke-linecap="round" stroke-miterlimit="10" stroke-dasharray="1,3" d="M198.8,1105.9
			c-3-9.3-13.6-14.5-24.4-12"/>
		<path fill="none" stroke="#61F8FF" stroke-linecap="round" stroke-miterlimit="10" stroke-dasharray="1,3" d="M199.3,1106.6
			c0-8.7-4-15.7-8.9-15.7"/>
		<path fill="none" stroke="#61F8FF" stroke-linecap="round" stroke-miterlimit="10" stroke-dasharray="1,3" d="M200.2,1106.7
			c0-8.5,4-15.4,9-15.4"/>
		<path fill="none" stroke="#61F8FF" stroke-linecap="round" stroke-miterlimit="10" stroke-dasharray="1,3" d="M199.8,1106.3
			c0-10.2-1.7-18.4-3.9-18.4"/>
		<path fill="none" stroke="#61F8FF" stroke-linecap="round" stroke-miterlimit="10" stroke-dasharray="1,3" d="M198.6,1106.6
			c0-2.4-7-8.6-12.9-1"/>
		<path fill="none" stroke="#61F8FF" stroke-linecap="round" stroke-miterlimit="10" stroke-dasharray="1,3" d="M200.3,1106.7
			c0-5.7,7.2-16,13.4-2.3"/>
	</g>
	<g>
		<polyline fill="#4E4E4E" points="259.6,1108.9 259.6,1108.2 260.1,1108.1 260.1,1107 258.1,1107 258.1,1108.1 258.7,1108.2 
			258.7,1109 		"/>
		<path fill="none" stroke="#61F8FF" stroke-width="2" stroke-linecap="round" stroke-miterlimit="10" d="M258.5,1106.9
			c0,0,0-0.1,0-0.1"/>
		<path fill="none" stroke="#61F8FF" stroke-linecap="round" stroke-miterlimit="10" stroke-dasharray="1,3" d="M258.3,1105.9
			c-3-9.3-13.6-14.5-24.4-12"/>
		<path fill="none" stroke="#61F8FF" stroke-linecap="round" stroke-miterlimit="10" stroke-dasharray="1,3" d="M258.7,1106.6
			c0-8.7-4-15.7-8.9-15.7"/>
		<path fill="none" stroke="#61F8FF" stroke-linecap="round" stroke-miterlimit="10" stroke-dasharray="1,3" d="M259.7,1106.7
			c0-8.5,4-15.4,9-15.4"/>
		<path fill="none" stroke="#61F8FF" stroke-linecap="round" stroke-miterlimit="10" stroke-dasharray="1,3" d="M259.2,1106.3
			c0-10.2-1.7-18.4-3.9-18.4"/>
		<path fill="none" stroke="#61F8FF" stroke-linecap="round" stroke-miterlimit="10" stroke-dasharray="1,3" d="M258,1106.6
			c0-2.4-7-8.6-12.9-1"/>
		<path fill="none" stroke="#61F8FF" stroke-linecap="round" stroke-miterlimit="10" stroke-dasharray="1,3" d="M259.7,1106.7
			c0-5.7,7.2-16,13.4-2.3"/>
	</g>
	<g>
		<polyline fill="#4E4E4E" points="164.7,1128 164.7,1127 165.2,1126.9 165.2,1125.5 162.8,1125.5 162.8,1126.9 163.5,1127 
			163.6,1128 		"/>
		<path fill="none" stroke="#61F8FF" stroke-width="2" stroke-linecap="round" stroke-miterlimit="10" d="M163.3,1125.4
			c0-0.1,0-0.1,0-0.2"/>
		<path fill="none" stroke="#61F8FF" stroke-linecap="round" stroke-miterlimit="10" stroke-dasharray="1,3" d="M163,1124.1
			c-3.8-11.6-17.1-18.2-30.6-15.1"/>
		<path fill="none" stroke="#61F8FF" stroke-linecap="round" stroke-miterlimit="10" stroke-dasharray="1,3" d="M163.5,1125.1
			c0-10.9-5-19.7-11.2-19.7"/>
		<path fill="none" stroke="#61F8FF" stroke-linecap="round" stroke-miterlimit="10" stroke-dasharray="1,3" d="M164.8,1125.1
			c0-10.6,5-19.3,11.3-19.3"/>
		<path fill="none" stroke="#61F8FF" stroke-linecap="round" stroke-miterlimit="10" stroke-dasharray="1,3" d="M164.1,1124.7
			c0-12.8-2.2-23.1-4.9-23.1"/>
		<path fill="none" stroke="#61F8FF" stroke-linecap="round" stroke-miterlimit="10" stroke-dasharray="1,3" d="M162.7,1125.1
			c0-3-8.8-10.8-16.2-1.3"/>
		<path fill="none" stroke="#61F8FF" stroke-linecap="round" stroke-miterlimit="10" stroke-dasharray="1,3" d="M164.9,1125.1
			c0-7.2,9-20,16.8-2.9"/>
	</g>
	<g>
		<polyline fill="#4E4E4E" points="351,1128 351.1,1126.9 351.8,1126.8 351.8,1125.3 349.2,1125.3 349.2,1126.8 349.7,1126.9 
			349.8,1128 		"/>
		<path fill="none" stroke="#61F8FF" stroke-width="2" stroke-linecap="round" stroke-miterlimit="10" d="M351.2,1125.2
			c0-0.1,0-0.1,0-0.2"/>
		<path fill="none" stroke="#61F8FF" stroke-linecap="round" stroke-miterlimit="10" stroke-dasharray="1.0089,3.0267" d="
			M351.6,1123.8c4.1-12.6,7.9-14.5,22.6-11.1"/>
		<path fill="none" stroke="#61F8FF" stroke-linecap="round" stroke-miterlimit="10" stroke-dasharray="1,3" d="M351.1,1124.8
			c0-11.8,5.5-21.3,12.1-21.3"/>
		<path fill="none" stroke="#61F8FF" stroke-linecap="round" stroke-miterlimit="10" stroke-dasharray="1,3" d="M349.7,1124.9
			c0-11.5-5.5-20.9-12.2-20.9"/>
		<path fill="none" stroke="#61F8FF" stroke-linecap="round" stroke-miterlimit="10" stroke-dasharray="1,3" d="M350.4,1124.3
			c0-13.8,2.4-25,5.3-25"/>
		<path fill="none" stroke="#61F8FF" stroke-linecap="round" stroke-miterlimit="10" stroke-dasharray="1,3" d="M352,1124.8
			c0-3.2,9.5-11.7,17.5-1.4"/>
		<path fill="none" stroke="#61F8FF" stroke-linecap="round" stroke-miterlimit="10" stroke-dasharray="1,3" d="M349.6,1124.9
			c0-7.8-11-21.4-19.3-3"/>
	</g>
	<g>
		<polyline fill="#4E4E4E" points="327.9,1108.6 328,1107.7 328.6,1107.6 328.6,1106.3 326.4,1106.3 326.4,1107.6 326.9,1107.7 
			326.9,1108.5 		"/>
		<path fill="none" stroke="#61F8FF" stroke-width="2" stroke-linecap="round" stroke-miterlimit="10" d="M328.1,1106.2
			c0,0,0-0.1,0-0.1"/>
		<path fill="none" stroke="#61F8FF" stroke-linecap="round" stroke-miterlimit="10" stroke-dasharray="1.0089,3.0267" d="
			M328.4,1105.1c3.4-10.4,6.5-12,18.6-9.2"/>
		<path fill="none" stroke="#61F8FF" stroke-linecap="round" stroke-miterlimit="10" stroke-dasharray="1,3" d="M328,1105.9
			c0-9.7,4.5-17.6,10-17.6"/>
		<path fill="none" stroke="#61F8FF" stroke-linecap="round" stroke-miterlimit="10" stroke-dasharray="1,3" d="M326.9,1106
			c0-9.5-4.5-17.2-10.1-17.2"/>
		<path fill="none" stroke="#61F8FF" stroke-linecap="round" stroke-miterlimit="10" stroke-dasharray="1,3" d="M327.4,1105.6
			c0-11.4,2-20.6,4.4-20.6"/>
		<path fill="none" stroke="#61F8FF" stroke-linecap="round" stroke-miterlimit="10" stroke-dasharray="1,3" d="M328.7,1105.9
			c0-2.6,7.9-9.6,14.5-1.1"/>
		<path fill="none" stroke="#61F8FF" stroke-linecap="round" stroke-miterlimit="10" stroke-dasharray="1,3" d="M326.7,1106
			c0-6.4-9.1-17.7-16-2.5"/>
	</g>
	<g>
		<polyline fill="#4E4E4E" points="299.8,1128 299.8,1127 300.4,1126.9 300.4,1125.5 298,1125.5 298,1126.9 298.7,1127 298.7,1128 
					"/>
		<path fill="none" stroke="#61F8FF" stroke-width="2" stroke-linecap="round" stroke-miterlimit="10" d="M298.5,1125.4
			c0-0.1,0-0.1,0-0.2"/>
		<path fill="none" stroke="#61F8FF" stroke-linecap="round" stroke-miterlimit="10" stroke-dasharray="1,3" d="M298.1,1124.1
			c-3.8-11.6-17.1-18.2-30.6-15.1"/>
		<path fill="none" stroke="#61F8FF" stroke-linecap="round" stroke-miterlimit="10" stroke-dasharray="1,3" d="M298.7,1125.1
			c0-10.9-5-19.7-11.2-19.7"/>
		<path fill="none" stroke="#61F8FF" stroke-linecap="round" stroke-miterlimit="10" stroke-dasharray="1,3" d="M299.9,1125.1
			c0-10.6,5-19.3,11.3-19.3"/>
		<path fill="none" stroke="#61F8FF" stroke-linecap="round" stroke-miterlimit="10" stroke-dasharray="1,3" d="M299.3,1124.7
			c0-12.8-2.2-23.1-4.9-23.1"/>
		<path fill="none" stroke="#61F8FF" stroke-linecap="round" stroke-miterlimit="10" stroke-dasharray="1,3" d="M297.8,1125.1
			c0-3-8.8-10.8-16.2-1.3"/>
		<path fill="none" stroke="#61F8FF" stroke-linecap="round" stroke-miterlimit="10" stroke-dasharray="1,3" d="M300,1125.1
			c0-7.2,9-20,16.8-2.9"/>
	</g>
	<g>
		<polyline fill="#4E4E4E" points="231.6,1194.1 231.6,1192.8 232.3,1192.8 232.3,1190.9 229.2,1190.9 229.2,1192.7 230.1,1192.8 
			230.2,1194.1 		"/>
		<path fill="none" stroke="#61F8FF" stroke-width="2" stroke-linecap="round" stroke-miterlimit="10" d="M229.9,1190.8
			c0-0.1,0-0.1,0-0.2"/>
		<path fill="none" stroke="#61F8FF" stroke-linecap="round" stroke-miterlimit="10" stroke-dasharray="1,3" d="M229.5,1189.2
			c-4.8-14.8-26.8-24-31.5-1"/>
		<path fill="none" stroke="#61F8FF" stroke-linecap="round" stroke-miterlimit="10" stroke-dasharray="1,3" d="M230.1,1190.4
			c0-13.9-6.4-25.1-14.2-25.1"/>
		<path fill="none" stroke="#61F8FF" stroke-linecap="round" stroke-miterlimit="10" stroke-dasharray="1,3" d="M231.7,1190.5
			c0-13.5,6.4-24.5,14.4-24.5"/>
		<path fill="none" stroke="#61F8FF" stroke-linecap="round" stroke-miterlimit="10" stroke-dasharray="1,3" d="M230.9,1189.9
			c0-16.2-2.8-29.3-6.3-29.3"/>
		<path fill="none" stroke="#61F8FF" stroke-linecap="round" stroke-miterlimit="10" stroke-dasharray="1,3" d="M229,1190.4
			c0-3.8-11.2-13.7-20.6-1.6"/>
		<path fill="none" stroke="#61F8FF" stroke-linecap="round" stroke-miterlimit="10" stroke-dasharray="1,3" d="M231.8,1190.5
			c0-9.1,11.5-25.4,21.3-3.7"/>
	</g>
	<g>
		<polyline fill="#4E4E4E" points="306.7,1194 306.7,1192.7 307.3,1192.5 307.3,1190.5 304,1190.5 304,1192.4 304.9,1192.7 
			305.1,1194.1 		"/>
		<path fill="none" stroke="#61F8FF" stroke-width="2" stroke-linecap="round" stroke-miterlimit="10" d="M304.7,1190.4
			c0-0.1,0-0.3,0-0.4"/>
		<path fill="none" stroke="#61F8FF" stroke-linecap="round" stroke-miterlimit="10" stroke-dasharray="1,3" d="M303.6,1187.2
			c-5.9-15.5-23.8-24.2-42.2-20.3"/>
		<path fill="none" stroke="#61F8FF" stroke-linecap="round" stroke-miterlimit="10" stroke-dasharray="1,3" d="M304.9,1189.7
			c0-15.5-7.1-28-15.9-28"/>
		<path fill="none" stroke="#61F8FF" stroke-linecap="round" stroke-miterlimit="10" stroke-dasharray="1,3" d="M306.7,1190
			c0-15.1,7.1-27.4,16-27.4"/>
		<path fill="none" stroke="#61F8FF" stroke-linecap="round" stroke-miterlimit="10" stroke-dasharray="1,3" d="M305.7,1189.2
			c0-18.2-3.1-32.7-6.9-32.7"/>
		<path fill="none" stroke="#61F8FF" stroke-linecap="round" stroke-miterlimit="10" stroke-dasharray="1,3" d="M303.6,1189.7
			c0-4.3-12.5-15.3-23-1.7"/>
		<path fill="none" stroke="#61F8FF" stroke-linecap="round" stroke-miterlimit="10" stroke-dasharray="1,3" d="M306.8,1190
			c0-10.1,12.8-28.4,23.8-4.1"/>
	</g>
</g>
</svg>
