<?xml version="1.0" encoding="utf-8"?>
<!-- Generator: Adobe Illustrator 17.1.0, SVG Export Plug-In . SVG Version: 6.00 Build 0)  -->
<!DOCTYPE svg PUBLIC "-//W3C//DTD SVG 1.1//EN" "http://www.w3.org/Graphics/SVG/1.1/DTD/svg11.dtd">
<svg version="1.1" id="Layer_1" xmlns="http://www.w3.org/2000/svg" xmlns:xlink="http://www.w3.org/1999/xlink" x="0px" y="0px"
	 viewBox="114 476 433 179" enable-background="new 114 476 433 179" xml:space="preserve">
<g>
	<rect x="491.5" y="593.6" fill="#4E4E4E" width="0.9" height="45.8"/>
	<rect x="481" y="581.2" transform="matrix(0.8791 -0.4767 0.4767 0.8791 -222.9697 306.0045)" fill="#337A31" width="21.2" height="22.5"/>
		<polygon fill="#FFBA3C" points="491.6,592.7 480.9,573.1 496.1,577.6 		"/>
		<polygon fill="#4AB749" points="491.3,591.9 510.9,581.3 506.4,596.4 		"/>
		<polygon fill="#FF4A45" points="492.6,592.4 503.2,612 488.1,607.5 		"/>
		<polygon fill="#4AB749" points="492.5,592.2 472.9,602.8 477.4,587.7 		"/>
		<circle fill="#FFB749" cx="491.9" cy="592.4" r="2"/>
		<path fill="#4AB749" d="M365,626.8c1.7-1.5,3.6-2.6,5.7-2.9c-0.5-0.1-1-0.1-1.5-0.1c-1.2,0-2.4,0.3-3.5,0.7c0-0.1,0.1-0.2,0.1-0.3
			l1.3-0.5c1.3-2.4,3.9-5.4,6-6.5c-0.5,0.1-1,0.2-1.5,0.3c-0.9,0.3-2.1,1-3.2,2c0.1-0.1,0.2-0.3,0.3-0.4c-0.5,0.3-1,0.7-1.5,1.1
			c-1.8,1.5-3.2,3.5-4.2,5.8c-2.4,1.8-4.4,4.6-5.7,7.7l-0.5-4.7c-0.2,2-0.2,4,0,6c-0.8,2.4-1.3,4.9-1.3,7.4h3.1
			c0-3.9,1.1-7.9,3-11.2c-0.5,3.6-0.2,7.6,1,11.1h1.2c0,0,0,0.1,0,0.1c0.2,0.8,0.7,0.3,1.1-0.1h0.5c0-0.1,0-0.2-0.1-0.2
			c0.2,0,0.3,0,0.4,0.4l-1.5-9.2C364.2,631.1,364.5,628.8,365,626.8z"/>
		<path fill="#4AB749" d="M342.7,642.4L342.7,642.4C342.8,643.3,342.7,642.8,342.7,642.4z"/>
		<path fill="#4AB749" d="M342.7,642.4h0.2C342.7,641.7,342.7,642,342.7,642.4z"/>
		<path fill="#4AB749" d="M355.2,618.4c-0.6,0-1.2,0-1.8,0c-4.5,0.5-8.3,3.1-10.9,7.3c-7.8,3.4-10.9,6.9-6.8,16.7
			c0.5,1.3,0.2-1.1,0.9,0h2.5c-3.2-7.8-1.9-11.9,2.7-15.4c-2.2,4.1-3.3,9.5-2.7,15.4h0c0,0,0,0,0,0c0.1,0.8,0.5,0.4,0.9,0h1h0h1.8
			C341.5,630.3,347,620.6,355.2,618.4z M340.5,642c0.1,0,0.3,0.1,0.4,0.4C340.7,642.2,340.6,642.1,340.5,642z"/>
		<path fill="#4AB749" d="M334.7,612.1c-0.6,0.1-1.2,0.2-1.8,0.4c-3,0.9-7.6,5.9-9.5,8.9l4.1-1.4C329,617.1,332.2,613.4,334.7,612.1
			z"/>
		<path fill="#4AB749" d="M331.6,642.4c0.1-0.7,0.2-1.6,0.3-2.4l-0.5,2.3C331.4,642.8,331.5,643.6,331.6,642.4z"/>
		<path fill="#4AB749" d="M331.3,642.4l0-0.1C331.3,641.8,331.3,641.5,331.3,642.4z"/>
		<path fill="#4AB749" d="M332,620c-0.6-0.1-1.2-0.1-1.8-0.1c-5.5,0-10.5,4.2-13.5,10c-0.7,0-1.3,0-2,0.1l0.2-0.1
			c1.2-4,4.1-8.4,7-9.9c-0.5,0.1-1,0.2-1.5,0.3c-2.7,0.8-5.4,3.8-7.2,7.1c2.2-5.3,5.1-9.8,8.5-10.7c-0.6,0-1.2,0-1.8,0
			c-3.7,0.4-6.9,7.2-9.4,14.1c-4.5,1.6-7.6,5.2-7.6,11.6c0,1.1,0.1-1.1,0.3,0h2.8c0-4.3,1.4-7.3,3.7-9.2c-1.2,3.5-2.2,6.8-2.9,9.1
			h2.5c0.4-3,1.1-6.8,2.3-10.4c1.4-0.8,3-1.3,4.8-1.7c-0.7,1.3-1.2,2.8-1.7,4.2l-0.3-3c-0.2,1.5-0.2,2.9,0,4.4
			c-0.5,2.1-0.8,4.3-0.8,6.5h2.1c0,0,0,0.1,0,0.1l0-0.1h1.6c0-2.4,0.4-4.8,1-7.2c-0.1,2.4,0.2,5,1,7.3h2.4
			c-1.5-4.6-1.2-11.3,0.7-15.9c0.2-0.3,0.5-0.6,0.7-1c-0.7,4.7-0.8,11.5,0.5,16.7c0.5,1.7,1.7-1.6,2.4,0l-2.8-16.9
			C325.5,622.5,328.6,620.5,332,620z"/>
		<path fill="#4AB749" d="M317.3,642.4h0.3C317.4,641.8,317.4,642.1,317.3,642.4z"/>
		<path fill="#4AB749" d="M317.3,642.4L317.3,642.4C317.2,643.1,317.2,642.8,317.3,642.4z"/>
		<path fill="#4AB749" d="M346.7,642.4L346.7,642.4C346.6,643.1,346.6,642.8,346.7,642.4z"/>
		<path fill="#4AB749" d="M346.7,642.4h0.3C346.8,641.8,346.8,642.1,346.7,642.4z"/>
		<path fill="#4AB749" d="M343,622.5c-0.6-0.1-1.2-0.3-1.8-0.1c-2,0.5-3.8,1.1-5.5,1.8l0.7-0.5c3.1-4.7,2.1-9,11.7-14.4
			c-5.7,1.9-4.7,1.4-7.6,3.9c-4.5,4-8.5,8.8-12.2,16l0.1,0c-0.1,0.1-0.1,0.2-0.2,0.2l-1.5-7c-1.2,5.1-1.2,13.9,0.4,20.1
			c0.1,0.5,0.5,0.6,0.9,0.5c0,0.2,0,0.2,0.1,0c0.1,0,0.1,0,0.2-0.1c0,0,0,0,0,0c1-0.4,2.3-1.4,2.7-0.4l-1.6-7.3
			c1.2-3.6,3.2-6.6,5.7-8.9c-1.2,3.5-2.5,9.3-3.2,13.8l3.3-13.9C337.4,624.2,340.1,622.9,343,622.5z"/>
		<path fill="#4AB749" d="M313.2,622.6c-0.5,0-1,0-1.5,0c-3.7,0.4-6.9,2.6-9.1,6c-6.5,2.8-9,5.8-5.7,13.9c0.4,1.1,0.2-0.9,0.7,0h2.1
			c-2.7-6.5-1.6-9.9,2.3-12.8c-1.8,3.4-2.7,7.9-2.3,12.8c0,0,0,0,0,0h0c0,0,0,0,0,0c0.1,0.7,0.4,0.3,0.7,0h0.8c0,0,0,0,0,0l1.5,0
			C301.8,632.5,306.4,624.4,313.2,622.6z M300.9,642.2c0.1,0,0.2,0.1,0.3,0.3C301.1,642.3,301,642.2,300.9,642.2z"/>
		<path fill="#4AB749" d="M302.8,642.5C302.8,643.2,302.8,642.9,302.8,642.5L302.8,642.5C302.8,642.5,302.8,642.5,302.8,642.5z"/>
		<path fill="#4AB749" d="M302.8,642.5l0.2,0C302.8,641.9,302.8,642.2,302.8,642.5z"/>
		<path fill="#4AB749" d="M312.7,642.5c0.4,1.5,0.1-1.3,0.6,0l-2.1-8.7C311,637,311.7,639,312.7,642.5z"/>
		<path fill="#4AB749" d="M293.5,642c-0.7-2.3-0.9-5.2-0.8-7.9c1-2,2.2-3.7,3.8-5c-1,2.9-2.1,7.7-2.7,11.5l2.7-11.5
			c1.9-1.6,4.1-2.7,6.5-3c-0.5-0.1-1-0.2-1.5-0.1c-1.7,0.4-3.2,0.9-4.6,1.5l0.7-0.4c2.5-3.9,5.8-8.8,13.8-13.3
			c-4.7,1.6-8,2.5-10.4,4.6c-1.8,1.6-3.6,3.4-5.2,5.5c-0.2,0.2-0.5,0.3-0.7,0.5c-2.2,1.8-3.6,4.5-4.3,7.5c0,0,0,0,0,0l-1.3-5.9
			c-0.3,1.2-0.5,2.6-0.6,4.1c0,0,0,0-0.1,0c-0.1,0-0.2,0-0.3,0c0.1-1.4,0.4-2.7,0.7-4c1.4-1.1,3-1.8,4.7-2c-0.5-0.1-1-0.1-1.5-0.1
			c-0.9,0-1.8,0.1-2.6,0.4c0.1-0.1,0.1-0.2,0.2-0.3l0.2-0.1c0.2-0.3,0.4-0.6,0.6-1c1-1.2,2.1-2.2,3.3-2.8c-0.5,0.1-0.9,0.1-1.4,0.3
			c1.1-1.3,2.4-2.4,3.5-3c-0.5,0.1-1,0.2-1.5,0.3c-0.8,0.2-1.8,0.8-2.7,1.6c0.4-0.5,0.7-1.1,1.2-1.5c-0.6,0.3-1.1,0.7-1.6,1.1
			c-1.6,1.3-2.9,3-3.9,5c-0.3,0.4-0.5,0.8-0.7,1.1l0.1,0c-0.3,0.3-0.5,0.7-0.7,1.1c-1.7,1.3-3.3,3.1-4.5,5.2
			c-0.3,0.1-0.6,0.3-0.9,0.4l-0.4-3.4c-0.1,1.2-0.2,2.4-0.2,3.7c-1.2,0.7-2.3,1.7-3.1,2.9l-0.2-0.9c0.7-2.2,1.5-4.3,2.4-6.2
			c1.8-0.7,3.9-1.1,6-1.4c-0.6-0.1-1.3-0.1-2-0.1c-0.9,0-1.8,0.1-2.7,0.1l0.3-0.1c0.2-0.7,0.5-1.4,0.8-2.2c1-0.7,2.2-1.2,3.4-1.5
			c-0.5,0-1,0-1.5,0c-0.3,0-0.6,0.1-0.9,0.2c0.8-0.8,1.7-1.4,2.6-1.6c-0.5,0-1,0-1.5,0c-0.3,0-0.5,0.1-0.8,0.2
			c1.8-3.4,4.4-6.5,6.9-7.7c-0.6,0.1-1.3,0.2-1.9,0.4c-3.9,1.2-7.9,6-10.1,10.9c-1,0.7-1.8,1.6-2.6,2.6c-3.7,1.3-6.6,3.7-8.2,7.4
			l1.4-5.9c1.9-1.6,4.1-2.7,6.5-3c-0.5-0.1-1-0.2-1.5-0.1c-1.7,0.4-3.2,0.9-4.6,1.5l0.7-0.4c1.9-2.9,4.2-6.3,8.5-9.8
			c0.2-0.1,0.5-0.2,0.7-0.2c-0.1,0-0.3,0-0.4,0c1.4-1.1,3.1-2.2,5-3.3c-4.3,1.5-7.4,2.4-9.8,4.1c-3.1,1.1-5.8,3.3-7.9,6.3
			c-0.5-0.1-0.9-0.1-1.4-0.1c-1.2,0-2.4,0.3-3.5,0.7c0-0.1,0.1-0.2,0.1-0.3l1.3-0.5c0.4-0.7,0.9-1.4,1.4-2.2
			c0.7-0.2,1.5-0.4,2.2-0.5c-0.6-0.1-1.2-0.2-1.7-0.2c1.3-1.6,2.8-3,4.1-3.7c-0.5,0.1-1,0.2-1.5,0.3c-0.9,0.3-2.1,1-3.2,2
			c0.1-0.1,0.2-0.3,0.3-0.4c-0.5,0.3-1,0.7-1.5,1.1c-0.6,0.5-1.1,1-1.7,1.6c-0.9,0.3-1.8,0.6-2.6,0.9l0.8-0.5
			c3.3-5,7.4-11.3,17.7-17.1c-6,2.1-10.3,3.2-13.3,5.9c-1.7,1.5-3.3,3.1-4.9,4.9c-3.5,1.5-6.8,5.7-8.8,10.1l-1.1-5.1
			c-0.5,2-0.8,4.5-0.9,7.3c-0.7,0.2-1.5,0.5-2.1,0.8l-0.8-4.7c2.6-3.2,5.8-5.4,9.4-5.9c-0.6-0.1-1.3-0.1-2-0.1c-1,0-2,0.1-2.9,0.4
			c0.4-0.1,0.7-0.3,1.1-0.4c-0.3,0-0.6,0-1,0c1.6-3,4.9-6.9,7.6-8.2c-0.6,0.1-1.3,0.2-1.9,0.4c-2.9,0.9-7.3,5.4-9.5,8.6
			c-3.2,1.1-5.9,3.4-7.9,6.6c-1.5,0.6-2.8,1.3-3.9,2c0.6-1.6,1.3-3.2,2.1-4.7c0.8-0.2,1.6-0.4,2.4-0.6c-0.6-0.1-1.2-0.3-1.8-0.1
			c-0.1,0-0.1,0-0.2,0.1c2-3.8,4.5-6.6,7.2-7.4c-0.6,0-1.3,0-2,0c-2.6,0.3-4.9,3.5-7,7.8c-1.2,0.4-2.4,0.8-3.5,1.2l0.7-0.5
			c3.1-4.7,2.1-9,11.7-14.4c-5.7,1.9-4.7,1.4-7.6,3.9c-4.5,4-8.5,8.8-12.2,16l0.1,0c-0.1,0.1-0.1,0.2-0.2,0.2l-1.5-7
			c-1.2,5.1-1.2,13.9,0.4,20.1c0.1,0.5,0.5,0.6,0.9,0.5c0,0.2,0,0.2,0.1,0c0.1,0,0.1,0,0.2-0.1c0,0,0,0,0,0c1-0.4,2.3-1.4,2.7-0.4
			l-1.6-7.3c1.2-3.6,3.2-6.6,5.7-8.9c-1.2,3.5-2.5,9.3-3.2,13.8l3.3-13.9c1.1-0.9,2.3-1.7,3.5-2.3c-0.8,1.7-1.5,3.6-2.2,5.5
			c-2,1.9-2.9,4.2-2.5,7.4c-0.7,2.2-1.3,4.2-1.8,5.7h2.7c0.1-0.5,0.1-0.9,0.2-1.4c0.2,0.5,0.3,0.9,0.5,1.4c0.5,1.3,0.2-1.1,0.9,0
			h2.5c-3.2-7.8-1.9-11.9,2.7-15.4c-2.2,4.1-3.3,9.5-2.7,15.4h0c0,0,0,0,0,0c0.1,0.8,0.5,0.4,0.9,0h1h0h1.8c0,0,0,0,0,0h0
			c0,0,0,0,0,0h0.2c0,0,0,0,0,0h0c0,0,0,0,0,0c0,0.7,0,0.3,0.1,0h0.2c0,0,0-0.1,0-0.1c0,0,0,0.1,0,0.1h0c0,0.7,0,0.4,0.1,0h3.3
			c0-3.6,0.8-6.4,2.2-8.6c0,0.3,0,0.7,0,1c0.1,2.6,0.4,5.1,1,7.4c0,0.1,0,0.2-0.1,0.2h0.1c0.2,0.7,0.6,0.4,1.1,0h0.9
			c0-0.2,0-0.4,0.1-0.6c0.2,0,0.3,0.1,0.5,0.5l-0.3-1.7c0.2-1,0.4-2,0.6-3c0.2,1.7,0.5,3.3,0.9,4.8c0.1,0.6,0.5,0.6,1,0.5
			c0,0.2,0,0.2,0.1,0c0.1,0.1,0.1,0.1,0.1,0c0,0,0.1,0,0.1,0c0,0,0,0,0,0c0.2-0.1,0.4-0.2,0.6-0.3h2.8c0,0.4,0.1,0.7,0.2,0.3
			c0,0,0-0.2,0.1-0.3h0c0-0.1,0-0.1,0-0.1c0.1-0.8,0.2-1.7,0.3-2.6l-0.4,1.5c0.1-1.9,0.5-3.9,1.1-5.7c-0.3,1.5-0.5,2.9-0.7,4.2
			l1.5-6.3c0.3-0.8,0.7-1.5,1.1-2.3c0,0.2-0.1,0.4-0.1,0.6c-0.6,1.9-0.6,4.1,0.2,7c0.2,1.2,0.5,2.4,0.9,3.6h0.4
			c0.3,0.6,0.3,0.3,0.4,0h0.4c0,0,0,0.1,0,0.1c0.2,0.8,0.7,0.3,1.1-0.1h0.5c0,0,0,0,0,0l0.3,0c0,0,0.1,0.1,0.1,0.1l0-0.1l0.8,0
			c0,0,0,0,0,0c-2.3-5.6-2.4-9.4-0.7-12.5c-0.3,3.6-0.1,7.9,0.6,11.5c0,0.3,0,0.7,0.1,1c0,0,0,0,0,0h0c0,0,0,0,0,0
			c0,0.5,0.2,0.6,0.4,0.5c0.1,0.1,0.3,0.1,0.6,0.1c0,0.2,0,0.1,0.1,0c0.1,0,0.1,0,0.2-0.1c0,0,0,0,0,0c0.3-0.1,0.6-0.3,1-0.5h1.2
			c0,0,0.1,0.1,0.1,0.1l0-0.1h0.3c0,0,0,0.1,0,0.1l0-0.1c0,0,0,0,0,0h0l0,0c0,0.5,0.1,1.1,0.2,0.1c0,0,0-0.1,0-0.1h0.1
			c0-0.2-0.1-0.2-0.1-0.3c0.1-0.4,0.1-0.9,0.2-1.4c0,0.6-0.1,1.1-0.1,1.7c0,1.5,0.1-1.4,0.4,0h2.8c0,0,0,0.1,0.1,0.1
			c0.3,0.7,0.3,0.1,0.4-0.1h0.3c0,0,0.1,0.1,0.1,0.1c0,0.5,0,0.3,0.1,0h2c-0.9-2.1-1.3-3.9-1.4-5.4c0.6-2.1,1.5-3.8,2.7-5.1
			c-1.1,3-1.6,6.6-1.2,10.5c0,0,0,0,0,0h0c0,0,0,0,0,0c0.1,0.7,0.4,0.3,0.7,0h0.5h0.3h1.5c0.1,0.7,0,0.3,0,0h0.2
			c0,1.1,0.1-1.1,0.3,0h2.8c0-0.1,0-0.3,0-0.4c0,0.1,0,0.2,0.1,0.3c0,0,0,0,0,0c0,0,0,0.1,0,0.1h0c0.3,1,0.2-0.2,0.4-0.5
			c0,0.2,0,0.4,0,0.5h3.1c0-0.4,0-0.8,0-1.2c0.1,0.4,0.2,0.7,0.3,1.1l-0.2-1.9c0.2-2.1,0.7-4.3,1.5-6.2c-0.1,3,0.6,4.9,1.5,8.3
			c0.4,1.5,0.1-1.3,0.6,0l-2-8.5c0.3-0.8,0.7-1.7,1.1-2.4c0.3-0.1,0.6-0.3,0.9-0.4c-0.4,3.7-0.1,7.6,1.1,11.2h0.3c0,0,0,0.1,0,0.1
			c0.2,0.9,0.7,0.2,1.2-0.1h0.8c0,0,0.1,0.1,0.1,0.1l0-0.1h0.8c-1.1-3.4-1.5-7.8-1.1-12c0.1,0,0.2,0,0.3-0.1
			c-0.3,3.9,0,8.6,0.9,12.3c0.1,0.4,0.4,0.5,0.8,0.4c0,0.2,0,0.1,0.1,0c0.1,0,0.1,0,0.2-0.1c0,0,0,0,0,0c0.2-0.1,0.4-0.2,0.7-0.3
			h1.9c0,0.4,0.1,0.9,0.2,0h0.1c0-0.1,0-0.1,0-0.2c0.1-0.6,0.1-1.2,0.2-1.8L293.5,642z M251.3,634.6c0.1-0.3,0.2-0.7,0.4-1
			c0,0.5,0.1,1.1,0.1,1.6c-0.1,0.2-0.2,0.4-0.2,0.7L251.3,634.6z M239.1,636.1c1-4.3,2.8-8.4,5.4-11.5c-0.3,1.5-0.5,3.3-0.5,5.4
			C241.8,631.4,240.1,633.4,239.1,636.1z M246.7,636.9l-0.9-5.3c0.5-0.5,1.1-0.9,1.7-1.3c0,1.3,0,2.6,0.1,3.9
			C247.3,635.1,247,636,246.7,636.9z M252.3,633.9l-0.2-1.4c0.8-1.8,1.8-3.4,2.9-4.8c0.5-0.1,0.9-0.2,1.4-0.2
			c-0.4-0.1-0.8-0.1-1.2-0.1c0.6-0.8,1.3-1.5,2.1-2.2c-0.2,0.6-0.4,1.3-0.7,2.1C254.9,629,253.4,631.3,252.3,633.9z M257.1,626.9
			l0.4-1.9c0.6-0.5,1.2-0.9,1.8-1.4c-0.5,0.8-0.9,1.6-1.3,2.4C257.7,626.4,257.4,626.6,257.1,626.9z M260,627.5
			c0-0.2,0.1-0.5,0.1-0.7c1.7-1.5,3.5-2.5,5.6-2.8c-0.2,0.2-0.3,0.5-0.5,0.7c-1.3,0.6-2.5,1.2-3.6,1.8l-0.1-0.6
			c-0.1,0.3-0.1,0.5-0.2,0.8C260.8,626.9,260.4,627.2,260,627.5z M264.5,626c-0.8,1.5-1.4,3.1-1.9,4.9l-0.5-2.6
			C262.7,627.5,263.5,626.7,264.5,626z M265.5,642.1c-0.3-3.8,0-7.3,0.8-10.5c0.7-0.9,1.4-1.8,2.3-2.5c-0.7,2-1.4,4.9-2,7.8
			c-0.3,1.1-0.6,2.4-0.7,3.8L265.5,642.1z M273,642.2c0,0,0.1,0,0.1,0C273.1,642.2,273.1,642.2,273,642.2
			C273,642.2,273,642.2,273,642.2z M275,636.1c0.4-2.9,1.4-5.5,2.7-7.6c0.1,0,0.1-0.1,0.2-0.1c-0.5,1.1-1,2.3-1.4,3.5l-0.2-0.6
			c0,0.4,0,0.8,0,1.1C275.8,633.7,275.4,634.9,275,636.1z M276.2,636.4c0.1-0.3,0.1-0.6,0.2-0.9c0,0.1,0,0.2,0.1,0.3
			C276.4,636,276.3,636.2,276.2,636.4z M278.3,639.7c0.2-1.4,0.7-2.7,1.3-3.8c-0.5,1.6-0.9,3.3-1,5L278.3,639.7z"/>
		<path fill="#4AB749" d="M281.7,642.5L281.7,642.5C281.6,643.1,281.6,642.8,281.7,642.5z"/>
		<path fill="#4AB749" d="M281.7,642.5h0.2C281.8,642,281.7,642.2,281.7,642.5z"/>
		<path fill="#4AB749" d="M306.1,642.5h0.2C306.2,642,306.2,642.2,306.1,642.5z"/>
		<path fill="#4AB749" d="M306.1,642.5L306.1,642.5C306,643.1,306.1,642.8,306.1,642.5z"/>
		<path fill="#4AB749" d="M379.7,642.5L379.7,642.5C379.6,642.5,379.6,642.5,379.7,642.5C379.7,643.2,379.7,642.9,379.7,642.5z"/>
		<path fill="#4AB749" d="M379.7,642.5l0.2,0C379.7,641.9,379.7,642.2,379.7,642.5z"/>
		<path fill="#4AB749" d="M355.8,628.7c1.7-0.6,3.6-1,5.6-1.3c-0.6-0.1-1.2-0.1-1.8-0.1c-0.9,0-1.7,0-2.5,0.1l0.3-0.1
			c0.3-1.1,0.8-2.3,1.3-3.4c1.1-1.4,2.3-2.4,3.6-2.7c-0.5,0-1,0-1.5,0c-0.3,0-0.5,0.1-0.8,0.2c1.6-2.7,3.7-4.9,5.8-6
			c-0.6,0.1-1.2,0.2-1.8,0.4c-4.2,1.3-8.4,6.9-10.3,12.2c-6.3,1.6-10.7,6-10.7,14.5c0,1.4,0.1-1.3,0.3,0h3.3c0-7.1,3.1-11,7.8-13.2
			c-0.5,1.1-0.9,2.3-1.4,3.5l-0.2-0.7c0,0.5,0,0.9,0,1.4c-1.2,3.5-2.2,7-2.9,9.2h2.1c0.2-1.8,0.6-3.9,1.2-6.1c0.3,1.8,0.9,3.6,1.5,6
			c0.5,1.7,0.1-1.6,0.7,0l-1.8-7.5C354.1,632.7,354.9,630.6,355.8,628.7z"/>
		<path fill="#4AB749" d="M370.2,642.5l0-0.1C370.2,642,370.2,641.8,370.2,642.5z"/>
		<path fill="#4AB749" d="M370.4,642.5c0.1-0.6,0.2-1.3,0.3-2l-0.4,1.9C370.3,642.9,370.3,643.5,370.4,642.5z"/>
		<path fill="#4AB749" d="M358.5,642.5h0.2C358.7,642,358.6,642.2,358.5,642.5z"/>
		<path fill="#4AB749" d="M358.5,642.5L358.5,642.5C358.5,643.1,358.5,642.8,358.5,642.5z"/>
		<path fill="#4AB749" d="M383,642.5L383,642.5C382.9,643.1,382.9,642.8,383,642.5z"/>
		<path fill="#4AB749" d="M383,642.5h0.2C383.1,642,383,642.2,383,642.5z"/>
		<path fill="#4AB749" d="M428.4,625.9c1.4-1.1,3-1.8,4.7-2c-0.5-0.1-1-0.1-1.5-0.1c-0.9,0-1.8,0.1-2.7,0.4c0-0.1,0.1-0.2,0.1-0.2
			l0.4-0.2c1.3-2.4,3.9-5.4,6-6.5c-0.5,0.1-1,0.2-1.5,0.3c-0.8,0.2-1.8,0.8-2.7,1.6c0.4-0.5,0.7-1.1,1.2-1.5
			c-0.6,0.3-1.1,0.7-1.6,1.1c-1.6,1.3-2.9,3-3.9,5c-0.3,0.4-0.5,0.8-0.7,1.1l0.3-0.1c-0.1,0.2-0.2,0.4-0.3,0.7
			c-2.4,1.6-4.4,4.1-5.9,7.1l-0.5-4.3c-0.2,1.9-0.2,3.7-0.1,5.5c-0.9,2.2-1.5,4.7-1.7,7.1l-1.7-7c0.7-2.2,1.5-4.3,2.4-6.2
			c1.8-0.7,3.9-1.1,6-1.4c-0.6-0.1-1.3-0.1-2-0.1c-0.9,0-1.8,0.1-2.7,0.1l0.3-0.1c0.3-0.9,0.6-1.9,1-2.8c1-1.2,2.1-2,3.3-2.3
			c-0.5,0-1,0-1.5,0c-0.3,0-0.5,0.1-0.8,0.2c1.8-3.4,4.4-6.5,6.9-7.7c-0.6,0.1-1.3,0.2-1.9,0.4c-4.5,1.3-9,7.4-10.9,12.9
			c-6.7,1.7-11.4,6.4-11.4,15.4c0,1.5,0.1-1.4,0.4,0h3.5c0-7.5,3.3-11.7,8.2-14c-0.5,1.1-1,2.3-1.4,3.5l-0.2-0.6c0,0.4,0,0.8,0,1.1
			c-1.4,3.8-2.5,7.7-3.3,10.1h2.1c0.2-2.1,0.7-4.5,1.4-7c0.3,2.1,1,4.1,1.7,6.9c0.3,1.3,0.2-0.1,0.4-0.4c0,0.2,0,0.4,0,0.5h3.1
			c0-0.4,0-0.8,0-1.2c0.1,0.4,0.2,0.7,0.3,1.1l-0.2-1.9c0.4-3.9,1.8-7.7,3.9-10.8c-0.7,4.1-0.4,8.6,0.9,12.7h0.3c0,0,0,0.1,0,0.1
			c0.2,0.9,0.7,0.2,1.2-0.1h0.8c0,0,0.1,0.1,0.1,0.1l0-0.1h0.8C427.2,637.7,427.1,631.3,428.4,625.9z"/>
		<path fill="#4AB749" d="M418,616.9c-0.6,0-1.3,0-2,0c-4.8,0.5-8.8,3.3-11.6,7.7c-2.3,1-4.2,2-5.7,3.2c0.6-1.8,1.4-3.5,2.5-4.6
			c-0.4,0.3-0.9,0.6-1.3,0.9c-4.7,3.8-6,11.8-3.8,18.4h1.1c0.2,0.4,0.3,0.3,0.3,0h0.9c0,0,0-0.1,0-0.1l2.3,0c0,0,0,0,0,0
			c-3.4-8.3-2-12.7,2.9-16.4c-2.3,4.4-3.5,10.1-2.9,16.4c0,0,0,0,0,0h0c0,0,0,0,0,0c0.1,0.9,0.5,0.4,0.9,0l1,0h1.9
			C403.5,629.5,409.3,619.2,418,616.9z M402.3,641.9c0.2,0,0.3,0.1,0.4,0.4C402.6,642.1,402.4,642,402.3,641.9z"/>
		<path fill="#4AB749" d="M404.7,642.4L404.7,642.4C404.7,643.3,404.7,642.8,404.7,642.4z"/>
		<path fill="#4AB749" d="M404.7,642.4h0.2C404.7,641.6,404.7,642,404.7,642.4z"/>
		<path fill="#4AB749" d="M388.5,618.4c1.6-3,5-7,7.6-8.3c-0.6,0.1-1.3,0.2-1.9,0.4c-3.2,1-8.1,6.2-10.1,9.4L388.5,618.4z"/>
		<path fill="#4AB749" d="M392.6,642.4l0-0.1C392.6,641.8,392.6,641.4,392.6,642.4z"/>
		<path fill="#4AB749" d="M392.9,642.4c0.1-0.8,0.2-1.7,0.3-2.6l-0.6,2.4C392.7,642.8,392.7,643.6,392.9,642.4z"/>
		<path fill="#4AB749" d="M408.9,642.4h-0.1C408.8,643.1,408.9,642.7,408.9,642.4z"/>
		<path fill="#4AB749" d="M408.9,642.4h0.3C409.1,641.7,409,642,408.9,642.4z"/>
		<path fill="#4AB749" d="M405,621.2c-0.6-0.1-1.3-0.3-2-0.1c-2.2,0.5-4.1,1.1-5.8,1.9l0.8-0.5c3.3-5,7.4-11.3,17.7-17.1
			c-6,2.1-10.3,3.2-13.3,5.9c-4.8,4.2-9,9.4-13,17.1l0.1,0c-0.1,0.1-0.1,0.2-0.2,0.3l-1.1-5.2c0.6-0.3,1.3-0.6,1.9-0.7
			c-0.5,0-1,0-1.5,0c-0.2,0-0.3,0.1-0.5,0.1l-0.4-1.7c-0.1,0.6-0.2,1.2-0.4,1.8c-1.1,0.2-2.1,0.7-3.1,1.2c2.5-3,5.7-5,9.1-5.5
			c-0.6-0.1-1.3-0.1-2-0.1c-4.8,0-9.1,3-12.3,7.4c-0.2,0-0.4,0-0.6,0c-1.7,0.4-3.2,0.9-4.6,1.5l0.7-0.4c2.5-3.9,5.8-8.8,13.8-13.3
			c-4.2,1.4-7.3,2.3-9.6,4c1.2-1.2,2.5-2.1,3.8-2.5c-0.6,0-1.3,0-2,0c-2.4,0.3-4.7,3.2-6.7,7.2c-2.1,2.5-4.1,5.5-6.1,9.2l0.1,0
			c-0.1,0.1-0.1,0.2-0.2,0.2l-1.3-5.9c-1,4.1-1,11.3,0.3,16.4c0,0,0,0.1,0,0.1h0.1c0,0,0,0.1,0,0.1c0.1,0.4,0.4,0.5,0.8,0.4
			c0,0.2,0,0.1,0.1,0c0.1,0,0.1,0,0.2-0.1c0,0,0,0,0,0c0.3-0.1,0.6-0.3,1-0.5h0.6c0-0.1,0-0.1,0-0.2c0.3-0.1,0.5,0,0.7,0.4l-0.4-2.1
			c0.5-3.1,1.3-6.5,2.4-9.9c0.5-0.5,1-1,1.5-1.5c-1,2.9-2.1,7.7-2.7,11.5l2.7-11.6c1.6-1.4,3.4-2.3,5.3-2.8c-0.9,1.2-1.6,2.6-2.3,4
			c-4.1,2.4-5.4,5.6-2.8,12c0,0.1,0,0.1,0,0.2h0.1c0,0,0,0.1,0.1,0.1c0.3,0.7,0.3,0.1,0.4-0.1h0.3c0,0,0.1,0.1,0.1,0.1h2.1
			c0-0.1,0-0.1-0.1-0.1h0.1c0,0,0,0.1,0,0.1c0,0,0,0,0,0h0c0,0,0,0,0,0c0.1,0.7,0.4,0.3,0.7,0h0.2c0,0.5,0,0.3,0.1,0h0.5
			c0,0,0,0,0,0l1.5,0c-0.6-6.1,0.9-11.5,3.7-15.2c-0.2,1.8-0.3,3.9-0.2,6.2c-2,2-3.3,5-3.3,9c0,1.1,0.1-1.1,0.3,0h2.8
			c0-1.6,0.2-3.1,0.6-4.3c0.2,1.5,0.4,2.9,0.8,4.2c0.5,1.9,1.9-1.7,2.5,0l-1.3-8c0.4-0.5,0.8-0.9,1.3-1.2c0.1,3.2,0.6,6.5,1.3,9.2
			c0.1,0.6,0.5,0.6,1,0.5c0,0.2,0,0.2,0.1,0c0.1,0,0.2-0.1,0.2-0.1c0,0,0,0,0,0c0.1,0,0.2-0.1,0.3-0.1c0.2,0.5,0.2,0.2,0.2-0.1
			c0.1,0,0.2-0.1,0.3-0.2c0,0,0,0.1,0.1,0.1l0-0.1c0.9-0.4,1.7-0.8,2.1,0l-1.7-7.8c0.2-0.6,0.4-1.2,0.7-1.7
			c-0.2,3.1,0.4,6.2,1.3,9.7l-1.1-10.2c0.3-0.6,0.6-1.2,0.9-1.8c0.9-0.2,1.9-0.4,2.9-0.6c-0.8,3.2-1.5,6.7-2,9.8l3.5-14.8
			C399.1,623,401.9,621.6,405,621.2z M377.9,642.2C377.9,642.2,377.9,642.2,377.9,642.2c0.1,0,0.2,0,0.2,0.2
			C378,642.4,378,642.3,377.9,642.2z M386.7,631.2c-0.6,0.2-1.1,0.5-1.6,0.8l-0.9-5.7c0.9-1,1.9-1.8,3-2.5
			C386.8,626,386.7,628.6,386.7,631.2z M395.2,630c-0.5-0.1-1-0.1-1.5-0.1c-0.3,0-0.7,0-1,0c1.1-1.8,2.4-3.5,4-4.8
			C396.1,626.5,395.6,628.2,395.2,630z"/>
		<path fill="#4AB749" d="M504.2,626.8c1.7-1.5,3.6-2.6,5.7-2.9c-0.5-0.1-1-0.1-1.5-0.1c-1.2,0-2.4,0.3-3.5,0.7
			c0-0.1,0.1-0.2,0.1-0.3l1.3-0.5c1.3-2.4,3.9-5.4,6-6.5c-0.5,0.1-1,0.2-1.5,0.3c-0.9,0.3-2.1,1-3.2,2c0.1-0.1,0.2-0.3,0.3-0.4
			c-0.5,0.3-1,0.7-1.5,1.1c-1.8,1.5-3.2,3.5-4.2,5.8c-2.4,1.8-4.4,4.6-5.7,7.7l-0.5-4.7c-0.2,2-0.2,4,0,6c-0.8,2.4-1.3,4.9-1.3,7.4
			h3.1c0-3.9,1.1-7.9,3-11.2c-0.5,3.6-0.2,7.6,1,11.1h1.2c0,0,0,0.1,0,0.1c0.2,0.8,0.7,0.3,1.1-0.1h0.5c0-0.1,0-0.2-0.1-0.2
			c0.2,0,0.3,0,0.4,0.4l-1.5-9.2C503.4,631.1,503.7,628.8,504.2,626.8z"/>
		<path fill="#4AB749" d="M494.4,618.4c-0.6,0-1.2,0-1.8,0c-4.5,0.5-8.3,3.1-10.9,7.3c-7.8,3.4-10.9,6.9-6.8,16.7
			c0.5,1.3,0.2-1.1,0.9,0h2.5c-3.2-7.8-1.9-11.9,2.7-15.4c-2.2,4.1-3.3,9.5-2.7,15.4h0c0,0,0,0,0,0c0.1,0.8,0.5,0.4,0.9,0h1h0h1.8
			C480.7,630.3,486.2,620.6,494.4,618.4z M479.7,642c0.1,0,0.3,0.1,0.4,0.4C479.9,642.2,479.8,642.1,479.7,642z"/>
		<path fill="#4AB749" d="M481.9,642.4L481.9,642.4C481.9,643.3,481.9,642.8,481.9,642.4z"/>
		<path fill="#4AB749" d="M481.9,642.4h0.2C481.9,641.7,481.9,642,481.9,642.4z"/>
		<path fill="#4AB749" d="M473.9,612.1c-0.6,0.1-1.2,0.2-1.8,0.4c-3,0.9-7.7,5.9-9.5,8.9l4.1-1.4
			C468.2,617.1,471.4,613.4,473.9,612.1z"/>
		<path fill="#4AB749" d="M470.5,642.4l0-0.1C470.5,641.8,470.5,641.5,470.5,642.4z"/>
		<path fill="#4AB749" d="M470.8,642.4c0.1-0.7,0.2-1.6,0.3-2.4l-0.5,2.3C470.6,642.8,470.7,643.6,470.8,642.4z"/>
		<path fill="#4AB749" d="M456.5,642.4h0.3C456.6,641.8,456.6,642.1,456.5,642.4z"/>
		<path fill="#4AB749" d="M456.5,642.4L456.5,642.4C456.4,643.1,456.4,642.8,456.5,642.4z"/>
		<path fill="#4AB749" d="M471.1,620c-0.6-0.1-1.2-0.1-1.8-0.1c-5.5,0-10.5,4.2-13.5,10c-0.7,0-1.3,0-2,0.1l0.2-0.1
			c1.2-4,4.1-8.4,7-9.9c-0.5,0.1-1,0.2-1.5,0.3c-2.7,0.8-5.4,3.8-7.2,7.1c2.2-5.3,5.1-9.8,8.5-10.7c-0.6,0-1.2,0-1.8,0
			c-3.7,0.4-6.9,7.2-9.4,14.1c-4.5,1.6-7.6,5.2-7.6,11.6c0,1.1,0.1-1.1,0.3,0h2.8c0-4.3,1.4-7.3,3.7-9.2c-1.2,3.5-2.2,6.8-2.9,9.1
			h2.5c0.4-3,1.1-6.8,2.3-10.4c1.4-0.8,3-1.3,4.8-1.7c-0.7,1.3-1.2,2.8-1.7,4.2l-0.3-3c-0.2,1.5-0.2,2.9,0,4.4
			c-0.5,2.1-0.8,4.3-0.8,6.5h2.1c0,0,0,0.1,0,0.1l0-0.1h1.6c0-2.4,0.4-4.8,1-7.2c-0.1,2.4,0.2,5,1,7.3h2.4
			c-1.5-4.6-1.2-11.3,0.7-15.9c0.2-0.3,0.5-0.6,0.7-1c-0.7,4.7-0.8,11.5,0.5,16.7c0.5,1.7,1.7-1.6,2.4,0l-2.8-16.9
			C464.7,622.5,467.8,620.5,471.1,620z"/>
		<path fill="#4AB749" d="M485.9,642.4h0.3C486,641.8,486,642.1,485.9,642.4z"/>
		<path fill="#4AB749" d="M485.9,642.4L485.9,642.4C485.8,643.1,485.8,642.8,485.9,642.4z"/>
		<path fill="#4AB749" d="M482.2,622.5c-0.6-0.1-1.2-0.3-1.8-0.1c-2,0.5-3.8,1.1-5.5,1.8l0.7-0.5c3.1-4.7,2.1-9,11.7-14.4
			c-5.7,1.9-4.7,1.4-7.6,3.9c-4.5,4-8.5,8.8-12.2,16l0.1,0c-0.1,0.1-0.1,0.2-0.2,0.2l-1.5-7c-1.2,5.1-1.2,13.9,0.4,20.1
			c0.1,0.5,0.5,0.6,0.9,0.5c0,0.2,0,0.2,0.1,0c0.1,0,0.1,0,0.2-0.1c0,0,0,0,0,0c1-0.4,2.3-1.4,2.7-0.4l-1.6-7.3
			c1.2-3.6,3.2-6.6,5.7-8.9c-1.2,3.5-2.5,9.3-3.2,13.8l3.3-13.9C476.6,624.2,479.3,622.9,482.2,622.5z"/>
		<path fill="#4AB749" d="M441.9,642.5C442,643.2,442,642.9,441.9,642.5L441.9,642.5C441.9,642.5,441.9,642.5,441.9,642.5z"/>
		<path fill="#4AB749" d="M452.3,622.6c-0.5,0-1,0-1.5,0c-3.7,0.4-6.9,2.6-9.1,6c-6.5,2.8-9,5.8-5.7,13.9c0.4,1.1,0.2-0.9,0.7,0h2.1
			c-2.7-6.5-1.6-9.9,2.3-12.8c-1.8,3.4-2.7,7.9-2.3,12.8c0,0,0,0,0,0h0c0,0,0,0,0,0c0.1,0.7,0.4,0.3,0.7,0h0.8c0,0,0,0,0,0l1.5,0
			C441,632.5,445.6,624.4,452.3,622.6z M440.1,642.2c0.1,0,0.2,0.1,0.3,0.3C440.3,642.3,440.2,642.2,440.1,642.2z"/>
		<path fill="#4AB749" d="M442,642.5l0.2,0C442,641.9,442,642.2,442,642.5z"/>
		<path fill="#4AB749" d="M451.9,642.5c0.4,1.5,0.1-1.3,0.6,0l-2.1-8.7C450.2,637,450.9,639,451.9,642.5z"/>
		<path fill="#4AB749" d="M432.5,642.5l0-0.1C432.5,642,432.5,641.8,432.5,642.5z"/>
		<path fill="#4AB749" d="M432.7,642.5c0.1-0.6,0.2-1.3,0.3-2l-0.4,1.9C432.6,642.9,432.6,643.5,432.7,642.5z"/>
		<path fill="#4AB749" d="M420.8,642.5h0.2C421,642,420.9,642.2,420.8,642.5z"/>
		<path fill="#4AB749" d="M420.8,642.5L420.8,642.5C420.8,643.1,420.8,642.8,420.8,642.5z"/>
		<path fill="#4AB749" d="M445.3,642.5L445.3,642.5C445.2,643.1,445.2,642.8,445.3,642.5z"/>
		<path fill="#4AB749" d="M445.3,642.5h0.2C445.4,642,445.3,642.2,445.3,642.5z"/>
		<path fill="#4AB749" d="M442.2,625.9c-0.5-0.1-1-0.2-1.5-0.1c-1.7,0.4-3.2,0.9-4.6,1.5l0.7-0.4c2.5-3.9,5.8-8.8,13.8-13.3
			c-4.7,1.6-8,2.5-10.4,4.6c-3.8,3.3-7,7.3-10.1,13.3l0.1,0c-0.1,0.1-0.1,0.2-0.2,0.2l-1.3-5.9c-1,4.2-1,11.6,0.3,16.7
			c0.1,0.4,0.4,0.5,0.8,0.4c0,0.2,0,0.1,0.1,0c0.1,0,0.1,0,0.2-0.1c0,0,0,0,0,0c0.8-0.3,1.9-1.1,2.2-0.3l-1.3-6.1
			c1-3,2.6-5.5,4.8-7.4c-1,2.9-2.1,7.7-2.7,11.5l2.7-11.5C437.6,627.3,439.8,626.3,442.2,625.9z"/>
		<path fill="#4AB749" d="M540.4,623.3c-0.4,0.3-0.9,0.6-1.3,0.9c-4.7,3.8-6,11.8-3.8,18.4h2.4C535.7,636.6,536.7,627.2,540.4,623.3
			z"/>
		<path fill="#4AB749" d="M518.9,642.5l0.2,0C518.9,641.9,518.9,642.2,518.9,642.5z"/>
		<path fill="#4AB749" d="M529.2,622.6c-0.5,0-1,0-1.5,0c-3.7,0.4-6.9,2.6-9.1,6c-6.5,2.8-9,5.8-5.7,13.9c0.4,1.1,0.2-0.9,0.7,0h2.1
			c-2.7-6.5-1.6-9.9,2.3-12.8c-1.8,3.4-2.7,7.9-2.3,12.8c0,0,0,0,0,0h0c0,0,0,0,0,0c0.1,0.7,0.4,0.3,0.7,0h0.8c0,0,0,0,0,0l1.5,0
			C517.9,632.5,522.5,624.4,529.2,622.6z M517,642.2c0.1,0,0.2,0.1,0.3,0.3C517.2,642.3,517.1,642.2,517,642.2z"/>
		<path fill="#4AB749" d="M518.8,642.5C518.9,643.2,518.9,642.9,518.8,642.5L518.8,642.5C518.8,642.5,518.8,642.5,518.8,642.5z"/>
		<path fill="#4AB749" d="M495,628.7c1.7-0.6,3.6-1,5.6-1.3c-0.6-0.1-1.2-0.1-1.8-0.1c-0.9,0-1.7,0-2.5,0.1l0.3-0.1
			c0.3-1.1,0.8-2.3,1.3-3.4c1.1-1.4,2.3-2.4,3.6-2.7c-0.5,0-1,0-1.5,0c-0.3,0-0.5,0.1-0.8,0.2c1.6-2.7,3.7-4.9,5.8-6
			c-0.6,0.1-1.2,0.2-1.8,0.4c-4.2,1.3-8.4,6.9-10.3,12.2c-6.3,1.6-10.7,6-10.7,14.5c0,1.4,0.1-1.3,0.3,0h3.3c0-7.1,3.1-11,7.8-13.2
			c-0.5,1.1-0.9,2.3-1.4,3.5L492,632c0,0.5,0,0.9,0,1.4c-1.2,3.5-2.2,7-2.9,9.2h2.1c0.2-1.8,0.6-3.9,1.2-6.1c0.3,1.8,0.9,3.6,1.5,6
			c0.5,1.7,0.1-1.6,0.7,0l-1.8-7.5C493.3,632.7,494.1,630.6,495,628.7z"/>
		<path fill="#4AB749" d="M528.7,642.5c0.4,1.5,0.1-1.3,0.6,0l-2.1-8.7C527.1,637,527.8,639,528.7,642.5z"/>
		<path fill="#4AB749" d="M531.7,642.5l-1.2-11C530.1,635.1,530.6,638.5,531.7,642.5z"/>
		<path fill="#4AB749" d="M509.4,642.5l0-0.1C509.4,642,509.4,641.8,509.4,642.5z"/>
		<path fill="#4AB749" d="M509.6,642.5c0.1-0.6,0.2-1.3,0.3-2l-0.4,1.9C509.5,642.9,509.5,643.5,509.6,642.5z"/>
		<path fill="#4AB749" d="M497.7,642.5h0.2C497.9,642,497.8,642.2,497.7,642.5z"/>
		<path fill="#4AB749" d="M497.7,642.5L497.7,642.5C497.7,643.1,497.7,642.8,497.7,642.5z"/>
		<path fill="#4AB749" d="M522.2,642.5h0.2C522.3,642,522.2,642.2,522.2,642.5z"/>
		<path fill="#4AB749" d="M534.4,630c-0.5-0.1-1-0.1-1.5-0.1c-0.7,0-1.4,0-2.1,0.1l0.2-0.1c1.2-4,4.1-8.4,7-9.9
			c-0.5,0.1-1,0.2-1.5,0.3c-3.5,1-7,5.8-8.6,10.1c-5.2,1.3-8.9,5-8.9,12c0,1.1,0.1-1.1,0.3,0h2.8C522.1,634,527.5,630.9,534.4,630z"
			/>
		<path fill="#4AB749" d="M522.2,642.5L522.2,642.5C522.1,643.1,522.1,642.8,522.2,642.5z"/>
		<path fill="#4AB749" d="M519.1,625.9c-0.5-0.1-1-0.2-1.5-0.1c-1.7,0.4-3.2,0.9-4.6,1.5l0.7-0.4c2.5-3.9,5.8-8.8,13.8-13.3
			c-4.7,1.6-8,2.5-10.4,4.6c-3.8,3.3-7,7.3-10.1,13.3l0.1,0c-0.1,0.1-0.1,0.2-0.2,0.2l-1.3-5.9c-1,4.2-1,11.6,0.3,16.7
			c0.1,0.4,0.4,0.5,0.8,0.4c0,0.2,0,0.1,0.1,0c0.1,0,0.1,0,0.2-0.1c0,0,0,0,0,0c0.8-0.3,1.9-1.2,2.3-0.3l-1.3-6.1
			c1-3,2.6-5.5,4.8-7.4c-1,2.9-2.1,7.7-2.7,11.5l2.7-11.6C514.5,627.3,516.7,626.3,519.1,625.9z"/>
		<path fill="#4AB749" d="M184.3,625.9c1.4-1.1,3-1.8,4.7-2c-0.5-0.1-1-0.1-1.5-0.1c-0.9,0-1.8,0.1-2.7,0.4c0-0.1,0.1-0.2,0.1-0.2
			l0.4-0.2c1.3-2.4,3.9-5.4,6-6.5c-0.5,0.1-1,0.2-1.5,0.3c-0.8,0.2-1.8,0.8-2.7,1.6c0.4-0.5,0.7-1.1,1.2-1.5
			c-0.6,0.3-1.1,0.7-1.6,1.1c-1.6,1.3-2.9,3-3.9,5c-0.3,0.4-0.5,0.8-0.7,1.1l0.3-0.1c-0.1,0.2-0.2,0.4-0.3,0.7
			c-2.4,1.6-4.4,4.1-5.9,7.1l-0.5-4.3c-0.2,1.9-0.2,3.7-0.1,5.5c-0.9,2.2-1.5,4.7-1.7,7.1l-1.7-7c0.7-2.2,1.5-4.3,2.4-6.2
			c1.8-0.7,3.9-1.1,6-1.4c-0.6-0.1-1.3-0.1-2-0.1c-0.9,0-1.8,0.1-2.7,0.1l0.3-0.1c0.3-0.9,0.6-1.9,1-2.8c1-1.2,2.1-2,3.3-2.3
			c-0.5,0-1,0-1.5,0c-0.3,0-0.5,0.1-0.8,0.2c1.8-3.4,4.4-6.5,6.9-7.7c-0.6,0.1-1.3,0.2-1.9,0.4c-4.5,1.3-9,7.4-10.9,12.9
			c-6.7,1.7-11.4,6.4-11.4,15.4c0,1.5,0.1-1.4,0.4,0h3.5c0-7.5,3.3-11.7,8.2-14c-0.5,1.1-1,2.3-1.4,3.5l-0.2-0.6c0,0.4,0,0.8,0,1.1
			c-1.4,3.8-2.5,7.7-3.3,10.1h2.1c0.2-2.1,0.7-4.5,1.4-7c0.3,2.1,1,4.1,1.7,6.9c0.3,1.3,0.2-0.1,0.4-0.4c0,0.2,0,0.4,0,0.5h3.1
			c0-0.4,0-0.8,0-1.2c0.1,0.4,0.2,0.7,0.3,1.1l-0.2-1.9c0.4-3.9,1.8-7.7,3.9-10.8c-0.7,4.1-0.4,8.6,0.9,12.7h0.3c0,0,0,0.1,0,0.1
			c0.2,0.9,0.7,0.2,1.2-0.1h0.8c0,0,0.1,0.1,0.1,0.1l0-0.1h0.8C183.2,637.7,183.1,631.3,184.3,625.9z"/>
		<path fill="#4AB749" d="M160.6,642.4L160.6,642.4C160.7,643.3,160.6,642.8,160.6,642.4z"/>
		<path fill="#4AB749" d="M173.9,616.9c-0.6,0-1.3,0-2,0c-4.8,0.5-8.8,3.3-11.6,7.7c-8.3,3.6-11.5,7.4-7.3,17.7c0.6,1.4,0.2-1.2,1,0
			l2.7,0c0,0,0,0,0,0c-3.4-8.3-2-12.7,2.9-16.4c-2.3,4.4-3.5,10.1-2.9,16.4c0,0,0,0,0,0h0c0,0,0,0,0,0c0.1,0.9,0.5,0.4,0.9,0l1,0
			h1.9C159.4,629.5,165.3,619.2,173.9,616.9z M158.3,641.9c0.2,0,0.3,0.1,0.4,0.4C158.5,642.1,158.4,642,158.3,641.9z"/>
		<path fill="#4AB749" d="M160.6,642.4h0.2C160.7,641.6,160.6,642,160.6,642.4z"/>
		<path fill="#4AB749" d="M138.4,615c-0.6,0-1.3,0-2,0c-6.4,0.7-11.5,19.7-13.9,27.3h2.7C126.3,632.8,131.4,616.9,138.4,615z"/>
		<path fill="#4AB749" d="M152.1,610.2c-0.6,0.1-1.3,0.2-1.9,0.4c-3.2,1-8.1,6.2-10.1,9.4l4.4-1.5
			C146.1,615.4,149.4,611.5,152.1,610.2z"/>
		<path fill="#4AB749" d="M148.6,642.2c0,0.6,0.1,1.4,0.2,0.1c0.1-0.8,0.2-1.7,0.3-2.6L148.6,642.2z"/>
		<path fill="#4AB749" d="M148.5,642.4l0-0.1C148.5,641.8,148.5,641.4,148.5,642.4z"/>
		<path fill="#4AB749" d="M133.6,642.4h0.3C133.8,641.7,133.7,642,133.6,642.4z"/>
		<path fill="#4AB749" d="M149.2,618.6c-0.6-0.1-1.3-0.1-2-0.1c-9.7,0-17.6,12.3-17.6,24h3.9c0-6.4,2.4-13.1,6.1-17.8
			c-0.5,2.6-0.7,6.3-0.5,10.3c0.1,2.6,0.5,5.2,1.1,7.5c0.5,1.9,1.9-1.7,2.5,0l-3-18C142.4,621.2,145.6,619,149.2,618.6z"/>
		<path fill="#4AB749" d="M133.6,642.4h-0.1C133.5,643.1,133.5,642.7,133.6,642.4z"/>
		<path fill="#4AB749" d="M164.9,642.4h-0.1C164.8,643.1,164.8,642.7,164.9,642.4z"/>
		<path fill="#4AB749" d="M164.9,642.4h0.3C165,641.7,165,642,164.9,642.4z"/>
		<path fill="#4AB749" d="M160.9,621.2c-0.6-0.1-1.3-0.3-2-0.1c-2.2,0.5-4.1,1.1-5.8,1.9l0.8-0.5c3.3-5,7.4-11.3,17.7-17.1
			c-6,2.1-10.3,3.2-13.3,5.9c-4.8,4.2-9,9.4-13,17.1l0.1,0c-0.1,0.1-0.1,0.2-0.2,0.3l-1.6-7.5c-1.3,5.4-1.3,14.8,0.4,21.4
			c0.1,0.6,0.5,0.6,1,0.5c0,0.2,0,0.2,0.1,0c0.1,0,0.2-0.1,0.2-0.1c0,0,0,0,0,0c1.1-0.4,2.4-1.5,2.9-0.4l-1.7-7.8
			c1.2-3.8,3.4-7.1,6.1-9.4c-1.3,3.7-2.7,9.9-3.4,14.7l3.5-14.8C155,623,157.9,621.6,160.9,621.2z"/>
		<path fill="#4AB749" d="M237.8,642.4L237.8,642.4C237.9,643.3,237.9,642.8,237.8,642.4z"/>
		<path fill="#4AB749" d="M229.8,612.1c-0.6,0.1-1.2,0.2-1.8,0.4c-3,0.9-7.6,5.9-9.5,8.9l4.1-1.4
			C224.1,617.1,227.3,613.4,229.8,612.1z"/>
		<path fill="#4AB749" d="M226.7,642.4c0.1-0.7,0.2-1.6,0.3-2.4l-0.5,2.3C226.5,642.8,226.6,643.6,226.7,642.4z"/>
		<path fill="#4AB749" d="M226.5,642.4l0-0.1C226.5,641.8,226.5,641.5,226.5,642.4z"/>
		<path fill="#4AB749" d="M227.1,620c-0.6-0.1-1.2-0.1-1.8-0.1c-5.5,0-10.5,4.2-13.5,10c-0.7,0-1.3,0-2,0.1l0.2-0.1
			c1.2-4,4.1-8.4,7-9.9c-0.5,0.1-1,0.2-1.5,0.3c-2.7,0.8-5.4,3.8-7.2,7.1c2.2-5.3,5.1-9.8,8.5-10.7c-0.6,0-1.2,0-1.8,0
			c-3.7,0.4-6.9,7.2-9.4,14.1c-4.5,1.6-7.6,5.2-7.6,11.6c0,1.1,0.1-1.1,0.3,0h2.8c0-4.3,1.4-7.3,3.7-9.2c-1.2,3.5-2.2,6.8-2.9,9.1
			h2.5c0.4-3,1.1-6.8,2.3-10.4c1.4-0.8,3-1.3,4.8-1.7c-0.7,1.3-1.2,2.8-1.7,4.2l-0.3-3c-0.2,1.5-0.2,2.9,0,4.4
			c-0.5,2.1-0.8,4.3-0.8,6.5h2.1c0,0,0,0.1,0,0.1l0-0.1h1.6c0-2.4,0.4-4.8,1-7.2c-0.1,2.4,0.2,5,1,7.3h2.4
			c-1.5-4.6-1.2-11.3,0.7-15.9c0.2-0.3,0.5-0.6,0.7-1c-0.7,4.7-0.8,11.5,0.5,16.7c0.5,1.7,1.7-1.6,2.4,0l-2.8-16.9
			C220.7,622.5,223.7,620.5,227.1,620z"/>
		<path fill="#4AB749" d="M212.4,642.4L212.4,642.4C212.3,643.1,212.4,642.8,212.4,642.4z"/>
		<path fill="#4AB749" d="M212.4,642.4h0.3C212.6,641.8,212.5,642.1,212.4,642.4z"/>
		<path fill="#4AB749" d="M241.8,642.4L241.8,642.4C241.7,643.1,241.8,642.8,241.8,642.4z"/>
		<path fill="#4AB749" d="M241.8,642.4h0.3C242,641.8,241.9,642.1,241.8,642.4z"/>
		<path fill="#4AB749" d="M208.3,622.6c-0.5,0-1,0-1.5,0c-3.7,0.4-6.9,2.6-9.1,6c-6.5,2.8-9,5.8-5.7,13.9c0.4,1.1,0.2-0.9,0.7,0h2.1
			c-2.7-6.5-1.6-9.9,2.3-12.8c-1.8,3.4-2.7,7.9-2.3,12.8c0,0,0,0,0,0h0c0,0,0,0,0,0c0.1,0.7,0.4,0.3,0.7,0h0.8c0,0,0,0,0,0l1.5,0
			C197,632.5,201.5,624.4,208.3,622.6z M196.1,642.2c0.1,0,0.2,0.1,0.3,0.3C196.3,642.3,196.2,642.2,196.1,642.2z"/>
		<path fill="#4AB749" d="M197.9,642.5C198,643.2,197.9,642.9,197.9,642.5L197.9,642.5C197.9,642.5,197.9,642.5,197.9,642.5z"/>
		<path fill="#4AB749" d="M197.9,642.5l0.2,0C197.9,641.9,197.9,642.2,197.9,642.5z"/>
		<path fill="#4AB749" d="M207.8,642.5c0.4,1.5,0.1-1.3,0.6,0l-2.1-8.7C206.1,637,206.9,639,207.8,642.5z"/>
		<path fill="#4AB749" d="M188.5,642.5l0-0.1C188.5,642,188.5,641.8,188.5,642.5z"/>
		<path fill="#4AB749" d="M188.5,642.4c0,0.5,0.1,1.1,0.2,0.1c0.1-0.6,0.2-1.3,0.3-2L188.5,642.4z"/>
		<path fill="#4AB749" d="M176.8,642.5h0.2C176.9,642,176.8,642.2,176.8,642.5z"/>
		<path fill="#4AB749" d="M176.8,642.5L176.8,642.5C176.7,643.1,176.7,642.8,176.8,642.5z"/>
		<path fill="#4AB749" d="M201.2,642.5L201.2,642.5C201.2,643.1,201.2,642.8,201.2,642.5z"/>
		<path fill="#4AB749" d="M201.2,642.5h0.2C201.4,642,201.3,642.2,201.2,642.5z"/>
		<path fill="#4AB749" d="M198.1,625.9c-0.5-0.1-1-0.2-1.5-0.1c-1.7,0.4-3.2,0.9-4.6,1.5l0.7-0.4c2.5-3.9,5.8-8.8,13.8-13.3
			c-4.7,1.6-8,2.5-10.4,4.6c-3.8,3.3-7,7.3-10.1,13.3l0.1,0c-0.1,0.1-0.1,0.2-0.2,0.2l-1.3-5.9c-1,4.2-1,11.6,0.3,16.7
			c0.1,0.4,0.4,0.5,0.8,0.4c0,0.2,0,0.1,0.1,0c0.1,0,0.1,0,0.2-0.1c0,0,0,0,0,0c0.8-0.3,1.9-1.1,2.2-0.3l-1.3-6.1
			c1-3,2.6-5.5,4.8-7.4c-1,2.9-2.1,7.7-2.7,11.5l2.7-11.5C193.5,627.3,195.7,626.3,198.1,625.9z"/>
		<path fill="#4AB749" d="M253.7,642.5h0.2C253.8,642,253.7,642.2,253.7,642.5z"/>
		<path fill="#4AB749" d="M278.1,642.5L278.1,642.5C278,643.1,278.1,642.8,278.1,642.5z"/>
	<path fill="#EA118D" d="M200.9,614.4c2.7-0.4,4.7-1.9,4.5-3.5c-0.2-1.6-2.6-2.5-5.4-2.2c-0.6,0.1-1.3,0.2-1.8,0.5
		c0.6-0.6,1.2-1.4,1.6-2.3c1.1-2.5,0.9-5.1-0.5-5.8c-1.4-0.7-3.5,0.9-4.7,3.4c-0.5,1-0.7,2-0.7,2.9c-0.2-0.6-0.5-1.1-0.9-1.7
		c-1.5-2.3-3.9-3.5-5.2-2.6c-1.3,0.8-1.1,3.2,0.2,5.4c-2.6,0.5-4.4,1.9-4.2,3.4c0.2,1.6,2.6,2.5,5.4,2.2c0.7-0.1,1.3-0.2,1.8-0.5
		c-0.7,0.6-1.3,1.5-1.7,2.5c-1.1,2.5-0.9,5.1,0.5,5.8c1.4,0.7,3.5-0.9,4.7-3.4c0.4-0.9,0.7-1.9,0.7-2.7c0.2,0.5,0.5,1.1,0.9,1.7
		c1.5,2.3,3.9,3.5,5.2,2.6C202.5,619.2,202.4,616.7,200.9,614.4z M192.8,612.7c0.5-0.5,0.9-1,1-1.5c0.4-0.4,0.5-1,0.5-1.7
		c0.2,0.4,0.5,0.6,0.8,0.8c0.4,0.2,0.7,0.2,1.2,0.1c-0.5,0.5-0.8,1-0.8,1.6c-0.4,0.4-0.6,1-0.6,1.7c-0.2-0.4-0.5-0.6-0.8-0.8
		C193.6,612.7,193.2,612.6,192.8,612.7z"/>
	<path fill="#F9A11E" d="M276.3,626.8c1.6,1.2,3.5,1.4,4.1,0.4c0.7-0.9-0.1-2.7-1.7-3.9c-0.4-0.3-0.8-0.5-1.2-0.7
		c0.6,0,1.3-0.1,2-0.4c1.9-0.8,3.1-2.2,2.6-3.3s-2.3-1.3-4.2-0.6c-0.8,0.3-1.4,0.7-1.9,1.2c0.2-0.4,0.3-0.8,0.4-1.3
		c0.4-2-0.3-3.8-1.4-4c-1.1-0.2-2.2,1.1-2.6,3c-1.6-1-3.3-1.2-4-0.3c-0.7,0.9,0.1,2.7,1.7,3.9c0.4,0.3,0.8,0.5,1.2,0.7
		c-0.7,0-1.4,0.1-2.2,0.4c-1.9,0.8-3.1,2.2-2.6,3.3c0.4,1.1,2.3,1.3,4.2,0.6c0.7-0.3,1.3-0.7,1.8-1.1c-0.2,0.4-0.3,0.8-0.4,1.3
		c-0.4,2,0.3,3.8,1.4,4C274.7,630.1,275.9,628.7,276.3,626.8z M272.9,621.8c0.5,0,1-0.1,1.3-0.3c0.4,0,0.8-0.3,1.1-0.7
		c-0.1,0.3-0.1,0.6,0,0.9c0.1,0.3,0.3,0.5,0.6,0.6c-0.5,0-0.9,0.1-1.2,0.4c-0.4,0-0.8,0.2-1.2,0.6c0.1-0.3,0.1-0.6,0-0.8
		C273.3,622.2,273.1,621.9,272.9,621.8z"/>
	<path fill="#F9A11E" d="M164.8,622.2c1.6,1.2,3.5,1.4,4.1,0.4c0.7-0.9-0.1-2.7-1.7-3.9c-0.4-0.3-0.8-0.5-1.2-0.7
		c0.6,0,1.3-0.1,2-0.4c1.9-0.8,3.1-2.2,2.6-3.3s-2.3-1.3-4.2-0.6c-0.8,0.3-1.4,0.7-1.9,1.2c0.2-0.4,0.3-0.8,0.4-1.3
		c0.4-2-0.3-3.8-1.4-4c-1.1-0.2-2.2,1.1-2.6,3c-1.6-1-3.3-1.2-4-0.3c-0.7,0.9,0.1,2.7,1.7,3.9c0.4,0.3,0.8,0.5,1.2,0.7
		c-0.7,0-1.4,0.1-2.2,0.4c-1.9,0.8-3.1,2.2-2.6,3.3c0.4,1.1,2.3,1.3,4.2,0.6c0.7-0.3,1.3-0.7,1.8-1.1c-0.2,0.4-0.3,0.8-0.4,1.3
		c-0.4,2,0.3,3.8,1.4,4C163.2,625.5,164.4,624.1,164.8,622.2z M161.4,617.2c0.5,0,1-0.1,1.3-0.3c0.4,0,0.8-0.3,1.1-0.7
		c-0.1,0.3-0.1,0.6,0,0.9c0.1,0.3,0.3,0.5,0.6,0.6c-0.5,0-0.9,0.1-1.2,0.4c-0.4,0-0.8,0.2-1.2,0.6c0.1-0.3,0.1-0.6,0-0.8
		C161.9,617.6,161.7,617.3,161.4,617.2z"/>
	<path fill="#FFFFFF" d="M240.3,644.2c1.3,0.9,2.7,1.1,3.2,0.3c0.5-0.7-0.1-2.1-1.3-3c-0.3-0.2-0.6-0.4-0.9-0.5c0.5,0,1-0.1,1.6-0.3
		c1.5-0.6,2.4-1.7,2-2.6c-0.3-0.8-1.8-1-3.3-0.5c-0.6,0.2-1.1,0.6-1.4,0.9c0.1-0.3,0.2-0.7,0.3-1c0.3-1.6-0.2-2.9-1.1-3.1
		c-0.8-0.2-1.7,0.9-2.1,2.3c-1.2-0.8-2.6-0.9-3.1-0.2c-0.5,0.7,0.1,2.1,1.3,3c0.3,0.2,0.6,0.4,0.9,0.5c-0.5,0-1.1,0.1-1.7,0.3
		c-1.5,0.6-2.4,1.7-2,2.6c0.3,0.8,1.8,1,3.3,0.5c0.5-0.2,1-0.5,1.4-0.8c-0.1,0.3-0.2,0.6-0.3,1c-0.3,1.6,0.2,2.9,1.1,3.1
		C239,646.8,240,645.7,240.3,644.2z M237.6,640.3c0.4,0,0.7-0.1,1-0.2c0.3,0,0.6-0.2,0.9-0.5c-0.1,0.2-0.1,0.5,0,0.7
		c0.1,0.2,0.2,0.4,0.4,0.5c-0.4,0-0.7,0.1-1,0.3c-0.3,0-0.6,0.2-0.9,0.4c0.1-0.2,0.1-0.5,0-0.7C238,640.6,237.8,640.5,237.6,640.3z"
		/>
	<path fill="#FFFFFF" d="M135,641.4c1.3,0.9,2.7,1.1,3.2,0.3c0.5-0.7-0.1-2.1-1.3-3c-0.3-0.2-0.6-0.4-0.9-0.5c0.5,0,1-0.1,1.6-0.3
		c1.5-0.6,2.4-1.7,2-2.6c-0.3-0.8-1.8-1-3.3-0.5c-0.6,0.2-1.1,0.6-1.4,0.9c0.1-0.3,0.2-0.7,0.3-1c0.3-1.6-0.2-2.9-1.1-3.1
		c-0.8-0.2-1.7,0.9-2.1,2.3c-1.2-0.8-2.6-0.9-3.1-0.2c-0.5,0.7,0.1,2.1,1.3,3c0.3,0.2,0.6,0.4,0.9,0.5c-0.5,0-1.1,0.1-1.7,0.3
		c-1.5,0.6-2.4,1.7-2,2.6c0.3,0.8,1.8,1,3.3,0.5c0.5-0.2,1-0.5,1.4-0.8c-0.1,0.3-0.2,0.6-0.3,1c-0.3,1.6,0.2,2.9,1.1,3.1
		C133.8,644,134.8,642.9,135,641.4z M132.4,637.5c0.4,0,0.7-0.1,1-0.2c0.3,0,0.6-0.2,0.9-0.5c-0.1,0.2-0.1,0.5,0,0.7
		c0.1,0.2,0.2,0.4,0.4,0.5c-0.4,0-0.7,0.1-1,0.3c-0.3,0-0.6,0.2-0.9,0.4c0.1-0.2,0.1-0.5,0-0.7C132.8,637.8,132.6,637.6,132.4,637.5
		z"/>
	<path fill="#FFFFFF" d="M464.6,622.4c1.5,1,3.1,1.2,3.7,0.4c0.6-0.8-0.1-2.4-1.6-3.5c-0.3-0.3-0.7-0.5-1.1-0.6
		c0.6,0,1.2-0.1,1.8-0.4c1.7-0.7,2.8-2,2.4-3s-2.1-1.2-3.8-0.5c-0.7,0.3-1.2,0.6-1.7,1.1c0.2-0.4,0.3-0.8,0.4-1.2
		c0.3-1.8-0.2-3.4-1.3-3.6c-1-0.2-2,1-2.4,2.7c-1.4-0.9-3-1.1-3.6-0.3c-0.6,0.8,0.1,2.4,1.6,3.5c0.4,0.3,0.7,0.5,1.1,0.6
		c-0.6,0-1.3,0.1-1.9,0.4c-1.7,0.7-2.8,2-2.4,3c0.4,1,2.1,1.2,3.8,0.5c0.6-0.3,1.2-0.6,1.6-1c-0.2,0.4-0.3,0.8-0.3,1.2
		c-0.3,1.8,0.2,3.4,1.3,3.6C463.2,625.4,464.3,624.1,464.6,622.4z M461.5,617.9c0.5,0,0.9-0.1,1.2-0.3c0.4,0,0.7-0.3,1-0.6
		c-0.1,0.3-0.1,0.5,0,0.8c0.1,0.2,0.3,0.4,0.5,0.6c-0.5,0-0.8,0.1-1.1,0.4c-0.4,0-0.7,0.2-1.1,0.5c0.1-0.3,0.1-0.5,0-0.8
		C461.9,618.2,461.8,618,461.5,617.9z"/>
	<path fill="#FFFFFF" d="M517.4,640.3c1.1,0.8,2.3,0.9,2.7,0.3c0.4-0.6-0.1-1.7-1.1-2.5c-0.3-0.2-0.5-0.3-0.8-0.4
		c0.4,0,0.9-0.1,1.3-0.3c1.2-0.5,2-1.5,1.7-2.2c-0.3-0.7-1.5-0.9-2.7-0.4c-0.5,0.2-0.9,0.5-1.2,0.8c0.1-0.3,0.2-0.6,0.3-0.9
		c0.2-1.3-0.2-2.5-0.9-2.6c-0.7-0.1-1.5,0.7-1.7,1.9c-1-0.7-2.2-0.8-2.6-0.2c-0.4,0.6,0.1,1.7,1.1,2.5c0.3,0.2,0.5,0.3,0.8,0.4
		c-0.4,0-0.9,0.1-1.4,0.3c-1.2,0.5-2,1.5-1.7,2.2c0.3,0.7,1.5,0.9,2.7,0.4c0.5-0.2,0.8-0.4,1.1-0.7c-0.1,0.3-0.2,0.5-0.3,0.9
		c-0.2,1.3,0.2,2.5,0.9,2.6C516.4,642.5,517.2,641.6,517.4,640.3z M515.2,637c0.3,0,0.6,0,0.8-0.2c0.3,0,0.5-0.2,0.7-0.4
		c-0.1,0.2,0,0.4,0,0.6c0.1,0.2,0.2,0.3,0.4,0.4c-0.3,0-0.6,0.1-0.8,0.3c-0.3,0-0.5,0.1-0.8,0.4c0-0.2,0-0.4,0-0.6
		C515.5,637.3,515.4,637.1,515.2,637z"/>
	<path fill="#EC2227" d="M367.1,628.7c1,1.5,2.5,2.3,3.4,1.8c0.9-0.6,0.8-2.3-0.2-3.9c-0.2-0.4-0.5-0.7-0.8-1
		c0.5,0.2,1.2,0.3,1.9,0.3c1.9,0,3.4-0.9,3.4-1.9c0-1.1-1.5-1.9-3.4-1.9c-0.7,0-1.4,0.1-2,0.4c0.3-0.3,0.5-0.6,0.8-1
		c1-1.6,1.1-3.3,0.2-3.9c-0.9-0.5-2.3,0.2-3.3,1.6c-1-1.4-2.4-2.2-3.3-1.6c-0.9,0.6-0.8,2.3,0.2,3.9c0.2,0.4,0.5,0.7,0.8,1
		c-0.6-0.2-1.2-0.4-2-0.4c-1.9,0-3.4,0.9-3.4,1.9c0,1.1,1.5,1.9,3.4,1.9c0.7,0,1.3-0.1,1.9-0.3c-0.3,0.3-0.5,0.6-0.8,1
		c-1,1.6-1.1,3.3-0.2,3.9C364.6,631.1,366.1,630.3,367.1,628.7z M365.9,623.3c0.4,0.2,0.8,0.3,1.2,0.2c0.4,0.1,0.8,0,1.2-0.2
		c-0.2,0.2-0.3,0.5-0.3,0.7c0,0.3,0.1,0.5,0.3,0.7c-0.4-0.2-0.8-0.2-1.2-0.1c-0.3-0.1-0.8-0.1-1.2,0.1c0.2-0.2,0.3-0.5,0.3-0.7
		C366.1,623.8,366,623.6,365.9,623.3z"/>
	<path fill="#EC2227" d="M535.1,628.2c0.9,1.3,2.2,2,2.9,1.5c0.8-0.5,0.7-2-0.1-3.4c-0.2-0.3-0.4-0.6-0.7-0.8c0.5,0.2,1,0.3,1.6,0.3
		c1.6,0,2.9-0.7,2.9-1.7s-1.3-1.7-2.9-1.7c-0.6,0-1.2,0.1-1.7,0.3c0.2-0.2,0.5-0.5,0.7-0.9c0.9-1.4,0.9-2.9,0.1-3.4
		c-0.7-0.5-2,0.2-2.8,1.4c-0.9-1.2-2.1-1.9-2.8-1.4c-0.8,0.5-0.7,2,0.1,3.4c0.2,0.3,0.4,0.6,0.7,0.9c-0.5-0.2-1.1-0.3-1.7-0.3
		c-1.6,0-2.9,0.7-2.9,1.7s1.3,1.7,2.9,1.7c0.6,0,1.2-0.1,1.6-0.3c-0.2,0.2-0.5,0.5-0.7,0.8c-0.9,1.4-0.9,2.9-0.1,3.4
		C533,630.2,534.3,629.5,535.1,628.2z M534.1,623.5c0.4,0.2,0.7,0.2,1,0.1c0.3,0.1,0.7,0,1-0.1c-0.1,0.2-0.2,0.4-0.2,0.6
		c0,0.2,0.1,0.4,0.2,0.6c-0.4-0.2-0.7-0.2-1-0.1c-0.3-0.1-0.7-0.1-1,0.1c0.1-0.2,0.2-0.4,0.2-0.6
		C534.3,623.9,534.2,623.7,534.1,623.5z"/>
	<polyline fill="#4E4E4E" points="320.9,635.6 321.4,630 325,629.4 325,622 312,622 312,629.8 314.8,630 314.8,635.5 	"/>
	<path fill="none" stroke="#0EBBD6" stroke-width="3" stroke-linecap="round" stroke-miterlimit="10" d="M322.3,621.3
				c0.1-0.5,0.3-1,0.4-1.4"/>			
	<path fill="none" stroke="#0EBBD6" stroke-width="3" stroke-linecap="round" stroke-miterlimit="10" stroke-dasharray="2.9773,4.9621" d="
				M324.1,615.1c20.2-63.5,92.6-99.7,166.4-82.6"/>
	<path fill="none" stroke="#0EBBD6" stroke-width="3" stroke-linecap="round" stroke-miterlimit="10" d="M492.9,533
				c0.5,0.1,1,0.2,1.5,0.4"/>
	<path fill="none" stroke="#0EBBD6" stroke-width="3" stroke-linecap="round" stroke-miterlimit="10" stroke-dasharray="3,5" d="
		M321.3,619.3C321.3,560,348.5,512,382,512"/>
	<path fill="none" stroke="#0EBBD6" stroke-width="3" stroke-linecap="round" stroke-miterlimit="10" stroke-dasharray="3,5" d="
		M314.7,620c0-57.9-27.4-104.7-61.3-104.7"/>
	<path fill="none" stroke="#0EBBD6" stroke-width="3" stroke-linecap="round" stroke-miterlimit="10" stroke-dasharray="3,5" d="
		M318,617.3c0-69.3,11.9-125.3,26.7-125.3"/>
	<path fill="none" stroke="#0EBBD6" stroke-width="3" stroke-linecap="round" stroke-miterlimit="10" stroke-dasharray="3,5" d="
		M326,619.3c0-16.2,48-58.7,88-6.7"/>
	<path fill="none" stroke="#0EBBD6" stroke-width="3" stroke-linecap="round" stroke-miterlimit="10" stroke-dasharray="3,5" d="
		M314,620c0-39.1-98.7-115.3-140.7-22.7"/>
</g>
</svg>
