<?xml version="1.0" encoding="utf-8"?>
<!-- Generator: Adobe Illustrator 17.1.0, SVG Export Plug-In . SVG Version: 6.00 Build 0)  -->
<!DOCTYPE svg PUBLIC "-//W3C//DTD SVG 1.0//EN" "http://www.w3.org/TR/2001/REC-SVG-20010904/DTD/svg10.dtd">
<svg version="1.0" id="Layer_1" xmlns="http://www.w3.org/2000/svg" xmlns:xlink="http://www.w3.org/1999/xlink" x="0px" y="0px"
	 viewBox="0 0 640 330" enable-background="new 0 0 640 330" xml:space="preserve">
<g>
	<path fill="#88C765" d="M617.456,80.206h-218.7v145.032h218.7V80.206z M592.133,171.139v-36.834c0-3.814,3.092-6.906,6.907-6.906
		c3.814,0,6.906,3.092,6.906,6.906v36.834c0,3.814-3.092,6.906-6.906,6.906C595.226,178.046,592.133,174.954,592.133,171.139z"/>
	<path fill="#231F20" d="M226.297,87.961c0-11.566,0-18.747,0-21.539c0-2.792,0.355-2.432,1.478-2.432
		c1.124,0,2.412-0.049,2.412-2.411c0-2.36,0-10.606,0-12.062s-0.677-2.833-2.208-2.833c-1.53,0-16.989,0-18.522,0
		c-1.531,0-2.207,1.377-2.207,2.833c0,1.455,0,9.701,0,12.062c0,2.362,1.288,2.411,2.411,2.411s1.478-0.36,1.478,2.432
		c0,2.792,0,9.973,0,21.539c0,11.568-16.907,24.332-16.907,37.495c0,13.162,0,79.376,0,85.759c0,6.382,2.392,8.376,7.578,8.376
		s16.91,0,16.91,0s11.723,0,16.905,0c5.187,0,7.582-1.994,7.582-8.376s0-72.597,0-85.759
		C243.207,112.293,226.297,99.53,226.297,87.961z"/>
	<path fill="#636EB3" d="M335.785,86.458h-3.509c-0.07,0-0.137,0.01-0.206,0.01c-4.061-10.679-13.624-18.639-25.225-20.461V59.71
		h6.856V35.226H268.65V59.71h6.809v6.297c-15.475,2.43-27.324,15.781-27.324,31.94V229.37h86.034v-43.142h1.616
		c16.216,0,31.588-13.145,31.588-29.361v-49.953C367.372,90.698,352.001,86.458,335.785,86.458z M355.945,155.217
		c0,5.708-4.628,10.336-10.336,10.336c-5.709,0-10.336-4.628-10.336-10.336v-43.06c0-5.708,4.628-10.336,10.336-10.336
		c5.709,0,10.336,4.628,10.336,10.336V155.217z"/>
	<path fill="#231F20" d="M289.164,155.662c0,0,2.191,0,2.191-2.814c0-2.812,0-12.505,0-14.874c0-2.368-0.381-3.574-1.99-3.574
		c-1.606,0-12.376,0-13.985,0c-1.608,0-1.989,1.206-1.989,3.574c0,2.369,0,12.061,0,14.874c0,2.814,2.19,2.814,2.19,2.814
		c0,36.457-13.102,60.373-13.102,82.88c0,10.048,0,21.904,0,28.536c0,6.632,2.612,7.235,5.427,7.235c2.814,0,26.123,0,28.936,0
		c2.815,0,5.426-0.604,5.426-7.235c0-6.632,0-18.488,0-28.536C302.265,216.035,289.164,192.119,289.164,155.662z"/>
	<path fill="#FEF29A" d="M536.844,167.186c-8.307-16.817-47.267-24.826-59.249-25.184c0.008-0.18,0.027-0.358,0.027-0.539
		c0-6.628-3.216-12.001-5.531-12.001H446.16c-0.356,0-0.708,0.016-1.056,0.046c-6.133,0.535-4.475,5.683-4.475,11.955
		c0,1.152,0.172,2.261,0.474,3.316c-8.582-1.828-5.692,10.97-5.692,20.791c0,0-9.392,15.027-9.392,47.377s9.392,44.247,9.392,44.247
		c4.123,8.621,12.198,19.841,22.918,19.841l55.871-0.431c10.72,0,24.263-8.69,24.263-19.41c0,0,5.479-7.723,6.522-41.116
		C546.029,182.683,536.844,167.186,536.844,167.186z M529.297,208.309c-0.842,3.928-1.964,3.928-6.452,2.805
		c-4.488-1.122-13.465-26.368-13.184-32.539c0.28-6.171,3.086-7.294,6.732-8.697c0,0,7.574-0.28,11.781,15.148
		C530.068,191.963,530.14,204.382,529.297,208.309z"/>
	<path fill="#FCD3CC" d="M211.3,156.476c-5.542-25.697-19.65-42.828-30.231-53.912C170.488,91.48,164.19,85.685,164.19,85.685
		l-1.26-14.864h-7.054V41.094h-30.735v26.705h-10.192l-0.893,20.657c0,0-17.635,36.781-18.138,42.828
		c-0.504,6.046,0.504,12.092,2.015,14.107c1.512,2.016-3.527,53.408-2.519,79.105s2.015,36.277,2.015,36.277s0,5.543,3.023,9.069
		c3.023,3.527,8.062,5.542,8.062,5.542h88.677c0,0,5.542-1.007,8.565-4.03c3.023-3.024,4.535-3.024,6.55-16.628
		C214.324,241.122,216.843,182.171,211.3,156.476z M189.74,195.737c-6.717,1.201-13.135-3.271-14.336-9.987l-5.519-30.874
		c-1.201-6.717,3.271-13.135,9.988-14.337c6.717-1.2,13.136,3.272,14.337,9.988l5.519,30.874
		C200.928,188.118,196.456,194.537,189.74,195.737z"/>
	<path fill="#88C765" d="M66.871,59.957v-4.754h5.176V36.717H38.033v18.486h5.141v4.754c-11.684,1.834-20.63,11.915-20.63,24.115
		v134.481c0,10.854,7.08,20.041,16.869,23.231c1.305-1.971,3.537-3.275,6.078-3.275c3.032,0,5.628,1.852,6.727,4.485h5.61
		c1.099-2.633,3.695-4.485,6.727-4.485c2.541,0,4.773,1.304,6.078,3.275c9.789-3.189,16.869-12.377,16.869-23.231V84.073
		C87.501,71.873,78.555,61.792,66.871,59.957z"/>
	<path fill="#C3D4CA" d="M412.01,187.186l0.768-31.522c-0.45-22.956-10.853-33.531-10.853-33.531
		c-1.612-3.013-4.72-4.687-7.855-4.576c-0.822-1.03-1.635-2.031-2.421-2.96c0.795-0.847,0.8-2.459-0.062-3.865
		c-0.979-1.597-2.705-2.321-3.854-1.617l-0.661,0.406c-0.843-0.864-1.616-1.611-2.286-2.206l-21.019,13.32
		c0.081,0.098,0.672,0.914,1.546,2.225l-0.983,0.604c-1.149,0.704-1.286,2.57-0.307,4.168c0.979,1.597,2.705,2.321,3.854,1.618
		l1.016-0.624c0.521,0.904,1.049,1.865,1.571,2.848c-0.886,2.259-0.804,4.907,0.449,7.249l3.044,5.69
		c0.007,0.012,0.015,0.023,0.021,0.035c-4.072-0.306-15.7,0.299-23.969,15.459c-3.296,6.043-4.501,16.348-2.757,23.68v3.37
		c-2.305,1.609-3.817,4.278-3.817,7.303c0,3.025,1.511,5.693,3.817,7.303v77.434c0,8.714,7.064,15.777,15.777,15.777h32.911
		c8.713,0,15.777-7.063,15.777-15.777v-77.434c2.305-1.61,3.817-4.278,3.817-7.303C415.535,191.368,414.145,188.813,412.01,187.186z
		"/>
	<g>
		<g>
			<path fill="#0A773C" d="M143.574,192.287l4.941,8.739l-5.383,2.706l14.406,0.45l8.38-12.787l-5.905,3.227l-3.329-5.599
				c-0.929-1.285-2.37-1.84-4.277-1.734l-16.117-0.035C139.623,187.47,142.412,188.853,143.574,192.287z"/>
			<path fill="#0A773C" d="M122.62,202.694l11.416,6.768l9.175-16.521c-0.063-0.233-0.1-0.428-0.188-0.7
				c-1.389-3.769-4.934-4.692-8.649-4.487c-2.18,0.224-3.241,0.753-4.315,2.309L122.62,202.694z"/>
		</g>
		<g>
			<path fill="#0A773C" d="M164.24,227.544l-10.032-0.361l0.509-6.003l-7.918,12.043l6.516,13.83l0.339-6.721l6.513,0.092
				c1.581-0.12,2.809-1.058,3.714-2.738l8.46-13.72C170.412,226.695,167.775,228.348,164.24,227.544z"/>
			<path fill="#0A773C" d="M166.329,204.24l-11.739,6.191l9.283,16.461c0.231,0.068,0.416,0.138,0.695,0.205
				c3.939,0.787,6.579-1.751,8.347-5.025c0.95-1.975,1.054-3.156,0.288-4.885L166.329,204.24z"/>
		</g>
		<g>
			<path fill="#0A773C" d="M123.102,227.672l5.262-8.549l4.971,3.402l-6.572-12.827l-15.244-1.154l5.68,3.609l-3.292,5.621
				c-0.676,1.435-0.466,2.965,0.55,4.582l7.762,14.126C120.797,233.46,120.658,230.35,123.102,227.672z"/>
			<path fill="#0A773C" d="M142.343,240.983l0.404-13.264l-18.897-0.045c-0.175,0.168-0.327,0.294-0.522,0.503
				c-2.627,3.04-1.722,6.588,0.253,9.742c1.25,1.8,2.226,2.473,4.107,2.66L142.343,240.983z"/>
		</g>
	</g>
</g>
</svg>
