<?xml version="1.0" encoding="utf-8"?>
<!-- Generator: Adobe Illustrator 17.1.0, SVG Export Plug-In . SVG Version: 6.00 Build 0)  -->
<!DOCTYPE svg PUBLIC "-//W3C//DTD SVG 1.0//EN" "http://www.w3.org/TR/2001/REC-SVG-20010904/DTD/svg10.dtd">
<svg version="1.0" id="Layer_1" xmlns="http://www.w3.org/2000/svg" xmlns:xlink="http://www.w3.org/1999/xlink" x="0px" y="0px"
	 viewBox="0 0 640 330" enable-background="new 0 0 640 330" xml:space="preserve">
<g>
	<g>
		<polyline fill="#AE772A" points="453.32,286.313 444.276,271.266 428.33,270.012 428.33,99 590.994,99 591.757,109.961 
			617.553,117.264 		"/>
		<path fill="#6A6866" d="M536.33,117h-5V75.537c0-6.985-1.607-29.537-21.89-29.537h-6.274c-18.777,0-33.836,16.05-33.836,29.537
			V117h-5V75.537c0-19.44,21.075-34.537,38.836-34.537h6.274c16.763,0,26.89,12.891,26.89,34.537V117z"/>
		<g>
			<polygon fill="#8D4523" points="598.311,73.765 598.311,254.586 584.18,254.586 572.404,73.765 			"/>
			<polygon fill="#365E66" points="545.129,61.989 545.129,242.81 530.997,242.81 519.221,61.989 			"/>
			<polygon fill="#643016" points="551.131,245.165 551.131,64.344 565.262,64.344 577.038,245.165 			"/>
			<polygon fill="#AE772A" points="493.807,247.519 493.807,66.698 502.738,66.698 510.18,247.519 			"/>
			
				<rect x="426.507" y="157.181" transform="matrix(-0.0747 -0.9972 0.9972 -0.0747 393.427 688.5363)" fill="#82A43E" width="179.3" height="9.117"/>
			<polygon fill="#F9E3B2" points="467.946,70.729 474.657,249.53 465.565,250.211 452.18,71.41 			"/>
			<polygon fill="#6A2569" points="483.544,236.608 490.667,236.428 490.628,235.758 491.412,235.755 490.631,57.173 
				484.572,57.199 484.916,135.917 480.426,57.448 471.036,57.685 475.561,236.81 480.353,236.689 477.587,127.964 478.496,127.941 
							"/>
		</g>
		<path fill="#4F4F4F" d="M568.33,147h-5V94.358c0-14.243-5.994-30.358-22.523-30.358h-6.272c-18.594,0-35.205,16.749-35.205,30.358
			V147h-5V94.358C494.33,78.066,512.748,59,534.535,59h6.272c16.833,0,27.523,13.372,27.523,35.358V147z"/>
		<rect x="453.33" y="117" fill="#F9C366" width="165" height="172"/>
		<g>
			<g>
				<path fill="#0A773C" d="M536.206,166.538l7.773,13.749l-8.469,4.256l22.665,0.708l13.184-20.117l-9.289,5.077l-5.238-8.809
					c-1.461-2.021-3.729-2.896-6.728-2.728l-25.357-0.056C529.99,158.959,534.378,161.135,536.206,166.538z"/>
				<path fill="#0A773C" d="M503.24,182.91l17.96,10.647l14.435-25.992c-0.099-0.367-0.158-0.673-0.296-1.101
					c-2.186-5.93-7.762-7.381-13.607-7.06c-3.43,0.352-5.099,1.184-6.788,3.633L503.24,182.91z"/>
			</g>
			<g>
				<path fill="#0A773C" d="M568.719,222.006l-15.783-0.568l0.8-9.444l-12.457,18.947L551.53,252.7l0.533-10.574l10.247,0.144
					c2.487-0.19,4.418-1.664,5.843-4.307l13.31-21.585C578.429,220.67,574.281,223.272,568.719,222.006z"/>
				<path fill="#0A773C" d="M572.006,185.343l-18.468,9.741l14.605,25.897c0.363,0.107,0.654,0.218,1.094,0.323
					c6.197,1.238,10.351-2.755,13.133-7.905c1.495-3.107,1.659-4.965,0.454-7.685L572.006,185.343z"/>
			</g>
			<g>
				<path fill="#0A773C" d="M503.997,222.208l8.279-13.45l7.821,5.353l-10.339-20.181l-23.983-1.815l8.936,5.679l-5.179,8.843
					c-1.063,2.257-0.733,4.665,0.865,7.209l12.211,22.223C500.371,231.313,500.153,226.42,503.997,222.208z"/>
				<path fill="#0A773C" d="M534.27,243.149l0.635-20.869l-29.73-0.07c-0.275,0.264-0.514,0.463-0.821,0.792
					c-4.134,4.782-2.709,10.364,0.399,15.326c1.967,2.831,3.501,3.891,6.461,4.185L534.27,243.149z"/>
			</g>
		</g>
		<polygon fill="#F9C366" points="444.722,270.406 430.028,270.406 430.028,98.435 444.722,110.024 		"/>
	</g>
	<g>
		<polygon fill="#F9C366" points="401.463,277.224 171.876,277.224 171.876,259.282 401.463,244.33 		"/>
		<polygon fill="#BCA88A" points="416.415,209.699 186.828,209.699 186.828,191.756 416.415,176.804 		"/>
		<polygon fill="#AE772A" points="183.838,217.32 413.424,217.32 413.424,235.262 183.838,250.214 		"/>
		<polygon fill="#AE772A" points="180.849,144.537 410.436,144.537 410.436,155.876 180.849,165.325 		"/>
		
			<rect x="175.936" y="167.144" transform="matrix(0.9972 -0.0747 0.0747 0.9972 -12.1085 22.1286)" fill="#F9C366" width="227.655" height="11.576"/>
		<polygon fill="#F9C366" points="405.318,111.7 178.295,120.221 177.431,108.678 404.453,91.683 		"/>
		<polygon fill="#AE772A" points="185.877,82.894 185.877,88.68 325.232,85.52 325.232,86.616 185.877,95.081 185.877,103.681 
			415.464,88.252 415.464,76.914 		"/>
		<polygon fill="#757346" points="194.702,131.505 194.931,140.55 195.781,140.5 195.786,141.495 422.529,140.504 422.496,132.81 
			322.549,133.248 422.18,127.547 421.879,115.624 194.446,121.369 194.6,127.453 332.646,123.943 332.675,125.096 		"/>
		<rect x="288.671" y="79.688" fill="#050505" width="5.233" height="201.105"/>
		<line fill="none" x1="287.836" y1="81.318" x2="292.144" y2="84.288"/>
		<line fill="none" x1="288.098" y1="86.087" x2="293.331" y2="86.016"/>
	</g>
	<g>
		<polygon fill="#10A64F" points="155.187,286.261 175.522,130.272 163.673,128.728 133.465,283.43 		"/>
		<polygon fill="#BCA88A" points="109.272,286.261 129.606,130.272 117.758,128.728 87.55,283.43 		"/>
		<polygon fill="#757346" points="134.904,128.728 114.569,284.717 126.418,286.261 156.626,131.56 		"/>
		<polygon fill="#CDDC2D" points="87.106,129.296 66.771,285.285 74.259,286.261 100.833,131.086 		"/>
		<polygon fill="#F9C366" points="84.328,286.261 115.658,133.478 108.112,131.897 76.781,284.68 		"/>
		<polygon fill="#F9C366" points="45.541,286.261 71.275,132.748 63.729,131.168 32.399,283.951 		"/>
		<polygon fill="#D23D34" points="45.954,129.811 49.774,130.309 35.345,224.719 36.069,224.814 54.001,130.86 59.681,131.601 
			29.157,286.261 21.67,285.285 		"/>
		<polygon fill="#757346" points="77.273,130.693 83.225,131.627 83.118,132.201 83.774,132.289 63.037,286.261 57.959,285.576 
			67.1,217.707 54.511,284.909 46.665,283.678 70.602,129.647 74.606,130.275 60.061,223.766 60.82,223.885 		"/>
		
			<rect x="98.363" y="137.552" transform="matrix(-0.0886 0.9961 -0.9961 -0.0886 312.7432 122.8762)" fill="#050505" width="3.586" height="133.933"/>
	</g>
</g>
</svg>
