<?xml version="1.0" encoding="utf-8"?>
<!-- Generator: Adobe Illustrator 17.1.0, SVG Export Plug-In . SVG Version: 6.00 Build 0)  -->
<!DOCTYPE svg PUBLIC "-//W3C//DTD SVG 1.0//EN" "http://www.w3.org/TR/2001/REC-SVG-20010904/DTD/svg10.dtd">
<svg version="1.0" id="Layer_1" xmlns="http://www.w3.org/2000/svg" xmlns:xlink="http://www.w3.org/1999/xlink" x="0px" y="0px"
	 viewBox="0 0 640 330" enable-background="new 0 0 640 330" xml:space="preserve">
<g>
	<g>
		<g>
			<path fill="#020202" stroke="#757346" stroke-miterlimit="10" d="M267.935,120.272"/>
			<path fill="#757346" d="M281.621,154.256l-1.729-0.809c3.798-8.12,12.435-13.667,20.786-19.03
				c13.423-8.621,25.022-16.067,15.992-32.097c-13.267-13.517-31.786-15.568-42.058-9.733c-6.442,3.662-9.007,10-7.039,17.393
				l-1.844,0.492c-2.209-8.296,0.685-15.421,7.94-19.543c13.919-7.905,33.529-1.045,44.453,10.147l0.147,0.195
				c10.031,17.676-3.486,26.356-16.56,34.753C293.586,141.239,285.184,146.636,281.621,154.256z"/>
			<path fill="#757346" d="M420.935,256.331l-0.298-0.089l-313.259-92.819l-0.189-0.248c-2.311-3.041-3.076-6.429-2.154-9.54
				c0.922-3.112,3.41-5.535,7.003-6.827l0.174-0.063l0.186,0.007l157.15,6.215c1.728-0.598,3.611-0.9,5.598-0.9
				c6.043,0,12.1,2.799,15.491,7.147l135.328,80.497l0.113,0.147c2.309,3.041,3.075,6.429,2.152,9.54
				c-0.922,3.112-3.409,5.535-7.003,6.827L420.935,256.331z M108.524,161.774l312.349,92.548c2.85-1.101,4.808-3.034,5.529-5.465
				c0.73-2.465,0.116-5.192-1.733-7.696l-135.322-80.493l-0.113-0.147c-3.021-3.975-8.55-6.543-14.087-6.543
				c-1.835,0-3.561,0.285-5.131,0.85l-0.174,0.063l-0.186-0.007l-157.144-6.213c-2.914,1.092-4.916,3.043-5.647,5.508
				C106.143,156.61,106.734,159.297,108.524,161.774z"/>
		</g>
		<g>
			<path fill="#020202" stroke="#757346" stroke-miterlimit="10" d="M287.945,116.016"/>
			<path fill="#757346" d="M304.925,148.479l-1.8-0.633c2.976-8.457,11.023-14.83,18.803-20.994
				c12.504-9.906,23.309-18.462,12.739-33.521c-14.538-12.137-33.175-12.354-42.814-5.525c-6.047,4.28-7.974,10.842-5.283,18.004
				l-1.786,0.671c-3.019-8.038-0.846-15.411,5.966-20.233c13.06-9.245,33.259-4.36,45.239,5.701l0.166,0.179
				c11.731,16.596-0.862,26.574-13.041,36.222C315.544,134.343,307.719,140.542,304.925,148.479z"/>
			<path fill="#757346" d="M453.653,236.27l-0.306-0.058l-320.904-61.377l-0.212-0.227c-2.601-2.797-3.696-6.092-3.086-9.28
				c0.609-3.187,2.844-5.844,6.292-7.482l0.353-0.091l156.994-9.362c2.199-1.012,4.771-1.547,7.45-1.547
				c5.488,0,10.763,2.119,14.155,5.678l142.626,66.714l0.127,0.136c2.6,2.797,3.695,6.092,3.086,9.278
				c-0.609,3.189-2.846,5.845-6.293,7.484L453.653,236.27z M133.422,173.08l319.97,61.198c2.728-1.377,4.485-3.493,4.962-5.984
				c0.484-2.525-0.399-5.177-2.486-7.486l-142.62-66.713l-0.127-0.136c-2.985-3.211-7.924-5.207-12.886-5.207
				c-2.467,0-4.819,0.499-6.802,1.44l-0.354,0.091l-156.988,9.364c-2.791,1.375-4.59,3.515-5.073,6.04
				C130.542,168.179,131.395,170.794,133.422,173.08z"/>
		</g>
	</g>
	<g>
		<path fill="#FAA220" d="M61.103,214.814c0,7.38,13.963,13.371,31.319,13.527c5.005-4.826,5.781-25.798,16.285-25.307
			c1.075,0.05,0.3,1.034,0.139-0.006c-4.649-1.113-10.01-1.756-15.733-1.756C75.434,201.271,61.103,207.334,61.103,214.814z"/>
		<g>
			<path fill="#77CCE4" d="M82.055,216.999"/>
			<path fill="#A2A79C" d="M108.413,202.822c-16.775-6.467-18.657-9.224-22.414-2.757c-2.54,4.374-0.699,21.459,6.53,28.347
				c0.384-0.98,0.815-1.945,1.357-2.876c4.899-8.435,4.58-23.865,15.118-22.354"/>
		</g>
	</g>
	<g>
		<g>
			<path fill="#2C3886" d="M432.509,147.612l-0.948-1.055c0.362-2.334-0.097-5.16,0-9.248l-3.214-20.252
				c0.667-0.268,1.13-0.822,1.13-1.47c0-0.771-0.651-1.411-1.527-1.589l-0.231-1.782c0-5.559-4.507-10.067-10.067-10.067h-2.598
				c-5.559,0-10.067,4.507-10.067,10.067l-0.239,1.845c-0.747,0.241-1.276,0.831-1.276,1.526c0,0.572,0.359,1.074,0.901,1.368
				l-4.003,19.597c-0.053,3.926-0.269,7.867-0.084,10.341l-0.629,0.719c-7.61,4.494-13.035,20.542-10.905,26.844v79.45
				c0,5.56,4.329,11.69,19.483,12.773l17.319-0.541c12.448,0,17.86-6.671,17.86-12.231v-79.45
				C444.003,160.682,438.876,150.342,432.509,147.612z"/>
			<ellipse fill="#42652F" cx="419.017" cy="204.688" rx="19.083" ry="38.165"/>
			<ellipse fill="#1E1E1E" cx="416.388" cy="109.534" rx="8.93" ry="5.412"/>
			<path fill="#1E1E1E" d="M416.389,119.336c-5.978,0-10.907-1.987-11.69-4.564c-0.071,0.235-0.121,0.472-0.121,0.715
				c0,2.916,5.288,5.279,11.811,5.279c6.522,0,11.811-2.364,11.811-5.279c0-0.243-0.05-0.481-0.121-0.715
				C427.296,117.349,422.367,119.336,416.389,119.336z"/>
		</g>
	</g>
	<g>
		<g>
			<ellipse fill="#F3F3F3" cx="237.16" cy="142.578" rx="25.971" ry="11.653"/>
			<ellipse fill="#1E1E1E" cx="237.273" cy="142.742" rx="9.244" ry="3.081"/>
			<path fill="#636EB3" d="M206.896,151.371l2.982,57.949c0,9.879,6.518,22.361,16.397,22.361h22.772
				c9.879,0,16.397-12.481,16.397-22.361l2.982-57.949c0-3.572-1.254-7.282-3.306-10.572c-0.576-6.701-12.827-12.057-27.898-12.057
				c-15.438,0-27.954,5.617-27.954,12.546c0,0.313,0.054,0.62,0.104,0.927C207.813,145.132,206.896,148.305,206.896,151.371z
				 M260.324,146.162c-3.898,3.34-12.569,5.669-22.665,5.669c-9.044,0-16.936-1.872-21.289-4.662
				c-0.178-0.517-0.297-1.044-0.297-1.584c0-5.597,9.921-10.134,22.157-10.134c12.238,0,22.157,4.537,22.157,10.134
				C260.389,145.78,260.348,145.97,260.324,146.162z M212.788,142.217c0-5.31,11.135-9.615,24.872-9.615
				c13.737,0,24.872,4.304,24.872,9.615c0,0.192-0.045,0.379-0.074,0.567c-2.61-5.02-12.453-8.758-24.226-8.758
				c-12.971,0-23.619,4.533-24.808,10.323C213.02,143.662,212.788,142.951,212.788,142.217z"/>
		</g>
		<path fill="#C1BCB8" d="M218.9,127.439l10.148,13.518c0.612,1.022,1.936,1.355,2.958,0.743l3.107-1.86
			c1.022-0.612,1.355-1.936,0.743-2.958l-7.12-15.331c-0.612-1.022-1.936-1.355-2.958-0.743l-6.136,3.673
			C218.621,125.092,218.289,126.417,218.9,127.439z M221.184,127.291c-0.201-0.334,0.154-0.915,0.792-1.297l3.828-2.291
			c0.638-0.382,1.317-0.42,1.517-0.086l2.308,5.031c0.2,0.334-0.154,0.915-0.792,1.297l-3.031,1.814
			c-0.638,0.382-1.317,0.42-1.517,0.086L221.184,127.291z"/>
	</g>
	<g>
		<path fill="#61813A" d="M342.948,232.968c2.234,4.246,0.603,9.5-3.643,11.734c0,0-0.527,14.238-3.164,20.039
			c-2.636,5.801-63.282,44.298-63.282,44.298c-4.246,2.234-9.5,0.603-11.734-3.643c0,0-23.071-16.396-25.708-23.779
			c-2.636-7.383-2.636-14.766-2.636-14.766c-6.328-8.964-1.513-18.971,2.734-21.206l65.009-34.204
			c4.246-2.234,11.36-2.598,16.106,1.621L342.948,232.968z"/>
		<path fill="#1E1E1E" d="M273.423,287.233c-4.91,2.682-9,2.294-15.856-3.507c-6.856-5.801-13.711-10.547-18.457-16.348
			c-4.746-5.801-5.884-12.461-0.974-15.143l61.656-33.68c4.91-2.682,11.637-0.185,14.201,1.361s20.91,15.258,20.91,15.258
			c2.682,4.91,0.876,11.064-4.034,13.747L273.423,287.233z"/>
		<path fill="#C1BCB8" d="M319.266,255.777c-4.91,2.682-15.293,2.109-22.148-3.692c-6.855-5.801-26.895-18.985-26.895-18.985
			l29.569-14.544c4.91-2.682,11.637-0.185,14.201,1.361c2.564,1.546,20.91,15.258,20.91,15.258
			c2.682,4.91,0.876,11.064-4.034,13.747L319.266,255.777z"/>
		<path fill="#C1BCB8" d="M299.026,197.405l-12.549-9.816c-2.09-1.635-4.903-1.531-6.282,0.232l-16.365,27.302
			c-1.379,1.762-0.803,4.517,1.288,6.152l6.356,4.971c2.091,1.635,4.903,1.531,6.282-0.231l22.559-22.457
			C301.693,201.795,301.117,199.04,299.026,197.405z M288.592,210.008c-0.451,0.577-1.874,0.218-3.178-0.802l-6.198-4.848
			c-1.304-1.02-1.995-2.314-1.544-2.892l5.311-8.972c0.451-0.577,1.874-0.218,3.178,0.802l7.828,6.124
			c1.304,1.02,1.995,2.314,1.544,2.892L288.592,210.008z"/>
		<path fill="#DAD9D6" d="M255.984,214.116c0,0,5.801,3.692,21.094,12.129s14.766,10.02,16.875,14.766
			c2.109,4.746,2.636,9.492,3.164,11.075c0.527,1.582-25.84-16.347-31.114-22.675C260.731,223.081,255.984,214.116,255.984,214.116z
			"/>
	</g>
	<g>
		<path fill="#D23D34" d="M132.839,287.55H88.211c-9.038,0-16.366-7.327-16.366-16.366v-9.503c0-9.038,7.328-16.366,16.366-16.366
			h44.628v-12.67H83.003c-14.463,0-26.186,11.724-26.186,26.186v15.205c0,14.462,11.723,26.186,26.186,26.186h49.836V287.55z"/>
	</g>
	<g>
		<g>
			<path fill="#8D4523" d="M397.027,187.969l-0.972-1.081c0.371-2.393-0.099-5.291,0-9.481l-3.296-20.763
				c0.684-0.274,1.159-0.843,1.159-1.506c0-0.789-0.667-1.447-1.565-1.629l-0.237-1.827c0-5.7-4.621-10.321-10.321-10.321h-2.662
				c-5.7,0-10.32,4.621-10.32,10.321l-0.245,1.892c-0.765,0.246-1.308,0.853-1.308,1.564c0,0.586,0.367,1.101,0.924,1.403
				l-4.104,20.091c-0.054,4.025-0.276,8.066-0.086,10.602l-0.645,0.737c-7.802,4.607-13.364,21.06-11.181,27.522v81.455
				c0,5.7,4.439,11.985,19.976,13.095l17.756-0.555c12.762,0,18.311-6.84,18.311-12.54v-81.455
				C408.812,201.368,403.554,190.766,397.027,187.969z"/>
			<ellipse fill="#FAA220" cx="379.374" cy="249.009" rx="19.083" ry="38.165"/>
			<ellipse fill="#1E1E1E" cx="380.5" cy="148.929" rx="9.155" ry="5.548"/>
			<path fill="#643016" d="M380.5,158.978c-6.13,0-11.183-2.037-11.985-4.679c-0.073,0.241-0.124,0.483-0.124,0.733
				c0,2.989,5.422,5.413,12.109,5.413c6.687,0,12.109-2.423,12.109-5.413c0-0.25-0.051-0.492-0.124-0.733
				C391.681,156.941,386.629,158.978,380.5,158.978z"/>
		</g>
	</g>
	<g>
		<ellipse fill="#0A773C" cx="318.751" cy="305.427" rx="15.373" ry="5.852"/>
		<path fill="#2C4220" d="M334.231,305.108c0,3.231-6.883,5.852-15.373,5.852c-8.49,0-15.373-2.62-15.373-5.852
			c0-0.854,1.596-6.915,1.596-6.915l3.085,1.064l1.8-2.293l1.924,2.718l1.809-2.234l1.377,1.581l1.815-1.901l1.809,2.66l1.915-2.553
			l1.593,2.16l1.811-2.373l1.489,3.298l1.703-2.66l0.851,2.872l1.703-2.446l0.515,3.104l2.358-1.402
			C332.635,299.789,334.231,304.22,334.231,305.108z"/>
		<path fill="#ED6A58" d="M330.276,306.616l-0.515-3.104l-1.703,2.446l-0.851-2.873l-1.703,2.661l-1.489-3.298l-1.811,2.373
			l-1.593-2.161l-1.915,2.553l-1.809-2.66l-2.021,3.191l-1.17-2.872l-3.192,2.553l-2.34-3.51l-2.446,2.66l-1.915-1.276
			c0,0-0.014,0.978-0.425,2.66c3.191,4.362,8.278,5.639,15.107,5.639c6.642,0,15.213-2.234,15.532-6.596
			c-0.346-1.036-0.532-2.446-0.532-2.446L330.276,306.616z"/>
	</g>
	<g>
		<ellipse fill="#0A773C" cx="423.585" cy="295.518" rx="15.373" ry="6.84"/>
		<path fill="#2C4220" d="M439.065,295.144c0,3.777-6.883,6.84-15.373,6.84c-8.49,0-15.373-3.063-15.373-6.84
			c0-0.998,1.596-8.083,1.596-8.083l3.085,1.243l1.8-2.68l1.924,3.178l1.809-2.611l1.377,1.848l1.815-2.222l1.809,3.109l1.915-2.984
			l1.593,2.526l1.811-2.775l1.489,3.855l1.702-3.109l0.851,3.358l1.702-2.86l0.515,3.628l2.358-1.638
			C437.469,288.926,439.065,294.105,439.065,295.144z"/>
		<path fill="#ED6A58" d="M435.111,296.907l-0.515-3.628l-1.702,2.86l-0.851-3.358l-1.702,3.11l-1.489-3.856l-1.811,2.775
			l-1.593-2.526l-1.915,2.985l-1.809-3.109l-2.021,3.731l-1.17-3.358l-3.191,2.984l-2.34-4.104l-2.447,3.109l-1.915-1.492
			c0,0-0.013,1.143-0.425,3.109c3.191,5.099,8.278,6.591,15.107,6.591c6.642,0,15.213-2.611,15.532-7.71
			c-0.346-1.211-0.532-2.86-0.532-2.86L435.111,296.907z"/>
	</g>
	<g>
		<g>
			<path fill="#61813A" d="M501.203,136.812c0-23.125-19.252-39.348-19.252-59.669c0-20.318,0-26.734,0-31.639
				c0-4.904,0.405-4.272,1.683-4.272c1.28,0,2.746-0.086,2.746-4.235c0-4.146,0-8.302,0-10.859c0-1.062-0.142-2.091-0.423-2.941
				c0.001-0.016,0.009-0.032,0.009-0.048c0-0.275-0.14-0.54-0.377-0.795c-0.407-0.722-0.969-1.192-1.724-1.192
				c-0.088,0-0.244,0-0.411,0c-2.308-0.815-5.989-1.346-10.151-1.346c-4.162,0-7.842,0.531-10.151,1.346c-0.147,0-0.295,0-0.376,0
				c-0.725,0-1.272,0.434-1.675,1.106c-0.293,0.282-0.461,0.575-0.461,0.88c0,0.039,0.017,0.077,0.022,0.115
				c-0.265,0.838-0.399,1.841-0.399,2.875c0,2.557,0,6.712,0,10.859c0,4.149,1.466,4.235,2.745,4.235
				c1.279,0,1.682-0.631,1.682,4.272c0,4.905,0,11.321,0,31.639c0,20.322-19.25,36.544-19.25,59.669c0,23.121,0,139.437,0,150.649
				c0,2.261,0.117,4.195,0.342,5.863c-0.038,0.295-0.09,0.588-0.09,0.887c0,2.14,1.011,4.156,2.764,5.963
				c0.1,0.103,0.195,0.216,0.301,0.309c4.593,4.443,13.888,9.555,24.632,9.555c15.297,0,27.697-8.228,27.697-15.828
				c0-0.488-0.055-0.97-0.155-1.446c0.178-1.539,0.269-3.294,0.269-5.305C501.203,276.249,501.203,159.932,501.203,136.812z"/>
			<path fill="#B2D238" d="M496.87,168.817c0,5.161-10.028,8.683-22.4,8.683c-8.69,0-16.207-3.471-19.922-6.489
				c-0.086-0.063-2.479-0.74-2.479-2.193c0-0.203-0.109,76.754,0.073,77.888c-0.03,0.201-0.073,0.4-0.073,0.603
				c0,1.453,0.818,2.822,2.235,4.049c0.081,0.07,0.158,0.146,0.243,0.21c3.715,3.017,11.232,6.489,19.922,6.489
				c12.371,0,22.4-5.587,22.4-10.748C496.87,246.976,496.87,168.485,496.87,168.817z"/>
		</g>
		<ellipse fill="#1E1E1E" cx="473.56" cy="23.329" rx="8.93" ry="2.651"/>
	</g>
	<g>
		<g>
			<path fill="#8D4523" d="M583.464,171.554c0-19.574-23.309-38.552-23.309-55.754c0-17.198,0-27.876,0-32.028
				c0,0,0.109-3.551,0.13-3.616c0.472-1.476,3.325-0.073,3.325-3.585c0-3.51,0-15.77,0-17.935c0-0.899-0.172-1.77-0.512-2.49
				c0.001-0.013,0.012-0.028,0.012-0.028c0-0.246-0.169-0.471-0.457-0.687c-0.492-0.61-1.173-1.009-2.087-1.009
				c-0.107,0-0.296,0-0.498,0c-2.794-0.689-5.342-1.139-10.381-1.139c-5.038,0-7.586,0.45-10.381,1.139c-0.177,0-0.357,0-0.455,0
				c-0.878,0-1.54,0.367-2.028,0.936c-0.353,0.238-0.558,0.487-0.558,0.746c0,0.033,0.021,0.065,0.027,0.097
				c-0.321,0.71-0.483,1.558-0.483,2.434c0,2.165,0,14.425,0,17.935c0,3.512,3.324,3.585,3.324,3.585s0.128-0.534,0.128,3.616
				c0,4.152,0,14.829,0,32.028c0,17.202-23.305,36.18-23.305,55.754c0,19.571,0,118.029,0,127.518c0,1.914,0.142,3.551,0.414,4.962
				c-0.046,0.25-0.11,0.498-0.11,0.752c0,1.811,1.224,3.518,3.346,5.047c0.121,0.087,0.236,0.183,0.364,0.262
				c5.56,3.761,16.814,8.089,29.821,8.089c18.519,0,33.532-6.965,33.532-13.398c0-0.413-0.067-0.821-0.187-1.224
				c0.216-1.303,0.326-2.788,0.326-4.491C583.464,289.582,583.464,191.125,583.464,171.554z"/>
			<path fill="#1E1E1E" d="M578.218,198.646c0,4.368-0.259-21.447-27.119-20.284c-23.011,0.996-27.119,21.514-27.119,20.284
				c0-0.172-0.132,64.97,0.088,65.929c-0.037,0.169-0.088,0.338-0.088,0.51c0,1.23,0.99,2.389,2.706,3.428
				c0.098,0.059,0.191,0.124,0.294,0.178c4.497,2.554,13.598,5.492,24.119,5.492c14.978,0,27.119-4.729,27.119-9.098
				C578.218,264.804,578.218,198.365,578.218,198.646z"/>
		</g>
		<path fill="#1E1E1E" d="M561.236,58.519c0,1.839-4.062,3.329-11.425,3.329c-7.363,0-11.425-1.49-11.425-3.329
			s4.061-3.329,11.425-3.329S561.236,56.68,561.236,58.519z"/>
	</g>
	<g>
		<ellipse fill="#1E1E1E" cx="144.076" cy="126.824" rx="32.088" ry="13.425"/>
		<path fill="#FAA220" d="M176.054,193.591c0-1.717,1.029-3.189,2.502-3.849l0.658-11.93c-1.814-0.473-3.159-2.108-3.159-4.07
			c0-2.123,1.572-3.863,3.613-4.159l0.652-11.814c-2.094-0.248-3.725-2.009-3.725-4.17c0-2.32,1.872-4.2,4.187-4.219l0.686-12.427
			c0-3.531-1.134-7.187-3.058-10.548c0.062-0.354,0.128-0.707,0.128-1.068c0-7.982-15.463-14.453-34.537-14.453
			c-18.62,0-33.756,6.171-34.469,13.891c-2.536,3.791-4.085,8.064-4.085,12.179l0.705,12.769c1.501,0.647,2.553,2.138,2.553,3.876
			c0,1.57-0.867,2.924-2.139,3.651l0.691,12.53c1.637,0.581,2.816,2.127,2.816,3.963c0,1.671-0.979,3.102-2.388,3.787l0.656,11.899
			c2.053,0.286,3.639,2.031,3.639,4.163c0,1.972-1.357,3.613-3.184,4.078l0.334,6.043c0,11.381,8.053,25.76,20.259,25.76h28.135
			c12.206,0,20.259-14.378,20.259-25.76l0.359-6.497C176.899,196.481,176.054,195.14,176.054,193.591z M173.403,128.866
			c-0.045-0.206-0.136-0.408-0.203-0.611c-0.638,1.105-1.74,2.146-3.215,3.102c-0.062,0.254-0.131,0.508-0.224,0.758
			c-5.379,3.213-15.13,5.371-26.304,5.371c-12.473,0-23.187-2.684-28.003-6.532c-0.029-0.221-0.078-0.439-0.078-0.664
			c0-0.096,0.029-0.189,0.034-0.285c-1.253-1.159-1.976-2.41-2.074-3.721c-0.184,0.257-0.369,0.515-0.516,0.778
			c-0.036-0.217-0.092-0.433-0.092-0.654c0-1.773,1.184-3.443,3.238-4.928c4.739-3.829,15.305-6.498,27.606-6.498
			c13.888,0,25.563,3.401,29.132,8.032c0.954,1.069,1.482,2.208,1.482,3.393C174.188,127.254,173.901,128.074,173.403,128.866z"/>
		<path fill="#6C4844" d="M155.887,211.395c-5.534,5.534-14.507,5.534-20.041,0l-14.644-20.548c-5.534-5.534-5.534-14.507,0-20.041
			l14.644-20.548c5.534-5.534,14.507-5.534,20.041,0l14.644,20.548c5.534,5.534,5.534,14.507,0,20.041L155.887,211.395z"/>
	</g>
	<g>
		<g>
			<ellipse fill="#F3F3F3" cx="190.831" cy="205.995" rx="29.608" ry="13.286"/>
			<ellipse fill="#1E1E1E" cx="190.702" cy="206.182" rx="10.539" ry="3.513"/>
			<path fill="#D23D34" d="M222.513,205.58c0.057-0.351,0.119-0.7,0.119-1.057c0-7.899-14.268-14.303-31.868-14.303
				c-17.181,0-31.149,6.107-31.806,13.747c-2.339,3.751-3.77,7.982-3.77,12.054l3.399,66.065c0,11.263,7.431,25.492,18.694,25.492
				h25.961c11.263,0,18.694-14.229,18.694-25.492l3.399-66.065C225.335,212.524,224.288,208.908,222.513,205.58z M164.35,209.424
				c0-6.381,11.31-11.554,25.261-11.554s25.261,5.172,25.261,11.554c0,0.615-0.136,1.216-0.339,1.805
				c-4.963,3.181-13.961,5.316-24.271,5.316c-11.509,0-21.396-2.655-25.839-6.464C164.395,209.863,164.35,209.646,164.35,209.424z
				 M217.894,208.015c-1.356-6.602-13.495-11.769-28.283-11.769c-13.424,0-24.645,4.262-27.62,9.985
				c-0.033-0.215-0.085-0.429-0.085-0.648c0-6.053,12.695-10.961,28.355-10.961s28.355,4.907,28.355,10.961
				C218.617,206.421,218.352,207.232,217.894,208.015z"/>
		</g>
		<path fill="#C1BCB8" d="M210.8,185.364l-6.995-4.187c-1.165-0.697-2.675-0.318-3.372,0.847l-8.117,17.478
			c-0.697,1.165-0.318,2.675,0.847,3.372l3.543,2.121c1.165,0.697,2.675,0.318,3.372-0.847l11.57-15.412
			C212.345,187.571,211.966,186.061,210.8,185.364z M205.505,193.759c-0.228,0.382-1.002,0.338-1.729-0.097l-3.455-2.068
			c-0.727-0.435-1.131-1.097-0.903-1.479l2.632-5.736c0.228-0.382,1.002-0.338,1.729,0.097l4.364,2.612
			c0.727,0.435,1.131,1.097,0.903,1.479L205.505,193.759z"/>
	</g>
</g>
<g>
	<rect x="111.722" y="232.645" fill="#1E1E1E" width="21.117" height="12.67"/>
	<rect x="111.722" y="287.55" fill="#1E1E1E" width="21.117" height="12.67"/>
</g>
</svg>
