<?xml version="1.0" encoding="utf-8"?>
<!-- Generator: Adobe Illustrator 17.1.0, SVG Export Plug-In . SVG Version: 6.00 Build 0)  -->
<svg version="1.2" baseProfile="tiny" id="Layer_1" xmlns="http://www.w3.org/2000/svg" xmlns:xlink="http://www.w3.org/1999/xlink"
	 x="0px" y="0px" viewBox="0 43 300 213" xml:space="preserve">
<g>
	<polygon fill="#ED6A58" points="82,222.5 65.2,70.2 20.5,53 22.7,47.2 70.9,65.9 87.6,216.3 260.5,214.9 260.5,221.1 				"/>
				<polygon fill="#ED6A58" points="260.2,199.2 78.9,199.2 78.9,194.1 254.8,194.1 269.2,81.1 67.2,81.1 67.2,73.1 276.2,73.1 				
					"/>
	<path fill="#ED6A58" d="M110.1,252.8c-10,0-18.2-8.2-18.2-18.2c0-10,8.2-18.2,18.2-18.2s18.2,8.2,18.2,18.2
					C128.3,244.6,120.2,252.8,110.1,252.8z M110.1,222.5c-6.6,0-12.1,5.4-12.1,12.1c0,6.6,5.4,12,12.1,12s12.1-5.4,12.1-12
					C122.2,227.9,116.8,222.5,110.1,222.5z"/>
	<path fill="#ED6A58" d="M236.2,252.8c-10,0-18.2-8.2-18.2-18.2c0-10,8.2-18.2,18.2-18.2c10,0,18.2,8.2,18.2,18.2
					C254.4,244.6,246.2,252.8,236.2,252.8z M236.2,222.5c-6.7,0-12.1,5.4-12.1,12.1c0,6.6,5.4,12,12.1,12c6.6,0,12-5.4,12-12
					C248.2,227.9,242.8,222.5,236.2,222.5z"/>
	<path fill="#0E1212" d="M91.2,154.4H110c1,0,1.9,0.4,2.6,1.1l0,0c0.7,0.7,1.1,1.6,1.1,2.6v29.2c0,1-0.4,1.9-1.1,2.6
		c-0.7,0.7-1.6,1.1-2.6,1.1H91.2c-1,0-1.9-0.4-2.6-1.1l0,0h0c-0.7-0.7-1.1-1.6-1.1-2.6v-29.2c0-1,0.4-1.9,1.1-2.6
		C89.3,154.8,90.2,154.4,91.2,154.4L91.2,154.4z M98.5,185.4v2h4.3v-2H98.5L98.5,185.4z M97.6,158v0.8h5.8V158H97.6L97.6,158z
		 M93.9,165.1v2.8l4.4-5.9h-2.1L93.9,165.1L93.9,165.1z M93.9,171.6v2.8l9.1-12.3h-2.1L93.9,171.6L93.9,171.6z M92.3,160.1h-0.6v0.6
		v23.3v0.6h0.6h16.4h0.6v-0.6v-23.3v-0.6h-0.6H92.3L92.3,160.1z M110,156.6H91.2c-0.4,0-0.8,0.2-1.1,0.4c-0.3,0.3-0.4,0.6-0.4,1.1
		v29.2c0,0.4,0.2,0.8,0.4,1.1l0,0c0.3,0.3,0.6,0.4,1.1,0.4H110c0.4,0,0.8-0.2,1.1-0.4c0.3-0.3,0.4-0.6,0.4-1.1v-29.2
		c0-0.4-0.2-0.8-0.4-1.1C110.8,156.7,110.4,156.6,110,156.6z"/>
	<path fill="#0E1212" d="M200.6,109.2h8.2c0.4,0,0.8,0.2,1.1,0.5l0,0c0.3,0.3,0.5,0.7,0.5,1.1v15.5c0,0.4-0.2,0.8-0.5,1.1
		c-0.3,0.3-0.7,0.5-1.1,0.5h-8.2c-0.4,0-0.8-0.2-1.1-0.5l0,0h0c-0.3-0.3-0.5-0.7-0.5-1.1v-15.5c0-0.4,0.2-0.8,0.5-1.1
		C199.7,109.4,200.1,109.2,200.6,109.2L200.6,109.2z M201.7,113.9v1.2l1.9-2.6h-0.9L201.7,113.9L201.7,113.9z M201.7,116.7v1.2
		l4-5.4h-0.9L201.7,116.7L201.7,116.7z M201,111.7h-0.3v0.3v13v0.3h0.3h7.1h0.3v-0.3v-13v-0.3h-0.3H201L201,111.7z M208.7,110.2
		h-8.2c-0.2,0-0.3,0.1-0.5,0.2c-0.1,0.1-0.2,0.3-0.2,0.5v15.5c0,0.2,0.1,0.3,0.2,0.5l0,0c0.1,0.1,0.3,0.2,0.5,0.2h8.2
		c0.2,0,0.3-0.1,0.5-0.2c0.1-0.1,0.2-0.3,0.2-0.5v-15.5c0-0.2-0.1-0.3-0.2-0.5C209.1,110.3,208.9,110.2,208.7,110.2z M205.6,126.1
		c0,0.4-0.3,0.7-0.7,0.7c-0.4,0-0.7-0.3-0.7-0.7c0-0.4,0.3-0.7,0.7-0.7C205.3,125.4,205.6,125.7,205.6,126.1z"/>
	<path fill="#0E1212" d="M85.1,116.9h20.2c-0.5-5.4-0.9-11.1,0.3-18.6c0-2.2,0.1-4.3,0.3-6.4c0.2-1.9,0.5-3.7,0.9-5.5l-3.4-1.7
		c-1,1.6-2.3,2.7-3.9,3.5c-1.3,0.6-2.8,0.9-4.3,0.9c-1.5,0-3-0.3-4.3-0.9c-1.6-0.7-3-1.9-3.9-3.5l-3.4,1.7c0.4,1.8,0.7,3.6,0.9,5.5
		c0.2,2.1,0.3,4.2,0.3,6.4C86,105.8,85.6,111.5,85.1,116.9L85.1,116.9z M105.4,117.8H85l-0.1,0.8h9.3h0.1h0.1h0.1h0.1h0.1h0.1h0.1
		h0.1H95h0.1h0.1h0.1h0.1h0.1h0.1h0.1h0.1h0.1H96h0.1h0.1h9.3L105.4,117.8L105.4,117.8z M82.7,92.1c-0.1-1.4-0.4-2.9-0.7-4.3
		l-4.5,5.9l3.6,4.1l1.8-0.7C83,95.5,82.9,93.8,82.7,92.1L82.7,92.1z M81.5,85.4l0.6-0.3l4.8-2.4l0.8-0.4l0.4,0.9
		c0.7,1.6,2,2.7,3.5,3.4c1.1,0.5,2.3,0.8,3.5,0.8c1.2,0,2.4-0.3,3.5-0.8c1.5-0.7,2.7-1.8,3.5-3.4l0.4-0.9l0.8,0.4l4.8,2.4l0.6,0.3
		l5.8,7.8l0.4,0.6l-0.5,0.6l-4.6,5.2l-0.4,0.5l-0.6-0.2l-1.8-0.7c-1.2,7.8-0.6,13.6,0,19.4v0l0.1,0.9l0.1,1h-1H96.2h-0.1H96h-0.1
		h-0.1h-0.1h-0.1h-0.1h-0.1h-0.1h-0.1h-0.1H95h-0.1h-0.1h-0.1h-0.1h-0.1h-0.1h-0.1h-0.1h-0.1H83.9h-1l0.1-1l0.1-0.9v0
		c0.6-5.8,1.2-11.5,0-19.4l-1.8,0.7l-0.6,0.2l-0.4-0.5l-4.6-5.2l-0.5-0.6l0.5-0.6L81.5,85.4L81.5,85.4z M108.3,87.8
		c-0.3,1.4-0.5,2.8-0.7,4.3c-0.2,1.7-0.3,3.4-0.3,5.1l1.8,0.7l3.6-4.1L108.3,87.8z"/>
		<path fill="#0E1212" d="M232.6,89.3c-4.6,0-8.3,3.7-8.3,8.3c0,4.6,3.7,8.3,8.3,8.3s8.3-3.7,8.3-8.3
			C240.9,93,237.2,89.3,232.6,89.3z"/>
		<path fill="#0E1212" d="M260.8,83.8h-2.3V83c0-0.4-0.3-0.8-0.8-0.8h-5.1c-0.4,0-0.8,0.3-0.8,0.8v0.8h-33.3c-0.8,0-1.5,0.7-1.5,1.5
			v24.4c0,0.8,0.7,1.5,1.5,1.5h42.3c0.8,0,1.5-0.7,1.5-1.5V85.3C262.3,84.5,261.6,83.8,260.8,83.8z M232.6,108
			c-5.8,0-10.4-4.7-10.4-10.4c0-5.8,4.7-10.4,10.4-10.4c5.8,0,10.4,4.7,10.4,10.4C243.1,103.3,238.4,108,232.6,108z M259.8,90.8
			c0,0.2-0.1,0.3-0.3,0.3h-8.2c-0.2,0-0.3-0.1-0.3-0.3V86c0-0.2,0.1-0.3,0.3-0.3h8.2c0.2,0,0.3,0.1,0.3,0.3V90.8z"/>
	<path fill="#0E1212" d="M138.7,116.5H133v-1.3h-0.1c-0.1-0.5-0.4-1-0.7-1.3c-0.5-0.5-1-0.9-1.5-1.3c-1-0.8-2.1-1.5-3.4-1.6
		c-2.5-0.3-4.6,1.5-6,3.4c-0.4,0.5-0.7,1.1-0.9,1.8c-0.2,0.6-0.4,1.3-0.5,1.9c-0.2,0.7-0.5,1.3-0.9,1.8c-0.4,0.4-0.8,0.7-1.3,0.9
		c-1.1,0.4-2.4-0.1-3-1.2c-0.3-0.5-0.3-1.2-0.2-1.8c0.1-0.4,0.3-0.8,0.6-1.2v0l0,0l0.2-0.3c0.5-0.7,0.9-0.9,2-1.5
		c0.4-0.2,0.9-0.5,1.3-0.7c0.4-0.2,0.9-0.4,1.3-0.7c1-0.5,1.8-1,2.4-1.5c0.7-0.5,1.5-1.2,2.2-1.9c1.2-1.2,2.2-2.6,3-4
		c0.8-1.4,1.2-2.8,1.4-4.2c0.1-0.1,0.2-0.2,0.3-0.3c0.2-0.4,0-1-0.4-1.2c-0.4-0.2-0.6,0.2-0.8,0.7c-0.2,0.4-0.4,0.7,0.1,0.9
		c0.2,0.1,0.3,0.1,0.5,0.1c-0.2,1.5-0.9,3.1-1.8,4.7c-1,1.6-2.3,3.1-3.8,4.4c-1.2,1-2.7,1.8-4.2,2.6c-0.2,0.1-0.4,0.2-0.5,0.3
		c-1,0.5-2.1,1-2.9,1.8c0.3-1.3,0-2.7-0.4-4.1c0-0.2-0.1-0.3-0.1-0.5c-0.2-0.6-0.3-1.3-0.5-1.9c-0.1-0.7-0.2-1.4-0.2-2.2
		c0-1.6,0.3-3.2,0.9-4.5c0.4-1,1.2-2.4,2.7-3.2c0.1,0.4,0.5,0.6,0.9,0.5c0.5-0.1,0.4-0.5,0.3-1c-0.1-0.5-0.1-0.8-0.6-0.7
		c-0.4,0.1-0.7,0.4-0.7,0.8c-3.2,1.7-3.7,6-3.8,7.8c0,0.8,0,1.5,0.1,2.2c0.1,0.7,0.3,1.5,0.5,2.2l0.1,0.3c0.4,1.5,0.9,3.3,0.3,4.9
		c0,0,0,0.1-0.1,0.1l0,0l0,0c-0.1,0.2-0.2,0.3-0.3,0.5c-0.5,1-0.5,2.1,0.1,3.1c0.6,0.9,1.7,1.4,2.8,1.2c1.2-0.2,2.1-1.1,2.6-2.1
		c0.3-0.6,0.4-1.2,0.6-1.8c0.2-0.7,0.4-1.3,0.7-1.9c0.6-1.1,1.5-2.1,2.5-2.9c1-0.7,2.1-1.2,3.4-1.1c1.3,0.1,2.4,0.8,3.4,1.6
		c0.5,0.4,1,0.8,1.4,1.2c0.2,0.2,0.4,0.5,0.6,0.7c0.1,0.1,0.1,0.3,0.2,0.4c0,0,0,0.1,0,0.1h-0.2v1.3h-5.9c-0.2,0-0.3,0.1-0.3,0.3
		v19.3c0,0.2,0.1,0.3,0.3,0.3h12.3c0.2,0,0.3-0.1,0.3-0.3v-19.3C139,116.7,138.9,116.5,138.7,116.5z M128.4,135.6
		c-0.5,0-0.9-0.4-0.9-0.9c0-0.5,0.4-0.9,0.9-0.9c0.5,0,0.9,0.4,0.9,0.9C129.3,135.1,128.9,135.6,128.4,135.6z M136.8,135.6
		c-0.5,0-0.9-0.4-0.9-0.9c0-0.5,0.4-0.9,0.9-0.9c0.5,0,0.9,0.4,0.9,0.9C137.7,135.1,137.3,135.6,136.8,135.6z M138.1,132.9H127
		v-15.4h11.1V132.9z"/>
	<path fill="#0E1212" d="M202.2,108c0,0-0.1-3.3,2.7-2.8c2.4,0.4,8.7,5.7,9.3,7.7c0.4,1.2,0,2.4-0.6,3.5c-0.6,1.1-1.5,2.2-2.5,2.9
		c-0.5,0.4-1.1,0.7-1.8,1c-0.6,0.2-1.2,0.5-1.7,0.8c-1,0.6-1.7,1.7-1.7,2.9c0,1.1,0.5,2.1,1.6,2.6c1,0.4,2.2,0.3,3.1-0.3
		c0.2-0.1,0.3-0.3,0.5-0.4l0,0l0,0c0,0,0.1,0,0.1-0.1c1.5-0.8,3.3-0.6,4.9-0.4l0.3,0c0.7,0.1,1.5,0.2,2.2,0.2c0.7,0,1.4-0.1,2.2-0.2
		c1.8-0.3,6-1.4,7.2-4.9c0.4-0.1,0.7-0.4,0.7-0.8c0-0.5-0.3-0.5-0.8-0.5c-0.5,0-0.9,0-1,0.4c0,0.4,0.3,0.8,0.7,0.9
		c-0.6,1.5-1.8,2.5-2.8,3.1c-1.3,0.7-2.7,1.2-4.3,1.5c-0.8,0.1-1.5,0.2-2.2,0.2c-0.7,0-1.3-0.1-2-0.2c-0.2,0-0.4,0-0.5-0.1
		c-1.4-0.2-2.9-0.3-4.1,0.2c0.7-0.9,1-2,1.4-3.1c0.1-0.2,0.1-0.4,0.2-0.6c0.6-1.6,1.1-3.1,2-4.5c1-1.7,2-2.5,3.8-2.9
		c1.4-0.3,5.3,1.7,6.5,1.7c0,0.2,0.1,0.3,0.1,0.5c0.3,0.4,0.5,0.2,0.9-0.1c0.4-0.3,0.8-0.5,0.5-0.9c-0.3-0.4-0.8-0.5-1.2-0.2
		c-0.1,0.1-0.2,0.2-0.3,0.3c-2-0.1-5.4-2.3-7-1.6c-1.5,0.7-1.9,0.7-2.9,2c-0.7,0.9-0.9,1.1-1.3,1.9c-0.4,0.7-0.7,1.6-1.1,2.6
		c-0.2,0.5-0.3,0.9-0.5,1.4c-0.2,0.5-0.3,0.9-0.5,1.4c-0.4,1.1-0.6,1.6-1.2,2.2l-0.3,0.3l0,0l0,0c-0.3,0.3-0.7,0.6-1.1,0.8
		c-0.6,0.2-1.2,0.2-1.8,0c-1.2-0.4-1.8-1.6-1.6-2.8c0.1-0.5,0.3-1,0.7-1.5c0.4-0.5,1-0.9,1.6-1.2c0.6-0.3,1.2-0.5,1.8-0.8
		c0.6-0.3,1.1-0.7,1.6-1.2c1.7-1.6,3.4-4,2.5-6.4c-0.3-0.9-11.6-13.4-12.6-4.6"/>
	<path fill="#0E1212" d="M139,140.5h-15.6c-0.5,0-0.9,0.4-0.9,0.9V163c0,0.5,0.4,0.9,0.9,0.9H139c0.5,0,0.9-0.4,0.9-0.9v-21.6
		C139.9,140.9,139.5,140.5,139,140.5z M126.7,161.8h-3.3v-3.2h3.3V161.8z M126.7,158.3h-3.3v-3.2h3.3V158.3z M126.7,154.8h-3.3v-3.2
		h3.3V154.8z M126.7,151.4h-3.3v-3.2h3.3V151.4z M130.6,161.8h-3.3v-3.2h3.3V161.8z M130.6,158.3h-3.3v-3.2h3.3V158.3z M130.6,154.8
		h-3.3v-3.2h3.3V154.8z M130.6,151.4h-3.3v-3.2h3.3V151.4z M134.6,161.8h-3.3v-3.2h3.3V161.8z M134.6,158.3h-3.3v-3.2h3.3V158.3z
		 M134.6,154.8h-3.3v-3.2h3.3V154.8z M134.6,151.4h-3.3v-3.2h3.3V151.4z M138.5,161.8h-3.3v-3.2h3.3V161.8z M138.5,158.3h-3.3v-3.2
		h3.3V158.3z M138.5,154.8h-3.3v-3.2h3.3V154.8z M138.5,151.4h-3.3v-3.2h3.3V151.4z M138.5,146.5h-15.1v-4.7h15.1V146.5L138.5,146.5
		z"/>
	<path fill="#0E1212" d="M109.9,125.6c0,0-6,2.6-11.3,12c-3.1,5.4-6.6,3.4-7.2,3l-0.1-0.1c0,0-8.1,0.5-7.4,6.2c0,0,0.5,2.1,10.1,1.5
		c0.4,0,0.8,0,1.2-0.1c0.1,0,0.2,0,0.3,0l0,0c2.5-0.5,4.7-2.1,5.9-5.5c1.1-2.9,2.5-4.4,3.7-5.2l0,0c1.3-1,3.2,10.8,3.2,10.8h1.3
		c-0.6-7.5,0.2-11.1,0.9-12.9c0.3-0.4,0.7-0.8,0.9-1.4l0,0l0,0c0.2-0.4,0.3-0.9,0.5-1.4C113.1,128.4,109.9,125.6,109.9,125.6z"/>
	<path fill="#040404" d="M202.8,139.8H216l-7.4-8.6l2.1-1.8l8.7,10.1l6.1-10.8l2.4,1.4l-5.5,9.7h27c1.5,0,2.9,0.6,3.9,1.6h0l0,0
		c1,1,1.6,2.4,1.6,3.9v31.4c0,1.5-0.6,2.9-1.6,3.9l0,0c-1,1-2.4,1.6-3.9,1.6h-8.3v3.6c1.7,0.2,3.4,0.4,5.1,0.6l0.9,0.1v0.9v3.7v1.1
		H246h-38.3h-1.1v-1.1v-3.7v-0.9l0.9-0.1c1.6-0.2,3.2-0.4,4.8-0.6v-3.6h-9.6c-1.5,0-2.9-0.6-3.9-1.6l0,0c-1-1-1.6-2.4-1.6-3.9v-31.4
		c0-1.5,0.6-2.9,1.6-3.9h0C199.9,140.4,201.3,139.8,202.8,139.8L202.8,139.8z M239.5,187.9l-0.1,0l-0.1,0l-0.1,0l-0.2,0h0l-0.2,0
		l-0.1,0l-0.1,0l-0.2,0l0,0l-0.2,0l0,0l-0.2,0l-0.1,0l-0.1,0l-0.2,0l0,0l-0.2,0h-0.1l-0.2,0l-0.1,0l-0.1,0l-0.2,0h0l-0.2,0l-0.1,0
		l-0.1,0l-0.1,0h-0.1l-0.2,0h0l-0.2,0l-0.1,0l-0.1,0l-0.6,0l-0.1,0l-0.1,0c-1.4-0.1-2.7-0.1-4.1-0.2h0l-0.2,0l-0.6,0l0,0h-0.2
		c-0.5,0-1,0-1.4,0l-0.1,0c-0.4,0-0.8,0-1.2,0h-0.6h-0.2h0c-2.2,0-4.4,0.1-6.7,0.2l-0.2,0l0,0l-0.6,0l-0.2,0h0l-0.4,0l-0.2,0l0,0
		l-0.2,0l-0.6,0h0l-0.2,0l-0.1,0l-0.2,0l-0.1,0l-0.1,0l-0.2,0h0l-0.2,0l-0.2,0l-0.2,0h0l-0.2,0h0l-0.2,0l-0.1,0l-0.1,0l-0.2,0l0,0
		l-0.2,0l-0.1,0l-0.2,0l-0.1,0l-0.1,0l-0.2,0l0,0l-0.2,0l-0.1,0l0,0c-1.5,0.1-3.1,0.3-4.7,0.5v1.8H245v-1.8
		C243.2,188.3,241.3,188.1,239.5,187.9L239.5,187.9z M214.5,185.8c2-0.2,4.1-0.3,6.1-0.4h0l0.2,0c2.2-0.1,4.3-0.1,6.5-0.1
		c0.4,0,0.8,0,1.2,0h0c3.6,0,7.1,0.2,10.6,0.5v-3.4h-24.5L214.5,185.8L214.5,185.8L214.5,185.8z M202.8,144c-0.4,0-0.7,0.2-1,0.4v0
		c-0.2,0.2-0.4,0.6-0.4,1v31.4c0,0.4,0.2,0.7,0.4,1v0c0.2,0.2,0.6,0.4,1,0.4h46.6c0.4,0,0.7-0.2,1-0.4v0c0.3-0.3,0.4-0.6,0.4-1
		v-31.4c0-0.4-0.2-0.7-0.4-1l0,0c-0.2-0.2-0.6-0.4-1-0.4C233.6,144,218.5,144,202.8,144L202.8,144z M229,164.6h0.9v-3.3h3.6v3.3h0.9
		v-7h-0.9v2.9h-3.6v-2.9H229V164.6L229,164.6z M236,164.6h2.5c0.4,0,0.8,0,1.1-0.1c0.3-0.1,0.6-0.2,0.8-0.4c0.2-0.2,0.4-0.4,0.6-0.6
		c0.2-0.3,0.4-0.6,0.5-1s0.2-0.9,0.2-1.4c0-0.6-0.1-1.2-0.3-1.7c-0.2-0.5-0.5-0.9-0.8-1.2c-0.3-0.2-0.6-0.4-1-0.5
		c-0.3-0.1-0.7-0.1-1.3-0.1H236L236,164.6L236,164.6z M237,163.8h1.5c0.5,0,0.8,0,1.1-0.1c0.3-0.1,0.5-0.2,0.6-0.4
		c0.2-0.2,0.4-0.5,0.5-0.9c0.1-0.4,0.2-0.8,0.2-1.4c0-0.7-0.1-1.3-0.4-1.7c-0.2-0.4-0.5-0.7-0.9-0.8c-0.2-0.1-0.6-0.1-1.2-0.1H237
		L237,163.8L237,163.8z M225.7,152.6h-1.1v1.1v14.7v1.1h1.1H245h1.1v-1.1v-14.7v-1.1H245H225.7L225.7,152.6z M244,154.7h-17.2v12.6
		H244V154.7L244,154.7z M209,167h1.3v-8.9h3.3v-1.2h-8v1.2h3.3L209,167L209,167z M217.9,167h1.4l3.9-10.1h-1.4l-2.7,7.4
		c-0.2,0.5-0.4,1.1-0.5,1.7c-0.1-0.5-0.3-1.1-0.5-1.7l-2.6-7.4H214L217.9,167z"/>
	<path fill="#040404" d="M163.6,167.4c1,0,1.9,0.2,2.7,0.5c0.8,0.3,1.4,0.7,2,1.3h9.6c0.6-0.5,1.3-1,2-1.3c0.8-0.3,1.8-0.5,2.7-0.5
		c2,0,3.7,0.8,5,2.1c1.3,1.3,2.1,3.1,2.1,5c0,0.5-0.1,1.1-0.2,1.6c-0.1,0.4-0.2,0.9-0.4,1.3l1.1,9.4l0,0.1l0,0.1
		c-0.1,1-0.6,1.8-1.4,2.3c-0.5,0.3-1.1,0.6-1.7,0.8c-0.6,0.2-1.3,0.2-1.9,0.2c-1.2-0.1-2.4-0.6-3.1-1.6l0-0.1l0-0.1l-3.7-8l-10.4,0
		l-3.6,8l0,0.1l0,0.1c-0.7,1-1.9,1.5-3.1,1.6c-0.6,0.1-1.3,0-1.9-0.2c-0.6-0.2-1.2-0.4-1.7-0.8c-0.8-0.6-1.4-1.4-1.4-2.3l0-0.1
		l0-0.1l1.1-9.5c-0.2-0.4-0.3-0.8-0.4-1.2c-0.1-0.5-0.2-1-0.2-1.5c0-2,0.8-3.7,2.1-5C159.8,168.2,161.6,167.4,163.6,167.4
		L163.6,167.4z M169.7,173.8v1.5h2.5v-1.5H169.7L169.7,173.8z M162.2,171.9v1.4h-1.4v2.4h1.4v1.4h2.4v-1.4h1.4v-2.4h-1.4v-1.4H162.2
		L162.2,171.9z M186,167c-1-0.6-2-1-3-1.1c-1-0.1-2.1,0-3.2,0.4l-0.8-2.2c1.4-0.5,2.8-0.7,4.2-0.6c1.4,0.1,2.7,0.6,4,1.4L186,167
		L186,167z M158.3,165c1.3-0.8,2.6-1.3,4-1.4c1.4-0.1,2.8,0,4.2,0.6l-0.8,2.2c-1.1-0.4-2.1-0.5-3.2-0.4c-1,0.1-2,0.5-3,1.1
		L158.3,165L158.3,165z M173.8,173.8v1.5h2.5v-1.5H173.8L173.8,173.8z M181.3,171.9c0,0.7,0.6,1.2,1.3,1.2c0.7,0,1.2-0.6,1.2-1.3
		c0-0.7-0.6-1.2-1.3-1.2C181.8,170.7,181.3,171.3,181.3,171.9L181.3,171.9z M182.1,176.7c0,0.7,0.6,1.2,1.3,1.2
		c0.7,0,1.2-0.6,1.2-1.3c0-0.7-0.6-1.2-1.3-1.2C182.6,175.4,182.1,176,182.1,176.7L182.1,176.7z M185.2,172.6
		c-0.7,0-1.2,0.6-1.2,1.3c0,0.7,0.6,1.2,1.3,1.2c0.7,0,1.2-0.6,1.2-1.3C186.5,173.1,185.9,172.6,185.2,172.6L185.2,172.6z
		 M180.5,173.4c-0.7,0-1.2,0.6-1.2,1.3c0,0.7,0.6,1.2,1.3,1.2c0.7,0,1.2-0.6,1.2-1.3C181.8,173.9,181.2,173.4,180.5,173.4
		L180.5,173.4z M165.6,169.5c-0.6-0.3-1.3-0.4-2-0.4c-1.5,0-2.8,0.6-3.8,1.6c-1,1-1.6,2.3-1.6,3.8c0,0.4,0,0.8,0.1,1.1
		c0.1,0.4,0.2,0.7,0.4,1.1l0.1,0.2l0,0.2l-1.1,9.6c0.1,0.4,0.3,0.7,0.7,1c0.3,0.2,0.7,0.4,1.1,0.5c0.4,0.1,0.9,0.2,1.3,0.1
		c0.7-0.1,1.4-0.3,1.8-0.8l3.8-8.4l0.2-0.5l0.6,0l11.6,0h0.6l0.2,0.5l3.9,8.4c0.4,0.5,1.1,0.8,1.8,0.9c0.5,0,0.9,0,1.3-0.1
		c0.4-0.1,0.8-0.3,1.1-0.5c0.4-0.3,0.6-0.6,0.7-1l-1.1-9.5l0-0.3l0.1-0.2c0.2-0.4,0.3-0.7,0.4-1.1c0.1-0.4,0.1-0.8,0.1-1.2
		c0-1.5-0.6-2.8-1.6-3.8c-1-1-2.3-1.6-3.8-1.6c-0.7,0-1.4,0.1-2,0.4c-0.7,0.3-1.2,0.7-1.7,1.1l-0.3,0.3h-0.4H168h-0.4l-0.3-0.3
		C166.8,170.2,166.3,169.8,165.6,169.5z"/>
	<path fill="#040404" d="M194.2,87.9h14.6c1,0,1.8,0.4,2.5,1v0c0.6,0.6,1,1.5,1,2.5v9c0,1-0.4,1.8-1,2.5v0c-0.6,0.6-1.5,1-2.5,1
		h-14.6c-1,0-1.8-0.4-2.5-1h0c-0.6-0.6-1-1.5-1-2.5V98h-2.7v11.2v0.8h-0.8h-8.4h-0.8v-0.8v-14c-1.2-1.2-1.9-2.9-1.9-4.7
		c0-1.8,0.7-3.5,1.9-4.7V83v-0.8h0.8h8.4h0.8V83v2.9c1.1,1.2,1.8,2.8,1.8,4.5c0,1.7-0.7,3.3-1.8,4.5v0.7h2.7v-4.3c0-1,0.4-1.8,1-2.5
		l0,0C192.3,88.3,193.2,87.9,194.2,87.9L194.2,87.9z M194.5,100.4v0.8h13.3h0l0,0c0.5-0.1,0.9-0.2,1.1-0.5c0.3-0.3,0.4-0.7,0.5-1.1
		v0V91h-0.8v8.5l0,0c0,0.3-0.1,0.5-0.2,0.6c-0.1,0.1-0.4,0.2-0.6,0.3L194.5,100.4L194.5,100.4z M182.3,93.4l-0.1,0.8
		c1,0.1,1.9,0,2.6-0.4c0.6-0.4,1.1-0.9,1.4-1.5c0.3-0.6,0.4-1.4,0.3-2.1c-0.1-0.8-0.5-1.7-1.2-2.4l-0.5,0.5c0.6,0.6,0.9,1.2,0.9,1.9
		c0.1,0.6,0,1.2-0.3,1.7c-0.2,0.5-0.6,0.9-1.1,1.2C183.8,93.3,183.1,93.5,182.3,93.4L182.3,93.4z M179.6,96.3v12.1h6.8V96.2
		c-1,0.6-2.2,1-3.5,1C181.7,97.2,180.6,96.9,179.6,96.3L179.6,96.3z M183.6,83.7c1,0.1,2,0.4,2.8,0.9v-0.9H183.6L183.6,83.7z
		 M179.6,84.6c0.8-0.5,1.7-0.8,2.7-0.9h-2.7V84.6L179.6,84.6z M186.1,87.3c-0.8-0.8-1.9-1.3-3.2-1.3s-2.4,0.5-3.2,1.3
		c-0.8,0.8-1.3,1.9-1.3,3.2c0,1.2,0.5,2.4,1.3,3.2c0.8,0.8,1.9,1.3,3.2,1.3s2.4-0.5,3.2-1.3c0.8-0.8,1.3-1.9,1.3-3.2
		C187.4,89.2,186.9,88.1,186.1,87.3L186.1,87.3z M208.8,89.4h-14.6c-0.5,0-1,0.2-1.4,0.6v0c-0.4,0.4-0.6,0.9-0.6,1.4v9
		c0,0.5,0.2,1,0.6,1.4v0c0.4,0.4,0.9,0.6,1.4,0.6h14.6c0.5,0,1-0.2,1.4-0.6l0,0c0.4-0.4,0.6-0.9,0.6-1.4v-9c0-0.5-0.2-1-0.6-1.4h0
		C209.8,89.6,209.3,89.4,208.8,89.4z"/>
	<path fill="#040404" d="M149.8,143.2H176v-18.4c0-0.2-0.1-0.3-0.2-0.4c-0.1-0.1-0.3-0.2-0.4-0.2h-25c-0.2,0-0.3,0.1-0.5,0.2h0
		c-0.1,0.1-0.2,0.3-0.2,0.5L149.8,143.2L149.8,143.2z M155.2,150.5h2.2l1.1,0.7h-2.2L155.2,150.5L155.2,150.5z M158.7,153h2.2
		l1.1,0.7h-2.2L158.7,153L158.7,153z M176.3,153h2.2l1.1,0.7h-2.2L176.3,153L176.3,153z M162.3,153c0.7,0,1.4,0,2.2,0
		c0.4,0.2,0.7,0.5,1.1,0.7c-0.7,0-1.4,0-2.2,0C163,153.5,162.6,153.2,162.3,153L162.3,153z M165.8,153c0.7,0,1.4,0,2.2,0
		c0.4,0.2,0.7,0.5,1.1,0.7c-0.7,0-1.4,0-2.2,0C166.5,153.5,166.1,153.2,165.8,153L165.8,153z M169.3,153c0.7,0,1.4,0,2.2,0
		c0.4,0.2,0.7,0.5,1.1,0.7c-0.7,0-1.4,0-2.2,0C170,153.5,169.6,153.2,169.3,153L169.3,153z M172.8,153c0.7,0,1.4,0,2.2,0
		c0.4,0.2,0.7,0.5,1.1,0.7c-0.7,0-1.4,0-2.2,0C173.5,153.5,173.2,153.2,172.8,153L172.8,153z M157,151.8h2.2l1.1,0.7H158L157,151.8
		L157,151.8z M174.6,151.8h2.2l1.1,0.7h-2.2L174.6,151.8L174.6,151.8z M160.5,151.8c0.7,0,1.4,0,2.2,0c0.4,0.2,0.7,0.5,1.1,0.7
		c-0.7,0-1.4,0-2.2,0C161.2,152.3,160.9,152,160.5,151.8L160.5,151.8z M164,151.8c0.7,0,1.4,0,2.2,0c0.4,0.2,0.7,0.5,1.1,0.7
		c-0.7,0-1.4,0-2.2,0C164.7,152.3,164.4,152,164,151.8L164,151.8z M167.5,151.8c0.7,0,1.4,0,2.2,0c0.4,0.2,0.7,0.5,1.1,0.7
		c-0.7,0-1.4,0-2.2,0C168.2,152.3,167.9,152,167.5,151.8L167.5,151.8z M171,151.8c0.7,0,1.4,0,2.2,0c0.4,0.2,0.7,0.5,1.1,0.7
		c-0.7,0-1.4,0-2.2,0C171.8,152.3,171.4,152,171,151.8L171,151.8z M172.8,150.5h2.2l1.1,0.7h-2.2L172.8,150.5L172.8,150.5z
		 M158.8,150.5c0.7,0,1.4,0,2.2,0c0.4,0.2,0.7,0.5,1.1,0.7c-0.7,0-1.4,0-2.2,0C159.5,151,159.1,150.8,158.8,150.5L158.8,150.5z
		 M162.3,150.5c0.7,0,1.4,0,2.2,0c0.4,0.2,0.7,0.5,1.1,0.7c-0.7,0-1.4,0-2.2,0C163,151,162.6,150.8,162.3,150.5L162.3,150.5z
		 M165.8,150.5c0.7,0,1.4,0,2.2,0c0.4,0.2,0.7,0.5,1.1,0.7c-0.7,0-1.4,0-2.2,0C166.5,151,166.1,150.8,165.8,150.5L165.8,150.5z
		 M169.3,150.5c0.7,0,1.4,0,2.2,0c0.4,0.2,0.7,0.5,1.1,0.7c-0.7,0-1.4,0-2.2,0C170,151,169.7,150.8,169.3,150.5L169.3,150.5z
		 M151,134.4l6.1-8.3h2.4l-8.5,11.6V134.4L151,134.4z M151,129.6l2.6-3.5h2.4l-5,6.8L151,129.6L151,129.6z M148.6,150.2v1.4l6.8,6.4
		h32.2v-1.7h-0.1h-31.7h-0.3l-0.2-0.2L148.6,150.2L148.6,150.2z M189,156.3l-1.2-1.3l-10-7l-0.2-0.1h-0.2H148l-0.8,1v3v0.3l0.2,0.2
		l7.2,6.8l0.2,0.2h0.3h33.2h0.7v-0.7L189,156.3L189,156.3z M149.9,149.4l6.1,5.5h29.1l-7.9-5.5H149.9L149.9,149.4z M177.5,146.1
		h-29.2h-1.5v-1.5v-19.8c0-1,0.4-1.9,1.1-2.5h0c0.6-0.6,1.5-1.1,2.5-1.1h25c1,0,1.9,0.4,2.5,1c0.6,0.6,1,1.5,1,2.5v19.8v1.5
		L177.5,146.1L177.5,146.1z"/>
	<path fill="#040404" d="M168.1,104.3h-29.8v4.6h29.8V104.3L168.1,104.3z M147.5,88.6c-0.3,1.2-0.2,2.4,0.3,3.6
		c0.3,0.7,0.6,1.4,1.1,1.9l0.4,0.5h-1.6l-0.1-0.1c-0.4-0.6-0.7-1.2-1-1.8c-0.7-1.9-0.6-4,0.2-5.9c0.8-1.9,2.4-3.3,4.3-4
		c1.9-0.7,4-0.6,5.9,0.2c1.9,0.8,3.3,2.4,4,4.3c0.7,1.9,0.6,4-0.2,5.9c-0.2,0.5-0.5,0.9-0.8,1.4l-0.1,0.1h-2.1l-2.4-2.5
		c-0.2,0.1-0.4,0.3-0.6,0.3c-0.7,0.2-1.4,0.2-2-0.1c-0.6-0.3-1.1-0.8-1.4-1.5c-0.1-0.3-0.2-0.7-0.2-1L147.5,88.6L147.5,88.6z
		 M147.8,87.5l1.9,0.7l-1.7-1.1c0,0.1-0.1,0.1-0.1,0.2C147.9,87.3,147.9,87.4,147.8,87.5L147.8,87.5z M148.6,86.1l1.4,0.9l-1.2-1.2
		C148.8,85.9,148.7,86,148.6,86.1L148.6,86.1z M149.6,85l2.7,2.7c0.2-0.1,0.4-0.3,0.6-0.3c0.7-0.2,1.4-0.2,2,0.1
		c0.6,0.3,1.1,0.8,1.4,1.5c0.1,0.3,0.2,0.6,0.2,1l3.7,1.2c0.2-1.2,0.1-2.4-0.3-3.5c-0.6-1.6-1.8-2.9-3.4-3.6
		c-1.5-0.7-3.3-0.8-4.9-0.2C150.8,84.2,150.2,84.5,149.6,85L149.6,85z M159.8,92.2l-2.2-0.7l2,1.3c0-0.1,0.1-0.1,0.1-0.2
		C159.7,92.4,159.8,92.3,159.8,92.2L159.8,92.2z M159,93.7l-1.5-1l1.2,1.3C158.8,93.9,158.9,93.8,159,93.7L159,93.7z M154.4,88.7
		c-0.3-0.1-0.7-0.2-1,0c-0.3,0.1-0.6,0.4-0.8,0.7c-0.1,0.3-0.2,0.7,0,1c0.1,0.3,0.4,0.6,0.7,0.8c0.3,0.1,0.7,0.2,1,0
		c0.3-0.1,0.6-0.4,0.8-0.7c0.1-0.3,0.2-0.7,0-1C155,89.1,154.7,88.8,154.4,88.7L154.4,88.7z M166.3,110.3v1.1h-1.8v-1.1h-23v1.1
		h-1.8v-1.1h-2.1h-0.7v-0.7v-6v-0.7l4.2-6.5l0.2-0.3h0.3h9.9h3.9h9.9h0.3l0.2,0.3l3.7,6.5l0.1,0.2c0,2.2,0,4.3,0,6.5v0.7h-0.7H166.3
		L166.3,110.3z M154.9,107h1.4v0.9h-1.4V107L154.9,107z M156.9,107h1.4v0.9h-1.4V107L156.9,107z M156.9,105.6h1.4v0.9h-1.4V105.6
		L156.9,105.6z M159.1,107h1.4v0.9h-1.4V107L159.1,107z M159.1,105.6h1.4v0.9h-1.4V105.6L159.1,105.6z M154.9,105.6h1.4v0.9h-1.4
		V105.6L154.9,105.6z M139.9,105.6h12.4v1.5h-12.4V105.6L139.9,105.6z M138.6,102.9h29.3l-2.9-5.7h-9.6h-3.9h-9.6L138.6,102.9z"/>
	<path fill="#040404" d="M182.7,115.8l2.4-1.8l0.2-0.2h0.2h4h0.8h2.9v1.5h-2.1v2.5h2.8h0.5v0.5v3.7v0.5h-0.5h-1v0.8l2.1,0.6v0
		c0.4,0.1,0.7,0.3,0.9,0.7c0.2,0.3,0.3,0.7,0.3,1.2l0,0v9v0l0,0c0,0.4-0.2,0.8-0.4,1.1c-0.3,0.3-0.6,0.5-1.1,0.5l0,0h0h-2h-4.7h-2h0
		l0,0c-0.5-0.1-0.8-0.2-1.1-0.5c-0.3-0.3-0.4-0.6-0.4-1.1l0,0v0v-9l0,0c0-0.5,0.1-0.9,0.3-1.2c0.2-0.3,0.5-0.6,0.9-0.7v0l2.1-0.6
		v-0.8h-1h-0.5V122v-3.7v-0.5h0.5h2.9v-2.5h-3.7l-2.2,1.6L182.7,115.8L182.7,115.8z M181.6,119.6c-0.2,0.4-0.4,0.8-0.3,1.2
		c0.1,0.2,0.2,0.3,0.3,0.3c0.1,0,0.1,0,0.2,0c0.1,0,0.1,0,0.2-0.1c0.1-0.1,0.1-0.1,0.1-0.2c0-0.3-0.1-0.5-0.3-0.8
		C181.7,120,181.6,119.8,181.6,119.6L181.6,119.6z M180.4,121.2c0.2,0.5,0.5,0.8,0.8,0.9c0.2,0.1,0.5,0.1,0.7,0.1
		c0.2,0,0.4-0.1,0.6-0.2c0.3-0.2,0.5-0.6,0.5-0.9c0-0.5-0.2-0.9-0.4-1.2c-0.1-0.2-0.2-0.4-0.2-0.6c0-0.5,0-0.6,0-0.6l-0.1-0.9
		l-0.7,0.3C181.7,118,179.9,119.7,180.4,121.2L180.4,121.2z M191.9,122.5h-1.2c-0.3,2.4,0.1,4.4,0.7,6.6h2.9h0.3v0.3v4.7v0.3h-0.3
		h-7.8h-0.3v-0.3v-4.7v-0.3h0.3h3.9c-0.5-2.2-0.9-4.2-0.7-6.6h-1v1.1v0.4l-0.4,0.1l-2.5,0.8l0,0c-0.1,0-0.2,0.1-0.3,0.2
		c-0.1,0.1-0.1,0.3-0.1,0.6h0v9c0,0.2,0.1,0.4,0.2,0.5c0.1,0.1,0.2,0.2,0.4,0.2h2h4.7h2c0.2,0,0.3-0.1,0.4-0.2
		c0.1-0.1,0.2-0.3,0.2-0.5v-9h0c0-0.3-0.1-0.5-0.1-0.6c-0.1-0.1-0.2-0.2-0.3-0.2l0,0l-2.5-0.8l-0.4-0.1v-0.4L191.9,122.5
		L191.9,122.5z M193.4,118.8h-6.2v2.6h6.2V118.8L193.4,118.8z M191.5,129.6c0.1,0.3,0.2,0.6,0.2,0.9c0.1,0.3,0.2,0.6,0.3,1.1l-1,0.3
		c-0.1-0.3-0.2-0.7-0.3-1.1c-0.1-0.4-0.2-0.8-0.3-1.2h-3.7v4.2h7.3v-4.2L191.5,129.6L191.5,129.6z"/>
	<path fill="#040404" d="M254.8,126.7l-1.2,4.3l-0.5-0.2l1.2-4.3L254.8,126.7L254.8,126.7z M234,124.7l-0.6,0.2l0,0.7
		c0,1.5,0.2,2.9,0.6,4.3c0.4,1.4,0.9,2.8,1.6,4.1l0.3,0.6l0.6-0.2l2.3-0.6c0.6-0.2,1.1-0.6,1.5-1.1c0.3-0.5,0.4-1.2,0.3-1.8l-1.3-5
		c-0.2-0.6-0.6-1.1-1.1-1.5c-0.4-0.2-0.9-0.4-1.4-0.3c0-0.2,0-0.4,0-0.6c0.1-2.6,1.2-4.5,2.7-5.7c3.4-2.7,8.9-2.7,12.3,0
		c1.5,1.2,2.6,3,2.7,5.7c0,0.2,0,0.4,0,0.6c-0.4,0-0.8,0.1-1.2,0.3c-0.5,0.3-0.9,0.8-1.1,1.5l0,0.1l0,0l-1.3,4.9
		c-0.2,0.6-0.1,1.3,0.3,1.8c0.3,0.5,0.8,0.9,1.5,1.1l2.3,0.6l0.6,0.2l0.3-0.6c0.7-1.3,1.3-2.7,1.6-4.1c0.4-1.4,0.5-2.8,0.6-4.3
		l0-0.7l-0.6-0.2l-0.9-0.2c0-0.4,0-0.7,0-1.1c-0.1-3.3-1.5-5.7-3.4-7.2c-4.1-3.3-10.7-3.3-14.8,0c-1.9,1.5-3.3,3.9-3.4,7.2
		c0,0.4,0,0.7,0,1.1L234,124.7L234,124.7z M236.7,125.8c0.2,0,0.4,0,0.5,0.1c0.2,0.1,0.3,0.2,0.3,0.4l1.3,5c0,0.2,0,0.4-0.1,0.5
		c-0.1,0.2-0.2,0.3-0.4,0.3l-1.7,0.4c-0.5-1-0.9-2-1.2-3.1c-0.3-1.1-0.4-2.1-0.5-3.3L236.7,125.8L236.7,125.8z M256.1,126.2
		l-1.5-0.4l-0.1,0c-0.2,0-0.4,0-0.5,0.1c-0.2,0.1-0.3,0.2-0.3,0.4l0,0l-1.3,5c0,0.2,0,0.4,0.1,0.5c0.1,0.2,0.2,0.3,0.4,0.3l1.7,0.4
		c0.5-1,0.9-2,1.2-3.1C255.9,128.4,256,127.3,256.1,126.2L256.1,126.2z M237,126.6l1.2,4.3l-0.5,0.2l-1.2-4.3L237,126.6z"/>
	<path fill="#040404" d="M119.1,173c5.2-0.8,10.5-1.3,15.7-1.3c0.4-0.8,0.9-1.5,1.5-2.1c1.5-1.5,3.5-2.4,5.7-2.4s4.2,0.9,5.7,2.4
		c0.8,0.8,1.5,1.9,1.9,3c0.9,0.1,1.7,0.2,2.6,0.4l0.7,0.1v0.7v10.2v0.6l-0.6,0.2c-0.8,0.2-1.7,0.4-2.5,0.6l0.4,0l1.3,4.7h-3.1
		l-2.3-4c-3.5,0.6-6.9,0.8-10.4,0.8c-3.2,0-6.4-0.3-9.6-0.7l-2.2,3.9h-3.2l1.2-4.6c-1-0.2-2-0.4-2.9-0.7l-0.6-0.1v-0.6v-10.2v-0.7
		L119.1,173L119.1,173z M140.8,179.5l-0.1,0.8c1.4,0.2,2.7-0.1,3.7-0.6c0.9-0.5,1.6-1.3,2-2.2c0.4-0.9,0.6-1.9,0.5-2.9
		c-0.1-1.2-0.7-2.3-1.6-3.3l-0.6,0.5c0.8,0.8,1.3,1.9,1.4,2.9c0.1,0.9-0.1,1.7-0.4,2.5c-0.4,0.7-0.9,1.4-1.7,1.8
		C143.2,179.4,142.1,179.6,140.8,179.5L140.8,179.5z M122.5,176.5v1.1h8.3v-1.1H122.5L122.5,176.5z M122.5,179.9v1.1h8.3v-1.1H122.5
		L122.5,179.9z M122.5,178.1v1.1h8.3v-1.1H122.5L122.5,178.1z M134.2,173.2c-4.7,0.1-9.5,0.5-14.2,1.2v8.9c5.2,1.3,10.5,2,15.7,2
		c5.2,0,10.4-0.6,15.7-2v-8.9c-0.4-0.1-0.9-0.1-1.3-0.2c0,0.4,0.1,0.7,0.1,1.1c0,2.2-0.9,4.2-2.4,5.7c-1.5,1.5-3.5,2.4-5.7,2.4
		s-4.2-0.9-5.7-2.4c-1.5-1.5-2.4-3.5-2.4-5.7C133.9,174.6,134,173.9,134.2,173.2L134.2,173.2z M146.1,171.3c-1-1-2.5-1.7-4.1-1.7
		c-1.6,0-3,0.6-4.1,1.7c-1,1-1.7,2.5-1.7,4.1c0,1.6,0.6,3,1.7,4c1,1,2.5,1.7,4.1,1.7s3-0.6,4.1-1.7c1-1,1.7-2.5,1.7-4
		C147.8,173.7,147.1,172.3,146.1,171.3z"/>
	<rect x="201.7" y="107.9" fill="#0E1212" width="0.6" height="1.3"/>
</g>
</svg>
