<?xml version="1.0" encoding="utf-8"?>
<!-- Generator: Adobe Illustrator 17.1.0, SVG Export Plug-In . SVG Version: 6.00 Build 0)  -->
<svg version="1.2" baseProfile="tiny" id="Layer_1" xmlns="http://www.w3.org/2000/svg" xmlns:xlink="http://www.w3.org/1999/xlink"
	 x="0px" y="0px" viewBox="0 328 640 574" xml:space="preserve">
<g>
			<path fill="#6B8772" d="M422.1,417.1c0,43.3-41.6,78.5-93,78.5c-51.4,0-93-35.1-93-78.5c0-43.3,41.6-78.5,93-78.5
				C380.5,338.7,422.1,373.8,422.1,417.1z"/>
			<path fill="#BECEC2" d="M398.1,417.1c0,32.2-30.9,58.2-69,58.2c-38.1,0-69-26.1-69-58.2c0-32.2,30.9-58.2,69-58.2
				C367.3,358.9,398.1,385,398.1,417.1z"/>
			<path fill="#7CA588" d="M351.3,551.6c0,12-9.7,21.8-21.8,21.8l0,0c-12,0-21.8-9.7-21.8-21.8V415.5c0-12,9.7-21.8,21.8-21.8l0,0
				c12,0,21.8,9.7,21.8,21.8V551.6z"/>
			<path fill="#6B8772" d="M329.6,393.8c-1.5,0-2.9,0.1-4.2,0.4c10,2,17.5,10.8,17.5,21.4v136.1c0,10.6-7.5,19.4-17.5,21.4
				c1.4,0.3,2.8,0.4,4.2,0.4c12,0,21.8-9.7,21.8-21.8V415.5C351.3,403.5,341.6,393.8,329.6,393.8z"/>
			<path fill="#2A421D" d="M329.6,595.3c97.5,0,178.1,41.6,191,95.7c1.2-5,1.9-10,1.9-15.2c0-33.8-18.4-60-48.6-78.4
				c-9.4-48.6-70.4-86.1-144.3-86.1c-72.6,0-132.8,36.3-143.8,83.7c-30.5,17.9-49.1,44.4-49.1,80.8c0,5.2,0.7,10.2,1.9,15.2
				C151.5,636.9,232,595.3,329.6,595.3z"/>
			<path fill="#7CA588" d="M473.9,597.3c-9.4-48.6-70.4-86.1-144.3-86.1c-72.6,0-132.8,36.3-143.8,83.7
				C155.3,612.8,291.2,518.9,473.9,597.3z"/>
			<path fill="#6B8772" d="M321.1,519.7c66.8,0,123.1,30.7,140.2,72.5c4.2,1.6,8.4,3.4,12.6,5.2c-9.4-48.6-70.4-86.1-144.3-86.1
				c-52.7,0-98.9,19.1-124.4,47.7C231.7,535.1,273.8,519.7,321.1,519.7z"/>
			<path fill="#587583" d="M510,706.1c0,57.3-80.8,103.7-180.4,103.7s-180.4-46.4-180.4-103.7c0-57.3,80.8-103.7,180.4-103.7
				S510,648.8,510,706.1z"/>
			<path fill="#CCCCCC" d="M504,693.7c0,39-75.5,98.2-172,98.2s-177.3-59.2-177.3-98.2c0-39,78.2-87.6,174.6-87.6
				S504,654.7,504,693.7z"/>
			<path fill="#336699" d="M343.1,784.3c-4.2,0-7.8-3.2-8.1-7.4c-0.3-4.4,3.1-8.1,7.6-8.4c3.1-0.2,6.3-0.4,9.3-0.8
				c4.5-0.4,8.4,2.7,8.9,7c0.5,4.3-2.8,8.2-7.2,8.7c-3.3,0.3-6.6,0.6-10,0.8C343.4,784.2,343.3,784.3,343.1,784.3z M304.3,783.5
				c-0.3,0-0.6,0-0.9,0c-3.4-0.3-6.7-0.8-10-1.2c-4.4-0.6-7.5-4.7-6.8-9c0.7-4.3,4.7-7.3,9.2-6.7c3,0.4,6.1,0.8,9.3,1.1
				c4.4,0.5,7.7,4.3,7.2,8.7C311.9,780.4,308.4,783.5,304.3,783.5z M390.8,776.2c-3.5,0-6.7-2.2-7.7-5.6c-1.3-4.2,1.1-8.6,5.4-9.8
				c3-0.9,5.9-1.8,8.8-2.8c4.2-1.5,8.8,0.6,10.4,4.8c1.5,4.1-0.7,8.6-4.9,10.1c-3.1,1.1-6.4,2.1-9.6,3.1
				C392.4,776,391.6,776.2,390.8,776.2z M257.1,773.2c-0.9,0-1.8-0.2-2.7-0.5c-3.2-1.1-6.4-2.4-9.5-3.6c-4.1-1.7-6-6.4-4.2-10.4
				c1.8-4,6.5-5.9,10.6-4.1c2.8,1.2,5.6,2.3,8.6,3.3c4.2,1.5,6.4,6,4.9,10.1C263.5,771.2,260.4,773.2,257.1,773.2z M434.5,755.9
				c-2.5,0-5-1.1-6.5-3.2c-2.6-3.5-1.8-8.5,1.8-11c2.5-1.7,4.8-3.6,6.9-5.4c3.3-2.9,8.5-2.6,11.4,0.6c3,3.3,2.7,8.2-0.6,11.2
				c-2.5,2.2-5.3,4.4-8.2,6.4C437.8,755.4,436.1,755.9,434.5,755.9z M215.1,749.9c-1.9,0-3.8-0.7-5.4-2c-2.7-2.4-5.2-4.8-7.5-7.4
				c-3-3.3-2.6-8.3,0.7-11.1c3.3-2.9,8.5-2.6,11.4,0.7c1.9,2.1,3.9,4.1,6.2,6c3.3,2.9,3.6,7.9,0.6,11.2
				C219.6,749,217.4,749.9,215.1,749.9z M462.3,718.4c-0.6,0-1.1-0.1-1.7-0.2c-4.4-0.9-7.1-5.1-6.2-9.4c0.6-2.6,0.9-5.1,0.9-7.7
				c0-4.4,3.6-7.9,8.1-7.9c4.5,0,8.1,3.5,8.1,7.9c0,3.7-0.4,7.4-1.2,11.1C469.4,715.9,466.1,718.4,462.3,718.4z M193.8,709
				c-4.5,0-8.1-3.5-8.1-7.9c0-3.7,0.4-7.4,1.2-11.1c0.9-4.3,5.2-7,9.6-6c4.4,0.9,7.1,5.1,6.2,9.4c-0.6,2.5-0.9,5.1-0.9,7.7
				C201.9,705.5,198.2,709,193.8,709z M448.9,674.9c-2.2,0-4.5-0.9-6.1-2.7c-1.9-2.1-3.9-4.1-6.2-6c-3.3-2.9-3.6-7.9-0.6-11.2
				c3-3.3,8.1-3.5,11.4-0.6c2.7,2.4,5.2,4.9,7.5,7.4c3,3.3,2.6,8.3-0.7,11.1C452.7,674.2,450.8,674.9,448.9,674.9z M215.2,668.1
				c-2.2,0-4.4-0.9-6-2.6c-3-3.3-2.7-8.2,0.6-11.2c2.5-2.2,5.3-4.4,8.2-6.4c3.6-2.6,8.7-1.8,11.3,1.7c2.6,3.5,1.8,8.5-1.8,11
				c-2.5,1.8-4.8,3.6-6.9,5.4C219,667.4,217.1,668.1,215.2,668.1z M409.1,648.3c-1.1,0-2.1-0.2-3.2-0.6c-2.8-1.2-5.7-2.3-8.6-3.3
				c-4.2-1.5-6.4-6-4.9-10.1c1.5-4.1,6.2-6.2,10.4-4.7c3.2,1.1,6.4,2.4,9.5,3.6c4.1,1.7,6,6.4,4.2,10.4
				C415.2,646.6,412.3,648.3,409.1,648.3z M257.1,644.8c-3.3,0-6.4-2-7.6-5.2c-1.5-4.1,0.7-8.6,4.9-10.1c3.1-1.1,6.4-2.1,9.6-3.1
				c4.3-1.3,8.8,1.1,10.1,5.3c1.3,4.2-1.1,8.6-5.4,9.8c-3,0.9-6,1.8-8.8,2.8C259,644.7,258,644.8,257.1,644.8z M362.5,635.8
				c-0.4,0-0.8,0-1.2-0.1c-3.1-0.4-6.2-0.8-9.3-1.1c-4.4-0.5-7.7-4.3-7.2-8.7s4.5-7.5,8.9-7c3.4,0.3,6.7,0.8,10,1.2
				c4.4,0.6,7.5,4.7,6.8,9C369.9,632.9,366.4,635.8,362.5,635.8z M304.4,634.6c-4.1,0-7.6-3-8-7.1c-0.5-4.3,2.8-8.2,7.2-8.7
				c3.3-0.3,6.6-0.6,10-0.8c4.5-0.3,8.3,3,8.6,7.4c0.3,4.4-3.1,8.1-7.6,8.4c-3.1,0.2-6.3,0.4-9.3,0.8
				C304.9,634.6,304.7,634.6,304.4,634.6z"/>
			<path fill="#336699" d="M339.1,761.3c-3.1,0-5.6-2.3-5.8-5.4c-0.2-3.1,2.3-5.9,5.5-6.1c2.3-0.1,4.5-0.3,6.8-0.5
				c3.2-0.3,6.1,2,6.4,5.1c0.3,3.1-2,5.9-5.2,6.3c-2.4,0.2-4.8,0.4-7.2,0.6C339.3,761.2,339.2,761.3,339.1,761.3z M311,760.7
				c-0.2,0-0.4,0-0.6,0c-2.4-0.2-4.9-0.5-7.2-0.9c-3.2-0.5-5.4-3.4-4.9-6.5c0.5-3.1,3.4-5.3,6.6-4.8c2.2,0.3,4.4,0.6,6.7,0.8
				c3.2,0.3,5.5,3.1,5.2,6.3C316.5,758.5,314,760.7,311,760.7z M373.6,755.4c-2.5,0-4.8-1.6-5.6-4.1c-0.9-3,0.8-6.2,3.9-7.1
				c2.2-0.6,4.3-1.3,6.4-2c3-1.1,6.4,0.5,7.5,3.4c1.1,3-0.5,6.2-3.5,7.3c-2.3,0.8-4.6,1.6-7,2.2
				C374.7,755.3,374.2,755.4,373.6,755.4z M276.9,753.2c-0.7,0-1.3-0.1-2-0.3c-2.3-0.8-4.7-1.7-6.9-2.6c-3-1.2-4.3-4.6-3.1-7.5
				c1.3-2.9,4.7-4.2,7.7-3c2,0.8,4.1,1.6,6.2,2.4c3,1.1,4.6,4.3,3.5,7.3C281.5,751.8,279.2,753.2,276.9,753.2z M405.2,740.7
				c-1.8,0-3.6-0.8-4.7-2.3c-1.9-2.6-1.3-6.1,1.3-8c1.8-1.3,3.5-2.6,5-3.9c2.4-2.1,6.1-1.9,8.3,0.5c2.2,2.4,1.9,6-0.5,8.1
				c-1.8,1.6-3.8,3.2-5.9,4.7C407.6,740.4,406.4,740.7,405.2,740.7z M246.5,736.4c-1.4,0-2.8-0.5-3.9-1.5c-2-1.7-3.8-3.5-5.4-5.3
				c-2.1-2.4-1.9-6,0.5-8.1c2.4-2.1,6.1-1.9,8.3,0.5c1.3,1.5,2.8,3,4.5,4.4c2.4,2.1,2.6,5.7,0.5,8.1
				C249.7,735.8,248.1,736.4,246.5,736.4z M425.3,713.6c-0.4,0-0.8,0-1.2-0.1c-3.2-0.7-5.2-3.7-4.5-6.8c0.4-1.8,0.6-3.7,0.6-5.6
				c0-3.2,2.6-5.7,5.9-5.7c3.2,0,5.9,2.6,5.9,5.7c0,2.7-0.3,5.4-0.9,8C430.5,711.8,428,713.6,425.3,713.6z M231.1,706.8
				c-3.2,0-5.9-2.6-5.9-5.7c0-2.7,0.3-5.4,0.9-8c0.7-3.1,3.8-5,7-4.4c3.2,0.7,5.2,3.7,4.5,6.8c-0.4,1.8-0.6,3.7-0.6,5.6
				C236.9,704.3,234.3,706.8,231.1,706.8z M415.6,682.1c-1.6,0-3.2-0.7-4.4-1.9c-1.3-1.5-2.8-3-4.5-4.4c-2.4-2.1-2.6-5.7-0.5-8.1
				c2.2-2.4,5.9-2.6,8.3-0.5c2,1.7,3.8,3.5,5.4,5.3c2.1,2.4,1.9,6-0.5,8.1C418.4,681.7,417,682.1,415.6,682.1z M246.5,677.2
				c-1.6,0-3.2-0.6-4.4-1.9c-2.2-2.4-1.9-6,0.5-8.1c1.8-1.6,3.8-3.2,5.9-4.7c2.6-1.9,6.3-1.3,8.2,1.3c1.9,2.6,1.3,6.1-1.3,8
				c-1.8,1.3-3.5,2.6-5,3.9C249.3,676.8,247.9,677.2,246.5,677.2z M386.8,662.9c-0.8,0-1.6-0.1-2.3-0.5c-2-0.8-4.1-1.6-6.2-2.4
				c-3-1.1-4.6-4.3-3.5-7.3c1.1-3,4.5-4.5,7.5-3.4c2.3,0.8,4.6,1.7,6.9,2.6c3,1.2,4.3,4.6,3.1,7.5
				C391.3,661.7,389.1,662.9,386.8,662.9z M276.9,660.4c-2.4,0-4.6-1.4-5.5-3.8c-1.1-3,0.5-6.2,3.5-7.3c2.3-0.8,4.6-1.5,7-2.2
				c3.1-0.9,6.4,0.8,7.3,3.8c0.9,3-0.8,6.2-3.9,7.1c-2.2,0.6-4.3,1.3-6.4,2C278.2,660.3,277.5,660.4,276.9,660.4z M353.1,653.8
				c-0.3,0-0.6,0-0.9-0.1c-2.2-0.3-4.4-0.6-6.7-0.8c-3.2-0.3-5.5-3.1-5.2-6.3c0.3-3.1,3.2-5.4,6.4-5.1c2.4,0.2,4.8,0.5,7.2,0.9
				c3.2,0.5,5.4,3.4,4.9,6.5C358.4,651.8,355.9,653.8,353.1,653.8z M311.1,653c-3,0-5.5-2.2-5.8-5.1c-0.3-3.1,2-5.9,5.2-6.3
				c2.4-0.2,4.8-0.4,7.2-0.6c3.3-0.2,6,2.2,6.2,5.4c0.2,3.1-2.3,5.9-5.5,6.1c-2.3,0.1-4.5,0.3-6.8,0.5
				C311.5,653,311.3,653,311.1,653z"/>
			<path fill="#336699" d="M320.3,737.6c-0.3,0-0.5,0-0.8,0c-2.8-0.3-5.6-0.8-8.4-1.4c-3.5-0.8-5.8-4.2-5.1-7.8
				c0.8-3.5,4.2-5.8,7.8-5.1c2.3,0.5,4.8,0.9,7.2,1.2c3.6,0.4,6.2,3.7,5.8,7.3C326.4,735.1,323.6,737.6,320.3,737.6z M351.6,735.9
				c-3,0-5.7-2-6.4-5.1c-0.8-3.5,1.4-7.1,4.9-7.9c2.4-0.6,4.7-1.2,6.9-2c3.4-1.2,7.2,0.6,8.4,4c1.2,3.4-0.6,7.2-4,8.4
				c-2.6,0.9-5.4,1.7-8.2,2.4C352.6,735.8,352.1,735.9,351.6,735.9z M284.5,722.7c-1.7,0-3.3-0.6-4.6-1.9c-2.4-2.4-4.4-5-5.9-7.8
				c-1.7-3.2-0.6-7.2,2.6-8.9c3.2-1.7,7.2-0.6,8.9,2.6c0.9,1.6,2.1,3.2,3.6,4.7c2.6,2.6,2.6,6.7,0,9.3
				C287.9,722.1,286.2,722.7,284.5,722.7z M383.4,714.9c-0.9,0-1.8-0.2-2.6-0.6c-3.3-1.5-4.8-5.3-3.4-8.7c0.7-1.6,1.1-3.3,1.1-5
				c0-3.6,2.9-6.6,6.6-6.6c3.6,0,6.6,2.9,6.6,6.6c0,3.5-0.7,7-2.2,10.3C388.4,713.4,386,714.9,383.4,714.9z M287.7,688.9
				c-2,0-3.9-0.9-5.2-2.5c-2.2-2.9-1.7-7,1.1-9.2c2.3-1.8,4.8-3.4,7.5-4.9c3.2-1.7,7.2-0.5,8.9,2.7c1.7,3.2,0.5,7.2-2.7,8.9
				c-2.1,1.1-4,2.4-5.7,3.7C290.5,688.4,289.1,688.9,287.7,688.9z M370.2,685.8c-1.2,0-2.3-0.3-3.4-0.9c-1.9-1.1-4-2.2-6.2-3.1
				c-3.3-1.4-4.9-5.3-3.5-8.6c1.4-3.3,5.3-4.9,8.6-3.5c2.8,1.2,5.4,2.5,7.9,4c3.1,1.9,4.1,5.9,2.2,9
				C374.6,684.7,372.4,685.8,370.2,685.8z M324.5,676.5c-3.4,0-6.3-2.6-6.5-6.1c-0.3-3.6,2.5-6.8,6.1-7c2.3-0.2,4.7-0.3,7.1-0.3
				l1.3,0c3.6,0,6.5,3,6.5,6.7c0,3.6-3,6.5-6.7,6.5l-1.1,0c-2.1,0-4.2,0.1-6.2,0.2C324.8,676.5,324.7,676.5,324.5,676.5z"/>
			<path fill="#336699" d="M348.2,703.4c0,5.4-8.4,9.8-18.7,9.8c-10.3,0-18.7-4.4-18.7-9.8c0-5.4,8.4-9.8,18.7-9.8
				C339.9,693.6,348.2,698,348.2,703.4z"/>

			<path fill="#45CFEF" d="M357.2,760.4c0,12.2-9.9,22.2-22.2,22.2c-12.2,0-22.2-9.9-22.2-22.2s23.5-50.9,23.5-50.9
				C335.4,709.5,357.2,748.1,357.2,760.4z"/>
			<path fill="#45CFEF" d="M222.7,780.2c0,10.4-8.4,18.8-18.8,18.8c-10.4,0-18.8-8.4-18.8-18.8s19.9-43.2,19.9-43.2
				C204.2,737,222.7,769.8,222.7,780.2z"/>
			<path fill="#45CFEF" d="M470.9,716.2c0,8.3-6.7,14.9-14.9,14.9c-8.3,0-14.9-6.7-14.9-14.9s15.8-34.3,15.8-34.3
				C456.2,681.9,470.9,707.9,470.9,716.2z"/>
			<path fill="#45CFEF" d="M301.9,860.6c0,6.9-5.6,12.5-12.5,12.5c-6.9,0-12.5-5.6-12.5-12.5s13.2-28.6,13.2-28.6
				C289.7,832,301.9,853.7,301.9,860.6z"/>
			<path fill="#45CFEF" d="M459.9,884.1c0,7.7-6.3,14-14,14c-7.7,0-14-6.3-14-14s14.8-32,14.8-32C446.2,852.1,459.9,876.4,459.9,884.1z
				"/>
	</g>
</svg>
