<?xml version="1.0" encoding="utf-8"?>
<!-- Generator: Adobe Illustrator 17.1.0, SVG Export Plug-In . SVG Version: 6.00 Build 0)  -->
<!DOCTYPE svg PUBLIC "-//W3C//DTD SVG 1.1//EN" "http://www.w3.org/Graphics/SVG/1.1/DTD/svg11.dtd">
<svg version="1.1" id="Layer_1" xmlns="http://www.w3.org/2000/svg" xmlns:xlink="http://www.w3.org/1999/xlink" x="0px" y="0px"
	 viewBox="0 531 640 318" enable-background="new 0 531 640 318" xml:space="preserve">
<polygon fill="#FFFFFF" points="88.3,572.4 116.8,567 547,568.7 572,594 616.1,797.4 599.8,821 566,835 61,835 35,817 25.1,792.4 
	75.4,581.5 "/>
<g>
	<path fill="#010101" d="M616.1,797.4l-36.4-189.8c-3.5-25-19.5-43.6-43.6-43.6H104.2c-24.1,0-37.4,21.2-43.6,43.6L24.2,797.4
		C19.3,823.1,43.7,841,67.8,841h504.6C596.5,841,619.8,820.6,616.1,797.4z M562,828H78.2c-23.1,0-47.4-18.3-41.8-41.8l34.9-174.7
		c3.2-22.6,18.7-38.2,41.8-38.2h414c23.1,0,38.7,15.6,41.8,38.2l34.9,174.7C607.7,807.3,585.1,828,562,828z"/>
	<g>
		<path fill="#93D7E6" d="M565.3,630.1c-1.6-22.1-12.1-36.1-13.8-38.7c-2.7-4-0.3-12.8-0.3-12.8c-15.3,5.8-21.1,10.4-31.4,10.3
			c-20-0.2-24.9-2.6-24.2-10.2c-15.1,5.7-20.9,10.2-31.1,10.2c-20.1-0.2-25-2.6-24.1-10.3h-0.1c-15.3,5.8-21.1,10.4-31.4,10.3
			c-20-0.2-24.9-2.6-24.2-10.2c-15.1,5.7-20.9,10.2-31.1,10.2c-20.1-0.2-24-2.6-23.2-10.3v0c-15.1,6.4-22.5,9.9-32.3,10.3
			c-0.9,0-1.7,0.1-2.6,0.1h-5.2c-13.5-0.4-17-3.7-16.4-10.2c-15.1,5.7-20.9,10.2-31.1,10.2c-20.1-0.2-25-2.6-24.1-10.3h-0.1
			c-15.3,5.8-21.1,10.4-31.4,10.3c-20-0.2-24.9-2.6-24.2-10.2c-15.1,5.7-20.9,10.2-31.1,10.2c-20.1-0.2-25-2.6-24.1-10.3l-16,12.3
			c-11.9,7.2-17.1,24.3-17.1,39.3L39.1,806.6c5.7,12.3,16.4,21.2,39.1,21.2H562c22.8,0,36.6-11.7,37.8-21.3L565.3,630.1z"/>
		<path fill="#83CCD7" d="M512.5,827.7H122.8c-16.7,0-17.6-13.2-13.5-30.2l25.2-126.3c2.3-16.3,13.5-27.6,30.2-27.6h299.2
			c16.7,0,28,11.3,30.2,27.6l25.2,126.3C522.1,812.7,529.2,827.7,512.5,827.7z"/>
		<path fill="#75CCE4" d="M274,578.5c0,0,0,0.1,0,0.1c0.1,0,0.2-0.1,0.3-0.1H274z"/>
		<path fill="#75CCE4" d="M384.8,578.5c0,0,0,0.1,0,0.1c0.1,0,0.2-0.1,0.3-0.1H384.8z"/>
		<path fill="#75CCE4" d="M163.2,578.5c0,0,0,0.1,0,0.1c0.1,0,0.2-0.1,0.3-0.1H163.2z"/>
		<path fill="#75CCE4" d="M495.6,578.5c0,0,0,0.1,0,0.1c0.1,0,0.2-0.1,0.3-0.1H495.6z"/>
	</g>
	<g>
		<rect x="137" y="578" fill="#747245" width="48" height="7"/>
		<path fill="#747245" d="M144,612h-7v-43.8c0-9.2-4.8-17.2-9.6-17.2h-1.9c-4.8,0-8.8,7-8.8,16H110c0-14,6.7-23,15.6-23h1.9
			c8.3,0,16.6,10.5,16.6,24.2V612z"/>
		<path fill="#747245" d="M187,612h-7v-43.8c0-7.2-1.6-17.2-7-17.2h-1.9c-4.9,0-10.2,7-10.2,16h-6.8c0-14,7.6-23,16.9-23h1.9
			c8.7,0,14,10.7,14,24.2V612z"/>
		<rect x="137" y="599" fill="#747245" width="48" height="6"/>
	</g>
	<path fill="#FFFFFF" d="M141.4,642.1c5.4,7.2,19.9,8.4,21.5-2.8c4.7,10.1,21,11.9,27.4,2.1c3.5,9.9,26.2,10.8,28.7-1.5
		c4.9,11.5,30.7,11.4,32.7-2.7c-5.8,13.6-30.1,5.4-29.3-6.7c-1.2,0-1.3-1.1-2.5-1c2.1,15.3-28.2,21.3-26.5,2.9
		c-0.4-1.1-1.7-1.3-2.9-0.6c-0.4,17-23.1,10.2-25.6-1.8c-2.2,14.3-23.7,15.8-22-0.5c-1.7,0.5-2.7,1.7-3.9,2.6
		c2.5,16.9-24.4,9.1-18-1.3c-4.9,6.6-15.8,18-22.9,4.2c-0.9,0.2-1.6,0.6-2.9,0.4c0.7,11.5,16,15.6,22.9,7.3
		C122.7,648.7,137.7,650,141.4,642.1z"/>
	<path fill="#FFFFFF" d="M231.4,792.2c4.5,6.1,16.8,7.1,18.2-2.3c3.9,8.5,17.8,10.1,23.2,1.8c3,8.4,22.1,9.1,24.3-1.3
		c4.2,9.7,26,9.7,27.7-2.3c-5,11.5-25.5,4.6-24.8-5.7c-1,0-1.1-1-2.2-0.8c1.8,13-23.9,18.1-22.5,2.4c-0.4-0.9-1.5-1.1-2.5-0.5
		c-0.4,14.4-19.6,8.6-21.7-1.5c-1.8,12.1-20.1,13.3-18.6-0.4c-1.4,0.4-2.3,1.4-3.3,2.2c2.1,14.3-20.7,7.7-15.3-1.1
		c-4.1,5.6-13.4,15.2-19.4,3.6c-0.7,0.2-1.4,0.5-2.4,0.4c0.6,9.7,13.6,13.3,19.4,6.2C215.5,797.8,228.2,798.9,231.4,792.2z"/>
	<path fill="#FFFFFF" d="M410.6,671.3c5.4,7.2,19.9,8.4,21.5-2.8c4.7,10.1,21,11.9,27.4,2.1c3.5,9.9,26.2,10.8,28.7-1.5
		c4.9,11.5,30.7,11.4,32.7-2.7c-5.8,13.6-30.1,5.4-29.3-6.7c-1.2,0-1.3-1.1-2.5-1c2.1,15.3-28.2,21.3-26.5,2.9
		c-0.4-1.1-1.7-1.3-2.9-0.6c-0.4,17-23.1,10.2-25.6-1.8c-2.2,14.3-23.7,15.8-22-0.5c-1.7,0.5-2.7,1.7-3.9,2.6
		c2.5,16.9-24.4,9.1-18-1.3c-4.9,6.6-15.8,18-22.9,4.2c-0.9,0.2-1.6,0.6-2.9,0.4c0.7,11.5,16,15.6,22.9,7.3
		C391.8,677.8,406.9,679.1,410.6,671.3z"/>
	<path fill="#FFFFFF" d="M154.6,663c5.9,8.3,21.8,8.2,27.7-0.4c4.4,9.1,24.4,11.6,28.8,0.7c3.8,4.2,14.5,8.6,19.1,2.3
		c-6.7,2.7-19.3,0.7-17.9-8.5c-1.1-0.8-3.2-2.2-4.4-1.7c0.7,16.8-24.9,11.9-24.9-1.1c-1.3-0.3-3.6-1.2-5-0.2
		c0.5,16.1-23.9,12.1-23-0.8c-1.6-0.4-3.9-1-5,0.1c3.7,12.2-12.2,13.4-15.3,5.1C130.4,668.9,151.3,671.6,154.6,663z"/>
	<path fill="#FFFFFF" d="M220.1,737.3c4.9,6.9,18.1,6.8,23-0.3c3.7,7.6,20.3,9.7,23.9,0.5c3.1,3.5,12,7.2,15.9,2
		c-5.6,2.3-16.1,0.6-14.8-7.1c-0.9-0.7-2.6-1.8-3.6-1.4c0.6,13.9-20.7,9.9-20.7-0.9c-1.1-0.3-3-1-4.2-0.2
		c0.4,13.4-19.9,10.1-19.1-0.7c-1.3-0.3-3.2-0.9-4.2,0.1c3.1,10.1-10.1,11.2-12.7,4.2C200,742.2,217.4,744.4,220.1,737.3z"/>
	<path fill="#FFFFFF" d="M390.6,626.4c5.9,8.3,21.8,8.2,27.7-0.4c4.4,9.1,24.4,11.6,28.8,0.7c3.8,4.2,14.5,8.6,19.1,2.3
		c-6.7,2.7-19.3,0.7-17.9-8.5c-1.1-0.8-3.2-2.2-4.4-1.7c0.7,16.8-24.9,11.9-24.9-1.1c-1.3-0.3-3.6-1.2-5-0.2
		c0.5,16.1-23.9,12.1-23-0.8c-1.6-0.4-3.9-1-5,0.1c3.7,12.2-12.2,13.4-15.3,5.1C366.4,632.3,387.3,635,390.6,626.4z"/>
	<path fill="#FFFFFF" d="M152.7,682c-3.3,7.9,12.6,10,15.2,3.4c4.5,6.3,16.6,6.2,21.1-0.3c1.9,3.9,7.4,6.2,12.5,6
		c1-0.6,1.9-1.3,2.7-2.3c0.9-1,1.6-2.1,2.4-3.2c-4.8,5-17,1-17-6.8c-1-0.3-2.7-0.9-3.8-0.2c0.4,12.3-18.3,9.3-17.6-0.6
		c-1.2-0.3-3-0.8-3.8,0.1C167.3,687.4,155.1,688.4,152.7,682z"/>
	<path fill="#FFFFFF" d="M403.1,749c5.4,7.2,19.9,8.4,21.5-2.8c4.7,10.1,21,11.9,27.4,2.1c3.5,9.9,26.2,10.8,28.7-1.5
		c4.9,11.5,30.7,11.4,32.7-2.7c-5.8,13.6-30.1,5.4-29.3-6.7c-1.2,0-1.3-1.1-2.5-1c2.1,15.3-28.2,21.3-26.5,2.9
		c-0.4-1.1-1.7-1.3-2.9-0.6c-0.4,17-23.1,10.2-25.6-1.8c-2.2,14.3-23.7,15.8-22-0.5c-1.7,0.5-2.7,1.7-3.9,2.6
		c2.5,16.9-24.4,9.1-18-1.3c-4.9,6.6-15.8,18-22.9,4.2c-0.9,0.2-1.6,0.6-2.9,0.4c0.7,11.5,16,15.6,22.9,7.3
		C384.4,755.6,399.5,756.9,403.1,749z"/>
	<path fill="#FFFFFF" d="M416.3,769.9c5.9,8.3,21.8,8.2,27.7-0.4c4.4,9.1,24.4,11.6,28.8,0.7c3.8,4.2,14.5,8.6,19.1,2.3
		c-6.7,2.7-19.3,0.7-17.9-8.5c-1.1-0.8-3.2-2.2-4.4-1.7c0.7,16.8-24.9,11.9-24.9-1.1c-1.3-0.3-3.6-1.2-5-0.2
		c0.5,16.1-23.9,12.1-23-0.8c-1.6-0.4-3.9-1-5,0.1c3.7,12.2-12.2,13.4-15.3,5.1C392.1,775.8,413,778.5,416.3,769.9z"/>
	<path fill="#FFFFFF" d="M86.2,742.3c5.9,8.3,21.8,8.2,27.7-0.4c4.4,9.1,24.4,11.6,28.8,0.7c3.8,4.2,14.5,8.6,19.1,2.3
		c-6.7,2.7-19.3,0.7-17.9-8.5c-1.1-0.8-3.2-2.2-4.4-1.7c0.7,16.8-24.9,11.9-24.9-1.1c-1.3-0.3-3.6-1.2-5-0.2
		c0.5,16.1-23.9,12.1-23-0.8c-1.6-0.4-3.9-1-5,0.1c3.7,12.2-12.2,13.4-15.3,5.1C62,748.2,82.8,750.9,86.2,742.3z"/>
	<path fill="#FFFFFF" d="M414.4,788.9c-3.3,7.9,12.6,10,15.2,3.4c4.5,6.3,16.6,6.2,21.1-0.3c1.9,3.9,7.4,6.2,12.5,6
		c1-0.6,1.9-1.3,2.7-2.3c0.9-1,1.6-2.1,2.4-3.2c-4.8,5-17,1-17-6.8c-1-0.3-2.7-0.9-3.8-0.2c0.4,12.3-18.3,9.3-17.6-0.6
		c-1.2-0.3-3-0.8-3.8,0.1C429,794.3,416.8,795.2,414.4,788.9z"/>
	<path fill="#FFFFFF" d="M112.7,785.9c-3.3,7.9,12.6,10,15.2,3.4c4.5,6.3,16.6,6.2,21.1-0.3c1.9,3.9,7.4,6.2,12.5,6
		c1-0.6,1.9-1.3,2.7-2.3c0.9-1,1.6-2.1,2.4-3.2c-4.8,5-17,1-17-6.8c-1-0.3-2.7-0.9-3.8-0.2c0.4,12.3-18.3,9.3-17.6-0.6
		c-1.2-0.3-3-0.8-3.8,0.1C127.2,791.3,115.1,792.2,112.7,785.9z"/>
	<g>
		<path fill="#8EA3AE" d="M514.7,722.9c-16.3,0-29.6,10.9-29.6,24.3c0,13.4,13.2,24.3,29.6,24.3s29.6-10.9,29.6-24.3
			C544.3,733.8,531.1,722.9,514.7,722.9z M514.7,769.3c-14.8,0-26.8-9.9-26.8-22c0-12.2,12-22,26.8-22s26.8,9.9,26.8,22
			C541.5,759.4,529.5,769.3,514.7,769.3z"/>
		<g>
			<g>
				<rect x="509.3" y="719.7" fill="#B75332" width="7" height="1.8"/>
				<rect x="481.1" y="742.7" fill="#B75332" width="2.2" height="5.8"/>
				<rect x="541.8" y="742.7" fill="#B75332" width="2.2" height="5.8"/>
				<rect x="509.3" y="769.5" fill="#B75332" width="7" height="1.8"/>
			</g>
			<g>
				<path fill="#8EA3AE" d="M513.7,729c-12.3,0-22.2,8.2-22.2,18.2c0,10.1,9.9,18.2,22.2,18.2c12.3,0,22.2-8.2,22.2-18.2
					S526,729,513.7,729z M513.7,763.7c-11.1,0-20.1-7.4-20.1-16.5c0-9.1,9-16.5,20.1-16.5c11.1,0,20.1,7.4,20.1,16.5
					C533.8,756.4,524.8,763.7,513.7,763.7z"/>
			</g>
			<path fill="#ED6A57" d="M512.7,721.2c-16.3,0-29.6,10.9-29.6,24.3c0,13.4,13.2,24.3,29.6,24.3s29.6-10.9,29.6-24.3
				C542.3,732.1,529,721.2,512.7,721.2z M512.7,762.1c-11.1,0-20.1-7.4-20.1-16.5c0-9.1,9-16.5,20.1-16.5c11.1,0,20.1,7.4,20.1,16.5
				C532.8,754.7,523.8,762.1,512.7,762.1z"/>
			<path fill="#B75332" d="M512.7,721.2c-16.3,0-29.6,10.9-29.6,24.3c0,13.4,13.2,24.3,29.6,24.3s29.6-10.9,29.6-24.3
				C542.3,732.1,529,721.2,512.7,721.2z M512.7,767.6c-14.8,0-26.8-9.9-26.8-22c0-12.2,12-22,26.8-22s26.8,9.9,26.8,22
				C539.5,757.7,527.5,767.6,512.7,767.6z"/>
			<g>
				<path fill="#587583" d="M532.1,741.3c0.5,1.5,0.7,3.1,0.7,4.7c0,1.6-0.4,3.2-1,4.7c1.6-0.3,3.2-0.5,4.9-0.4
					c1.7,0,3.3,0.3,4.8,0.6c0.4-1.5,0.6-3.1,0.7-4.7c0-1.6-0.1-3.2-0.4-4.7c-1.6,0.3-3.2,0.5-4.9,0.4
					C535.3,741.9,533.6,741.7,532.1,741.3z"/>
				<path fill="#587583" d="M493.3,749.8c-0.5-1.5-0.7-3.1-0.7-4.7c0.1-1.6,0.4-3.2,1-4.7c-1.6,0.3-3.2,0.5-4.9,0.4
					c-1.7,0-3.3-0.3-4.8-0.6c-0.4,1.5-0.6,3.1-0.7,4.7c0,1.6,0.1,3.2,0.4,4.7c1.6-0.3,3.2-0.5,4.9-0.4
					C490.1,749.2,491.7,749.5,493.3,749.8z"/>
				<path fill="#587583" d="M507.5,729.6c1.8-0.4,3.8-0.6,5.7-0.6c2,0,3.9,0.3,5.7,0.8c-0.4-1.3-0.6-2.6-0.5-4c0-1.4,0.3-2.7,0.8-4
					c-1.8-0.3-3.7-0.5-5.7-0.6c-2,0-3.9,0.1-5.7,0.3c0.4,1.3,0.6,2.6,0.5,4C508.2,727,507.9,728.4,507.5,729.6z"/>
				<path fill="#587583" d="M517.9,761.5c-1.8,0.4-3.8,0.6-5.7,0.6c-2,0-3.9-0.3-5.7-0.8c0.4,1.3,0.6,2.6,0.5,4c0,1.4-0.3,2.7-0.8,4
					c1.8,0.3,3.7,0.5,5.7,0.6s3.9-0.1,5.7-0.3c-0.4-1.3-0.6-2.6-0.5-4C517.2,764.1,517.5,762.8,517.9,761.5z"/>
			</g>
			<g>
				<path fill="#E0E8ED" d="M531.9,740.9c0.5,1.5,0.8,3.1,0.8,4.7s-0.3,3.2-0.8,4.7c1.6-0.3,3.2-0.5,4.9-0.5c1.7,0,3.3,0.2,4.9,0.5
					c0.4-1.5,0.6-3.1,0.6-4.7c0-1.6-0.2-3.2-0.6-4.7c-1.6,0.3-3.2,0.5-4.9,0.5C535.2,741.4,533.5,741.2,531.9,740.9z"/>
				<path fill="#E0E8ED" d="M493.4,750.3c-0.5-1.5-0.8-3.1-0.8-4.7c0-1.6,0.3-3.2,0.8-4.7c-1.6,0.3-3.2,0.5-4.9,0.5
					c-1.7,0-3.3-0.2-4.9-0.5c-0.4,1.5-0.6,3.1-0.6,4.7c0,1.6,0.2,3.2,0.6,4.7c1.6-0.3,3.2-0.5,4.9-0.5
					C490.2,749.7,491.9,749.9,493.4,750.3z"/>
				<path fill="#E0E8ED" d="M507,729.7c1.8-0.4,3.7-0.7,5.7-0.7c2,0,3.9,0.2,5.7,0.7c-0.4-1.3-0.7-2.6-0.7-4c0-1.4,0.2-2.7,0.7-4
					c-1.9-0.3-3.8-0.5-5.7-0.5c-2,0-3.9,0.2-5.7,0.5c0.4,1.3,0.7,2.6,0.7,4C507.6,727.1,507.4,728.5,507,729.7z"/>
				<path fill="#E0E8ED" d="M518.4,761.4c-1.8,0.4-3.7,0.7-5.7,0.7s-3.9-0.2-5.7-0.7c0.4,1.3,0.7,2.6,0.7,4c0,1.4-0.2,2.7-0.7,4
					c1.9,0.3,3.8,0.5,5.7,0.5c2,0,3.9-0.2,5.7-0.5c-0.4-1.3-0.7-2.6-0.7-4C517.7,764,518,762.7,518.4,761.4z"/>
			</g>
		</g>
	</g>
</g>
</svg>
