<?xml version="1.0" encoding="utf-8"?>
<!-- Generator: Adobe Illustrator 17.1.0, SVG Export Plug-In . SVG Version: 6.00 Build 0)  -->
<svg version="1.2" baseProfile="tiny" id="Layer_1" xmlns="http://www.w3.org/2000/svg" xmlns:xlink="http://www.w3.org/1999/xlink"
	 x="0px" y="0px" viewBox="0 0 300 300" xml:space="preserve">
<path fill="#CACCC9" d="M106.4,269.2h88.7c-29.7,8.1,0,25.2,0,25.2s-19.5,4.7-47.3,4.7s-41.3-4.7-41.3-4.7S129.9,277.2,106.4,269.2z
	"/>
<path fill="#A0A1A3" d="M106.4,294.3c0,0,10.7,3.7,32.7,4.5c-2.6-4.2-4.1-8.9-4.1-13.8c0-5.8,2-11.2,5.4-15.8h-34.1
	C129.9,277.2,106.4,294.3,106.4,294.3z"/>
<g>
	<ellipse fill="#8F9190" cx="150.4" cy="200.2" rx="100.5" ry="51.7"/>
	<path fill="#D3BE2A" d="M202.6,203.8c0,14.1-23.3,25.5-51.9,25.5s-51.9-11.4-51.9-25.5s23.3-25.5,51.9-25.5
		C179.4,178.4,202.6,189.8,202.6,203.8z"/>
	<path fill="#3C575C" d="M176.5,216.9c0,7-11.5,12.7-25.8,12.7s-25.8-5.6-25.8-12.7c0-7,11.5-12.7,25.8-12.7
		C164.9,204.2,176.5,209.9,176.5,216.9z"/>
	<path fill="#D2D4D1" d="M248,123.8c0,6.9-5.6,12.5-12.5,12.5H63.3c-6.9,0-12.5-5.6-12.5-12.5l-9.9-79.5c0-6.9,5.6-12.5,12.5-12.5
		H248c6.9,0,12.5,5.6,12.5,12.5L248,123.8z"/>
	<path fill="#A6A8A5" d="M245.8,22.4L222.7,8.3H80.5L55.8,22.5c-5.3,1-1.8,6.6-10.1,12.2l-2.2,2.2h214.4l-2-2.2
		C248.7,27.4,251.5,23,245.8,22.4z"/>
	<path fill="#FFFFFF" stroke="#999999" stroke-width="0.5" stroke-miterlimit="10" d="M254.4,17.5L229.1,3.3H73.2L46.1,17.5
		c-5.8,1-10.3,6.1-10.3,12.2v2.2h229.7v-2.2C265.5,23.4,260.7,18.1,254.4,17.5z"/>
	<path fill="#FFFFFF" stroke="#4C4C4B" stroke-miterlimit="10" d="M150.7,135.3c-59.5,0-101,23.2-100.8,51.8
		C50.1,215.8,95,239,150.7,239s100.8-23.2,100.8-51.8C251.5,158.5,206.4,135.4,150.7,135.3z"/>
	<path fill="#CCCCCC" d="M242.3,165.5c2.4,4.3,3.7,8.9,3.7,13.6c0,27.1-42.7,49-95.3,49c-52.6,0-95.1-21.9-95.3-49
		c0-5.1,1.4-10.1,4-14.7c-6.2,6.9-9.5,14.6-9.5,22.8C50.1,215.8,95,239,150.7,239s100.8-23.2,100.8-51.8
		C251.5,179.4,248.2,172.1,242.3,165.5z"/>
	<g>
		<circle fill="none" stroke="#080909" stroke-miterlimit="10" cx="66.5" cy="54.5" r="7.5"/>
		<path fill="#080909" d="M48.2,57.3l13.3,0.2c1,1.7,2.8,2.9,5,2.9c3.2,0,5.8-2.5,5.8-5.7c0-3.2-2.5-5.8-5.7-5.8c-2.1,0-4,1.1-5,2.8
			l-13.3-0.2L48.2,57.3z"/>
	</g>
</g>
<path fill="#E0E2DD" d="M150.7,247.9c-52.1,0-95-20.3-100.2-46.4c-0.4,1.8-0.6,3.6-0.6,5.4c0,28.6,45.1,71.2,100.8,71.2
	s100.8-42.6,100.8-71.2c0-1.8-0.2-3.6-0.6-5.4C245.7,227.5,202.8,247.9,150.7,247.9z"/>
<g>
	<path fill="#9A9C9B" d="M135,257c0-3.3,0.6-6.5,1.8-9.6c-45.7-3.2-81.6-22.2-86.3-45.9c-0.4,1.8-0.6,3.6-0.6,5.4
		c0,27.4,41.5,67.7,93.9,71C138.2,271.6,135,264.5,135,257z"/>
</g>
</svg>
