<?xml version="1.0" encoding="utf-8"?>
<!-- Generator: Adobe Illustrator 17.1.0, SVG Export Plug-In . SVG Version: 6.00 Build 0)  -->
<!DOCTYPE svg PUBLIC "-//W3C//DTD SVG 1.0//EN" "http://www.w3.org/TR/2001/REC-SVG-20010904/DTD/svg10.dtd">
<svg version="1.0" id="Layer_1" xmlns="http://www.w3.org/2000/svg" xmlns:xlink="http://www.w3.org/1999/xlink" x="0px" y="0px"
	 viewBox="0 0 60 60" enable-background="new 0 0 60 60" xml:space="preserve">
<g>
	<path fill="none" stroke="#28BCB5" stroke-width="1.3" stroke-linecap="round" stroke-linejoin="round" stroke-miterlimit="10" d="
		M16.36,53.883c-4.27-2.433-7.941-6.041-10.476-10.667c-7.3-13.319-2.42-30.033,10.899-37.332
		c13.319-7.299,30.033-2.421,37.332,10.898c7.3,13.319,2.42,30.033-10.898,37.333c-7.703,4.222-16.542,4.369-24.038,1.167"/>
	<g>
		<g>
			<path fill="none" stroke="#28BCB5" stroke-linecap="round" stroke-linejoin="round" stroke-miterlimit="10" d="M16.5,53.997
				c0,0,1.334-0.831,2.167-3.497C19.5,47.833,18,46.167,18,46.167s-2.727-0.625-3.334-2.049c-0.327-0.768-0.299-2.343-0.15-4.587
				c0.054-0.812,1.723-5.139,2.412-7.338l-0.165-0.168l-7.186,9.261L7.2,38.94c-0.409-0.409-0.41-0.977-0.009-2.063
				c0.366-0.994,6.846-9.56,7.405-10.186l-0.056-0.945l-4.012,0.967l0.039-2.212h4.897c0.717-2,2.537-2,2.537-2h11.754l0.098-1
				h0.472c0.542,0,2.416-3.018,3.708-3.642l3.467-1.111v14.674l-0.154,0.086c-0.031,0.007-2.366,0.153-2.717,0.087
				c-1.272-0.237-3.541-2.004-4.144-2.482l-1.469-0.107l0.141-1.199l-1.569-0.015l-0.184,1.22c0,0-1.025,0.154-1.027,0.154
				c-0.565,0-1.194,0.851-1.283,2.081c-0.159,2.203,1.262,2.484,1.262,2.484l-0.243,2.648c0,0-1.925-0.038-2.255,1.983
				c-0.23,1.411,1.28,2.194,1.28,2.194s0.395,2.316-0.353,4.111c-0.4,0.961-4.12,1.834-4.12,1.834s1.177,2.066,0.434,4.626
				c-0.741,2.553-1.962,4.034-1.962,4.034l0,0"/>
			<g>
				<g>
					<path fill="#28BCB5" d="M39.742,23.482l15.51,0.075c0.261,0,0.47,0.208,0.469,0.469c-0.001,0.258-0.213,0.467-0.471,0.465
						l-15.51-0.069c-0.259-0.002-0.47-0.214-0.47-0.471C39.272,23.691,39.484,23.481,39.742,23.482z"/>
				</g>
				<g>
					<path fill="#28BCB5" d="M39.679,20.575l14.346-2.177c0.257-0.043,0.498,0.129,0.543,0.382c0.044,0.255-0.126,0.5-0.383,0.542
						L39.84,21.498c-0.254,0.046-0.497-0.128-0.542-0.381C39.254,20.86,39.426,20.617,39.679,20.575z"/>
				</g>
				<g>
					<path fill="#28BCB5" d="M39.621,17.652l12.84-3.366c0.245-0.087,0.513,0.036,0.6,0.282c0.089,0.243-0.039,0.511-0.283,0.598
						l-12.84,3.368c-0.243,0.088-0.512-0.041-0.6-0.283C39.25,18.006,39.379,17.739,39.621,17.652z"/>
				</g>
				<g>
					<path fill="#28BCB5" d="M39.865,29.371l12.803,3.504c0.245,0.09,0.369,0.358,0.278,0.602c-0.087,0.242-0.355,0.369-0.6,0.277
						l-12.807-3.505c-0.242-0.088-0.367-0.358-0.277-0.602C39.351,29.405,39.621,29.28,39.865,29.371z"/>
				</g>
				<g>
					<path fill="#28BCB5" d="M39.803,26.404l14.328,2.318c0.256,0.047,0.426,0.29,0.38,0.546c-0.046,0.253-0.291,0.424-0.546,0.378
						L39.637,27.33c-0.253-0.046-0.423-0.29-0.378-0.546C39.306,26.53,39.55,26.361,39.803,26.404z"/>
				</g>
			</g>
		</g>
	</g>
</g>
</svg>
