<?xml version="1.0" encoding="utf-8"?>
<!-- Generator: Adobe Illustrator 17.1.0, SVG Export Plug-In . SVG Version: 6.00 Build 0)  -->
<!DOCTYPE svg PUBLIC "-//W3C//DTD SVG 1.1 Tiny//EN" "http://www.w3.org/Graphics/SVG/1.1/DTD/svg11-tiny.dtd">
<svg version="1.1" baseProfile="tiny" id="Layer_1" xmlns="http://www.w3.org/2000/svg" xmlns:xlink="http://www.w3.org/1999/xlink"
	 x="0px" y="0px" viewBox="0 0 60 60" xml:space="preserve">
<g>
	<path fill="none" stroke="#28BCB5" stroke-width="1.3" stroke-miterlimit="10" d="M9.091,12.615
		C14.134,6.683,21.631,2.948,30,2.983c15.188,0.065,27.5,12.312,27.5,27.5s-12.312,27.5-27.5,27.5S2.42,45.671,2.5,30.483
		c0.028-5.266,1.502-10.174,4.042-14.343"/>
	<g>
		<g>
			<polygon fill="#28BCB5" points="15.807,46.354 13.071,19.735 5.809,16.93 6.171,15.996 14.003,19.024 16.71,45.346 
				44.819,45.116 44.827,46.116 			"/>
			<polygon fill="#28BCB5" points="44.774,41 15,41 15,40 43.895,40 46.233,22 13,22 13,21 47.372,21 			"/>
			<path fill="#28BCB5" d="M20.378,51.268c-1.632,0-2.959-1.327-2.959-2.958c0-1.632,1.327-2.96,2.959-2.96
				c1.632,0,2.959,1.328,2.959,2.96C23.337,49.941,22.009,51.268,20.378,51.268z M20.378,46.35c-1.08,0-1.959,0.879-1.959,1.96
				c0,1.08,0.879,1.958,1.959,1.958s1.959-0.878,1.959-1.958C22.337,47.229,21.458,46.35,20.378,46.35z"/>
			<path fill="#28BCB5" d="M40.866,51.268c-1.632,0-2.96-1.327-2.96-2.958c0-1.632,1.328-2.96,2.96-2.96
				c1.631,0,2.958,1.328,2.958,2.96C43.824,49.941,42.497,51.268,40.866,51.268z M40.866,46.35c-1.081,0-1.96,0.879-1.96,1.96
				c0,1.08,0.879,1.958,1.96,1.958c1.08,0,1.958-0.878,1.958-1.958C42.824,47.229,41.946,46.35,40.866,46.35z"/>
		</g>
		<rect x="22" y="21" fill="#28BCB5" width="1" height="19"/>
		<rect x="33" y="21" fill="#28BCB5" width="1" height="19"/>
	</g>
</g>
</svg>
