<?xml version="1.0" encoding="utf-8"?>
<!-- Generator: Adobe Illustrator 17.1.0, SVG Export Plug-In . SVG Version: 6.00 Build 0)  -->
<!DOCTYPE svg PUBLIC "-//W3C//DTD SVG 1.0//EN" "http://www.w3.org/TR/2001/REC-SVG-20010904/DTD/svg10.dtd">
<svg version="1.0" id="Layer_1" xmlns="http://www.w3.org/2000/svg" xmlns:xlink="http://www.w3.org/1999/xlink" x="0px" y="0px"
	 viewBox="0 0 60 60" enable-background="new 0 0 60 60" xml:space="preserve">
<g>
	<path fill="none" stroke="#28BCB5" stroke-width="1.3" stroke-linecap="round" stroke-linejoin="round" stroke-miterlimit="10" d="
		M14.803,7.455c4.093-2.719,8.967-4.375,14.238-4.559c15.179-0.53,27.912,11.345,28.442,26.524
		c0.53,15.179-11.345,27.913-26.523,28.443C15.781,58.392,3.047,46.517,2.517,31.338C2.21,22.56,6.053,14.599,12.285,9.344"/>
	<g>
		<g>
			<path fill="#28BCB5" d="M12.099,9.078c0.203-0.241,0.563-0.271,0.804-0.068c1.481,1.248,1.849,2.479,2.358,4.183
				c0.16,0.536,0.342,1.143,0.58,1.824c0.858,2.465,2.612,4.076,2.63,4.091c0.233,0.212,0.245,0.575,0.039,0.807
				c-0.211,0.232-0.573,0.25-0.806,0.039c-0.081-0.073-1.988-1.824-2.942-4.56c-0.245-0.707-0.431-1.327-0.594-1.874
				c-0.487-1.626-0.78-2.608-2-3.637C11.926,9.678,11.896,9.318,12.099,9.078z"/>
		</g>
		<g>
			<path fill="#28BCB5" d="M28.319,28.373l14.657,13.07c0.237,0.21,0.258,0.57,0.048,0.806c-0.209,0.235-0.57,0.257-0.805,0.046
				L27.561,29.226c-0.235-0.209-0.256-0.571-0.047-0.806C27.723,28.185,28.084,28.164,28.319,28.373z"/>
		</g>
		<g>
			<path fill="#28BCB5" d="M30.604,25.673l16.318,10.892c0.269,0.167,0.353,0.517,0.187,0.785c-0.164,0.267-0.516,0.352-0.785,0.185
				L30.005,26.644c-0.267-0.164-0.351-0.517-0.186-0.784C29.985,25.591,30.337,25.508,30.604,25.673z"/>
		</g>
		<g>
			<path fill="#28BCB5" d="M32.904,22.963l17.627,8.49c0.293,0.117,0.437,0.447,0.319,0.741c-0.116,0.293-0.446,0.436-0.741,0.318
				l-17.627-8.488c-0.292-0.115-0.435-0.449-0.32-0.74C32.279,22.989,32.611,22.848,32.904,22.963z"/>
		</g>
		<g>
			<path fill="#28BCB5" d="M23.69,33.835L34.139,50.38c0.15,0.279,0.047,0.624-0.231,0.774c-0.275,0.149-0.621,0.048-0.772-0.233
				L22.688,34.375c-0.149-0.276-0.046-0.624,0.23-0.772C23.195,33.452,23.542,33.557,23.69,33.835z"/>
		</g>
		<g>
			<path fill="#28BCB5" d="M26.022,31.085l12.686,14.972c0.196,0.247,0.154,0.606-0.094,0.802c-0.247,0.195-0.605,0.154-0.801-0.094
				L25.128,31.793c-0.195-0.246-0.154-0.605,0.094-0.801C25.468,30.797,25.828,30.839,26.022,31.085z"/>
		</g>
		<path fill="#28BCB5" d="M18.107,19.799c-3.525,3.985-3.286,9.685,0.545,13.102c0.013,0.014,0.193,0.149,0.209,0.163
			c0.049,0.04,0.292,0.193,1.996,1.289l0.751-0.838l0.055-0.061l10.629-11.867l0.109-0.122l0.522-0.583
			c-1.265-1.586-1.62-1.954-1.621-1.956C27.444,15.514,21.642,15.805,18.107,19.799z M31.656,20.798l-10.793,12.05
			c-0.025,0.028-0.09,0.013-0.111,0.042c-0.834-0.524-1.017-0.628-1.106-0.698c-0.006-0.006-0.109-0.105-0.116-0.11
			c-3.379-2.99-3.639-8.131-0.529-11.646c3.108-3.512,8.334-3.792,11.713-0.812c0.021,0.021,0.265,0.275,0.921,1.103
			C31.626,20.737,31.665,20.788,31.656,20.798z"/>
	</g>
</g>
</svg>
