<?xml version="1.0" encoding="utf-8"?>
<!-- Generator: Adobe Illustrator 17.1.0, SVG Export Plug-In . SVG Version: 6.00 Build 0)  -->
<!DOCTYPE svg PUBLIC "-//W3C//DTD SVG 1.0//EN" "http://www.w3.org/TR/2001/REC-SVG-20010904/DTD/svg10.dtd">
<svg version="1.0" id="Layer_1" xmlns="http://www.w3.org/2000/svg" xmlns:xlink="http://www.w3.org/1999/xlink" x="0px" y="0px"
	 viewBox="0 0 60 60" enable-background="new 0 0 60 60" xml:space="preserve">
<g>
	<g>
		<g>
			<path fill="none" stroke="#28BCB5" stroke-miterlimit="10" d="M32.648,57.074c2.569-1.228,3.75-4.199,3.608-7.554l0.523-19.509
				c-0.001-0.015-0.004-0.052-0.005-0.067c-0.417,0.015-0.883-0.047-1.43-0.173l-1.392,0.046c-2.523-0.58-2.874-2.625-2.443-4.499
				l0.509-2.112c-1.027-0.433-2.155-0.575-3.342-0.525l-0.578,0.024c-4.297,0.181-7.636,3.728-7.455,8.025l2.167,19.4
				c0.146,3.445,1.646,6.356,4.45,7.301"/>
			<path fill="none" stroke="#28BCB5" stroke-miterlimit="10" d="M31.878,34.028c0.043,8.055-0.828,14.879,0.849,20.083"/>
			<path fill="none" stroke="#28BCB5" stroke-miterlimit="10" d="M38.863,14.463l-0.047-0.011c-0.399-0.092-0.791-0.129-1.177-0.143
				c0.497,1.06,0.35,1.952-1.093,2.685l-0.674,0.601c-1.078,0.547-1.907,0.242-2.499-0.384l-1.864,8.107
				c-0.431,1.873-0.08,3.919,2.443,4.499l1.392-0.046c2.522,0.58,3.572-0.411,4.003-2.285l3.305-8.582
				C43.082,17.031,41.386,15.043,38.863,14.463z"/>
			<path fill="none" stroke="#28BCB5" stroke-miterlimit="10" d="M37.589,14.194c0.564,1.111,0.453,2.04-1.043,2.8l-0.674,0.601
				c-1.496,0.759-2.521-0.113-3.084-1.224l-2.565-5.057c-0.564-1.111,0.192-2.627,1.689-3.387l0.028-0.014
				c1.497-0.759,3.167-0.474,3.73,0.637L37.589,14.194z"/>
			<path fill="none" stroke="#28BCB5" stroke-miterlimit="10" d="M24.374,29.505c0.043,8.055,2.514,19.578,4.19,24.782"/>
		</g>
		<line fill="none" stroke="#28BCB5" stroke-miterlimit="10" x1="24.18" y1="25.604" x2="21.904" y2="20.266"/>
		<line fill="none" stroke="#28BCB5" stroke-miterlimit="10" x1="28.08" y1="22.312" x2="28.194" y2="18.138"/>
		<line fill="none" stroke="#28BCB5" stroke-miterlimit="10" x1="41.016" y1="15.425" x2="42.448" y2="11.883"/>
		<line fill="none" stroke="#28BCB5" stroke-miterlimit="10" x1="31.328" y1="10.126" x2="28.408" y2="7.706"/>
		<line fill="none" stroke="#28BCB5" stroke-miterlimit="10" x1="41.675" y1="21.131" x2="46.67" y2="20.92"/>
		<line fill="none" stroke="#28BCB5" stroke-miterlimit="10" x1="22.673" y1="38.465" x2="18.867" y2="36.963"/>
		<line fill="none" stroke="#28BCB5" stroke-miterlimit="10" x1="35.28" y1="43.944" x2="38.929" y2="39.574"/>
	</g>
	<path fill="none" stroke="#28BCB5" stroke-width="1.3" stroke-linecap="round" stroke-linejoin="round" stroke-miterlimit="10" d="
		M28.377,57.434c-4.9-0.37-9.763-2.058-14.035-5.152c-12.3-8.909-15.049-26.102-6.14-38.403c8.909-12.3,26.102-15.05,38.403-6.141
		c12.301,8.909,15.05,26.103,6.141,38.403c-5.153,7.114-13.076,11.033-21.222,11.35"/>
</g>
</svg>
