<?xml version="1.0" encoding="utf-8"?>
<!-- Generator: Adobe Illustrator 17.1.0, SVG Export Plug-In . SVG Version: 6.00 Build 0)  -->
<!DOCTYPE svg PUBLIC "-//W3C//DTD SVG 1.1 Tiny//EN" "http://www.w3.org/Graphics/SVG/1.1/DTD/svg11-tiny.dtd">
<svg version="1.1" baseProfile="tiny" id="Layer_1" xmlns="http://www.w3.org/2000/svg" xmlns:xlink="http://www.w3.org/1999/xlink"
	 x="0px" y="0px" viewBox="0 0 60 60" xml:space="preserve">
<g>
	<g>
		<g>
			<g>
				<path fill="#28BCB5" d="M34.54,41.583c-1.26,1.174-2.866,1.944-4.667,1.944c-1.858,0-3.468-0.777-4.721-1.955
					c-0.168,0.212-0.335,0.426-0.507,0.634c-0.061,0.072-0.123,0.149-0.185,0.225c1.503,1.365,3.398,2.219,5.413,2.219
					c2.056,0,3.892-0.861,5.337-2.177C34.975,42.19,34.751,41.893,34.54,41.583z"/>
				<path fill="#28BCB5" d="M36.696,38.459c0.268,0.342,0.494,0.716,0.704,1.101c0.679-1.339,1.077-2.799,1.077-4.214
					c0-4.066-1.74-6.705-3.585-9.515c-1.785-2.721-3.631-5.507-4.468-10.077c-0.048-0.266-0.279-0.403-0.549-0.403h-0.002
					c-0.269,0-0.501,0.134-0.551,0.399c-0.874,4.589-2.793,7.466-4.487,10.055c-1.833,2.804-3.566,5.452-3.566,9.527
					c0,1.535,0.41,2.997,1.08,4.303c0.074-0.083,0.162-0.152,0.232-0.238c0.141-0.175,0.397-0.448,0.427-0.655
					c0.012-0.084,0.041-0.15,0.08-0.203c-0.437-1.038-0.695-2.136-0.695-3.208c0-3.741,1.568-6.137,3.383-8.913
					c1.452-2.217,3.062-4.68,4.093-8.194c1.011,3.504,2.631,5.971,4.089,8.193c1.825,2.782,3.4,5.184,3.4,8.914
					C37.355,36.373,37.118,37.445,36.696,38.459z"/>
			</g>
		</g>
		<g>
			<g>
				<path fill="#28BCB5" d="M24.993,30.042c-0.239,0.368-0.483,0.73-0.755,1.072c0.482,1.253,0.791,2.606,0.791,4.218
					c0,3.868-3.2,8.194-7.482,8.194c-4.41,0-7.482-4.318-7.482-8.194c0-3.741,1.568-6.137,3.383-8.913
					c1.452-2.217,3.062-4.68,4.092-8.194c1.011,3.504,2.631,5.971,4.089,8.193c0.269,0.409,0.521,0.806,0.774,1.204
					c0.186-0.278,0.379-0.55,0.539-0.845c0.038-0.071,0.087-0.115,0.14-0.151c-0.171-0.265-0.341-0.528-0.516-0.794
					c-1.785-2.721-3.631-5.507-4.468-10.077c-0.048-0.266-0.28-0.403-0.549-0.403h-0.002c-0.269,0-0.501,0.134-0.551,0.399
					c-0.874,4.589-2.793,7.466-4.487,10.055c-1.834,2.804-3.566,5.452-3.566,9.527c0,4.963,4.022,9.316,8.605,9.316
					c4.925,0,8.604-4.904,8.604-9.302C26.151,33.274,25.681,31.584,24.993,30.042z"/>
			</g>
		</g>
		<g>
			<g>
				<path fill="#28BCB5" d="M47.155,25.831c-1.785-2.721-3.631-5.507-4.468-10.077c-0.048-0.266-0.28-0.403-0.549-0.403h-0.002
					c-0.269,0-0.501,0.134-0.551,0.399c-0.874,4.589-2.793,7.466-4.487,10.055c-0.197,0.301-0.388,0.599-0.58,0.898
					c0.188,0.368,0.381,0.732,0.57,1.1c0.01,0.017,0.021,0.037,0.031,0.055c0.297-0.476,0.598-0.949,0.919-1.439
					c1.452-2.217,3.062-4.68,4.092-8.194c1.011,3.504,2.631,5.971,4.089,8.193c1.825,2.782,3.4,5.184,3.4,8.914
					c0,3.868-3.2,8.194-7.482,8.194c-4.409,0-7.482-4.318-7.482-8.194c0-1.582,0.291-2.918,0.753-4.15
					c-0.194-0.473-0.41-0.936-0.645-1.39c-0.738,1.601-1.231,3.367-1.231,5.54c0,4.963,4.022,9.316,8.605,9.316
					c4.925,0,8.604-4.904,8.604-9.302C50.74,31.281,48.999,28.641,47.155,25.831z"/>
			</g>
		</g>
		<path fill="#28BCB5" d="M22.478,28.149"/>
	</g>
	
		<circle fill="none" stroke="#28BCB5" stroke-width="1.3" stroke-linecap="round" stroke-linejoin="round" stroke-miterlimit="10" cx="30" cy="30" r="27.5"/>
</g>
</svg>
