<?xml version="1.0" encoding="utf-8"?>
<!-- Generator: Adobe Illustrator 17.1.0, SVG Export Plug-In . SVG Version: 6.00 Build 0)  -->
<!DOCTYPE svg PUBLIC "-//W3C//DTD SVG 1.1//EN" "http://www.w3.org/Graphics/SVG/1.1/DTD/svg11.dtd">
<svg version="1.1" id="Layer_1" xmlns="http://www.w3.org/2000/svg" xmlns:xlink="http://www.w3.org/1999/xlink" x="0px" y="0px"
	 viewBox="0 0 60 60" enable-background="new 0 0 60 60" xml:space="preserve">
<g>
	<g>
		<rect x="21" y="37" fill="#28BCB5" width="19" height="1"/>
		<rect x="21" y="30" fill="#28BCB5" width="19" height="1"/>
		<path fill="#28BCB5" d="M21,46h-1V23.628C20,19.743,19.81,16,17.604,16h-0.698c-2.346,0-4.649,4-4.649,8h-1c0-5,2.746-9,5.649-9
			h0.698C20.624,15,21,19.287,21,23.628V46z"/>
		<path fill="#28BCB5" d="M40,45.415c0.26-0.23,0.502-0.479,0.71-0.76c0.08-0.109,0.183-0.163,0.29-0.191V23.628
			c0-4.263-2.125-8.835-5.173-8.835h-0.699c-2.901,0-5.262,4-5.262,8h1c0-4,1.952-7,4.262-7h0.699c2.145,0,4.173,3.715,4.173,7.835
			V45.415z"/>
		<g>
			<path fill="#28BCB5" d="M13.567,42.357c-0.276,0-0.5,0.224-0.5,0.5c0,1.324-2.274,2.731-5.747,2.947
				c0.161,0.33,0.334,0.65,0.523,0.961c3.586-0.342,6.224-1.935,6.224-3.908C14.067,42.581,13.843,42.357,13.567,42.357z"/>
			<path fill="#28BCB5" d="M20.573,46.835c-4.301,0-7.669-1.748-7.669-3.979c0-0.276,0.224-0.5,0.5-0.5c0.276,0,0.5,0.224,0.5,0.5
				c0,1.439,2.68,2.979,6.669,2.979c3.989,0,6.668-1.54,6.668-2.979c0-0.276,0.224-0.5,0.5-0.5c0.276,0,0.5,0.224,0.5,0.5
				C28.241,45.088,24.873,46.835,20.573,46.835z"/>
			<path fill="#28BCB5" d="M34.747,46.835c-4.3,0-7.669-1.748-7.669-3.979c0-0.276,0.224-0.5,0.5-0.5c0.276,0,0.5,0.224,0.5,0.5
				c0,1.439,2.68,2.979,6.669,2.979c3.989,0,6.668-1.54,6.668-2.979c0-0.276,0.224-0.5,0.5-0.5c0.276,0,0.5,0.224,0.5,0.5
				C42.416,45.088,39.047,46.835,34.747,46.835z"/>
			<path fill="#28BCB5" d="M52.576,45.334c-1.019,0.309-2.253,0.501-3.654,0.501c-3.989,0-6.669-1.54-6.669-2.978
				c0-0.276-0.224-0.5-0.5-0.5c-0.276,0-0.5,0.224-0.5,0.5c0,2.23,3.369,3.978,7.669,3.978c1.131-0.115,2.204-0.322,3.175-0.598
				C52.256,45.936,52.417,45.635,52.576,45.334z"/>
		</g>
		<path fill="#28BCB5" stroke="#4E4E4E" stroke-miterlimit="10" d="M50.354,53.385"/>
		<path fill="#28BCB5" d="M3.103,23.793h53.253c-0.087-0.33-0.164-0.662-0.192-1H3.362C3.322,23.138,3.235,23.471,3.103,23.793z"/>
	</g>
	
		<circle fill="none" stroke="#28BCB5" stroke-width="1.3" stroke-linecap="round" stroke-linejoin="round" stroke-miterlimit="10" cx="30" cy="30" r="27.5"/>
</g>
</svg>
