<?xml version="1.0" encoding="utf-8"?>
<!-- Generator: Adobe Illustrator 17.1.0, SVG Export Plug-In . SVG Version: 6.00 Build 0)  -->
<!DOCTYPE svg PUBLIC "-//W3C//DTD SVG 1.0//EN" "http://www.w3.org/TR/2001/REC-SVG-20010904/DTD/svg10.dtd">
<svg version="1.0" id="Layer_1" xmlns="http://www.w3.org/2000/svg" xmlns:xlink="http://www.w3.org/1999/xlink" x="0px" y="0px"
	 viewBox="0 0 60 60" enable-background="new 0 0 60 60" xml:space="preserve">
<g>
	<path fill-rule="evenodd" clip-rule="evenodd" fill="none" stroke="#28BCB5" stroke-miterlimit="10" d="M41.893,44.858
		c0.487-3.103,0.759-6.434,0.759-9.912c0-3.723-0.313-7.275-0.868-10.561c0.59-0.161,1.026-0.695,1.026-1.336
		c0-0.767-0.622-1.39-1.389-1.39h-0.164c-0.342-1.54-0.735-3.013-1.186-4.388H18.622c-0.451,1.375-0.844,2.848-1.186,4.388h-0.164
		c-0.767,0-1.389,0.622-1.389,1.39c0,0.641,0.436,1.175,1.026,1.336c-0.555,3.286-0.868,6.838-0.868,10.561
		c0,3.478,0.271,6.809,0.759,9.912c-0.534,0.194-0.917,0.701-0.917,1.301c0,0.767,0.622,1.389,1.389,1.389h0.021
		c0.373,1.79,0.813,3.495,1.329,5.072H40.07c0.516-1.576,0.957-3.281,1.33-5.072h0.021c0.767,0,1.389-0.622,1.389-1.389
		C42.81,45.559,42.427,45.052,41.893,44.858z"/>
	<path fill-rule="evenodd" clip-rule="evenodd" fill="none" stroke="#28BCB5" stroke-miterlimit="10" d="M18.132,16.252
		L18.132,16.252c0-1.456,1.181-2.637,2.637-2.637h17.155c1.456,0,2.637,1.18,2.637,2.637l0,0"/>
	<path fill-rule="evenodd" clip-rule="evenodd" fill="none" stroke="#28BCB5" stroke-miterlimit="10" d="M38.91,18.423"/>
	<polyline fill-rule="evenodd" clip-rule="evenodd" fill="none" stroke="#28BCB5" stroke-miterlimit="10" points="31.998,2.457 
		31.998,7.133 27.417,7.133 27.417,2.457 	"/>
	<g>
		<line fill="none" stroke="#28BCB5" stroke-miterlimit="10" x1="29.851" y1="7.133" x2="29.851" y2="13.616"/>
		<line fill="none" stroke="#28BCB5" stroke-miterlimit="10" x1="28.338" y1="7.154" x2="27.729" y2="13.595"/>
		<line fill="none" stroke="#28BCB5" stroke-miterlimit="10" x1="31.25" y1="7.172" x2="32.085" y2="13.576"/>
	</g>
	<g>
		<circle fill="none" stroke="#28BCB5" stroke-miterlimit="10" cx="29.08" cy="48.748" r="1.982"/>
		<circle fill="none" stroke="#28BCB5" stroke-miterlimit="10" cx="29.08" cy="49.638" r="0.889"/>
	</g>
	<path fill="none" stroke="#28BCB5" stroke-miterlimit="10" d="M17.628,23.437c6.337,0,17.881,0,22.428,0"/>
	<path fill="none" stroke="#28BCB5" stroke-miterlimit="10" d="M17.628,44.385c7.418-1.02,15.536-0.571,22.428,0"/>
	<path fill="none" stroke="#28BCB5" stroke-width="1.3" stroke-linecap="round" stroke-linejoin="round" stroke-miterlimit="10" d="
		M31.994,2.607c4.456,0.32,8.898,1.733,12.917,4.326c12.762,8.235,16.431,25.256,8.196,38.017
		c-8.235,12.761-25.255,16.432-38.017,8.197C2.328,44.912-1.342,27.891,6.893,15.129c4.762-7.381,12.464-11.72,20.581-12.474"/>
</g>
</svg>
