<?xml version="1.0" encoding="utf-8"?>
<!-- Generator: Adobe Illustrator 17.1.0, SVG Export Plug-In . SVG Version: 6.00 Build 0)  -->
<!DOCTYPE svg PUBLIC "-//W3C//DTD SVG 1.0//EN" "http://www.w3.org/TR/2001/REC-SVG-20010904/DTD/svg10.dtd">
<svg version="1.0" id="Layer_1" xmlns="http://www.w3.org/2000/svg" xmlns:xlink="http://www.w3.org/1999/xlink" x="0px" y="0px"
	 viewBox="0 0 60 60" enable-background="new 0 0 60 60" xml:space="preserve">
<g>
	<g>
		<path fill="#28BCB5" d="M30.001,57.5C14.837,57.5,2.5,45.164,2.5,30c0-15.164,12.337-27.5,27.5-27.5
			C45.164,2.5,57.5,14.836,57.5,30C57.5,45.164,45.164,57.5,30.001,57.5z M30.001,3.622C15.456,3.622,3.623,15.455,3.623,30
			c0,14.545,11.833,26.378,26.378,26.378c14.545,0,26.378-11.833,26.378-26.378C56.378,15.455,44.545,3.622,30.001,3.622z"/>
	</g>
	<path fill="none" stroke="#28BCB5" stroke-miterlimit="10" d="M9.301,30.858C7.9,31.091,7.442,32.382,7.442,33.42
		c0,1.374,1.238,2.424,2.612,2.424c1.373,0,2.845-1.015,2.564-2.931"/>
	<circle fill="none" stroke="#28BCB5" stroke-miterlimit="10" cx="54.179" cy="31.295" r="2.487"/>
	<circle fill="none" stroke="#28BCB5" stroke-miterlimit="10" cx="12.179" cy="30.295" r="1.632"/>
	<path fill-rule="evenodd" clip-rule="evenodd" fill="none" stroke="#28BCB5" stroke-miterlimit="10" d="M21.56,19.191L16.75,39.102
		c0.655,0.362,1.057,0.314,1.602,0.82c2.363-4.052,5.875-8.628,11.389-8.628c4.486,0,8.356,2.595,10.221,6.36
		c0.37-0.152,0.755-0.271,1.147-0.374l2.263-10.484l3.017,2.933l5.842-5.016l-6.334-11.518l-3.578-1.84c0,0-2.884,3.544-7.636,2.663
		c-4.752-0.881-5.419-5.73-5.419-5.73L24.58,8.394l-9.287,4.379l1.496,6.549L21.56,19.191z"/>
	<path fill="none" stroke="#28BCB5" stroke-miterlimit="10" d="M52.469,46.046c0-5.009-4.061-9.07-9.07-9.07
		c-1.218,0-2.378,0.244-3.438,0.679c-1.864-3.765-5.734-6.36-10.221-6.36c-5.514,0-11.337,6.131-12.401,11.329
		c-0.676-1.351-1.857-3.039-5.234-3.714c-3.03-0.606-5.524,0.611-7.162,2.971"/>
</g>
</svg>
