<?xml version="1.0" encoding="utf-8"?>
<!-- Generator: Adobe Illustrator 17.1.0, SVG Export Plug-In . SVG Version: 6.00 Build 0)  -->
<!DOCTYPE svg PUBLIC "-//W3C//DTD SVG 1.1//EN" "http://www.w3.org/Graphics/SVG/1.1/DTD/svg11.dtd">
<svg version="1.1" id="Layer_1" xmlns="http://www.w3.org/2000/svg" xmlns:xlink="http://www.w3.org/1999/xlink" x="0px" y="0px"
	 viewBox="128 326 380 480" enable-background="new 128 326 380 480" xml:space="preserve">
<g>
	<g>
		<g>
			<path fill="#0896F0" d="M318.5,803.7c-91.4,0-171.6-70.9-171.6-151.8c0-66.4,34.6-109.6,71.2-155.3
				c33.8-42.2,72.1-89.1,89.5-163.8c1.1-4.3,5.7-6.5,11-6.5h0c5.4,0,10,2.2,11,6.6c16.7,74.5,53.5,119.9,89.2,164.2
				c36.8,45.8,71.5,88.8,71.5,155C490.2,723.7,416.8,803.7,318.5,803.7z"/>
		</g>
	</g>
	<g>
		<path fill-rule="evenodd" clip-rule="evenodd" fill="#FFFFFF" d="M312.1,483.4c0,0,4.6-4.1,5.4-5.5c0.8-1.5,1.3-3.3,1.3-3.3
			l1.7,0.5c0,0-0.6,2-1.4,3.6c-0.9,1.7-5.8,6-5.8,6L312.1,483.4L312.1,483.4z M303.4,472.6h-22.8h-22.2l0.4,0.1l0.2,1.6
			c0.6,4.5,3,6.6,5.5,8.8c1.2,1.1,2.4,2.1,3.5,3.5h19h9.9h19c1.1-1.3,2.3-2.4,3.5-3.5c2.5-2.2,4.9-4.3,5.5-8.8l0.2-1.6l0.4-0.1
			H303.4L303.4,472.6z M250.8,468l-0.4,7.5l4.5,0.9c1.1,5.1,3.9,7.5,6.7,10c1.3,1.1,2.6,2.3,3.6,3.6l0.7,1h1.2h20.1h9.9h20.1h1.2
			l0.7-1c1-1.4,2.3-2.5,3.6-3.6c2.8-2.5,5.6-4.9,6.7-10l4.5-0.9l-0.4-7.5h-9.2c-0.5-1.9-1.4-3.7-2.5-5.3c-2.3-3.3-5.9-5.8-10-7.3
			c-1.8-0.6-3.6-1.1-5.5-1.3c-4.4-4.2-9.5-6.5-14.4-7.4c-3.8-0.7-7.5-0.5-10.8,0.5c-3.4,0.9-6.3,2.6-8.6,4.8c-2.2,2.2-3.8,5-4.4,8.3
			l-0.2,0.4c-1.5,0.9-2.5,1.6-3.9,2.9c-1.3,1.1-2.5,2.4-3.6,3.9l-0.6,0.5H250.8L250.8,468z M263.2,468c0.8-0.9,1.6-1.7,2.4-2.5
			c4.9-4.4,10.5-5.9,15.8-5.5c5.4,0.4,10.6,2.7,14.7,5.9c0.8,0.7,1.6,1.3,2.4,2.1h-4.7c-0.4-0.4-0.9-0.8-1.4-1.2
			c-3-2.3-6.8-4-10.8-4.3c-4-0.3-8.3,0.8-11.9,4.1c-0.5,0.4-0.9,0.8-1.3,1.3H263.2L263.2,468z M272.2,468c2.9-2.3,6.2-3.1,9.3-2.9
			c2.9,0.2,5.8,1.3,8.1,2.9h-9H272.2L272.2,468z M302.2,468l-0.6-0.5c-1.1-1.3-2.5-2.5-3.9-3.6c-0.1-0.1-0.3-0.2-0.5-0.4
			c1.4-0.8,3-1.2,4.5-1.5c2.4-0.4,4.9-0.1,7,0.7c2.1,0.8,3.9,2.1,5.1,3.8c0.3,0.4,0.6,0.9,0.8,1.4h-11.3H302.2L302.2,468z
			 M317.6,468c-0.4-1-0.9-2-1.5-2.9c-1.5-2.2-3.8-3.8-6.4-4.8c-2.6-1-5.4-1.3-8.3-0.9c-2.2,0.3-4.4,1.1-6.5,2.4
			c-1.4-0.9-2.9-1.6-4.5-2.3c2.7-1.5,5.5-2.4,8.4-2.8c3.8-0.6,8.4-0.2,12,1.1c3.6,1.3,6.7,3.4,8.7,6.3c0.8,1.2,1.5,2.4,1.9,3.8
			H317.6L317.6,468z M271,459.1c0.6-2,1.8-3.7,3.2-5.2c2-1.9,4.5-3.4,7.5-4.2c3-0.8,6.3-1,9.6-0.4c3.6,0.6,7.2,2.1,10.6,4.6
			c-1.1,0-2.3,0.1-3.4,0.3c-0.9,0.1-1.8,0.3-2.7,0.5c-1.3-1.1-2.7-1.9-4.2-2.5c-2.7-1-5.6-1.1-8.2-0.5c-2.7,0.5-5,1.8-6.6,3.5
			c-0.7,0.8-1.2,1.6-1.6,2.6l0,0C273.8,458.1,272.4,458.6,271,459.1L271,459.1z M278.3,457.5c0.1-0.1,0.2-0.3,0.4-0.4
			c1.2-1.3,3.1-2.3,5.2-2.7c2.2-0.5,4.6-0.4,6.8,0.4c0.7,0.3,1.4,0.6,2,1c-1.9,0.7-3.7,1.6-5.4,2.8c-1.9-0.5-3.8-0.9-5.7-1
			C280.5,457.4,279.4,457.4,278.3,457.5z"/>
	</g>
	<g>
		<path fill-rule="evenodd" clip-rule="evenodd" fill="#FFFFFF" d="M206.8,584.7l24.7,6.7l2.4,0.6l-0.8,2.4l-2,5.8l-0.6,1.9
			l-1.9-0.3l-20-3.1v56.2c0,1.6-0.7,3-1.7,4.1l0,0c-1,1-2.5,1.7-4.1,1.7c-1.6,0-3-0.7-4.1-1.7h0c-1-1-1.7-2.5-1.7-4.1V628h-1.7v26.8
			c0,1.6-0.7,3-1.7,4.1l0,0c-1,1-2.5,1.7-4.1,1.7c-1.6,0-3-0.7-4.1-1.7h0c-1-1-1.7-2.5-1.7-4.1v-36.7h-1.6h-5.8h-2.3v-2.3v-22.1
			v-1.4V592l0.1-0.3c0.6-2.4,1.7-4.1,3.4-5.2c1.5-1.1,3.4-1.5,5.4-1.6l0.1,0h1v0l6.2-0.1c-1.1-0.6-2.2-1.3-3.1-2.2l0,0
			c-2.2-2.2-3.5-5.2-3.5-8.5c0-3.3,1.3-6.3,3.5-8.5h0c2.2-2.2,5.2-3.5,8.5-3.5c3.3,0,6.3,1.3,8.5,3.5l0,0c2.2,2.2,3.5,5.2,3.5,8.5
			s-1.3,6.3-3.5,8.5l0,0c-0.8,0.8-1.8,1.5-2.8,2.1l4.9-0.1l0.3,0L206.8,584.7L206.8,584.7z M230.4,602.6l-2.2,2.5l2.7,4.4
			c1.5,2.4,3.9,2.8,6.3,2v0c1.4-0.4,2.9-1.3,4.1-2.4c1.2-1.1,2.2-2.4,2.7-3.7c0.8-2.1,0.5-4.2-1.5-5.7l-4.7-3.4l-2.1-1.5l-0.6,2.5
			c-0.1,0.3-0.2,0.6-0.4,0.9c-0.5,1.1-1.4,2.4-2.4,3.3C231.6,602.3,230.9,602.7,230.4,602.6L230.4,602.6L230.4,602.6z M249.5,644
			L249.5,644c1.7-1.7,4.1-2.8,6.7-2.8c0.3,0,0.6,0,1,0l1.9-23.8h-27.5l2.7,33.1c0,0.5,0.2,0.9,0.5,1.2l0,0c0.2,0.2,0.5,0.4,0.9,0.4
			h11.2c-0.1-0.5-0.1-0.9-0.1-1.4C246.7,648,247.8,645.7,249.5,644L249.5,644z M261.7,643l2.2-27l9.4-1.4l-1-6.9l-8.3,1.3
			l-21.3-28.9l-5.6,4.2l21.2,28.7H229h-2.5l0.2,2.5l2.9,35.6c0.1,1.6,0.8,3.1,1.9,4.1h0c1.1,1.1,2.5,1.7,4.1,1.7H249
			c0.2,0.2,0.3,0.4,0.5,0.6v0c1.7,1.7,4.1,2.8,6.7,2.8c2.6,0,5-1.1,6.7-2.8c1.7-1.7,2.8-4.1,2.8-6.7c0-2.6-1.1-5-2.8-6.7l0,0
			C262.5,643.6,262.1,643.3,261.7,643L261.7,643z"/>
	</g>
	<g>
		<path fill-rule="evenodd" clip-rule="evenodd" fill="#FFFFFF" d="M350.5,478.7c1.9,1.7,3.8,3.3,5.6,5c3.5,3.1,7,6.1,10.6,9.4
			c3.2,2.3,6.3,3.2,9.2,2.9c2.5-0.2,4.8-1.3,6.8-2.8c2-1.6,3.6-3.8,4.6-6.2c1.2-3,1.5-6.4,0.4-9.5l-18.5-19.7
			c-0.1,1.8-0.5,3.6-1.2,5.5c-1.6,4.5-4.6,8.4-8.2,11.2C356.9,476.7,353.7,478.2,350.5,478.7L350.5,478.7z M357.4,455.7
			c0.6,0.5,1.8,0.2,2.6-0.7c0.8-0.9,1-2.1,0.3-2.7c-0.6-0.5-1.8-0.2-2.6,0.7C356.9,453.9,356.7,455.1,357.4,455.7L357.4,455.7z
			 M345.4,468.2c0.6,0.5,1.8,0.2,2.6-0.7c0.8-0.9,1-2.1,0.3-2.7c-0.6-0.5-1.8-0.2-2.6,0.7C344.9,466.4,344.7,467.6,345.4,468.2
			L345.4,468.2z M350.1,472.2c0.5,0.4,1.4,0.2,2.1-0.6c0.6-0.7,0.8-1.7,0.3-2.1c-0.5-0.4-1.4-0.2-2.1,0.6
			C349.8,470.8,349.6,471.8,350.1,472.2L350.1,472.2z M353.6,464.6c0.5,0.4,1.4,0.2,2.1-0.6c0.6-0.7,0.8-1.7,0.3-2.1
			c-0.5-0.4-1.4-0.2-2.1,0.6C353.2,463.2,353.1,464.2,353.6,464.6L353.6,464.6z M356.6,468.7c0.6,0.5,1.8,0.2,2.6-0.7
			c0.8-0.9,1-2.1,0.3-2.7c-0.6-0.5-1.8-0.2-2.6,0.7C356.1,466.9,356,468.1,356.6,468.7L356.6,468.7z M359.8,463.1
			c0.6,0.5,1.8,0.2,2.6-0.7c0.8-0.9,1-2.1,0.3-2.7c-0.6-0.5-1.8-0.2-2.6,0.7C359.3,461.4,359.2,462.6,359.8,463.1L359.8,463.1z
			 M359.2,445.3c-3.9-0.2-8.1,1.4-11.7,4.3c-3.5,2.8-6.5,6.7-8.2,11.2c-0.7,2-1.1,3.9-1.2,5.8c-0.2,4.8,1.1,7.9,4.4,11
			c3.6,3.3,7.2,6.4,10.7,9.5c3.3,2.9,6.7,5.8,10.6,9.4l0.1,0.1l0.1,0.1c4.2,3.1,8.4,4.2,12.3,3.9c2-0.2,4-0.7,5.8-1.6
			c0,0.2,0,0.4,0,0.5c0.1,1.5,0.4,3.3,0.9,4.7c0.6,1.9,1.6,3.1,3,2.7c1.7-0.6,2.6-2.3,3-3.6c0.9,0.3,2,0.2,2.9-1
			c0.7-1,1-2.3,1.2-3.2c1.9-0.1,5.8-0.7,4.2-3.5c-0.9-1.6-5-2.8-7.6-3.4c0.7-1.1,1.3-2.2,1.7-3.3c1.7-4.1,2-8.8,0.3-13.2l-0.2-0.4
			l-0.3-0.3l-23.3-24.8C366.3,448.1,363.4,445.1,359.2,445.3L359.2,445.3z M388.2,493.9c-0.8,1-1.7,1.9-2.7,2.7
			c-0.5,0.4-1.1,0.8-1.7,1.2c0.1,0.2,0.4,0.7,0.5,1.3c0.1,1.4,0.4,3,0.8,4.3c0.2,0.6,0.1,1.2,0.2,1.2c1.5-0.5,1.9-3.3,1.9-3.3l0.3-2
			l1.5,1.3c0,0,0.8,0.6,1,0.3c0.8-1.2,1-3.2,1-3.3l0.1-1l1,0c0,0,3.4,0.1,3.2-0.1C394.7,495.4,390.3,494.4,388.2,493.9L388.2,493.9z
			 M365.8,457.3c0.2-3.2-1.2-7-4.5-8.2c-0.7-0.2-1.5-0.4-2.3-0.4c-3.1-0.2-6.5,1.2-9.5,3.6c-3.1,2.4-5.7,5.8-7.1,9.7
			c-0.6,1.7-0.9,3.3-1,4.8c-0.1,2.1,0.3,3.9,1.1,5.3c0.9,1.6,3.8,3.3,5.7,3.4c3.1,0.2,6.5-1.2,9.5-3.6c3.1-2.4,5.7-5.8,7.1-9.7
			C365.4,460.4,365.7,458.8,365.8,457.3L365.8,457.3z"/>
	</g>
	<g>
		<path fill-rule="evenodd" clip-rule="evenodd" fill="#FFFFFF" d="M197.3,669.6h31.7c1.7,0,3.2,0.7,4.4,1.8l0,0
			c1.1,1.1,1.8,2.7,1.8,4.4v49.1c0,1.7-0.7,3.2-1.8,4.4c-1.1,1.1-2.7,1.8-4.4,1.8h-31.7c-1.7,0-3.2-0.7-4.4-1.8l0,0h0
			c-1.1-1.1-1.8-2.7-1.8-4.4v-49.1c0-1.7,0.7-3.2,1.8-4.4C194,670.3,195.6,669.6,197.3,669.6L197.3,669.6z M209.5,721.8v3.4h7.3
			v-3.4H209.5L209.5,721.8z M208.1,675.7v1.4h9.7v-1.4H208.1L208.1,675.7z M201.7,687.7v4.7l7.3-9.9h-3.5L201.7,687.7L201.7,687.7z
			 M201.7,698.6v4.7l15.3-20.8h-3.5L201.7,698.6L201.7,698.6z M199.1,679.2h-1.1v1.1v39.1v1.1h1.1h27.6h1.1v-1.1v-39.1v-1.1h-1.1
			H199.1L199.1,679.2z M225.7,681.3h-25.5v37h25.5V681.3L225.7,681.3z M228.9,673.3h-31.7c-0.7,0-1.3,0.3-1.8,0.7
			c-0.5,0.5-0.7,1.1-0.7,1.8v49.1c0,0.7,0.3,1.3,0.7,1.8l0,0c0.5,0.5,1.1,0.7,1.8,0.7h31.7c0.7,0,1.3-0.3,1.8-0.7
			c0.5-0.5,0.7-1.1,0.7-1.8v-49.1c0-0.7-0.3-1.3-0.7-1.8C230.3,673.6,229.6,673.3,228.9,673.3z"/>
	</g>
	<g>
		<path fill="#FFFFFF" d="M349.8,399.5l-0.9-0.9l-6.1-6.7l-0.7-0.8l-0.8,0.7l-4.4,3.8c-3.2-1.3-5.8-2-8.3-2c-2.8,0-5.4,0.9-8.8,2.8
			l-2.4,1.4l2.6,0.7c1.7,0.5,2.9,1,4.1,1.5l0.2,0.1c-3.2,1.4-6.1,2.6-9.1,3.7c-5.1,1.8-10.3,3.2-16.8,5c-2.8,0.7-5.1,1.6-7.1,3
			c-2,1.4-3.7,3.3-5.1,6c-0.9,1.7-1.5,3.7-1.7,5.7c-0.3,2.5,0.1,5,1.3,7.4c1.2,2.4,3.2,4.5,6.3,6.1c2.5,1.3,5.7,2.2,9.7,2.7
			c11.8,1.2,24.5-11,31.5-19.2l2.1-0.4c0.4-0.1,0.9-0.2,1.3-0.4c2.2-1,4-3.4,5.1-6.1c1.1-2.6,1.5-5.6,1-8c-0.1-0.3-0.1-0.5-0.2-0.7
			l6.1-4.5L349.8,399.5z M335.7,412c-2.7,3.7-19.2,25.6-33.5,24.2c-3.6-0.4-6.4-1.2-8.5-2.3c-2.4-1.2-3.9-2.8-4.8-4.6
			c-0.9-1.7-1.1-3.6-1-5.5c0.2-1.6,0.7-3.1,1.4-4.5c1.1-2.2,2.4-3.6,4-4.7c1.6-1.1,3.6-1.9,6-2.5c6.5-1.7,11.8-3.2,17-5
			c4.1-1.4,8.1-3.1,12.7-5.3c0.5,0.1,1.1,0.2,1.7,0.3c-0.7,1.2-1.3,2.4-1.7,3.7c-0.6,1.9-0.8,3.9-0.7,5.8l0.1,1.3l1.3-0.2
			c2.1-0.4,3.7-0.8,5-1.6c0.3-0.2,0.7-0.5,0.9-0.7C335.7,410.7,335.7,411.4,335.7,412z M340.6,403.4l-0.7,0.6l0.4,0.8
			c0.2,0.3,0.3,0.7,0.4,1.1c0.4,1.9,0,4.5-0.9,6.7c-0.5,1.3-1.3,2.6-2.1,3.5c0.5-2.3,0.4-4.9,0.4-7.2c0-1.1,0-2.1,0-2.8l-2.2-0.4
			c-0.6,1.7-1.3,2.7-2.2,3.3l0,0c-0.7,0.5-1.7,0.8-2.9,1c0-1.2,0.2-2.5,0.6-3.7c0.5-1.6,1.3-3.2,2.4-4.7l-0.9-1.8
			c-3.8-0.1-5.7-1-7.7-1.9c-0.6-0.3-1.2-0.5-1.8-0.8c2-0.9,3.6-1.3,5.3-1.3c2.4,0,4.8,0.8,8.1,2.1l0.6,0.3l0.5-0.5l4.1-3.6l4.5,4.9
			L340.6,403.4z"/>
	</g>
	<g>
		<path fill="#FFFFFF" d="M335.1,378.8c0.3,0.2,0.6,0.5,0.8,0.8h0c1.7,2.2,2.6,6.1,2.6,10.3c1-0.2,2.1-0.3,3.1-0.3
			c0-4.8-1.2-9.4-3.3-12v0c-0.4-0.5-0.9-1-1.4-1.4c-1.1-0.9-2.5-1.4-3.9-1.7c0.8-0.3,1.5-0.5,2-0.8c1.1-0.5,1.6-1.2,1.2-2
			c-0.1-0.3-0.4-0.5-0.7-0.6c-2.5-1.2-4.9-1.6-7.2-1.3c-1.1,0.1-2.2,0.4-3.3,0.8c1.6-2,3.4-4.3,3.9-5l2.8-3l-3.9,1.2
			c-2.1,0.7-4,1.4-5.6,2.4c0-0.1,0.1-0.2,0.1-0.2c0.3-0.9,0.8-1.8,1.5-2.6l1.1-1.2l-1.6-0.5l-4.3-1.3l-0.7-0.2l-0.4,0.6
			c-0.8,1.1-1.3,2.4-1.6,3.7c-0.2,0.7-0.3,1.3-0.3,2c-1.7-1.1-3.8-1.9-6-2.6l-3.9-1.2l2.8,3c0.6,0.6,2.4,2.9,4,5
			c-1.1-0.4-2.2-0.7-3.3-0.8c-2.4-0.3-4.7,0.2-7.2,1.3c-0.3,0.1-0.5,0.4-0.7,0.6c-0.4,0.8,0.1,1.5,1.2,2c0.5,0.2,1.1,0.5,1.9,0.7
			c-1.5,0.3-3,0.9-4.1,1.8c-0.5,0.4-1,0.8-1.4,1.4v0c-2.2,2.8-3.4,7.6-3.3,12.7c0.1,5,1.4,10.3,4.2,13.9c0.1,0.2,0.4,0.5,0.7,0.8
			c0.8-0.8,1.7-1.6,2.7-2.3c-2.1-2.2-4.2-5.6-4.5-12.5c-0.1-4.4,0.9-8.5,2.6-10.7h0c0.3-0.3,0.5-0.6,0.8-0.8
			c4.3-3.4,14.2-0.3,16,0.4l0,0.1l0.1,0l0.1,0l0-0.1C320.9,378.6,330.8,375.5,335.1,378.8z M318.5,365c0.2-0.8,0.5-1.6,0.9-2.3
			l2.1,0.7c-0.4,0.6-0.7,1.3-1,2c-0.4,1.1-0.6,2.2-0.8,3.4c-0.2,0.3-0.4,0.7-0.6,1.1c-0.3-0.5-0.6-1-1-1.5
			C318.2,367.2,318.3,366.1,318.5,365z M318.9,375.9c-1.4-0.4-3.8-1.1-6.6-1.4c-2.1-0.5-4.6-1.2-6.4-1.8c-0.3-0.1-0.5-0.2-0.7-0.3
			c1.5-0.5,2.9-0.6,4.4-0.5c2,0.2,4,1,6.1,2.4l0.1-0.2c0.1,0.1,0.1,0.2,0.2,0.2l1.3-1.7c-0.1-0.1-0.3-0.4-0.9-1.2
			c-0.9-1.1-2.1-2.8-3.2-4.2c0.8,0.4,1.5,0.8,2.2,1.2c1.4,1,2.3,2.3,2.5,4.3l1.4-0.1l1.4,0.1c0.2-1.9,1.1-3.2,2.5-4.3
			c0.6-0.5,1.4-0.9,2.2-1.2c-1.1,1.4-2.4,3.1-3.2,4.2c-0.6,0.8-0.8,1.1-0.9,1.2l1.3,1.7c0,0,0.1-0.1,0.2-0.2l0.1,0.2
			c2.1-1.4,4.1-2.2,6.1-2.4c1.4-0.2,2.9,0,4.4,0.5c-0.2,0.1-0.5,0.2-0.7,0.3c-1.8,0.6-4.1,1.2-6.1,1.7
			C323.1,374.7,320.4,375.5,318.9,375.9z"/>
	</g>
	<g>
		<path fill="#FFFFFF" d="M307.1,427.7c-5.9,1.3-9.4-2.7-9.6-2.9l-2.2,1.8c0.2,0.2,3.5,4.1,9.4,4.1c0.9,0,1.9-0.1,2.9-0.3
			c7.1-1.5,22.8-12.4,23.5-12.9l-1.6-2.3C329.4,415.4,313.6,426.3,307.1,427.7z"/>
	</g>
	<g>
		<path fill-rule="evenodd" clip-rule="evenodd" fill="#FFFFFF" d="M311.9,670.5h42.5c-1.1-11.5-2-23.3,0.6-39.1
			c0-4.6,0.1-9.2,0.6-13.6c0.4-4,1.1-7.9,2-11.7l-7.1-3.6c-2,3.3-4.9,5.8-8.2,7.3c-2.8,1.3-5.9,2-9.1,2c-3.1,0-6.2-0.7-9.1-2
			c-3.3-1.5-6.2-4-8.2-7.3l-7.1,3.6c0.9,3.8,1.5,7.7,2,11.7c0.5,4.4,0.6,8.9,0.6,13.6C313.9,647.2,313,659,311.9,670.5L311.9,670.5z
			 M354.6,672.4h-42.9l-0.2,1.6h19.5h0.2h0.2h0.2h0.2h0.2h0.2h0.2h0.2h0.2h0.2h0.2h0.2h0.2h0.2h0.2h0.2h0.2h0.2h0.2h0.2h0.2h19.5
			L354.6,672.4L354.6,672.4z M307,618.2c-0.3-3.1-0.8-6.1-1.4-9l-9.5,12.5l7.7,8.7l3.8-1.5C307.5,625.3,307.3,621.7,307,618.2
			L307,618.2z M304.3,604.1l1.4-0.7l10.1-5.2l1.8-0.9l0.8,1.8c1.6,3.4,4.2,5.8,7.3,7.2c2.3,1.1,4.9,1.6,7.5,1.6
			c2.6,0,5.1-0.5,7.5-1.6c3.1-1.4,5.7-3.8,7.3-7.2l0.8-1.8l1.8,0.9l10.1,5.2l1.4,0.7l12.3,16.5l0.9,1.2l-1,1.2l-9.6,10.9l-0.9,1
			l-1.2-0.5l-3.9-1.5c-2.5,16.5-1.3,28.6,0,40.8v0l0.2,2l0.2,2.1h-2.1h-21.6h-0.2h-0.2h-0.2h-0.2h-0.2h-0.2h-0.2h-0.2h-0.2h-0.2
			h-0.2h-0.2h-0.2h-0.2h-0.2h-0.2h-0.2h-0.2h-0.2h-0.2h-0.2h-21.6h-2.1l0.2-2.1l0.2-2v0c1.2-12.2,2.5-24.3,0-40.8l-3.9,1.5l-1.2,0.5
			l-0.9-1l-9.6-10.9l-1-1.2l1-1.2L304.3,604.1L304.3,604.1z M360.8,609.2c-0.6,2.9-1.1,5.9-1.4,9c-0.4,3.5-0.5,7.1-0.6,10.7l3.8,1.5
			l7.7-8.7L360.8,609.2z"/>
	</g>
	<g>
		<g>
			<path fill-rule="evenodd" clip-rule="evenodd" fill="#FFFFFF" d="M445.1,566.3c-0.8-1.4-1.6-2.7-2.5-4c-0.4-0.6-0.8-1.3-1.1-2
				c-0.3-0.6-0.7-1.3-0.7-2c0-3.2-0.1-6.3-0.2-9.5c0-1.6,0-3.2-0.1-4.8c0-0.8,0-1.6,0-2.4c0-0.8,0-1.6-0.1-2.4
				c-0.2-1.6-0.4-3.2-0.8-4.7c-0.3-1.5-0.8-2.9-1.7-4.2c-0.9-1.2-2.1-2.2-3.5-2.9c-0.3-0.2-0.8-0.3-1-0.5c-0.3-0.3-0.6-0.5-1-0.8
				c-0.6-0.5-1.2-0.9-1.8-1.3c-0.6-0.4-1.3-0.8-1.9-1.1c-0.2-0.1-0.4-0.2-0.6-0.3c-0.1-0.1-0.3-0.2-0.5-0.2c-0.4,0-0.8,0-1.2,0
				c-1.6,0-3.2,0.1-4.8,0.1c-1.5,0.1-3.1,0.1-4.6,0.1c-0.7,0-1.5,0.1-2.2,0c-0.8-0.1-1.5-0.2-2.3-0.3c-3.1-0.4-6.3-0.7-9.5-0.7
				c-3.1-0.1-6.2,0-9.3,0.3c-0.8,0.1-1.6,0.1-2.4,0.2c-0.8,0.1-1.6,0.1-2.4,0.1c-1.6,0-3.3,0-4.9,0c-3.2-0.1-6.4-0.1-9.5-0.1
				c-3.2,0-6.4-0.1-9.6-0.1c-1.5,0-2.9,0-4.4,0c-0.9,0-1.7,0-2.6-0.1c-0.7-0.1-1.5-0.3-2.2-0.4c-1.5-0.3-3-0.6-4.4-1.1
				c-0.3-0.1-0.7-0.1-1-0.3c-0.3-0.3-0.7-0.5-1-0.8c-0.6-0.4-1.2-0.8-1.9-1.1c-0.5-0.2-1-0.3-1.5-0.4c0.2-0.7,0.3-1.4,0.5-2.1
				c0.1-0.4,0.2-0.7,0.3-1.1c0.1-0.3,0-0.7,0-1.1c-0.1-1.5-0.5-3-1-4.4c-0.5-1.4-1.1-2.8-2.2-3.9c-0.6-0.5-1.3-0.8-2-0.8
				c-0.1,0-0.1,0.4-0.1,0.5c0,0.2,0,0.4,0,0.5c0.1,0.3,0.3,0.7,0.5,1c1.3,2.9,1.2,6-0.1,8.8c-0.1,0.2-0.2,0.4-0.3,0.7
				c-0.1,0.2-0.4,0.1-0.6,0.1c-0.2,0-0.6-1.1-0.7-1.3c0-0.1-0.1-0.3-0.1-0.3c-0.1,0-0.3,0-0.4,0c0,0-0.3,0-0.3,0c0,0.1,0,0.3,0,0.4
				c0,0.5,0.2,1,0.3,1.4c-3.1-0.4-6.1-1-9.2-1.4c-0.8-0.1-1.6-0.2-2.4-0.3c-0.4,0-0.8-0.1-1.2-0.1c-0.3,0-0.3-0.1-0.5,0.1
				c-0.1,0.1-0.2,0.2-0.4,0.3c-0.1,0-0.3,0-0.4,0c-0.2,0-0.3-0.3-0.4-0.4c-0.2-0.3-0.4-0.6-0.6-1c-0.3-0.7-0.6-1.4-0.7-2.2
				c-0.4-2.8,1-5.4,1.6-8c-1.5,0.5-2.7,1.4-3.6,2.6c-0.9,1.2-1.4,2.7-1.6,4.1c-0.3,1.8-0.2,3.7,0.1,5.5c-1.6-0.1-3.1,0.1-4.7,0.4
				c-0.7,0.2-1.5,0.4-2.2,0.6c-0.3,0.1-0.3,0.1-0.3,0.4c0,0.2,0,0.4,0,0.6c0,0.1,0,0.2,0,0.3c0.1,0,0.2,0,0.2,0.1
				c0.2,0.1,0.3,0.2,0.4,0.3c0.6,0.5,1.1,1,1.7,1.5c0.3,0.3,0.6,0.6,0.9,0.9c0.1,0.1,0.3,0.1,0.5,0.1c0.2,0,0.4,0.1,0.6,0.1
				c1.5,0.4,3,0.7,4.5,0.8c0.6,0.1,1.3,0.1,1.9,0.1c-0.3,0.7-0.5,1.5-0.9,2.2c-0.2,0.3-0.3,0.7-0.5,1c-0.2,0.3-0.5,0.7-0.5,1
				c0,0.7,0.1,1.5,0.2,2.2c0.1,0.7,0.3,1.5,0,2.2c-0.5,1.4-1,2.9-1.4,4.3c-0.1,0.3,0,0.7,0.1,1c0.1,0.4,0.2,0.8,0.3,1.1
				c0.3,0.7,0.6,1.4,1.1,2c1.9,2.6,5.1,3.7,8.2,2.9c0.1,0,0.2-0.3,0.3-0.4c0.1-0.2,0.2-0.3,0.4-0.5c0.2-0.3,0.5-0.5,0.7-0.8
				c0.5-0.5,1.1-1.1,1.5-1.7c0.1-0.2,0.4-0.8,0.6-0.8c0.4,0,0.8-0.1,1.1-0.1c0.4,0,0.8,0,1.1-0.1c0.3,0,0.7,0.3,0.9,0.5
				c2.5,1.8,4.2,4.7,5.6,7.4c0.7,1.4,1.3,2.8,1.9,4.2c0.6,1.4,1.2,2.8,1.9,4.2c0.7,1.4,1.4,2.8,2.3,4c0.4,0.6,0.9,1.2,1.5,1.6
				c0.2,0.1,0.3,0.2,0.5,0.3c0.1,0.1,0.2,0.1,0.2,0.1c0,0,0,0.2,0,0.2c0,0.2,0.1,0.2,0.3,0.2c0.3,0,0.3,0.1,0.3,0.4
				c0.5,1.5,0.8,3,1.1,4.6c0.1,0.8,0.2,1.5,0.2,2.3c0,0.4,0.1,0.7,0.1,1.1c0,0.3,0.1,0.8,0,1.1c-0.3,0.7-0.6,1.4-0.7,2.1
				c-0.1,0.7,0.2,1.4,0.4,2.1c0.2,0.4,0.3,0.7,0.3,1.1c0,0.4,0,0.7,0,1.1c0,0.8-0.1,1.6-0.2,2.4c-0.1,1.5-0.4,3.1-0.8,4.5
				c-0.2,0.7-0.4,1.5-0.6,2.2c-0.1,0.2-0.1,0.4-0.2,0.5c-0.1,0.2-0.2,0.2-0.4,0.3c-0.4,0.1-0.7,0.3-1.1,0.4
				c-0.3,0.1-0.8,0.2-0.9,0.4c-0.1,0.1,0,0.3-0.1,0.4c-0.2,0.1-0.4,0.1-0.6,0.2c-0.7,0.3-1.5,0.5-2.1,0.9c-0.3,0.2-0.6,0.4-0.8,0.6
				c-0.2,0.2-0.2,0.2-0.1,0.5c0,0.2,0,0.4,0,0.6c0,0.1,0,0.4,0,0.5c0.1,0.1,0.4,0.2,0.5,0.3c0.3,0.2,0.7,0.3,1.1,0.5
				c0.7,0.3,1.4,0.4,2.1,0.6c0.3,0.1,0.3,0,0.4,0.3c0.1,0.1,0.1,0.4,0.2,0.4c0.4,0,0.9,0,1.3,0c1.5,0.1,3.1,0.1,4.6,0.4
				c0.6,0.1,1.1,0.2,1.7,0.4c0-0.4,0-0.7-0.2-1c1.2-0.9,2.4-1.8,3.6-2.8c0.6-0.5,1.2-0.9,1.7-1.3c0.1-0.1,0.3-0.2,0.4-0.3
				c0.2-0.1,0.3-0.2,0.3-0.4c0-0.4,0-0.8,0-1.2c-0.1-3.1,0-6.1,0.4-9.2c0.4-3.1,1.1-6.2,2.5-9c0.3-0.7,0.7-1.4,1.1-2
				c0.1-0.2,0.2-0.4,0.3-0.5c0.1-0.1,0.3-0.1,0.4-0.1c0.4,0,0.8,0,1.2,0c1.6,0,3.2,0,4.8-0.1c0.8,0,1.6-0.1,2.4-0.1
				c0.4,0,0.8,0,1.2-0.1c0.2,0,0.3,0,0.5,0c0.2,0,0.3,0,0.4,0.2c0.1,0.2,0.1,0.3,0.3,0.3c0.2,0,0.4,0.1,0.5,0.1
				c0.1,0,0.2-0.2,0.3-0.3c0.1-0.1,0.4,0,0.5,0c0.8,0.1,1.5,0.2,2.3,0.4c3,0.7,5.9,1.8,8.9,2.4c0.4,0.1,0.7,0.2,1.1,0.2
				c0.4,0,0.8,0,1.2,0c0.8,0,1.6-0.1,2.3-0.2c1.5-0.1,3.1-0.4,4.6-0.7c1.6-0.3,3.1-0.5,4.7-0.7c0.7-0.1,1.5-0.2,2.2-0.3
				c0.4,0,0.8-0.1,1.1-0.1c0.3,0,1-0.2,1.2,0c0.2,0.3,0.5,0.5,0.7,0.8c0.2,0.2,0.5,0.5,0.8,0.7c0.3,0.2,0.6,0.3,0.8,0.6
				c0.2,0.3,0.2,0.7,0.1,1c0,0.3-0.1,0.7,0,1.1c0,0.2,0.1,0.4,0.1,0.5c0.1,0.2,0.2,0.2,0.4,0.2c0.7,0,1.3-0.3,1.8-0.8
				c0.3-0.3,0.5-0.5,0.7-0.8c0.2-0.2,0.2-0.3,0.5-0.2c0.2,0,0.4,0,0.6,0c0.2,0,0.4,0,0.5,0c0.2,0,0.4,0,0.5,0.2
				c0,0.4,0.1,0.7,0.1,1.1c0,0.4,0.1,0.7,0.1,1.1c0,0.1,0,0.4,0.1,0.5c0.2,0.1,0.4,0.1,0.5,0.2c0.1,0,0.4,0.1,0.5,0.2
				c0,0.2,0.1,0.4,0.1,0.6c0.1,0.4,0.1,0.7,0.2,1.1c0.2,1.6,0.2,3.1-0.1,4.7c-0.2,1.5-0.8,2.9-1.4,4.3c-0.6,1.4-1.4,2.8-2.1,4.1
				c-0.1,0.1-0.2,0.4-0.3,0.5c-0.1,0.1-0.4,0.2-0.5,0.3c-0.3,0.2-0.6,0.4-0.9,0.6c-0.7,0.4-1.3,0.8-2,1.2c-0.3,0.2-0.7,0.4-1,0.6
				c-0.2,0.1-0.2,0.2-0.2,0.4c0,0,0,0.2,0,0.3c0,0-0.2,0-0.3,0.1c-0.2,0-0.3,0.1-0.4,0.2c0,0.1-0.1,0.5-0.2,0.5
				c-0.1,0.1-0.4-0.1-0.5,0c-0.1,0.1,0,0.4,0,0.5c0,0.2,0,0.3,0,0.5c0,0.1,0,0.2,0,0.3c0,0.1,0.2,0.1,0.3,0.1
				c0.4,0.1,0.7,0.2,1.1,0.3c0.4,0.1,0.8,0.2,1.1,0.4c0.1,0,0.4,0,0.5,0c0.2,0,0.4,0,0.6,0c1.4,0.1,2.9,0.2,4.2-0.5
				c0.3-0.2,0.6-0.5,0.9-0.7c0.1-0.1,0.2-0.3,0.3-0.4c0.1-0.1,0.4-0.3,0.5-0.3c0.6-0.4,1.3-0.8,1.9-1.2c0.6-0.4,1.1-0.9,1.5-1.5
				c0.4-0.6,0.5-1.4,0.6-2.1c0-0.4,0.1-0.7,0.1-1.1c0-0.4,0.1-0.8,0.2-1.2c0.2-0.7,0.5-1.4,0.7-2.1c0.6-1.5,1.3-2.9,2-4.3
				c0.3-0.6,0.7-1.3,1.1-1.9c0.2-0.4,0.5-0.7,0.7-1.1c0.1-0.2,0.1-0.8,0.1-1c0-1.2-0.4-2.2-1-3.3c-0.6-1-1-2-1.2-3.2
				c1.4,0.7,2.8,1.3,4.2,2c0.7,0.4,1.4,0.8,2,1.2c0.3,0.2,0.6,0.4,0.8,0.6c0.1,0,0.4,0.2,0.4,0.3c0,0.2,0,0.5,0,0.7
				c0,3.1,0.1,6.2-0.2,9.2c-0.1,0.8-0.2,1.5-0.3,2.3c-0.1,0.4-0.2,0.8-0.2,1.2c0,0.2-0.1,0.4-0.1,0.6c0,0.1-0.1,0.4-0.1,0.5
				c-1.1,1.1-2.4,1.9-3.6,2.8c-1.2,1-1.9,2.3-1.9,3.8c0,0.2,0.1,0.2,0.3,0.3c0.2,0,0.4,0.1,0.5,0.1c0.4,0.1,0.7,0.1,1.1,0.1
				c0.8,0,1.5,0,2.3-0.1c0.8-0.1,1.5-0.1,2.3-0.2c0.4,0,0.7-0.1,1.1-0.1c0.3,0,0.3,0,0.4-0.3c0.1-0.2,0.1-0.4,0.2-0.5
				c0.6-1.2,1.9-2.1,3.1-2.8c0.2-0.1,0.4-0.2,0.5-0.3c0.2-0.1,0.3-0.1,0.3-0.4c0-0.4,0-0.8,0.1-1.2c0-0.4,0.1-0.7,0-1.1
				c-0.1-0.4-0.2-0.8-0.3-1.1c-0.4-1.5-0.5-3-0.4-4.6c0.2-3.2,1.3-6.1,2.1-9.2c0.3-1.5,1.1-2.8,1-4.4c-0.1-1.6-1.4-2.6-2.6-3.5
				c-0.6-0.4-1.3-0.8-1.9-1.3c-0.3-0.2-0.6-0.4-1-0.7c-0.3-0.2-0.5-0.6-0.7-0.9c-0.4-0.6-0.7-1.4-1-2.1c-0.1-0.1-0.1-0.3-0.2-0.4
				c-0.1-0.1-0.2-0.3-0.2-0.5c0-0.5,0-0.9,0-1.4c0.1-3.1,0.3-6.2,0.5-9.3c0.3-3.1,0.7-6.2,1.3-9.2c0.2-1.4,0.6-2.8,0.9-4.2
				c1.2,2.9,2,5.9,2.4,9c0.4,3.1,0.4,6.3,0.4,9.5c0,1.5-0.1,3.1-0.1,4.6c0,0.9,0,1.8,0,2.6c0,0.7,0.3,1.3,0.4,2
				c0.2,0.7,0.8,1.3,1.3,1.8c0.5,0.5,1.1,1,1.6,1.5c1,1,2.1,2,2.6,3.4c0.1,0.3,0.2,0.5,0.3,0.8c0.2-0.1,0.4-0.1,0.6-0.2
				c0,0,0.3,0,0.3-0.1c0-0.1,0-0.3,0-0.4c0-0.4,0-0.8,0-1.2c0-0.4,0-0.8,0-1.2c0-0.2,0-0.5,0-0.7
				C445.4,566.7,445.1,566.5,445.1,566.3z"/>
		</g>
		<g>
			<path fill-rule="evenodd" clip-rule="evenodd" fill="#FFFFFF" d="M380.9,566.6c-0.3-0.1-0.7-0.1-1-0.2c0,0.1,0,0.2,0,0.3
				c0,0.2,0,0.2,0.2,0.3c0.2,0.1,0.4,0.2,0.6,0.2c0.1,0,0.2,0,0.3,0c0.2,0,0.2,0,0.2-0.1c0-0.1,0-0.2,0-0.3
				C381.3,566.6,381,566.6,380.9,566.6z"/>
		</g>
	</g>
	<g>
		<g>
			<g>
				<path fill-rule="evenodd" clip-rule="evenodd" fill="#FFFFFF" d="M343.2,788.9c-0.1,1.4-0.8,2-2.1,2c-2.7,3.6-8.7,7.5-10.5,7.5
					c-1.1,0.2-7.3-3.7-9.9-6.3L343.2,788.9z"/>
			</g>
			<g>
				<path fill-rule="evenodd" clip-rule="evenodd" fill="#FFFFFF" d="M343.1,783c0.5,0.5,0.6,1.9,0,3.2l-25.4,3.6
					c-0.6-0.7-0.8-2.3,0.1-3.2L343.1,783z"/>
			</g>
			<g>
				<path fill-rule="evenodd" clip-rule="evenodd" fill="#FFFFFF" d="M342.8,777c0.9,1,0.6,2.5-0.6,3.1c0.1,0-19.5,2.9-24.1,3.5
					c-0.7-0.9-0.7-2.4,0-3.2L342.8,777z"/>
			</g>
			<g>
				<path fill-rule="evenodd" clip-rule="evenodd" fill="#FFFFFF" d="M344.2,772l-0.1,1.8c0,0.1,0,0.2-0.1,0.3l-26.5,3.7
					c-0.6-0.8-0.6-2.1,0-3.5h-0.5c-0.2,0-0.4-0.2-0.4-0.4V772H344.2z"/>
			</g>
		</g>
		<g>
			<g>
				<path fill-rule="evenodd" clip-rule="evenodd" fill="#FFFFFF" d="M363.9,722.6c0-17.9-14.5-32.4-32.4-32.4
					c-17.9,0-32.4,14.5-32.4,32.4c0,4.2,0.8,8.3,2.3,12c-0.1,0-0.1,0,0,0.1c0.1,0.2,0.2,0.3,0.3,0.5c1.1,2.7,2.7,5.2,4.5,7.5
					c3.4,5.5,6.8,11.1,7.6,14.9l0.6,8.1c0.1,1.1,0.6,2.8,2,3.6h10.3l-8.2-56.7l2.7,8.4l2.1-8.9l2.3,8.5l1.7-8.5l2.3,8.4l2.3-8.4
					l2.1,8.7l3.1-8.9l1,9.1l4.7-8.9l-9.1,57.3h11c1-0.3,2.7-1.9,3-3.6l2-9.7c0.7-3,6.4-11.1,9.4-16.8l0,0
					C362.2,734.3,363.9,728.7,363.9,722.6z"/>
			</g>
			<g>
				<polygon fill-rule="evenodd" clip-rule="evenodd" fill="#FFFFFF" points="337.1,727.3 336.4,720.2 333.9,727.3 332,719.3 
					329.7,727.3 327.7,719.9 325.9,728.5 323.4,719.5 322.1,725.1 328.6,769.1 332.2,769.1 339.4,722.9 				"/>
			</g>
		</g>
	</g>
	<g>
		<path fill-rule="evenodd" clip-rule="evenodd" fill="#FFFFFF" d="M228.2,517.4h20.8c0.3-9.7,0.9-4.2,1.8-14h0.2h0h0.2h0h0.2h0h0.2
			h0h0.2h0h0.2h0h0.2h0h0.2h0h0.2h0h0.2h0h0.2h0h0.2h0h0.2h0h0.2h0h0.2h0h0.2h0h0.2h0h0.2h0h0.2h0h0.2h0h0.2h0h0.2h0h0.2h0h0.2h0
			h0.2h0h0.2h0h0.2h0h0.2h0h0.2h0h0.2h0h0.2h0h0.2h0h0.2h0h0.2h0h0.2h0h0.2h0h0.2h0h0.2h0h0.2h0h0.2h0h0.2h0h0.2h0h0.2h0h0.2h0h0.2
			h0h0.2h0h0.2h0h0.2h0h0.2h0h0.2h0h0.2h0h0.2h0h0.2h0h0.2h0h0.2h0h0.2h0h0.2h0h0.2h0h0.2h0h0.2h0h0.2h0h0.2h0h0.2h0h0.2h0h0.2
			c1.9,27.9,2.5,40.7,0,68.6h-0.2h0h-0.2h0h-0.2h0h-0.2h0h-0.2h0h-0.2h0h-0.2h0h-0.2h0h-0.2h0h-0.2h0h-0.2h0h-0.2h0h-0.2h0H259h0
			h-0.2h0h-0.2h0h-0.2h0h-0.2h0h-0.2h0H258h0h-0.2h0h-0.2h0h-0.2h0h-0.2h0h-0.2h0h-0.2h0h-0.2h0h-0.2h0h-0.2h0h-0.2h0h-0.2h0h-0.2h0
			H256h0h-0.2h0h-0.2h0h-0.2h0h-0.2h0h-0.2h0H255h0h-0.2h0h-0.2h0h-0.2h0h-0.2h0h-0.2h0h-0.2h0h-0.2h0h-0.2h0h-0.2h0h-0.2h0h-0.2h0
			h-0.2h0H253h0h-0.2h0h-0.2h0h-0.2h0h-0.2h0h-0.2h0H252h0h-0.2h0h-0.2h0h-0.2h0h-0.2h0h-0.2h0h-0.2h0h-0.2h-24.5h-9.8h-0.2h-0.2
			c-1-27.9-1.3-40.6,0-68.6h0.2h0.2h0.2h0.2h0.2h0.2h0.2h0.2h0.2h0.2h0.2h0.2h0.2h0.2h0.2h0.2h0.2h0.2h0.2h0.2h0.2h0.2h0.2h0.2h0.2
			h0.2h0.2h0.2h0.2h0.2h0.2h0.2h0.2h0.2h0.2h0.2h0.2h0.2h0.2h0.2h0.2h0.2h0.2h0.2h0.2h0.2h0.2h0.2h0.2h0.2h0.2h0.2h0.2h0.2h0.2h0.2
			h0.2h0.2h0.2h0.2h0.2h0.2h0.2h0.2C227.3,513.2,227.9,507.7,228.2,517.4L228.2,517.4z M230.9,549.7l2.3-4l2.3,1.5l-3.1-5.8l-7-0.4
			l2.6,1.6l-1.5,2.6c-0.3,0.7-0.2,1.4,0.3,2.1l3.7,6.4C229.9,552.4,229.8,551,230.9,549.7L230.9,549.7z M240.2,555.7l0.1-6.1
			l-8.9,0.2c-1.8,1.8-0.7,5.9,2.1,5.9L240.2,555.7L240.2,555.7z M249.9,549.5l-4.6,0l0.2-2.8l-3.5,5.6l3.2,6.3l0.1-3.1l3,0
			c0.7-0.1,1.3-0.5,1.7-1.3l3.7-6.4C252.7,549.1,251.5,549.8,249.9,549.5L249.9,549.5z M250.4,538.5l-5.3,3l4.6,7.6
			c2.5,0.7,5.4-2.3,4.1-4.7L250.4,538.5L250.4,538.5z M240.2,533.3l2.3,4l-2.5,1.2l6.6,0.2l3.9-5.9l-2.7,1.5l-1.5-2.6
			c-0.4-0.6-1.1-0.8-2-0.8l-7.4,0C238.4,531.1,239.7,531.7,240.2,533.3L240.2,533.3z M230.5,538.4l5.3,3.1l4.3-7.8
			c-0.6-2.5-4.7-3.5-6.1-1.2L230.5,538.4z"/>
	</g>
	<g>
		<g>
			<path fill-rule="evenodd" clip-rule="evenodd" fill="#FFFFFF" d="M269.5,658.1h4.7v-10c0-0.3,0.3-0.5,0.6-0.5h3.5
				c0.3,0,0.6,0.2,0.6,0.5v10h5.7v-10c0-0.3,0.3-0.5,0.6-0.5h3.5c0.3,0,0.6,0.2,0.6,0.5v10h4.7h0.9c0.5,0,0.9,0.4,0.9,0.9v2.8
				c0,0.5-0.4,0.9-0.9,0.9h-1.3l-6,15H276l-6-15h-1.3c-0.5,0-0.9-0.4-0.9-0.9V659c0-0.5,0.4-0.9,0.9-0.9H269.5L269.5,658.1z
				 M260.9,691.1c0.5,0.2,4.6,1.5,8,2.7v18.4h11l0,0c3.3,0,4.7-1.6,4.8-4.2v-28.5h-6.1v26.6h-3.5v-14.8l-1.1-0.4l0,0
				c-0.5-0.1-1.1-0.3-1.9-0.6l-3.1-1.1 M269,693.8v-4.5l0,0L269,693.8z"/>
		</g>
	</g>
	<g>
		<path fill-rule="evenodd" clip-rule="evenodd" fill="#FFFFFF" d="M453.7,658.6c0.4-0.3,1.5-0.5,1.7-0.3c1.1-0.9,2.3-1,3.4,0
			c0.2-0.2,1.5,0.3,1.9,0.6c3.4,3.2,3.8,4.1,4.8,8.9c0.1,0.6,0,1.2-0.2,1.4c0.8,0.3,1.6,3.8,0.8,5.1c0.6,0.9,1.2,3.9,0.5,5.1
			c0.7,1,0.9,4,0.1,5c0.3,0.7,0.5,1.6,0.5,2.6c1.1-2,2.1-3.5,3-4c1.6-0.9,1.1-0.4,0,3.4c-1.1,3.7,0.2,9.7-0.5,13.3
			c-1.1,5.1-7.6,4.5-8.7,9.9c0,0.2,0,0.4-0.2,0.4c-2.3,0.9-5.2,0.9-7.5,0c-0.2-0.1-0.2-0.2-0.2-0.5c-1.1-5.4-7.6-4.8-8.7-9.9
			c-0.8-3.6,0.6-9.6-0.5-13.3c-1.1-3.7-1.6-4.2,0-3.4c0.8,0.5,1.9,1.9,2.9,3.9c0-0.9,0.1-1.9,0.4-2.5c-0.7-1.1-0.4-4,0.1-5
			c-0.7-1.3-0.2-4.4,0.5-5.1c-0.8-1.5,0-4.9,0.8-5.1c-0.1-0.2-0.2-0.9-0.1-1.5C449.7,662.9,450.3,661.8,453.7,658.6L453.7,658.6z
			 M463.1,694.4c0.5-0.5,1-1.2,1.3-1.9l0.7-1.5c-0.4-0.5-3.1,0.1-3.6,0.2c-0.6,0.1-0.6,3.5-0.3,3.5
			C462,694.5,462.6,694.5,463.1,694.4L463.1,694.4z M449.1,690.9c0.3,0.5,0.5,1.1,0.8,1.6c0.4,0.8,0.9,1.4,1.4,2
			c1,0.2,1.9,0.2,1.9-0.3c-0.3-3.8-0.5-2.9-3.9-3.4C449.2,690.8,449.1,690.8,449.1,690.9L449.1,690.9z M454,663.4
			c0.4-2.8,0.3-3.3-0.7-2.3c-0.7,0.7-1.8,1.8-2.3,2.7c-0.2,0.4-1.4,3-0.2,2.4C451.8,665.7,453.9,664.5,454,663.4L454,663.4z
			 M450.1,669c-0.6,0.5-0.6,2.1-0.7,2.8c-0.1,0.4,3.8-1.3,3.9-2.3C453.7,665.3,453.2,666.6,450.1,669L450.1,669z M458.5,660.7
			c-0.5-2.1-2.6-1.4-2.8-0.2c-0.3,0.9-0.2,2-0.1,2.6c0.1,0.6,1.3,0.6,2.2,0.5c0.9-0.1,0.9-0.5,0.9-1
			C458.6,662.1,458.6,661.5,458.5,660.7L458.5,660.7z M449.4,674.5c-0.6,0.4-0.5,2.1-0.6,2.8c0,0.4,4-0.4,4.1-1.5
			C453.1,671.6,452.8,672.7,449.4,674.5L449.4,674.5z M455.5,665.8c-0.6,0.2-0.5,2.6-0.6,3.2c0,0.4,2.7,0.5,3.9,0.3
			c0.3-0.1,0.5-0.3,0.5-0.8C459,665.7,458.7,665,455.5,665.8L455.5,665.8z M449,679.9c-0.6,0.2-0.4,2.1-0.4,2.7
			c0,0.6,4.1,0.3,4.1-0.7C452.8,677.9,452.7,678.9,449,679.9L449,679.9z M448.9,685.4c-0.6,0-0.2,2.2-0.2,2.6c0,0.9,4.1,1,4.1,0.1
			C452.7,684.2,452.4,685.1,448.9,685.4L448.9,685.4z M459.5,672.8c-0.1-1.5-3.7-0.8-4.5-0.6c-0.6,0.1-0.6,3.7-0.2,3.6
			C458.9,675.3,459.9,677.7,459.5,672.8L459.5,672.8z M454.7,684.9c-0.6,0-0.3,2.6-0.3,3.1c0,0.9,5.3,0.9,5.4,0
			C459.9,683.6,459.8,684.6,454.7,684.9L454.7,684.9z M459.8,679.2c0-1.4-4.2-0.7-5.1-0.6c-0.6,0.1-0.6,3.7-0.1,3.6
			C459,681.9,459.9,684,459.8,679.2L459.8,679.2z M464.1,669c-0.5-0.4-3.6-2.8-3.5-1.9c0.4,4.1,0.6,2.9,3.9,5
			C464.7,672.2,464.7,669.5,464.1,669L464.1,669z M462.9,666.2c1.8,1.7,1.1-2.5-2.2-5.1c-0.4-0.3-0.7-0.3-0.7,0.6
			c0,0.9,0.1,2.2,0.5,2.5C461.5,664.8,462.3,665.6,462.9,666.2L462.9,666.2z M461.7,679c-0.5-0.1-0.3,2.5-0.3,2.9
			c0,1,4.1,1.3,4.1,0.7C465.5,679.1,464.8,679.7,461.7,679L461.7,679z M465.1,675.1c-0.1-1.2-2.9-1.9-3.7-2.2
			c-0.3-0.1-0.5,3.3,0.2,3.5C464.6,677.2,465.6,679.2,465.1,675.1L465.1,675.1z M459.3,691.3c-0.8,0-4.8-0.5-4.7,0.6
			c0.2,4.2,0.6,3.2,4.5,3.1C459.7,694.9,459.8,691.3,459.3,691.3L459.3,691.3z M461.8,685.1c-0.6,0-0.4,2.5-0.4,2.9
			c0,0.9,4,0.8,4.1-0.1C465.6,684.4,464.9,685.3,461.8,685.1z"/>
	</g>
	<g>
		<path fill-rule="evenodd" clip-rule="evenodd" fill="#FFFFFF" d="M371.7,734.6l4.9-3.7l0.4-0.3h0.5h8.1h1.5h5.9v3.1h-4.3v5.1h5.6
			h1v1v7.4v1h-1h-2v1.5l4.3,1.3v0c0.8,0.2,1.4,0.6,1.8,1.3c0.4,0.6,0.6,1.4,0.6,2.4l0,0v18.3v0l0,0.1c-0.1,0.9-0.4,1.6-0.9,2.2
			c-0.5,0.6-1.3,0.9-2.2,1l-0.1,0h0h-4h-9.6h-4h0l-0.1,0c-0.9-0.1-1.6-0.5-2.2-1c-0.5-0.6-0.8-1.3-0.9-2.2l0-0.1v0v-18.3l0,0
			c0-1,0.2-1.7,0.6-2.4c0.4-0.7,1-1.1,1.8-1.3v0l4.3-1.3v-1.5h-2h-1v-1v-7.4v-1h1h5.9v-5.1H378l-4.5,3.3L371.7,734.6L371.7,734.6z
			 M369.3,742.5c-0.5,0.8-0.9,1.7-0.6,2.4c0.1,0.4,0.3,0.6,0.6,0.7c0.1,0,0.3,0.1,0.4,0c0.1,0,0.3-0.1,0.4-0.2
			c0.1-0.1,0.2-0.2,0.2-0.4c0-0.5-0.3-1.1-0.5-1.6C369.6,743.2,369.4,742.9,369.3,742.5L369.3,742.5z M366.9,745.6
			c0.4,1,1,1.6,1.7,1.9c0.5,0.2,0.9,0.2,1.4,0.1c0.4-0.1,0.9-0.3,1.2-0.5c0.6-0.4,1-1.1,1-1.9c0-1-0.4-1.8-0.7-2.5
			c-0.2-0.5-0.4-0.9-0.5-1.3c0-1,0.1-1.2,0.1-1.2l-0.1-1.8l-1.4,0.7C369.5,739.2,365.9,742.7,366.9,745.6L366.9,745.6z M390.3,748.3
			h-2.4c-0.5,4.8,0.3,9,1.4,13.5h5.9h0.5v0.5v9.5v0.5h-0.5h-15.8h-0.5v-0.5v-9.5v-0.5h0.5h7.8c-1.1-4.4-1.9-8.6-1.3-13.5h-2.1v2.3
			v0.8l-0.7,0.2l-5.1,1.5l0,0c-0.3,0.1-0.5,0.2-0.6,0.4c-0.2,0.3-0.3,0.7-0.3,1.3h0v18.2c0.1,0.4,0.2,0.7,0.4,0.9
			c0.2,0.2,0.5,0.3,0.8,0.4h4h9.6h4c0.4-0.1,0.7-0.2,0.8-0.4c0.2-0.2,0.3-0.5,0.4-0.9v-18.2h0c0-0.6-0.1-1-0.3-1.3
			c-0.1-0.2-0.3-0.3-0.6-0.4l0,0l-5.1-1.5l-0.7-0.2v-0.8V748.3L390.3,748.3z M393.3,740.9h-12.6v5.4h12.6V740.9L393.3,740.9z
			 M389.5,762.8c0.2,0.6,0.3,1.2,0.5,1.9c0.2,0.6,0.3,1.3,0.6,2.2l-2,0.5c-0.2-0.6-0.4-1.4-0.6-2.2c-0.2-0.8-0.4-1.6-0.6-2.4h-7.6
			v8.5h14.8v-8.5H389.5z"/>
	</g>
	<g>
		<g>
			<g>
				<path fill="#FFFFFF" d="M401,641.1c0,0-1.6-0.3-2.8-1l0.1-0.2c-2.5-1.2-5.1-2.6-5.1-7c0-0.2,0.2-0.4,0.2-0.6l2-6.4
					c0.2-5.1,4.4-8.9,10-8.9h11.9c1.5,0,6.5-5.4,9.9-8.5c9-8.2,9.7-8.5,11-8.5h28.1c6.1,0,12.3,17.1,13.1,19.1
					c0.1,0.3-0.4,0.4-0.4,0.7v16.8c0,3.5-3,3.5-4.4,3.6c-0.2,0-1.3,0-1.6,0c-0.5,0.5-0.1,0.9-3.1,0.9v-4.3c0,0-0.1,0.6-0.3,1.4
					c0.2-1.2,1.7-2,2.9-2.1c0.6-0.1,1.2-0.1,1.8-0.1c0.2,0,0.6,0,0.6,0v-15.6c-2-7.5-7.3-15.5-9.1-16l-27.3,0c-1.3,1-5.4,5-8.5,7.8
					c-10,9.1-10.9,10.1-12.3,10.1h-12.4c-2.8,0-5.6,1.3-5.6,4.6c0,0.2,0,0.3-0.1,0.5l-1.9,6.2c0.1,1.3,0.5,1.6,2.9,2.7l-0.6,0.2
					c0.8,0.4,0.9,0.5,0.9,0.5V641.1z M472,637v1.9l0.4-1.9C472.4,637,472,637,472,637z"/>
			</g>
			<g>
				<rect x="423" y="639" fill="#FFFFFF" width="26" height="4"/>
			</g>
			<g>
				<path fill="#FFFFFF" d="M413.7,651.4c-7.5,0-13.7-6.1-13.7-13.7c0-7.5,6.1-13.7,13.7-13.7s13.7,6.1,13.7,13.7
					C427.4,645.2,421.3,651.4,413.7,651.4z M413.7,628.4c-5.1,0-9.3,4.2-9.3,9.3c0,5.1,4.2,9.3,9.3,9.3c5.1,0,9.3-4.2,9.3-9.3
					C423.1,632.5,418.9,628.4,413.7,628.4z"/>
			</g>
			<g>
				<path fill="#FFFFFF" d="M462.1,651.4c-7.5,0-13.7-6.1-13.7-13.7c0-7.5,6.1-13.7,13.7-13.7s13.7,6.1,13.7,13.7
					C475.8,645.2,469.6,651.4,462.1,651.4z M462.1,628.4c-5.1,0-9.3,4.2-9.3,9.3c0,5.1,4.2,9.3,9.3,9.3c5.1,0,9.3-4.2,9.3-9.3
					C471.4,632.5,467.2,628.4,462.1,628.4z"/>
			</g>
		</g>
	</g>
	<g>
		<g>
			<path fill-rule="evenodd" clip-rule="evenodd" fill="#FFFFFF" d="M372.8,655.6h54.1h1.5v1.5v13.2v1.5v1.5v48.3v1.5h-1.5h-54.1
				h-1.5v-1.5v-48.3v-1.5v-1.5v-13.2v-1.5H372.8L372.8,655.6z M400.4,678c-5.1,0-9.6,2-12.9,5.4c-3.3,3.3-5.4,7.9-5.4,12.9
				c0,5.1,2,9.6,5.4,12.9c3.3,3.3,7.9,5.4,12.9,5.4c5.1,0,9.6-2,12.9-5.4c3.3-3.3,5.4-7.9,5.4-12.9c0-5.1-2-9.6-5.4-12.9
				C410,680,405.4,678,400.4,678L400.4,678z M410.1,686.5c-2.5-2.5-5.9-4-9.7-4c-3.8,0-7.2,1.5-9.7,4c-2.5,2.5-4,5.9-4,9.7
				c0,3.8,1.5,7.2,4,9.7c2.5,2.5,5.9,4,9.7,4c3.8,0,7.2-1.5,9.7-4c2.5-2.5,4-5.9,4-9.7C414.1,692.5,412.6,689,410.1,686.5
				L410.1,686.5z M400,663.3v2.7h5.7v-2.7H400L400,663.3z M419.8,661.4c-1.7,0-3,1.4-3,3c0,1.7,1.4,3,3,3c1.7,0,3-1.4,3-3
				C422.8,662.8,421.5,661.4,419.8,661.4L419.8,661.4z M408.5,663.3v2.7h5.7v-2.7H408.5L408.5,663.3z M425.4,673.4h-51.1v46.7h51.1
				V673.4L425.4,673.4z M425.4,658.7h-51.1v11.7h51.1V658.7z"/>
		</g>
		<g>
			<path fill-rule="evenodd" clip-rule="evenodd" fill="#FFFFFF" d="M399.8,693.8c0-4.1-9.2-7.2-11.3,2.8c0,0.1,0,0.2,0,0.3
				c0,6.6,5.4,12,12,12c6.1,0,11.1-4.5,11.9-10.4C408.6,697.2,399.8,703.9,399.8,693.8z"/>
		</g>
	</g>
	<g>
		<g>
			<path fill="#FFFFFF" d="M286,782.1h-31.3c-0.9,0-1.8-0.6-2.1-1.5c-0.6-1.9-1.2-4-1.7-6.3c-1.4-0.7-2.4-2.1-2.4-3.8
				c0-1.1,0.4-2.1,1.2-2.9c-0.6-4.4-0.9-8.9-0.9-13.5c0-4.9,0.4-9.7,1.1-14.3c-0.8-0.8-1.3-1.9-1.3-3c0-1.8,1.1-3.3,2.6-3.9
				c0.4-1.8,0.9-3.6,1.5-5.2c0.3-0.9,1.1-1.5,2.1-1.5H286c0.9,0,1.8,0.6,2.1,1.5c0.5,1.6,1,3.4,1.5,5.2c1.5,0.6,2.6,2.1,2.6,3.9
				c0,1.2-0.5,2.3-1.3,3c0.7,4.6,1.1,9.5,1.1,14.3c0,4.6-0.3,9.1-0.9,13.5c0.7,0.8,1.2,1.8,1.2,2.9c0,1.7-1,3.1-2.4,3.8
				c-0.5,2.3-1.1,4.4-1.7,6.3C287.7,781.5,286.9,782.1,286,782.1z M256.3,777.7h28.1c0.5-1.7,1-3.6,1.4-5.7c0.2-1,1.1-1.7,2.1-1.7
				c-1-0.4-1.6-1.1-1.4-2.1c0.7-4.6,1.1-9.3,1.1-14.1c0-5.1-0.4-10.2-1.2-15c-0.1-0.9,0.3-1.7,1-2.2c-0.8-0.2-1.5-0.8-1.7-1.7
				c-0.4-1.7-0.8-3.2-1.2-4.7h-28.1c-0.4,1.5-0.8,3-1.2,4.7c-0.2,1-1.1,1.7-2.1,1.7h-0.2c1.1,0.3,1.8,1.1,1.6,2.2
				c-0.8,4.9-1.2,9.9-1.2,15c0,4.8,0.4,9.6,1.1,14.1c0.1,0.9-0.3,1.7-1,2.2c0.8,0.2,1.5,0.8,1.6,1.7
				C255.3,774.1,255.7,776,256.3,777.7z"/>
		</g>
		<g>
			<path fill="#FFFFFF" d="M288.8,726.9h-4.3c0-0.9-0.8-1.7-1.7-1.7h-25c-0.9,0-1.7,0.8-1.7,1.7h-4.3c0-3.3,2.7-6,6-6h25
				C286.1,720.8,288.8,723.5,288.8,726.9z"/>
		</g>
		<g>
			<path fill-rule="evenodd" clip-rule="evenodd" fill="#FFFFFF" d="M284.3,730"/>
		</g>
		<g>
			<g>
				<circle fill="#FFFFFF" cx="270.1" cy="773.4" r="2.9"/>
			</g>
		</g>
		<g>
			<rect x="253.9" y="736.8" fill="#FFFFFF" width="32.7" height="2.2"/>
		</g>
		<g>
			<path fill="#FFFFFF" d="M286.6,769.6c-10-0.8-21.7-1.5-32.5,0l-0.3-2.2c11-1.5,22.8-0.9,33,0L286.6,769.6z"/>
		</g>
	</g>
	<g>
		<g>
			<g>
				<g>
					<path fill="#FFFFFF" d="M280.4,607.2c0,0,1.9-1.2,3.1-5c1.2-3.8-0.9-6.1-0.9-6.1s-3.9-0.9-4.7-2.9c-0.5-1.1-0.4-3.3-0.2-6.5
						c0.1-1.2,2.4-7.3,3.4-10.4l-0.2-0.2l-10.2,13.1l-3.4-3.3c-0.6-0.6-0.6-1.4,0-2.9c0.5-1.4,9.7-13.6,10.5-14.4l-0.1-1.3l-5.7,1.2
						l0.1-3.3h6.9c1-2,3.6-2,3.6-2h16.7l0.1-2h0.7c0.8,0,3.3-4.2,5.2-5.1l4.8-1.5v20.8l-0.1,0.1c0,0-3.3,0.2-3.8,0.1
						c-1.8-0.3-5-2.8-5.8-3.5l-2.1-0.2l0.2-1.7l-2.2,0l-0.3,1.7c0,0-1.5,0.2-1.5,0.2c-0.8,0-1.7,1.2-1.8,2.9
						c-0.2,3.1,1.8,3.5,1.8,3.5l-0.3,3.8c0,0-2.7-0.1-3.2,2.8c-0.3,2,1.8,3.1,1.8,3.1s0.6,3.3-0.5,5.8c-0.6,1.4-5.8,2.6-5.8,2.6
						s1.7,2.9,0.6,6.6c-1.1,3.6-2.8,5.7-2.8,5.7l0,0"/>
				</g>
				<g>
					<g>
						<g>
							<path fill="#FFFFFF" d="M313.4,563.9l22,0.1c0.4,0,0.7,0.3,0.7,0.7c0,0.4-0.3,0.7-0.7,0.7l-22-0.1c-0.4,0-0.7-0.3-0.7-0.7
								C312.7,564.2,313,563.9,313.4,563.9z"/>
						</g>
					</g>
					<g>
						<g>
							<path fill="#FFFFFF" d="M313.3,559.8l20.3-3.1c0.4-0.1,0.7,0.2,0.8,0.5c0.1,0.4-0.2,0.7-0.5,0.8l-20.3,3.1
								c-0.4,0.1-0.7-0.2-0.8-0.5C312.7,560.2,312.9,559.9,313.3,559.8z"/>
						</g>
					</g>
					<g>
						<g>
							<path fill="#FFFFFF" d="M313.2,555.7l18.2-4.8c0.3-0.1,0.7,0.1,0.9,0.4c0.1,0.3-0.1,0.7-0.4,0.8l-18.2,4.8
								c-0.3,0.1-0.7-0.1-0.8-0.4C312.7,556.2,312.9,555.8,313.2,555.7z"/>
						</g>
					</g>
					<g>
						<g>
							<path fill="#FFFFFF" d="M313.6,572.3l18.1,5c0.3,0.1,0.5,0.5,0.4,0.9c-0.1,0.3-0.5,0.5-0.9,0.4l-18.2-5
								c-0.3-0.1-0.5-0.5-0.4-0.9C312.8,572.3,313.2,572.2,313.6,572.3z"/>
						</g>
					</g>
					<g>
						<g>
							<path fill="#FFFFFF" d="M313.5,568.1l20.3,3.3c0.4,0.1,0.6,0.4,0.5,0.8c-0.1,0.4-0.4,0.6-0.8,0.5l-20.3-3.3
								c-0.4-0.1-0.6-0.4-0.5-0.8C312.8,568.3,313.1,568,313.5,568.1z"/>
						</g>
					</g>
				</g>
			</g>
		</g>
	</g>
	<g>
		<g>
			<path fill-rule="evenodd" clip-rule="evenodd" fill="#FFFFFF" d="M308.8,521.4h1.1v1.4v16.6v1.4h-1.1h-1.4v-1.4v-0.7l-5.2-0.1
				l-14.9,3.5l-0.4,0.1l-0.3-0.2l-16.2-9.8l-0.7-0.5l0.4-0.8l2-3.7l0.4-0.7l0.7,0.3l13.5,4.8l6.2-2.3c-1.2-0.3-2.3-0.6-3.3-1
				c-1.9-0.7-3.5-1.5-5-2.4l-0.6-0.4l0.2-0.7l1.1-4l0.2-0.8l0.8,0.1c4,0.6,7.5,1.4,11.1,2.2c3.3,0.8,6.5,1.5,10,2v-1.7v-1.4H308.8
				L308.8,521.4z M307.5,536.8v-10.5c-3.7-0.5-7.1-1.3-10.4-2.1c-4.5-0.9-6.7-1.5-10.1-2.1l-0.7,2.5c1.3,0.7,2.6,1.3,4.1,1.9
				c1.8,0.6,3.8,1.2,6.3,1.5l3.8,0.5l-3.6,1.3l-9.8,3.6l-0.3,0.1l-0.3-0.1l-13-4.6l-1.2,2.3l15.1,9.2l14.6-3.4l0.1,0l0.1,0
				L307.5,536.8L307.5,536.8z"/>
		</g>
		<g>
			<g>
				<line fill="none" stroke="#FFFFFF" stroke-linecap="round" stroke-miterlimit="10" x1="282.2" y1="503.5" x2="282.1" y2="504"/>
				
					<line fill="none" stroke="#FFFFFF" stroke-linecap="round" stroke-miterlimit="10" stroke-dasharray="0.9944,1.9888" x1="281.7" y1="505.9" x2="277.8" y2="525.4"/>
				
					<line fill="none" stroke="#FFFFFF" stroke-linecap="round" stroke-miterlimit="10" x1="277.6" y1="526.4" x2="277.5" y2="526.9"/>
			</g>
		</g>
		<g>
			<g>
				
					<line fill="none" stroke="#FFFFFF" stroke-linecap="round" stroke-miterlimit="10" x1="293.5" y1="503.6" x2="293.6" y2="504.1"/>
				
					<line fill="none" stroke="#FFFFFF" stroke-linecap="round" stroke-miterlimit="10" stroke-dasharray="0.9836,1.9672" x1="294" y1="506" x2="297.2" y2="519.4"/>
				
					<line fill="none" stroke="#FFFFFF" stroke-linecap="round" stroke-miterlimit="10" x1="297.4" y1="520.3" x2="297.5" y2="520.8"/>
			</g>
		</g>
		<g>
			<g>
				<line fill="none" stroke="#FFFFFF" stroke-linecap="round" stroke-miterlimit="10" x1="288.2" y1="503.5" x2="288.2" y2="504"/>
				
					<line fill="none" stroke="#FFFFFF" stroke-linecap="round" stroke-miterlimit="10" stroke-dasharray="1.0576,2.1153" x1="288.2" y1="506.1" x2="288.1" y2="517.7"/>
				
					<line fill="none" stroke="#FFFFFF" stroke-linecap="round" stroke-miterlimit="10" x1="288.1" y1="518.8" x2="288.1" y2="519.3"/>
			</g>
		</g>
	</g>
</g>
</svg>
