<?xml version="1.0" encoding="utf-8"?>
<!-- Generator: Adobe Illustrator 17.1.0, SVG Export Plug-In . SVG Version: 6.00 Build 0)  -->
<!DOCTYPE svg PUBLIC "-//W3C//DTD SVG 1.1//EN" "http://www.w3.org/Graphics/SVG/1.1/DTD/svg11.dtd">
<svg version="1.1" id="Layer_1" xmlns="http://www.w3.org/2000/svg" xmlns:xlink="http://www.w3.org/1999/xlink" x="0px" y="0px"
	 viewBox="0 428 640 280" enable-background="new 0 428 640 280" xml:space="preserve">
<g>
	<g>
		<g>
			<path fill="#DDE8D9" d="M497.6,597.5c-15.3,9.9-23.4,7.2-29.2,12.4c5.9-0.6,13.4-2.5,23.4-7.6c5.4-2.8,7.8-2.1,6.1-4.4
				C497.8,597.8,497.7,597.7,497.6,597.5z"/>
			<path fill="#FFFFFF" d="M497.9,597.9c-3.9-5.3-54.7-74.9-58.6-80.2c-1.7-2.3-1.8,0.1-6.1,4.4c-20.7,20.8-14.3,33.9-20.7,40.1
				l35.2,48.2c7.9-4.2,16.5,5.9,44.1-8.2C497.3,599.5,499.6,600.2,497.9,597.9z"/>
			<path fill="#CFA95F" d="M455.1,542.9c0-1-0.6-3.6-1.1-4.5c-1-2-2.5-3.8-3.9-5.6c-1.9,0.5-4.1,1-6.2,1c-1.2,2.1-1.9,4.6-1.2,5.9
				c0.5,0.9,1.1,1.7,1.8,2.4c1.8,0,3.7,0.5,4.9,1.8c0.1,0.1,0.1,0.1,0.2,0.2c0.1-0.1,0.1-0.2,0.2-0.3c0,0.1-0.1,0.2-0.2,0.3
				c0.5,0.6,0.8,1.2,1,1.8c0.1,0,0.1,0.1,0.2,0.3c0.8,0.3,1.5,0.9,2,1.5c0.8,0.2,1.6,0.3,2.5,0.3c1.7,0.1,3.1,0.8,4.2,1.8
				c1.6-0.2,2.9,0.4,3.8,1.3c0.1,0,0.1,0,0.1,0C463.7,550.9,457.9,542.4,455.1,542.9z"/>
			<path fill="#DDE8D9" d="M420.7,572.7c5.6-9.1-3.8-20.5,14.3-50.7c1.2-2,2-3.6,2.5-4.8c-0.8,0.8-1.9,2.6-4.2,4.9
				c-20.7,20.8-14.3,33.9-20.7,40.1l35.2,48.2c4.8-2.6,10,0.3,19.7-0.5L420.7,572.7z"/>
		</g>
		<path fill="#CACEC8" d="M412.5,562.3l35.2,48.2c7.7-4.1,16.2,5.6,42.8-7.6c-2.6-3.6-7.8-25.6-22.5-45.7h-52.7
			C414.7,559.3,413.9,560.9,412.5,562.3z"/>
	</g>
	<g>
		<path fill="#FFFFFF" d="M503.9,562.6c-6.5,0-92.7,0-99.3,0c-2.9,0-1,1.5,0,7.5c4.6,29,18.9,31.6,20.2,40.4h59.7
			c1.3-8.8,14.5-9.8,19.4-40.4C504.9,564.1,506.8,562.6,503.9,562.6z"/>
		<path fill="#DDE8D9" d="M439.9,610.4c-1.3-8.9-17.8-11.3-19.4-40.3c-0.3-6.3-2.9-7.5,0-7.5c-4,0-6.7,0-7.7,0c-2.9,0-0.5,1.3,0,7.5
			c2.2,26.7,18,31.6,19.4,40.3h-5.7v3.4h56.1v-3.4H439.9z"/>
		<path fill="#CACEC8" d="M484.6,610.5c1.2-8.7,14.1-9.8,19.1-39c-8,0-90.8,0-98.8,0c4.8,27.7,18.7,30.3,20,39H484.6z"/>
	</g>
	<g>
		<path fill="#FFFFFF" d="M504.6,576.6c-6.5,0-92.7,0-99.3,0c-2.9,0-1,1.5,0,7.5c4.6,29,18.9,31.6,20.2,40.4h59.7
			c1.3-8.8,14.5-9.8,19.4-40.4C505.5,578.1,507.4,576.6,504.6,576.6z"/>
		<path fill="#DDE8D9" d="M440.5,624.4c-1.3-8.9-17.8-11.3-19.4-40.3c-0.3-6.3-2.9-7.5,0-7.5c-4,0-6.7,0-7.7,0c-2.9,0-0.5,1.3,0,7.5
			c2.2,26.7,18,31.6,19.4,40.3h-5.7v3.4h56.1v-3.4H440.5z"/>
	</g>
</g>
<polygon fill="#FFFFFF" points="547.7,559 543.7,559 541.7,527 547.7,527 "/>
<polygon fill="#FFFFFF" points="547.3,565.4 547.3,565.4 544.3,561.7 547.3,561.7 "/>
<path fill="#C7C8C9" d="M580.5,632.2h-44.9c-0.4,0-0.8-0.3-0.8-0.7c0-0.4,0.2-0.8,0.6-0.9c6-1.4,14.1-3.1,19.6-3.7v-35.6
	c-7.5-1.1-19.3-7.2-19.3-34.7c0-0.3,0-34,0.1-35c0-0.5,0.4-0.8,0.8-0.8h42.9c0.5,0,0.8,0.4,0.8,0.8c0,1,0.1,34.7,0.1,35
	c0,27.5-11.7,33.6-19.3,34.7v35.6c6,0.7,15.6,2.8,19.6,3.7c0.4,0.1,0.7,0.5,0.7,0.9S581,632.2,580.5,632.2z M543.4,630.5h29.2
	c-4.2-0.9-9-1.7-12.4-2c-0.4,0-0.8-0.4-0.8-0.8v-37.1c0-0.4,0.3-0.8,0.8-0.8c11.9-1.3,18.5-13,18.5-33.1c0-1.3,0-29,0-34.2h-41.2
	c0,5.2,0,32.9,0,34.2c0,20.1,6.6,31.8,18.5,33.1c0.4,0,0.8,0.4,0.8,0.8v37.1c0,0.4-0.3,0.8-0.8,0.8
	C552.6,628.7,547.9,629.6,543.4,630.5z"/>
<path fill="#C7C8C9" d="M549.4,644.9h-44.9c-0.4,0-0.8-0.3-0.8-0.7c0-0.4,0.2-0.8,0.6-0.9c6-1.4,14.1-3.1,19.6-3.7V604
	c-7.5-1.1-19.3-7.2-19.3-34.7c0-0.3,0-34,0.1-35c0-0.5,0.4-0.8,0.8-0.8h42.8c0.5,0,0.8,0.4,0.8,0.8c0,1,0.1,34.7,0.1,35
	c0,27.5-11.7,33.6-19.3,34.7v35.6c6,0.7,15.6,2.8,19.6,3.7c0.4,0.1,0.7,0.5,0.7,0.9C550.2,644.6,549.8,644.9,549.4,644.9z
	 M512.2,643.2h29.2c-4.2-0.9-9-1.7-12.4-2c-0.4,0-0.8-0.4-0.8-0.8v-37.1c0-0.4,0.3-0.8,0.8-0.8c11.9-1.3,18.5-13,18.5-33.1
	c0-1.3,0-29,0-34.2h-41.2c0,5.2,0,32.8,0,34.2c0,20.1,6.6,31.8,18.5,33.1c0.4,0,0.8,0.4,0.8,0.8v37.1c0,0.4-0.3,0.8-0.8,0.8
	C521.4,641.4,516.7,642.3,512.2,643.2z"/>
<g>
	<path fill="#231F20" d="M276.3,522.8c-11.6-7.3-53.2-18.9-87.6-25.1c0-0.9-0.3-2.1-1.6-2.3l-5.1-0.8c-3-0.5-1.5-2.6,0.7-4.6
		c1.6-1.4,8-7.3,1.8-9.8c-1.2-0.5-2.9-1-5.2-1.3c-2.3-0.3-4.1-0.4-5.4-0.3c-6.7,0.6-2.3,8.1-1.2,9.9c1.5,2.5,2.3,5-0.7,4.6l-5-0.8
		c-1.3-0.2-1.9,0.9-2.2,1.7c-34.7-4.2-77.9-5.5-91.1-1.9c-3,0.8-3,1.9-0.1,2.3L275.7,525C278.6,525.5,279,524.5,276.3,522.8z"/>
	<path fill="#A2A89D" d="M319.6,522.2h-19.5v-12.8c0-4.5,3.1-7.5-1.4-7.5H94.8c-4.5,0-1.1,3-1.1,7.5v12.8H73.9
		c-3.3,0-6.1,2.7-6.1,6.1v4c0,3.3,2.7,6.1,6.1,6.1h19.7v88.2c0,4.5,3.7,8.3,8.3,8.3h189.8c4.5,0,8.3-3.7,8.3-8.3v-88.2h19.5
		c3.3,0,6.1-2.7,6.1-6.1v-4C325.7,525,322.9,522.2,319.6,522.2z"/>
</g>
<path fill="#642F14" d="M191,501.9c-0.5,0-62.6,0-62.6,0c-0.5,0.1-1.6,1.8-1.7,2.3c-0.7,2.7-0.4,5.3,0.8,7.7
	c-0.4,1.9-0.1,3.9,0.9,5.4c0.3,7.2,1.2,14.4,1.4,21.6c-0.4,4.8-0.7,9.6-1.1,14.4c-0.4,4.6,3.4,7.4,7.4,7.8
	c0.1,5.6,0.2,11.1,0.1,16.7c-0.2,8-4.2,15-0.7,22.7c0.8,1.9,3.6,0.3,2.8-1.6c-3.1-6.9,1-16.3,1.3-23.7c0.1-4.7,0-9.5-0.1-14.3
	c2.5-0.6,4.6-2.4,5.2-5.4c1.2-6.9,1.8-13.7,1.7-20.6c0.2-2.3,0.4-4.7,0.5-7c0,0,0,0,0.1,0c0.1,4.2,0.3,7.4,0.3,8.7
	c0,5.4,4.2,9.8,9.6,10.1c0.5,6.5,1.1,13.1,0.4,19.6c-0.2,2.1,3,2,3.2,0c0.7-6.5,0.1-13.3-0.5-19.9c0.5-0.1,1-0.3,1.5-0.5
	c-0.1,1.6-0.2,3.1-0.2,4.7c-0.1,2.1,3.1,2.1,3.2,0c0.1-2.4,0.2-4.8,0.3-7.2c1.7-1.8,2.7-4.2,2.7-6.8c0-1.5-0.3-5.3-0.9-10.3
	c0.2-0.1,0.3-0.2,0.5-0.4c1.8,2.2,4.4,2.9,7.2,2.7c0,1.2,0,2.5,0,3.7c0,2.1,3,2,3.2,0c0.1-1.4,0.2-2.9,0.3-4.4
	c3.1-1.5,4.5-5.3,3.9-8.7c1.4-0.4,2.8-0.7,4.2-1c5.7-1.1,6.9-7.1,4.8-11.4c0.5-0.5,1.1-1.1,1.6-1.6
	C193.2,504.2,192.4,501.9,191,501.9z"/>
<path fill="#231F20" d="M361.6,574.5c-3.6-3.5-8.3-8-10.1-9.7c-1.8-1.7-2.2-3.6-0.7-5.2c1.5-1.6,36.6-38.3,36.6-38.3
	c1.9-1.9,3.5-1.9,5.2-0.2c1.7,1.6,3.7,2.3,6.2-0.4c2.5-2.6,29.5-30.9,32.1-33.5c2.5-2.6,3-5.4,1.1-7.3c-1.9-1.9-4.9-4.7-4.9-4.7
	s-3-2.8-4.9-4.7c-1.9-1.9-4.7-1.2-7.2,1.4c-2.5,2.6-29.5,30.9-32.1,33.5c-2.5,2.6-1.8,4.6-0.1,6.2c1.7,1.6,1.9,3.3,0,5.2
	c0,0-35.1,36.7-36.6,38.3c-1.5,1.6-3.4,1.3-5.3-0.4c-1.8-1.7-6.5-6.2-10.1-9.7c-3.6-3.5-7.4-2.7-9.8,1.3c-2.4,4.1-45,69.4-47.2,72.5
	c-2.2,3.2-1.9,4.1,0.1,6s5.1,4.9,5.1,4.9s3.1,2.9,5.1,4.9c2.1,2,3,2.1,6.1-0.2c3.1-2.3,66.4-47.7,70.4-50.3
	C364.6,581.8,365.2,578,361.6,574.5z"/>
<path fill="#4F524D" d="M552.9,516.7c-0.1-2.4-2.1-4.4-4.6-4.3l-82.5,10.1c-2.4,0.1-4.4,2.1-4.3,4.6c-11.2,0.6-60.5,7-70.5,7
	c-22.4,0-61.2,0-69.3,0c-11.2,0-80.6,0-85.1,0c-4.5,0-3.5,2.1,0,3.8c3.5,1.7,9.4,6.3,9.4,18.5c0,12.2,0,38,0,51.3
	c0,13.3,5.6,30.7,25.8,30.7c20.2,0,49.9,0,49.9,0s29.7,0,49.9,0c20.2,0,25.8-17.4,25.8-30.7c0-13.3,0-39.1,0-51.3
	c0-4.6,3.2-16.3,12.4-17.6c17.7-2.5,30.2-3.9,51.9-6.3c0.1,2.4,2.1,4.4,4.6,4.3l82.5-10.1c2.4-0.1,4.4-2.1,4.3-4.6L552.9,516.7z"/>
<path fill="#CFA95F" d="M374,536.3c-0.1-0.5-0.8-2.2-1.1-2.3c0,0-24.2,0-35.2,0c0.5,1.8,0.7,3.6,0.5,5.2c-0.2,1.6-0.3,3.2-0.4,4.8
	c3.1,4.2,4.5,9.5,4.1,14.8c0.7,1.9,1.1,4,1.3,6c0-0.1,0.1-0.2,0.1-0.4c0-1.2,0-2.5,0-3.7c1.8,0.2,3.5-0.6,4.6-2.7
	c0.1,0.1,0.2,0.2,0.3,0.4c-0.4,4.9-0.6,8.8-0.6,10.3c0,2.6,0.7,5,1.7,6.8c0.1,2.4,0.1,4.8,0.2,7.2c0.1,2.1,2.2,2.1,2.1,0
	c0-1.6-0.1-3.1-0.1-4.7c0.3,0.2,0.7,0.4,1,0.5c-0.3,6.6-0.7,13.3-0.3,19.9c0.1,2,2.2,2.1,2.1,0c-0.4-6.4,0-13.1,0.3-19.6
	c3.5-0.3,6.2-4.7,6.2-10.1c0-1.3,0.1-4.5,0.2-8.7c0,0,0,0,0-0.1c0.1,2.3,0.2,4.7,0.4,7c-0.1,6.9,0.3,13.7,1.1,20.6
	c0.3,3.1,1.7,4.8,3.3,5.4c-0.1,4.8-0.2,9.5-0.1,14.3c0.1,7.4,2.8,16.8,0.8,23.7c-0.5,1.9,1.3,3.5,1.8,1.6c2.2-7.7-0.3-14.7-0.5-22.7
	c-0.1-5.6,0-11.1,0-16.7c2.6-0.4,5-3.2,4.8-7.8c-0.2-4.8-0.5-9.6-0.7-14.4c0.1-7.2,0.7-14.3,0.9-21.6c0.7-1.5,0.8-3.5,0.6-5.4
	C374.3,541.6,374.5,539,374,536.3z"/>
<g>
	<path fill="#FFFFFF" d="M335,625.3c-11.7,0-165,0-176.7,0c-5.2,0-6,4.8,0,4.8c10.3,0,32.5,18.1,34.8,23.7h107.1
		c2.3-5.6,24.5-23.7,34.8-23.7C341,630,340.2,625.3,335,625.3z"/>
	<path fill="#DDE8D9" d="M185.3,630c-6,0-5.2-4.8,0-4.8c-7.1,0-12,0-13.8,0c-5.2,0-6,4.8,0,4.8c10.3,0,32.5,18.1,34.8,23.7h13.8
		C217.8,648.1,195.6,630,185.3,630z"/>
</g>
<path fill="#CACEC8" d="M306.6,646.4c2.7-3.7,17.7-12.8,20.4-14.1H166.8c2.7,1.3,16.3,9.8,19.4,13.5L306.6,646.4z"/>
<g>
	<path fill="#FFFFFF" d="M335,642c-11.7,0-165,0-176.7,0c-5.2,0-6,4.8,0,4.8c10.3,0,32.5,18.1,34.8,23.7h107.1
		c2.3-5.6,24.5-23.7,34.8-23.7C341,646.8,340.2,642,335,642z"/>
	<path fill="#DDE8D9" d="M185.3,646.8c-6,0-5.2-4.8,0-4.8c-7.1,0-12,0-13.8,0c-5.2,0-6,4.8,0,4.8c10.3,0,32.5,18.1,34.8,23.7h13.8
		C217.8,664.9,195.6,646.8,185.3,646.8z"/>
</g>
<path fill="#CACEC8" d="M306,663.4c3.2-3.4,13.4-10.3,16.1-11.6H171c2.7,1.3,12,7.2,15.6,11.2L306,663.4z"/>
<path fill="#231F20" d="M616.1,594.3c-0.6-2.3-4-5.8-4-5.8l-108,42.3H434h-72.7c2.5,14.9,13.2,31.2,30.1,31.2c16.9,0,42.6,0,42.6,0
	s25.7,0,42.6,0c16.2,0,26.6-14.9,29.7-29.2l0,0l55.4-21.2c0,0,3.4,3.5,4.7,4.8c1.8,1.8,6.4,2.5,8.8,0.8c14.8-10.2,30-6.7,38.6-15.5
	C614.9,600.6,616.9,597.8,616.1,594.3z"/>
<path fill="#FFFFFF" d="M335,659.7c-11.7,0-165,0-176.7,0c-5.2,0-6,4.8,0,4.8c10.3,0,32.5,10.1,34.8,15.7h107.1
	c2.3-5.6,24.5-15.7,34.8-15.7C341,664.5,340.2,659.7,335,659.7z"/>
<g>
	<g>
		<path fill="#B35638" d="M103.4,580.5l-2.5-4.4c3.8-2.2,4.2-9.9,4.6-16.6c0.1-1.1,0.1-2.2,0.2-3.3c0.4-6-0.1-10.2-1.4-12.9
			c-1.3-2.7-3.6-4-7.2-4.2c-4.7-0.4-12,3.8-15,8.5l-4.3-2.7c4-6.3,13-11.2,19.6-10.8c5.4,0.4,9.3,2.7,11.4,7c1.8,3.6,2.4,8.5,2,15.5
			c-0.1,1.1-0.1,2.1-0.2,3.2C110.1,567.8,109.6,577,103.4,580.5z"/>
		<path fill="#B35638" d="M109.6,595.6c0-6.8-2.5-14.8-8.3-23.9c-0.6-0.9-19.5-30.6-20.1-31.5l-47.8,30.4c0.5,0.9,19.4,30.6,20,31.6
			c5.8,9.1,12,14.7,18.2,17.6L109.6,595.6z"/>
		<polygon fill="#642F14" points="109.6,595.6 96.8,603.5 55.9,605.7 48.4,594.1 109.5,592.9 		"/>
	</g>
	<g>
		<path fill="#B35638" d="M54.5,651.6c-7,0-18.9-3.8-24.4-11.3c-3.8-5.2-5.8-11.2-5.7-17c0.2-6,2.6-11.1,6.9-14.3
			c5.5-4,17-3.6,23.7-0.4l-2.2,4.6c-5.5-2.6-15-2.6-18.5-0.1c-3,2.2-4.7,5.9-4.8,10.3c-0.1,4.7,1.5,9.6,4.7,13.9
			c4.5,6.1,15.2,9.5,20.9,9.2l0.2,5.1C55.1,651.6,54.8,651.6,54.5,651.6z"/>
		<path fill="#B35638" d="M59.6,659.8c-3.7-5.8-10-13.8-10-24.6c0-1.1,0-36.3,0.1-37.3h56.6c0,1.1,0.1,36.3,0.1,37.3
			c0,10.8-6.3,18.9-10,24.6H59.6L59.6,659.8z"/>
	</g>
</g>
<path fill="#DDE8D9" d="M220,680.2c-2.4-5.7-24.5-15.7-34.7-15.7c-6,0-5.2-4.8,0-4.8c-7.1,0-12,0-13.8,0c-5.2,0-6,4.8,0,4.8
	c10.3,0,32.4,10,34.7,15.7h-10.1v2.2h100.8v-2.2H220z"/>
<polygon fill="#FFFFFF" points="516,575.5 512,575.5 510,543.5 516,543.5 "/>
<polygon fill="#FFFFFF" points="515.7,581.8 515.6,581.8 512.6,578.2 515.7,578.2 "/>
<path fill="#CFA95F" d="M474.4,565.7c0.2,0.2,0.4,0.4,0.4,0.6c0.1-0.1,0.3-0.2,0.7-0.3c2.1-0.8,4.9-1.8,7.1-1.2
	c0.9,0.2,3,1.6,3.9,1.2c1.3-0.7,2.6-1.1,4-1.4c2.3-0.5,4.6-0.9,6.9-1.4c-0.1-0.1-0.3-0.1-0.5-0.1c-4.4-0.5-8.8-0.1-13.3,0
	c-2.2,0-3.7,0-5.7-0.9c-1.7-0.8-4.2,0.3-5.9,0.5c-0.5,0.1-0.9,0.3-1.3,0.7C472.1,564,473.3,564.6,474.4,565.7z"/>
<path fill="#CFA95F" d="M438.7,577.5c1.3,0.3,2.3,1.2,3,2.3c0.5,0.3,1,0.6,1.6,0.9c2.2,1.1,4.3-1.1,6.6-1.4
	c3.3-0.5,7.3-0.1,10.9,0.4c1.6-0.7,3.2-1.3,5-1.3c1.9,0,7.1,3.5,8.4,1.6c1.1-1.7,2.8-2.4,4.4-2.3c0-0.3-0.1-0.5-0.2-0.8
	c-0.5,0-1.1,0-1.7-0.1c-6-1.4-12.3-0.4-18.3,0c-6,0.4-12,0.5-18-0.1c-0.5,0.1-0.9,0.1-1.4,0.1c-0.4,0-0.8,0.2-1.2,0.5
	C438.1,577.3,438.4,577.4,438.7,577.5z"/>
<path fill="#642F14" d="M287.2,659.8c-0.3,0-0.6,0.2-0.9,0.3c-4.9-0.1-9.9-1.1-14.8,0.4c-0.4,0.1-0.7,0.5-1,1
	c0.1,0.1,0.2,0.1,0.3,0.2c0.3,0.2,0.5,0.4,0.8,0.6c0.5-0.3,1.1-0.5,1.6-0.6c1.1-0.3,2.2-0.2,3.2,0.3c2.1-1.5,5.1-1.1,7,0.5
	c0.8,0.1,1.5,0.3,2.1,0.7c0.3,0.2,0.6,0.4,0.9,0.6c0,0,0,0,0.1,0c0,0,0.1,0,0.1,0.1C287.7,662.3,288.4,659.7,287.2,659.8z"/>
<path fill="#642F14" d="M290.9,660.3c-0.1-0.1-0.2-0.2-0.4-0.4c-0.7-0.7-1.5,0.5-1.9,1.1c-0.3,0.5-0.6,1.2-0.7,1.8
	c-0.1,0.3-0.2,1,0.1,1.3c0.1,0.1,0.2,0.2,0.4,0.4c0,0,0.1,0,0.1,0.1c0.1,0.1,0.2,0.2,0.4,0.2c0.9,0,1.9-1.9,2.1-3.2
	C291.1,661.2,291.2,660.6,290.9,660.3z"/>
<path fill="#642F14" d="M319.8,642.5c-1.3-0.5-2.4-0.7-3.5-0.5c-4.9-0.5-9.9-0.2-14.8-0.2c-0.3,0-0.6,0.2-0.9,0.5
	c0.2,0.3,0.4,0.6,0.5,1c1.2-0.6,2.6-0.8,3.9-0.3c2,0.2,3.6,1.5,4.3,3.3c0.3,0,0.7,0,1,0c0,0,0,0.1,0.1,0.1c0.7,0.4,1.4,0.7,2.1,1.1
	c0.3,0.2,0.7-0.2,1-0.4c0.3-0.3,0.7-0.5,1-0.6c0.3,0,0.6,0.1,1,0.1c0.4-2.2,2.4-3.9,4.7-4C320,642.6,319.9,642.5,319.8,642.5z"/>
<path fill="#642F14" d="M221.7,625.6c-5.6-0.8-11.3-0.3-17-0.6c0.3,0.6,0.5,1.3,0.6,2c0.8,0.2,1.6,0.6,2.3,1.2
	c0.6,0.1,1.2,0.3,1.7,0.5c0.4-0.1,0.7-0.1,1.1-0.1c1,0.1,2,0.2,3.1,0.1c0.9-0.1,1.8-0.2,2.7-0.5c0.1,0,0.3-0.1,0.4-0.1
	c1.1-1.8,3.4-2.6,5.5-2.2C222,625.8,221.9,625.6,221.7,625.6z"/>
</svg>
