<?xml version="1.0" encoding="utf-8"?>
<!-- Generator: Adobe Illustrator 17.1.0, SVG Export Plug-In . SVG Version: 6.00 Build 0)  -->
<!DOCTYPE svg PUBLIC "-//W3C//DTD SVG 1.0//EN" "http://www.w3.org/TR/2001/REC-SVG-20010904/DTD/svg10.dtd">
<svg version="1.0" id="Layer_1" xmlns="http://www.w3.org/2000/svg" xmlns:xlink="http://www.w3.org/1999/xlink" x="0px" y="0px"
	 viewBox="0 0 50 50" enable-background="new 0 0 50 50" xml:space="preserve">
<g>
	<path fill-rule="evenodd" clip-rule="evenodd" fill="#458E41" d="M25,1.303c13.088,0,23.697,10.61,23.697,23.697
		c0,13.088-10.609,23.697-23.697,23.697C11.912,48.697,1.303,38.088,1.303,25C1.303,11.912,11.912,1.303,25,1.303z"/>
	<path fill="#FFFFFF" d="M38.329,18.232c-0.001-0.044-0.007-0.089-0.013-0.133c-0.004-0.031-0.006-0.064-0.013-0.094
		c-0.008-0.038-0.022-0.074-0.034-0.111c-0.011-0.035-0.021-0.071-0.036-0.105c-0.013-0.03-0.031-0.058-0.046-0.087
		c-0.02-0.038-0.04-0.077-0.064-0.112c-0.004-0.006-0.007-0.013-0.011-0.019c-0.016-0.022-0.035-0.039-0.052-0.059
		c-0.026-0.032-0.052-0.064-0.082-0.093c-0.026-0.026-0.055-0.048-0.083-0.07c-0.029-0.023-0.058-0.047-0.089-0.067
		c-0.031-0.02-0.063-0.036-0.096-0.053c-0.033-0.017-0.065-0.034-0.1-0.048c-0.034-0.014-0.07-0.023-0.105-0.033
		c-0.035-0.01-0.069-0.021-0.105-0.027c-0.04-0.008-0.081-0.01-0.122-0.013c-0.026-0.002-0.05-0.008-0.077-0.008H12.799
		c-0.026,0-0.05,0.006-0.075,0.008c-0.042,0.003-0.083,0.005-0.124,0.013c-0.035,0.007-0.069,0.017-0.103,0.026
		c-0.036,0.01-0.072,0.02-0.108,0.034c-0.033,0.014-0.065,0.03-0.097,0.047c-0.034,0.017-0.067,0.034-0.099,0.055
		c-0.03,0.02-0.058,0.042-0.086,0.065c-0.029,0.023-0.059,0.046-0.086,0.073c-0.029,0.029-0.055,0.06-0.08,0.091
		c-0.017,0.021-0.037,0.038-0.053,0.06c-0.004,0.006-0.007,0.013-0.011,0.019c-0.024,0.035-0.044,0.073-0.064,0.111
		c-0.016,0.029-0.033,0.057-0.046,0.087c-0.015,0.034-0.024,0.07-0.036,0.105c-0.012,0.037-0.025,0.073-0.034,0.111
		c-0.007,0.031-0.008,0.063-0.013,0.094c-0.006,0.044-0.012,0.088-0.013,0.133c0,0.007-0.002,0.014-0.002,0.021v13.488
		c0,0.637,0.506,1.154,1.13,1.154h24.402c0.624,0,1.13-0.517,1.13-1.154V18.254C38.331,18.246,38.329,18.24,38.329,18.232z
		 M33.752,19.407L25,25.967l-8.752-6.56H33.752z M13.929,30.588V20.531l10.403,7.797c0.199,0.149,0.434,0.224,0.669,0.224
		c0.235,0,0.469-0.075,0.669-0.224l10.403-7.797v10.057H13.929z"/>
</g>
</svg>
