<?xml version="1.0" encoding="utf-8"?>
<!-- Generator: Adobe Illustrator 17.1.0, SVG Export Plug-In . SVG Version: 6.00 Build 0)  -->
<svg version="1.2" baseProfile="tiny" id="Layer_1" xmlns="http://www.w3.org/2000/svg" xmlns:xlink="http://www.w3.org/1999/xlink"
	 x="0px" y="0px" viewBox="0 0 300 300" xml:space="preserve">
<g>
	<path fill="#ABB222" d="M150,7.8c78.5,0,142.2,63.7,142.2,142.2c0,78.5-63.7,142.2-142.2,142.2S7.8,228.5,7.8,150S71.5,7.8,150,7.8
		z"/>
	<path fill="#FFFFFF" d="M246.3,147.1c0,22.7-14.8,36.6-37.5,36.6h-98.1c-30.9,0-26.9,51.1-26.9,51.1c-11.2-9.2-21.2-39.1-21.2-70.9
	v-49.2c0-22.7,14.8-37.5,37.5-37.5h108.7c22.7,0,37.5,14.8,37.5,37.5V147.1z"/>
	</g>
</svg>
