<?xml version="1.0" encoding="utf-8"?>
<!-- Generator: Adobe Illustrator 17.1.0, SVG Export Plug-In . SVG Version: 6.00 Build 0)  -->
<!DOCTYPE svg PUBLIC "-//W3C//DTD SVG 1.0//EN" "http://www.w3.org/TR/2001/REC-SVG-20010904/DTD/svg10.dtd">
<svg version="1.0" id="Layer_1" xmlns="http://www.w3.org/2000/svg" xmlns:xlink="http://www.w3.org/1999/xlink" x="0px" y="0px"
	 viewBox="0 0 50 50" enable-background="new 0 0 50 50" xml:space="preserve">
<g>
	<path fill-rule="evenodd" clip-rule="evenodd" fill="#DC4A3A" d="M25,1.337c13.069,0,23.663,10.594,23.663,23.663
		S38.069,48.663,25,48.663S1.337,38.069,1.337,25S11.931,1.337,25,1.337z"/>
	<g>
		<path fill="#FFFFFF" d="M26.434,18.093c0.136,0.084,0.289,0.208,0.459,0.369c0.163,0.169,0.323,0.376,0.479,0.623
			c0.149,0.232,0.282,0.507,0.397,0.823c0.095,0.317,0.143,0.686,0.143,1.108c-0.013,0.774-0.184,1.393-0.513,1.858
			c-0.161,0.225-0.332,0.433-0.512,0.623c-0.2,0.19-0.413,0.384-0.638,0.58C26.119,24.21,26,24.362,25.891,24.53
			c-0.129,0.176-0.193,0.38-0.193,0.612c0,0.225,0.066,0.412,0.198,0.559c0.112,0.141,0.222,0.264,0.327,0.369l0.734,0.601
			c0.456,0.373,0.856,0.785,1.2,1.235c0.324,0.457,0.493,1.055,0.506,1.794c0,1.048-0.463,1.977-1.389,2.786
			c-0.96,0.837-2.345,1.27-4.156,1.298c-1.515-0.014-2.647-0.337-3.394-0.969c-0.754-0.59-1.132-1.296-1.132-2.117
			c0-0.4,0.123-0.846,0.368-1.338c0.238-0.492,0.669-0.924,1.293-1.296c0.701-0.4,1.437-0.667,2.208-0.801
			c0.764-0.112,1.398-0.175,1.903-0.19c-0.156-0.205-0.295-0.424-0.417-0.658c-0.142-0.226-0.214-0.499-0.214-0.817
			c0-0.191,0.027-0.35,0.081-0.478c0.048-0.134,0.092-0.258,0.132-0.371c-0.246,0.028-0.478,0.042-0.695,0.042
			c-1.152-0.014-2.03-0.376-2.633-1.087c-0.632-0.661-0.948-1.431-0.948-2.311c0-1.062,0.448-2.102,1.343-2.967
			c0.615-0.506,1.254-0.913,1.917-1.068c0.656-0.133,1.271-0.295,1.846-0.295h4.327l-1.336,1.027H26.434z M24.253,24.205
			c0.569-0.021,1.044-0.226,1.424-0.614c0.183-0.275,0.301-0.557,0.353-0.846c0.031-0.289,0.047-0.532,0.047-0.73
			c0-0.853-0.218-1.713-0.654-2.58c-0.205-0.416-0.474-0.754-0.808-1.015c-0.341-0.247-0.733-0.377-1.176-0.391
			c-0.586,0.014-1.074,0.25-1.462,0.709c-0.328,0.479-0.485,1.015-0.47,1.607c0,0.783,0.229,1.597,0.687,2.443
			c0.222,0.395,0.508,0.73,0.858,1.005C23.402,24.068,23.802,24.205,24.253,24.205L24.253,24.205z M27.27,30.547
			c0-0.549-0.179-1.028-0.537-1.435c-0.379-0.387-0.971-0.862-1.777-1.425c-0.138-0.014-0.3-0.021-0.486-0.021
			c-0.11-0.014-0.393,0-0.847,0.042c-0.448,0.063-0.906,0.165-1.374,0.306c-0.11,0.042-0.265,0.106-0.465,0.19
			c-0.2,0.091-0.403,0.222-0.61,0.391c-0.2,0.176-0.369,0.394-0.506,0.654c-0.158,0.274-0.238,0.605-0.238,0.992
			c0,0.76,0.344,1.386,1.033,1.879c0.654,0.493,1.55,0.746,2.687,0.76c1.019-0.014,1.798-0.239,2.335-0.675
			C27.008,31.775,27.27,31.223,27.27,30.547L27.27,30.547z"/>
		<path fill="#FFFFFF" d="M34.127,25.138v-2.915h2.893v-1.218h-2.893v-2.893h-1.232v2.893h-2.893v1.218h2.893v2.915H34.127z"/>
	</g>
</g>
</svg>
