<?xml version="1.0" encoding="utf-8"?>
<!-- Generator: Adobe Illustrator 17.1.0, SVG Export Plug-In . SVG Version: 6.00 Build 0)  -->
<svg version="1.2" baseProfile="tiny" id="Layer_1" xmlns="http://www.w3.org/2000/svg" xmlns:xlink="http://www.w3.org/1999/xlink"
	 x="0px" y="0px" viewBox="13 70 273 161" xml:space="preserve">
<path fill="#FFFFFF" d="M218.9,81.4v59H268v-59H218.9z M243.8,130.8c-7.7,0-14-6.3-14-14s6.3-14,14-14s14,6.3,14,14
	S251.5,130.8,243.8,130.8z"/>
<g>
	<path fill="#82A43E" d="M104.7,202.3c-0.2,0.1-0.3,0.2-0.4,0.3c-8.9,7.1-12.7,13.1-12.8,20.8l0-0.7l-5.2,0.3l-16.8-0.1
		c0.3-2.8,0.3-11.3-11.8-15.7c-0.1,0-0.4-0.1-0.8-0.2c-0.1,0-0.1,0-0.2,0c0,0,0.1,0,0.1,0c0.6,0,0.8-0.1,0.9-0.1
		c0.8-0.2,8.4-1.5,15.2,7.7l0.7,1l0.3-1.1c2-8.2,2-23.9-0.9-32c0-0.1-0.1-0.3-0.2-0.5c0-0.1-0.1-0.3-0.2-0.4
		c0.4,0.5,0.5,0.7,0.7,0.8c0.2,0.2,4.8,4.1,6.1,21.9l0.2,2.5l0.9-2.3c1.7-4.6,4-9.6,8.7-11.6c0.4-0.2,0.9-0.4,1.4-0.6
		c-0.4,0.4-0.9,0.7-1.1,0.8l-0.2,0.1l-0.1,0.1c-6.2,6.8-6.2,14.1-6.2,19.4l0,1.1l0,2l1-1.7c0.8-1.2,3.5-3.9,5.2-5.4
		c-0.1,0.2-0.2,0.5-0.4,0.7c-0.1,0.2-0.2,0.4-0.2,0.4c-1.2,2.8-2.1,5.7-2.7,8.3l-0.8,3.8l1.8-3.4c4.3-7.9,10-13.3,17.2-16.1l0.1,0
		c0.4-0.2,0.7-0.3,1-0.4C105.1,202,104.9,202.1,104.7,202.3z"/>
	<path fill="#82A43E" d="M152.2,202.3c-0.2,0.1-0.3,0.2-0.4,0.3c-8.9,7.1-12.7,13.1-12.8,20.8l0-0.7l-5.2,0.3l-16.8-0.1
		c0.3-2.8,0.3-11.3-11.8-15.7c-0.1,0-0.4-0.1-0.8-0.2c-0.1,0-0.1,0-0.2,0c0,0,0.1,0,0.1,0c0.6,0,0.8-0.1,0.9-0.1
		c0.8-0.2,8.4-1.5,15.2,7.7l0.7,1l0.3-1.1c2-8.2,2-23.9-0.9-32c0-0.1-0.1-0.3-0.2-0.5c0-0.1-0.1-0.3-0.2-0.4
		c0.4,0.5,0.5,0.7,0.7,0.8c0.2,0.2,4.8,4.1,6.1,21.9l0.2,2.5l0.9-2.3c1.7-4.6,4-9.6,8.7-11.6c0.4-0.2,0.9-0.4,1.4-0.6
		c-0.4,0.4-0.9,0.7-1.1,0.8l-0.2,0.1l-0.1,0.1c-6.2,6.8-6.2,14.1-6.2,19.4l0,1.1l0,2l1-1.7c0.8-1.2,3.5-3.9,5.2-5.4
		c-0.1,0.2-0.2,0.5-0.4,0.7c-0.1,0.2-0.2,0.4-0.2,0.4c-1.2,2.8-2.1,5.7-2.7,8.3l-0.8,3.8l1.8-3.4c4.3-7.9,10-13.3,17.2-16.1l0.1,0
		c0.4-0.2,0.7-0.3,1-0.4C152.6,202,152.4,202.1,152.2,202.3z"/>
	<path fill="#82A43E" d="M152.7,204.5c0.2,0.2,0.3,0.3,0.4,0.3c8.8,7.8,12.4,14.5,12.6,23.1l0-0.8l5.1,0.4l16.5-0.1
		c-0.3-3.1-0.3-12.6,11.6-17.4c0.1,0,0.4-0.1,0.8-0.2c0.1,0,0.1,0,0.2,0c0,0-0.1,0-0.1,0c-0.6,0-0.8-0.1-0.9-0.1
		c-0.8-0.2-8.3-1.7-14.9,8.5l-0.7,1.1L183,218c-1.9-9-2-26.5,0.9-35.5c0-0.1,0.1-0.3,0.2-0.6c0-0.1,0.1-0.3,0.2-0.5
		c-0.4,0.5-0.5,0.7-0.6,0.8c-0.2,0.2-4.8,4.5-6,24.3l-0.2,2.7l-0.9-2.6c-1.7-5.1-3.9-10.6-8.5-12.8c-0.4-0.2-0.9-0.4-1.4-0.6
		c0.4,0.4,0.9,0.8,1,0.9l0.2,0.1l0.1,0.1c6.1,7.6,6.1,15.7,6.1,21.6l0,1.3l0,2.2l-1-1.9c-0.7-1.4-3.4-4.3-5.1-6
		c0.1,0.2,0.2,0.5,0.4,0.8c0.1,0.2,0.2,0.4,0.2,0.5c1.1,3.1,2.1,6.3,2.6,9.2l0.8,4.2l-1.8-3.8c-4.2-8.8-9.9-14.8-16.9-17.8l-0.1,0
		c-0.4-0.2-0.7-0.3-1-0.4C152.3,204.2,152.5,204.4,152.7,204.5z"/>
	<path fill="#82A43E" d="M247.2,202.3c-0.2,0.1-0.3,0.2-0.4,0.3c-8.9,7.1-12.7,13.1-12.8,20.8l0-0.7l-5.2,0.3l-16.8-0.1
		c0.3-2.8,0.3-11.3-11.8-15.7c-0.1,0-0.4-0.1-0.8-0.2c-0.1,0-0.1,0-0.2,0c0,0,0.1,0,0.1,0c0.6,0,0.8-0.1,0.9-0.1
		c0.8-0.2,8.4-1.5,15.2,7.7l0.7,1l0.3-1.1c2-8.2,2-23.9-0.9-32c0-0.1-0.1-0.3-0.2-0.5c0-0.1-0.1-0.3-0.2-0.4
		c0.4,0.5,0.5,0.7,0.7,0.8c0.2,0.2,4.8,4.1,6.1,21.9l0.2,2.5l0.9-2.3c1.7-4.6,4-9.6,8.7-11.6c0.4-0.2,0.9-0.4,1.4-0.6
		c-0.4,0.4-0.9,0.7-1.1,0.8l-0.2,0.1l-0.1,0.1c-6.2,6.8-6.2,14.1-6.2,19.4l0,1.1l0,2l1-1.7c0.8-1.2,3.5-3.9,5.2-5.4
		c-0.1,0.2-0.2,0.5-0.4,0.7c-0.1,0.2-0.2,0.4-0.2,0.4c-1.2,2.8-2.1,5.7-2.7,8.3l-0.8,3.8l1.8-3.4c4.3-7.9,10-13.3,17.2-16.1l0.1,0
		c0.4-0.2,0.7-0.3,1-0.4C247.6,202,247.4,202.1,247.2,202.3z"/>
	<g>
		<polygon fill="#95D7E6" points="247.7,148.4 241,148.4 241,168.8 153,168.8 153,148.4 146.7,148.4 146.7,168.8 59,168.8 59,148.4 
			52.3,148.4 52.3,173.5 54.4,175.6 58.9,175.6 246.2,175.6 247.7,172.2 		"/>
		<path fill="#95D7E6" d="M30.4,138c6.5,6.4,15.4,10.4,25.3,10.4c9.9,0,18.8-4,25.3-10.4H30.4z"/>
		<path fill="#95D7E6" d="M124.7,138c6.5,6.4,15.4,10.4,25.3,10.4c9.9,0,18.8-4,25.3-10.4H124.7z"/>
		<path fill="#95D7E6" d="M220.3,139.4c5.2,5.1,14.1,9.1,24,9.1c9.9,0,18.8-4,26.6-9.1H220.3L220.3,139.4z"/>
		<path fill="#FFFFFF" d="M83.9,184.5c-2.2,0-4.1-2.3-4.1-4.1h1c0,1.8,1.4,3.1,3.1,3.1s3.1-1.3,3.1-3.1h1
			C88,182.2,86.2,184.5,83.9,184.5z"/>
		<rect x="178" y="175.6" fill="#365E66" width="38.3" height="1"/>
		<rect x="130.7" y="175.6" fill="#365E66" width="41.5" height="1"/>
		<rect x="87.4" y="175.6" fill="#365E66" width="36.7" height="1"/>
		<path fill="#365E66" d="M243.8,176.6h-21.1v-1h21.1c1.8,0,3.3-1.5,3.3-3.4c0-0.5,0-1.5,0-1.5V148l0.4,0
			c19.1-1.7,34.1-18,34.1-37.2c0-20.6-16.8-37.4-37.4-37.4s-37.4,16.8-37.4,37.4c0,19.2,15,35.6,34.1,37.2l0.5,0v20.9h-88.6V148
			l0.4,0c19.1-1.7,34.1-18,34.1-37.2c0-20.6-16.8-37.4-37.4-37.4s-37.4,16.8-37.4,37.4c0,19.2,15,35.6,34.1,37.2l0.4,0v20.9H58.5
			V148l0.5,0c19.1-1.7,34.1-18,34.1-37.2c0-20.6-16.8-37.4-37.4-37.4s-37.4,16.8-37.4,37.4c0,19.2,15,35.6,34.1,37.2l0.5,0v24.3
			c0,1.8,1.5,3.3,3.3,3.3h24.5v1H56.2c-2.4,0-4.3-1.9-4.3-4.3v-23.4c-19.4-1.9-34.6-18.6-34.6-38.2c0-21.2,17.2-38.4,38.4-38.4
			s38.4,17.2,38.4,38.4c0,19.6-15.1,36.3-34.6,38.2v19.1h86.7v-19.1c-19.4-1.9-34.6-18.6-34.6-38.2c0-21.2,17.2-38.4,38.4-38.4
			s38.4,17.2,38.4,38.4c0,19.6-15.1,36.3-34.6,38.2v19.1h86.7v-19.1c-19.4-1.9-34.6-18.6-34.6-38.2c0-21.2,17.2-38.4,38.4-38.4
			s38.4,17.2,38.4,38.4c0,19.6-15.1,36.3-34.6,38.2v21.9c0,0,0,1,0,1.5C248.1,174.7,246.2,176.6,243.8,176.6z"/>
		<path fill="#365E66" d="M88,180.1h-7.8v-4.6H88V180.1z M81.2,179.2H87v-2.6h-5.8V179.2z"/>
		<path fill="#365E66" d="M131.4,180.1h-7.8v-4.6h7.8V180.1z M124.6,179.2h5.8v-2.6h-5.8V179.2z"/>
		<path fill="#365E66" d="M178,180.1h-7.8v-4.6h7.8V180.1L178,180.1z M171.2,179.2h5.8v-2.6h-5.8V179.2z"/>
		<path fill="#365E66" d="M223.6,180.1h-7.8v-4.6h7.8V180.1z M216.8,179.2h5.8v-2.6h-5.8V179.2z"/>
		<g>
			<g>
				<path fill="#95D7E6" d="M84.1,184.3C84.1,184.3,84.1,184.3,84.1,184.3c-0.6,0-1-0.5-1-1l0-1c0-0.5,0.4-1,1-1c0.5,0,1,0.5,1,1
					l0,1C85,183.9,84.6,184.3,84.1,184.3z"/>
				<path fill="#95D7E6" d="M83.8,198.4C83.8,198.4,83.8,198.4,83.8,198.4c-0.6,0-1-0.5-1-1l0-1.9c0-0.5,0.4-1,1-1c0,0,0,0,0,0
					c0.5,0,1,0.5,1,1l0,1.9C84.8,198,84.3,198.4,83.8,198.4z M83.9,193.7C83.9,193.7,83.9,193.7,83.9,193.7c-0.6,0-1-0.5-1-1l0-1.9
					c0-0.5,0.4-1,1-1c0.5,0,1,0.5,1,1l0,1.9C84.9,193.3,84.4,193.7,83.9,193.7z M84,189C84,189,84,189,84,189c-0.6,0-1-0.5-1-1
					l0-1.9c0-0.5,0.4-1,1-1c0,0,0,0,0,0c0.5,0,1,0.5,1,1l0,1.9C85,188.6,84.5,189,84,189z"/>
				<path fill="#95D7E6" d="M83.7,202.2C83.7,202.2,83.7,202.2,83.7,202.2c-0.6,0-1-0.5-1-1l0-1c0-0.5,0.4-1,1-1c0.5,0,1,0.5,1,1
					l0,1C84.7,201.8,84.3,202.2,83.7,202.2z"/>
			</g>
			<g>
				<path fill="#95D7E6" d="M78.4,184.7c-0.1,0-0.3,0-0.4-0.1c-0.5-0.2-0.7-0.8-0.5-1.3l0.4-0.9c0.2-0.5,0.8-0.7,1.3-0.5
					c0.5,0.2,0.7,0.8,0.5,1.3l-0.4,0.9C79.1,184.5,78.7,184.7,78.4,184.7z"/>
				<path fill="#95D7E6" d="M71.4,199.5c-0.1,0-0.3,0-0.4-0.1c-0.5-0.2-0.7-0.8-0.5-1.3l0.9-2c0.2-0.5,0.8-0.7,1.3-0.5
					c0.5,0.2,0.7,0.8,0.5,1.3l-0.9,2C72.1,199.3,71.8,199.5,71.4,199.5z M73.7,194.5c-0.1,0-0.3,0-0.4-0.1c-0.5-0.2-0.7-0.8-0.5-1.3
					l0.9-2c0.2-0.5,0.8-0.7,1.3-0.5c0.5,0.2,0.7,0.8,0.5,1.3l-0.9,2C74.5,194.3,74.1,194.5,73.7,194.5z M76.1,189.6
					c-0.1,0-0.3,0-0.4-0.1c-0.5-0.2-0.7-0.8-0.5-1.3l0.9-2c0.2-0.5,0.8-0.7,1.3-0.5c0.5,0.2,0.7,0.8,0.5,1.3l-0.9,2
					C76.8,189.4,76.4,189.6,76.1,189.6z"/>
				<path fill="#95D7E6" d="M69.6,203.3c-0.1,0-0.3,0-0.4-0.1c-0.5-0.2-0.7-0.8-0.5-1.3l0.4-0.9c0.2-0.5,0.8-0.7,1.3-0.5
					c0.5,0.2,0.7,0.8,0.5,1.3l-0.4,0.9C70.3,203.1,70,203.3,69.6,203.3z"/>
			</g>
			<g>
				<path fill="#95D7E6" d="M89.4,184.7c-0.4,0-0.7-0.2-0.9-0.6l-0.4-0.9c-0.2-0.5,0-1.1,0.5-1.3c0.5-0.2,1.1,0,1.3,0.5l0.4,0.9
					c0.2,0.5,0,1.1-0.5,1.3C89.7,184.6,89.6,184.7,89.4,184.7z"/>
				<path fill="#95D7E6" d="M96.4,199.5c-0.4,0-0.7-0.2-0.9-0.6l-0.9-2c-0.2-0.5,0-1.1,0.5-1.3c0.5-0.2,1.1,0,1.3,0.5l0.9,2
					c0.2,0.5,0,1.1-0.5,1.3C96.7,199.4,96.6,199.5,96.4,199.5z M94.1,194.5c-0.4,0-0.7-0.2-0.9-0.6l-0.9-2c-0.2-0.5,0-1.1,0.5-1.3
					c0.5-0.2,1.1,0,1.3,0.5l0.9,2c0.2,0.5,0,1.1-0.5,1.3C94.4,194.5,94.2,194.5,94.1,194.5z M91.8,189.6c-0.4,0-0.7-0.2-0.9-0.6
					l-0.9-2c-0.2-0.5,0-1.1,0.5-1.3c0.5-0.2,1.1,0,1.3,0.5l0.9,2c0.2,0.5,0,1.1-0.5,1.3C92.1,189.6,91.9,189.6,91.8,189.6z"/>
				<path fill="#95D7E6" d="M98.2,203.3c-0.4,0-0.7-0.2-0.9-0.6l-0.4-0.9c-0.2-0.5,0-1.1,0.5-1.3c0.5-0.2,1.1,0,1.3,0.5l0.4,0.9
					c0.2,0.5,0,1.1-0.5,1.3C98.5,203.3,98.4,203.3,98.2,203.3z"/>
			</g>
		</g>
		<g>
			<g>
				<path fill="#95D7E6" d="M127.6,184.3C127.6,184.3,127.6,184.3,127.6,184.3c-0.6,0-1-0.5-1-1l0-1c0-0.5,0.5-0.9,1-1
					c0.5,0,1,0.5,1,1l0,1C128.6,183.9,128.2,184.3,127.6,184.3z"/>
				<path fill="#95D7E6" d="M127.4,198.4C127.4,198.4,127.4,198.4,127.4,198.4c-0.6,0-1-0.5-1-1l0-1.9c0-0.5,0.4-1,1-1c0,0,0,0,0,0
					c0.5,0,1,0.5,1,1l0,1.9C128.4,198,127.9,198.4,127.4,198.4z M127.5,193.7C127.5,193.7,127.5,193.7,127.5,193.7c-0.6,0-1-0.5-1-1
					l0-1.9c0-0.5,0.4-1,1-1c0.5,0,1,0.5,1,1l0,1.9C128.5,193.3,128,193.7,127.5,193.7z M127.6,189C127.6,189,127.6,189,127.6,189
					c-0.6,0-1-0.5-1-1l0-1.9c0-0.5,0.4-0.9,1-1c0.5,0,1,0.5,1,1l0,1.9C128.5,188.6,128.1,189,127.6,189z"/>
				<path fill="#95D7E6" d="M127.3,202.2C127.3,202.2,127.3,202.2,127.3,202.2c-0.6,0-1-0.5-1-1l0-1c0-0.5,0.5-1,1-1
					c0.5,0,1,0.5,1,1l0,1C128.3,201.8,127.9,202.2,127.3,202.2z"/>
			</g>
			<g>
				<path fill="#95D7E6" d="M122,184.7c-0.1,0-0.3,0-0.4-0.1c-0.5-0.2-0.7-0.8-0.5-1.3l0.4-0.9c0.2-0.5,0.8-0.7,1.3-0.5
					c0.5,0.2,0.7,0.8,0.5,1.3l-0.4,0.9C122.7,184.5,122.3,184.7,122,184.7z"/>
				<path fill="#95D7E6" d="M115,199.5c-0.1,0-0.3,0-0.4-0.1c-0.5-0.2-0.7-0.8-0.5-1.3l0.9-2c0.2-0.5,0.8-0.7,1.3-0.5
					c0.5,0.2,0.7,0.8,0.5,1.3l-0.9,2C115.7,199.3,115.4,199.5,115,199.5z M117.3,194.5c-0.1,0-0.3,0-0.4-0.1
					c-0.5-0.2-0.7-0.8-0.5-1.3l0.9-2c0.2-0.5,0.8-0.7,1.3-0.5c0.5,0.2,0.7,0.8,0.5,1.3l-0.9,2C118,194.3,117.7,194.5,117.3,194.5z
					 M119.6,189.6c-0.1,0-0.3,0-0.4-0.1c-0.5-0.2-0.7-0.8-0.5-1.3l0.9-2c0.2-0.5,0.8-0.7,1.3-0.5c0.5,0.2,0.7,0.8,0.5,1.3l-0.9,2
					C120.4,189.4,120,189.6,119.6,189.6z"/>
				<path fill="#95D7E6" d="M113.2,203.3c-0.1,0-0.3,0-0.4-0.1c-0.5-0.2-0.7-0.8-0.5-1.3l0.4-0.9c0.2-0.5,0.8-0.7,1.3-0.5
					c0.5,0.2,0.7,0.8,0.5,1.3l-0.4,0.9C113.9,203.1,113.5,203.3,113.2,203.3z"/>
			</g>
			<g>
				<path fill="#95D7E6" d="M133,184.7c-0.4,0-0.7-0.2-0.9-0.6l-0.4-0.9c-0.2-0.5,0-1.1,0.5-1.3c0.5-0.2,1.1,0,1.3,0.5l0.4,0.9
					c0.2,0.5,0,1.1-0.5,1.3C133.3,184.6,133.2,184.7,133,184.7z"/>
				<path fill="#95D7E6" d="M140,199.5c-0.4,0-0.7-0.2-0.9-0.6l-0.9-2c-0.2-0.5,0-1.1,0.5-1.3c0.5-0.2,1.1,0,1.3,0.5l0.9,2
					c0.2,0.5,0,1.1-0.5,1.3C140.3,199.4,140.1,199.5,140,199.5z M137.7,194.5c-0.4,0-0.7-0.2-0.9-0.6l-0.9-2c-0.2-0.5,0-1.1,0.5-1.3
					c0.5-0.2,1.1,0,1.3,0.5l0.9,2c0.2,0.5,0,1.1-0.5,1.3C138,194.5,137.8,194.5,137.7,194.5z M135.4,189.6c-0.4,0-0.7-0.2-0.9-0.6
					l-0.9-2c-0.2-0.5,0-1.1,0.5-1.3c0.5-0.2,1.1,0,1.3,0.5l0.9,2c0.2,0.5,0,1.1-0.5,1.3C135.6,189.6,135.5,189.6,135.4,189.6z"/>
				<path fill="#95D7E6" d="M141.8,203.3c-0.4,0-0.7-0.2-0.9-0.6l-0.4-0.9c-0.2-0.5,0-1.1,0.5-1.3c0.5-0.2,1.1,0,1.3,0.5l0.4,0.9
					c0.2,0.5,0,1.1-0.5,1.3C142.1,203.3,142,203.3,141.8,203.3z"/>
			</g>
		</g>
		<g>
			<g>
				<path fill="#95D7E6" d="M174.3,184.3C174.3,184.3,174.3,184.3,174.3,184.3c-0.6,0-1-0.5-1-1l0-1c0-0.5,0.5-0.9,1-1
					c0.5,0,1,0.5,1,1l0,1C175.3,183.9,174.9,184.3,174.3,184.3z"/>
				<path fill="#95D7E6" d="M174.1,198.4C174.1,198.4,174.1,198.4,174.1,198.4c-0.6,0-1-0.5-1-1l0-1.9c0-0.5,0.4-1,1-1
					c0.5,0,1,0.5,1,1l0,1.9C175.1,198,174.6,198.4,174.1,198.4z M174.2,193.7C174.2,193.7,174.2,193.7,174.2,193.7c-0.6,0-1-0.5-1-1
					l0-1.9c0-0.5,0.4-1,1-1c0.5,0,1,0.5,1,1l0,1.9C175.2,193.3,174.7,193.7,174.2,193.7z M174.3,189C174.3,189,174.2,189,174.3,189
					c-0.6,0-1-0.5-1-1l0-1.9c0-0.5,0.4-0.9,1-1c0.5,0,1,0.5,1,1l0,1.9C175.2,188.6,174.8,189,174.3,189z"/>
				<path fill="#95D7E6" d="M174,202.2C174,202.2,174,202.2,174,202.2c-0.6,0-1-0.5-1-1l0-1c0-0.5,0.5-1,1-1c0.5,0,1,0.5,1,1l0,1
					C175,201.8,174.6,202.2,174,202.2z"/>
			</g>
			<g>
				<path fill="#95D7E6" d="M168.7,184.7c-0.1,0-0.3,0-0.4-0.1c-0.5-0.2-0.7-0.8-0.5-1.3l0.4-0.9c0.2-0.5,0.8-0.7,1.3-0.5
					c0.5,0.2,0.7,0.8,0.5,1.3l-0.4,0.9C169.4,184.5,169,184.7,168.7,184.7z"/>
				<path fill="#95D7E6" d="M161.7,199.5c-0.1,0-0.3,0-0.4-0.1c-0.5-0.2-0.7-0.8-0.5-1.3l0.9-2c0.2-0.5,0.8-0.7,1.3-0.5
					c0.5,0.2,0.7,0.8,0.5,1.3l-0.9,2C162.4,199.3,162.1,199.5,161.7,199.5z M164,194.5c-0.1,0-0.3,0-0.4-0.1
					c-0.5-0.2-0.7-0.8-0.5-1.3l0.9-2c0.2-0.5,0.8-0.7,1.3-0.5c0.5,0.2,0.7,0.8,0.5,1.3l-0.9,2C164.7,194.3,164.4,194.5,164,194.5z
					 M166.3,189.6c-0.1,0-0.3,0-0.4-0.1c-0.5-0.2-0.7-0.8-0.5-1.3l0.9-2c0.2-0.5,0.8-0.7,1.3-0.5c0.5,0.2,0.7,0.8,0.5,1.3l-0.9,2
					C167.1,189.4,166.7,189.6,166.3,189.6z"/>
				<path fill="#95D7E6" d="M159.9,203.3c-0.1,0-0.3,0-0.4-0.1c-0.5-0.2-0.7-0.8-0.5-1.3l0.4-0.9c0.2-0.5,0.8-0.7,1.3-0.5
					c0.5,0.2,0.7,0.8,0.5,1.3l-0.4,0.9C160.6,203.1,160.2,203.3,159.9,203.3z"/>
			</g>
			<g>
				<path fill="#95D7E6" d="M179.7,184.7c-0.4,0-0.7-0.2-0.9-0.6l-0.4-0.9c-0.2-0.5,0-1.1,0.5-1.3c0.5-0.2,1.1,0,1.3,0.5l0.4,0.9
					c0.2,0.5,0,1.1-0.5,1.3C180,184.6,179.9,184.7,179.7,184.7z"/>
				<path fill="#95D7E6" d="M186.7,199.5c-0.4,0-0.7-0.2-0.9-0.6l-0.9-2c-0.2-0.5,0-1.1,0.5-1.3c0.5-0.2,1.1,0,1.3,0.5l0.9,2
					c0.2,0.5,0,1.1-0.5,1.3C187,199.4,186.8,199.5,186.7,199.5z M184.4,194.5c-0.4,0-0.7-0.2-0.9-0.6l-0.9-2c-0.2-0.5,0-1.1,0.5-1.3
					c0.5-0.2,1.1,0,1.3,0.5l0.9,2c0.2,0.5,0,1.1-0.5,1.3C184.7,194.5,184.5,194.5,184.4,194.5z M182,189.6c-0.4,0-0.7-0.2-0.9-0.6
					l-0.9-2c-0.2-0.5,0-1.1,0.5-1.3c0.5-0.2,1.1,0,1.3,0.5l0.9,2c0.2,0.5,0,1.1-0.5,1.3C182.3,189.6,182.2,189.6,182,189.6z"/>
				<path fill="#95D7E6" d="M188.5,203.3c-0.4,0-0.7-0.2-0.9-0.6l-0.4-0.9c-0.2-0.5,0-1.1,0.5-1.3c0.5-0.2,1.1,0,1.3,0.5l0.4,0.9
					c0.2,0.5,0,1.1-0.5,1.3C188.8,203.3,188.7,203.3,188.5,203.3z"/>
			</g>
		</g>
		<g>
			<g>
				<path fill="#95D7E6" d="M219.9,184.3C219.9,184.3,219.9,184.3,219.9,184.3c-0.6,0-1-0.5-1-1l0-1c0-0.5,0.4-1,1-1c0,0,0,0,0,0
					c0.5,0,1,0.5,1,1l0,1C220.9,183.9,220.5,184.3,219.9,184.3z"/>
				<path fill="#95D7E6" d="M219.7,198.4C219.7,198.4,219.7,198.4,219.7,198.4c-0.6,0-1-0.5-1-1l0-1.9c0-0.5,0.5-1,1-1
					c0.5,0,1,0.5,1,1l0,1.9C220.6,198,220.2,198.4,219.7,198.4z M219.7,193.7C219.7,193.7,219.7,193.7,219.7,193.7c-0.6,0-1-0.5-1-1
					l0-1.9c0-0.5,0.5-1,1-1c0.5,0,1,0.5,1,1l0,1.9C220.7,193.3,220.3,193.7,219.7,193.7z M219.8,189C219.8,189,219.8,189,219.8,189
					c-0.6,0-1-0.5-1-1l0-1.9c0-0.5,0.5-0.9,1-1c0.5,0,1,0.5,1,1l0,1.9C220.8,188.6,220.4,189,219.8,189z"/>
				<path fill="#95D7E6" d="M219.6,202.2C219.6,202.2,219.6,202.2,219.6,202.2c-0.6,0-1-0.5-1-1l0-1c0-0.5,0.5-1,1-1
					c0.5,0,1,0.5,1,1l0,1C220.6,201.8,220.1,202.2,219.6,202.2z"/>
			</g>
			<g>
				<path fill="#95D7E6" d="M214.2,184.7c-0.1,0-0.3,0-0.4-0.1c-0.5-0.2-0.7-0.8-0.5-1.3l0.4-0.9c0.2-0.5,0.8-0.7,1.3-0.5
					c0.5,0.2,0.7,0.8,0.5,1.3l-0.4,0.9C215,184.5,214.6,184.7,214.2,184.7z"/>
				<path fill="#95D7E6" d="M207.3,199.5c-0.1,0-0.3,0-0.4-0.1c-0.5-0.2-0.7-0.8-0.5-1.3l0.9-2c0.2-0.5,0.8-0.7,1.3-0.5
					c0.5,0.2,0.7,0.8,0.5,1.3l-0.9,2C208,199.3,207.6,199.5,207.3,199.5z M209.6,194.5c-0.1,0-0.3,0-0.4-0.1
					c-0.5-0.2-0.7-0.8-0.5-1.3l0.9-2c0.2-0.5,0.8-0.7,1.3-0.5c0.5,0.2,0.7,0.8,0.5,1.3l-0.9,2C210.3,194.3,210,194.5,209.6,194.5z
					 M211.9,189.6c-0.1,0-0.3,0-0.4-0.1c-0.5-0.2-0.7-0.8-0.5-1.3l0.9-2c0.2-0.5,0.8-0.7,1.3-0.5c0.5,0.2,0.7,0.8,0.5,1.3l-0.9,2
					C212.6,189.4,212.3,189.6,211.9,189.6z"/>
				<path fill="#95D7E6" d="M205.4,203.3c-0.1,0-0.3,0-0.4-0.1c-0.5-0.2-0.7-0.8-0.5-1.3l0.4-0.9c0.2-0.5,0.8-0.7,1.3-0.5
					c0.5,0.2,0.7,0.8,0.5,1.3l-0.4,0.9C206.2,203.1,205.8,203.3,205.4,203.3z"/>
			</g>
			<g>
				<path fill="#95D7E6" d="M225.3,184.7c-0.4,0-0.7-0.2-0.9-0.6l-0.4-0.9c-0.2-0.5,0-1.1,0.5-1.3c0.5-0.2,1.1,0,1.3,0.5l0.4,0.9
					c0.2,0.5,0,1.1-0.5,1.3C225.6,184.6,225.4,184.7,225.3,184.7z"/>
				<path fill="#95D7E6" d="M232.3,199.5c-0.4,0-0.7-0.2-0.9-0.6l-0.9-2c-0.2-0.5,0-1.1,0.5-1.3c0.5-0.2,1.1,0,1.3,0.5l0.9,2
					c0.2,0.5,0,1.1-0.5,1.3C232.6,199.4,232.4,199.5,232.3,199.5z M229.9,194.5c-0.4,0-0.7-0.2-0.9-0.6l-0.9-2
					c-0.2-0.5,0-1.1,0.5-1.3c0.5-0.2,1.1,0,1.3,0.5l0.9,2c0.2,0.5,0,1.1-0.5,1.3C230.2,194.5,230.1,194.5,229.9,194.5z M227.6,189.6
					c-0.4,0-0.7-0.2-0.9-0.6l-0.9-2c-0.2-0.5,0-1.1,0.5-1.3c0.5-0.2,1.1,0,1.3,0.5l0.9,2c0.2,0.5,0,1.1-0.5,1.3
					C227.9,189.6,227.8,189.6,227.6,189.6z"/>
				<path fill="#95D7E6" d="M234.1,203.3c-0.4,0-0.7-0.2-0.9-0.6l-0.4-0.9c-0.2-0.5,0-1.1,0.5-1.3c0.5-0.2,1.1,0,1.3,0.5l0.4,0.9
					c0.2,0.5,0,1.1-0.5,1.3C234.4,203.3,234.2,203.3,234.1,203.3z"/>
			</g>
		</g>
		<path fill="#95D7E6" d="M243.7,114.8c0-3.9-8.7-6.8-10.7,2.6c0,0.1,0,0.2,0,0.3c0,6.3,5.1,11.3,11.3,11.3c5.8,0,10.5-4.3,11.2-9.8
			C252,118,243.7,124.4,243.7,114.8z"/>
	</g>
</g>
<g>
	<path fill="none" d="M244.2,104.2c-3.6,0-6.8,1.5-9.2,3.8c-2.4,2.4-3.8,5.6-3.8,9.2c0,3.6,1.5,6.8,3.8,9.2c2.4,2.4,5.6,3.8,9.2,3.8
		c3.6,0,6.8-1.5,9.2-3.8c2.4-2.4,3.8-5.6,3.8-9.2c0-3.6-1.5-6.8-3.8-9.2C251.1,105.6,247.8,104.2,244.2,104.2z"/>
	<path fill="none" d="M267.9,81.6h-48.3v11h48.3V81.6z M249.3,88.5h-5.4V86h5.4V88.5z M257.4,88.5H252V86h5.4V88.5z M262.6,89.9
		c-1.6,0-2.9-1.3-2.9-2.9c0-1.6,1.3-2.9,2.9-2.9c1.6,0,2.9,1.3,2.9,2.9C265.5,88.6,264.2,89.9,262.6,89.9z"/>
	<path fill="none" d="M267.9,95.5h-48.3v44.2h48.3V95.5z M256.5,129.4c-3.1,3.1-7.5,5.1-12.2,5.1c-4.8,0-9.1-1.9-12.2-5.1
		c-3.1-3.1-5.1-7.5-5.1-12.2c0-4.8,1.9-9.1,5.1-12.2c3.1-3.1,7.5-5.1,12.2-5.1c4.8,0,9.1,1.9,12.2,5.1c3.1,3.1,5.1,7.5,5.1,12.2
		C261.6,121.9,259.6,126.3,256.5,129.4z"/>
	<path fill="none" d="M223.3,142.6c5.9,3.7,12.9,5.9,20.4,5.9s14.5-2.2,20.4-5.9H223.3z"/>
	<path fill="none" d="M216.7,94.1v-1.4v-9.4c-6.9,6.9-11.2,16.5-11.2,27s4.3,20.1,11.2,27V95.5V94.1z"/>
	<path fill="none" d="M270.8,94.1v1.4v41.8c6.9-6.9,11.2-16.5,11.2-27s-4.3-20.1-11.2-27v9.4V94.1z"/>
	<path fill="none" d="M243.7,72.1c-8,0-15.4,2.5-21.6,6.7h43.1C259.2,74.5,251.7,72.1,243.7,72.1z"/>
	<path fill="#44433C" d="M270.8,137.4V95.5v-1.4v-1.4v-9.4c-1.7-1.7-3.5-3.2-5.5-4.5h-43.1c-2,1.3-3.8,2.9-5.5,4.5v9.4v1.4v1.4v41.8
		c2,2,4.2,3.8,6.6,5.3h40.8C266.6,141.1,268.8,139.4,270.8,137.4z M219.6,81.6h48.3v11h-48.3V81.6z M219.6,95.5h48.3v44.2h-48.3
		V95.5z"/>
	<path fill="#44433C" d="M262.6,84.2c-1.6,0-2.9,1.3-2.9,2.9c0,1.6,1.3,2.9,2.9,2.9c1.6,0,2.9-1.3,2.9-2.9
		C265.5,85.5,264.2,84.2,262.6,84.2z"/>
	<rect x="243.9" y="86" fill="#44433C" width="5.4" height="2.6"/>
	<path fill="#44433C" d="M244.2,99.8c-4.8,0-9.1,1.9-12.2,5.1c-3.1,3.1-5.1,7.5-5.1,12.2c0,4.8,1.9,9.1,5.1,12.2
		c3.1,3.1,7.5,5.1,12.2,5.1c4.8,0,9.1-1.9,12.2-5.1c3.1-3.1,5.1-7.5,5.1-12.2c0-4.8-1.9-9.1-5.1-12.2
		C253.4,101.8,249,99.8,244.2,99.8z M253.4,126.3c-2.4,2.4-5.6,3.8-9.2,3.8c-3.6,0-6.8-1.5-9.2-3.8c-2.4-2.4-3.8-5.6-3.8-9.2
		c0-3.6,1.5-6.8,3.8-9.2c2.4-2.4,5.6-3.8,9.2-3.8c3.6,0,6.8,1.5,9.2,3.8c2.4,2.4,3.8,5.6,3.8,9.2C257.2,120.7,255.8,124,253.4,126.3
		z"/>
	<rect x="252" y="86" fill="#44433C" width="5.4" height="2.6"/>
</g>
<g>
	<path fill="#365E66" d="M30.2,84.7c0,0.1,0.1,0.1,0.1,0.1c0.2,0.2,0.2,0.3,0.3,0.5c0,0,0,0,0,0c0,0,0.1-0.1,0.1-0.1
		c0.9,1.1,1.3,2.3,1.8,4c0.2,0.8,0.5,1.6,0.8,2.6c1.3,3.7,3.8,6,4,6.2c-3.6,5.4-3,12.3,1.9,16.6c0,0,0.3,0.2,0.3,0.2
		c0.1,0.1,0.4,0.3,2.7,1.8l1-1.2l0.1-0.1l14.6-16.3l0.2-0.2l0.7-0.8c-1.7-2.2-2.2-2.7-2.2-2.7c-4.7-4.1-11.5-4.3-16.3-0.5
		c0,0,0,0,0-0.1c0,0-2.4-2.2-3.6-5.6c-0.3-0.9-0.6-1.8-0.8-2.5c-0.5-1.6-0.9-3-1.8-4.2c0,0,0,0,0,0c-0.1-0.1-0.1-0.1-0.1-0.2
		c-0.1-0.1-0.2-0.3-0.3-0.5c-0.3-0.1-0.4-0.4-0.5-0.6c0,0-0.1,0.1-0.1,0.1c0,0,0,0,0,0c-0.2,0.1-1.2,0.9-1.2,0.9c0,0,0.1,0.1,0,0.1
		c1.6,1.4,1.9,2.7,2.6,4.9c0.2,0.8,0.5,1.6,0.8,2.6c1.2,3.6,3.6,5.9,4,6.2c-0.2,0.2-0.5,0.4-0.7,0.7c-0.1,0.1-0.1,0.1-0.1,0.2
		c-0.5-0.5-2.5-2.6-3.5-5.5c-0.3-0.9-0.6-1.8-0.8-2.5c-0.7-2.3-1.2-4-3.2-5.7c-0.1,0.1-0.8,0.8-1,1c0,0,0,0-0.1,0.1c0,0,0,0,0,0
		C29.8,84.2,30,84.4,30.2,84.7z M38.8,105.6c0.4,2.7,3,5.1,3,5.1c0.4,0.4,0.4,1,0.1,1.4c-0.2,0.2-0.5,0.3-0.7,0.3
		c-0.2,0-0.5-0.1-0.7-0.3c-0.1-0.1-3.1-2.9-3.6-6.2c-0.1-0.5,0.3-1,0.8-1.1C38.2,104.7,38.7,105.1,38.8,105.6z"/>
	<path fill="#F4E7D6" d="M36.8,106c0.6,3.3,3.5,6.1,3.6,6.2c0.2,0.2,0.4,0.3,0.7,0.3c0.3,0,0.5-0.1,0.7-0.3c0.4-0.4,0.3-1-0.1-1.4
		c0,0-2.6-2.4-3-5.1c-0.1-0.5-0.6-0.9-1.1-0.8C37.1,104.9,36.7,105.4,36.8,106z"/>
	<path fill="#95D7E6" d="M52.1,110c0.2,0.2,0.4,0.3,0.7,0.3c0.3,0,0.5-0.1,0.7-0.3c0.4-0.4,0.3-1-0.1-1.4l-0.7-0.7
		c-0.4-0.4-1-0.3-1.4,0.1c-0.4,0.4-0.3,1,0.1,1.4L52.1,110z"/>
	<path fill="#95D7E6" d="M57,111.8l-1.4-1.3c-0.4-0.4-1-0.3-1.4,0.1c-0.4,0.4-0.3,1,0.1,1.4l1.4,1.3c0.2,0.2,0.4,0.3,0.7,0.3
		c0.3,0,0.5-0.1,0.7-0.3C57.4,112.7,57.4,112.1,57,111.8z"/>
	<path fill="#95D7E6" d="M77,132.5c0.2,0.2,0.4,0.3,0.7,0.3c0.3,0,0.5-0.1,0.7-0.3c0.4-0.4,0.3-1-0.1-1.4l-1.4-1.3
		c-0.4-0.4-1-0.3-1.4,0.1c-0.4,0.4-0.3,1,0.1,1.4L77,132.5z"/>
	<path fill="#95D7E6" d="M71.2,124.6l-1.4-1.3c-0.4-0.4-1-0.3-1.4,0.1c-0.4,0.4-0.3,1,0.1,1.4l1.4,1.3c0.2,0.2,0.4,0.3,0.7,0.3
		c0.3,0,0.5-0.1,0.7-0.3C71.7,125.6,71.6,124.9,71.2,124.6z"/>
	<path fill="#95D7E6" d="M80.6,135.7c0.2,0.2,0.4,0.3,0.7,0.3c0.3,0,0.5-0.1,0.7-0.3c0.4-0.4,0.3-1-0.1-1.4l-1.4-1.3
		c-0.4-0.4-1-0.3-1.4,0.1c-0.4,0.4-0.3,1,0.1,1.4L80.6,135.7z"/>
	<path fill="#95D7E6" d="M74.8,129.2c0.4-0.4,0.3-1-0.1-1.4l-1.4-1.3c-0.4-0.4-1-0.3-1.4,0.1c-0.4,0.4-0.3,1,0.1,1.4l1.4,1.3
		c0.2,0.2,0.4,0.3,0.7,0.3C74.4,129.5,74.6,129.4,74.8,129.2z"/>
	<path fill="#95D7E6" d="M83.9,136c-0.4-0.2-0.9-0.2-1.2,0.2c-0.3,0.3-0.3,0.8-0.1,1.2C83,137,83.4,136.5,83.9,136z"/>
	<path fill="#95D7E6" d="M61.4,118.3l1.4,1.3c0.2,0.2,0.4,0.3,0.7,0.3c0.3,0,0.5-0.1,0.7-0.3c0.4-0.4,0.3-1-0.1-1.4l-1.4-1.3
		c-0.4-0.4-1-0.3-1.4,0.1C60.9,117.4,61,118,61.4,118.3z"/>
	<path fill="#95D7E6" d="M64.8,120.2c-0.4,0.4-0.3,1,0.1,1.4l1.4,1.3c0.2,0.2,0.4,0.3,0.7,0.3c0.3,0,0.5-0.1,0.7-0.3
		c0.4-0.4,0.3-1-0.1-1.4l-1.4-1.3C65.8,119.7,65.2,119.8,64.8,120.2z"/>
	<path fill="#95D7E6" d="M57.8,115.1l1.4,1.3c0.2,0.2,0.4,0.3,0.7,0.3c0.3,0,0.5-0.1,0.7-0.3c0.4-0.4,0.3-1-0.1-1.4l-1.4-1.3
		c-0.4-0.4-1-0.3-1.4,0.1C57.4,114.2,57.4,114.8,57.8,115.1z"/>
	<path fill="#95D7E6" d="M49.2,114.4c0.2,0,0.5-0.1,0.7-0.3c0.4-0.4,0.4-1,0-1.4l-0.7-0.7c-0.4-0.4-1-0.4-1.4,0
		c-0.4,0.4-0.4,1,0,1.4l0.7,0.7C48.6,114.3,48.9,114.4,49.2,114.4z"/>
	<path fill="#95D7E6" d="M75.8,140.5c-0.4-0.4-1-0.4-1.4,0c-0.4,0.4-0.4,1,0,1.4l1.1,1.2c0.6-0.3,1.1-0.7,1.7-1.1L75.8,140.5z"/>
	<path fill="#95D7E6" d="M69.6,136.3c0.2,0,0.5-0.1,0.7-0.3c0.4-0.4,0.4-1,0-1.4l-1.4-1.5c-0.4-0.4-1-0.4-1.4,0
		c-0.4,0.4-0.4,1,0,1.4l1.4,1.5C69.1,136.2,69.3,136.3,69.6,136.3z"/>
	<path fill="#95D7E6" d="M72.3,139.6c0.2,0.2,0.5,0.3,0.7,0.3c0.2,0,0.5-0.1,0.7-0.3c0.4-0.4,0.4-1,0-1.4l-1.4-1.5
		c-0.4-0.4-1-0.4-1.4,0c-0.4,0.4-0.4,1,0,1.4L72.3,139.6z"/>
	<path fill="#95D7E6" d="M50.5,116.2l1.4,1.5c0.2,0.2,0.5,0.3,0.7,0.3c0.2,0,0.5-0.1,0.7-0.3c0.4-0.4,0.4-1,0-1.4l-1.4-1.5
		c-0.4-0.4-1-0.4-1.4,0C50.1,115.2,50.1,115.8,50.5,116.2z"/>
	<path fill="#95D7E6" d="M58.7,125c0.2,0.2,0.5,0.3,0.7,0.3c0.2,0,0.5-0.1,0.7-0.3c0.4-0.4,0.4-1,0-1.4l-1.4-1.5
		c-0.4-0.4-1-0.4-1.4,0c-0.4,0.4-0.4,1,0,1.4L58.7,125z"/>
	<path fill="#95D7E6" d="M60.8,125.8c-0.4,0.4-0.4,1,0,1.4l1.4,1.5c0.2,0.2,0.5,0.3,0.7,0.3c0.2,0,0.5-0.1,0.7-0.3
		c0.4-0.4,0.4-1,0-1.4l-1.4-1.5C61.8,125.4,61.2,125.4,60.8,125.8z"/>
	<path fill="#95D7E6" d="M65.6,129.5c-0.4-0.4-1-0.4-1.4,0c-0.4,0.4-0.4,1,0,1.4l1.4,1.5c0.2,0.2,0.5,0.3,0.7,0.3
		c0.2,0,0.5-0.1,0.7-0.3c0.4-0.4,0.4-1,0-1.4L65.6,129.5z"/>
	<path fill="#95D7E6" d="M56.7,121.4c0.4-0.4,0.4-1,0-1.4l-1.4-1.5c-0.4-0.4-1-0.4-1.4,0c-0.4,0.4-0.4,1,0,1.4l1.4,1.5
		c0.2,0.2,0.5,0.3,0.7,0.3C56.2,121.7,56.5,121.6,56.7,121.4z"/>
	<path fill="#95D7E6" d="M45.7,116.1c-0.3-0.4-1-0.5-1.4-0.2c-0.4,0.3-0.5,1-0.2,1.4l0.6,0.8c0.2,0.2,0.5,0.4,0.8,0.4
		c0.2,0,0.4-0.1,0.6-0.2c0.4-0.3,0.5-1,0.2-1.4L45.7,116.1z"/>
	<path fill="#95D7E6" d="M54,129.9c0.2,0.2,0.5,0.4,0.8,0.4c0.2,0,0.4-0.1,0.6-0.2c0.4-0.3,0.5-1,0.2-1.4l-1.2-1.6
		c-0.3-0.4-1-0.5-1.4-0.2c-0.4,0.3-0.5,1-0.2,1.4L54,129.9z"/>
	<path fill="#95D7E6" d="M58.9,136.2l1.2,1.6c0.2,0.2,0.5,0.4,0.8,0.4c0.2,0,0.4-0.1,0.6-0.2c0.4-0.3,0.5-1,0.2-1.4l-1.2-1.6
		c-0.3-0.4-1-0.5-1.4-0.2C58.6,135.1,58.6,135.7,58.9,136.2z"/>
	<path fill="#95D7E6" d="M47.8,122c0.2,0.2,0.5,0.4,0.8,0.4c0.2,0,0.4-0.1,0.6-0.2c0.4-0.3,0.5-1,0.2-1.4l-1.2-1.6
		c-0.3-0.4-1-0.5-1.4-0.2c-0.4,0.3-0.5,1-0.2,1.4L47.8,122z"/>
	<path fill="#95D7E6" d="M66.3,145.6c0.2,0.2,0.5,0.4,0.8,0.4c0.2,0,0.4-0.1,0.6-0.2c0.4-0.3,0.5-1,0.2-1.4l-1.2-1.6
		c-0.3-0.4-1-0.5-1.4-0.2c-0.4,0.3-0.5,1-0.2,1.4L66.3,145.6z"/>
	<path fill="#95D7E6" d="M63.2,141.7c0.2,0.2,0.5,0.4,0.8,0.4c0.2,0,0.4-0.1,0.6-0.2c0.4-0.3,0.5-1,0.2-1.4l-1.2-1.6
		c-0.3-0.4-1-0.5-1.4-0.2c-0.4,0.3-0.5,1-0.2,1.4L63.2,141.7z"/>
	<path fill="#95D7E6" d="M50.9,125.9c0.2,0.2,0.5,0.4,0.8,0.4c0.2,0,0.4-0.1,0.6-0.2c0.4-0.3,0.5-1,0.2-1.4l-1.2-1.6
		c-0.3-0.4-1-0.5-1.4-0.2c-0.4,0.3-0.5,1-0.2,1.4L50.9,125.9z"/>
	<path fill="#95D7E6" d="M57.1,133.8c0.2,0.2,0.5,0.4,0.8,0.4c0.2,0,0.4-0.1,0.6-0.2c0.4-0.3,0.5-1,0.2-1.4l-1.2-1.6
		c-0.3-0.4-1-0.5-1.4-0.2c-0.4,0.3-0.5,1-0.2,1.4L57.1,133.8z"/>
	<path fill="#95D7E6" d="M59.5,101.9c0.2,0.1,0.3,0.2,0.5,0.2c0.3,0,0.7-0.2,0.8-0.5c0.3-0.5,0.1-1.1-0.3-1.4l-0.8-0.5
		c-0.5-0.3-1.1-0.1-1.4,0.3c-0.3,0.5-0.1,1.1,0.3,1.4L59.5,101.9z"/>
	<path fill="#95D7E6" d="M73.3,108.2l-1.7-1.1c-0.5-0.3-1.1-0.1-1.4,0.3c-0.3,0.5-0.1,1.1,0.3,1.4l1.7,1.1c0.2,0.1,0.3,0.2,0.5,0.2
		c0.3,0,0.7-0.2,0.8-0.5C73.9,109.1,73.7,108.5,73.3,108.2z"/>
	<path fill="#95D7E6" d="M90.5,120.1c0.3-0.5,0.1-1.1-0.3-1.4l-1.7-1.1c-0.5-0.3-1.1-0.1-1.4,0.3c-0.3,0.5-0.1,1.1,0.3,1.4l1.7,1.1
		c0.2,0.1,0.3,0.2,0.5,0.2C90,120.6,90.3,120.4,90.5,120.1z"/>
	<path fill="#95D7E6" d="M64.8,102.9l-1.7-1.1c-0.5-0.3-1.1-0.1-1.4,0.3c-0.3,0.5-0.1,1.1,0.3,1.4l1.7,1.1c0.2,0.1,0.3,0.1,0.5,0.1
		c0.3,0,0.7-0.2,0.8-0.5C65.4,103.8,65.3,103.2,64.8,102.9z"/>
	<path fill="#95D7E6" d="M84.3,115.1c-0.5-0.3-1.1-0.1-1.4,0.3c-0.3,0.5-0.1,1.1,0.3,1.4l1.7,1.1c0.2,0.1,0.3,0.1,0.5,0.1
		c0.3,0,0.7-0.2,0.8-0.5c0.3-0.5,0.1-1.1-0.3-1.4L84.3,115.1z"/>
	<path fill="#95D7E6" d="M81.7,113.5l-1.7-1.1c-0.5-0.3-1.1-0.1-1.4,0.3c-0.3,0.5-0.1,1.1,0.3,1.4l1.7,1.1c0.2,0.1,0.3,0.1,0.5,0.1
		c0.3,0,0.7-0.2,0.8-0.5C82.3,114.4,82.2,113.8,81.7,113.5z"/>
	<path fill="#95D7E6" d="M91.4,120.7c-0.3,0.5-0.1,1.1,0.3,1.4l0.1,0.1c0.2-0.6,0.4-1.2,0.5-1.9C92,120.2,91.6,120.3,91.4,120.7z"/>
	<path fill="#95D7E6" d="M74.8,111.4l1.7,1.1c0.2,0.1,0.3,0.1,0.5,0.1c0.3,0,0.7-0.2,0.8-0.5c0.3-0.5,0.1-1.1-0.3-1.4l-1.7-1.1
		c-0.5-0.3-1.1-0.1-1.4,0.3C74.2,110.5,74.3,111.2,74.8,111.4z"/>
	<path fill="#95D7E6" d="M69,105.5l-1.7-1.1c-0.5-0.3-1.1-0.1-1.4,0.3c-0.3,0.5-0.1,1.1,0.3,1.4l1.7,1.1c0.2,0.1,0.3,0.2,0.5,0.2
		c0.3,0,0.7-0.2,0.8-0.5C69.6,106.4,69.5,105.8,69,105.5z"/>
	<path fill="#95D7E6" d="M55,105.4l0.8,0.6c0.2,0.1,0.4,0.2,0.6,0.2c0.3,0,0.6-0.1,0.8-0.4c0.3-0.4,0.2-1.1-0.2-1.4l-0.8-0.6
		c-0.4-0.3-1.1-0.2-1.4,0.2C54.5,104.4,54.6,105,55,105.4z"/>
	<path fill="#95D7E6" d="M65.2,110.6l-1.6-1.2c-0.4-0.3-1.1-0.2-1.4,0.2c-0.3,0.4-0.2,1.1,0.2,1.4l1.6,1.2c0.2,0.1,0.4,0.2,0.6,0.2
		c0.3,0,0.6-0.1,0.8-0.4C65.7,111.5,65.6,110.9,65.2,110.6z"/>
	<path fill="#95D7E6" d="M80.9,124.7c0.3,0,0.6-0.1,0.8-0.4c0.3-0.4,0.2-1.1-0.2-1.4l-1.6-1.2c-0.4-0.3-1.1-0.2-1.4,0.2
		c-0.3,0.4-0.2,1.1,0.2,1.4l1.6,1.2C80.4,124.6,80.7,124.7,80.9,124.7z"/>
	<path fill="#95D7E6" d="M76.8,121.6c0.3,0,0.6-0.1,0.8-0.4c0.3-0.4,0.2-1.1-0.2-1.4l-1.6-1.2c-0.4-0.3-1.1-0.2-1.4,0.2
		c-0.3,0.4-0.2,1.1,0.2,1.4l1.6,1.2C76.4,121.5,76.6,121.6,76.8,121.6z"/>
	<path fill="#95D7E6" d="M88,127.8c-0.4-0.3-1.1-0.2-1.4,0.2c-0.3,0.4-0.2,1.1,0.2,1.4l1.3,1c0.3-0.6,0.7-1.1,1-1.7L88,127.8z"/>
	<path fill="#95D7E6" d="M73.3,116.7l-1.6-1.2c-0.4-0.3-1.1-0.2-1.4,0.2c-0.3,0.4-0.2,1.1,0.2,1.4l1.6,1.2c0.2,0.1,0.4,0.2,0.6,0.2
		c0.3,0,0.6-0.1,0.8-0.4C73.8,117.7,73.7,117.1,73.3,116.7z"/>
	<path fill="#95D7E6" d="M82.7,126.3l1.6,1.2c0.2,0.1,0.4,0.2,0.6,0.2c0.3,0,0.6-0.1,0.8-0.4c0.3-0.4,0.2-1.1-0.2-1.4l-1.6-1.2
		c-0.4-0.3-1.1-0.2-1.4,0.2C82.2,125.4,82.3,126,82.7,126.3z"/>
	<path fill="#95D7E6" d="M58.1,106.4c-0.3,0.4-0.2,1.1,0.2,1.4l1.6,1.2c0.2,0.1,0.4,0.2,0.6,0.2c0.3,0,0.6-0.1,0.8-0.4
		c0.3-0.4,0.2-1.1-0.2-1.4l-1.6-1.2C59,105.9,58.4,106,58.1,106.4z"/>
	<path fill="#95D7E6" d="M67.6,112.4c-0.4-0.3-1.1-0.2-1.4,0.2c-0.3,0.4-0.2,1.1,0.2,1.4l1.6,1.2c0.2,0.1,0.4,0.2,0.6,0.2
		c0.3,0,0.6-0.1,0.8-0.4c0.3-0.4,0.2-1.1-0.2-1.4L67.6,112.4z"/>
</g>
<g>
	<path fill="#95D7E6" d="M151.4,123.7C151.4,123.7,151.4,123.7,151.4,123.7c0.5,0,1-0.4,1-1l0-1c0-0.5-0.4-1-1-1c-0.5,0-1,0.4-1,1
		l0,1C150.4,123.2,150.8,123.7,151.4,123.7z"/>
	<path fill="#95D7E6" d="M150.3,138c0,0.5,0.4,1,1,1c0,0,0,0,0,0c0.5,0,1-0.4,1-1l0-2c0-0.5-0.4-1-1-1c0,0,0,0,0,0c-0.5,0-1,0.4-1,1
		L150.3,138z"/>
	<path fill="#95D7E6" d="M150.3,132.9c0,0.5,0.4,1,1,1c0,0,0,0,0,0c0.5,0,1-0.4,1-1l0-2c0-0.5-0.4-1-1-1c0,0,0,0,0,0
		c-0.5,0-1,0.4-1,1L150.3,132.9z"/>
	<path fill="#95D7E6" d="M150.3,143.1c0,0.5,0.4,1,1,1c0,0,0,0,0,0c0.5,0,1-0.4,1-1l0-2c0-0.5-0.4-1-1-1c0,0,0,0,0,0
		c-0.5,0-1,0.4-1,1L150.3,143.1z"/>
	<path fill="#95D7E6" d="M150.4,127.8c0,0.5,0.4,1,1,1c0,0,0,0,0,0c0.5,0,1-0.4,1-1l0-2c0-0.5-0.4-1-1-1c0,0,0,0,0,0
		c-0.5,0-1,0.4-1,1L150.4,127.8z"/>
	<path fill="#95D7E6" d="M152.2,146.2c0-0.5-0.4-1-1-1c0,0,0,0,0,0c-0.5,0-1,0.4-1,1l0,2c0.7,0,1.3,0,2-0.1L152.2,146.2z"/>
	<path fill="#95D7E6" d="M146.4,119.2c-0.5-0.1-1.1,0.3-1.1,0.8l-0.2,1c-0.1,0.5,0.3,1.1,0.8,1.1c0.1,0,0.1,0,0.2,0
		c0.5,0,0.9-0.3,1-0.8l0.2-1C147.3,119.8,146.9,119.3,146.4,119.2z"/>
	<path fill="#95D7E6" d="M143.6,129l-0.4,2c-0.1,0.5,0.3,1,0.8,1.1c0.1,0,0.1,0,0.2,0c0.5,0,0.9-0.3,1-0.8l0.4-2
		c0.1-0.5-0.3-1-0.8-1.1C144.2,128.1,143.7,128.4,143.6,129z"/>
	<path fill="#95D7E6" d="M142.4,146.4l0.4-2c0.1-0.5-0.3-1.1-0.8-1.1c-0.5-0.1-1.1,0.3-1.1,0.8l-0.4,2c-0.1,0.4,0.2,0.9,0.5,1.1
		c0.1,0,0.3,0.1,0.4,0.1C141.9,147.2,142.3,146.9,142.4,146.4z"/>
	<path fill="#95D7E6" d="M145.1,127.1c0.5,0,0.9-0.3,1-0.8l0.4-2c0.1-0.5-0.3-1.1-0.8-1.1c-0.5-0.1-1.1,0.3-1.1,0.8l-0.4,2
		c-0.1,0.5,0.3,1.1,0.8,1.1C145,127.1,145,127.1,145.1,127.1z"/>
	<path fill="#95D7E6" d="M142.6,134l-0.4,2c-0.1,0.5,0.3,1,0.8,1.1c0.1,0,0.1,0,0.2,0c0.5,0,0.9-0.3,1-0.8l0.4-2
		c0.1-0.5-0.3-1-0.8-1.1C143.3,133.1,142.7,133.5,142.6,134z"/>
	<path fill="#95D7E6" d="M141.7,139l-0.4,2c-0.1,0.5,0.3,1,0.8,1.1c0.1,0,0.1,0,0.2,0c0.5,0,0.9-0.3,1-0.8l0.4-2
		c0.1-0.5-0.3-1.1-0.8-1.1C142.3,138.1,141.8,138.5,141.7,139z"/>
	<path fill="#95D7E6" d="M157.4,120c-0.1-0.5-0.6-0.9-1.1-0.8c-0.5,0.1-0.9,0.6-0.8,1.1l0.2,1c0.1,0.5,0.5,0.8,1,0.8
		c0.1,0,0.1,0,0.2,0c0.5-0.1,0.9-0.6,0.8-1.1L157.4,120z"/>
	<path fill="#95D7E6" d="M161.8,144c-0.1-0.5-0.6-0.9-1.1-0.8c-0.5,0.1-0.9,0.6-0.8,1.1l0.4,2c0,0.1,0.1,0.2,0.1,0.3
		c0.6-0.2,1.2-0.4,1.8-0.6c0,0,0-0.1,0-0.1L161.8,144z"/>
	<path fill="#95D7E6" d="M159,129c-0.1-0.5-0.6-0.9-1.1-0.8c-0.5,0.1-0.9,0.6-0.8,1.1l0.4,2c0.1,0.5,0.5,0.8,1,0.8
		c0.1,0,0.1,0,0.2,0c0.5-0.1,0.9-0.6,0.8-1.1L159,129z"/>
	<path fill="#95D7E6" d="M158.1,123.9c-0.1-0.5-0.6-0.9-1.1-0.8c-0.5,0.1-0.9,0.6-0.8,1.1l0.4,2c0.1,0.5,0.5,0.8,1,0.8
		c0.1,0,0.1,0,0.2,0c0.5-0.1,0.9-0.6,0.8-1.1L158.1,123.9z"/>
	<path fill="#95D7E6" d="M159.7,138.2c-0.5,0.1-0.9,0.6-0.8,1.1l0.4,2c0.1,0.5,0.5,0.8,1,0.8c0.1,0,0.1,0,0.2,0
		c0.5-0.1,0.9-0.6,0.8-1.1l-0.4-2C160.8,138.5,160.3,138.1,159.7,138.2z"/>
	<path fill="#95D7E6" d="M160,134c-0.1-0.5-0.6-0.9-1.1-0.8c-0.5,0.1-0.9,0.6-0.8,1.1l0.4,2c0.1,0.5,0.5,0.8,1,0.8
		c0.1,0,0.1,0,0.2,0c0.5-0.1,0.9-0.6,0.8-1.1L160,134z"/>
	<path fill="#2C4220" d="M147.2,98.6v9.4h7.9v-9.4C152.5,98.8,149.8,98.8,147.2,98.6z"/>
	<path fill="#2C4220" d="M166.5,94.1c0-1-0.7-2-1.5-2.8c-2.8-0.5-5.5-0.9-8.3-1.1c0,1-0.8,1.7-1.7,1.7h-7.2c-1,0-1.7-0.8-1.7-1.7
		c-3.2,0.2-6.4,0.7-9.5,1.4c-0.7,0.7-1.2,1.6-1.2,2.5c0,1.3,1.1,2.5,2.2,3.4c3.2,0.6,6.5,1.1,9.7,1.2c2.6,0.2,5.3,0.2,7.9,0
		c3.1-0.2,6.1-0.5,9.1-1.1C165.4,96.7,166.5,95.4,166.5,94.1z"/>
	<path fill="#2C4220" d="M147.7,91.9h7.2c1,0,1.7-0.8,1.7-1.7c0,0,0,0,0,0v-1.4c0-1-0.8-1.7-1.7-1.7h-7.2c-1,0-1.7,0.8-1.7,1.7v1.4
		c0,0,0,0,0,0C146,91.1,146.8,91.9,147.7,91.9z"/>
	<path fill="#2C4220" d="M147.1,86.6h8.4c-0.6-1.8-2.2-3.1-4.2-3.1C149.3,83.5,147.6,84.8,147.1,86.6z"/>
	<path fill="#2C4220" d="M146.5,108.1c-0.5,0-0.9,0.4-0.9,0.9v7.3c0,0.5,0.4,0.9,0.9,0.9h9.6c0.5,0,0.9-0.4,0.9-0.9V109
		c0-0.5-0.4-0.9-0.9-0.9h-1h-7.9H146.5z"/>
	<path fill="#A02722" d="M178,99.1c0,0-4.5-2.3-4.5-4.9c0-2.6,4.5-4.9,4.5-4.9c1.3-1,0.8-1.8-0.2-2.8c-1-1-1.8-1.5-2.8-0.2
		c0,0-2.3,4.5-4.9,4.5c-2.6,0-4.9-4.5-4.9-4.5c-1-1.3-1.8-0.8-2.8,0.2c-1,1-1.5,1.8-0.2,2.8c0,0,1.6,0.9,2.9,2.1
		c0.8,0.8,1.5,1.8,1.5,2.8c0,1.3-1.1,2.6-2.3,3.5c-1.1,0.9-2.2,1.5-2.2,1.5c-1.3,1-0.8,1.8,0.2,2.8c1,1,1.8,1.5,2.8,0.2
		c0,0,2.3-4.5,4.9-4.5c2.6,0,4.9,4.5,4.9,4.5c1,1.3,1.8,0.8,2.8-0.2C178.8,100.8,179.3,100,178,99.1z M169.8,96.3
		c-1.3,0-2.3-1-2.3-2.3c0-1.3,1-2.3,2.3-2.3c1.3,0,2.3,1,2.3,2.3C172.1,95.3,171,96.3,169.8,96.3z"/>
	<path fill="#DB9D5D" d="M169.8,91.6c-1.3,0-2.3,1-2.3,2.3c0,1.3,1,2.3,2.3,2.3c1.3,0,2.3-1,2.3-2.3C172.1,92.7,171,91.6,169.8,91.6
		z M170.7,94.7c-0.1,0.1-0.1,0.2-0.2,0.3c-0.1,0.1-0.2,0.2-0.3,0.2c-0.1,0-0.3,0.1-0.4,0.1c-0.2,0-0.3,0-0.5-0.1
		c-0.1-0.1-0.3-0.2-0.4-0.3c-0.1-0.1-0.2-0.2-0.2-0.4c-0.1-0.2-0.1-0.3-0.1-0.5c0-0.2,0-0.3,0.1-0.5c0.1-0.2,0.1-0.3,0.2-0.4
		c0.1-0.1,0.2-0.2,0.4-0.3c0.1-0.1,0.3-0.1,0.5-0.1c0.1,0,0.3,0,0.4,0.1c0.1,0,0.2,0.1,0.3,0.2c0.1,0.1,0.2,0.2,0.2,0.3
		c0.1,0.1,0.1,0.2,0.1,0.3h-0.4c0-0.1,0-0.1-0.1-0.2l-0.3-0.3c-0.1,0-0.1,0-0.2,0c-0.1,0-0.2,0-0.3,0.1c-0.1,0.1-0.2,0.1-0.2,0.2
		c-0.1,0.1-0.1,0.2-0.1,0.3c0,0.1,0,0.2,0,0.3c0,0.1,0,0.2,0,0.3c0,0.1,0.1,0.2,0.1,0.3c0.1,0.1,0.1,0.2,0.2,0.2
		c0.1,0.1,0.2,0.1,0.3,0.1c0.1,0,0.2,0,0.2,0c0.1,0,0.1-0.1,0.2-0.1c0.1-0.1,0.1-0.1,0.1-0.2c0-0.1,0-0.2,0.1-0.2h0.4
		C170.8,94.4,170.8,94.5,170.7,94.7z"/>
	<path fill="#14586D" d="M170.4,94.5c0,0.1-0.1,0.1-0.1,0.2c-0.1,0.1-0.1,0.1-0.2,0.1c-0.1,0-0.2,0-0.2,0c-0.1,0-0.2,0-0.3-0.1
		c-0.1-0.1-0.2-0.1-0.2-0.2c-0.1-0.1-0.1-0.2-0.1-0.3c0-0.1,0-0.2,0-0.3c0-0.1,0-0.2,0-0.3c0-0.1,0.1-0.2,0.1-0.3
		c0.1-0.1,0.1-0.2,0.2-0.2c0.1-0.1,0.2-0.1,0.3-0.1c0.1,0,0.2,0,0.2,0l0.3,0.3c0,0.1,0.1,0.1,0.1,0.2h0.4c0-0.1,0-0.2-0.1-0.3
		c-0.1-0.1-0.1-0.2-0.2-0.3c-0.1-0.1-0.2-0.1-0.3-0.2c-0.1,0-0.2-0.1-0.4-0.1c-0.2,0-0.3,0-0.5,0.1c-0.1,0.1-0.3,0.2-0.4,0.3
		c-0.1,0.1-0.2,0.2-0.2,0.4c-0.1,0.2-0.1,0.3-0.1,0.5c0,0.2,0,0.3,0.1,0.5c0.1,0.2,0.1,0.3,0.2,0.4c0.1,0.1,0.2,0.2,0.4,0.3
		c0.1,0.1,0.3,0.1,0.5,0.1c0.1,0,0.3,0,0.4-0.1c0.1,0,0.2-0.1,0.3-0.2c0.1-0.1,0.2-0.2,0.2-0.3c0.1-0.1,0.1-0.2,0.1-0.4h-0.4
		C170.4,94.4,170.4,94.4,170.4,94.5z"/>
	<path fill="#A02722" d="M135.3,94c0-0.9,0.5-1.7,1.2-2.5c1.3-1.5,3.3-2.5,3.3-2.5c1.3-1,0.8-1.8-0.2-2.8c-1-1-1.8-1.5-2.8-0.2
		c0,0-2.3,4.5-4.9,4.5c-2.6,0-4.9-4.5-4.9-4.5c-1-1.3-1.8-0.8-2.8,0.2c-1,1-1.5,1.8-0.2,2.8c0,0,4.5,2.3,4.5,4.9
		c0,2.6-4.5,4.9-4.5,4.9c-1.3,1-0.8,1.8,0.2,2.8c1,1,1.8,1.5,2.8,0.2c0,0,2.3-4.5,4.9-4.5c2.6,0,4.9,4.5,4.9,4.5
		c1,1.3,1.8,0.8,2.8-0.2c1-1,1.5-1.8,0.2-2.8c0,0-1.1-0.6-2.3-1.5C136.4,96.5,135.3,95.3,135.3,94z M131.8,96.3
		c-1.3,0-2.3-1-2.3-2.3c0-1.3,1-2.3,2.3-2.3c1.3,0,2.3,1,2.3,2.3C134.1,95.3,133.1,96.3,131.8,96.3z"/>
	<path fill="#DB9D5D" d="M131.8,91.6c-1.3,0-2.3,1-2.3,2.3c0,1.3,1,2.3,2.3,2.3c1.3,0,2.3-1,2.3-2.3
		C134.1,92.7,133.1,91.6,131.8,91.6z M132.8,95.2h-0.4v-1.1h-1.1v1.1h-0.4v-2.4h0.4v1h1.1v-1h0.4V95.2z"/>
	<polygon fill="#14586D" points="132.3,93.7 131.2,93.7 131.2,92.8 130.8,92.8 130.8,95.2 131.2,95.2 131.2,94.1 132.3,94.1 
		132.3,95.2 132.8,95.2 132.8,92.8 132.3,92.8 	"/>
</g>
</svg>
