<?xml version="1.0" encoding="utf-8"?>
<!-- Generator: Adobe Illustrator 17.1.0, SVG Export Plug-In . SVG Version: 6.00 Build 0)  -->
<svg version="1.2" baseProfile="tiny" id="Layer_1" xmlns="http://www.w3.org/2000/svg" xmlns:xlink="http://www.w3.org/1999/xlink"
	 x="0px" y="0px" viewBox="0 0 300 300" xml:space="preserve">
	 <g>
		 <path fill="#ED6A56" d="M203.7,117.9c-21.3-26.6-43.4-53.7-53.3-98.3c-0.6-2.6-3.4-3.9-6.6-3.9h0c-3.2,0-6,1.3-6.6,3.9
		c-10.4,44.7-33.3,72.8-53.5,98C61.7,145,41,170.8,41,210.6c0,48.4,48,90.8,102.7,90.8c58.8,0,102.7-47.8,102.7-90.7
		C246.5,171.1,225.7,145.3,203.7,117.9z"/>
		<path fill="#FFFFFF" d="M112.2,184.3l-6.2-4.8c9.4-10.3,18-17.7,25.7-22.1c7.7-4.4,14.3-6.6,19.8-6.6c3,0,5.3,0.7,6.9,2
			c1.6,1.3,2.4,3.1,2.4,5.4c0,2.7-3,14.3-9.1,34.7c-9.9,33.4-14.9,53.5-14.9,60.4c0,1.3,0.3,2.4,1,3.3c0.7,0.9,1.4,1.3,2.1,1.3
			c3,0,10.7-5.8,23.1-17.5l5.5,5.4c-12.9,12.1-22.3,19.9-28.2,23.3s-10.8,5.1-14.5,5.1c-3.3,0-5.9-1-7.8-3.1
			c-1.9-2.1-2.9-4.9-2.9-8.6c0-11.8,7.1-40.5,21.2-86.2c0.7-2.2,1-4.1,1-5.8c0-1.9-0.8-2.8-2.5-2.8c-1.9,0-4,0.8-6.4,2.3
			S120.5,176.2,112.2,184.3z M161.6,101c2.9,0,5.3,1,7.2,2.9c1.9,1.9,2.8,4.4,2.8,7.4c0,4.1-1.4,7.8-4.3,10.9
			c-2.9,3.2-6.1,4.7-9.7,4.7c-2.8,0-5.2-1-7.1-3c-1.9-2-2.8-4.6-2.8-7.8c0-4.2,1.4-7.8,4.1-10.8C154.6,102.5,157.8,101,161.6,101z"/>
</g>
</svg>
