<?xml version="1.0" encoding="utf-8"?>
<!-- Generator: Adobe Illustrator 17.1.0, SVG Export Plug-In . SVG Version: 6.00 Build 0)  -->
<svg version="1.2" baseProfile="tiny" id="Layer_2" xmlns="http://www.w3.org/2000/svg" xmlns:xlink="http://www.w3.org/1999/xlink"
	 x="0px" y="0px" viewBox="15.1 756.1 771 517.5" xml:space="preserve">
<ellipse fill="#FFFFFF" cx="400" cy="1107.4" rx="179.7" ry="96"/>
<path fill="#9A9B9D" d="M773.9,1244.7c0,10.9-8.8,20-20,20H48c-10.9,0-20-8.8-20-20l40-354.7c0-10.9,8.8-25.6,20-25.6h626.1
	c10.9,0,20,14.4,20,25.6L773.9,1244.7z"/>
<path fill="#FFFFFF" d="M770.9,1239.7c0,11.2-9.1,20.3-20.3,20.3H53.1c-11.2,0-20.3-9.1-20.3-20.3l40.5-358.9
	c0-11.2,9.1-20.3,20.3-20.3h617.1c11.2,0,20.3,9.1,20.3,20.3L770.9,1239.7z"/>
<path fill="#FFFFFF" d="M745.6,1241.8c0,10.4-8.5-3.7-47.2-3.7H49.1c17.9,0,9.3,14.1,9.3,3.7l40.3-340.5c0-10.4,8.5-18.9,18.9-18.9
	h568.5c10.4,0,18.9,8.5,18.9,18.9L745.6,1241.8z"/>
<polygon fill="#EBECED" points="685.6,1238.1 129.3,1238.1 151.1,953 657.2,953.5 "/>
<polygon fill="#FFFFFF" points="685.6,1232.7 129.3,1232.7 153.6,957.1 654.1,957.1 "/>
<path fill="#6CDEE6" d="M537,1076.8c0-20.5,52.8-27.8,42.4,4.4c52-20.8,40.8-106.1-1.6-123.7H259.6c-45.9,20-73.9,114.7-75.7,164.3
	c-2.4,58.7,114.1,121.6,270.4,102.7c156.3-18.7,180-80.8,189.6-98.1C662,1093.2,537,1097.3,537,1076.8z"/>
<path fill="#0EBBD6" d="M209.9,1077.2c0-32,3.8-76.7,47.3-119.1c-60.6,34.3-84.6,99.1-84.6,149.5c0,62.9,63.1,139.7,211.4,119.7
	c102.1-13.9,150.1-63.1,176.8-130.8C350.1,1203.1,209.9,1139.9,209.9,1077.2z"/>
<path fill="#FFFFFF" d="M300.5,1014.9c-6.4,0-11.7-5.3-11.7-11.7s5.3-11.7,11.7-11.7c6.4,0,11.7,5.3,11.7,11.7
	S306.9,1014.9,300.5,1014.9z M300.5,996.2c-4,0-6.9,3.2-6.9,6.9c0,4,3.2,6.9,6.9,6.9c4,0,6.9-3.2,6.9-6.9S304.5,996.2,300.5,996.2z"
	/>
<path fill="#FFFFFF" d="M497.1,1155.9c-9.1,0-16.3-6.9-16.3-15.5c0-6.4,3.2-14.7,12-16l0.3,2.4c-7.5,1.3-10.1,8-10.1,13.6
	c0,7.2,6.1,13.1,13.9,13.1c4.3,0,8.3-1.9,10.7-4.8c1.9-2.1,3.7-5.6,2.9-10.9l2.4-0.3c0.8,6.1-1.3,10.4-3.5,12.8
	C506.7,1153.8,501.9,1155.9,497.1,1155.9z"/>
<path fill="#FFFFFF" d="M507.2,1131.1c-6.1,0-11.2-5.1-11.2-11.5s5.1-11.5,11.5-11.5c6.4,0,11.5,5.1,11.5,11.5
	c0.3,2.7-0.5,5.3-2.4,7.5C514.1,1129.8,510.9,1131.1,507.2,1131.1C507.5,1131.1,507.2,1131.1,507.2,1131.1z M507.5,1110.6
	c-5.1,0-9.1,4-9.1,9.1s4,9.1,8.8,9.1h0.3c2.9,0,5.6-1.3,7.2-3.2c1.3-1.6,2.1-3.7,1.9-5.9C516.5,1114.9,512.3,1110.6,507.5,1110.6z"
	/>
<path fill="#FFFFFF" d="M255.5,1143.7c-8,0-14.4-6.4-14.4-14.4s6.4-14.4,14.4-14.4c8,0,14.4,6.4,14.4,14.4
	C270.1,1137,263.7,1143.7,255.5,1143.7z M255.5,1117c-6.7,0-12,5.3-12,12c0,6.7,5.3,12,12,12s12-5.3,12-12
	C267.7,1122.6,262.1,1117,255.5,1117z"/>
<path fill="#0EBBD6" d="M344.3,1121.3l-5.1,10.9C340,1130.3,342.4,1125.5,344.3,1121.3z"/>
<path fill="#E2E3E4" d="M153.6,957.3l-36-74.9c-10.4,0-18.9,8.5-18.9,18.9l-40.3,317.9c0,10.4,8.5,18.9,18.9,18.9h52L153.6,957.3z"
	/>
<path fill="#E2E3E4" d="M686.1,882.3l-30.7,74.9l29.9,280.5h41.1c10.4,0,18.9-8.5,18.9-18.9L705.1,901
	C705.1,890.9,696.5,882.3,686.1,882.3z"/>
<path fill="#F3F3F3" d="M730.7,882.3v-1.6c0-11.2-9.1-20.3-20.3-20.3H93.3c-11.2,0-20.3,9.1-20.3,20.3v1.6H730.7z"/>
<path fill="#ACADB0" d="M418.7,1095.7c0,15.7-12.5,28.5-28,28.5s-28-12.8-28-28.5s12.5-28.5,28-28.5S418.7,1079.9,418.7,1095.7z"/>
<path fill="#587583" d="M410.4,1094.3c0,9.1-8.8,16.5-19.5,16.5s-19.5-7.5-19.5-16.5c0-9.1,8.8-16.5,19.5-16.5
	C401.9,1077.8,410.4,1085.3,410.4,1094.3z"/>
<path fill="#9A9B9D" d="M518.7,875.9c0,0-29.3-40.5-34.4-53.1c5.6-5.6,7.2-14.1,3.2-21.3c-2.1-4.3-5.9-7.2-10.1-8.5l-0.8,0.5l0,0
	c-0.3-0.3-0.5-0.5-1.1-0.5c-0.3,0-0.8,0-1.1,0c-6.7-1.9-14.9-1.3-20.3,2.9c0,0,0,0-0.3,0.3c-19.5-6.4-47.2-6.4-56.5-6.4
	c-10.1,0-42.7,0.5-63.7,7.7c-0.3-0.3-0.8-0.3-1.6,0c-4.5-1.6-8-4.8-12.5-6.9s-8.5-0.8-12.5,0.8c-3.2,0.5-8.5,0.3-10.9,2.9
	c-2.9,3.2-5.1,12.5-2.7,17.1c-0.3,2.1,0,4.3,1.3,6.7c-6.9,11.5-46.4,49.1-46.4,49.1c-4.5,4-2.4,6.9,1.6,10.4c4,3.7,7.5,5.3,10.7,0
	c0,0,34.7-43.7,45.1-51.7c5.9,1.6,12.3,0,16.8-4.3c0,0.3,48,13.9,62.4,16l-3.5,140.8c-2.7,1.9-4.3,4.3-4.3,7.2v13.1
	c0,8.3,7.5,15.2,16.8,15.2h3.5c9.3,0,16.8-6.7,16.8-15.2v-13.1c0-2.7-1.6-5.1-4-6.9V837.3c12.3-1.9,29.1-5.6,42.4-10.1l0,0
	c0.5,0,1.1-0.3,1.6-0.5h0.3l0,0c1.1-0.5,1.9-1.3,2.4-2.1c0.3-0.3,0.8-0.5,1.3-0.8c0.3,0,0.5-0.3,0.5-0.3c3.7,3.7,8.8,5.6,13.9,5.3
	c8,10.9,31.7,55.7,31.7,55.7c2.1,5.9,5.6,4.8,10.4,2.1C519.7,883.1,522.4,880.7,518.7,875.9z"/>
<path fill="#D3D8E2" d="M326.1,804.7c0,10.1-8,18.1-18.1,18.1l0,0c-10.1,0-18.1-8-18.1-18.1l0,0c0-10.1,8-13.3,18.1-13.3l0,0
	C317.9,791.4,326.1,794.6,326.1,804.7L326.1,804.7z"/>
<path fill="#D3D8E2" d="M484,804.7c0,10.1-8,18.1-18.1,18.1l0,0c-10.1,0-18.1-8-18.1-18.1l0,0c0-10.1,8-13.3,18.1-13.3l0,0
	C475.7,791.4,484,794.6,484,804.7L484,804.7z"/>
<path fill="#FFFFFF" d="M390.7,1000.2C390.4,1000.2,390.4,1000.2,390.7,1000.2c-1.9,0-3.5-1.6-3.5-3.5v-3.5c0-1.9,1.6-3.5,3.5-3.5
	l0,0c1.9,0,3.5,1.6,3.5,3.5v3.5C394.1,998.6,392.5,1000.2,390.7,1000.2z"/>
<path fill="#FFFFFF" d="M389.9,1106.9L389.9,1106.9c-1.9,0-3.5-1.6-3.5-3.5v-7.2c0-1.9,1.6-3.5,3.5-3.5l0,0c1.9,0,3.5,1.6,3.5,3.5
	v7.2C393.3,1105.5,391.7,1106.9,389.9,1106.9z M389.9,1089.3L389.9,1089.3c-1.9,0-3.5-1.6-3.5-3.5v-7.2c0-1.9,1.6-3.5,3.5-3.5l0,0
	c1.9,0,3.5,1.6,3.5,3.5v7.2C393.3,1087.7,392,1089.3,389.9,1089.3z M390.1,1071.4L390.1,1071.4c-1.9,0-3.5-1.6-3.5-3.5v-7.2
	c0-1.9,1.6-3.5,3.5-3.5l0,0c1.9,0,3.5,1.6,3.5,3.5v7.2C393.6,1069.8,392,1071.4,390.1,1071.4z M390.1,1053.5L390.1,1053.5
	c-1.9,0-3.5-1.6-3.5-3.5v-7.2c0-1.9,1.6-3.5,3.5-3.5l0,0c1.9,0,3.5,1.6,3.5,3.5v7.2C393.6,1051.9,392,1053.5,390.1,1053.5z
	 M390.4,1035.7C390.4,1035.7,390.1,1035.7,390.4,1035.7c-1.9,0-3.5-1.6-3.5-3.5v-7.2c0-1.9,1.6-3.5,3.5-3.5l0,0
	c1.9,0,3.5,1.6,3.5,3.5v7.2C393.9,1034.3,392.3,1035.7,390.4,1035.7z M390.4,1018.1L390.4,1018.1c-1.9,0-3.5-1.6-3.5-3.5v-7.2
	c0-1.9,1.6-3.5,3.5-3.5l0,0c1.9,0,3.5,1.6,3.5,3.5v7.2C393.9,1016.5,392.3,1018.1,390.4,1018.1z"/>
<path fill="#FFFFFF" d="M372,994.6c-0.3,0-0.3,0-0.5,0c-1.9-0.3-3.2-2.1-2.7-4l0.5-3.5c0.3-1.9,2.1-3.2,4-2.7c1.9,0.3,3.2,2.1,2.7,4
	l-0.5,3.5C374.9,993.5,373.6,994.6,372,994.6z"/>
<path fill="#FFFFFF" d="M346.1,1134.6c-0.3,0-0.3,0-0.5,0c-1.9-0.3-3.2-2.1-2.7-4l1.3-6.9c0.3-1.9,2.1-3.2,4-2.7
	c1.9,0.5,3.2,2.1,2.7,4l-1.3,6.9C349.3,1133.5,347.7,1134.6,346.1,1134.6z M349.3,1117.3c-0.3,0-0.3,0-0.5,0c-1.9-0.3-3.2-2.1-2.7-4
	l1.3-6.9c0.3-1.9,2.1-3.2,4-2.7c1.9,0.5,3.2,2.1,2.7,4l-1.3,6.9C352.5,1115.9,350.9,1117.3,349.3,1117.3z M352.5,1099.7
	c-0.3,0-0.3,0-0.5,0c-1.9-0.3-3.2-2.1-2.7-4l1.3-6.9c0.3-1.9,2.1-3.2,4-2.7c1.9,0.5,3.2,2.1,2.7,4l-1.3,6.9
	C355.7,1098.6,354.1,1099.7,352.5,1099.7z M355.7,1082.1c-0.3,0-0.3,0-0.5,0c-1.9-0.3-3.2-2.1-2.7-4l1.3-6.9c0.3-1.9,2.1-3.2,4-2.7
	c1.9,0.5,3.2,2.1,2.7,4l-1.3,6.9C358.9,1081,357.3,1082.1,355.7,1082.1z M358.9,1064.7c-0.3,0-0.3,0-0.5,0c-1.9-0.3-3.2-2.1-2.7-4
	l1.3-6.9c0.3-1.9,2.1-3.2,4-2.7c1.9,0.5,3.2,2.1,2.7,4l-1.3,6.9C362.1,1063.7,360.5,1064.7,358.9,1064.7z M362.1,1047.1
	c-0.3,0-0.3,0-0.5,0c-1.9-0.3-3.2-2.1-2.7-4l1.3-6.9c0.3-1.9,2.1-3.2,4-2.7c1.9,0.5,3.2,2.1,2.7,4l-1.3,6.9
	C365.3,1046.1,364,1047.1,362.1,1047.1z M365.3,1029.5c-0.3,0-0.3,0-0.5,0c-1.9-0.3-3.2-2.1-2.7-4l1.3-6.9c0.3-1.9,2.1-3.2,4-2.7
	c1.9,0.5,3.2,2.1,2.7,4l-1.3,6.9C368.5,1028.5,366.9,1029.5,365.3,1029.5z M368.5,1012.2c-0.3,0-0.3,0-0.5,0c-1.9-0.3-3.2-2.1-2.7-4
	l1.3-6.9c0.3-1.9,2.1-3.2,4-2.7c1.9,0.5,3.2,2.1,2.7,4l-1.3,6.9C371.7,1011.1,370.1,1012.2,368.5,1012.2z"/>
<path fill="#FFFFFF" d="M408.5,994.6c-1.6,0-3.2-1.1-3.5-2.9l-0.5-3.5c-0.3-1.9,0.8-3.7,2.7-4c1.9-0.3,3.7,0.8,4,2.7l0.5,3.5
	c0.3,1.9-0.8,3.7-2.7,4C409.1,994.6,408.8,994.6,408.5,994.6z"/>
<path fill="#FFFFFF" d="M434.4,1134.6c-1.6,0-3.2-1.1-3.5-2.9l-1.3-6.9c-0.3-1.9,0.8-3.7,2.7-4c1.9-0.3,3.7,0.8,4,2.7l1.3,6.9
	c0.3,1.9-0.8,3.7-2.7,4C434.7,1134.6,434.4,1134.6,434.4,1134.6z M431.2,1117.3c-1.6,0-3.2-1.1-3.5-2.9l-1.3-6.9
	c-0.3-1.9,0.8-3.7,2.7-4c1.9-0.3,3.7,0.8,4,2.7l1.3,6.9c0.3,1.9-0.8,3.7-2.7,4C431.7,1117.3,431.5,1117.3,431.2,1117.3z M428,1099.7
	c-1.6,0-3.2-1.1-3.5-2.9l-1.3-6.9c-0.3-1.9,0.8-3.7,2.7-4s3.7,0.8,4,2.7l1.3,6.9c0.3,1.9-0.8,3.7-2.7,4
	C428.3,1099.7,428,1099.7,428,1099.7z M424.8,1082.1c-1.6,0-3.2-1.1-3.5-2.9l-1.3-6.9c-0.3-1.9,0.8-3.7,2.7-4c1.9-0.3,3.7,0.8,4,2.7
	l1.3,6.9c0.3,1.9-0.8,3.7-2.7,4C425.1,1082.1,424.8,1082.1,424.8,1082.1z M421.6,1064.7c-1.6,0-3.2-1.1-3.5-2.9l-1.3-6.9
	c-0.3-1.9,0.8-3.7,2.7-4c1.9-0.3,3.7,0.8,4,2.7l1.3,6.9c0.3,1.9-0.8,3.7-2.7,4C421.9,1064.7,421.9,1064.7,421.6,1064.7z
	 M418.1,1047.1c-1.6,0-3.2-1.1-3.5-2.9l-1.3-6.9c-0.3-1.9,0.8-3.7,2.7-4c1.9-0.3,3.7,0.8,4,2.7l1.3,6.9c0.3,1.9-0.8,3.7-2.7,4
	C418.7,1047.1,418.4,1047.1,418.1,1047.1z M415.2,1029.5c-1.6,0-3.2-1.1-3.5-2.9l-1.3-6.9c-0.3-1.9,0.8-3.7,2.7-4
	c1.9-0.3,3.7,0.8,4,2.7l1.3,6.9c0.3,1.9-0.8,3.7-2.7,4C415.5,1029.5,415.2,1029.5,415.2,1029.5z M412,1012.2c-1.6,0-3.2-1.1-3.5-2.9
	l-1.3-6.9c-0.3-1.9,0.8-3.7,2.7-4s3.7,0.8,4,2.7l1.3,6.9c0.3,1.9-0.8,3.7-2.7,4C412.3,1012.2,412,1012.2,412,1012.2z"/>
<path fill="#D3D8E2" d="M390.7,948.5h-2.9c-8,0-14.4,4.5-14.4,10.1v12.5c0,8,6.4,14.4,14.4,14.4h2.9c8,0,14.4-6.4,14.4-14.4v-12.5
	C405.1,953.3,398.7,948.5,390.7,948.5z"/>
<path fill="none" stroke="#FFFEF9" stroke-width="2" stroke-linecap="round" stroke-miterlimit="10" d="M488.5,802.6"/>
<path fill="none" stroke="#FFFEF9" stroke-width="2" stroke-linecap="round" stroke-miterlimit="10" d="M295.2,802.6"/>
<path fill="#D3D8E2" d="M468.5,805.3c0,15.2-62.1,27.5-77.3,27.5c-15.2,0-82.1-12.3-82.1-27.5s67.2-16,82.1-16
	S468.5,790.1,468.5,805.3z"/>
<path fill="#A99C8F" d="M394.1,785.3h-2.9c-8,0-14.4,5.3-14.4,11.7v14.4c0,9.1,6.4,16.5,14.4,16.5h2.9c8,0,15.7-5.1,15.7-14.4V797
	C409.9,790.6,402.1,785.3,394.1,785.3z"/>
<path fill="#FFFEF9" d="M392.5,783.7h-2.9c-8,0-14.4,5.3-14.4,11.7v14.4c0,9.1,6.4,16.5,14.4,16.5h2.9c8,0,14.4-7.5,14.4-16.5v-14.4
	C407.2,789,400.5,783.7,392.5,783.7z"/>
<path fill="#B9C2C2" d="M402.9,967.1c0,2.9-4,5.6-8.8,5.6H384c-4.8,0-8.8-2.4-8.8-5.6l5.3-187.5c0-2.9,4-5.6,8.8-5.6h3.7
	c4.8,0,8.8,2.4,8.8,5.6L402.9,967.1z"/>
<path fill="#D3D8E2" d="M401.6,964.5c0,3.2-3.5,5.6-8,5.6h-9.3c-4.3,0-8-2.4-8-5.6l4-194.1c0-3.2,3.5-5.6,8-5.6h5.3
	c4.3,0,8,2.4,8,5.6V964.5z"/>
<path fill="#9F2521" d="M469.3,794.9c-9.6-2.4-13.6,0-16,9.6s0,13.6,9.6,16c9.6,2.4,37.9,61.3,37.9,61.3c2.4,5.6,5.9,4.5,10.4,1.9
	c4.8-2.9,7.2-5.3,3.5-10.1c0,0-38.1-53.1-35.7-62.7C481.3,801.3,478.9,797.3,469.3,794.9z"/>
<path fill="#DB9C5C" d="M470.4,815.4c-4.3,2.4-9.6,0.8-12-3.5c-2.4-4.3-0.8-9.6,3.5-12c4.3-2.4,9.6-0.8,12,3.5
	C476.3,807.7,474.7,813,470.4,815.4z"/>
<path fill="#10576C" d="M468.8,809c0.3,0,0.3-0.3,0.5-0.5s0.3-0.3,0.3-0.5c0-0.3,0-0.5,0-0.8s0-0.5-0.3-0.8
	c-0.3-0.3-0.5-0.8-0.8-1.1c-0.3-0.3-0.8-0.3-1.1-0.3s-0.8,0-1.3,0c-0.3,0-0.8,0.3-1.3,0.5c-0.3,0.3-0.8,0.5-1.1,0.8
	c-0.3,0.3-0.5,0.5-0.8,1.1c-0.3,0.5-0.3,0.8-0.3,1.1s0,0.8,0.3,1.3c0,0.3,0.3,0.5,0.5,0.8c0.3,0,0.5,0.3,0.8,0.3s0.5,0,0.8,0
	c0.3,0,0.5,0,0.8-0.3l0.8,1.3c-0.5,0.3-1.1,0.3-1.6,0.3c-0.5,0-1.1,0-1.3,0c-0.5,0-0.8-0.3-1.3-0.5c-0.3-0.3-0.8-0.8-1.1-1.3
	c-0.3-0.5-0.5-1.3-0.5-1.9c0-0.5,0-1.1,0.3-1.6s0.5-1.1,0.8-1.6c0.3-0.5,0.8-0.8,1.6-1.1c0.5-0.3,1.1-0.5,1.9-0.5c0.8,0,1.1,0,1.9,0
	c0.5,0,1.1,0.3,1.6,0.8c0.5,0.3,0.8,0.8,1.3,1.3c0.3,0.5,0.3,0.8,0.5,1.3c0,0.5,0,0.8,0,1.3c0,0.3-0.3,0.8-0.5,1.3
	c-0.3,0.3-0.5,0.5-1.1,1.1L468.8,809L468.8,809z"/>
<path fill="#9F2521" d="M321.1,806.3c-0.8-9.9-4.3-12.8-14.1-12.3c-9.9,0.5-12.8,4.3-12.3,14.1c0.8,9.9-46.4,55.2-46.4,55.2
	c-4.5,4-2.7,6.9,1.6,10.4c4.3,3.5,7.5,5.3,10.7,0.3c0,0,38.4-52.8,48.3-53.6C318.7,819.7,321.9,816.2,321.1,806.3z"/>
<circle fill="#DB9C5C" cx="308" cy="807.1" r="8.8"/>
<path fill="#10576C" d="M301.9,806.9l1.1-1.3l2.7,2.4l2.7-3.2l-2.7-2.4l1.1-1.3l6.9,5.9l-1.1,1.3l-3.2-2.7l-2.7,3.2l3.2,2.7
	l-1.1,1.3L301.9,806.9z"/>
<path fill="#FFFFFF" d="M444.8,1128.5l-5.9-2.1c0.8-2.1,1.6-4,2.4-5.9l5.6,2.7C446.1,1124.7,445.3,1126.6,444.8,1128.5z
	 M449.9,1117.5l-5.3-3.2c1.1-1.9,2.1-3.7,3.5-5.6l5.1,3.5C451.7,1114.1,450.7,1115.9,449.9,1117.5z M456.5,1107.7l-4.8-4
	c1.3-1.6,2.9-3.2,4.3-4.8l4.5,4.3C459.2,1104.7,457.9,1106.3,456.5,1107.7z M464.8,1099.1l-4-4.8c1.6-1.3,3.2-2.7,5.1-4l3.7,5.1
	C468,1096.5,466.4,1097.8,464.8,1099.1z M474.4,1091.9l-3.5-5.3c1.9-1.1,3.7-2.1,5.6-3.2l2.9,5.6
	C477.9,1089.8,476,1090.9,474.4,1091.9z M485.1,1086.3l-2.4-5.9c2.1-0.8,4-1.6,5.9-2.4l2.1,5.9
	C488.8,1085,486.9,1085.5,485.1,1086.3z M496.3,1082.6l-1.6-5.9c2.1-0.5,4.3-1.1,6.4-1.3l1.1,6.1
	C500.3,1081.8,498.4,1082.1,496.3,1082.6z M508.3,1080.5l-0.5-6.1c2.1-0.3,4.3-0.3,6.4-0.3v6.1
	C512.3,1080.2,510.1,1080.2,508.3,1080.5z"/>
<path fill="#FFFFFF" d="M341.6,1150.3h-6.1c0-1.9,0-4-0.5-5.9l6.1-1.1C341.6,1145.8,341.6,1148.2,341.6,1150.3z M333.6,1139.1
	c-0.5-1.9-1.3-3.5-2.4-5.3l5.6-2.9c1.1,1.9,2.1,4,2.7,6.1L333.6,1139.1z M328,1129c-1.1-1.6-2.4-2.9-3.7-4.5l4.5-4.3
	c1.6,1.6,2.9,3.5,4.3,5.1L328,1129z M320,1120.7c-1.6-1.3-3.2-2.4-4.8-3.5l3.5-5.3c1.9,1.3,3.7,2.4,5.3,4L320,1120.7z M310.1,1114.3
	c-1.9-0.8-3.7-1.9-5.3-2.4l2.1-5.9c2.1,0.8,4,1.9,6.1,2.7L310.1,1114.3z M298.9,1109.8c-1.9-0.5-4-1.1-5.9-1.3l1.1-6.1
	c2.1,0.3,4.3,0.8,6.4,1.6L298.9,1109.8z M287.2,1107.7c-2.1-0.3-4-0.3-5.9-0.3v-6.1c2.1,0,4.3,0,6.4,0.3L287.2,1107.7z"/>
<path fill="#9A9B9D" d="M651.3,780.9c21.3,0,38.7,3.7,38.7,25.1s-7.5,52.3-38.7,52.3c-26.9,0-38.7-30.9-38.7-52.3
	C612.9,784.6,630.3,780.9,651.3,780.9z"/>
<path fill="#A4B798" d="M650,775.9c21.3,0,38.7,3.7,38.7,25.1s-7.5,52.3-38.7,52.3c-26.9,0-38.7-30.9-38.7-52.3
	S628.6,775.9,650,775.9z"/>
<path fill="#C5DDB6" d="M650.2,766.4c21.3,0,38.7,15.2,38.7,34c0,18.7-17.3,34-38.7,34s-38.7-15.2-38.7-34
	C611.8,781.4,629.2,766.4,650.2,766.4z"/>
<path fill="#2A421D" d="M650,780.5c9.1,0,16.5,7.5,16.5,16.5c0,9.1-7.5,16.5-16.5,16.5s-16.5-7.5-16.5-16.5
	C633.5,788,641,780.5,650,780.5z"/>
<path fill="#2A421D" d="M648.1,791.4c3.7,0,6.9,2.9,9.1,4.1v48.3c-2.2,6.6-5.1,9.8-9.1,9.8l0,0c-3.7,0-6.9-7.9-6.9-11.9v-43.3
	C641.2,794.6,644.1,791.4,648.1,791.4L648.1,791.4z"/>
</svg>
