<?xml version="1.0" encoding="utf-8"?>
<!-- Generator: Adobe Illustrator 17.1.0, SVG Export Plug-In . SVG Version: 6.00 Build 0)  -->
<svg version="1.2" baseProfile="tiny" id="Layer_1" xmlns="http://www.w3.org/2000/svg" xmlns:xlink="http://www.w3.org/1999/xlink"
	 x="0px" y="0px" viewBox="33 184 244.3 116" xml:space="preserve">
<g>
	<path fill="#CCCCCC" d="M108.3,257.5c1.1,1.4-1.6,4.7-13.2,4.7c-7.7,0-15.7-2.8-15.7-4.5c0-1.7,6.1-2.9,13.8-2.9
		S107,255.8,108.3,257.5z"/>
	<ellipse fill="#A0A0A0" cx="93.3" cy="258" rx="13.4" ry="3"/>
	<path fill="#354272" d="M106.7,219.6H80v36.6c0,0,0,0.5,0,0.7c0,1.7,6,3,13.4,3c7.4,0,13.4-1.3,13.4-3c0-0.2,0-0.7,0-0.7V219.6z"/>
	<path fill="#87C663" d="M85.4,226.4c0.5,0,1-0.2,1.6-0.2c1,0,1.9,0.2,2.3,0.7c0.5,0.5,0.9,1.2,0.9,2.1s-0.3,1.7-0.9,2.3
		s-1.4,0.9-2.6,0.9c-0.5,0-1,0-1.4,0v-5.8H85.4z M86.3,231.5c0.2,0,0.5,0,0.7,0c1.6,0,2.4-0.9,2.4-2.4c0-1.4-0.7-2.3-2.3-2.3
		c-0.3,0-0.7,0-0.9,0V231.5z"/>
	<path fill="#87C663" d="M96.1,229.2c0,1.9-1.2,3-2.6,3c-1.6,0-2.6-1.2-2.6-3c0-1.9,1.2-3,2.6-3C95,226.3,96.1,227.5,96.1,229.2z
		 M91.7,229.2c0,1.2,0.7,2.3,1.9,2.3c1.2,0,1.9-1,1.9-2.4c0-1.2-0.5-2.3-1.9-2.3C92.2,227,91.7,228,91.7,229.2z"/>
	<path fill="#87C663" d="M101.5,231.8c-0.3,0.2-1,0.3-1.7,0.3c-0.9,0-1.6-0.2-2.1-0.7c-0.5-0.5-0.9-1.2-0.9-2.1c0-1.7,1.2-3,3.1-3
		c0.7,0,1.2,0.2,1.4,0.3l-0.2,0.5c-0.3-0.2-0.7-0.2-1.2-0.2c-1.4,0-2.3,0.9-2.3,2.3s0.9,2.3,2.3,2.3c0.5,0,0.9,0,1-0.2v-1.7h-1.2
		v-0.5h1.9v2.6H101.5z"/>
	<path fill="#C1C1C1" d="M106.7,219.8H79.8c0,0,0,0.7,0,1c0,1.7,6.1,3,13.6,3c7.5,0,13.6-1.4,13.6-3c0-0.2,0-0.7,0-0.7L106.7,219.8z
		"/>
	<ellipse fill="#767676" cx="93.3" cy="219.7" rx="13.6" ry="3"/>
	<ellipse fill="#939393" cx="93.3" cy="220.1" rx="13.1" ry="2.5"/>
	<ellipse fill="#A7A7A7" cx="93.3" cy="220.6" rx="11.8" ry="2.2"/>
	<g>
		<circle fill="#87C663" cx="93.5" cy="245" r="10.8"/>
		<path fill="#FFFFFF" d="M104.1,247.2c-0.3-0.1-0.5-0.1-0.7-0.2c-0.6-0.2-1.4,0.2-1.6-0.4c-0.4,0-1,0.2-1-0.2c-0.2,0-0.6,0-0.8,0
			c0-0.2,0-0.4-0.2-0.6c-0.2-0.2-0.4,0-0.6-0.2l-0.4-0.6c-0.4-0.6-0.4-1.4-0.6-2.2c-0.2-0.4-0.2-0.8-0.6-1.2
			c-0.2-0.2-0.4-0.4-0.6-0.8c-0.2-0.2-0.4-0.6-0.4-0.8c-0.2-0.4,0-0.6-0.2-0.8c-0.4-0.6-2.8-1.2-4-1.2c-0.4,0-1,0-1.4,0.2
			c-0.2,0-0.4,0.4-0.6,0.6c-0.4,0.2-2,0-2.6,0c-0.6,0-1.6-0.2-1.8,0.2c0,0.2,0,0.2-0.2,0.4c0,0.2,0,0.4,0,0.4
			c-0.6,1.4,0.8,1.8,2,2.4c0.4,0.2,0.6,0.4,1,0.4c0.6,0.2,1.4,0,1.8,0.4c0.8,0.4,1,1.6,1.4,2.6c0.2,1,0,2,0.4,2.8
			c0.2,1,0.8,1.6,0.8,2.6c0,0.2,0,0.4,0,0.4c0,0.2,0,0.4-0.2,0.6c-0.2,0.6-0.4,0.6-0.2,1.4c0.2,0.6,0.4,1,0.6,1.6
			c0.2,0.2,0.4,0.4,0.6,0.6c0.1,0.1,0.1,0.2,0.2,0.3C99.1,255.5,103.2,251.9,104.1,247.2z"/>
	</g>
</g>
<g>
	<path fill="#CCCCCC" d="M89.3,267.8c1.1,1.4-1.6,4.7-13.2,4.7c-7.7,0-15.7-2.8-15.7-4.5s6.1-2.9,13.8-2.9S88,266.2,89.3,267.8z"/>
	<ellipse fill="#A0A0A0" cx="74.1" cy="267.8" rx="13.4" ry="3"/>
	<path fill="#3E4B8A" d="M87.4,229.3H60.7v36.6c0,0,0,0.5,0,0.7c0,1.7,6,3,13.4,3c7.4,0,13.4-1.3,13.4-3c0-0.2,0-0.7,0-0.7V229.3z"
		/>
	<path fill="#87C663" d="M66.2,236.2c0.5,0,1-0.2,1.6-0.2c1,0,1.9,0.2,2.3,0.7c0.5,0.5,0.9,1.2,0.9,2.1s-0.3,1.7-0.9,2.3
		s-1.4,0.9-2.6,0.9c-0.5,0-1,0-1.4,0v-5.8H66.2z M67,241.2c0.2,0,0.5,0,0.7,0c1.6,0,2.4-0.9,2.4-2.4c0-1.4-0.7-2.3-2.3-2.3
		c-0.3,0-0.7,0-0.9,0V241.2z"/>
	<path fill="#87C663" d="M76.8,239c0,1.9-1.2,3-2.6,3c-1.6,0-2.6-1.2-2.6-3c0-1.9,1.2-3,2.6-3C75.8,236,76.8,237.2,76.8,239z
		 M72.5,239c0,1.2,0.7,2.3,1.9,2.3c1.2,0,1.9-1,1.9-2.4c0-1.2-0.5-2.3-1.9-2.3C73,236.7,72.5,237.8,72.5,239z"/>
	<path fill="#87C663" d="M82.2,241.6c-0.3,0.2-1,0.3-1.7,0.3c-0.9,0-1.6-0.2-2.1-0.7c-0.5-0.5-0.9-1.2-0.9-2.1c0-1.7,1.2-3,3.1-3
		c0.7,0,1.2,0.2,1.4,0.3l-0.2,0.5c-0.3-0.2-0.7-0.2-1.2-0.2c-1.4,0-2.3,0.9-2.3,2.3s0.9,2.3,2.3,2.3c0.5,0,0.9,0,1-0.2v-1.7h-1.2
		V239h1.9v2.6H82.2z"/>
	<path fill="#C1C1C1" d="M87.4,229.5H60.5c0,0,0,0.7,0,1c0,1.7,6.1,3,13.6,3c7.5,0,13.6-1.4,13.6-3c0-0.2,0-0.7,0-0.7L87.4,229.5z"
		/>
	<ellipse fill="#767676" cx="74.1" cy="229.4" rx="13.6" ry="3"/>
	<ellipse fill="#939393" cx="74.1" cy="229.9" rx="13.1" ry="2.5"/>
	<ellipse fill="#A7A7A7" cx="74.1" cy="230.3" rx="11.8" ry="2.2"/>
	<g>
		<circle fill="#87C663" cx="74.3" cy="254.8" r="10.8"/>
		<path fill="#FFFFFF" d="M84.9,256.9c-0.3-0.1-0.5-0.1-0.7-0.2c-0.6-0.2-1.4,0.2-1.6-0.4c-0.4,0-1,0.2-1-0.2c-0.2,0-0.6,0-0.8,0
			c0-0.2,0-0.4-0.2-0.6c-0.2-0.2-0.4,0-0.6-0.2l-0.4-0.6c-0.4-0.6-0.4-1.4-0.6-2.2c-0.2-0.4-0.2-0.8-0.6-1.2
			c-0.2-0.2-0.4-0.4-0.6-0.8c-0.2-0.2-0.4-0.6-0.4-0.8c-0.2-0.4,0-0.6-0.2-0.8c-0.4-0.6-2.8-1.2-4-1.2c-0.4,0-1,0-1.4,0.2
			c-0.2,0-0.4,0.4-0.6,0.6c-0.4,0.2-2,0-2.6,0c-0.6,0-1.6-0.2-1.8,0.2c0,0.2,0,0.2-0.2,0.4c0,0.2,0,0.4,0,0.4
			c-0.6,1.4,0.8,1.8,2,2.4c0.4,0.2,0.6,0.4,1,0.4c0.6,0.2,1.4,0,1.8,0.4c0.8,0.4,1,1.6,1.4,2.6c0.2,1,0,2,0.4,2.8
			c0.2,1,0.8,1.6,0.8,2.6c0,0.2,0,0.4,0,0.4c0,0.2,0,0.4-0.2,0.6c-0.2,0.6-0.4,0.6-0.2,1.4c0.2,0.6,0.4,1,0.6,1.6
			c0.2,0.2,0.4,0.4,0.6,0.6c0.1,0.1,0.1,0.2,0.2,0.3C79.9,265.2,83.9,261.7,84.9,256.9z"/>
	</g>
</g>
<g>
	<g>
		<path fill="#CCCCCC" d="M249.4,291.8c0,2-3,3.7-6.8,3.7h-64.3c-3.7,0-7.6-2-9.2-3.4l-11.7-14.7c0-2,0-2.6,3.7-2.6h62.7
			c3.7,0,6.8,1.6,6.8,3.7L249.4,291.8z"/>
		<path fill="#AF740B" d="M166.7,289.6l-6.3-6.9l-2-3c-0.8-1.4-1.2-2.8-1-4.4l6.1-74.3c0-0.4,0-0.8,0-1l-0.4-6.3
			c-0.4-4.2,3-7.5,7.1-7.5l56.3,0.4c0.2,0,0.6,0,0.8,0l8.5,3.2"/>
		<path fill="#87C663" d="M233.3,290.4h-63.8c-2.8,0-5.2-2.4-5.2-5.2v-91.8c0-3.4,2.8-6.1,6.1-6.1h61.3c4.6,0,8.1,3.6,8.1,8.1v88.4
			C239.9,287.6,236.9,290.4,233.3,290.4z"/>
		<path fill="#48B749" d="M164.9,255.8v28.6c0,3,2.4,5.2,5.2,5.2h64.8c2.8,0,5-2.4,5.2-5.2v-28.6H164.9z"/>
		<path fill="#FFFFFF" d="M226,232.5c0-0.4-0.4-0.8-0.6-1c-0.4-0.8-0.6-1.4-1.2-2.2c-0.2-0.2-0.2-0.4-0.4-0.6
			c-0.4-0.6-1-1.4-1.8-1.8c-0.8-0.4-1.6-0.6-2.6-1c-0.8-0.2-1.4-0.6-2.2-0.8c-1.6-0.4-4-0.4-5.6,0c-0.4,0-0.8,0-1.2,0
			c-1,0.2-2.2,0.2-3.2,0.4c-0.6,0-1.4,0.2-2,0.2c-0.8,0.2-2,0.4-2.8,0.2c-0.6-0.2-1.4-0.4-2-0.6c-0.6-0.2-1.4,0.2-1.6-0.4
			c-0.4,0-1,0.2-1-0.2c-0.2,0-0.6,0-0.8,0c0-0.2,0-0.4-0.2-0.6c-0.2-0.2-0.4,0-0.6-0.2l-0.4-0.6c-0.4-0.6-0.4-1.4-0.6-2.2
			c-0.2-0.4-0.2-0.8-0.6-1.2c-0.2-0.2-0.4-0.4-0.6-0.8c-0.2-0.2-0.4-0.6-0.4-0.8c-0.2-0.4,0-0.6-0.2-0.8c-0.4-0.6-2.8-1.2-4-1.2
			c-0.4,0-1,0-1.4,0.2c-0.2,0-0.4,0.4-0.6,0.6c-0.4,0.2-2,0-2.6,0s-1.6-0.2-1.8,0.2c0,0.2,0,0.2-0.2,0.4c0,0.2,0,0.4,0,0.4
			c-0.6,1.4,0.8,1.8,2,2.4c0.4,0.2,0.6,0.4,1,0.4c0.6,0.2,1.4,0,1.8,0.4c0.8,0.4,1,1.6,1.4,2.6c0.2,1,0,2,0.4,2.8
			c0.2,1,0.8,1.6,0.8,2.6c0,0.2,0,0.4,0,0.4c0,0.2,0,0.4-0.2,0.6c-0.2,0.6-0.4,0.6-0.2,1.4c0.2,0.6,0.4,1,0.6,1.6
			c0.2,0.2,0.4,0.4,0.6,0.6c0.4,0.6,0.8,1.4,1.2,2c0.2,0.2,0.4,0.4,0.4,0.6c0.4,0.8,0.2,1.6,0.4,2.6c0.2,1.4,0.4,2.6,0.4,4
			c0,0.4,0,0.8,0,1.2c0,0.2,0,0.6,0,0.8c0,0.4-0.2,1.2-0.6,1.4c-0.2,0.2-0.6,0-1,0.2l0,0c-0.2,0-0.2,0.2-0.2,0.4
			c-0.2,0.2-0.6,0.4-0.8,0.6v0.2c0.2,0,0.2,0,0.4,0h0.2c-0.2,0.4-1.2,0.6-1.2,1.2l0,0c0.8,0.2,3.8,0.2,4.2-0.4c0-0.2,0-0.6,0-0.8
			c0-0.4,0.2-1,0.4-1.4c0-0.2,0.2-0.6,0.4-0.6c0.2-0.2,0.4,0,0.6-0.2c0-0.2,0-0.4,0-0.4c0-0.2,0-0.4,0-0.6c0-0.2,0-0.2,0-0.4
			c0-0.2,0-0.6,0-0.8c0-0.2,0-0.4,0-0.6c0-1,0.2-1.8,0.2-2.6c0-0.4,0-0.8,0-1.2c0-0.4,0.2-1,0.4-1.6c0-0.2,0-0.6,0.2-0.8
			c1.2,0.2,2.4,0,3.4-0.2c0.4,0,1-0.2,1.4-0.2c0.6-0.2,1-0.4,1.6-0.6c0.4,0,0.6-0.2,1-0.2c0.2,0,0.2,0.2,0.4,0.2c0,0,0-0.2,0-0.4
			c0.6-0.4,1.8-0.6,2.6-1c0.2,0,0.2,0,0.4,0c0.2,0,0.2-0.2,0.4-0.2c0.4-0.2,1-0.4,1.4-0.6c0.2,0,0.4-0.2,0.8-0.2h0.2
			c0.2-0.2,2-1,2.4-0.8c1.8,0.2,2.6,1.6,3.4,2.6c0.2,0.2,0.2,0.4,0.4,0.6c0.6,0.8,1,1.6,1.8,2.2c1.4,1.4,3.2,2.4,3.6,4.6
			c0.2,0.6,0,2.2-0.4,2.4c-0.2,0.2-0.8,0.2-1,0.4l0,0c0,0,0,0.2-0.2,0.2c-0.2,0.2-0.4,0.4-0.6,0.6c0,0,0,0,0,0.2c0.2,0,0.2,0,0.4,0
			c0,0,0,0.2,0.2,0.2c0.2,0,1.6,0.2,1.8,0c0.2,0,0.2-0.2,0.4-0.2c0.2,0,0.4,0,0.4-0.2c0.6-0.4,0-0.8,0-1c0.2-0.6,0.4-1.4,0.4-2
			c0.2,0.2,0.2,0.8,0.2,1.2c0,0.2-0.2,2-0.4,2.2c-0.2,0.2-0.8,0.4-1.2,0.6c0,0.2,0,0.2-0.2,0.4c-0.2,0.4-0.6,0.4-0.6,0.8
			c0.4,0.2,2.6,0.2,3.2,0c0.2-0.2,0-0.4,0.2-0.8h0.2c0-0.2,0-0.4,0-0.6c0.2-0.4,0.2-1,0.2-1.4c0-0.2,0-0.4,0-0.6
			c0.2-0.4,0.2-0.8,0.4-1.2c0-0.2,0-0.4,0-0.6c0-0.4,0.4-1.4,0.4-1.8c-0.2-0.4-0.6-0.6-1-1c-0.2-0.2-0.4-0.4-0.6-0.6
			s-0.4-0.2-0.6-0.4c-0.8-1-1.4-1.8-1.8-3.2c0-0.2,0-0.6,0-0.8c0-0.6-0.4-1-0.2-1.8c0.2-0.6,0.2-1.4,0.4-2c0-0.2,0.2-0.6,0.2-1
			c0-0.6-0.2-1.4-0.6-2l0,0l0,0c0.4,0.2,0.6,0.8,1,1.2c0.8,1.2,1.4,2.8,3,3.2l0,0c0-0.2,0-0.2,0-0.4
			C225.8,232.9,226,232.9,226,232.5z"/>
		<polygon fill="#FFFFFF" points="224,280.6 185.1,280.6 188.5,270.1 220.6,270.1 		"/>
		<path fill="#FFFFFF" d="M216.1,269.1c0-0.2,0-0.4,0-0.4c0-2.6-2-4.6-4.6-4.6c-0.8,0-1.6,0.2-2.4,0.6c-0.4-2-2.2-3.6-4.4-3.6
			c-2.6,0-4.6,2-4.6,4.6c0,0.2,0,0.4,0,0.6c-0.8-0.6-1.8-1-2.8-1c-2.2,0-4.2,1.6-4.4,3.8H216.1z"/>
		<path fill="#737144" d="M164.3,200v-0.8h0.8v0.8H164.3z M166.7,200v-0.8h0.8v0.8H166.7z M169.3,200v-0.8h0.8v0.8H169.3z
			 M171.7,200v-0.8h0.8v0.8H171.7z M174,200v-0.8h0.8v0.8H174z M176.4,200v-0.8h0.8v0.8H176.4z M179,200v-0.8h0.8v0.8H179z
			 M181.4,200v-0.8h0.8v0.8H181.4z M183.8,199.8V199h0.8v0.8H183.8z M186.1,199.8V199h0.8v0.8H186.1z M188.7,199.8V199h0.8v0.8
			H188.7z M191.1,199.8V199h0.8v0.8H191.1z M193.5,199.8V199h0.8v0.8H193.5z M196,199.8V199h0.8v0.8H196z M198.4,199.8V199h0.8v0.8
			H198.4z M200.8,199.6v-0.8h0.8v0.8H200.8z M203.2,199.6v-0.8h0.8v0.8H203.2z M205.8,199.6v-0.8h0.8v0.8H205.8z M208.1,199.6v-0.8
			h0.8v0.8H208.1z M210.5,199.6v-0.8h0.8v0.8H210.5z M213.1,199.6v-0.8h0.8v0.8H213.1z M215.5,199.6v-0.8h0.8v0.8H215.5z
			 M217.9,199.4v-0.8h0.8v0.8H217.9z M220.2,199.4v-0.8h0.8v0.8H220.2z M222.8,199.4v-0.8h0.8v0.8H222.8z M225.2,199.4v-0.8h0.8v0.8
			H225.2z M227.6,199.4v-0.8h0.8v0.8H227.6z M230.1,199.4v-0.8h0.8v0.8H230.1z M232.5,199.4v-0.8h0.8v0.8H232.5z M234.9,199.2v-0.8
			h0.8v0.8H234.9z M237.3,199.2v-0.8h0.8v0.8H237.3z"/>
	</g>
	<g>
		<path fill="#CCCCCC" d="M157.2,283.5c2.5,3.3-3.6,10.8-29.4,10.8c-17,0-34.9-6.4-34.9-10.4c0-3.9,13.7-6.7,30.7-6.7
			S154.2,279.7,157.2,283.5z"/>
		<path fill="#D6562B" d="M148.6,266.4c0-4-11.2-7.3-24.9-7.3s-24.9,3.3-24.9,7.3c0,2.3-5.6,11.2-5.6,15.2
			c0,6.3,13.6,11.3,30.3,11.3c16.7,0,30.3-5.1,30.3-11.3C154.2,277.6,148.6,268.7,148.6,266.4z"/>
		<ellipse fill="#574109" cx="123.5" cy="268.9" rx="22.7" ry="7.5"/>
		<path fill="#CFA85E" d="M137.1,263.8c0-0.2,0-0.5,0-0.7c0-2.8-2.4-5.2-5.2-5.2c-2.6,0-4.7,1.9-5.2,4.4c-0.2,0-0.5,0-0.7,0
			c-0.2,0-0.3,0-0.5,0c-0.7,0-1.2,0-1.9,0c-0.2,0-0.2,0-0.3,0c-0.5-1.4-2.1-2.6-3.7-2.6c-0.2,0-0.5,0-0.7,0
			c-0.3-2.6-2.6-4.5-5.2-4.5c-3,0-5.2,2.3-5.2,5.2c0,0.9,0.2,1.7,0.7,2.6c-0.9,0.3-1.4,1-1.7,1.9c-2.6,1.2-4.2,2.6-4.2,4.2
			c0,3.7,9.2,6.8,20.6,6.8s20.6-3,20.6-6.8C144,266.8,141.3,265.1,137.1,263.8z"/>
		<path fill="#FFF197" d="M111.6,271.7c-0.9-1.9-0.2-4.2,1.9-5.2c1.9-1,4.4-0.3,5.4,1.6l-0.7,0.3c-0.7-1.6-2.8-2.1-4.4-1.2
			c-1.6,0.9-2.3,2.8-1.6,4.4L111.6,271.7z"/>
		<path fill="#FFF197" d="M114.4,266.6c-0.7-1.6,0-3.5,1.6-4.2c0.7-0.3,1.6-0.5,2.4-0.2c0.9,0.2,1.4,0.9,1.9,1.6l-0.7,0.3
			c-0.3-0.5-0.7-1-1.4-1.2c-0.7-0.2-1.4-0.2-1.9,0.2c-1.2,0.7-1.7,2.1-1.2,3.3L114.4,266.6z"/>
		<path fill="#FFF197" d="M129.9,272.7l-0.5-0.3c1-1.4,0.7-3.5-0.9-4.5c-1.6-1-3.5-0.9-4.5,0.5l-0.5-0.3c1.2-1.7,3.7-2.1,5.6-0.7
			C130.8,268.5,131.3,271,129.9,272.7z"/>
	</g>
	<g>
		<path fill="#CCCCCC" d="M272.8,297.9h-32.4c-1.4,0-4.4-0.7-5.9-3l-2.3-2.6c0-1.8,6.3-1.2,8.1-1.2l25.8,0.4c2.2,0,4.1-0.3,7.7,1.2
			c0,0,2.2,1.2,2.4,2C276.5,295.4,276.5,297.6,272.8,297.9z"/>
		<path fill="#AF740B" d="M234.4,294.9l-3.2-3.6l-1-1.6c-0.4-0.6-0.6-1.4-0.6-2.2l3.2-37.6c0-0.2,0-0.4,0-0.6l-0.2-3.2
			c-0.2-2,1.6-3.8,3.6-3.8l28.5,0.2c0.2,0,0.2,0,0.4,0l4.4,1.6"/>
		<path fill="#F9C364" d="M268.5,295.3H236c-1.4,0-2.6-1.2-2.6-2.6v-46.6c0-1.8,1.4-3.2,3.2-3.2h31.1c2.2,0,4.2,1.8,4.2,4.2v45
			C271.7,293.9,270.3,295.3,268.5,295.3z"/>
		<path fill="#737144" d="M233.4,249.7v-0.8h0.8v0.8H233.4z M235.8,249.7v-0.8h0.8v0.8H235.8z M238.2,249.5v-0.8h0.8v0.8H238.2z
			 M240.6,249.5v-0.8h0.8v0.8H240.6z M243.2,249.5v-0.8h0.8v0.8H243.2z M245.6,249.5v-0.8h0.8v0.8H245.6z M248,249.5v-0.8h0.8v0.8
			H248z M250.6,249.5v-0.8h0.8v0.8H250.6z M253,249.5v-0.8h0.8v0.8H253z M255.3,249.3v-0.8h0.8v0.8H255.3z M257.7,249.3v-0.8h0.8
			v0.8H257.7z M260.3,249.3v-0.8h0.8v0.8H260.3z M262.7,249.3v-0.8h0.8v0.8H262.7z M265.1,249.3v-0.8h0.8v0.8H265.1z M267.5,249.3
			v-0.8h0.8v0.8H267.5z M270.1,249.3v-0.8h0.8v0.8H270.1z"/>
		<circle fill="#D6562B" cx="252" cy="270.2" r="14.3"/>
		<path fill="#F9C364" d="M264.5,277c-1.6-1-3.4-2.6-5.2-5c-0.2-0.2-0.2-0.4-0.2-0.6s0-0.6,0-1.2c-0.2-1.6-1-3.6-2-4.8
			c-0.8-1-1.2-1.4-2.6-2c-0.6-0.2-0.8-0.4-1-0.8c0-0.2-0.2-0.2-0.2-0.4c-1-1.8-2-3.4-3.2-3.2c-1,0.2-1,2-1,3.4c0,0.2,0,0.4,0,0.6
			v0.2c0,0.6,0,1.2,0,1.2H249c-0.4,0-0.8,0.2-1.4,0.6c-0.8,0.4-1,0.8-1.2,1.2c0,0.2-0.2,0.6-0.6,1.2c-0.2,0.2-0.6,0.4-0.8,0.4
			c-0.8,0.2-1.8,0.6-1.2,2.6c0.6,1.6,1.8,2.2,2.6,2.8c0.4,0.2,0.6,0.4,1,0.6c0.4,0.4,0.4,0.4,0.4,1.2c0,0.6,0,1-0.2,1.6
			c0,0.8-0.2,1.6-0.2,2.4c0,1.4,0,3.4,0.6,5.4c0.4,0,0.6,0.2,1,0.2c-0.8-1.8-0.8-4.2-0.6-5.6c0-0.8,0-1.4,0.2-2.2c0-0.6,0-1,0.2-1.6
			c0-1,0-1.2-0.8-1.8c-0.4-0.2-0.6-0.4-1-0.6c-0.8-0.4-1.6-1-2.2-2.4c-0.4-1.2,0-1.2,0.6-1.6c0.4-0.2,0.8-0.4,1.2-0.8
			c0.6-0.6,0.8-1,0.8-1.4c0.2-0.4,0.2-0.4,0.8-0.8c0.6-0.4,1-0.4,1.2-0.6c1-0.2,1-0.6,0.8-2.2v-0.2c0-0.2,0-0.4,0-0.6
			c0-2.2,0.2-2.6,0.4-2.6c0.8-0.2,2,2.2,2.4,2.8c0.2,0.2,0.2,0.4,0.2,0.4c0.4,0.6,0.8,0.8,1.4,1.2c1.2,0.6,1.6,0.8,2.4,1.8
			c1,1.2,1.6,2.8,2,4.4c0,0.6,0,0.8,0,1c0,0.4,0,0.6,0.2,1c1.8,2.4,3.8,4.2,5.4,5.2C264.3,277.4,264.5,277.2,264.5,277z"/>
	</g>
</g>
<g>
	<path fill="#CCCCCC" d="M63.7,283.5c1.1,1.4-1.6,4.7-13.2,4.7c-7.7,0-15.7-2.8-15.7-4.5c0-1.7,6.1-2.9,13.8-2.9
		S62.4,281.8,63.7,283.5z"/>
	<ellipse fill="#A0A0A0" cx="48.7" cy="283.4" rx="13.9" ry="3.1"/>
	<path fill="#610929" d="M62.6,267.7H34.9v13.9c0,0,0,0.5,0,0.7c0,1.7,6.2,3.1,13.9,3.1c7.7,0,13.9-1.4,13.9-3.1c0-0.3,0-0.7,0-0.7
		V267.7z"/>
	<path fill="#C1C1C1" d="M62.5,267.9H34.7c0,0,0,0.8,0,1c0,1.7,6.3,3.1,14.1,3.1c7.8,0,14.1-1.4,14.1-3.1c0-0.3,0-0.7,0-0.7
		L62.5,267.9z"/>
	<ellipse fill="#767676" cx="48.7" cy="267.8" rx="14.1" ry="3.1"/>
	<ellipse fill="#939393" cx="48.7" cy="268.3" rx="13.6" ry="2.6"/>
	<ellipse fill="#A7A7A7" cx="48.7" cy="268.7" rx="12.2" ry="2.3"/>
	<g>
		<circle fill="#D6562B" cx="49.2" cy="278.7" r="5.9"/>
		<path fill="#F9C364" d="M54.4,281.5c-0.7-0.4-1.4-1.1-2.1-2.1c-0.1-0.1-0.1-0.2-0.1-0.2s0-0.2,0-0.5c-0.1-0.7-0.4-1.5-0.8-2
			c-0.3-0.4-0.5-0.6-1.1-0.8c-0.2-0.1-0.3-0.2-0.4-0.3c0-0.1-0.1-0.1-0.1-0.2c-0.4-0.7-0.8-1.4-1.3-1.3c-0.4,0.1-0.4,0.8-0.4,1.4
			c0,0.1,0,0.2,0,0.2v0.1c0,0.2,0,0.5,0,0.5H48c-0.2,0-0.3,0.1-0.6,0.2c-0.3,0.2-0.4,0.3-0.5,0.5c0,0.1-0.1,0.2-0.2,0.5
			c-0.1,0.1-0.2,0.2-0.3,0.2c-0.3,0.1-0.7,0.2-0.5,1.1c0.2,0.7,0.7,0.9,1.1,1.1c0.2,0.1,0.2,0.2,0.4,0.2c0.2,0.2,0.2,0.2,0.2,0.5
			c0,0.2,0,0.4-0.1,0.7c0,0.3-0.1,0.7-0.1,1c0,0.6,0,1.4,0.2,2.2c0.2,0,0.2,0.1,0.4,0.1c-0.3-0.7-0.3-1.7-0.2-2.3
			c0-0.3,0-0.6,0.1-0.9c0-0.2,0-0.4,0.1-0.7c0-0.4,0-0.5-0.3-0.7c-0.2-0.1-0.2-0.2-0.4-0.2c-0.3-0.2-0.7-0.4-0.9-1
			c-0.2-0.5,0-0.5,0.2-0.7c0.2-0.1,0.3-0.2,0.5-0.3c0.2-0.2,0.3-0.4,0.3-0.6c0.1-0.2,0.1-0.2,0.3-0.3c0.2-0.2,0.4-0.2,0.5-0.2
			c0.4-0.1,0.4-0.2,0.3-0.9v-0.1c0-0.1,0-0.2,0-0.2c0-0.9,0.1-1.1,0.2-1.1c0.3-0.1,0.8,0.9,1,1.1c0.1,0.1,0.1,0.2,0.1,0.2
			c0.2,0.2,0.3,0.3,0.6,0.5c0.5,0.2,0.7,0.3,1,0.7c0.4,0.5,0.7,1.1,0.8,1.8c0,0.2,0,0.3,0,0.4c0,0.2,0,0.2,0.1,0.4
			c0.7,1,1.6,1.7,2.2,2.1C54.3,281.6,54.4,281.5,54.4,281.5z"/>
	</g>
</g>
</svg>
