<?xml version="1.0" encoding="utf-8"?>
<!-- Generator: Adobe Illustrator 17.1.0, SVG Export Plug-In . SVG Version: 6.00 Build 0)  -->
<svg version="1.2" baseProfile="tiny" id="Layer_1" xmlns="http://www.w3.org/2000/svg" xmlns:xlink="http://www.w3.org/1999/xlink"
	 x="0px" y="0px" viewBox="20.3 418 238.7 174" xml:space="preserve">
<rect x="50.2" y="434.7" fill="#727272" width="5.2" height="5"/>
<g>
	<path fill="#606060" d="M52.2,435.6c-0.8,0.1-1.5,0.8-1.5,1.6s0.6,1.5,1.5,1.6V435.6z"/>
	<path fill="#606060" d="M52.5,435.6v3.2c0.8-0.1,1.5-0.8,1.5-1.6S53.3,435.7,52.5,435.6z"/>
</g>
<path fill="#333333" d="M216,546.6c0,1.3-7.3,2.4-16.3,2.4s-16.3-1.1-16.3-2.4c0-1.3,7.2-2.8,16.2-2.8S216,545.3,216,546.6z"/>
<ellipse fill="#9E5F26" cx="199.7" cy="546.6" rx="14.9" ry="2.2"/>
<g>
	<g>
		<ellipse fill="#ADAEB0" cx="203.1" cy="565.7" rx="14.9" ry="5.9"/>
		<path fill="#066233" d="M218.3,532.8c-0.1,0.1-0.2,0.2-0.3,0.2c-6.6,5.2-9.3,9.6-9.4,15.3v-0.6l-3.8,0.2l-12.3-0.1
			c0.2-2.1,0.2-8.3-8.6-11.5c0,0-0.3-0.1-0.6-0.1c0,0-0.1,0-0.1,0c0,0,0,0,0.1,0c0.4,0,0.6,0,0.7,0c0.6-0.1,6.2-1.1,11.2,5.6
			l0.5,0.7l0.2-0.8c1.5-6,1.5-17.5-0.7-23.5c0,0-0.1-0.2-0.1-0.4c0-0.1-0.1-0.2-0.1-0.3c0.3,0.4,0.4,0.5,0.5,0.6
			c0.1,0.1,3.6,3,4.5,16.1l0.1,1.8l0.7-1.7c1.3-3.3,2.9-7,6.4-8.5c0.3-0.1,0.7-0.3,1.1-0.4c-0.3,0.3-0.7,0.5-0.8,0.6l-0.2,0l0,0
			c-4.5,5-4.5,10.4-4.5,14.2v0.8v1.5l0.8-1.2c0.6-0.9,2.6-2.9,3.8-4c-0.1,0.1-0.2,0.3-0.3,0.5c-0.1,0.1-0.1,0.3-0.1,0.3
			c-0.8,2-1.5,4.2-2,6l-0.6,2.8l1.3-2.5c3.1-5.8,7.4-9.8,12.6-11.8l0.1,0c0.3-0.1,0.6-0.2,0.7-0.3
			C218.6,532.6,218.4,532.7,218.3,532.8z"/>
		<path fill="#333333" d="M216.1,546.5h-1.4c-9.9,2.1-19.9,2-29.9,0h-1.4l0.9,6.3h1.7l2.8,14.7c7.9,2,15.5,2,22.9,0l2.1-14.7h1.5
			L216.1,546.5z"/>
	</g>
	<ellipse fill="#ADAEB0" cx="71.2" cy="576.5" rx="35.7" ry="8.9"/>
	<g>
		<path fill="#4AB749" d="M183.7,576.5c0.5-4.5,3-12,6.2-12.8c-0.3,0-0.6,0-0.9,0c-3,0.3-5.4,9.2-6.5,12.8"/>
		<path fill="#4AB749" d="M136.7,573.4c-1.2-3.6-0.6-9.2,1.6-11.5c-0.3,0.1-0.5,0.3-0.8,0.5c-2.8,2.3-3.6,7.1-2.3,11"/>
		<path fill="#4AB749" d="M125.5,573.4C125.3,572.7,125.5,574.2,125.5,573.4c-0.7-6,2.1-10.9,6.1-12c-0.3,0-0.6,0-0.9,0
			c-4.5,0.5-7.7,5.5-7.1,12c0.1,0.8,0.8-0.8,0.9,0"/>
		<path fill="#4AB749" d="M108.8,573.4c0.5-4.5,3-12,6.2-12.8c-0.3,0-0.6,0-0.9,0c-3,0.3-5.4,9.2-6.5,12.8"/>
		<path fill="#4AB749" d="M115.6,564.9c-0.4,2.3-0.5,5.9,0.2,8.6c0.2,0.9,0.9-0.8,1.2,0"/>
		<path fill="#4AB749" d="M119.6,573.4c-0.3-0.8-1.7,0.9-2,0c-0.8-3.1-0.8-7.5-0.2-10"/>
		<path fill="#4AB749" d="M118.1,573.4c-0.1,1.1,0.2-1,0.2,0"/>
		<path fill="#4AB749" d="M119.8,573.4c0-1,0,1.1,0.1,0c0.2-2.4,1.1-6.4,1.8-8.3"/>
		<path fill="#4AB749" d="M115.6,564.9c-0.4,2-0.5,5.4,0.2,8.6"/>
		<path fill="#4AB749" d="M112.9,573.4c-0.1-0.7-0.2,0.7-0.2,0c0-5.1,3.2-10.6,7.4-11.2c-0.3,0-0.6,0-0.9,0c-4.5,0-8.3,5.8-8.3,11.2
			"/>
		<path fill="#4AB749" d="M127.5,573.4c-0.1-0.7-0.2,0.7-0.2,0c0-5.1,3.2-6.9,7.4-7.5c-0.3,0-0.6,0-0.9,0c-4.5,0-8.3,2.1-8.3,7.5
			c0,0.7,0-0.7,0.2,0"/>
		<path fill="#4AB749" d="M124.5,573.4c-0.5-0.7-0.7,0.5-0.9,0c-1.9-4.7-0.6-6.7,3-8.8c-0.3,0.1-0.6,0.2-0.9,0.3
			c-4.2,1.7-6,3.5-3.9,8.5c0.3,0.7,0.1-0.6,0.5,0"/>
		<path fill="#4AB749" d="M118.4,573.4c-0.1-0.7-0.2,0.7-0.2,0c0-5.1,3.2-9.4,7.4-9.9c-0.3,0-0.6-0.1-0.9,0
			c-3.8,0.9-6.1,2.4-7.6,5.2"/>
		<path fill="#4AB749" d="M164.4,575.8c-1.1-3.3-0.6-8.7,1.5-10.9c-0.2,0.1-0.5,0.3-0.7,0.5c-2.6,2.2-3.4,6.7-2.2,10.4"/>
		<path fill="#4AB749" d="M161.2,570.4C161,569.7,161.2,571.2,161.2,570.4c-0.6-5.7,2-10.2,5.8-11.2c-0.3,0-0.6,0-0.8,0
			c-4.3,0.5-7.3,5.2-6.7,11.2c0.1,0.8,0.7-0.7,0.8,0"/>
		<path fill="#4AB749" d="M145.5,570.4c0.5-4.2,2.8-11.2,5.8-12c-0.3,0-0.6,0-0.8,0c-2.8,0.3-5.1,8.7-6.1,12"/>
		<path fill="#4AB749" d="M151.9,562.4c-0.4,2.2-0.5,5.5,0.2,8.1c0.2,0.8,0.8-0.8,1.1,0"/>
		<path fill="#4AB749" d="M155.6,570.4c-0.3-0.8-1.6,0.8-1.8,0c-0.8-2.9-0.8-7-0.2-9.4"/>
		<path fill="#4AB749" d="M145.1,572.7c-0.1,1,0.2-0.9,0.2,0"/>
		<path fill="#4AB749" d="M155.8,570.4c0-0.9,0,1,0.1,0c0.2-2.3,1-6,1.7-7.9"/>
		<path fill="#4AB749" d="M149.3,570.4c-0.1-0.6-0.2,0.7-0.2,0c0-4.8,3-10,6.9-10.5c-0.3,0-0.6,0-0.8,0c-4.3,0-7.8,5.4-7.8,10.5"/>
		<path fill="#4AB749" d="M163.1,570.4c-0.1-0.6-0.2,0.7-0.2,0c0-4.8,3-6.5,6.9-7c-0.3,0-0.6,0-0.8,0c-4.3,0-7.8,2-7.8,7.1
			c0,0.7,0-0.6,0.1,0"/>
		<path fill="#4AB749" d="M160.3,570.4c-0.4-0.7-0.7,0.5-0.9,0c-1.8-4.5-0.5-6.3,2.9-8.3c-0.3,0.1-0.6,0.1-0.8,0.3
			c-4,1.6-5.6,3.2-3.7,8c0.2,0.6,0.1-0.5,0.4,0"/>
		<path fill="#4AB749" d="M154.5,570.4c-0.1-0.6-0.2,0.7-0.2,0c0-4.8,3-8.8,6.9-9.3c-0.3,0-0.6-0.1-0.8,0c-3.5,0.9-5.8,2.2-7.1,4.9"
			/>
		<path fill="#4AB749" d="M114.1,576.4c-1.1-3.3-0.6-8.7,1.5-10.9c-0.2,0.1-0.5,0.3-0.7,0.5c-2.6,2.2-3.4,6.7-2.2,10.4"/>
		<path fill="#4AB749" d="M103.6,576.4C103.4,575.7,103.5,577.2,103.6,576.4c-0.6-5.7,2-10.2,5.8-11.2c-0.3,0-0.6,0-0.8,0
			c-4.3,0.5-7.3,5.2-6.7,11.2c0.1,0.7,0.7-0.7,0.8,0"/>
		<path fill="#4AB749" d="M108.2,571.5c-0.1,1.8,0.3,2.9,0.8,4.9c0.2,0.8,0-0.8,0.3,0"/>
		<path fill="#4AB749" d="M110.3,569.3c0.7-2.2,2.3-4.7,4-5.6c-0.3,0-0.6,0.1-0.8,0.2c-2.1,0.6-4.1,3.5-4.9,6"/>
		<path fill="#4AB749" d="M110.7,576.4c-0.6-2.2-0.9-4.2-0.7-6.2"/>
		<path fill="#4AB749" d="M105.5,576.4c-0.1-0.6-0.2,0.7-0.2,0c0-4.8,3-6.5,6.9-7c-0.3,0-0.6,0-0.8,0c-4.3,0-7.8,2-7.8,7.1
			c0,0.7,0-0.6,0.1,0"/>
		<path fill="#4AB749" d="M102.6,576.4c-0.4-0.7-0.7,0.5-0.9,0c-1.8-4.5-0.5-6.3,2.9-8.3c-0.3,0.1-0.6,0.1-0.8,0.3
			c-4,1.6-5.6,3.2-3.7,8c0.2,0.6,0.1-0.5,0.4,0"/>
		<path fill="#4AB749" d="M149.9,577.4c-0.9-2.8-0.5-7.2,1.3-9c-0.2,0.1-0.4,0.3-0.6,0.4c-2.2,1.8-2.8,5.5-1.8,8.6"/>
		<path fill="#4AB749" d="M141.2,577.4C141,576.8,141.1,578.1,141.2,577.4c-0.5-4.7,1.6-8.5,4.8-9.3c-0.2,0-0.5,0-0.7,0
			c-3.6,0.4-6,4.3-5.6,9.3c0,0.7,0.6-0.6,0.7,0"/>
		<path fill="#4AB749" d="M128.1,577.4c0.4-3.5,2.3-9.3,4.8-10c-0.2,0-0.5,0-0.7,0c-2.3,0.2-4.2,7.2-5.1,10"/>
		<path fill="#4AB749" d="M133.4,570.7c-0.3,1.8-0.4,4.6,0.2,6.7c0.2,0.7,0.7-0.6,0.9,0"/>
		<path fill="#4AB749" d="M136.4,567.1c0.6-1.1,1.8-2.5,2.8-3c-0.2,0-0.5,0.1-0.7,0.1c-1.2,0.3-3,2.3-3.7,3.5"/>
		<path fill="#4AB749" d="M136.5,577.4c-0.2-0.6-1.4,0.7-1.5,0c-0.7-2.4-0.6-5.9-0.1-7.8"/>
		<path fill="#4AB749" d="M145.1,573.4c-0.1,1.5,0.2,2.4,0.7,4.1c0.2,0.7,0-0.6,0.3,0"/>
		<path fill="#4AB749" d="M147.6,567c0.6-1.9,1.9-3.9,3.3-4.6c-0.2,0-0.5,0.1-0.7,0.1c-1.7,0.5-3.4,2.9-4.1,5"/>
		<path fill="#4AB749" d="M147.1,577.4c-0.5-1.9-0.8-3.5-0.6-5.2"/>
		<path fill="#4AB749" d="M135.4,577.4c-0.1,0.8,0.1-0.8,0.2,0"/>
		<path fill="#4AB749" d="M130.3,567.8c1.2-1.8,2.7-4.1,6.5-6.2c-2.2,0.8-3.8,1.2-4.9,2.2c-1.8,1.5-3.3,3.4-4.7,6.2"/>
		<path fill="#4AB749" d="M136.7,577.4C136.7,576.6,136.7,578.3,136.7,577.4c0.3-1.9,0.9-5,1.5-6.5"/>
		<path fill="#4AB749" d="M131.3,577.4c-0.1-0.5-0.1,0.6-0.1,0c0-4,2.5-8.3,5.8-8.7c-0.2,0-0.5,0-0.7,0c-3.6,0-6.5,4.5-6.5,8.8"/>
		<path fill="#4AB749" d="M142.8,577.4c-0.1-0.5-0.1,0.6-0.1,0c0-4,2.5-5.4,5.8-5.9c-0.2,0-0.5,0-0.7,0c-3.6,0-6.5,1.6-6.5,5.9
			c0,0.5,0-0.5,0.1,0"/>
		<path fill="#4AB749" d="M140.4,577.4c-0.4-0.6-0.6,0.4-0.7,0c-1.5-3.7-0.4-5.2,2.4-6.9c-0.2,0-0.5,0.1-0.7,0.2
			c-3.3,1.4-4.6,2.7-3,6.7c0.2,0.5,0.1-0.4,0.3,0"/>
		<path fill="#4AB749" d="M135.6,577.4c-0.1-0.5-0.1,0.6-0.1,0c0-4,2.5-7.4,5.8-7.8c-0.2,0-0.5-0.1-0.7,0c-3,0.7-4.8,1.8-6,4.1"/>
		<path fill="#4AB749" d="M182.1,577.4c-0.9-2.8-0.5-7.2,1.3-9c-0.2,0.1-0.4,0.3-0.6,0.4c-2.2,1.8-2.8,5.5-1.8,8.6"/>
		<path fill="#4AB749" d="M173.3,577.4C173.2,576.8,173.3,578.1,173.3,577.4c-0.5-4.7,1.6-8.5,4.8-9.3c-0.2,0-0.5,0-0.7,0
			c-3.6,0.4-6,4.3-5.6,9.3c0,0.7,0.6-0.6,0.7,0"/>
		<path fill="#4AB749" d="M160.2,577.4c0.4-3.5,2.3-9.3,4.8-10c-0.2,0-0.5,0-0.7,0c-2.3,0.2-4.2,7.2-5.1,10"/>
		<path fill="#4AB749" d="M165.6,570.7c-0.3,1.8-0.4,4.6,0.2,6.7c0.2,0.7,0.7-0.6,0.9,0"/>
		<path fill="#4AB749" d="M168.7,577.4c-0.2-0.6-1.4,0.7-1.5,0c-0.7-2.4-0.6-5.9-0.1-7.8"/>
		<path fill="#4AB749" d="M177.2,568.5c0.6-1.9,1.9-3.9,3.3-4.6c-0.2,0-0.5,0.1-0.7,0.1c-1.7,0.5-3.4,2.9-4.1,5"/>
		<path fill="#4AB749" d="M167.5,577.4c-0.1,0.8,0.1-0.8,0.2,0"/>
		<path fill="#4AB749" d="M169,567c1.2-1.8,2.7-4.1,6.5-6.2c-2.2,0.8-3.8,1.2-4.9,2.2c-1.8,1.5-3.3,3.4-4.7,6.2"/>
		<path fill="#4AB749" d="M168.8,577.4C168.8,576.6,168.8,578.2,168.8,577.4c0.3-1.9,0.9-5,1.5-6.5"/>
		<path fill="#4AB749" d="M163.4,577.4c-0.1-0.5-0.1,0.6-0.1,0c0-4,2.5-8.3,5.8-8.7c-0.2,0-0.5,0-0.7,0c-3.6,0-6.5,4.5-6.5,8.8"/>
		<path fill="#4AB749" d="M174.9,577.4c-0.1-0.5-0.1,0.6-0.1,0c0-4,2.5-5.4,5.8-5.9c-0.2,0-0.5,0-0.7,0c-3.6,0-6.5,1.6-6.5,5.9
			c0,0.6,0-0.5,0.1,0"/>
		<path fill="#4AB749" d="M171.5,578.4c-0.4-0.6-0.6,0.4-0.7,0c-1.5-3.7-0.4-5.2,2.4-6.9c-0.2,0-0.5,0.1-0.7,0.2
			c-3.3,1.4-4.6,2.7-3,6.7c0.2,0.5,0.1-0.4,0.3,0"/>
		<path fill="#4AB749" d="M167.7,577.4c-0.1-0.5-0.1,0.6-0.1,0c0-4,2.5-7.4,5.8-7.8c-0.2,0-0.5-0.1-0.7,0c-3,0.7-4.8,1.8-6,4.1"/>
	</g>
	<path fill="#ADAEB0" d="M53.3,418.4v5.6c-0.2,0.2,0,0.7,0,0.7v18.5v4c0,0,0-0.1,0,0l2.8,16.4h9.5l1.9-16.4v-15.3v-3.8l0,0v-9.7"/>
	<path fill="#66FFFF" d="M135.8,552.7C135.8,552.7,135.7,552.7,135.8,552.7c-0.6-0.1-1-0.5-1-1.1c0.1-0.7,0.2-1.4,0.4-2.1
		c0.1-0.5,0.7-0.8,1.2-0.7c0.5,0.1,0.8,0.7,0.7,1.2c-0.2,0.6-0.3,1.2-0.3,1.8C136.7,552.3,136.3,552.7,135.8,552.7z M137.3,548
		c-0.2,0-0.3,0-0.5-0.1c-0.5-0.3-0.7-0.9-0.4-1.4c0.3-0.6,0.7-1.2,1.1-1.8c0.3-0.5,0.9-0.6,1.4-0.3c0.5,0.3,0.6,0.9,0.3,1.4
		c-0.4,0.5-0.7,1.1-1,1.6C138,547.8,137.6,548,137.3,548z M140.2,543.9c-0.2,0-0.5-0.1-0.7-0.2c-0.4-0.4-0.5-1-0.1-1.4
		c0.4-0.5,0.9-1,1.4-1.5c0.4-0.4,1-0.4,1.4,0c0.4,0.4,0.4,1,0,1.4c-0.5,0.5-0.9,1-1.3,1.5C140.7,543.8,140.4,543.9,140.2,543.9z
		 M143.6,540.3c-0.3,0-0.5-0.1-0.7-0.3c-0.4-0.4-0.4-1,0-1.4c0.5-0.5,1-0.9,1.5-1.4c0.4-0.4,1-0.4,1.4,0c0.4,0.4,0.4,1,0,1.4
		c-0.5,0.5-1,0.9-1.4,1.4C144.1,540.2,143.9,540.3,143.6,540.3z M147.2,536.8c-0.3,0-0.5-0.1-0.7-0.3c-0.4-0.4-0.4-1,0-1.4
		c0.5-0.5,1-0.9,1.4-1.4c0.4-0.4,1-0.4,1.4,0c0.4,0.4,0.4,1,0,1.4c-0.5,0.5-1,0.9-1.5,1.4C147.7,536.7,147.5,536.8,147.2,536.8z
		 M150.8,533.4c-0.3,0-0.5-0.1-0.7-0.3c-0.4-0.4-0.4-1,0-1.4c0.5-0.5,0.9-0.9,1.4-1.4c0.4-0.4,1-0.4,1.4,0c0.4,0.4,0.4,1,0,1.4
		c-0.5,0.5-0.9,1-1.4,1.4C151.3,533.3,151.1,533.4,150.8,533.4z M154.3,529.7c-0.2,0-0.5-0.1-0.7-0.3c-0.4-0.4-0.4-1-0.1-1.4
		c0.4-0.5,0.9-1,1.3-1.5c0.4-0.4,1-0.5,1.4-0.1c0.4,0.4,0.5,1,0.1,1.4c-0.4,0.5-0.9,1-1.3,1.5C154.8,529.6,154.6,529.7,154.3,529.7z
		 M157.5,525.9c-0.2,0-0.4-0.1-0.6-0.2c-0.4-0.3-0.5-1-0.2-1.4c0.4-0.5,0.8-1,1.2-1.6c0.3-0.5,0.9-0.6,1.4-0.2
		c0.5,0.3,0.6,0.9,0.2,1.4c-0.4,0.6-0.8,1.1-1.2,1.6C158.1,525.8,157.8,525.9,157.5,525.9z M160.3,521.8c-0.2,0-0.4,0-0.5-0.1
		c-0.5-0.3-0.6-0.9-0.3-1.4c0.3-0.5,0.7-1.1,1-1.7c0.3-0.5,0.9-0.7,1.4-0.4c0.5,0.3,0.7,0.9,0.4,1.4c-0.3,0.6-0.7,1.2-1,1.8
		C161,521.6,160.7,521.8,160.3,521.8z M162.7,517.4c-0.1,0-0.3,0-0.4-0.1c-0.5-0.2-0.7-0.8-0.5-1.3c0.3-0.6,0.5-1.2,0.8-1.8
		c0.2-0.5,0.8-0.7,1.3-0.5c0.5,0.2,0.8,0.8,0.5,1.3c-0.3,0.6-0.5,1.3-0.8,1.9C163.5,517.2,163.1,517.4,162.7,517.4z M164.6,512.8
		c-0.1,0-0.2,0-0.3-0.1c-0.5-0.2-0.8-0.7-0.6-1.3c0.2-0.6,0.4-1.2,0.6-1.9c0.1-0.5,0.7-0.8,1.2-0.7c0.5,0.1,0.8,0.7,0.7,1.2
		c-0.2,0.7-0.4,1.3-0.6,2C165.4,512.5,165,512.8,164.6,512.8z M165.9,508c-0.1,0-0.1,0-0.2,0c-0.5-0.1-0.9-0.6-0.8-1.2
		c0.1-0.6,0.2-1.3,0.3-1.9c0.1-0.5,0.6-0.9,1.1-0.8c0.5,0.1,0.9,0.6,0.8,1.1c-0.1,0.7-0.2,1.4-0.4,2
		C166.7,507.6,166.3,508,165.9,508z M166.6,503C166.6,503,166.5,503,166.6,503c-0.6-0.1-1-0.5-1-1.1c0.1-0.6,0.1-1.3,0.1-2
		c0-0.6,0.5-1,1.1-0.9c0.6,0,1,0.5,0.9,1.1c0,0.7-0.1,1.4-0.1,2C167.5,502.6,167.1,503,166.6,503z"/>
	<path fill="#66FFFF" d="M192.4,545.7c-0.1,0-0.2,0-0.3,0c-0.7-0.2-1.3-0.4-2-0.6c-0.5-0.2-0.8-0.8-0.6-1.3c0.2-0.5,0.8-0.8,1.3-0.6
		c0.6,0.2,1.2,0.4,1.8,0.6c0.5,0.2,0.8,0.7,0.7,1.2C193.2,545.4,192.8,545.7,192.4,545.7z M187.7,543.9c-0.1,0-0.3,0-0.4-0.1
		c-0.6-0.3-1.2-0.6-1.8-1c-0.5-0.3-0.6-0.9-0.4-1.4c0.3-0.5,0.9-0.6,1.4-0.4c0.5,0.3,1.1,0.6,1.7,0.9c0.5,0.2,0.7,0.8,0.5,1.3
		C188.4,543.7,188.1,543.9,187.7,543.9z M183.5,541.3c-0.2,0-0.4-0.1-0.6-0.2c-0.6-0.4-1.1-0.9-1.6-1.3c-0.4-0.4-0.5-1-0.1-1.4
		c0.4-0.4,1-0.5,1.4-0.1c0.5,0.4,1,0.8,1.5,1.2c0.4,0.3,0.5,1,0.2,1.4C184.1,541.2,183.8,541.3,183.5,541.3z M179.8,537.9
		c-0.3,0-0.5-0.1-0.7-0.3c-0.5-0.5-0.9-1-1.3-1.6c-0.3-0.4-0.3-1.1,0.2-1.4c0.4-0.3,1.1-0.3,1.4,0.2c0.4,0.5,0.8,1,1.2,1.5
		c0.4,0.4,0.3,1-0.1,1.4C180.3,537.8,180,537.9,179.8,537.9z M176.8,534c-0.3,0-0.7-0.2-0.8-0.5c-0.4-0.6-0.7-1.2-1.1-1.8
		c-0.3-0.5-0.1-1.1,0.4-1.4c0.5-0.3,1.1-0.1,1.4,0.4c0.3,0.6,0.6,1.1,1,1.7c0.3,0.5,0.2,1.1-0.3,1.4
		C177.1,533.9,176.9,534,176.8,534z M174.4,529.6c-0.4,0-0.7-0.2-0.9-0.6c-0.3-0.6-0.5-1.2-0.8-1.9c-0.2-0.5,0-1.1,0.6-1.3
		c0.5-0.2,1.1,0,1.3,0.6c0.2,0.6,0.5,1.2,0.8,1.8c0.2,0.5,0,1.1-0.5,1.3C174.7,529.5,174.5,529.6,174.4,529.6z M172.6,524.9
		c-0.4,0-0.8-0.3-1-0.7c-0.2-0.6-0.4-1.3-0.6-2c-0.1-0.5,0.2-1.1,0.7-1.2c0.5-0.1,1.1,0.2,1.2,0.7c0.2,0.6,0.4,1.3,0.6,1.9
		c0.2,0.5-0.1,1.1-0.6,1.3C172.8,524.9,172.7,524.9,172.6,524.9z M171.3,520.1c-0.5,0-0.9-0.3-1-0.8c-0.1-0.7-0.3-1.3-0.4-2
		c-0.1-0.5,0.3-1.1,0.8-1.2c0.5-0.1,1.1,0.3,1.2,0.8c0.1,0.7,0.2,1.3,0.4,1.9c0.1,0.5-0.2,1.1-0.8,1.2
		C171.5,520.1,171.4,520.1,171.3,520.1z M170.4,515.2c-0.5,0-0.9-0.4-1-0.9c-0.1-0.7-0.2-1.3-0.2-2c-0.1-0.5,0.3-1,0.9-1.1
		c0.5-0.1,1,0.3,1.1,0.9c0.1,0.7,0.2,1.3,0.2,2c0.1,0.5-0.3,1.1-0.9,1.1C170.5,515.1,170.5,515.2,170.4,515.2z M169.9,510.2
		c-0.5,0-1-0.4-1-0.9c0-0.7-0.1-1.3-0.1-2c0-0.6,0.4-1,0.9-1c0.6,0,1,0.4,1,0.9c0,0.7,0.1,1.3,0.1,2
		C171,509.7,170.6,510.1,169.9,510.2C170,510.2,170,510.2,169.9,510.2z M169.7,505.2c-0.5,0-1-0.4-1-1c0-0.6,0-1.3,0-2
		c0-0.6,0.4-1,1-1s1,0.4,1,1v0.1c0,0.6,0,1.3,0,1.9C170.7,504.7,170.3,505.2,169.7,505.2C169.7,505.2,169.7,505.2,169.7,505.2z"/>
	<path fill="#66FFFF" d="M168.3,566.7c-0.2,0-0.4-0.1-0.5-0.2c-0.5-0.3-0.6-0.9-0.3-1.4c0.3-0.4,0.6-0.9,0.8-1.4
		c0.2-0.5,0.8-0.7,1.3-0.5c0.5,0.2,0.7,0.8,0.5,1.3c-0.3,0.5-0.6,1.1-0.9,1.6C169,566.5,168.7,566.7,168.3,566.7z M170.2,562.4
		c-0.1,0-0.2,0-0.2,0c-0.5-0.1-0.9-0.7-0.7-1.2c0.1-0.6,0.3-1.2,0.3-1.8c0.1-0.5,0.5-1,1.1-0.9c0.5,0.1,0.9,0.6,0.9,1.1
		c-0.1,0.7-0.2,1.4-0.4,2.1C171.1,562.1,170.6,562.4,170.2,562.4z M170.6,557.4c-0.5,0-1-0.4-1-1c0-0.6-0.1-1.3-0.1-1.9
		c-0.1-0.5,0.3-1,0.9-1.1c0.5-0.1,1,0.3,1.1,0.9c0.1,0.7,0.1,1.4,0.1,2.1C171.7,556.9,171.2,557.4,170.6,557.4
		C170.7,557.4,170.7,557.4,170.6,557.4z M170.1,552.4c-0.5,0-0.9-0.3-1-0.8c-0.1-0.6-0.2-1.3-0.4-1.9c-0.1-0.5,0.2-1.1,0.8-1.2
		c0.5-0.1,1.1,0.2,1.2,0.8c0.1,0.7,0.3,1.3,0.4,2c0.1,0.5-0.3,1.1-0.8,1.2C170.2,552.4,170.1,552.4,170.1,552.4z M169,547.5
		c-0.5,0-0.9-0.3-1-0.8c-0.1-0.6-0.3-1.3-0.5-1.9c-0.1-0.5,0.2-1.1,0.7-1.2c0.5-0.1,1.1,0.2,1.2,0.7c0.2,0.7,0.3,1.3,0.5,2
		c0.1,0.5-0.2,1.1-0.7,1.2C169.2,547.5,169.1,547.5,169,547.5z M167.9,542.7c-0.5,0-0.9-0.3-1-0.8c-0.2-0.6-0.3-1.3-0.5-2
		c-0.1-0.5,0.2-1.1,0.8-1.2c0.5-0.1,1.1,0.2,1.2,0.8c0.2,0.7,0.3,1.3,0.5,1.9c0.1,0.5-0.2,1.1-0.7,1.2
		C168,542.7,167.9,542.7,167.9,542.7z M166.8,537.8c-0.5,0-0.9-0.3-1-0.8c-0.1-0.7-0.3-1.3-0.4-2c-0.1-0.5,0.3-1.1,0.8-1.2
		c0.5-0.1,1.1,0.3,1.2,0.8c0.1,0.7,0.2,1.3,0.4,1.9c0.1,0.5-0.2,1.1-0.8,1.2C166.9,537.8,166.8,537.8,166.8,537.8z M165.9,532.9
		c-0.5,0-0.9-0.4-1-0.9c-0.1-0.7-0.2-1.3-0.3-2c-0.1-0.5,0.3-1,0.9-1.1c0.6-0.1,1,0.3,1.1,0.9c0.1,0.7,0.2,1.3,0.3,2
		c0.1,0.5-0.3,1.1-0.8,1.1C166,532.9,165.9,532.9,165.9,532.9z M165.3,527.9c-0.5,0-1-0.4-1-0.9c-0.1-0.7-0.1-1.3-0.1-2
		c0-0.6,0.4-1,1-1c0.6,0,1,0.4,1,1c0,0.7,0.1,1.3,0.1,2C166.4,527.4,166,527.9,165.3,527.9C165.4,527.9,165.4,527.9,165.3,527.9z
		 M165.2,522.9C165.2,522.9,165.2,522.9,165.2,522.9c-0.6,0-1-0.5-1-1c0-0.7,0-1.4,0.1-2c0-0.6,0.5-1,1-1c0.6,0,1,0.5,1,1
		c0,0.7,0,1.3-0.1,2C166.2,522.5,165.7,522.9,165.2,522.9z M165.4,517.9c0,0-0.1,0-0.1,0c-0.5-0.1-1-0.5-0.9-1.1
		c0.1-0.7,0.1-1.3,0.2-2c0.1-0.5,0.6-0.9,1.1-0.9c0.5,0.1,0.9,0.6,0.9,1.1c-0.1,0.7-0.2,1.3-0.2,1.9
		C166.4,517.5,165.9,517.9,165.4,517.9z M166.2,513c-0.1,0-0.1,0-0.2,0c-0.5-0.1-0.9-0.6-0.8-1.2c0.1-0.7,0.3-1.3,0.4-2
		c0.1-0.5,0.7-0.9,1.2-0.7c0.5,0.1,0.9,0.7,0.7,1.2c-0.2,0.6-0.3,1.3-0.4,1.9C167,512.7,166.6,513,166.2,513z M167.3,508.1
		c-0.1,0-0.2,0-0.3,0c-0.5-0.2-0.8-0.7-0.7-1.2c0.2-0.6,0.4-1.3,0.6-1.9c0.2-0.5,0.7-0.8,1.3-0.6c0.5,0.2,0.8,0.7,0.6,1.3
		c-0.2,0.6-0.4,1.3-0.6,1.9C168.2,507.8,167.8,508.1,167.3,508.1z"/>
	<path fill="#4AB749" d="M120.1,568.3c-0.1,1,0.2-0.9,0.2,0"/>
	<path fill="#EA118D" d="M137.5,559.7c1.3-0.2,2.2-0.9,2.1-1.6c-0.1-0.8-1.2-1.2-2.5-1c-0.3,0-0.6,0.1-0.8,0.2
		c0.3-0.3,0.6-0.7,0.8-1.1c0.5-1.2,0.4-2.4-0.2-2.7s-1.6,0.4-2.2,1.6c-0.2,0.5-0.3,0.9-0.3,1.4c-0.1-0.3-0.2-0.5-0.4-0.8
		c-0.7-1.1-1.8-1.6-2.4-1.2c-0.6,0.4-0.5,1.5,0.1,2.5c-1.2,0.2-2.1,0.9-2,1.6c0.1,0.8,1.2,1.2,2.5,1c0.3,0,0.6-0.1,0.8-0.2
		c-0.3,0.3-0.6,0.7-0.8,1.2c-0.5,1.2-0.4,2.4,0.2,2.7s1.6-0.4,2.2-1.6c0.2-0.4,0.3-0.9,0.3-1.3c0.1,0.2,0.2,0.5,0.4,0.8
		c0.7,1.1,1.8,1.6,2.4,1.2C138.3,561.9,138.2,560.8,137.5,559.7z M133.7,558.9c0.2-0.2,0.4-0.5,0.5-0.7c0.2-0.2,0.2-0.5,0.2-0.8
		c0.1,0.2,0.2,0.3,0.4,0.4c0.2,0.1,0.3,0.1,0.6,0c-0.2,0.2-0.4,0.5-0.4,0.8c-0.2,0.2-0.3,0.5-0.3,0.8c-0.1-0.2-0.2-0.3-0.4-0.4
		C134.1,558.9,133.9,558.8,133.7,558.9z"/>
	<path fill="#F9A11E" d="M147.3,561.5c0.8,0.6,1.6,0.7,1.9,0.2c0.3-0.4,0-1.3-0.8-1.8c-0.2-0.1-0.4-0.2-0.6-0.3
		c0.3,0,0.6-0.1,0.9-0.2c0.9-0.4,1.5-1,1.2-1.5s-1.1-0.6-2-0.3c-0.4,0.1-0.7,0.3-0.9,0.6c0.1-0.2,0.1-0.4,0.2-0.6
		c0.2-0.9-0.1-1.8-0.7-1.9s-1,0.5-1.2,1.4c-0.8-0.5-1.5-0.6-1.9-0.1c-0.3,0.4,0,1.3,0.8,1.8c0.2,0.1,0.4,0.2,0.6,0.3
		c-0.3,0-0.7,0-1,0.2c-0.9,0.4-1.5,1-1.2,1.5c0.2,0.5,1.1,0.6,2,0.3c0.3-0.1,0.6-0.3,0.8-0.5c-0.1,0.2-0.1,0.4-0.2,0.6
		c-0.2,0.9,0.1,1.8,0.7,1.9C146.6,563.1,147.2,562.4,147.3,561.5z M145.7,559.2c0.2,0,0.5,0,0.6-0.1c0.2,0,0.4-0.1,0.5-0.3
		c0,0.1,0,0.3,0,0.4s0.1,0.2,0.3,0.3c-0.2,0-0.4,0-0.6,0.2c-0.2,0-0.4,0.1-0.6,0.3c0-0.1,0-0.3,0-0.4
		C145.9,559.3,145.8,559.3,145.7,559.2z"/>
	<path fill="#EC2227" d="M113.7,559.1c0.5,0.7,1.2,1.1,1.6,0.8c0.4-0.3,0.4-1.1-0.1-1.8c-0.1-0.2-0.2-0.3-0.4-0.5
		c0.2,0.1,0.6,0.1,0.9,0.1c0.9,0,1.6-0.4,1.6-0.9s-0.7-0.9-1.6-0.9c-0.3,0-0.7,0-0.9,0.2c0.1-0.1,0.2-0.3,0.4-0.5
		c0.5-0.8,0.5-1.5,0.1-1.8c-0.4-0.2-1.1,0.1-1.5,0.8c-0.5-0.7-1.1-1-1.5-0.8c-0.4,0.3-0.4,1.1,0.1,1.8c0.1,0.2,0.2,0.3,0.4,0.5
		c-0.3-0.1-0.6-0.2-0.9-0.2c-0.9,0-1.6,0.4-1.6,0.9s0.7,0.9,1.6,0.9c0.3,0,0.6,0,0.9-0.1c-0.1,0.1-0.2,0.3-0.4,0.5
		c-0.5,0.8-0.5,1.5-0.1,1.8C112.6,560.2,113.3,559.8,113.7,559.1z M113.1,556.6c0.2,0.1,0.4,0.1,0.6,0.1c0.2,0,0.4,0,0.6-0.1
		c-0.1,0.1-0.1,0.2-0.1,0.3c0,0.1,0,0.2,0.1,0.3c-0.2-0.1-0.4-0.1-0.6,0c-0.1,0-0.4,0-0.6,0c0.1-0.1,0.1-0.2,0.1-0.3
		C113.3,556.8,113.2,556.7,113.1,556.6z"/>
	<g>
		<path fill="#4F4F4F" d="M38,492.7"/>
		<path fill="#9E5F26" d="M96.3,556.7c1.3-8,2-16.6,2-25.6c0-9.6-0.8-18.8-2.2-27.3c1.5-0.4,2.7-1.8,2.7-3.5c0-2-1.6-3.6-3.6-3.6
			h-0.4c-0.9-4-1.9-7.8-3-11.3c0,0-11.1,3-28.5,3c-14.3,0-27-3-27-3c-1.2,3.6-2.2,7.4-3,11.3h-0.4c-2,0-3.6,1.6-3.6,3.6
			c0,1.6,1.1,3,2.7,3.5c-1.5,8.5-2.2,17.7-2.2,27.3c0,9,0.7,17.6,2,25.6c-1.4,0.5-2.4,1.8-2.4,3.4c0,2,1.6,3.6,3.6,3.6h0
			c1,4.6,2.1,9,3.4,13.1c0,0,5.3,5.1,29.3,5.1c23.1,0,26.1-5.1,26.1-5.1c1.4-4.1,2.5-8.5,3.4-13.1h0c2,0,3.6-1.6,3.6-3.6
			C98.7,558.5,97.7,557.2,96.3,556.7z"/>
		<path fill="#8D4523" d="M44.9,578.5c-0.2,0-0.3-0.1-0.3-0.1c-1.3-4.1-2.5-8.5-3.4-13.1h0c-2,0-3.6-1.6-3.6-3.6
			c0-1.5,1-2.9,2.4-3.4c-1.3-8-2-16.6-2-25.6c0-9.6,0.8-18.8,2.3-27.3c-1.5-0.4-2.7-1.8-2.7-3.5c0-2,1.6-3.6,3.6-3.6h0.4
			c0.9-4,1.9-7.8,3-11.3c0,0,0.1,0,0.2,0c0,0,0-0.1,0-0.1c-5.3-0.8-8.7-1.5-8.7-1.5c-1.2,3.6-2.2,7.4-3,11.3h-0.4
			c-2,0-3.6,1.6-3.6,3.6c0,1.6,1.1,3,2.7,3.5c-1.5,8.5-2.2,17.7-2.2,27.3c0,9,0.7,17.6,2,25.6c-1.4,0.5-2.4,1.8-2.4,3.4
			c0,2,1.6,3.6,3.6,3.6h0c1,4.6,2.1,9,3.4,13.1c0,0,3.7,1.1,8.9,2.2C45,578.9,45,578.7,44.9,578.5z"/>
		<path fill="#643016" d="M66.4,566.5c-19.7,0-35.6-3.3-36.5-4c-0.1-0.1-0.2-0.3-0.2-0.5c0-0.5,0.7-0.7,0.9-0.4
			c1.9,0.8,35.4,7.7,66.7,0.6c0.3-0.1,0.6,0.1,0.7,0.4c0.1,0.3-0.1,0.6-0.4,0.7C87.2,565.7,76.4,566.5,66.4,566.5z"/>
		<path fill="#9E5F26" d="M92.9,483.7v-1c0-3.8-3-6.8-6.8-6.8c0,0-3.4-5-22.2-5c-19.4,0-22.2,5-22.2,5c-5.5,0-6.8,6.8-6.8,6.8
			s11.5,4.3,29,4.3C81.8,487,92.9,483.7,92.9,483.7z"/>
		<path fill="#643016" d="M35.6,480.4c-0.3,0.7-0.9,2.1-1,2.9c0.8,0.3,3.2,4.5,29.1,4.5c24.9,0,29.2-4.1,29.2-4.1v-1
			c0-0.6-0.6-2.5-0.7-3c-0.3,3.5-11.7,5.6-28.3,5.6C48.9,485.4,37,482.7,35.6,480.4z"/>
		<path fill="#333333" d="M63.9,472.1c11.4,0,20.5,2.9,20.5,5.1c0,2.2-9.3,3.9-20.7,3.9S43,479.3,43,477.1
			C43,474.9,52.4,472.1,63.9,472.1z"/>
		<path fill="#643016" d="M85,476.3c0,0-3.2-5-21.3-5c-18.6,0-21.3,5-21.3,5c-0.2,0.1,0.6,1.4,1,1.7c0,0,1.7-4,20.3-4
			c18.1,0,20.1,4,20.1,4C84.7,477.6,85,476.1,85,476.3z"/>
		<circle fill="#A2A79C" cx="63.2" cy="575.1" r="5.1"/>
		<path fill="#4F4F4F" d="M63.2,580.2c-1.6,0-2.9-1.3-2.9-2.9c0-1.6,1.3-2.9,2.9-2.9c1.6,0,2.9,1.3,2.9,2.9
			C66,579,64.7,580.2,63.2,580.2z M63.2,575.6c-0.9,0-1.7,0.8-1.7,1.7s0.8,1.7,1.7,1.7c0.9,0,1.7-0.8,1.7-1.7
			C64.9,576.4,64.1,575.6,63.2,575.6z"/>
		<path fill="#643016" d="M64.5,506c-18.9,0-33.7-2.9-34.5-3.5l-0.2-0.5h1.2h-0.6l0.3-0.5c1.3,0.6,35.6,7,66.8-0.1l0.3,1.1
			C86.4,505.1,74.8,506,64.5,506z"/>
		<path fill="#4F4F4F" d="M66.9,569.9c-0.7,0-1.3,0.4-1.5,1c-0.5-0.2-1.2-0.3-1.9-0.3c-0.6,0-1.1,0-1.5,0.2
			c-0.3-0.5-0.8-0.8-1.5-0.8c-1,0-1.8,0.8-1.8,1.8s0.8,1.8,1.8,1.8c0.7,0,1.2-0.4,1.5-0.9c0.3,0,0.6,0.1,0.9,0.1v1.9h1.5v-1.9
			c0.4,0,0.7-0.1,0.9-0.2c0.3,0.6,0.9,1,1.6,1c1,0,1.8-0.8,1.8-1.8C68.7,570.7,67.9,569.9,66.9,569.9z"/>
	</g>
	<g>
		<path fill="#066233" d="M169.3,494.3c-0.9-6.4-0.6-12.7-5.3-18c-3.3-3.7-8.6-5.8-14.2-6.8c-10.6-1.7-23,2.1-30.4,9.1
			c-6.3,6-7.6,13.9-7.3,21c0.4,8.4,3.2,16.6,5.7,24.6c1.5,4.7,3,9.4,3.9,14.2c1,5.2,0.6,10.5-0.9,15.9
			c-3.6,12.7-14.2,27.4-31.6,29.4c-0.6,0.1-1,0.3-1.3,0.7c-9,2.1-19.4,1.8-23.3-8c-0.7-1.7-3.2-0.4-2.5,1.3
			c4.9,12,18.5,11.8,29.2,8.8c0.2,0,0.4-0.1,0.5-0.3c23.2-4.1,35.6-28.4,33.9-45.2c-1.6-16.1-11.6-30.7-10-47.2
			c0.9-9.7,8-17.6,19.9-20.7c7.3-1.9,15.3-1.5,21.3,1.7c3,1.6,5.2,3.9,6.7,6.6c2.2,4,1.7,8.9,2.3,13.3
			C166,496.6,169.5,496.1,169.3,494.3z"/>
		
			<rect x="164.9" y="493.9" transform="matrix(-0.9978 6.587206e-02 -6.587206e-02 -0.9978 367.363 979.8282)" fill="#993333" width="5.3" height="4.2"/>
	</g>
	<path fill="#66FFFF" d="M62.7,480h-1v-1.2h1V480z M62.7,477.3h-1v-1.5h1V477.3z M62.7,474.3h-1v-1.5h1V474.3z M62.7,471.4h-1v-1.5
		h1V471.4z M62.7,468.4h-1V467h1V468.4z M62.7,465.5h-1V464h1V465.5z"/>
	<path fill="#66FFFF" d="M58.1,480l-0.9-0.2l0.1-1.2l0.9,0.2L58.1,480z M58.4,477.3l-0.9-0.2l0.1-1.5l0.9,0.2L58.4,477.3z
		 M58.6,474.4l-0.9-0.2l0.1-1.5l0.9,0.2L58.6,474.4z M58.8,471.5l-0.9-0.2l0.1-1.5L59,470L58.8,471.5z M59.1,468.6l-0.9-0.2l0.1-1.5
		l0.9,0.2L59.1,468.6z M59.3,465.6l-0.9-0.2l0.1-1.5l0.9,0.2L59.3,465.6z"/>
	<path fill="#66FFFF" d="M53.7,479.9l-0.9-0.4l0.2-1.2l0.9,0.4L53.7,479.9z M54.1,477.3l-0.9-0.4l0.2-1.5l0.9,0.4L54.1,477.3z
		 M54.6,474.4l-0.9-0.4l0.2-1.5l0.9,0.4L54.6,474.4z M55,471.6l-0.9-0.4l0.2-1.5l0.9,0.4L55,471.6z M55.5,468.7l-0.9-0.4l0.2-1.5
		l0.9,0.4L55.5,468.7z M56,465.9l-0.9-0.4l0.2-1.5l0.9,0.4L56,465.9z"/>
	<path fill="#66FFFF" d="M66.6,480l-0.1-1.2l0.9-0.2l0.1,1.2L66.6,480z M66.3,477.3l-0.2-1.5l0.9-0.2l0.2,1.5L66.3,477.3z M66,474.4
		l-0.2-1.5l0.9-0.2l0.2,1.5L66,474.4z M65.6,471.5l-0.2-1.5l0.9-0.2l0.2,1.5L65.6,471.5z M65.2,468.6l-0.2-1.5l0.9-0.2l0.2,1.5
		L65.2,468.6z M64.9,465.7l-0.2-1.5l0.9-0.2l0.2,1.5L64.9,465.7z"/>
	<path fill="#66FFFF" d="M70.6,479.7l-0.2-1.2l0.9-0.5l0.2,1.2L70.6,479.7z M70.1,477.1l-0.3-1.4l0.9-0.5l0.3,1.4L70.1,477.1z
		 M69.5,474.3l-0.3-1.4l0.9-0.5l0.3,1.4L69.5,474.3z M68.9,471.5l-0.3-1.4l0.9-0.5l0.3,1.4L68.9,471.5z M68.3,468.7l-0.3-1.4
		l0.9-0.5l0.3,1.4L68.3,468.7z M67.7,465.9l-0.3-1.4l0.9-0.5l0.3,1.4L67.7,465.9z"/>
	<path fill="#66FFFF" d="M165.6,564.4c-0.6,0-1-0.4-1-1c0-0.5-0.1-1-0.3-1.5c-0.2-0.5,0-1.1,0.5-1.3c0.5-0.2,1.1,0,1.3,0.5
		c0.3,0.8,0.5,1.5,0.5,2.3C166.6,564,166.2,564.4,165.6,564.4z M163.4,560.2c-0.2,0-0.5-0.1-0.7-0.2c-0.4-0.4-0.9-0.7-1.5-1
		c-0.5-0.3-0.7-0.9-0.4-1.4c0.3-0.5,0.9-0.6,1.4-0.4c0.7,0.4,1.3,0.8,1.8,1.2c0.4,0.4,0.5,1,0.1,1.4
		C164,560,163.7,560.2,163.4,560.2z M159,557.9c-0.1,0-0.2,0-0.3,0c-0.6-0.2-1.2-0.3-1.8-0.4c-0.5-0.1-0.9-0.6-0.8-1.2
		c0.1-0.5,0.6-0.9,1.2-0.8c0.7,0.1,1.4,0.3,2.1,0.5c0.5,0.2,0.8,0.7,0.7,1.2C159.8,557.6,159.4,557.9,159,557.9z M154.1,557.1
		C154.1,557.1,154.1,557.1,154.1,557.1l-0.3,0c0,0,0,0,0,0c-0.5,0-1-0.4-1-1c0-0.6,0.4-1,1-1l0.4,0c0.6,0,1,0.5,1,1
		C155.1,556.7,154.6,557.1,154.1,557.1z"/>
	<path fill="#66FFFF" d="M170.2,567.7c-0.5,0-1-0.4-1-1l0-0.3c0-0.6,0.1-1.3,0.2-1.9c0.1-0.5,0.7-0.9,1.2-0.7
		c0.5,0.1,0.9,0.7,0.7,1.2c-0.1,0.5-0.2,1-0.2,1.5l0,0.2C171.2,567.3,170.8,567.7,170.2,567.7C170.2,567.7,170.2,567.7,170.2,567.7z
		 M171.6,563c-0.2,0-0.4-0.1-0.6-0.2c-0.5-0.3-0.6-0.9-0.3-1.4c0.4-0.6,0.9-1.2,1.5-1.7c0.4-0.4,1-0.3,1.4,0.1s0.3,1-0.1,1.4
		c-0.4,0.4-0.8,0.8-1.2,1.3C172.2,562.9,171.9,563,171.6,563z M175.4,559.9c-0.4,0-0.8-0.2-0.9-0.6c-0.2-0.5,0-1.1,0.5-1.3
		c0.7-0.3,1.4-0.5,2.1-0.6c0.5-0.1,1.1,0.3,1.1,0.8s-0.3,1.1-0.8,1.1c-0.6,0.1-1.1,0.3-1.7,0.5C175.7,559.9,175.6,559.9,175.4,559.9
		z M181.8,559.9c-0.1,0-0.2,0-0.4-0.1c-0.4-0.2-0.9-0.3-1.3-0.4c-0.5-0.1-0.9-0.6-0.8-1.2c0.1-0.5,0.6-0.9,1.2-0.8
		c0.6,0.1,1.1,0.3,1.7,0.5c0.5,0.2,0.8,0.8,0.6,1.3C182.6,559.6,182.2,559.9,181.8,559.9z"/>
</g>
<g>
	<ellipse fill="#ADAEB0" cx="237.7" cy="579.7" rx="16.2" ry="5.9"/>
	<path fill="#4AB749" d="M250.9,552.2c-2.3-0.8-4.8-0.1-7,1.5c-1-1.5-2.3-2.9-3.6-4.1c-4.7-2.5-8.8-1.6-12.5,0
		c-3,2.5-5.2,6.2-6.4,10.4c-5.1-1.9-9.2-5.4-11.7-10.4h-3.2c2.3,7.4,7.5,13.9,14.1,17.3c0,5.5-0.5,10.4,2.5,14
		c7.5,2.9,14.8,3.1,21.9,0c1.7-2,2.3-4.3,2.5-7c3.3-0.8,6.4-3.9,7.9-8.3C257.4,559.7,255.4,553.6,250.9,552.2z M253.6,565
		c-1.1,3.3-3.4,5.6-5.9,6.3c0-1.6-0.1-3.3-0.1-5.1c0-3.9-0.9-7.6-2.5-10.7c1.6-1,3.4-1.4,5-0.9C253.5,555.8,255.1,560.5,253.6,565z"
		/>
	<g>
		<path fill="#339933" d="M251.6,568.6c1.4-1.1,2.6-2.9,3.3-4.9c1.5-4.6,0-9.2-3.4-10.3c-1.6-0.5-3.4-0.2-5,0.9
			c0.1,0.2,0.2,0.4,0.3,0.5c1.1-0.4,2.3-0.5,3.4-0.1c3.4,1.1,5,5.7,3.4,10.3C253.1,566.4,252.4,567.6,251.6,568.6z"/>
		<path fill="#339933" d="M222.9,558.7c0.9-3.4,2.6-6.4,4.7-8.8c-2.4,2.2-4.3,5.1-5.5,8.4C222.3,558.4,222.6,558.6,222.9,558.7z"/>
		<path fill="#339933" d="M248.9,572.6c0,0.3-0.1,0.6-0.1,0.9c1.4-0.6,2.8-1.6,3.9-3C251.6,571.6,250.3,572.3,248.9,572.6z"/>
		<path fill="#339933" d="M224.6,579.6c-3.1-3.6-2.6-8.5-2.5-14c-6.1-3.2-11.1-9.1-13.6-16h-1.8c2.3,7.4,7.5,13.9,14.1,17.3
			c0,5.5-0.5,10.4,2.5,14C230.7,583.9,231.9,582.4,224.6,579.6z"/>
	</g>
	<ellipse fill="#333333" cx="234.3" cy="550.9" rx="5.9" ry="2.3"/>
</g>
<polygon fill="#8D8D8E" points="53.4,447.5 56.1,463.6 65.7,463.6 67.5,447.5 "/>
<path fill="#727272" d="M72.5,418.4v10.3l0,0v4.8v12.7l-3.6,16.4l-3.3,1l2-16.4V431v-12.6"/>
<polygon fill="#636363" points="67.5,447.5 65.6,463.6 68.9,462.6 72.5,446.5 "/>
<polygon fill="#8D8D8E" points="68.9,442 51.7,442 51.7,437 68.9,437 "/>
<polygon fill="#606060" points="73.8,440.6 68.9,442 68.9,437 73.8,435.6 "/>
<polygon fill="#A8A8A8" points="79,440.5 73.8,440.6 73.8,435.6 79,435.5 "/>
<g>
	<path fill="#8D8D8E" d="M76,436.5c-0.8,0.1-1.5,0.8-1.5,1.6s0.6,1.5,1.5,1.6V436.5z"/>
	<path fill="#8D8D8E" d="M76.3,436.5v3.2c0.8-0.1,1.5-0.8,1.5-1.6S77.1,436.6,76.3,436.5z"/>
</g>
</svg>
