<?xml version="1.0" encoding="utf-8"?>
<!-- Generator: Adobe Illustrator 17.1.0, SVG Export Plug-In . SVG Version: 6.00 Build 0)  -->
<!DOCTYPE svg PUBLIC "-//W3C//DTD SVG 1.0//EN" "http://www.w3.org/TR/2001/REC-SVG-20010904/DTD/svg10.dtd">
<svg version="1.0" id="Layer_1" xmlns="http://www.w3.org/2000/svg" xmlns:xlink="http://www.w3.org/1999/xlink" x="0px" y="0px"
	 viewBox="0 0 640 330" enable-background="new 0 0 640 330" xml:space="preserve">
<g>
	<g>
		<g>
			<g>
				<path fill="#EE9AA8" d="M302.741,129.625c6.474-52.472-31.773-109.247-72.85-112.078c-15.762-1.086-24.372-6.222-52.014-1.072
					c-40.476,7.541-47.454,46.435-86.097,89.883c-35.136,39.505,21.577,97.304,62.651,100.136
					c15.763,1.086,31.133-4.214,44.481-14.07c11.129,13.962,26.324,22.944,43.945,24.159
					C283.933,219.414,296.267,182.097,302.741,129.625z"/>
			</g>
		</g>
		<g>
			<path fill="#C0C9B8" d="M241.611,141.333c-29.21-53.166-78.34-82.283-109.735-65.034c-12.047,6.619-28.423,37.449-31.669,53.327
				c39.905-66.899-50.658-48.78-65.433-44.553C-1.807,95.54,52.819,170.164,82.796,224.332
				c29.372,53.076,53.303,95.072,84.698,77.824c12.047-6.62,19.69-19.136,22.936-35.015c17.023,7.905,33.759,9.089,47.227,1.69
				C269.051,251.581,270.822,194.498,241.611,141.333z"/>
			<g>
				<path fill="#4CB749" d="M172.399,197.896l-43.381-66.882l54.649-35.446l43.381,66.884L172.399,197.896z M131.827,131.613
					l41.171,63.474l51.241-33.234l-41.171-63.476L131.827,131.613z"/>
				
					<rect x="139.786" y="145.225" transform="matrix(0.9997 0.0256 -0.0256 0.9997 3.7957 -4.0202)" fill="#4CB749" width="38.259" height="2.032"/>
				
					<rect x="184.728" y="110.861" transform="matrix(0.912 0.4101 -0.4101 0.912 69.5004 -64.7736)" fill="#4CB749" width="2.032" height="37.528"/>
			</g>
		</g>
		<path fill="#42652F" d="M370.79,188.939c0,34.853,6.595,63.107-28.258,63.107l-68.365-15.777
			c-34.853,0-63.107-28.254-63.107-63.107v-31.553c0-34.853,28.254-63.107,63.107-63.107l68.365-15.777
			c34.853,0,63.107,28.254,63.107,63.107L370.79,188.939z"/>
		<g>
			<circle fill="#E48A25" cx="274.58" cy="109.245" r="12.271"/>
			<circle fill="#58441B" cx="274.58" cy="103.55" r="2.847"/>
			<circle fill="#58441B" cx="274.58" cy="113.297" r="2.847"/>
		</g>
		<g>
			<circle fill="#E48A25" cx="290.528" cy="157.199" r="12.271"/>
			<circle fill="#58441B" cx="296.186" cy="156.555" r="2.847"/>
			<circle fill="#58441B" cx="286.501" cy="157.658" r="2.847"/>
		</g>
		<g>
			<path fill="#B88ABE" d="M224.856,87.362c-0.619,0-1.236-0.032-1.847-0.095c-2.64-0.274-3.537-4.45-4.575-9.282
				c-0.719-3.351-1.704-7.939-3.131-8.338c-2.036-0.577-5.651,2.337-8.741,4.888c-3.106,2.563-6.04,4.983-8.506,4.983
				c-0.58,0-1.118-0.131-1.6-0.393c-13.643-7.382-18.208-37.777-15.646-46.926c1.983-7.084,10.009-10.986,22.599-10.986
				c7.262,0,15.703,1.289,24.413,3.729c11.172,3.128,20.829,7.516,27.193,12.355c7.32,5.566,10.308,11.658,8.639,17.614
				C261.02,64.323,241.708,87.362,224.856,87.362z M214.723,67.54c0.392,0,0.771,0.052,1.128,0.151
				c2.609,0.73,3.561,5.168,4.57,9.867c0.648,3.013,1.625,7.566,2.799,7.689c15.993,1.631,35.95-21.849,38.479-30.883
				c1.801-6.425-3.309-11.948-7.913-15.449c-6.165-4.688-15.58-8.955-26.511-12.016c-8.534-2.39-16.786-3.654-23.865-3.654
				c-6.716,0-18.329,1.236-20.643,9.502c-2.497,8.917,2.292,37.902,14.657,44.593c1.51,0.801,4.779-1.841,7.847-4.372
				C208.503,70.3,211.847,67.54,214.723,67.54z"/>
			<path fill="#B88ABE" d="M236.175,63.926c-6.007,0-12.24-0.893-18.527-2.652c-21.967-6.152-37.031-21.184-33.58-33.508
				c2.392-8.544,12.956-13.851,27.568-13.851c6.008,0,12.242,0.893,18.53,2.654c21.966,6.15,37.031,21.182,33.579,33.508
				C261.353,58.619,250.79,63.926,236.175,63.926z M211.636,15.947c-13.662,0-23.476,4.739-25.612,12.367
				c-3.148,11.246,11.284,25.154,32.171,31.004c6.109,1.71,12.157,2.577,17.98,2.577c13.664,0,23.478-4.737,25.614-12.365
				c3.148-11.248-11.284-25.156-32.17-31.004C223.509,16.814,217.459,15.947,211.636,15.947z"/>
		</g>
	</g>
	<path fill="#CDDC2D" d="M372.523,287.595l0.058-0.771l5.058-67.61L386,107.445c0.611-8.175-3.101-15.118-8.292-15.506l-2.142-0.16
		c-5.192-0.388-9.895,5.925-10.507,14.1L353.14,265.194l-1.746-0.131l11.918-159.315c0.611-8.175-3.1-15.118-8.291-15.506
		l-1.966-0.147l-0.177-0.013l-24.07-1.801c-5.191-0.388-9.895,5.925-10.507,14.1l-0.058,0.771l-5.058,67.61l-8.361,111.769
		c-0.612,8.176,3.101,15.118,8.292,15.506l2.142,0.16c5.191,0.388,9.895-5.924,10.507-14.1l11.918-159.315l1.745,0.131
		l-11.917,159.315c-0.612,8.176,8.292,15.506,8.292,15.506s4.009,2.254,12.23,3.2c8.222,0.947,13.983-1.239,13.983-1.239
		S371.912,295.77,372.523,287.595z"/>
	<path fill="#FFC854" d="M574.16,75.101h-0.632h-55.389h-91.566c-6.698,0-12.127,4.648-12.127,10.382v2.367
		c0,5.734,5.429,10.382,12.127,10.382h130.518v1.928H426.572c-6.698,0-12.127,4.648-12.127,10.383v2.367
		c0,5.735,5.429,10.383,12.127,10.383h146.955c3.907,0,7.373-1.588,9.591-4.045c1.962-1.845,6.476-9.588,6.476-21.073
		S580.857,75.101,574.16,75.101z"/>
	<path fill="#8AA45E" d="M587.08,195.609h-0.703h-61.654H422.8c-7.455,0-13.499,6.044-13.499,13.499v3.078
		c0,7.455,6.044,13.499,13.499,13.499h145.281v2.506H422.8c-7.455,0-13.499,6.044-13.499,13.499v3.077
		c0,7.456,6.044,13.499,13.499,13.499h163.577c4.349,0,8.207-2.065,10.676-5.259c2.184-2.399,7.209-12.466,7.209-27.399
		C604.261,210.676,594.535,195.609,587.08,195.609z"/>
	<path fill="#895A81" d="M418.09,302.359h0.467h40.945h148.942c4.951,0,8.965-4.014,8.965-8.965v-2.044
		c0-4.951-4.014-8.965-8.965-8.965H430.708v-1.664h177.736c4.951,0,8.965-4.014,8.965-8.965v-2.044c0-4.951-4.014-8.965-8.965-8.965
		H418.557c-2.888,0-5.45,1.372-7.09,3.492c-1.45,1.593-4.787,8.279-4.787,18.196S413.139,302.359,418.09,302.359z"/>
	<path fill="#D7572B" d="M594.315,125.068h-0.774h-67.799H413.661c-8.198,0-14.844,4.22-14.844,9.426v2.148
		c0,5.206,6.646,9.426,14.844,9.426h159.76v1.751h-159.76c-8.198,0-14.844,4.219-14.844,9.425v1.972v0.178v24.137
		c0,5.205,6.646,9.426,14.844,9.426h0.774h67.799h112.081c8.198,0,14.844-4.22,14.844-9.426v-2.148
		c0-5.205-6.646-9.426-14.844-9.426h-159.76v-1.75h159.76c8.198,0,14.844-9.426,14.844-9.426s1.948-4.166,2.279-12.435
		s-2.279-13.851-2.279-13.851S602.513,125.068,594.315,125.068z"/>
	<g>
		<rect x="50.546" y="158.689" fill="#CFAA60" width="338.147" height="144.92"/>
		<rect x="95.136" y="194.61" fill="#020202" width="248.965" height="78.034"/>
		<g>
			<path fill="#FFFFFF" d="M122.16,215.546c2.433-0.367,5.325-0.641,8.492-0.641c5.739,0,9.825,1.331,12.532,3.854
				c2.754,2.525,4.361,6.106,4.361,11.109c0,5.051-1.561,9.181-4.453,12.027c-2.892,2.892-7.666,4.454-13.68,4.454
				c-2.847,0-5.233-0.139-7.254-0.367v-30.436L122.16,215.546L122.16,215.546z M126.154,242.906c1.01,0.184,2.479,0.23,4.04,0.23
				c8.538,0,13.174-4.775,13.174-13.128c0.047-7.3-4.086-11.936-12.531-11.936c-2.066,0-3.627,0.184-4.683,0.413
				C126.154,218.485,126.154,242.906,126.154,242.906z"/>
			<path fill="#FFFFFF" d="M172.887,234.78c0,8.219-5.692,11.799-11.063,11.799c-6.014,0-10.65-4.408-10.65-11.43
				c0-7.437,4.865-11.799,11.017-11.799C168.571,223.35,172.887,227.988,172.887,234.78z M155.259,235.01
				c0,4.866,2.8,8.538,6.748,8.538c3.856,0,6.748-3.626,6.748-8.629c0-3.765-1.882-8.538-6.655-8.538
				C157.324,226.381,155.259,230.787,155.259,235.01z"/>
			<path fill="#FFFFFF" d="M177.984,229.868c0-2.295-0.047-4.176-0.184-6.013h3.581l0.23,3.672h0.091
				c1.102-2.111,3.673-4.178,7.345-4.178c3.076,0,7.85,1.837,7.85,9.457v13.267h-4.039v-12.807c0-3.581-1.331-6.564-5.142-6.564
				c-2.662,0-4.728,1.881-5.417,4.13c-0.184,0.506-0.276,1.194-0.276,1.883v13.359h-4.039L177.984,229.868L177.984,229.868z"/>
			<path fill="#FFFFFF" d="M215.764,246.074l-0.321-2.801h-0.138c-1.24,1.746-3.626,3.307-6.794,3.307
				c-4.498,0-6.793-3.168-6.793-6.382c0-5.37,4.774-8.308,13.359-8.262v-0.46c0-1.835-0.505-5.14-5.05-5.14
				c-2.066,0-4.223,0.643-5.785,1.652l-0.917-2.664c1.836-1.192,4.498-1.974,7.298-1.974c6.794,0,8.447,4.638,8.447,9.09v8.31
				c0,1.928,0.092,3.809,0.367,5.324L215.764,246.074L215.764,246.074z M215.167,234.735c-4.407-0.091-9.41,0.688-9.41,5.005
				c0,2.617,1.744,3.854,3.81,3.854c2.892,0,4.728-1.835,5.371-3.718c0.138-0.413,0.229-0.873,0.229-1.285V234.735z"/>
			<path fill="#FFFFFF" d="M230.27,217.474v6.382h5.785v3.075h-5.785v11.982c0,2.753,0.782,4.315,3.031,4.315
				c1.055,0,1.835-0.137,2.341-0.276l0.182,3.031c-0.78,0.321-2.019,0.549-3.581,0.549c-1.881,0-3.396-0.595-4.36-1.698
				c-1.147-1.192-1.561-3.168-1.561-5.785V226.93h-3.442v-3.075h3.442v-5.324L230.27,217.474z"/>
			<path fill="#FFFFFF" d="M245.098,217.613c0.046,1.377-0.964,2.478-2.571,2.478c-1.422,0-2.432-1.101-2.432-2.478
				c0-1.424,1.055-2.525,2.523-2.525C244.134,215.088,245.098,216.189,245.098,217.613z M240.599,246.074v-22.218h4.041v22.218
				H240.599z"/>
			<path fill="#FFFFFF" d="M271.448,234.78c0,8.219-5.693,11.799-11.063,11.799c-6.013,0-10.651-4.408-10.651-11.43
				c0-7.437,4.866-11.799,11.018-11.799C267.134,223.35,271.448,227.988,271.448,234.78z M253.821,235.01
				c0,4.866,2.799,8.538,6.749,8.538c3.854,0,6.747-3.626,6.747-8.629c0-3.765-1.883-8.538-6.655-8.538
				C255.886,226.381,253.821,230.787,253.821,235.01z"/>
			<path fill="#FFFFFF" d="M276.545,229.868c0-2.295-0.046-4.176-0.182-6.013h3.581l0.228,3.672h0.093
				c1.101-2.111,3.672-4.178,7.344-4.178c3.077,0,7.85,1.837,7.85,9.457v13.267h-4.039v-12.807c0-3.581-1.331-6.564-5.142-6.564
				c-2.662,0-4.727,1.881-5.418,4.13c-0.183,0.506-0.274,1.194-0.274,1.883v13.359h-4.041V229.868z"/>
			<path fill="#FFFFFF" d="M301.474,241.942c1.192,0.782,3.305,1.607,5.324,1.607c2.938,0,4.315-1.468,4.315-3.305
				c0-1.928-1.147-2.984-4.132-4.085c-3.993-1.424-5.876-3.626-5.876-6.29c0-3.581,2.892-6.519,7.667-6.519
				c2.25,0,4.223,0.643,5.463,1.379l-1.01,2.938c-0.873-0.551-2.48-1.285-4.545-1.285c-2.388,0-3.72,1.377-3.72,3.029
				c0,1.837,1.331,2.662,4.223,3.763c3.856,1.47,5.83,3.398,5.83,6.703c0,3.902-3.029,6.655-8.308,6.655
				c-2.434,0-4.684-0.595-6.245-1.514L301.474,241.942z"/>
		</g>
	</g>
	<g>
		<path fill="#EE9AA8" d="M96.884,170.166c-8.747,11.17-10.511,14.38-21.68,5.633l-9.001-5.801
			c-4.723-3.699-14.756-4.183-16.073-9.592c-1.798-7.383,1.258-15.469,6.306-21.916l78.773-100.589
			c8.747-11.169,24.893-13.133,36.062-4.386l0,0c11.17,8.747,13.133,24.893,4.387,36.062L96.884,170.166z"/>
		<polygon fill="#EE9AA8" points="68.733,196.982 61.079,192.414 68.902,174.908 58.702,190.996 38.919,179.191 48.677,162.839 
			78.491,180.63 		"/>
	</g>
</g>
</svg>
