<?xml version="1.0" encoding="utf-8"?>
<!-- Generator: Adobe Illustrator 17.1.0, SVG Export Plug-In . SVG Version: 6.00 Build 0)  -->
<svg version="1.2" baseProfile="tiny" id="Layer_1" xmlns="http://www.w3.org/2000/svg" xmlns:xlink="http://www.w3.org/1999/xlink"
	 x="0px" y="0px" viewBox="0 0 300 300" xml:space="preserve">
<g>
	<circle fill="#009AEF" cx="150" cy="150" r="149.7"/>
	<g>
		<circle fill="none" cx="150" cy="150" r="149.7"/>
		<path fill="#A9C738" d="M292.1,197.3c-13.7-1.7-32.6-4.1-58.6-7.5c-87.3-11.4-79.1-7.8-149.1,0.6c-32,3.8-57.6,6.4-76.1,8.1
			c20.2,58.9,76,101.2,141.7,101.2C216.2,299.7,272.3,256.8,292.1,197.3z"/>
		<circle fill="none" cx="150" cy="150" r="149.7"/>
		<g>
			<path fill="#FFE500" d="M268.2,58.1c-0.1,0-0.3-0.1-0.4-0.1c0.1-0.1,0.2-0.1,0.2-0.2c-5.1-6.5-10.7-12.5-16.7-18.1
				c-0.2,0.3-0.5,0.7-0.7,1c-0.2-0.7-0.3-1.4-0.5-2.1c-2.8-2.5-5.7-5-8.7-7.3c-0.6,3-1.2,6-1.9,8.9c-3.6-5.4-7-11.1-10.2-17.3
				c-0.3-0.2-0.7-0.4-1-0.6c2.1,7.3,3.7,14.4,4.8,21.3c-9.2-5.7-18.3-12.3-27.4-19.8l-0.4,0.4c7.3,8.8,13.7,17.7,19.3,26.5
				c-6.8-1.4-13.9-3.3-21-5.6l-0.2,0.4c6.9,3.9,13.4,7.9,19.3,12.2c-10.5,2.5-21.7,4.3-33.5,5.4v0.6c11.6,1.1,22.6,2.9,33,5.3
				c-5.9,4.1-12.2,8-19.1,11.6l0.2,0.4c7.4-2.3,14.6-4,21.6-5.3c-5.6,9-12.1,18-19.5,27l0.4,0.4c8.9-7.3,17.8-13.8,26.7-19.4
				c-1.3,6.9-3.2,14-5.5,21.3l0.4,0.2c3.8-6.9,7.8-13.3,12-19.2c2.4,10.5,4.2,21.6,5.4,33.3h0.6c1.1-11.5,2.8-22.4,5.2-32.8
				c4,5.9,7.8,12.2,11.4,19l0.4-0.2c-2.2-7.5-4-14.8-5.2-21.9c9.1,5.6,18.1,12.2,27.2,19.6l0.4-0.4c-7.5-9.1-14.1-18.3-19.8-27.4
				c5.5,0.9,11.2,2.1,17,3.6c-0.5-0.9-1-1.8-1.5-2.7c-4.2-2.3-8.2-4.8-12-7.3c2.2-0.5,4.4-1,6.6-1.4
				C272.9,64.4,270.6,61.2,268.2,58.1z M245,81.4c-9.8,0-17.8-8-17.8-17.8s8-17.8,17.8-17.8s17.8,8,17.8,17.8S254.9,81.4,245,81.4z"
				/>
			<circle fill="#CE3727" cx="245" cy="63.6" r="16.4"/>
		</g>
		<circle fill="none" cx="150" cy="150" r="149.7"/>
		<path fill="#8DB23E" d="M52.2,213.8c-14-0.4-26.8-0.9-38.3-1.4c23.7,51.5,75.7,87.4,136.1,87.4c43.1,0,82-18.2,109.3-47.4
			c-13.5-3.8-32.6-9.2-59.6-16.9C115,211.2,122.6,215.9,52.2,213.8z"/>
	</g>
	<g>
		<polygon fill="#A59243" points="229,152.7 151.9,152.7 109.1,104.1 187.5,104.1 		"/>
		<polygon fill="#0D0F13" points="201.1,145.6 180.7,145.6 145.9,106.5 167.6,106.5 		"/>
		<polygon fill="#0D0F13" points="226.1,145.6 205.7,145.6 170.9,106.5 192.6,106.5 		"/>
		<polygon fill="#0D0F13" points="175.5,145.6 155.1,145.6 120.3,106.5 142,106.5 		"/>
		<polygon fill="#3856A6" points="202.9,143.8 182.5,143.8 147.7,104.7 169.4,104.7 		"/>
		<polygon fill="#3856A6" points="227.9,143.8 207.5,143.8 172.7,104.7 194.4,104.7 		"/>
		<polygon fill="#3856A6" points="177.3,143.8 156.9,143.8 122.2,104.7 143.9,104.7 		"/>
		<polygon fill="#A59243" points="79.1,158.1 66.4,158 107.5,107.5 112.7,114.5 		"/>
		<polygon fill="#E0C99D" points="114.7,117.2 81.1,158.5 81.6,189.7 150.8,189.7 150.8,155.9 		"/>
		<rect x="150.8" y="155.9" fill="#F5E7D6" width="63.7" height="33.8"/>
		<polygon fill="#B15326" points="95.3,119.9 84.9,133 84.9,112.2 95.3,112.2 		"/>
	</g>
</g>
<g>
	<path fill="#0D4566" d="M90.5,246h-7.2l-1.4,5.6h-5.4l7.4-23.5h6.3l7.4,23.5H92L90.5,246z M89.5,241.9l-0.6-2.2
		c-0.6-2.3-1.3-5.1-1.9-7.6h-0.1c-0.5,2.5-1.2,5.2-1.8,7.6l-0.6,2.2H89.5z"/>
	<path fill="#0D4566" d="M103.2,232.6h-6.5v-4.5h18.2v4.5h-6.4v19h-5.3V232.6z"/>
	<path fill="#0D4566" d="M126.1,228.1h5.3v9h8.1v-9h5.3v23.5h-5.3v-9.8h-8.1v9.8h-5.3V228.1z"/>
	<path fill="#0D4566" d="M149.1,239.7c0-7.7,4.4-12.1,10.7-12.1c6.3,0,10.7,4.4,10.7,12.1c0,7.7-4.3,12.3-10.7,12.3
		C153.5,252,149.1,247.4,149.1,239.7z M165,239.7c0-4.7-2-7.5-5.2-7.5c-3.2,0-5.2,2.8-5.2,7.5c0,4.7,2.1,7.7,5.2,7.7
		C163,247.4,165,244.4,165,239.7z"/>
	<path fill="#0D4566" d="M174.9,228.1h5.6l3.9,10.5l1.4,4.1h0.1l1.4-4.1l3.8-10.5h5.6v23.5h-5V243c0-2.3,0.4-5.7,0.7-8h-0.1
		l-1.9,5.4l-3.6,9.1h-2.1l-3.6-9.1l-1.9-5.4h-0.1c0.3,2.3,0.7,5.7,0.7,8v8.6h-4.9V228.1z"/>
	<path fill="#0D4566" d="M202.2,228.1H217v4.5h-9.4v4.7h8v4.4h-8v5.4h9.8v4.5h-15.1V228.1z"/>
</g>
</svg>
