<?xml version="1.0" encoding="utf-8"?>
<!-- Generator: Adobe Illustrator 17.1.0, SVG Export Plug-In . SVG Version: 6.00 Build 0)  -->
<svg version="1.2" baseProfile="tiny" id="Layer_1" xmlns="http://www.w3.org/2000/svg" xmlns:xlink="http://www.w3.org/1999/xlink"
	 x="0px" y="0px" viewBox="33 164.2 843 812.3" xml:space="preserve">
<g>

		<path fill="#DDA673" d="M585.8,332.5l2.3-0.9c17.6-11.3,7.9-3.5,14.9-23.1c0.7-1.9-30.4-17.4-30.4-17.4s-9.7-9.2-15.8-13.1
							c-7.2-4.6-24.1,9.9-6.2,13.5c3.5,0.7,10.8,5.8,10,10.5c-2.5,15.1,6.5,21.3,6.5,21.3C570.8,326,580.7,334.3,585.8,332.5z"/>
					
		<rect x="590.2" y="309.6" transform="matrix(0.8503 -0.5264 0.5264 0.8503 -73.7825 361.2993)" fill="#D19C6F" width="15.9" height="1.4"/>

		<path fill="#8B5E3C" d="M506,202.6l0,0.3c0,0,11.9,3.8,21,12.7c9.1,9,15.7,24.9,15.7,24.9s29.2,53.8,30.8,57l0,0
					c3.5,7.1,8.9,15.9,15.6,25.1c14.2,19.4,28.8,32.9,32.6,30.1c3.8-2.8-4.7-20.7-18.9-40.1c-6.8-9.2-13.6-17.1-19.3-22.6l0,0
					c-4.6-4.1-34-53.7-34-53.7s-11.9-20.7-18.1-26.6c-3.7-3.6-12.2-8-18.2-10.9c-1.7-0.2-3.2-0.1-4.7,0.5c-0.8,1-1.4,2-2.1,3
					C506.4,202.6,506.2,202.6,506,202.6z M611.6,344.2c-0.7-1.6,0-3.4,1.6-4.1c1.6-0.7,3.4,0,4.1,1.6c0.7,1.6,0,3.4-1.6,4.1
					C614.1,346.4,612.3,345.7,611.6,344.2z"/>

		<path fill="#DDA673" d="M587.4,316.4c-1.6-3.2,0.7-7.1,4.3-10.9c5.2-5.4,12.7-8.3,15.2-5.1c2.5,3.2-0.3,9.5-6.2,14.1
						C594.8,319,588.4,318.2,587.4,316.4z"/>

		<path fill="#DDA673" d="M581.9,306.7c-2.6-3.1,0-9.5,5.8-14.2c5.8-4.8,12.5-6.1,15.1-3c2.6,3.1-1.7,8.7-7.4,13.4
						C589.6,307.6,584.5,309.8,581.9,306.7z"/>

		<path fill="#DDA673" d="M575.9,296.6c-2.7-3-0.5-9.5,5-14.5c5.5-5.1,12.2-6.8,14.9-3.8c2.7,3-0.2,7.9-5.7,13
						C584.7,296.3,578.7,299.6,575.9,296.6z"/>

		<path fill="#DDA673" d="M565.5,287.1c-2.5-3.1,0.1-9.5,6-14.2c5.8-4.7,12.6-6,15.1-2.8c2.5,3.1-0.6,7.7-6.4,12.4
						C574.3,287.3,568,290.3,565.5,287.1z"/>

		<polygon fill="#DDA673" points="613.7,455.2 583.5,328.2 569,316.7 577.4,437.2 			"/>

		<path fill="#DDC4B3" d="M475.2,206.8c-1-1.3-1.6-2.9-1.5-4.9c0.2-4.4,2.4-8.7,5.5-12.5c0.4-1.8,1.6-3.5,3.7-4.6
			c1-0.5,1.9-1,2.8-1.5c1.6-1.2,3.2-2.3,4.8-3.2c0.6-0.3,1.1-0.5,1.6-0.6c1.7-1.4,4-2,6.7-0.7c20.1,9.2,32,27.6,43.9,45.4
			c1.4,0.8,2.5,2,3.3,3.2c1.1,2,2,4,3,6.1c1.7,3.9-0.6,7.7-3.8,9.3c-0.3,7.1-7.8,12.5-14.2,17.2c-4.5,3.2-10.2,4.2-14.4-0.1
			c-1.8-1.9-2.9-4.3-3.9-6.7c-1.4-3.4-4.4-5.1-7.1-7.4c-6.4-5.4-11.9-12.3-17.4-18.5c-3.4-3.9-6.7-7.7-9.4-12.1
			C477.1,212.3,475.9,209.6,475.2,206.8z"/>
		<circle fill="#FFFFFF" cx="481.7" cy="193" r="6.6"/>
		<circle fill="#FFFFFF" cx="494.7" cy="296.4" r="17.2"/>
		<circle fill="#FFFFFF" cx="413.4" cy="245.3" r="9.6"/>
		<circle fill="#FFFFFF" cx="529.8" cy="367" r="11"/>
		<circle fill="#FFFFFF" cx="515.3" cy="255.2" r="4.4"/>
		<circle fill="#FFFFFF" cx="498.6" cy="198.4" r="5.2"/>
	<path fill="#FFFFFF" d="M484.7,213.4c2.9-0.4,5.7,0.6,7.7,2.5c1.5-5.5,6.2-9.8,12.3-10.6c7.9-1,15.2,4.6,16.1,12.5
			c0.3,2.5-0.1,5-1,7.2c0.5-0.1,1-0.3,1.5-0.3c5.5-0.7,10.5,3.4,11.1,9c0.7,5.6-3.2,10.7-8.6,11.4c-5.5,0.7-10.5-3.4-11.1-9
			c-0.2-1.3-0.1-2.5,0.2-3.7c-1.5,0.7-3,1.2-4.8,1.4c-5.3,0.7-10.3-1.6-13.3-5.5c-1.4,3-4.2,5.2-7.7,5.6c-5.5,0.7-10.5-3.4-11.1-9
			C475.4,219.1,479.2,214,484.7,213.4z"/>

	<path fill="#587583" d="M173.4,173.8c0.1,0.2,0.1,0.4,0.3,0.5c0.4,0.6,0.6,1.2,0.6,1.8c0,0,0,0.1,0,0.2c0.1-0.1,0.2-0.2,0.3-0.2
				c2.2,4.1,2.8,8.4,3.5,14.1c0.3,2.6,0.6,5.6,1.2,8.9c2.1,12.8,8.9,22,9.6,22.8c-15,15.5-16.8,38.6-3.5,55.5c0,0.1,0.8,0.8,0.8,0.9
				c0.2,0.2,1.2,1.1,8,7.4l4-3.2l0.3-0.2l57.3-45.2l0.6-0.5l2.8-2.2c-4.4-8.2-5.7-10.1-5.8-10.1c-12.9-16.3-35-20.8-53.1-11.1
				c0-0.1-0.1-0.2-0.1-0.2c-0.1-0.1-6.7-8.7-8.6-20.6c-0.5-3.3-0.9-6.2-1.2-8.7c-0.7-5.7-1.2-10.2-3.4-14.8c0,0,0,0,0,0
				c-0.2-0.3-0.3-0.5-0.4-0.7c-0.4-0.5-0.6-1.1-0.6-1.7c-0.8-0.6-1.2-1.5-1.3-2.3c-0.2,0.1-0.3,0.1-0.5,0.2c0,0,0-0.1-0.1-0.1
				c-0.6,0.2-4.3,2.2-4.6,2.3c0,0,0.2,0.2,0.1,0.3c4.4,5.4,4.7,9.9,5.6,17.4c0.3,2.6,0.6,5.6,1.2,8.9c2,12.4,8.5,21.4,9.5,22.7
				c-0.9,0.6-1.8,1.2-2.6,1.9c-0.2,0.2-0.4,0.4-0.6,0.5c-1.4-1.9-6.6-9.8-8.3-20.1c-0.5-3.3-0.9-6.2-1.2-8.7
				c-0.9-8.1-1.6-13.9-7.3-20.7c-0.3,0.2-3.1,2-3.9,2.7c-0.1,0-0.2,0.1-0.3,0.1c-0.1,0-0.1,0.1-0.2,0.1
				C172.3,172.2,173,172.8,173.4,173.8z"/>

	<path fill="#F5E7D6" d="M193.8,270.9c-0.8,0-1.6-0.4-2.2-1.1c-0.3-0.5-8.3-11.2-8.2-22.2c0-1.5,1.1-2.6,2.8-2.7
			c1.5,0,2.7,1.3,2.7,2.8c-0.1,9.2,7,18.7,7.1,18.8c0.9,1.2,0.7,2.9-0.5,3.9C195,270.7,194.4,270.9,193.8,270.9z"/>

	<path fill="#0EBBD6" d="M232.9,270c-0.8,0-1.6-0.4-2.2-1.1l-1.7-2.2c-0.9-1.2-0.7-2.9,0.5-3.9c1.2-0.9,2.9-0.7,3.9,0.5l1.7,2.2
				c0.9,1.2,0.7,2.9-0.5,3.9C234.1,269.8,233.5,270,232.9,270z"/>
	<path fill="#0EBBD6" d="M388.1,471c-0.8,0-1.6-0.4-2.2-1.1l-3.2-4.2c-0.9-1.2-0.7-2.9,0.5-3.9c1.2-0.9,2.9-0.7,3.9,0.5l3.2,4.2
				c0.9,1.2,0.7,2.9-0.5,3.9C389.3,470.8,388.7,471,388.1,471z M375.2,454.2c-0.8,0-1.6-0.4-2.2-1.1l-3.2-4.2
				c-0.9-1.2-0.7-2.9,0.5-3.9c1.2-0.9,2.9-0.7,3.9,0.5l3.2,4.2c0.9,1.2,0.7,2.9-0.5,3.9C376.4,454,375.8,454.2,375.2,454.2z
				 M362.3,437.5c-0.8,0-1.6-0.4-2.2-1.1l-3.2-4.2c-0.9-1.2-0.7-2.9,0.5-3.9c1.2-0.9,2.9-0.7,3.9,0.5l3.2,4.2
				c0.9,1.2,0.7,2.9-0.5,3.9C363.4,437.3,362.8,437.5,362.3,437.5z M349.3,420.7c-0.8,0-1.6-0.4-2.2-1.1l-3.2-4.2
				c-0.9-1.2-0.7-2.9,0.5-3.9c1.2-0.9,2.9-0.7,3.9,0.5l3.2,4.2c0.9,1.2,0.7,2.9-0.5,3.9C350.5,420.6,349.9,420.7,349.3,420.7z
				 M336.4,404c-0.8,0-1.6-0.4-2.2-1.1l-3.2-4.2c-0.9-1.2-0.7-2.9,0.5-3.9c1.2-0.9,2.9-0.7,3.9,0.5l3.2,4.2c0.9,1.2,0.7,2.9-0.5,3.9
				C337.6,403.8,337,404,336.4,404z M323.5,387.2c-0.8,0-1.6-0.4-2.2-1.1L318,382c-0.9-1.2-0.7-2.9,0.5-3.9c1.2-0.9,2.9-0.7,3.9,0.5
				l3.2,4.2c0.9,1.2,0.7,2.9-0.5,3.9C324.6,387.1,324,387.2,323.5,387.2z M310.5,370.5c-0.8,0-1.6-0.4-2.2-1.1l-3.2-4.2
				c-0.9-1.2-0.7-2.9,0.5-3.9c1.2-0.9,2.9-0.7,3.9,0.5l3.2,4.2c0.9,1.2,0.7,2.9-0.5,3.9C311.7,370.3,311.1,370.5,310.5,370.5z
				 M297.6,353.7c-0.8,0-1.6-0.4-2.2-1.1l-3.2-4.2c-0.9-1.2-0.7-2.9,0.5-3.9c1.2-0.9,2.9-0.7,3.9,0.5l3.2,4.2
				c0.9,1.2,0.7,2.9-0.5,3.9C298.8,353.6,298.2,353.7,297.6,353.7z M284.7,337c-0.8,0-1.6-0.4-2.2-1.1l-3.2-4.2
				c-0.9-1.2-0.7-2.9,0.5-3.9c1.2-0.9,2.9-0.7,3.9,0.5l3.2,4.2c0.9,1.2,0.7,2.9-0.5,3.9C285.8,336.8,285.3,337,284.7,337z
				 M271.7,320.3c-0.8,0-1.6-0.4-2.2-1.1l-3.2-4.2c-0.9-1.2-0.7-2.9,0.5-3.9c1.2-0.9,2.9-0.7,3.9,0.5l3.2,4.2
				c0.9,1.2,0.7,2.9-0.5,3.9C272.9,320.1,272.3,320.3,271.7,320.3z M258.8,303.5c-0.8,0-1.6-0.4-2.2-1.1l-3.2-4.2
				c-0.9-1.2-0.7-2.9,0.5-3.9c1.2-0.9,2.9-0.7,3.9,0.5l3.2,4.2c0.9,1.2,0.7,2.9-0.5,3.9C260,303.3,259.4,303.5,258.8,303.5z
				 M245.9,286.8c-0.8,0-1.6-0.4-2.2-1.1l-3.2-4.2c-0.9-1.2-0.7-2.9,0.5-3.9c1.2-0.9,2.9-0.7,3.9,0.5l3.2,4.2
				c0.9,1.2,0.7,2.9-0.5,3.9C247,286.6,246.5,286.8,245.9,286.8z"/>
	<path fill="#0EBBD6" d="M399.5,485.7c-0.8,0-1.6-0.4-2.2-1.1l-1.7-2.2c-0.9-1.2-0.7-2.9,0.5-3.9c1.2-0.9,2.9-0.7,3.9,0.5l1.7,2.2
				c0.9,1.2,0.7,2.9-0.5,3.9C400.7,485.5,400.1,485.7,399.5,485.7z"/>

	<path fill="#0EBBD6" d="M218.8,281.3c-0.9,0-1.8-0.4-2.3-1.2l-1.5-2.3c-0.8-1.3-0.5-3,0.8-3.8c1.3-0.8,3-0.5,3.8,0.8l1.5,2.3
				c0.8,1.3,0.5,3-0.8,3.8C219.8,281.2,219.3,281.3,218.8,281.3z"/>
	<path fill="#0EBBD6" d="M327,446.3c-0.9,0-1.8-0.4-2.3-1.2l-3-4.6c-0.8-1.3-0.5-3,0.8-3.8c1.2-0.8,3-0.5,3.8,0.8l3,4.6
				c0.8,1.3,0.5,3-0.8,3.8C328,446.1,327.5,446.3,327,446.3z M315,428c-0.9,0-1.8-0.4-2.3-1.2l-3-4.6c-0.8-1.3-0.5-3,0.8-3.8
				c1.2-0.8,3-0.5,3.8,0.8l3,4.6c0.8,1.3,0.5,3-0.8,3.8C316,427.8,315.5,428,315,428z M302.9,409.6c-0.9,0-1.8-0.4-2.3-1.2l-3-4.6
				c-0.8-1.3-0.5-3,0.8-3.8c1.2-0.8,3-0.5,3.8,0.8l3,4.6c0.8,1.3,0.5,3-0.8,3.8C304,409.5,303.5,409.6,302.9,409.6z M290.9,391.3
				c-0.9,0-1.8-0.4-2.3-1.2l-3-4.6c-0.8-1.3-0.5-3,0.8-3.8c1.2-0.8,3-0.5,3.8,0.8l3,4.6c0.8,1.3,0.5,3-0.8,3.8
				C292,391.1,291.4,391.3,290.9,391.3z M278.9,373c-0.9,0-1.8-0.4-2.3-1.2l-3-4.6c-0.8-1.3-0.5-3,0.8-3.8c1.2-0.8,3-0.5,3.8,0.8
				l3,4.6c0.8,1.3,0.5,3-0.8,3.8C279.9,372.8,279.4,373,278.9,373z M266.9,354.6c-0.9,0-1.8-0.4-2.3-1.2l-3-4.6
				c-0.8-1.3-0.5-3,0.8-3.8c1.3-0.8,3-0.5,3.8,0.8l3,4.6c0.8,1.3,0.5,3-0.8,3.8C267.9,354.5,267.4,354.6,266.9,354.6z M254.8,336.3
				c-0.9,0-1.8-0.4-2.3-1.2l-3-4.6c-0.8-1.3-0.5-3,0.8-3.8c1.2-0.8,3-0.5,3.8,0.8l3,4.6c0.8,1.3,0.5,3-0.8,3.8
				C255.9,336.1,255.4,336.3,254.8,336.3z M242.8,318c-0.9,0-1.8-0.4-2.3-1.2l-3-4.6c-0.8-1.3-0.5-3,0.8-3.8c1.2-0.8,3-0.5,3.8,0.8
				l3,4.6c0.8,1.3,0.5,3-0.8,3.8C243.9,317.8,243.3,318,242.8,318z M230.8,299.6c-0.9,0-1.8-0.4-2.3-1.2l-3-4.6
				c-0.8-1.3-0.5-3,0.8-3.8c1.2-0.8,3-0.5,3.8,0.8l3,4.6c0.8,1.3,0.5,3-0.8,3.8C231.8,299.5,231.3,299.6,230.8,299.6z"/>
	<path fill="#0EBBD6" d="M337.5,462.3c-0.9,0-1.8-0.4-2.3-1.2l-1.5-2.3c-0.8-1.3-0.5-3,0.8-3.8c1.2-0.8,3-0.5,3.8,0.8l1.5,2.3
				c0.8,1.3,0.5,3-0.8,3.8C338.6,462.2,338,462.3,337.5,462.3z"/>

	<path fill="#0EBBD6" d="M204.5,292.6c-1,0-1.9-0.5-2.4-1.5l-1.3-2.4c-0.7-1.3-0.2-3,1.1-3.7c1.3-0.7,3-0.2,3.7,1.1l1.3,2.4
				c0.7,1.3,0.2,3-1.1,3.7C205.4,292.5,205,292.6,204.5,292.6z"/>
	<path fill="#0EBBD6" d="M289.7,453.1c-1,0-1.9-0.5-2.4-1.5l-2.7-5c-0.7-1.3-0.2-3,1.1-3.7c1.3-0.7,3-0.2,3.7,1.1l2.7,5
				c0.7,1.3,0.2,3-1.1,3.7C290.5,453,290.1,453.1,289.7,453.1z M279,433c-1,0-1.9-0.5-2.4-1.5l-2.7-5c-0.7-1.3-0.2-3,1.1-3.7
				c1.3-0.7,3-0.2,3.7,1.1l2.7,5c0.7,1.3,0.2,3-1.1,3.7C279.9,432.9,279.5,433,279,433z M268.4,413c-1,0-1.9-0.5-2.4-1.5l-2.7-5
				c-0.7-1.3-0.2-3,1.1-3.7c1.3-0.7,3-0.2,3.7,1.1l2.7,5c0.7,1.3,0.2,3-1.1,3.7C269.3,412.8,268.8,413,268.4,413z M257.7,392.9
				c-1,0-1.9-0.5-2.4-1.5l-2.7-5c-0.7-1.3-0.2-3,1.1-3.7c1.3-0.7,3-0.2,3.7,1.1l2.7,5c0.7,1.3,0.2,3-1.1,3.7
				C258.6,392.8,258.2,392.9,257.7,392.9z M247.1,372.8c-1,0-1.9-0.5-2.4-1.5l-2.7-5c-0.7-1.3-0.2-3,1.1-3.7c1.3-0.7,3-0.2,3.7,1.1
				l2.7,5c0.7,1.3,0.2,3-1.1,3.7C248,372.7,247.5,372.8,247.1,372.8z M236.5,352.8c-1,0-1.9-0.5-2.4-1.5l-2.7-5
				c-0.7-1.3-0.2-3,1.1-3.7c1.3-0.7,3-0.2,3.7,1.1l2.7,5c0.7,1.3,0.2,3-1.1,3.7C237.3,352.7,236.9,352.8,236.5,352.8z M225.8,332.7
				c-1,0-1.9-0.5-2.4-1.5l-2.7-5c-0.7-1.3-0.2-3,1.1-3.7c1.3-0.7,3-0.2,3.7,1.1l2.7,5c0.7,1.3,0.2,3-1.1,3.7
				C226.7,332.6,226.3,332.7,225.8,332.7z M215.2,312.7c-1,0-1.9-0.5-2.4-1.5l-2.7-5c-0.7-1.3-0.2-3,1.1-3.7c1.3-0.7,3-0.2,3.7,1.1
				l2.7,5c0.7,1.3,0.2,3-1.1,3.7C216.1,312.5,215.6,312.7,215.2,312.7z"/>
	<path fill="#0EBBD6" d="M298.9,470.5c-1,0-1.9-0.5-2.4-1.5l-1.3-2.4c-0.7-1.3-0.2-3,1.1-3.7c1.3-0.7,3-0.2,3.7,1.1l1.3,2.4
				c0.7,1.3,0.2,3-1.1,3.7C299.8,470.4,299.4,470.5,298.9,470.5z"/>

	<path fill="#0EBBD6" d="M261.3,247.3c-0.6,0-1.3-0.2-1.8-0.7l-2.1-1.8c-1.1-1-1.3-2.7-0.3-3.9c1-1.2,2.7-1.3,3.9-0.3l2.1,1.8
				c1.1,1,1.3,2.7,0.3,3.9C262.8,247,262.1,247.3,261.3,247.3z"/>
	<path fill="#0EBBD6" d="M498.4,454.5c-0.6,0-1.3-0.2-1.8-0.7l-4.2-3.7c-1.1-1-1.3-2.7-0.3-3.9c1-1.2,2.7-1.3,3.9-0.3l4.2,3.7
				c1.1,1,1.3,2.7,0.3,3.9C499.9,454.2,499.2,454.5,498.4,454.5z M481.5,439.7c-0.6,0-1.3-0.2-1.8-0.7l-4.2-3.7
				c-1.1-1-1.3-2.7-0.3-3.9c1-1.2,2.7-1.3,3.9-0.3l4.2,3.7c1.1,1,1.3,2.7,0.3,3.9C483,439.4,482.2,439.7,481.5,439.7z M464.5,424.9
				c-0.6,0-1.3-0.2-1.8-0.7l-4.2-3.7c-1.1-1-1.3-2.7-0.3-3.9c1-1.2,2.7-1.3,3.9-0.3l4.2,3.7c1.1,1,1.3,2.7,0.3,3.9
				C466.1,424.6,465.3,424.9,464.5,424.9z M447.6,410.1c-0.6,0-1.3-0.2-1.8-0.7l-4.2-3.7c-1.1-1-1.3-2.7-0.3-3.9
				c1-1.2,2.7-1.3,3.9-0.3l4.2,3.7c1.1,1,1.3,2.7,0.3,3.9C449.1,409.8,448.4,410.1,447.6,410.1z M430.7,395.3
				c-0.6,0-1.3-0.2-1.8-0.7l-4.2-3.7c-1.1-1-1.3-2.7-0.3-3.9c1-1.2,2.7-1.3,3.9-0.3l4.2,3.7c1.1,1,1.3,2.7,0.3,3.9
				C432.2,395,431.4,395.3,430.7,395.3z M413.7,380.5c-0.6,0-1.3-0.2-1.8-0.7l-4.2-3.7c-1.1-1-1.3-2.7-0.3-3.9
				c1-1.1,2.7-1.3,3.9-0.3l4.2,3.7c1.1,1,1.3,2.7,0.3,3.9C415.2,380.2,414.5,380.5,413.7,380.5z M396.8,365.7
				c-0.6,0-1.3-0.2-1.8-0.7l-4.2-3.7c-1.1-1-1.3-2.7-0.3-3.9c1-1.1,2.7-1.3,3.9-0.3l4.2,3.7c1.1,1,1.3,2.7,0.3,3.9
				C398.3,365.4,397.6,365.7,396.8,365.7z M379.9,350.9c-0.6,0-1.3-0.2-1.8-0.7l-4.2-3.7c-1.1-1-1.3-2.7-0.3-3.9
				c1-1.1,2.7-1.3,3.9-0.3l4.2,3.7c1.1,1,1.3,2.7,0.3,3.9C381.4,350.6,380.6,350.9,379.9,350.9z M362.9,336.1
				c-0.6,0-1.3-0.2-1.8-0.7l-4.2-3.7c-1.1-1-1.3-2.7-0.3-3.9c1-1.1,2.7-1.3,3.9-0.3l4.2,3.7c1.1,1,1.3,2.7,0.3,3.9
				C364.4,335.8,363.7,336.1,362.9,336.1z M346,321.3c-0.6,0-1.3-0.2-1.8-0.7l-4.2-3.7c-1.1-1-1.3-2.7-0.3-3.9
				c1-1.1,2.7-1.3,3.9-0.3l4.2,3.7c1.1,1,1.3,2.7,0.3,3.9C347.5,321,346.7,321.3,346,321.3z M329,306.5c-0.6,0-1.3-0.2-1.8-0.7
				l-4.2-3.7c-1.1-1-1.3-2.7-0.3-3.9c1-1.1,2.7-1.3,3.9-0.3l4.2,3.7c1.1,1,1.3,2.7,0.3,3.9C330.6,306.2,329.8,306.5,329,306.5z
				 M312.1,291.7c-0.6,0-1.3-0.2-1.8-0.7l-4.2-3.7c-1.1-1-1.3-2.7-0.3-3.9c1-1.1,2.7-1.3,3.9-0.3l4.2,3.7c1.1,1,1.3,2.7,0.3,3.9
				C313.6,291.4,312.9,291.7,312.1,291.7z M295.2,276.9c-0.6,0-1.3-0.2-1.8-0.7l-4.2-3.7c-1.1-1-1.3-2.7-0.3-3.9
				c1-1.1,2.7-1.3,3.9-0.3l4.2,3.7c1.1,1,1.3,2.7,0.3,3.9C296.7,276.6,295.9,276.9,295.2,276.9z M278.2,262.1
				c-0.6,0-1.3-0.2-1.8-0.7l-4.2-3.7c-1.1-1-1.3-2.7-0.3-3.9c1-1.2,2.7-1.3,3.9-0.3l4.2,3.7c1.1,1,1.3,2.7,0.3,3.9
				C279.8,261.8,279,262.1,278.2,262.1z"/>
	<path fill="#0EBBD6" d="M513.2,467.4c-0.6,0-1.3-0.2-1.8-0.7l-2.1-1.8c-1.1-1-1.3-2.7-0.3-3.9c1-1.2,2.7-1.3,3.9-0.3l2.1,1.8
				c1.1,1,1.3,2.7,0.3,3.9C514.7,467.1,513.9,467.4,513.2,467.4z"/>

	<path fill="#0EBBD6" d="M247.1,258.7c-0.7,0-1.5-0.3-2-0.9l-1.9-2c-1-1.1-1-2.9,0.1-3.9c1.1-1,2.8-1,3.9,0.1l1.9,2
				c1,1.1,1,2.9-0.1,3.9C248.5,258.4,247.8,258.7,247.1,258.7z"/>
	<path fill="#0EBBD6" d="M443.1,467.9c-0.7,0-1.5-0.3-2-0.9l-3.8-4c-1-1.1-1-2.9,0.1-3.9c1.1-1,2.8-1,3.9,0.1l3.8,4
				c1,1.1,1,2.9-0.1,3.9C444.5,467.7,443.8,467.9,443.1,467.9z M428,451.8c-0.7,0-1.5-0.3-2-0.9l-3.8-4c-1-1.1-1-2.9,0.1-3.9
				c1.1-1,2.8-1,3.9,0.1l3.8,4c1,1.1,1,2.9-0.1,3.9C429.4,451.6,428.7,451.8,428,451.8z M413,435.7c-0.7,0-1.5-0.3-2-0.9l-3.8-4
				c-1-1.1-1-2.9,0.1-3.9c1.1-1,2.8-1,3.9,0.1l3.8,4c1,1.1,1,2.9-0.1,3.9C414.3,435.5,413.6,435.7,413,435.7z M397.9,419.6
				c-0.7,0-1.5-0.3-2-0.9l-3.8-4c-1-1.1-1-2.9,0.1-3.9c1.1-1,2.8-1,3.9,0.1l3.8,4c1,1.1,1,2.9-0.1,3.9
				C399.2,419.4,398.6,419.6,397.9,419.6z M382.8,403.5c-0.7,0-1.5-0.3-2-0.9l-3.8-4c-1-1.1-1-2.9,0.1-3.9c1.1-1,2.8-1,3.9,0.1
				l3.8,4c1,1.1,1,2.9-0.1,3.9C384.2,403.3,383.5,403.5,382.8,403.5z M367.7,387.5c-0.7,0-1.5-0.3-2-0.9l-3.8-4
				c-1-1.1-1-2.9,0.1-3.9c1.1-1,2.8-1,3.9,0.1l3.8,4c1,1.1,1,2.9-0.1,3.9C369.1,387.2,368.4,387.5,367.7,387.5z M352.7,371.4
				c-0.7,0-1.5-0.3-2-0.9l-3.8-4c-1-1.1-1-2.9,0.1-3.9c1.1-1,2.8-1,3.9,0.1l3.8,4c1,1.1,1,2.9-0.1,3.9
				C354,371.1,353.3,371.4,352.7,371.4z M337.6,355.3c-0.7,0-1.5-0.3-2-0.9l-3.8-4c-1-1.1-1-2.9,0.1-3.9c1.1-1,2.8-1,3.9,0.1l3.8,4
				c1,1.1,1,2.9-0.1,3.9C338.9,355,338.3,355.3,337.6,355.3z M322.5,339.2c-0.7,0-1.5-0.3-2-0.9l-3.8-4c-1-1.1-1-2.9,0.1-3.9
				c1.1-1,2.8-1,3.9,0.1l3.8,4c1,1.1,1,2.9-0.1,3.9C323.9,338.9,323.2,339.2,322.5,339.2z M307.4,323.1c-0.7,0-1.5-0.3-2-0.9l-3.8-4
				c-1-1.1-1-2.9,0.1-3.9c1.1-1,2.8-1,3.9,0.1l3.8,4c1,1.1,1,2.9-0.1,3.9C308.8,322.8,308.1,323.1,307.4,323.1z M292.3,307
				c-0.7,0-1.5-0.3-2-0.9l-3.8-4c-1-1.1-1-2.9,0.1-3.9c1.1-1,2.8-1,3.9,0.1l3.8,4c1,1.1,1,2.9-0.1,3.9
				C293.7,306.7,293,307,292.3,307z M277.3,290.9c-0.7,0-1.5-0.3-2-0.9l-3.8-4c-1-1.1-1-2.9,0.1-3.9c1.1-1,2.8-1,3.9,0.1l3.8,4
				c1,1.1,1,2.9-0.1,3.9C278.6,290.6,278,290.9,277.3,290.9z M262.2,274.8c-0.7,0-1.5-0.3-2-0.9l-3.8-4c-1-1.1-1-2.9,0.1-3.9
				c1.1-1,2.8-1,3.9,0.1l3.8,4c1,1.1,1,2.9-0.1,3.9C263.5,274.5,262.9,274.8,262.2,274.8z"/>
	<path fill="#0EBBD6" d="M456.3,482c-0.7,0-1.5-0.3-2-0.9l-1.9-2c-1-1.1-1-2.9,0.1-3.9c1.1-1,2.8-1,3.9,0.1l1.9,2
				c1,1.1,1,2.9-0.1,3.9C457.6,481.8,457,482,456.3,482z"/>

	<ellipse fill="#0EBBD6" cx="461.9" cy="869.1" rx="215.5" ry="79.5"/>
	<ellipse fill="#94E0ED" cx="456.7" cy="847.1" rx="199.7" ry="73.7"/>
	<ellipse fill="#FFFFFF" cx="456.7" cy="847.1" rx="160.3" ry="59.2"/>
	<path fill="#ED6A57" d="M643.6,416c-5-3.3-27.7-49.4-27.7-49.4c-21.1,37.1-71.2,80.8-119.3,49.4c-5-3.3-27.6-42.1-28.6-39.4
		c-0.8-2.8-1.5-5.3-2.1-7.4c-11.8,34.9-43.2,61.9-79.8,61.7c-13.8-0.9-28.2-5.5-42.5-14.8c-5-3.3-9.3-7.6-12.5-12.6
		c-0.2-0.3-9.7-25.9-12.2-34.3c-1,2.9-7.3,16.3-7.3,16.3c-22.1,39.5-70.8,62-118.5,30.5c-5-3.3-9.3-7.6-12.5-12.6
		c-11.1-17.1-15.9-34.5-15.9-50.8h0l16.4,449.9c0,0,6.7,62.5,11.6,65.7c51.6,33.7,140.4-3.2,145.3,0c17.2,11.2,34.6,16,50.8,15.7
		c29.1,0.2,91.3-18.9,96.2-15.7c17.4,11.4,35.1,16.1,51.5,15.7c34.6,0.7,94-18.9,98.9-15.7c62.4,40.7,90.1-68.7,90.1-68.7l37.4-433
		C741.8,403.6,691.8,447.4,643.6,416z"/>

	<rect x="141.3" y="334.2" fill="#7995A4" width="637.4" height="11"/>
	<path fill="#7995A4" d="M133.7,324.5c-0.1,0-0.2,0-0.2,0v30.1c0.1,0,0.2,0,0.2,0c5.2,0,9.5-4.2,9.5-9.5V334
			C143.2,328.8,138.9,324.5,133.7,324.5z"/>
	<path fill="#7995A4" d="M785.3,354.6c0.1,0,0.2,0,0.2,0v-30.1c-0.1,0-0.2,0-0.2,0c-5.2,0-9.5,4.2-9.5,9.5v11.1
			C775.8,350.4,780,354.6,785.3,354.6z"/>

	<path fill="#747245" d="M319.8,417.7c0,0,5,127.5,0,210.3c-5,82.8-5.8,189.1-5.8,189.1"/>
	<path fill="#747245" d="M613.8,403.7c0,0,6.9,131.6,3.2,217.2S614,816.2,614,816.2"/>
	<path fill="#747245" d="M469.7,425.8c0,0-3.1,94.2,0,177c3.1,82.8-7.7,207.2-7.7,207.2"/>

	<path fill="#0EBBD6" d="M761.8,195.5c-2.4-3.9-9.1-5.3-13.5-3.4c0,0-1.7,1.2-1.7,1.2l6.6,25.1c-1.7,0.4-3.5,1.1-5.3,2.3
		c-4.4,3-6.6,7.6-4.9,10.1c1.7,2.6,6.8,2.2,11.2-0.9c4.4-3,6.6-7.6,4.9-10.1c-0.6-0.9-1.6-1.4-2.9-1.6l-5.4-20.8
		c0.4,0,2.8-2.4,7.6,0.2c2.3,1.2,7.3,9.2,13.2,0.1C771.7,197.7,765.9,202.1,761.8,195.5z"/>
	<path fill="#0EBBD6" d="M410.4,227.9c0.3-5.4-5.4-11.4-11-12.5c0,0-2.5,0-2.5,0l-10.7,29.2c-1.9-0.8-4.3-1.3-6.8-1.3
		c-6.4,0-11.7,2.9-11.7,6.6c0,3.7,5.2,6.7,11.6,6.8c6.4,0,11.7-2.9,11.7-6.6c0-1.3-0.6-2.5-1.7-3.5l8.8-24.1c0.4,0.3,4.4-0.4,7.3,5.3
		c1.4,2.7,0.9,14,13,9.1C418.5,236.8,409.8,237.2,410.4,227.9z"/>
	<path fill="#0EBBD6" d="M675.4,315.5c0-1.4-0.6-2.8-1.8-3.9c0,0,12.9-32.5,12.8-32.3c-0.2,0.5-5.6-8.7-7.7-11.6
		c-3.5-4.9-6.1-11.9-12.2-13.2c-0.1,0-2.7-0.5-2.7-0.5l-12.3,31.8c-2.1-0.9-4.7-1.5-7.5-1.6c-7.1-0.2-12.9,3-13,7
		c-0.1,4.1,5.5,7.5,12.6,7.7c7.1,0.2,12.9-3,13-7c0-1.4-0.6-2.8-1.8-3.9l6-15.4c5.2,2.3,6.8,7.2,8.9,12.5c1.4,3.7,2.1,9.5,5.6,11.6
		l-4.9,12.8c-2.1-0.9-4.7-1.5-7.5-1.6c-7.1-0.2-12.9,3-13,7c-0.1,4.1,5.5,7.5,12.6,7.7C669.5,322.7,675.3,319.5,675.4,315.5z
		 M673.4,282.5c-0.7-2-1.5-4.4-2.6-6.3c-2.3-3.8-4.5-6.6-8.4-8.2l3.2-8.2c0.5,0.3,2.1,0.3,7.6,7.2c5.2,6.5,5.4,12.1,7.9,14.4
		l-3.6,9.2C674.9,288.9,674.4,285.3,673.4,282.5z"/>
	<path fill="#7995A4" d="M-232.7,123.5"/>
	<path fill="#AED644" d="M171.1,367.7V332h-11v34.1c-2.8,1.6-4.7,4.6-4.7,8c0,5.1,4.1,9.2,9.2,9.2s9.2-4.1,9.2-9.2
		C173.8,371.6,172.8,369.3,171.1,367.7z"/>
	<path fill="#AED644" d="M325.4,367.7V332h-11v34.1c-2.8,1.6-4.7,4.6-4.7,8c0,5.1,4.1,9.2,9.2,9.2s9.2-4.1,9.2-9.2
		C328.1,371.6,327,369.4,325.4,367.7z"/>
	<path fill="#AED644" d="M471.6,366.8V332h-11v34.8c-2.2,1.7-3.7,4.3-3.7,7.3c0,5.1,4.1,9.2,9.2,9.2s9.2-4.1,9.2-9.2
		C475.3,371.1,473.8,368.5,471.6,366.8z"/>
	<path fill="#AED644" d="M622.3,367V332h-11v34.6c-2.4,1.7-3.9,4.4-3.9,7.5c0,5.1,4.1,9.2,9.2,9.2s9.2-4.1,9.2-9.2
		C625.8,371.2,624.4,368.7,622.3,367z"/>
	<path fill="#AED644" d="M765.8,366.6V332h-11v35c-2.1,1.7-3.4,4.2-3.4,7.1c0,5.1,4.1,9.2,9.2,9.2s9.2-4.1,9.2-9.2
		C769.8,371,768.2,368.2,765.8,366.6z"/>
	<path fill="#94E0ED" d="M240.5,898.7c0.3-0.9-0.1-2.1-1.4-2.1c0,0-0.1,0-0.1,0c-0.8-0.6-1.9-1-3.4-0.7c-0.4,0.1-0.7,0.2-0.9,0.5
		c-9.9-0.8-22.2-2.8-27.8,6.5c-1.6,2.6-2,5.8-2.2,8.7c-0.1,1.2,0.1,2.4,0.5,3.5c1,3.2-2.3,5.1-4.6,6.3c-4.1,2.2-9.9,8.8-4.7,13
		c4.5,3.6,10.8-1.7,13-5.5c2.6-4.6,3.4-9,9-11c3.9-1.4,8.9-0.8,13-1.5c6.1-1.1,9.2-5.2,10.1-11.3
		C241.3,903.2,241.3,900.7,240.5,898.7z M237.8,906.4c-0.6,3.2-2.4,5.7-5.5,6.8c-4.9,1.6-10.2,0.8-15.2,2c-4.5,1.1-7.3,4.9-9.1,8.9
		c-1.4,3-2.5,5.6-5.4,7.5l-2.1,0.8c-3.5-1-4.3-2.7-2.4-5.1c0.9-1.8,3.5-2.8,5.2-3.7c2.6-1.4,5.9-4.5,5.3-7.8
		c-1.1-5.3-0.7-11.2,4.1-14.6c6.5-4.5,17.4-1.9,25.1-1.4C238.6,901.4,237.9,905.6,237.8,906.4z"/>
	<path fill="#94E0ED" d="M704.9,873.1c-0.2,0-0.3,0.1-0.4,0.1c-3.3,0.3-6.6-0.4-9.8,0.9c-2.4,1-5.2,2.8-6,5.4
		c-1.9,6.1,5.8,7.9,10.2,8c5.4,0,11.1-0.4,13.5-6C714.6,876.2,709.9,872.2,704.9,873.1z M708.3,882.6c-2.1,2.4-7.2,2-10.1,2
		c-3.4,0-9.5-2-5.3-5.9c3.7-3.5,9-1.9,13.5-2.7c0.1,0,0.2,0,0.3-0.1C710.2,876,710.6,880,708.3,882.6z"/>
</g>
</svg>
