<?xml version="1.0" encoding="utf-8"?>
<!-- Generator: Adobe Illustrator 17.1.0, SVG Export Plug-In . SVG Version: 6.00 Build 0)  -->
<svg version="1.2" baseProfile="tiny" id="Layer_1" xmlns="http://www.w3.org/2000/svg" xmlns:xlink="http://www.w3.org/1999/xlink"
	 x="0px" y="0px" viewBox="0 673 300 164" xml:space="preserve">
<g>
	<polygon fill="#FFFFFF" points="41.4,697.9 54.8,695.3 256.4,696.1 268.1,708 288.8,803.3 281.2,814.4 265.3,821 28.6,821 
		16.4,812.5 11.8,801 35.3,702.1 	"/>
		<path fill="#93D7E6" d="M266,725.6c-0.8-10.4-5.7-16.9-6.5-18.1c-1.3-1.9-0.1-6-0.1-6c-7.2,2.7-9.9,4.9-14.7,4.8
			c-9.4-0.1-11.7-1.2-11.3-4.8c-7.1,2.7-9.8,4.8-14.6,4.8c-9.4-0.1-11.7-1.2-11.3-4.8h0c-7.2,2.7-9.9,4.9-14.7,4.8
			c-9.4-0.1-11.7-1.2-11.3-4.8c-7.1,2.7-9.8,4.8-14.6,4.8c-9.4-0.1-11.2-1.2-10.9-4.8l0,0c-7.1,3-10.5,4.6-15.1,4.8
			c-0.4,0-0.8,0-1.2,0h-2.4c-6.3-0.2-8-1.7-7.7-4.8c-7.1,2.7-9.8,4.8-14.6,4.8c-9.4-0.1-11.7-1.2-11.3-4.8h0
			c-7.2,2.7-9.9,4.9-14.7,4.8c-9.4-0.1-11.7-1.2-11.3-4.8c-7.1,2.7-9.8,4.8-14.6,4.8c-9.4-0.1-11.7-1.2-11.3-4.8l-7.5,5.8
			c-5.6,3.4-8,11.4-8,18.4l-16.7,82.6c2.7,5.8,7.7,9.9,18.3,9.9h226.8c10.7,0,17.2-5.5,17.7-10L266,725.6z"/>
		<path fill="#83CCD7" d="M241.2,818.2H58.6c-7.8,0-8.2-6.2-6.3-14.2L64,744.8c1.1-7.6,6.3-12.9,14.2-12.9h140.3
			c7.8,0,13.1,5.3,14.2,12.9l11.8,59.2C245.7,811.2,249.1,818.2,241.2,818.2z"/>
		<path fill="#75CCE4" d="M129.4,701.4L129.4,701.4c0,0,0.1,0,0.1,0H129.4z"/>
		<path fill="#75CCE4" d="M181.4,701.4L181.4,701.4c0,0,0.1,0,0.1,0H181.4z"/>
		<path fill="#75CCE4" d="M77.5,701.4L77.5,701.4c0,0,0.1,0,0.1,0H77.5z"/>
		<path fill="#75CCE4" d="M233.3,701.4L233.3,701.4c0,0,0.1,0,0.1,0H233.3z"/>
	<path fill="#FFFFFF" d="M67.3,731.2c2.5,3.4,9.3,3.9,10.1-1.3c2.2,4.7,9.8,5.6,12.8,1c1.6,4.6,12.3,5.1,13.5-0.7
		c2.3,5.4,14.4,5.3,15.3-1.3c-2.7,6.4-14.1,2.5-13.7-3.1c-0.6,0-0.6-0.5-1.2-0.5c1,7.2-13.2,10-12.4,1.4c-0.2-0.5-0.8-0.6-1.4-0.3
		c-0.2,8-10.8,4.8-12-0.8c-1,6.7-11.1,7.4-10.3-0.2c-0.8,0.2-1.3,0.8-1.8,1.2c1.2,7.9-11.4,4.3-8.4-0.6c-2.3,3.1-7.4,8.4-10.7,2
		c-0.4,0.1-0.8,0.3-1.4,0.2c0.3,5.4,7.5,7.3,10.7,3.4C58.5,734.3,65.5,734.9,67.3,731.2z"/>
	<path fill="#FFFFFF" d="M109.5,801.5c2.1,2.9,7.9,3.3,8.5-1.1c1.8,4,8.3,4.7,10.9,0.8c1.4,3.9,10.4,4.3,11.4-0.6
		c2,4.5,12.2,4.5,13-1.1c-2.3,5.4-12,2.2-11.6-2.7c-0.5,0-0.5-0.5-1-0.4c0.8,6.1-11.2,8.5-10.5,1.1c-0.2-0.4-0.7-0.5-1.2-0.2
		c-0.2,6.8-9.2,4-10.2-0.7c-0.8,5.7-9.4,6.2-8.7-0.2c-0.7,0.2-1.1,0.7-1.5,1c1,6.7-9.7,3.6-7.2-0.5c-1.9,2.6-6.3,7.1-9.1,1.7
		c-0.3,0.1-0.7,0.2-1.1,0.2c0.3,4.5,6.4,6.2,9.1,2.9C102,804.2,108,804.7,109.5,801.5z"/>
	<path fill="#FFFFFF" d="M73.5,741c2.8,3.9,10.2,3.8,13-0.2c2.1,4.3,11.4,5.4,13.5,0.3c1.8,2,6.8,4,9,1.1c-3.1,1.3-9,0.3-8.4-4
		c-0.5-0.4-1.5-1-2.1-0.8c0.3,7.9-11.7,5.6-11.7-0.5c-0.6-0.1-1.7-0.6-2.3-0.1c0.2,7.5-11.2,5.7-10.8-0.4c-0.8-0.2-1.8-0.5-2.3,0
		c1.7,5.7-5.7,6.3-7.2,2.4C62.1,743.7,71.9,745,73.5,741z"/>
	<path fill="#FFFFFF" d="M104.2,775.8c2.3,3.2,8.5,3.2,10.8-0.1c1.7,3.6,9.5,4.5,11.2,0.2c1.5,1.6,5.6,3.4,7.5,0.9
		c-2.6,1.1-7.5,0.3-6.9-3.3c-0.4-0.3-1.2-0.8-1.7-0.7c0.3,6.5-9.7,4.6-9.7-0.4c-0.5-0.1-1.4-0.5-2-0.1c0.2,6.3-9.3,4.7-9-0.3
		c-0.6-0.1-1.5-0.4-2,0c1.5,4.7-4.7,5.2-6,2C94.8,778.1,102.9,779.1,104.2,775.8z"/>
	<path fill="#FFFFFF" d="M72.6,749.9c-1.5,3.7,5.9,4.7,7.1,1.6c2.1,3,7.8,2.9,9.9-0.1c0.9,1.8,3.5,2.9,5.9,2.8
		c0.5-0.3,0.9-0.6,1.3-1.1c0.4-0.5,0.8-1,1.1-1.5c-2.2,2.3-8,0.5-8-3.2c-0.5-0.1-1.3-0.4-1.8-0.1c0.2,5.8-8.6,4.4-8.2-0.3
		c-0.6-0.1-1.4-0.4-1.8,0C79.4,752.4,73.7,752.9,72.6,749.9z"/>
	<path fill="#FFFFFF" d="M41.4,778.2c2.8,3.9,10.2,3.8,13-0.2c2.1,4.3,11.4,5.4,13.5,0.3c1.8,2,6.8,4,9,1.1c-3.1,1.3-9,0.3-8.4-4
		c-0.5-0.4-1.5-1-2.1-0.8c0.3,7.9-11.7,5.6-11.7-0.5c-0.6-0.1-1.7-0.6-2.3-0.1c0.2,7.5-11.2,5.7-10.8-0.4c-0.8-0.2-1.8-0.5-2.3,0
		c1.7,5.7-5.7,6.3-7.2,2.4C30.1,780.9,39.8,782.2,41.4,778.2z"/>
	<path fill="#FFFFFF" d="M53.8,798.6c-1.5,3.7,5.9,4.7,7.1,1.6c2.1,3,7.8,2.9,9.9-0.1c0.9,1.8,3.5,2.9,5.9,2.8
		c0.5-0.3,0.9-0.6,1.3-1.1c0.4-0.5,0.8-1,1.1-1.5c-2.2,2.3-8,0.5-8-3.2c-0.5-0.1-1.3-0.4-1.8-0.1c0.2,5.8-8.6,4.4-8.2-0.3
		c-0.6-0.1-1.4-0.4-1.8,0C60.6,801.1,55,801.5,53.8,798.6z"/>
	<path fill="#010101" d="M288.8,803.3l-17.1-89c-1.6-11.7-9.1-20.4-20.4-20.4H48.8c-11.3,0-17.5,9.9-20.4,20.4l-17.1,89
		c-2.3,12,9.1,20.4,20.4,20.4h236.5C279.6,823.8,290.5,814.2,288.8,803.3z M263.4,817.7H36.7c-10.8,0-22.2-8.6-19.6-19.6l16.4-81.9
		c1.5-10.6,8.8-17.9,19.6-17.9h194.1c10.8,0,18.1,7.3,19.6,17.9l16.4,81.9C284.9,808,274.3,817.7,263.4,817.7z"/>
	<path fill="#747245" d="M77,679.8h-0.9c-4.4,0-7.9,4.2-7.9,10.8h3.2c0-4.2,2.5-7.5,4.8-7.5h0.9c2.5,0,3.3,4.7,3.3,8.1v4.6H63.5
		v-4.6c0-6.4-3.9-11.3-7.8-11.3h-0.9c-4.2,0-7.3,4.2-7.3,10.8h3.1c0-4.2,1.9-7.5,4.1-7.5h0.9c2.2,0,4.5,3.8,4.5,8.1v4.6v3.3v6.6v2.8
		v3.3h3.3l0,0v-3.3h16.8v3.3h3.2v-20.5C83.6,684.8,81.1,679.8,77,679.8z M63.5,705.6V699h16.8v6.6H63.5z"/>
	<polygon fill="#4E8AEA" points="290,820.7 143.9,821 148,695.7 266,695.7 	"/>
	<path fill="#457BC9" d="M290,820.7L143.9,821c95.7-33.8,49.6-74.6,122.1-125.2L290,820.7z"/>
	<path fill="#579CFF" d="M266,692c-0.8-2.3-3.4-3.5-7.1-2.7c-3.8,0.8-5.6,3.2-5.4,5.6l0,0l22.7,126.4l0,0c0,0.1,0,0.3,0,0.4
		c0.5,2.5,4.1,3.9,8.1,3.1c4-0.8,6.8-3.5,6.3-6c0-0.1-0.1-0.2-0.1-0.4l0,0L266,692L266,692z"/>
	<path fill="#4E8AEA" d="M290.2,818.6c0.4,2-1.6,4.4-4.8,5.2c-3.7,0.9-7.5,0.3-8.1-1.5s1.7-4.1,5.4-5.2
		C286.2,816.1,289.8,816.7,290.2,818.6z"/>
	<path fill="#010101" d="M285.9,821.2c0-1.1-0.8-1.6-1.8-1.5s-1.8,0.7-1.8,2c0,0.8,0.6,1.5,1.1,1.5v2.9l1.4-0.1v-3
		C285.5,822.7,285.9,822,285.9,821.2z"/>
	<path fill="#4E8AEA" d="M290.4,817.6l-24.3-125.4l0,0c-0.6-1.6-2.1-2.7-4.3-2.9l24,126.9C287.7,816,289.5,816.2,290.4,817.6z"/>
</g>
</svg>
