<?xml version="1.0" encoding="utf-8"?>
<!-- Generator: Adobe Illustrator 17.1.0, SVG Export Plug-In . SVG Version: 6.00 Build 0)  -->
<svg version="1.2" baseProfile="tiny" id="Layer_1" xmlns="http://www.w3.org/2000/svg" xmlns:xlink="http://www.w3.org/1999/xlink"
	 x="0px" y="0px" viewBox="0 0 300 300" xml:space="preserve">
<path fill="#CACCC9" d="M105.4,267.2h88.7c-29.7,8.1,0,25.2,0,25.2s-19.5,4.7-47.3,4.7s-41.3-4.7-41.3-4.7S128.9,275.2,105.4,267.2z
	"/>
<path fill="#A0A1A3" d="M105.4,292.3c0,0,10.7,3.7,32.7,4.5c-2.6-4.2-4.1-8.9-4.1-13.8c0-5.8,2-11.2,5.4-15.8h-34.1
	C128.9,275.2,105.4,292.3,105.4,292.3z"/>
<ellipse fill="#8F9190" cx="149.4" cy="198.2" rx="100.5" ry="51.7"/>
<path fill="#E0E2DD" d="M149.7,245.9c-52.1,0-95-20.3-100.2-46.4c-0.4,1.8-0.6,3.6-0.6,5.4c0,28.6,45.1,71.2,100.8,71.2
	s100.8-42.6,100.8-71.2c0-1.8-0.2-3.6-0.6-5.4C244.7,225.5,201.8,245.9,149.7,245.9z"/>
<g>
	<path fill="#9A9C9B" d="M134,255c0-3.3,0.6-6.5,1.8-9.6c-45.7-3.2-81.6-22.2-86.3-45.9c-0.4,1.8-0.6,3.6-0.6,5.4
		c0,27.4,41.5,67.7,93.9,71C137.2,269.6,134,262.5,134,255z"/>
</g>
<ellipse fill="#FFFFFF" cx="150" cy="192.1" rx="97" ry="44.4"/>
<g>
	<path fill="#93D7E6" d="M228.2,175.2c-2-6.1,0.2-7.6-20.1-13.2c-8.9-2.5-0.4,10.8-8.8,23.6c-6.5,9.9-26.9,15.1-33,18.9
		c7.9-0.6,15.8-2.8,23-5.9c8-3.4,16-8,21.4-15c1.6-2,4.4,0.8,2.8,2.8c-5.8,7.5-14.6,12.5-23.3,16.1c-7.3,3-15.1,5.3-23,5.9
		c8.8,3,26.8-2.4,40.4-8.1C223.1,194.1,230.4,181.9,228.2,175.2z"/>
	<path fill="#93D7E6" d="M171.6,178c-5.6,14.6-23.9,29.5-32.9,31.2c-9,1.6,16-23,13.3-38.4c-2.8-15.4-31.9-19.8-23-22
		c18.2-4.4,35.5-3.4,40.8,0.1C175.6,152.9,177.1,163.9,171.6,178z"/>
	<path fill="#93D7E6" d="M115.7,186.9c0.3,1.2,0.6,2.3,0.8,3.4c0.2,0,0.5,0,0.8,0C116.9,189.2,116.3,188,115.7,186.9z"/>
	<path fill="#93D7E6" d="M122.4,176.4c-8.2-13.1-23.6-17.1-30.4-15.6c-6.2,1.4-12.3,0.9-19.6,20.8c-3.2,8.6,21.5-3,34.4,5.6
		c2.6,1.8,4.8,4.6,6.6,7.9c-0.8-5.8-2.4-11.4-5.1-16.8c-0.1-0.1-0.1-0.3-0.2-0.4c-0.3-0.2-0.6-0.4-0.9-0.7c-2.1-1.5-0.1-4.9,2-3.4
		c14.1,9.8,16.6,27.9,14.1,43.7c-0.2,1-0.8,1.4-1.5,1.4c1.2,3.3,2.4,4.6,3.9,2.4C130.7,213.6,130.7,189.7,122.4,176.4z"/>
	<path fill="#93D7E6" d="M191.3,216.9c0,8.9-19.1,16.1-42.7,16.1s-42.7-7.2-42.7-16.1s19.1-16.1,42.7-16.1S191.3,208,191.3,216.9z"
		/>
	<path fill="#3C575C" d="M174.8,218.9c0,6.7-11.1,12.2-24.8,12.2c-13.7,0-24.8-5.4-24.8-12.2c0-6.7,11.1-12.2,24.8-12.2
		C163.7,206.8,174.8,212.2,174.8,218.9z"/>
	<path fill="#D2D4D1" d="M243.6,129.4c0,6.6-5.4,12-12,12H65.9c-6.6,0-12-5.4-12-12l-9.6-76.5c0-6.6,5.4-12,12-12h187.3
		c6.6,0,12,5.4,12,12L243.6,129.4z"/>
	<path fill="#A6A8A5" d="M241.5,31.8l-22.2-13.6H82.4L58.6,31.8c-5.1,1-1.8,6.3-9.7,11.8l-2.2,2.1h206.4l-1.9-2.1
		C244.2,36.6,247,32.4,241.5,31.8z"/>
	<path fill="#FFFFFF" stroke="#4C4C4B" stroke-miterlimit="10" d="M150,141.3c-53.6,0-97,22.3-97,49.9S96.4,241,150,241
		c53.6,0,97-22.3,97-49.9S203.6,141.3,150,141.3z M150,220.3c-43.2,0-78.2-15.5-78.2-34.7s35-34.7,78.2-34.7s78.2,15.5,78.2,34.7
		S193.2,220.3,150,220.3z"/>
	<path fill="#A2A89D" d="M102.9,156.8c-18.9,6.3-31.1,16.4-31.1,27.7c0,1.8,0.3,3.5,0.9,5.2c5.6-16.7,38.1-29.5,77.3-29.5
		c39.2,0,71.7,12.8,77.3,29.5c0.6-1.7,0.9-3.4,0.9-5.2c0-11.3-12.2-21.3-31.1-27.7c-13.9-4-30-6.3-47.1-6.3S116.8,152.8,102.9,156.8
		z"/>
	<path fill="#FFFFFF" stroke="#999999" stroke-width="0.5" stroke-miterlimit="10" d="M249.8,27l-24.4-13.6h-150L49.3,27.1
		c-5.6,1-9.9,5.9-9.9,11.8V41h221.1v-2.1C260.5,32.7,255.8,27.7,249.8,27z"/>
	<path fill="#FFFFFF" stroke="#999999" stroke-width="0.5" stroke-miterlimit="10" d="M150.1,2c-39.9,0-72.3,37.2-72.3,83.2
		c0,24.9,9.5,47.3,24.6,62.5c14.1-4.1,30.3-6.4,47.5-6.4c17.4,0,33.6,2.4,47.7,6.4c15.1-15.3,24.7-37.6,24.7-62.6
		C222.4,39.3,190.1,2,150.1,2z"/>
	<path fill="#93D7E6" d="M183.8,163.9c-2.4,1.4-4.1,4.9-4.5,7.6c0,0.2-0.2,1.1-0.3,1.3c-0.1,0.3-0.2,0.6-0.3,0.8c0,0,0,0.1-0.1,0.1
		c0,0,0,0,0,0.1c-0.1,0.2-0.2,0.3-0.2,0.4c0-0.1-0.5,0.8-0.6,0.8c-0.4,0.5-0.8,1-1.2,1.4c0,0-0.1,0.1-0.4,0.4
		c-0.4,0.4-0.8,0.8-1.2,1.1c-1.1,1-2.2,2-3.4,2.8c-4.9,3.6-10.6,6.4-16.5,8c-2.6,0.7-4.2,4.1-5,6.4c-0.3,0.8-1.6,6.1,1,5.4
		c15.6-4.2,32.1-16.2,34.8-33.1C186.3,166,186.4,162.4,183.8,163.9z"/>
</g>
<g>
	<circle fill="none" stroke="#080909" stroke-miterlimit="10" cx="66.5" cy="63.8" r="7.5"/>
	<path fill="#080909" d="M48.2,66.7l13.3,0.2c1,1.7,2.8,2.9,5,2.9c3.2,0,5.8-2.5,5.8-5.7c0-3.2-2.5-5.8-5.7-5.8c-2.1,0-4,1.1-5,2.8
		l-13.3-0.2L48.2,66.7z"/>
</g>
</svg>
