<?xml version="1.0" encoding="utf-8"?>
<!-- Generator: Adobe Illustrator 17.1.0, SVG Export Plug-In . SVG Version: 6.00 Build 0)  -->
<!DOCTYPE svg PUBLIC "-//W3C//DTD SVG 1.1 Tiny//EN" "http://www.w3.org/Graphics/SVG/1.1/DTD/svg11-tiny.dtd">
<svg version="1.1" baseProfile="tiny" id="Layer_1" xmlns="http://www.w3.org/2000/svg" xmlns:xlink="http://www.w3.org/1999/xlink"
	 x="0px" y="0px" viewBox="0 0 60 60" xml:space="preserve">
<g>
	<g>
		<path fill="#28BCB5" d="M30,57.5c-15.163,0-27.5-12.336-27.5-27.499C2.5,14.837,14.837,2.5,30,2.5
			c15.163,0,27.5,12.337,27.5,27.501C57.5,45.164,45.164,57.5,30,57.5z M30,3.623c-14.544,0-26.378,11.833-26.378,26.378
			c0,14.544,11.833,26.377,26.378,26.377c14.545,0,26.378-11.833,26.378-26.377C56.378,15.456,44.545,3.623,30,3.623z"/>
	</g>
	<g>
		<path fill="none" stroke="#28BCB5" stroke-linejoin="round" stroke-miterlimit="10" d="M45.043,36.756
			c0.536,0,0.45-0.314,0.929-0.383c0.95-0.14,2.529,0.164,2.529-0.746v-8.346c-1-2.803-4.696-9.781-6.443-9.781h-13.97
			c-0.626,0-9.4,8-10.147,9h-6.136c-2.143,0-3.88,1.615-3.88,3.759l-1,3.427c0,1.562,0.922,2.006,2.252,2.657
			c0.495,0.243,0.815,0.397,1.396,0.397"/>
		<line fill="none" stroke="#28BCB5" stroke-linejoin="round" stroke-miterlimit="10" x1="21" y1="36.5" x2="33" y2="36.5"/>
		<circle fill="none" stroke="#28BCB5" stroke-miterlimit="10" cx="15.941" cy="36.175" r="5.71"/>
		<circle fill="none" stroke="#28BCB5" stroke-miterlimit="10" cx="39.941" cy="36.175" r="5.71"/>
	</g>
</g>
</svg>
