<?xml version="1.0" encoding="utf-8"?>
<!-- Generator: Adobe Illustrator 17.1.0, SVG Export Plug-In . SVG Version: 6.00 Build 0)  -->
<!DOCTYPE svg PUBLIC "-//W3C//DTD SVG 1.1 Tiny//EN" "http://www.w3.org/Graphics/SVG/1.1/DTD/svg11-tiny.dtd">
<svg version="1.1" baseProfile="tiny" id="Layer_1" xmlns="http://www.w3.org/2000/svg" xmlns:xlink="http://www.w3.org/1999/xlink"
	 x="0px" y="0px" viewBox="0 0 60 60" xml:space="preserve">
<g>
	<path fill="none" stroke="#28BCB5" stroke-width="1.3" stroke-linecap="round" stroke-linejoin="round" stroke-miterlimit="10" d="
		M51.756,47.19c3.598-4.648,5.744-10.478,5.744-16.811c0-15.188-12.312-27.5-27.5-27.5c-15.188,0-27.5,12.312-27.5,27.5
		c0,8.076,3.482,15.339,9.026,20.37"/>
	<path fill="none" stroke="#28BCB5" stroke-linecap="round" stroke-linejoin="round" stroke-miterlimit="10" d="M50.304,48.924
		c-0.512-1.671-1.024-3.275-1.517-4.703c-0.431-1.245-5.279,2.327-5.29,2.299c-0.66-1.107-0.955-2.283-1.982-4.648
		c-9.912-22.8-3.367-33.286-2.769-33.534c0.032,0.134,7.439,23.758,7.483,23.892c0.97,2.972,2.965,8.579,5.527,14.959"/>
	<path fill="none" stroke="#28BCB5" stroke-width="1.3" stroke-linecap="round" stroke-linejoin="round" stroke-miterlimit="10" d="
		M13.687,52.515c4.564,3.369,10.205,5.364,16.314,5.364c8.042,0,15.276-3.453,20.304-8.955"/>
	<path fill="none" stroke="#28BCB5" stroke-linecap="round" stroke-linejoin="round" stroke-miterlimit="10" d="M11.526,50.749
		c0.692-1.974,1.274-3.77,1.669-5.235c1.515-5.609,0.999-5.227,0.231-7.196c-0.763-1.961-1.236-2.69,1.36-9.763
		c2.617-7.046,6.528-19.507,6.528-19.507s1.017-0.749,0.814,0.3c-0.195,1.052-5.486,20.271-5.486,20.271l1.041,0.21l6.742-19.637
		c0,0,1.216-0.299,0.987,0.371c-0.242,0.658-5.479,20.287-5.479,20.287l0.979,0.342l6.444-19.353c0,0,0.972-0.58,0.828,0.309
		c-0.143,0.876-4.739,19.798-4.739,19.798l1.152,0.413l6.069-19.845c0,0,1.294-0.466,1.054,0.187c0,0-4.202,21.866-8.254,27.283
		c0,0-0.965,0.572-1.881,0.972c-0.901,0.423-3.784,1.223-5.781,6.076c-0.565,1.386-1.299,3.222-2.119,5.483"/>
</g>
</svg>
