<?xml version="1.0" encoding="utf-8"?>
<!-- Generator: Adobe Illustrator 17.1.0, SVG Export Plug-In . SVG Version: 6.00 Build 0)  -->
<!DOCTYPE svg PUBLIC "-//W3C//DTD SVG 1.0//EN" "http://www.w3.org/TR/2001/REC-SVG-20010904/DTD/svg10.dtd">
<svg version="1.0" id="Layer_1" xmlns="http://www.w3.org/2000/svg" xmlns:xlink="http://www.w3.org/1999/xlink" x="0px" y="0px"
	 viewBox="0 0 60 60" enable-background="new 0 0 60 60" xml:space="preserve">
<g>
	<path fill="none" stroke="#28BCB5" stroke-miterlimit="10" d="M46.913,31.926c0.529-1.476,0.813-3.068,0.813-4.728
		c0-7.817-6.338-14.154-14.156-14.154c-7.816,0-14.151,6.336-14.151,14.154c0,2.946,0.901,5.68,2.441,7.946
		c2.091-2.359,5.141-3.85,8.541-3.85c4.486,0,8.356,2.595,10.221,6.36c0.978-0.401,2.043-0.63,3.156-0.665
		c0.575-0.598,1.096-1.248,1.561-1.938"/>
	<g>
		<path fill="#28BCB5" d="M30.001,57.5C14.837,57.5,2.5,45.164,2.5,30c0-15.164,12.337-27.5,27.5-27.5
			C45.164,2.5,57.5,14.836,57.5,30C57.5,45.164,45.164,57.5,30.001,57.5z M30.001,3.622C15.456,3.622,3.623,15.455,3.623,30
			c0,14.545,11.833,26.378,26.378,26.378c14.545,0,26.378-11.833,26.378-26.378C56.378,15.455,44.545,3.622,30.001,3.622z"/>
	</g>
	<circle fill="none" stroke="#28BCB5" stroke-miterlimit="10" cx="13.839" cy="26.295" r="2.487"/>
	<circle fill="none" stroke="#28BCB5" stroke-miterlimit="10" cx="47.485" cy="33.94" r="1.841"/>
	<path fill="none" stroke="#28BCB5" stroke-miterlimit="10" d="M30.401,31.295c3.544,0,6.698,1.623,8.788,4.159
		c2.637-1.797,4.369-4.824,4.369-8.255c0-5.515-4.472-9.986-9.985-9.986c-5.516,0-9.986,4.471-9.986,9.986
		c0,1.982,0.584,3.823,1.58,5.376C26.735,31.762,28.512,31.295,30.401,31.295z"/>
	<path fill="none" stroke="#28BCB5" stroke-miterlimit="10" d="M52.914,44.07c-0.902-4.059-4.524-7.094-8.854-7.094
		c-1.218,0-2.378,0.244-3.438,0.679c-1.864-3.765-5.734-6.36-10.221-6.36c-5.514,0-10.114,3.911-11.179,9.109
		c-1.618-1.502-3.779-2.428-6.162-2.428c-3.09,0-5.819,1.545-7.457,3.904"/>
	<path fill="none" stroke="#28BCB5" stroke-miterlimit="10" d="M17.962,10.858c-1.401,0.234-1.859,1.525-1.859,2.562
		c0,1.373,1.238,2.424,2.612,2.424c1.373,0,2.845-1.015,2.564-2.931"/>
	<circle fill="none" stroke="#28BCB5" stroke-miterlimit="10" cx="20.839" cy="10.295" r="1.632"/>
	<path fill="none" stroke="#28BCB5" stroke-miterlimit="10" d="M45.644,34.576"/>
</g>
</svg>
