<?xml version="1.0" encoding="utf-8"?>
<!-- Generator: Adobe Illustrator 17.1.0, SVG Export Plug-In . SVG Version: 6.00 Build 0)  -->
<!DOCTYPE svg PUBLIC "-//W3C//DTD SVG 1.0//EN" "http://www.w3.org/TR/2001/REC-SVG-20010904/DTD/svg10.dtd">
<svg version="1.0" id="Layer_1" xmlns="http://www.w3.org/2000/svg" xmlns:xlink="http://www.w3.org/1999/xlink" x="0px" y="0px"
	 viewBox="0 0 60 60" enable-background="new 0 0 60 60" xml:space="preserve">
<g>
	
		<circle fill="none" stroke="#28BCB5" stroke-width="1.3" stroke-linecap="round" stroke-linejoin="round" stroke-miterlimit="10" cx="30" cy="30.379" r="27.5"/>
	<g>
		<g>
			<path fill="none" stroke="#28BCB5" stroke-miterlimit="10" d="M40.167,27.987c0,1.216-0.986,2.513-2.203,2.513H21.369
				c-1.216,0-2.203-1.297-2.203-2.513l-2-16.439c0-1.216,0.986-2.047,2.203-2.047h20.595c1.216,0,2.203,0.831,2.203,2.047
				L40.167,27.987z"/>
			<path fill="none" stroke="#28BCB5" stroke-miterlimit="10" d="M44.607,34.5H15.701c0.472,4,4.057,7.007,9.002,8.434l-1.536,8.208
				c0,1.216,0.986,2.358,2.203,2.358h8.595c1.216,0,2.203-1.297,2.203-2.513l-1.512-7.654C40.101,42.079,44.129,38.5,44.607,34.5z"
				/>
			<line fill="none" stroke="#28BCB5" stroke-miterlimit="10" x1="15" y1="32.5" x2="46" y2="32.5"/>
		</g>
		<line fill="none" stroke="#28BCB5" stroke-miterlimit="10" x1="15.967" y1="12.708" x2="16.471" y2="16.438"/>
		
			<line fill="none" stroke="#28BCB5" stroke-linecap="round" stroke-miterlimit="10" x1="15.866" y1="12.708" x2="17.378" y2="12.608"/>
	</g>
</g>
</svg>
