<?xml version="1.0" encoding="utf-8"?>
<!-- Generator: Adobe Illustrator 17.1.0, SVG Export Plug-In . SVG Version: 6.00 Build 0)  -->
<!DOCTYPE svg PUBLIC "-//W3C//DTD SVG 1.0//EN" "http://www.w3.org/TR/2001/REC-SVG-20010904/DTD/svg10.dtd">
<svg version="1.0" id="Layer_1" xmlns="http://www.w3.org/2000/svg" xmlns:xlink="http://www.w3.org/1999/xlink" x="0px" y="0px"
	 viewBox="0 0 60 60" enable-background="new 0 0 60 60" xml:space="preserve">
<g>
	<g>
		<path fill="none" stroke="#28BCB5" stroke-miterlimit="10" d="M21.711,16.158v1.374c0,0.176,0.146,0.321,0.321,0.321h2.482
			c0.177,0,0.322-0.145,0.322-0.321v-1.374"/>
		<g>
			<path fill="#28BCB5" stroke="#28BCB5" stroke-miterlimit="10" d="M33.23,29.498c-1.879,0.744-3.97,0.744-5.849,0
				c0-0.518,0-1.037,0-1.555c1.879-0.744,3.97-0.744,5.849,0C33.23,28.461,33.23,28.98,33.23,29.498z"/>
			<line fill="none" stroke="#28BCB5" stroke-miterlimit="10" x1="18.7" y1="29.532" x2="41.677" y2="29.532"/>
			<rect x="36.566" y="27.09" fill="#28BCB5" stroke="#28BCB5" stroke-miterlimit="10" width="1.551" height="1.953"/>
			<rect x="35.891" y="26.541" fill="#4E4E4E" stroke="#28BCB5" stroke-miterlimit="10" width="2.902" height="0.784"/>
			<circle fill="#28BCB5" stroke="#28BCB5" stroke-miterlimit="10" cx="35.385" cy="26.933" r="0.889"/>
			<circle fill="#28BCB5" stroke="#28BCB5" stroke-miterlimit="10" cx="39.298" cy="26.933" r="0.889"/>
			<rect x="22.26" y="27.14" fill="#28BCB5" stroke="#28BCB5" stroke-miterlimit="10" width="1.552" height="2.116"/>
			<rect x="21.585" y="26.589" fill="#4E4E4E" stroke="#28BCB5" stroke-miterlimit="10" width="2.9" height="0.788"/>
			<circle fill="#28BCB5" stroke="#28BCB5" stroke-miterlimit="10" cx="21.079" cy="26.983" r="0.889"/>
			<circle fill="#28BCB5" stroke="#28BCB5" stroke-miterlimit="10" cx="24.993" cy="26.983" r="0.889"/>
			<path fill="none" stroke="#28BCB5" stroke-miterlimit="10" d="M23.5,17v-4.423c0-1.126,0.746-1.077,1.871-1.077h3.532
				c1.125,0,1.597-0.049,1.597,1.077V30"/>
		</g>
	</g>
	<g>
		<path fill="none" stroke="#28BCB5" stroke-miterlimit="10" d="M57.513,30.444c0-15.197-12.224-27.516-27.414-27.516
			c-15.191,0-27.658,12.32-27.658,27.516c0,14.763,12.06,26.808,26.06,27.484V56.5h-1.583l-2.7-11.841
			C14.163,42.923,6.629,36.5,5.919,30.5h49.356c-0.721,6-8.471,12.598-18.751,14.239L33.842,56.5H31.5v1.405
			C46.5,57.039,57.513,45.078,57.513,30.444z"/>
	</g>
</g>
</svg>
