<?xml version="1.0" encoding="utf-8"?>
<!-- Generator: Adobe Illustrator 17.1.0, SVG Export Plug-In . SVG Version: 6.00 Build 0)  -->
<!DOCTYPE svg PUBLIC "-//W3C//DTD SVG 1.1 Tiny//EN" "http://www.w3.org/Graphics/SVG/1.1/DTD/svg11-tiny.dtd">
<svg version="1.1" baseProfile="tiny" id="Layer_1" xmlns="http://www.w3.org/2000/svg" xmlns:xlink="http://www.w3.org/1999/xlink"
	 x="0px" y="0px" viewBox="0 0 60 60" xml:space="preserve">
<g>
	<path fill="#28BCB5" d="M23.492,49.118l-6.509-12.021C13.814,36.926,11,34.043,11,30.949V18.084C11,14.958,14.386,12,17.708,12
		h25.728C46.873,12,49,15.049,49,18.084v12.864C49,34.177,46.715,38,43.436,38H24.18L23.492,49.118z M17.708,13
		C14.934,13,12,15.503,12,18.084v12.864C12,33.57,14.568,36,17.285,36h0.297l5.125,9.557L23.238,37h20.197
		C46.048,37,48,33.699,48,30.949V18.084C48,15.52,46.166,13,43.436,13H17.708z"/>
	<circle fill="none" stroke="#28BCB5" stroke-width="1.3" stroke-miterlimit="10" cx="30" cy="30.389" r="27.5"/>
</g>
</svg>
