<?xml version="1.0" encoding="utf-8"?>
<!-- Generator: Adobe Illustrator 17.1.0, SVG Export Plug-In . SVG Version: 6.00 Build 0)  -->
<!DOCTYPE svg PUBLIC "-//W3C//DTD SVG 1.0//EN" "http://www.w3.org/TR/2001/REC-SVG-20010904/DTD/svg10.dtd">
<svg version="1.0" id="Layer_1" xmlns="http://www.w3.org/2000/svg" xmlns:xlink="http://www.w3.org/1999/xlink" x="0px" y="0px"
	 viewBox="0 0 60 60" enable-background="new 0 0 60 60" xml:space="preserve">
<g>
	
		<circle fill="none" stroke="#28BCB5" stroke-width="1.3" stroke-linecap="round" stroke-linejoin="round" stroke-miterlimit="10" cx="30" cy="30.379" r="27.5"/>
	<g>
		<path fill="#28BCB5" d="M39.967,43h-0.011l-17.792-0.551c-8.684,0-14.023-9.098-14.023-15.57
			c-0.021-0.032-0.197-0.268-0.302-0.388c-0.32-0.367-0.683-0.801-0.472-1.265C7.574,24.769,8.181,24.7,8.748,24.7l0.108,0.009
			c6.91,1.639,14.747,2.288,23.536,2.912c5.857,0.416,12.032,0.472,18.276,0.168c0.154-0.014,0.302-0.022,0.428-0.022
			c0.229,0,0.835,0,1.008,0.483c0.191,0.537-0.372,0.999-0.969,1.488c-0.124,0.101-0.285,0.233-0.361,0.308l-0.079,0.529
			C49.775,35.17,48.235,43,39.967,43z M8.377,25.643c0.057,0.069,0.12,0.142,0.168,0.197c0.273,0.314,0.532,0.61,0.532,0.969
			c0,6.082,4.983,14.565,13.098,14.565l17.798,0.412c7.496-0.003,8.886-6.942,9.806-11.535l0.096-0.479
			c0.052-0.254,0.27-0.433,0.667-0.759c0.093-0.076,0.233-0.191,0.361-0.305c-0.053,0.003-0.11,0.007-0.171,0.013
			c-6.327,0.309-12.513,0.25-18.407-0.169c-8.807-0.626-16.666-1.278-23.631-2.924C8.56,25.629,8.457,25.635,8.377,25.643z"/>
		<path fill="#28BCB5" d="M15.623,44.584l-0.89-0.289c0.02-0.062,0.515-1.553,2.622-3.335l0.604,0.715
			C16.079,43.265,15.628,44.571,15.623,44.584z"/>
		<path fill="#28BCB5" d="M44.173,44.793l-0.611-0.709l0.305,0.355l-0.336-0.324c0.064-0.092,0.046-0.654-1.205-1.713l0.604-0.715
			c1.03,0.871,1.554,1.654,1.556,2.326C44.489,44.497,44.225,44.748,44.173,44.793z"/>
		<path fill="#28BCB5" d="M50.561,28.629l-0.932-0.08l0.422-4.923c-1.142-0.752-2.853-1.554-3.502-1.183
			c-0.313,0.177-0.345,0.71-0.315,1.126l-0.934,0.065c-0.069-0.996,0.196-1.671,0.789-2.006c1.449-0.819,4.186,1.007,4.721,1.381
			l0.221,0.155L50.561,28.629z"/>
	</g>
</g>
</svg>
