<?xml version="1.0" encoding="utf-8"?>
<!-- Generator: Adobe Illustrator 17.1.0, SVG Export Plug-In . SVG Version: 6.00 Build 0)  -->
<!DOCTYPE svg PUBLIC "-//W3C//DTD SVG 1.0//EN" "http://www.w3.org/TR/2001/REC-SVG-20010904/DTD/svg10.dtd">
<svg version="1.0" id="Layer_1" xmlns="http://www.w3.org/2000/svg" xmlns:xlink="http://www.w3.org/1999/xlink" x="0px" y="0px"
	 viewBox="0 0 60 60" enable-background="new 0 0 60 60" xml:space="preserve">
<g>
	<g>
		
			<line fill="none" stroke="#28BCB5" stroke-linecap="round" stroke-linejoin="round" stroke-miterlimit="10" x1="14.527" y1="8.029" x2="14.527" y2="24.7"/>
		
			<line fill="none" stroke="#28BCB5" stroke-linecap="round" stroke-linejoin="round" stroke-miterlimit="10" x1="21.58" y1="24.7" x2="21.58" y2="4.104"/>
		<path fill="none" stroke="#28BCB5" stroke-linecap="round" stroke-linejoin="round" stroke-miterlimit="10" d="M46.93,34.735
			h-5.329c-2.408,0-4.361,1.952-4.361,4.36c0,6.272-5.083,11.356-11.355,11.356c-6.273,0-11.357-5.084-11.357-11.356v-8.912"/>
		<path fill="none" stroke="#28BCB5" stroke-linecap="round" stroke-linejoin="round" stroke-miterlimit="10" d="M21.523,30.183
			v8.912c0,2.408,1.952,4.36,4.36,4.36c2.407,0,4.359-1.952,4.359-4.36c0-6.272,5.086-11.356,11.357-11.356h5.329"/>
		
			<line fill="none" stroke="#28BCB5" stroke-linecap="round" stroke-linejoin="round" stroke-miterlimit="10" x1="56.82" y1="35.944" x2="52.617" y2="35.763"/>
		
			<line fill="none" stroke="#28BCB5" stroke-linecap="round" stroke-linejoin="round" stroke-miterlimit="10" x1="52.617" y1="27.259" x2="57.317" y2="27.221"/>
		<path fill="none" stroke="#28BCB5" stroke-linecap="round" stroke-linejoin="round" stroke-miterlimit="10" d="M15.203,30.19
			v-3.643c0-0.278,0.348-0.503,0.625-0.503c0.279,0,0.683,0.225,0.683,0.503v3.643h3.092v-3.643c0-0.278,0.447-0.503,0.726-0.503
			c0.277,0,0.666,0.225,0.666,0.503v3.643h1.287c0.671,0,1.216-0.544,1.216-1.216v-3.057c0-0.672-0.545-1.217-1.216-1.217h-8.547
			c-0.672,0-1.217,0.545-1.217,1.217v3.057c0,0.671,0.545,1.216,1.217,1.216H15.203z"/>
		<path fill="none" stroke="#28BCB5" stroke-linecap="round" stroke-linejoin="round" stroke-miterlimit="10" d="M52.502,34.082
			h-3.643c-0.278,0-0.503-0.348-0.503-0.625c0-0.279,0.225-0.683,0.503-0.683h3.643v-3.092h-3.643c-0.278,0-0.503-0.447-0.503-0.726
			c0-0.277,0.225-0.666,0.503-0.666h3.643v-1.287c0-0.671-0.544-1.216-1.215-1.216H48.23c-0.672,0-1.217,0.545-1.217,1.216v8.547
			c0,0.672,0.545,1.217,1.217,1.217h3.058c0.671,0,1.215-0.545,1.215-1.217V34.082z"/>
	</g>
	<path fill="none" stroke="#28BCB5" stroke-width="1.3" stroke-linecap="round" stroke-linejoin="round" stroke-miterlimit="10" d="
		M21.554,4.084c2.661-0.858,5.5-1.321,8.446-1.321c15.188,0,27.5,12.312,27.5,27.5s-12.312,27.5-27.5,27.5S2.5,45.45,2.5,30.262
		c0-9.426,4.743-17.745,11.972-22.7"/>
	<path fill="none" stroke="#28BCB5" stroke-linecap="round" stroke-linejoin="round" stroke-miterlimit="10" d="M14.317,7.514"/>
</g>
</svg>
