<?xml version="1.0" encoding="utf-8"?>
<!-- Generator: Adobe Illustrator 17.1.0, SVG Export Plug-In . SVG Version: 6.00 Build 0)  -->
<!DOCTYPE svg PUBLIC "-//W3C//DTD SVG 1.0//EN" "http://www.w3.org/TR/2001/REC-SVG-20010904/DTD/svg10.dtd">
<svg version="1.0" id="Layer_1" xmlns="http://www.w3.org/2000/svg" xmlns:xlink="http://www.w3.org/1999/xlink" x="0px" y="0px"
	 viewBox="0 0 60 60" enable-background="new 0 0 60 60" xml:space="preserve">
<g>
	
		<circle fill="none" stroke="#28BCB5" stroke-linecap="round" stroke-linejoin="round" stroke-miterlimit="10" cx="30" cy="30.428" r="27.5"/>
	<g>
		<path fill="none" stroke="#28BCB5" stroke-miterlimit="10" d="M21.604,11.017v1.374c0,0.176,0.146,0.321,0.321,0.321h2.482
			c0.177,0,0.322-0.145,0.322-0.321v-1.374"/>
		<g>
			<path fill="#28BCB5" stroke="#28BCB5" stroke-miterlimit="10" d="M32.819,21.357c-1.879,0.744-3.97,0.744-5.849,0
				c0-0.518,0-1.037,0-1.555c1.879-0.744,3.97-0.744,5.849,0C32.819,20.32,32.819,20.839,32.819,21.357z"/>
			<line fill="none" stroke="#28BCB5" stroke-miterlimit="10" x1="18.289" y1="21.391" x2="41.266" y2="21.391"/>
			<rect x="36.155" y="18.949" fill="#28BCB5" stroke="#28BCB5" stroke-miterlimit="10" width="1.551" height="1.953"/>
			<rect x="35.479" y="18.4" fill="#4E4E4E" stroke="#28BCB5" stroke-miterlimit="10" width="2.902" height="0.784"/>
			<circle fill="#28BCB5" stroke="#28BCB5" stroke-miterlimit="10" cx="34.973" cy="18.792" r="0.889"/>
			<circle fill="#28BCB5" stroke="#28BCB5" stroke-miterlimit="10" cx="38.887" cy="18.792" r="0.889"/>
			<rect x="21.849" y="18.999" fill="#28BCB5" stroke="#28BCB5" stroke-miterlimit="10" width="1.552" height="2.116"/>
			<rect x="21.174" y="18.448" fill="#28BCB5" stroke="#28BCB5" stroke-miterlimit="10" width="2.9" height="0.788"/>
			<circle fill="#28BCB5" stroke="#28BCB5" stroke-miterlimit="10" cx="20.668" cy="18.842" r="0.889"/>
			<circle fill="#28BCB5" stroke="#28BCB5" stroke-miterlimit="10" cx="24.582" cy="18.842" r="0.889"/>
			<path fill="none" stroke="#28BCB5" stroke-miterlimit="10" d="M23.5,12V7.436c0-1.125,0.334-0.936,1.46-0.936h3.532
				c1.125,0,2.008-0.19,2.008,0.936V22"/>
		</g>
	</g>
	<g>
		<path fill="none" stroke="#28BCB5" stroke-miterlimit="10" d="M7.314,39.788C7.35,41.039,8.374,42.5,9.495,42.5h40.882
			c1.122,0,2.146-1.461,2.182-2.712l-4.702-15.93c-0.581-1.546-1.158-2.358-2.203-2.358H14.216c-1.036,0-1.596,0.772-2.213,2.396
			L7.314,39.788z"/>
		<path fill="#4E4E4E" stroke="#28BCB5" stroke-miterlimit="10" d="M16.794,34.601c-0.224,0-0.427-0.15-0.484-0.376l-2.746-10.786
			c-0.068-0.267,0.094-0.54,0.361-0.608c0.268-0.07,0.539,0.094,0.607,0.361l2.746,10.786c0.068,0.268-0.094,0.54-0.361,0.608
			C16.877,34.596,16.835,34.601,16.794,34.601z"/>
		<path fill="#4E4E4E" stroke="#28BCB5" stroke-miterlimit="10" d="M42.992,34.601c-0.04,0-0.082-0.005-0.123-0.016
			c-0.267-0.068-0.43-0.34-0.361-0.607l2.744-10.786c0.067-0.267,0.338-0.431,0.607-0.361c0.268,0.068,0.43,0.34,0.361,0.608
			l-2.744,10.786C43.418,34.451,43.215,34.601,42.992,34.601z"/>
	</g>
</g>
</svg>
