<?xml version="1.0" encoding="utf-8"?>
<!-- Generator: Adobe Illustrator 17.1.0, SVG Export Plug-In . SVG Version: 6.00 Build 0)  -->
<!DOCTYPE svg PUBLIC "-//W3C//DTD SVG 1.0//EN" "http://www.w3.org/TR/2001/REC-SVG-20010904/DTD/svg10.dtd">
<svg version="1.0" id="Layer_1" xmlns="http://www.w3.org/2000/svg" xmlns:xlink="http://www.w3.org/1999/xlink" x="0px" y="0px"
	 viewBox="0 0 50 50" enable-background="new 0 0 50 50" xml:space="preserve">
<g>
	<path fill-rule="evenodd" clip-rule="evenodd" fill="#48B1DF" d="M25,1.337c13.069,0,23.663,10.594,23.663,23.663
		S38.069,48.663,25,48.663C11.931,48.663,1.337,38.069,1.337,25S11.931,1.337,25,1.337z"/>
	<path fill-rule="evenodd" clip-rule="evenodd" fill="#FFFFFF" d="M11.964,29.686c0,0,5.055,4.396,9.075,0.038
		c0,0-0.672-0.001-1.104-0.333c-0.393-0.303-0.549-0.938-0.549-0.938s1.25-0.699,0.781-1.227c0,0-2.766-0.055-2.921-1.725
		l1.625-1.049c0,0-0.638,0.309-1.27-0.005c0,0-1.64-1.176-1.327-2.38l1.37-0.14c0,0-2.377-1.689-1.713-2.987
		c0,0,0.229-1.117,8.091,4.104c0,0,1.386-4.933,3.946-6.018c0,0,0.425,0.205,0.425,0.421c0,0,0.363-0.781,0.842-0.853
		c0,0,0.579,0.51,0.203,0.8c0,0,0.974-0.666,1.449-0.328c0,0-0.039,0.593-1.439,1.33c0,0,3.634,0.201,4.902,5.047
		c0,0,1.576,0.566,3.055-0.385c0,0,0.123,0.716-2.174,1.728c0,0,0.214,0.345,2.139,0.083c0,0-0.015,1.432-3.061,1.421
		c0,0-2.572,7.453-8.824,8.479C17.887,36.016,12.55,32.217,11.964,29.686z"/>
</g>
</svg>
