<?xml version="1.0" encoding="utf-8"?>
<!-- Generator: Adobe Illustrator 19.2.0, SVG Export Plug-In . SVG Version: 6.00 Build 0)  -->
<svg version="1.1" id="Layer_1" xmlns="http://www.w3.org/2000/svg" xmlns:xlink="http://www.w3.org/1999/xlink" x="0px" y="0px"
	 viewBox="0 0 300 300" style="enable-background:new 0 0 300 300;" xml:space="preserve">
<style type="text/css">
	.st0{fill:#4190CE;}
	.st1{fill:#7EC1EB;}
	.st2{fill:#F5E7D6;}
	.st3{fill:none;}
	.st4{fill:#A9C738;}
	.st5{fill:#8DB23E;}
	.st6{fill:#0D4566;}
</style>
<circle class="st0" cx="150" cy="150" r="149.7"/>
<g>
	<path class="st1" d="M103.6,104.5c0,0,5.6-4.1,8.4-3.1s4.1-1.6,4.1-1.6s-2-2,1-6.1s6.6-1.8,6.6-1.8s-2.7-6.8,0.3-9.8
		c3.1-3,11.6-3.5,11.6-3.5s1.1-14.5,12.6-16.6s17.6,9.4,17.6,9.4s5.2-1.7,8.8,0.4s5.5,6.2,5.5,6.2s4.1-5.9,13.8-3
		s14.6,4.7,11.2,10.1c-3.4,5.3-11.8,7.7-11.8,7.7s-1,6.8-5.3,8s-11.9-1.1-11.9-1.1s-2.1,3.6-6,3.6s-8.6-4.6-8.6-4.6
		s-0.3,6.1-5.2,5.4c-4.9-0.6-7.9-4.4-7.9-4.4s-3.4,5.5-9.2,5.9s-11.7-1.8-11.7-1.8L103.6,104.5z"/>
	<path class="st2" d="M137.9,106.5c-5,0-9.6-1.5-10.6-1.9l-26.7,0.9l2.4-1.7c0.2-0.1,4.7-3.4,7.9-3.4c0.5,0,0.9,0.1,1.3,0.2
		c1.3,0.5,2.3-0.2,2.7-0.8c-0.5-1-1.1-3.3,1.4-6.7c1.7-2.3,3.6-2.8,4.9-2.8c0.4,0,0.7,0,1,0.1c-0.6-2.4-1.3-6.6,1.1-8.9
		c2.7-2.7,9.2-3.5,11.4-3.7c0.5-3.1,2.8-14.8,13.3-16.7c1-0.2,2-0.3,2.9-0.3c8.8,0,13.9,7.3,15.3,9.5c0.8-0.2,2.3-0.5,4-0.5
		c1.9,0,3.6,0.4,4.9,1.2c2.6,1.5,4.4,3.9,5.2,5.4c1.3-1.2,4.1-3.2,8.5-3.2c1.7,0,3.5,0.3,5.3,0.8c7,2.1,11.6,3.7,12.7,6.6
		c0.5,1.4,0.2,3-1,4.8c-3.1,4.8-9.8,7.3-11.8,7.9c-0.4,1.8-1.8,7-5.9,8.2c-0.9,0.2-2,0.4-3.2,0.4c-3.4,0-7.1-0.9-8.6-1.3
		c-0.8,1.1-3,3.5-6.4,3.5c-3,0-6.3-2.3-8-3.7c-0.6,2.3-2.3,5-6,4.6c-3.8-0.5-6.4-2.6-7.7-3.9c-1.3,1.7-4.5,5.1-9.2,5.4
		C138.8,106.5,138.4,106.5,137.9,106.5z M127.6,102.8l0.2,0.1c0.1,0,5.8,2.1,11.4,1.8c5.2-0.3,8.4-5.4,8.4-5.5l0.7-1.1l0.8,1
		c0,0,2.9,3.5,7.3,4.1c3.9,0.5,4.2-4.4,4.2-4.6l0.1-2l1.4,1.4c0,0,4.5,4.3,8,4.3c3.4,0,5.3-3.1,5.3-3.2l0.4-0.6l0.7,0.2
		c0,0,4.7,1.4,8.7,1.4c1.1,0,2-0.1,2.7-0.3c3.7-1,4.6-7.2,4.7-7.2l0.1-0.6l0.6-0.2c0.1,0,8.2-2.4,11.3-7.3c0.8-1.3,1.1-2.4,0.8-3.2
		c-0.8-2.1-5.5-3.7-11.5-5.5c-1.7-0.5-3.3-0.8-4.8-0.8c-5.5,0-7.9,3.3-8,3.4l-0.9,1.3l-0.7-1.4c0,0-1.8-3.8-5.1-5.8
		c-1.1-0.6-2.4-0.9-4-0.9c-2.2,0-4.1,0.6-4.1,0.6l-0.7,0.2l-0.4-0.7c0-0.1-5-9.2-14-9.2c-0.9,0-1.7,0.1-2.6,0.2
		c-10.6,1.9-11.9,15.7-11.9,15.8l-0.1,0.8l-0.8,0.1c-2.3,0.1-8.7,1-11,3.2c-2.2,2.1-0.8,7-0.1,8.8l1.1,2.7l-2.4-1.6
		c0,0-0.8-0.5-1.9-0.5c-1.3,0-2.5,0.7-3.5,2.1c-2.4,3.4-1.2,4.9-1.1,4.9l0.4,0.5l-0.2,0.6c0,0.1-1.1,2.4-3.7,2.4
		c-0.5,0-1-0.1-1.5-0.3c-1-0.4-3,0.3-4.7,1.2L127.6,102.8z"/>
</g>
<g>
	<path class="st1" d="M131.5,106.1c0,0,5.6-4.1,8.4-3.1c2.8,1,4.1-1.6,4.1-1.6s-2-2,1-6.1s6.6-1.8,6.6-1.8s-2.7-6.8,0.3-9.8
		c3.1-3,11.6-3.5,11.6-3.5s0.2-14.9,11.6-17c11.5-2.1,18.6,9.8,18.6,9.8s5.2-1.7,8.8,0.4s5,4.4,5,4.4s5.5-9.7,15.2-6.8
		c9.7,2.9,13.7,10.3,10.3,15.6c-3.4,5.3-11.8,7.7-11.8,7.7s-1,6.8-5.3,8s-11.9-1.1-11.9-1.1s-2.1,3.6-6,3.6s-8.6-4.6-8.6-4.6
		s-0.3,6.1-5.2,5.4s-7.9-4.4-7.9-4.4s-3.4,5.5-9.2,5.9s-11.7-1.8-11.7-1.8L131.5,106.1z"/>
	<path class="st2" d="M165.8,108.1c-5,0-9.6-1.5-10.6-1.9l-26.7,0.9l2.4-1.7c0.2-0.1,4.7-3.4,7.9-3.4c0.5,0,0.9,0.1,1.3,0.2
		c1.3,0.5,2.3-0.2,2.7-0.8c-0.5-1-1.1-3.2,1.4-6.7c1.7-2.3,3.6-2.8,4.9-2.8c0.4,0,0.7,0,1,0.1c-0.6-2.4-1.3-6.6,1.1-8.9
		c2.7-2.6,9.1-3.5,11.4-3.7c0.3-3.3,1.9-15.1,12.3-17c1-0.2,1.9-0.3,2.9-0.3c9,0,14.8,7.6,16.3,9.9c0.8-0.2,2.3-0.5,4-0.5
		c1.9,0,3.6,0.4,4.9,1.2c2.3,1.3,3.7,2.7,4.5,3.7c1.6-2.2,5.6-6.7,11.7-6.7c1.3,0,2.5,0.2,3.8,0.6c5.8,1.7,10,5.1,11.5,9.2
		c1,2.7,0.7,5.4-0.7,7.7c-3.1,4.8-9.8,7.3-11.8,7.9c-0.4,1.8-1.8,7-5.9,8.2c-0.9,0.2-2,0.4-3.2,0.4c-3.4,0-7.1-0.9-8.6-1.3
		c-0.8,1.1-3,3.5-6.4,3.5c-3,0-6.3-2.3-8-3.7c-0.6,2.3-2.3,5-6,4.6c-3.8-0.5-6.4-2.6-7.7-3.9c-1.3,1.7-4.5,5.1-9.2,5.4
		C166.7,108.1,166.3,108.1,165.8,108.1z M155.5,104.4l0.2,0.1c0.1,0,5.8,2.1,11.4,1.8c5.2-0.3,8.4-5.4,8.4-5.5l0.7-1.1l0.8,1
		c0,0,2.9,3.5,7.3,4.1c3.9,0.5,4.2-4.4,4.2-4.6l0.1-2l1.4,1.4c0,0,4.5,4.3,8,4.3c3.4,0,5.3-3.1,5.3-3.2l0.4-0.6l0.7,0.2
		c0,0,4.7,1.4,8.7,1.4c1.1,0,2-0.1,2.7-0.3c3.7-1,4.6-7.2,4.7-7.2l0.1-0.6l0.6-0.2c0.1,0,8.2-2.4,11.3-7.3c1.2-1.8,1.4-4,0.6-6.1
		c-1.3-3.5-5.2-6.6-10.3-8.1c-1.1-0.3-2.2-0.5-3.3-0.5c-6.9,0-10.9,6.8-10.9,6.9l-0.8,1.3l-0.8-1.3c0,0-1.4-2.2-4.7-4.1
		c-1.1-0.6-2.4-0.9-4-0.9c-2.2,0-4.1,0.6-4.1,0.6l-0.7,0.2l-0.4-0.6c-0.1-0.1-5.8-9.6-15.1-9.6c-0.8,0-1.7,0.1-2.5,0.2
		C164.9,66,164.6,80,164.6,80.2V81l-0.8,0.1c-2.3,0.1-8.7,1-11,3.2c-2.1,2.1-0.8,7-0.1,8.8l1.1,2.7l-2.4-1.5c0,0-0.8-0.5-1.9-0.5
		c-1.3,0-2.5,0.7-3.5,2.1c-2.4,3.4-1.2,4.9-1.1,4.9l0.4,0.5l-0.2,0.6c0,0.1-1.1,2.4-3.7,2.4c-0.5,0-1-0.1-1.5-0.3
		c-1-0.4-3,0.3-4.7,1.2L155.5,104.4z"/>
</g>
<g>
	<circle class="st3" cx="150" cy="150" r="149.7"/>
	<path class="st4" d="M295,187.6c-13.9-1.4-33.6-1.2-61.5,2.2c-86.2,10.6-79.1,5.9-149.1,0.6c-33.1-2.5-59.3-0.4-77.9,2.7
		C25,254.7,82.3,299.7,150,299.7C219.7,299.7,278.3,252.1,295,187.6z"/>
	<circle class="st3" cx="150" cy="150" r="149.7"/>
	<path class="st5" d="M150,299.7c50.1,0,94.5-24.6,121.6-62.4c-14-1.4-34.1-3.6-62.9-6.8c-87.5-9.7-79.2-6.3-149,3.4
		c-11,1.5-21.3,2.9-30.8,4.1C56.2,275.5,100.3,299.7,150,299.7z"/>
</g>
<g>
	<path class="st6" d="M67.7,209.9c2.4,0,4.5,1.2,5.8,2.5l-2.4,2.7c-1-0.9-1.9-1.5-3.3-1.5c-2.7,0-4.9,2.4-4.9,6.3
		c0,4,1.9,6.4,4.7,6.4c1.6,0,2.8-0.7,3.7-1.7l2.4,2.7c-1.6,1.9-3.8,2.9-6.2,2.9c-5.1,0-9.2-3.5-9.2-10
		C58.4,213.7,62.6,209.9,67.7,209.9z"/>
	<path class="st6" d="M74.6,220c0-6.4,3.6-10,8.9-10c5.3,0,8.9,3.7,8.9,10c0,6.4-3.6,10.2-8.9,10.2C78.3,230.2,74.6,226.4,74.6,220z
		 M87.9,220c0-3.9-1.7-6.2-4.4-6.2c-2.6,0-4.3,2.3-4.3,6.2c0,3.9,1.7,6.4,4.3,6.4C86.2,226.4,87.9,223.9,87.9,220z"/>
	<path class="st6" d="M96.1,210.3h4.7l3.3,8.8l1.2,3.4h0.1l1.2-3.4l3.2-8.8h4.7v19.6h-4.1v-7.2c0-1.9,0.4-4.8,0.6-6.7h-0.1l-1.6,4.5
		l-3,7.6h-1.8l-3-7.6l-1.6-4.5h-0.1c0.2,1.9,0.6,4.7,0.6,6.7v7.2h-4.1V210.3z"/>
	<path class="st6" d="M118.9,210.3h7.1c4.3,0,7.6,1.6,7.6,6.3c0,4.6-3.5,6.6-7.6,6.6h-2.7v6.6h-4.4V210.3z M125.8,219.7
		c2.4,0,3.6-1.1,3.6-3.1s-1.3-2.8-3.6-2.8h-2.4v5.9H125.8z"/>
	<path class="st6" d="M144.7,225.2h-6l-1.2,4.6H133l6.1-19.6h5.3l6.1,19.6h-4.7L144.7,225.2z M143.8,221.7l-0.5-1.8
		c-0.5-2-1-4.3-1.6-6.3h-0.1c-0.5,2.1-1,4.3-1.5,6.3l-0.5,1.8H143.8z"/>
	<path class="st6" d="M152.7,210.3h4.5l5.1,9.7l2,4.3h0.1c-0.2-2.1-0.6-4.8-0.6-7.1v-6.9h4.2v19.6h-4.5l-5.1-9.8l-1.9-4.3h-0.1
		c0.2,2.2,0.6,4.8,0.6,7.1v6.9h-4.2V210.3z M158.7,207.4c-0.5,0-0.9,0.4-1.2,1.4h-2.2c0.3-2.7,1.6-4.1,3.2-4.1s2.7,1.3,3.6,1.3
		c0.5,0,1-0.4,1.2-1.3h2.2c-0.3,2.7-1.7,4.1-3.2,4.1C160.6,208.8,159.6,207.4,158.7,207.4z"/>
	<path class="st6" d="M176.1,208.8h-3.5l2.4-3.6h4.7L176.1,208.8z M172.6,210.3h4.4v19.6h-4.4V210.3z"/>
	<path class="st6" d="M190.8,225.2h-6l-1.2,4.6h-4.5l6.1-19.6h5.3l6.1,19.6H192L190.8,225.2z M189.9,221.7l-0.5-1.8
		c-0.5-2-1-4.3-1.6-6.3h-0.1c-0.5,2.1-1,4.3-1.5,6.3l-0.5,1.8H189.9z"/>
	<path class="st6" d="M205,210.3h5.5c6,0,9.8,3,9.8,9.7s-3.8,9.9-9.6,9.9H205V210.3z M210.2,226.3c3.3,0,5.5-1.6,5.5-6.3
		c0-4.7-2.2-6.1-5.5-6.1h-0.8v12.4H210.2z"/>
	<path class="st6" d="M224,210.3h12.3v3.7h-7.8v3.9h6.7v3.7h-6.7v4.5h8.1v3.7H224V210.3z"/>
	<path class="st6" d="M59.3,240.3h12.3v3.7h-7.8v3.9h6.7v3.7h-6.7v4.5h8.1v3.7H59.3V240.3z"/>
	<path class="st6" d="M75.7,240.3h4.4v15.8h7.7v3.7H75.7V240.3z"/>
	<path class="st6" d="M91.1,240.3h12.3v3.7h-7.8v3.9h6.7v3.7h-6.7v4.5h8.1v3.7H91.1V240.3z"/>
	<path class="st6" d="M115.9,239.9c2.4,0,4.5,1.2,5.8,2.5l-2.4,2.7c-1-0.9-1.9-1.5-3.3-1.5c-2.7,0-4.9,2.4-4.9,6.3
		c0,4,1.9,6.4,4.7,6.4c1.6,0,2.8-0.7,3.7-1.7l2.4,2.7c-1.6,1.9-3.8,2.9-6.2,2.9c-5.1,0-9.2-3.5-9.2-10
		C106.6,243.7,110.9,239.9,115.9,239.9z"/>
	<path class="st6" d="M128.4,244H123v-3.7h15.2v3.7h-5.4v15.8h-4.4V244z"/>
	<path class="st6" d="M151.8,259.8l-3.7-7h-2.4v7h-4.4v-19.6h7c4.1,0,7.6,1.4,7.6,6.1c0,2.9-1.4,4.7-3.5,5.6l4.4,7.8H151.8z
		 M145.6,249.3h2.2c2.3,0,3.6-1,3.6-2.9s-1.3-2.6-3.6-2.6h-2.2V249.3z"/>
	<path class="st6" d="M159.7,240.3h4.4v19.6h-4.4V240.3z"/>
	<path class="st6" d="M177.1,239.9c2.4,0,4.5,1.2,5.8,2.5l-2.4,2.7c-1-0.9-1.9-1.5-3.3-1.5c-2.7,0-4.9,2.4-4.9,6.3
		c0,4,1.9,6.4,4.7,6.4c1.6,0,2.8-0.7,3.7-1.7l2.4,2.7c-1.6,1.9-3.8,2.9-6.2,2.9c-5.1,0-9.2-3.5-9.2-10
		C167.7,243.7,172,239.9,177.1,239.9z"/>
	<path class="st6" d="M186.1,240.3h4.4v19.6h-4.4V240.3z"/>
	<path class="st6" d="M195.1,240.3h5.5c6,0,9.8,3,9.8,9.7s-3.8,9.9-9.6,9.9h-5.8V240.3z M200.3,256.3c3.3,0,5.5-1.6,5.5-6.3
		c0-4.7-2.2-6.1-5.5-6.1h-0.8v12.4H200.3z"/>
	<path class="st6" d="M223,255.2h-6l-1.2,4.6h-4.5l6.1-19.6h5.3l6.1,19.6h-4.7L223,255.2z M222.1,251.7l-0.5-1.8
		c-0.5-2-1-4.3-1.6-6.3h-0.1c-0.5,2.1-1,4.3-1.5,6.3l-0.5,1.8H222.1z"/>
	<path class="st6" d="M230.9,240.3h5.5c6,0,9.8,3,9.8,9.7s-3.8,9.9-9.6,9.9h-5.8V240.3z M236.2,256.3c3.3,0,5.5-1.6,5.5-6.3
		c0-4.7-2.2-6.1-5.5-6.1h-0.8v12.4H236.2z"/>
</g>
<g>
	<path d="M224.9,187.8h8.9l7.2-34h-9.4v5h-2.9c0-2.7,0-5.3,0-8l12.7-10.2v-6h-9.7v5h-2.9c0-2.7,0-5.3,0-8l12.7-10.2v-2.1
		c0-2.6,2.2-4.4,4.8-4.4c3.7,0,7.5,0,11.2,0c2.5,0,4.8,1.8,4.8,4.5v2.2l12.7,10.2c0,2.6,0,5.3,0,7.9h-2.9v-5h-9.7v6l12.7,10.2
		c0,2.6,0,5.3,0,7.9h-2.9c0-1.7,0-3.3,0-5h-9.4c2.4,13.8,4.8,20.3,7.2,34h8.9v6.7h-53.6L224.9,187.8L224.9,187.8z M257.2,153.7
		h-10.9l5.5,5.4C253.6,157.4,255.4,155.6,257.2,153.7L257.2,153.7z M251.7,161.8l-8.1,7.6l8.1,6.6l8.1-6.6L251.7,161.8L251.7,161.8z
		 M251.5,178.4l-11.6,9.3h23.5L251.5,178.4L251.5,178.4z M260.7,171.1l-7.8,6l11.1,8.4L260.7,171.1L260.7,171.1z M257.6,155.9
		l-4.6,4.5l7,6.4L257.6,155.9L257.6,155.9z M242.7,171.1l-3.3,14.5l10.9-8.4L242.7,171.1L242.7,171.1z M245.9,155.9l-2.4,10.9l7-6.4
		L245.9,155.9L245.9,155.9z M246.5,148.4l4.1-5.9l-4.1-5.9V148.4L246.5,148.4z M251.8,140.9l4.5-6.3h-9L251.8,140.9L251.8,140.9z
		 M257,136.8l-4.1,5.8l4.1,5.8V136.8L257,136.8z M251.8,144.1l-4.7,6.7h9.5L251.8,144.1L251.8,144.1z M246.5,129.6l4-4l-4-4V129.6
		L246.5,129.6z M251.8,124.3l4.3-4.3c-2.9,0-5.7,0-8.6,0L251.8,124.3L251.8,124.3z M257,121.7l-3.9,3.9l3.9,3.9V121.7L257,121.7z
		 M251.8,126.9l-4.7,4.7h9.4L251.8,126.9L251.8,126.9z M262.1,144.2v6.7h8.3L262.1,144.2L262.1,144.2z M233,150.8h8.3v-6.7
		L233,150.8L233,150.8z M262.1,125v6.6h8.3L262.1,125L262.1,125z M233,131.6h8.3V125L233,131.6z"/>
</g>
<g>
	<path d="M24.9,187.8h8.9l7.2-34h-9.4v5h-2.9c0-2.7,0-5.3,0-8l12.7-10.2v-6h-9.7v5h-2.9c0-2.7,0-5.3,0-8l12.7-10.2v-2.1
		c0-2.6,2.2-4.4,4.8-4.4c3.7,0,7.5,0,11.2,0c2.5,0,4.8,1.8,4.8,4.5v2.2L75,131.8c0,2.6,0,5.3,0,7.9h-2.9v-5h-9.7v6l12.7,10.2
		c0,2.6,0,5.3,0,7.9h-2.9c0-1.7,0-3.3,0-5h-9.4c2.4,13.8,4.8,20.3,7.2,34h8.9v6.7h-54V187.8L24.9,187.8z M57.2,153.7h-11l5.5,5.4
		C53.5,157.4,55.4,155.6,57.2,153.7L57.2,153.7z M51.7,161.8l-8.1,7.6l8.1,6.6l8.1-6.6L51.7,161.8L51.7,161.8z M51.5,178.4L40,187.8
		h23.5L51.5,178.4L51.5,178.4z M60.7,171.1l-7.8,6l11.1,8.4L60.7,171.1L60.7,171.1z M57.6,155.9l-4.6,4.5l7,6.4L57.6,155.9
		L57.6,155.9z M42.7,171.1l-3.3,14.5l10.9-8.4L42.7,171.1L42.7,171.1z M45.9,155.9l-2.4,10.9l7-6.4L45.9,155.9L45.9,155.9z
		 M46.5,148.4l4.1-5.9l-4.1-5.9V148.4L46.5,148.4z M51.7,140.9l4.5-6.3h-9L51.7,140.9L51.7,140.9z M56.9,136.8l-4.1,5.8l4.1,5.8
		V136.8L56.9,136.8z M51.7,144.1l-4.7,6.7h9.5L51.7,144.1L51.7,144.1z M46.5,129.6l4-4l-4-4V129.6L46.5,129.6z M51.7,124.3L56,120
		c-2.9,0-5.7,0-8.6,0L51.7,124.3L51.7,124.3z M56.9,121.7l-3.9,3.9l3.9,3.9V121.7L56.9,121.7z M51.7,126.9l-4.7,4.7h9.4L51.7,126.9
		L51.7,126.9z M62.1,144.2v6.7h8.3L62.1,144.2L62.1,144.2z M33,150.8h8.3v-6.7L33,150.8L33,150.8z M62.1,125v6.6h8.3L62.1,125
		L62.1,125z M33,131.6h8.3V125L33,131.6z"/>
</g>
<path class="st6" d="M196.8,143.9l-45.7,0.2l-2.1-38.5h-16l-1.1,38h-11.2l-1.1-37.6h-16.2l-4.3,88.2l100,0.1L196.8,143.9z
	 M121.7,169.6h-9.5v-13h9.5V169.6z M143.8,169.6h-9.5v-13h9.5V169.6z M163.7,169.6h-9.5v-13h9.5V169.6z M185.8,169.6h-9.5v-13h9.5
	V169.6z"/>
</svg>
