<?xml version="1.0" encoding="utf-8"?>
<!-- Generator: Adobe Illustrator 17.1.0, SVG Export Plug-In . SVG Version: 6.00 Build 0)  -->
<svg version="1.2" baseProfile="tiny" id="Layer_1" xmlns="http://www.w3.org/2000/svg" xmlns:xlink="http://www.w3.org/1999/xlink"
	 x="0px" y="0px" viewBox="0 0 300 300" xml:space="preserve">
<circle fill="#4190CE" cx="150" cy="150" r="149.7"/>
<g>
	<path fill="#7EC1EB" d="M103.6,104.5c0,0,5.6-4.1,8.4-3.1s4.1-1.6,4.1-1.6s-2-2,1-6.1c3-4.1,6.6-1.8,6.6-1.8s-2.7-6.8,0.3-9.8
		c3.1-3,11.6-3.5,11.6-3.5s1.1-14.5,12.6-16.6c11.5-2.1,17.6,9.4,17.6,9.4s5.2-1.7,8.8,0.4c3.6,2.1,5.5,6.2,5.5,6.2s4.1-5.9,13.8-3
		c9.7,2.9,14.6,4.7,11.2,10.1c-3.4,5.3-11.8,7.7-11.8,7.7s-1,6.8-5.3,8c-4.3,1.2-11.9-1.1-11.9-1.1s-2.1,3.6-6,3.6
		c-3.9,0-8.6-4.6-8.6-4.6s-0.3,6.1-5.2,5.4c-4.9-0.6-7.9-4.4-7.9-4.4s-3.4,5.5-9.2,5.9c-5.8,0.4-11.7-1.8-11.7-1.8L103.6,104.5z"/>
	<path fill="#F5E7D6" d="M137.9,106.5c-5,0-9.6-1.5-10.6-1.9l-26.7,0.9l2.4-1.7c0.2-0.1,4.7-3.4,7.9-3.4c0.5,0,0.9,0.1,1.3,0.2
		c1.3,0.5,2.3-0.2,2.7-0.8c-0.5-1-1.1-3.3,1.4-6.7c1.7-2.3,3.6-2.8,4.9-2.8c0.4,0,0.7,0,1,0.1c-0.6-2.4-1.3-6.6,1.1-8.9
		c2.7-2.7,9.2-3.5,11.4-3.7c0.5-3.1,2.8-14.8,13.3-16.7c1-0.2,2-0.3,2.9-0.3c8.8,0,13.9,7.3,15.3,9.5c0.8-0.2,2.3-0.5,4-0.5
		c1.9,0,3.6,0.4,4.9,1.2c2.6,1.5,4.4,3.9,5.2,5.4c1.3-1.2,4.1-3.2,8.5-3.2c1.7,0,3.5,0.3,5.3,0.8c7,2.1,11.6,3.7,12.7,6.6
		c0.5,1.4,0.2,3-1,4.8c-3.1,4.8-9.8,7.3-11.8,7.9c-0.4,1.8-1.8,7-5.9,8.2c-0.9,0.2-2,0.4-3.2,0.4c-3.4,0-7.1-0.9-8.6-1.3
		c-0.8,1.1-3,3.5-6.4,3.5c-3,0-6.3-2.3-8-3.7c-0.6,2.3-2.3,5-6,4.6c-3.8-0.5-6.4-2.6-7.7-3.9c-1.3,1.7-4.5,5.1-9.2,5.4
		C138.8,106.5,138.4,106.5,137.9,106.5z M127.6,102.8l0.2,0.1c0.1,0,5.8,2.1,11.4,1.8c5.2-0.3,8.4-5.4,8.4-5.5l0.7-1.1l0.8,1
		c0,0,2.9,3.5,7.3,4.1c3.9,0.5,4.2-4.4,4.2-4.6l0.1-2l1.4,1.4c0,0,4.5,4.3,8,4.3c3.4,0,5.3-3.1,5.3-3.2l0.4-0.6l0.7,0.2
		c0,0,4.7,1.4,8.7,1.4c1.1,0,2-0.1,2.7-0.3c3.7-1,4.6-7.2,4.7-7.2l0.1-0.6l0.6-0.2c0.1,0,8.2-2.4,11.3-7.3c0.8-1.3,1.1-2.4,0.8-3.2
		c-0.8-2.1-5.5-3.7-11.5-5.5c-1.7-0.5-3.3-0.8-4.8-0.8c-5.5,0-7.9,3.3-8,3.4l-0.9,1.3l-0.7-1.4c0,0-1.8-3.8-5.1-5.8
		c-1.1-0.6-2.4-0.9-4-0.9c-2.2,0-4.1,0.6-4.1,0.6l-0.7,0.2l-0.4-0.7c0-0.1-5-9.2-14-9.2c-0.9,0-1.7,0.1-2.6,0.2
		c-10.6,1.9-11.9,15.7-11.9,15.8l-0.1,0.8l-0.8,0.1c-2.3,0.1-8.7,1-11,3.2c-2.2,2.1-0.8,7-0.1,8.8l1.1,2.7l-2.4-1.6
		c0,0-0.8-0.5-1.9-0.5c-1.3,0-2.5,0.7-3.5,2.1c-2.4,3.4-1.2,4.9-1.1,4.9l0.4,0.5l-0.2,0.6c0,0.1-1.1,2.4-3.7,2.4
		c-0.5,0-1-0.1-1.5-0.3c-1-0.4-3,0.3-4.7,1.2L127.6,102.8z"/>
</g>
<g>
	<path fill="#7EC1EB" d="M131.5,106.1c0,0,5.6-4.1,8.4-3.1c2.8,1,4.1-1.6,4.1-1.6s-2-2,1-6.1c3-4.1,6.6-1.8,6.6-1.8
		s-2.7-6.8,0.3-9.8c3.1-3,11.6-3.5,11.6-3.5s0.2-14.9,11.6-17c11.5-2.1,18.6,9.8,18.6,9.8s5.2-1.7,8.8,0.4c3.6,2.1,5,4.4,5,4.4
		s5.5-9.7,15.2-6.8c9.7,2.9,13.7,10.3,10.3,15.6c-3.4,5.3-11.8,7.7-11.8,7.7s-1,6.8-5.3,8c-4.3,1.2-11.9-1.1-11.9-1.1
		s-2.1,3.6-6,3.6c-3.9,0-8.6-4.6-8.6-4.6s-0.3,6.1-5.2,5.4s-7.9-4.4-7.9-4.4s-3.4,5.5-9.2,5.9c-5.8,0.4-11.7-1.8-11.7-1.8
		L131.5,106.1z"/>
	<path fill="#F5E7D6" d="M165.8,108.1c-5,0-9.6-1.5-10.6-1.9l-26.7,0.9l2.4-1.7c0.2-0.1,4.7-3.4,7.9-3.4c0.5,0,0.9,0.1,1.3,0.2
		c1.3,0.5,2.3-0.2,2.7-0.8c-0.5-1-1.1-3.2,1.4-6.7c1.7-2.3,3.6-2.8,4.9-2.8c0.4,0,0.7,0,1,0.1c-0.6-2.4-1.3-6.6,1.1-8.9
		c2.7-2.6,9.1-3.5,11.4-3.7c0.3-3.3,1.9-15.1,12.3-17c1-0.2,1.9-0.3,2.9-0.3c9,0,14.8,7.6,16.3,9.9c0.8-0.2,2.3-0.5,4-0.5
		c1.9,0,3.6,0.4,4.9,1.2c2.3,1.3,3.7,2.7,4.5,3.7c1.6-2.2,5.6-6.7,11.7-6.7c1.3,0,2.5,0.2,3.8,0.6c5.8,1.7,10,5.1,11.5,9.2
		c1,2.7,0.7,5.4-0.7,7.7c-3.1,4.8-9.8,7.3-11.8,7.9c-0.4,1.8-1.8,7-5.9,8.2c-0.9,0.2-2,0.4-3.2,0.4c-3.4,0-7.1-0.9-8.6-1.3
		c-0.8,1.1-3,3.5-6.4,3.5c-3,0-6.3-2.3-8-3.7c-0.6,2.3-2.3,5-6,4.6c-3.8-0.5-6.4-2.6-7.7-3.9c-1.3,1.7-4.5,5.1-9.2,5.4
		C166.7,108.1,166.3,108.1,165.8,108.1z M155.5,104.4l0.2,0.1c0.1,0,5.8,2.1,11.4,1.8c5.2-0.3,8.4-5.4,8.4-5.5l0.7-1.1l0.8,1
		c0,0,2.9,3.5,7.3,4.1c3.9,0.5,4.2-4.4,4.2-4.6l0.1-2l1.4,1.4c0,0,4.5,4.3,8,4.3c3.4,0,5.3-3.1,5.3-3.2l0.4-0.6l0.7,0.2
		c0,0,4.7,1.4,8.7,1.4c1.1,0,2-0.1,2.7-0.3c3.7-1,4.6-7.2,4.7-7.2l0.1-0.6l0.6-0.2c0.1,0,8.2-2.4,11.3-7.3c1.2-1.8,1.4-4,0.6-6.1
		c-1.3-3.5-5.2-6.6-10.3-8.1c-1.1-0.3-2.2-0.5-3.3-0.5c-6.9,0-10.9,6.8-10.9,6.9l-0.8,1.3l-0.8-1.3c0,0-1.4-2.2-4.7-4.1
		c-1.1-0.6-2.4-0.9-4-0.9c-2.2,0-4.1,0.6-4.1,0.6l-0.7,0.2l-0.4-0.6c-0.1-0.1-5.8-9.6-15.1-9.6c-0.8,0-1.7,0.1-2.5,0.2
		c-10.6,1.9-10.9,15.9-10.9,16.1l0,0.8l-0.8,0.1c-2.3,0.1-8.7,1-11,3.2c-2.1,2.1-0.8,7-0.1,8.8l1.1,2.7l-2.4-1.5
		c0,0-0.8-0.5-1.9-0.5c-1.3,0-2.5,0.7-3.5,2.1c-2.4,3.4-1.2,4.9-1.1,4.9l0.4,0.5l-0.2,0.6c0,0.1-1.1,2.4-3.7,2.4
		c-0.5,0-1-0.1-1.5-0.3c-1-0.4-3,0.3-4.7,1.2L155.5,104.4z"/>
</g>
<g>
	<circle fill="none" cx="150" cy="150" r="149.7"/>
	<path fill="#A9C738" d="M295,187.6c-13.9-1.4-33.6-1.2-61.5,2.2c-86.2,10.6-79.1,5.9-149.1,0.6c-33.1-2.5-59.3-0.4-77.9,2.7
		C25,254.7,82.3,299.7,150,299.7C219.7,299.7,278.3,252.1,295,187.6z"/>
	<circle fill="none" cx="150" cy="150" r="149.7"/>
	<path fill="#8DB23E" d="M150,299.7c50.1,0,94.5-24.6,121.6-62.4c-14-1.4-34.1-3.6-62.9-6.8c-87.5-9.7-79.2-6.3-149,3.4
		c-11,1.5-21.3,2.9-30.8,4.1C56.2,275.5,100.3,299.7,150,299.7z"/>
</g>
<g>
	<path d="M224.9,187.8h8.9l7.2-34h-9.4v5h-2.9c0-2.7,0-5.3,0-8l12.7-10.2v-6h-9.7v5h-2.9c0-2.7,0-5.3,0-8l12.7-10.2v-2.1
		c0-2.6,2.2-4.4,4.8-4.4c3.7,0,7.5,0,11.2,0c2.5,0,4.8,1.8,4.8,4.5v2.2l12.7,10.2c0,2.6,0,5.3,0,7.9h-2.9v-5h-9.7v6l12.7,10.2
		c0,2.6,0,5.3,0,7.9h-2.9c0-1.7,0-3.3,0-5h-9.4c2.4,13.8,4.8,20.3,7.2,34h8.9v6.7h-53.6L224.9,187.8L224.9,187.8z M257.2,153.7
		h-10.9l5.5,5.4C253.6,157.4,255.4,155.6,257.2,153.7L257.2,153.7z M251.7,161.8l-8.1,7.6l8.1,6.6l8.1-6.6L251.7,161.8L251.7,161.8z
		 M251.5,178.4l-11.6,9.3h23.5L251.5,178.4L251.5,178.4z M260.7,171.1l-7.8,6l11.1,8.4L260.7,171.1L260.7,171.1z M257.6,155.9
		l-4.6,4.5l7,6.4L257.6,155.9L257.6,155.9z M242.7,171.1l-3.3,14.5l10.9-8.4L242.7,171.1L242.7,171.1z M245.9,155.9l-2.4,10.9l7-6.4
		L245.9,155.9L245.9,155.9z M246.5,148.4l4.1-5.9l-4.1-5.9V148.4L246.5,148.4z M251.8,140.9l4.5-6.3h-9L251.8,140.9L251.8,140.9z
		 M257,136.8l-4.1,5.8l4.1,5.8V136.8L257,136.8z M251.8,144.1l-4.7,6.7h9.5L251.8,144.1L251.8,144.1z M246.5,129.6l4-4l-4-4V129.6
		L246.5,129.6z M251.8,124.3l4.3-4.3c-2.9,0-5.7,0-8.6,0L251.8,124.3L251.8,124.3z M257,121.7l-3.9,3.9l3.9,3.9V121.7L257,121.7z
		 M251.8,126.9l-4.7,4.7h9.4L251.8,126.9L251.8,126.9z M262.1,144.2v6.7h8.3L262.1,144.2L262.1,144.2z M233,150.8h8.3v-6.7
		L233,150.8L233,150.8z M262.1,125v6.6h8.3L262.1,125L262.1,125z M233,131.6h8.3V125L233,131.6z"/>
</g>
<g>
	<path d="M24.9,187.8h8.9l7.2-34h-9.4v5h-2.9c0-2.7,0-5.3,0-8l12.7-10.2v-6h-9.7v5h-2.9c0-2.7,0-5.3,0-8l12.7-10.2v-2.1
		c0-2.6,2.2-4.4,4.8-4.4c3.7,0,7.5,0,11.2,0c2.5,0,4.8,1.8,4.8,4.5v2.2l12.7,10.2c0,2.6,0,5.3,0,7.9h-2.9v-5h-9.7v6l12.7,10.2
		c0,2.6,0,5.3,0,7.9h-2.9c0-1.7,0-3.3,0-5h-9.4c2.4,13.8,4.8,20.3,7.2,34h8.9v6.7H24.9V187.8L24.9,187.8z M57.2,153.7H46.2l5.5,5.4
		C53.5,157.4,55.4,155.6,57.2,153.7L57.2,153.7z M51.7,161.8l-8.1,7.6l8.1,6.6l8.1-6.6L51.7,161.8L51.7,161.8z M51.5,178.4L40,187.8
		h23.5L51.5,178.4L51.5,178.4z M60.7,171.1l-7.8,6l11.1,8.4L60.7,171.1L60.7,171.1z M57.6,155.9l-4.6,4.5l7,6.4L57.6,155.9
		L57.6,155.9z M42.7,171.1l-3.3,14.5l10.9-8.4L42.7,171.1L42.7,171.1z M45.9,155.9l-2.4,10.9l7-6.4L45.9,155.9L45.9,155.9z
		 M46.5,148.4l4.1-5.9l-4.1-5.9V148.4L46.5,148.4z M51.7,140.9l4.5-6.3h-9L51.7,140.9L51.7,140.9z M56.9,136.8l-4.1,5.8l4.1,5.8
		V136.8L56.9,136.8z M51.7,144.1l-4.7,6.7h9.5L51.7,144.1L51.7,144.1z M46.5,129.6l4-4l-4-4V129.6L46.5,129.6z M51.7,124.3L56,120
		c-2.9,0-5.7,0-8.6,0L51.7,124.3L51.7,124.3z M56.9,121.7l-3.9,3.9l3.9,3.9V121.7L56.9,121.7z M51.7,126.9l-4.7,4.7h9.4L51.7,126.9
		L51.7,126.9z M62.1,144.2v6.7h8.3L62.1,144.2L62.1,144.2z M33,150.8h8.3v-6.7L33,150.8L33,150.8z M62.1,125v6.6h8.3L62.1,125
		L62.1,125z M33,131.6h8.3V125L33,131.6z"/>
</g>
<path fill="#0D4566" d="M196.8,143.9l-45.7,0.2l-2.1-38.5h-16l-1.1,38h-11.2l-1.1-37.6h-16.2l-4.3,88.2l100,0.1L196.8,143.9z
	 M121.7,169.6h-9.5v-13h9.5V169.6z M143.8,169.6h-9.5v-13h9.5V169.6z M163.7,169.6h-9.5v-13h9.5V169.6z M185.8,169.6h-9.5v-13h9.5
	V169.6z"/>
<g>
	<path fill="#0D4566" d="M74.7,210.2h14.7v4.5H80v4.7h8v4.4h-8v5.4h9.8v4.5H74.7V210.2z"/>
	<path fill="#0D4566" d="M94.3,210.2h5.3v19h9.3v4.5H94.3V210.2z"/>
	<path fill="#0D4566" d="M112.9,210.2h14.7v4.5h-9.4v4.7h8v4.4h-8v5.4h9.8v4.5h-15.1V210.2z"/>
	<path fill="#0D4566" d="M142.6,209.8c2.9,0,5.4,1.4,6.9,3.1l-2.9,3.3c-1.2-1.1-2.3-1.8-4-1.8c-3.3,0-5.8,2.8-5.8,7.6
		c0,4.8,2.3,7.6,5.7,7.6c1.9,0,3.3-0.8,4.5-2.1l2.9,3.2c-1.9,2.3-4.5,3.5-7.5,3.5c-6.1,0-11.1-4.1-11.1-12
		C131.4,214.3,136.6,209.8,142.6,209.8z"/>
	<path fill="#0D4566" d="M157.6,214.7h-6.5v-4.5h18.2v4.5h-6.4v19h-5.3V214.7z"/>
	<path fill="#0D4566" d="M185.7,233.7l-4.5-8.5h-2.9v8.5H173v-23.5h8.5c5,0,9.1,1.7,9.1,7.3c0,3.5-1.7,5.7-4.2,6.8l5.3,9.4H185.7z
		 M178.3,221h2.7c2.8,0,4.3-1.2,4.3-3.5s-1.5-3.1-4.3-3.1h-2.7V221z"/>
	<path fill="#0D4566" d="M195.1,210.2h5.3v23.5h-5.3V210.2z"/>
	<path fill="#0D4566" d="M216,209.8c2.9,0,5.4,1.4,6.9,3.1l-2.9,3.3c-1.2-1.1-2.3-1.8-4-1.8c-3.3,0-5.8,2.8-5.8,7.6
		c0,4.8,2.3,7.6,5.7,7.6c1.9,0,3.3-0.8,4.5-2.1l2.9,3.2c-1.9,2.3-4.5,3.5-7.5,3.5c-6.1,0-11.1-4.1-11.1-12
		C204.8,214.3,210,209.8,216,209.8z"/>
	<path fill="#0D4566" d="M89.5,244.2h5.3v13.1c0,4.6,1.4,6.2,4.1,6.2c2.6,0,4.2-1.6,4.2-6.2v-13.1h5.1v12.6c0,7.9-3.2,11.3-9.3,11.3
		c-6.1,0-9.4-3.4-9.4-11.3V244.2z"/>
	<path fill="#0D4566" d="M118.1,248.7h-6.5v-4.5h18.2v4.5h-6.4v19h-5.3V248.7z"/>
	<path fill="#0D4566" d="M133.5,244.2h5.3v23.5h-5.3V244.2z"/>
	<path fill="#0D4566" d="M144.3,244.2h5.3v19h9.3v4.5h-14.6V244.2z"/>
	<path fill="#0D4566" d="M162.9,244.2h5.3v23.5h-5.3V244.2z"/>
	<path fill="#0D4566" d="M178.3,248.7h-6.5v-4.5H190v4.5h-6.4v19h-5.3V248.7z"/>
	<path fill="#0D4566" d="M197,259.3l-7.1-15.1h5.7l2.1,5.4c0.6,1.8,1.2,3.4,1.9,5.2h0.1c0.6-1.8,1.3-3.4,2-5.2l2.1-5.4h5.5
		l-7.1,15.1v8.4H197V259.3z"/>
</g>
</svg>
