<?xml version="1.0" encoding="utf-8"?>
<!-- Generator: Adobe Illustrator 17.1.0, SVG Export Plug-In . SVG Version: 6.00 Build 0)  -->
<svg version="1.2" baseProfile="tiny" id="Layer_1" xmlns="http://www.w3.org/2000/svg" xmlns:xlink="http://www.w3.org/1999/xlink"
	 x="0px" y="0px" viewBox="49.5 649.2 199.5 121.5" xml:space="preserve">
<path fill="#A5A500" d="M245.1,737.6c0,17.3-43.8,28.4-97.8,28.4s-97.8-11-97.8-28.4s43.8-25.4,97.8-25.4S245.1,720.3,245.1,737.6z"
	/>
<g>
	<g>
		<path fill="#00380B" d="M132.2,742.3c0,0,0.1-0.2,0.1-0.7c0-0.1,0-0.3,0.1-0.4s0-0.3,0-0.5c0-0.3,0-0.7,0-1.2
			c-0.1-0.9-0.2-1.9-0.3-3c-0.1-0.6-0.2-1.2-0.4-1.8c-0.1-0.3-0.2-0.6-0.2-1c0-0.2,0-0.4-0.2-0.5c0-0.2-0.1-0.4-0.2-0.5
			c-0.1-0.4-0.2-0.6-0.2-1c-0.1-0.4-0.2-0.7-0.4-1.1c-0.3-0.6-0.6-1.5-1-2.3c-0.8-1.5-1.7-3-2.8-4.4c-1.1-1.4-2.5-2.7-4.1-3.9
			c-1.7-1.1-3.5-1.9-5.5-2.3c-0.5-0.1-1.1-0.1-1.5-0.1l-0.4,0l-0.1,0l-0.1,0l0,0l0,0l-0.2,0l-0.6,0.1c-0.2,0-0.5,0.1-0.8,0.2
			l-0.8,0.2c-0.5,0.2-1,0.4-1.4,0.6c-1.8,0.9-3.4,2.1-4.7,3.1c-1.4,1.1-2.6,2.4-3.8,3.3c-1.2,1-2.4,1.9-3.5,2.6
			c-1.1,0.7-2.2,1.1-3.2,1.2c-1,0.1-1.8-0.1-2.5-0.4c-0.7-0.3-1.1-0.8-1.4-1c-0.3-0.3-0.4-0.4-0.4-0.4l0,0c-0.1,0-0.2-0.1-0.3,0
			c0,0.1-0.1,0.2,0,0.3c0,0,0.2,0.2,0.3,0.6c0.3,0.4,0.7,0.8,1.4,1.3c0.7,0.5,1.7,0.9,2.9,0.9c1.3,0,2.6-0.4,3.9-1
			c1.3-0.6,2.7-1.4,4-2.4c1.4-0.9,2.6-2,4-2.9c1.4-0.9,2.9-1.9,4.3-2.5c0.4-0.2,0.7-0.3,1.2-0.4l0.5-0.2c0.2,0,0.3-0.1,0.6-0.1
			l0.6-0.1l0.2,0l0,0l0,0c0,0,0.1,0-0.1,0l0.1,0l0.3,0c0.4,0.1,0.8,0,1.2,0.1c1.6,0.2,2.9,1,4.3,2c1.3,0.9,2.4,2.1,3.4,3.4
			c0.9,1.2,1.8,2.6,2.5,3.9c0.3,0.6,0.6,1.3,0.9,1.9c0.1,0.3,0.2,0.5,0.4,0.9s0.2,0.6,0.3,0.9c0.2,0.6,0.5,1.3,0.7,1.8
			c0.2,0.5,0.4,1.2,0.7,1.7c0.2,0.5,0.4,1,0.6,1.5c0.2,0.5,0.3,0.8,0.5,1.3c0.2,0.7,0.5,1.3,0.6,1.7c0.2,0.5,0.2,0.6,0.2,0.6
			c0.1,0.2,0.3,0.4,0.5,0.3C132,742.5,132.2,742.3,132.2,742.3z"/>
		<path fill="#00380B" d="M133.3,742.7c0,0,0.1-0.2,0.1-0.4c0-0.3,0.1-0.8,0.2-1.4c0.1-0.5,0.1-1.3,0.4-2.1c0.1-0.8,0.2-1.7,0.4-2.7
			c0.1-1,0.3-2.2,0.2-3.4c0-0.6,0-1.3,0-1.8c-0.1-0.6,0-1.3-0.2-2c-0.2-1.3-0.4-2.5-0.8-3.8c-0.2-0.6-0.3-1.4-0.5-2
			c-0.2-0.6-0.4-1.3-0.6-2c-0.3-0.6-0.5-1.3-0.8-1.9l-0.1-0.2l0-0.1l0,0l0-0.1l-0.3-0.5c-0.1-0.3-0.3-0.6-0.5-0.8
			c-1-1.6-2.1-2.8-2.6-3.2c-1-0.9-1.9-1.7-2.9-2.4c-1-0.6-1.9-1.2-2.9-1.5c-0.2-0.1-0.5-0.2-0.7-0.3c-0.2-0.1-0.5-0.2-0.7-0.3
			c-0.4-0.1-0.9-0.2-1.3-0.3c-0.4-0.1-0.8-0.1-1.1-0.2c-0.2-0.1-0.4-0.1-0.5,0c-0.2,0-0.3,0-0.4,0c-0.3,0-0.5,0.1-0.8,0.1
			c-0.3,0-0.5,0.1-0.6,0.1c-0.4,0-0.5,0.1-0.5,0.1c-0.1,0-0.1,0.1-0.2,0.2c0,0.1,0,0.1,0.2,0.2l0,0c0,0,0.2,0.1,0.4,0.1
			c0.2,0.1,0.3,0,0.5,0c0.2,0.1,0.4,0.1,0.7,0.2c0.2,0.1,0.3,0.1,0.4,0.1c0.2,0.1,0.3,0.1,0.5,0.2c0.3,0.1,0.6,0.2,1,0.4
			c0.4,0.1,0.7,0.3,1.1,0.5c0.2,0.1,0.4,0.1,0.6,0.3c0.2,0.1,0.3,0.2,0.5,0.4c0.3,0.2,0.8,0.6,1.2,0.8c0.4,0.3,0.8,0.7,1.2,1
			c0.8,0.8,1.6,1.5,2.3,2.3c0.2,0.2,0.3,0.5,0.5,0.7c0.2,0.2,0.3,0.5,0.5,0.7c0.2,0.2,0.3,0.6,0.4,0.7c0.2,0.2,0.2,0.5,0.4,0.7
			c0.2,0.2,0.2,0.5,0.4,0.8l0.3,0.5l0,0.1l0,0l0,0l0,0l0,0l0.1,0.2c0.2,0.5,0.4,1.2,0.7,1.7c0.2,0.5,0.3,1.2,0.5,1.8
			c0.2,0.6,0.2,1.3,0.4,1.8c0.2,1.2,0.4,2.5,0.7,3.7c0.1,0.6,0.1,1.1,0.2,1.7c0,0.6,0.1,1.1,0.1,1.7c0,1.1,0.1,2.2,0.2,3.2
			c0.1,1,0.1,1.9,0.2,2.8c0.1,0.8,0.2,1.5,0.3,2.2c0.1,0.6,0.1,1,0.3,1.4c0.1,0.3,0.2,0.5,0.2,0.5c0.1,0.3,0.3,0.4,0.6,0.3
			C133.2,742.9,133.4,742.8,133.3,742.7z"/>
		<path fill="#00380B" d="M132.3,743.4c0.1-0.2,0.1-0.5,0.1-1c0.1-0.4,0.1-1.1,0.1-1.7c0-0.4-0.1-0.7-0.1-1c0-0.4-0.2-0.7-0.1-1.1
			c-0.1-0.8-0.4-1.6-0.6-2.5c-0.2-0.8-0.7-1.7-1.2-2.6c-0.5-0.8-1-1.7-1.6-2.5c-0.7-0.8-1.3-1.6-2.1-2.2l-0.1,0l-0.2-0.1l-0.1-0.1
			l-0.3-0.2c-0.2-0.2-0.4-0.3-0.6-0.5c-0.4-0.3-0.9-0.6-1.3-0.9c-0.9-0.5-1.9-1-2.7-1.2c-0.9-0.3-1.9-0.5-2.8-0.6s-1.7-0.1-2.5,0
			c-0.4,0-0.8,0.2-1.1,0.2c-0.4,0.1-0.6,0.2-1,0.3c-0.3,0.2-0.5,0.3-0.7,0.4c-0.2,0.2-0.5,0.3-0.7,0.4c-0.5,0.3-0.6,0.5-0.8,0.7l0,0
			c-2.2,1.9-4.8,5.8-7.1,4.5c-0.3-0.2-1.8-0.4-0.9,0.1c1.6,1,3.2,1,5,0.1c1.2-0.6,2.1-1.8,2.9-2.8c0.7-0.7,1.4-1.3,2.2-1.7
			c0.2,0,0.4,0,0.5-0.1c0.3,0,0.5,0,0.9,0c0.3,0,0.6,0,0.9,0.1c0.6,0.1,1.3,0.2,2.1,0.4c0.7,0.2,1.4,0.5,2.1,0.8
			c0.7,0.4,1.4,0.8,2.1,1.2c0.3,0.2,0.7,0.5,1,0.7c0.1,0.1,0.3,0.2,0.4,0.4l0.3,0.2l0.1,0.1l0,0l0.1,0c0.6,0.6,1.2,1.2,1.8,1.9
			c0.5,0.7,1.1,1.3,1.6,2c0.4,0.7,0.9,1.4,1.3,2c0.2,0.4,0.3,0.6,0.5,1c0.2,0.4,0.3,0.6,0.4,1c0.1,0.3,0.2,0.6,0.4,0.9
			c0.1,0.3,0.2,0.5,0.2,0.8c0.1,0.3,0.2,0.5,0.2,0.7c0.1,0.2,0.1,0.5,0.2,0.6c0.1,0.4,0.2,0.7,0.2,1c0,0.3,0,0.4,0,0.4
			c0.1,0.3,0.3,0.5,0.5,0.4c0.2,0,0.3-0.2,0.4-0.3C132.2,743.9,132.2,743.7,132.3,743.4z"/>
		<path fill="#00380B" d="M149.9,725.3c-1.6,0.8-1.1-2.9-0.9-3.5c0.2-1.2,0.3-2.2-0.2-3.3c0-0.1-0.1-0.1-0.2-0.2
			c0-0.1,0-0.2-0.1-0.2c0,0-0.1,0-0.3-0.2s-0.4-0.3-0.6-0.4c-0.1,0-0.2-0.1-0.3-0.2c-0.2-0.1-0.4-0.2-0.7-0.3
			c-0.2-0.1-0.3-0.1-0.4-0.1c-0.2-0.1-0.3-0.1-0.5-0.2c-0.6-0.2-1.4-0.2-2.2-0.2c-0.9,0-1.7,0.4-2.6,0.8c-0.8,0.4-1.7,1.1-2.3,1.8
			c-0.7,0.8-1.4,1.6-2,2.5c-0.6,0.9-1.2,1.9-1.5,2.9c-0.5,1-0.8,2.1-1.1,3c-0.3,1.1-0.5,2.1-0.7,3.1c-0.1,0.5-0.1,1-0.1,1.5
			c0,0.3,0,0.5,0,0.7c0,0.3,0,0.5,0.1,0.7c0.1,1,0.2,1.8,0.3,2.6c0.2,0.7,0.2,1.4,0.3,2c0,0.3,0,0.6,0.1,0.7c0,0.3,0,0.5,0,0.6
			c0,0.1,0,0.2,0,0.3c0,0.1-0.1,0.2-0.1,0.3c-0.1,0.2-0.1,0.3-0.1,0.4c-0.1,0.2-0.1,0.4-0.1,0.4c-0.1,0.3,0.2,0.5,0.4,0.6
			c0.2,0.1,0.4,0,0.5-0.3l0-0.1c0,0,0.1-0.2,0.2-0.4c0-0.1,0.2-0.3,0.2-0.4c0-0.1,0.1-0.2,0.2-0.3l0.1-0.4c0.1-0.2,0.2-0.5,0.3-0.9
			c0.1-0.3,0.1-0.6,0.2-1c0.1-0.4,0.1-0.7,0.2-1.1s0-0.7,0-1.2c0.1-0.4,0-0.7,0-1.2c0.1-0.4,0-0.7,0.1-1.1c0.1-0.2,0.1-0.4,0.1-0.5
			l0,0l0,0l0,0l0,0l0-0.1l-0.1,0.3l0.1-0.4c0.1-0.2,0.1-0.4,0.1-0.5c0.1-0.2,0.1-0.4,0.1-0.6c0.2-0.8,0.5-1.7,0.7-2.6
			c0.3-0.9,0.7-1.7,1-2.6c0.3-0.9,0.7-1.7,1.2-2.5c0.4-0.8,0.8-1.5,1.3-2.1c0.5-0.6,1-1.2,1.5-1.7c0.6-0.3,1.1-0.8,1.6-0.9
			c0.5-0.3,1.1-0.3,1.6-0.4c0.3,0,0.5,0,0.8,0c0.3,0,0.4,0,0.7,0.1c0.2,0.1,0.4,0.1,0.5,0.1c0.5,0.8,0.2,2.4,0.1,3.4
			c-0.2,1.1-0.3,2.2,0.4,3.1c0.7,1,2.4,1.5,3.5,1C151.5,725.8,150.2,725,149.9,725.3z"/>
		<path fill="#00380B" d="M139.1,726.6c-2.4-2.4-6.9,4.8-7.8,8.1c-0.1,0.4,1.4,0.9,1.4,0.5c0.5-2.1,1.5-4.3,3.1-5.6
			c2.4-2,5.1,0,7.4,1.3c1.9,1.2,4,1.1,6-0.1C149.5,730.9,143.6,731.2,139.1,726.6z"/>
	</g>
	<g>
		<g>
			<g>
				<path fill="#69539C" d="M88.4,708.1L88.4,708.1L88.4,708.1z"/>
				<path fill="#69539C" d="M87.2,708.3c0-0.2-0.2-0.3-0.4-0.4c-1.3,0.3,1.2,2.9,1.1,2.8C87.6,709.9,87.2,709,87.2,708.3
					C87.2,708.2,87.2,709.1,87.2,708.3z"/>
				<path fill="#69539C" d="M89.7,713.4C89.6,713.4,89.7,713.4,89.7,713.4L89.7,713.4z"/>
				<path fill="#69539C" d="M89.6,713.4C89.2,713.3,89.8,713.6,89.6,713.4C89.6,713.4,89.7,713.5,89.6,713.4z"/>
				<path fill="#69539C" d="M85.2,713L85.2,713C85.1,713,85.1,713,85.2,713z"/>
				<path fill="#69539C" d="M95.8,712.1c0,0.4-1.4,1-1.5,0.4c0-0.2,1.4-0.4,1.4-0.8c-1.1,0.6-2.4,0.8-3.6,1.3c1.2-0.6,2.3-1.3,3.5-2
					c-0.4,0.2-0.8,0.3-1.2,0.3c0-0.1,0.6-1.2,0.5-1.1c-0.6,1.1-2.1,2-3.1,2.7c0.5-0.5,3.1-2.3,3.2-3c-0.4,0.5-0.8,0.1-0.3-0.5
					c0.3,0.1-2.3,1.7-1.7,1.3c0.4-0.6,0.7-1.3,1-2c0.2,0.5-1.3-0.4-1.1-0.7c-0.3,0.5-0.6,1.1-1,1.5c0.2-0.5,0.3-1.1,0.3-1.6
					c0.2,0.5-1,3.2-1.3,3.7c0.3-1.2,1.1-2.9,1-4c-0.6,0.5-0.8,3.1-1.1,3.9c-0.3-0.8,0.4-2.9,0.4-3.9c-0.2,1-1.3,1.7-1.4,3.8
					c0.4-6.7-1.1-3.8-1.1-2.4c0.2-0.8,0-1.1-0.4-1c0.4,0.8,0.4,1.8,0.5,2.6c-0.4-0.5-1.5-2.1-1.3-2.5c-0.4,1.2,0.7,2.3,1.2,3.2
					c0.3,0.3-2-1.6-1.6-0.6c0.2,0.2-3-2.9-1.3-0.3c-0.3-0.3-0.4-0.4-0.7-0.4c0.1,1.1,0.7,1.8,1.9,1.9c-0.3,0-2.4-0.9-2.4-1.2
					c0.2,0.5,0.5,0.9,1.1,1.1c0.7,0-1.3,0.3-1.3,0.1c0.6,0.4,1.3,0.7,2,0.8c-0.4,0-2.1-0.1-2.1,0c0.4,0.1,0.7,0.2,1.1,0.3
					c-0.2,0.1,0.1,0,0.2,0c-0.3,0-0.5,0.1-0.8,0.3c1.3-0.6,4,0.3,5.2,0.5c-1.2,0.6-1.1,3.4,0.5,3.4c1.7,0,1.8-3.2,0.2-3.5
					C91.9,713.5,95.7,713.5,95.8,712.1C95.8,712.6,95.9,711.8,95.8,712.1z M92.5,711.8c0.3-0.2,0.4-0.3,0.7-0.5
					C92.3,712.4,92.2,712.6,92.5,711.8C92.9,711.7,92.4,711.9,92.5,711.8z M88.9,713C90.3,713.9,87.5,712.9,88.9,713
					C89.1,713.1,88.7,713,88.9,713z M88.6,712.8c-0.3,0.1-0.5,0-0.7-0.1C88.1,712.6,88.4,712.6,88.6,712.8
					C88.4,712.7,88.6,712.7,88.6,712.8z M88,712.5c-0.4,0.2-0.8,0.1-1.1-0.3C87.3,712.4,87.6,712.4,88,712.5
					C87.9,712.5,87.6,712.4,88,712.5z M84.8,712.1c0.8-0.2,1.6,0,2.4,0.4C86.4,712.7,85.6,712.4,84.8,712.1
					C85.2,712.1,85.2,712.3,84.8,712.1z M86.5,713c1.1-0.3,2.4,0.4,3.5,0.6c-0.8-0.3-1.7-0.5-2.5-0.7c0.5,0,1.4,0.3,1.9,0.4
					c0.3,0.1,0.6,0.3,0.8,0.4C89.3,713.8,87.5,713.2,86.5,713C86.7,713,88.1,713.3,86.5,713z"/>
				<path fill="#69539C" d="M86.4,708.6L86.4,708.6L86.4,708.6z"/>
			</g>
			<g>
				<path fill="#90D166" d="M92.3,727.3c0,0-2.4-1.1-3.1-5.8c-0.7-4.7-0.6,2.7,0.5,4.2C92,728.5,92.3,727.3,92.3,727.3z"/>
				<path fill="#90D166" d="M94.1,738.7c0,0-0.1,0-0.2,0c-0.1-3-1.1-5.9-1.3-8.9c-0.3-2.1-0.1-4.1-0.6-6.2c-0.3-1.1-0.8-2.1-1.1-3.2
					c-0.3-1.1-0.2-2.2-0.2-3.1c0,0,0,0-0.1-0.1c0.5-0.2,0.9-0.9,0.9-1.8c0-1-0.5-1.8-1.3-1.8s-1.3,0.8-1.3,1.8s0.4,1.6,1,1.8l0,0
					c0,2.2,0.3,3.9,1.1,5.8c0.8,2.2,0.5,4.4,0.8,6.7c0.3,3,1.3,5.8,1.3,8.8c-1.3-0.3-3.9-1.4-6-5.3c-3.1-5.4,0.3,3.6,2.7,4.9
					c1.8,0.9,2.8,1.2,3.4,1.2c0,1.1,1.3,10.8,1.1,12c0,0.1,0.5,0.2,0.5,0c0.3-1.2-1.1-11-1.1-12.1C94.1,739,94.1,738.7,94.1,738.7z"
					/>
				<path fill="#90D166" d="M96,725.9c0,0,0.8,2.5-2.3,6.1c-3.1,3.5,2.4-1.3,2.8-3.2C97.1,725.3,96,725.9,96,725.9z"/>
			</g>
		</g>
		<g>
			<g>
				<path fill="#69539C" d="M81.4,732.2L81.4,732.2C81.4,732.2,81.4,732.2,81.4,732.2z"/>
				<path fill="#69539C" d="M82.3,732.4c0-0.2,0.1-0.3,0.3-0.3c0.9,0.3-0.8,2.4-0.8,2.3C82,733.8,82.2,733,82.3,732.4
					C82.3,732.4,82.2,733.2,82.3,732.4z"/>
				<path fill="#69539C" d="M80.6,736.6C80.7,736.6,80.6,736.6,80.6,736.6L80.6,736.6z"/>
				<path fill="#69539C" d="M80.6,736.6C80.8,736.5,80.3,736.9,80.6,736.6C80.6,736.6,80.6,736.7,80.6,736.6z"/>
				<path fill="#69539C" d="M83.6,736.4C83.6,736.4,83.6,736.3,83.6,736.4C83.7,736.4,83.7,736.4,83.6,736.4z"/>
				<path fill="#69539C" d="M76.2,735.4c0,0.4,1.1,0.8,1.1,0.4c0-0.2-1.1-0.3-1-0.6c0.8,0.5,1.7,0.7,2.5,1.1
					c-0.8-0.5-1.6-1.2-2.4-1.6c0.3,0.1,0.5,0.3,0.8,0.3c0-0.1-0.4-0.9-0.4-0.9c0.4,0.9,1.4,1.7,2.2,2.3c-0.4-0.4-2.3-1.9-2.3-2.4
					c0.3,0.4,0.6,0.1,0.3-0.4c-0.3,0.1,1.6,1.3,1.2,1.1c-0.3-0.5-0.5-1.1-0.7-1.6c-0.1,0.4,1-0.3,0.8-0.5c0.2,0.4,0.4,0.9,0.7,1.3
					c-0.1-0.4-0.2-0.9-0.3-1.3c-0.1,0.4,0.7,2.7,0.9,3.1c-0.3-0.9-0.8-2.4-0.7-3.4c0.4,0.4,0.6,2.6,0.8,3.2c0.3-0.7-0.3-2.4-0.3-3.2
					c0.2,0.8,0.8,1.4,1,3.1c-0.3-5.6,0.8-3.1,0.8-2.1c-0.1-0.6,0-0.9,0.3-0.8c-0.3,0.6-0.3,1.4-0.4,2.2c0.3-0.5,1.1-1.8,0.9-2.2
					c0.3,1-0.5,1.9-0.8,2.7c-0.3,0.3,1.4-1.3,1.2-0.5c-0.1,0.1,2.1-2.4,0.9-0.3c0.2-0.2,0.3-0.3,0.5-0.4c-0.1,0.9-0.5,1.4-1.3,1.6
					c0.3,0,1.7-0.8,1.7-1c-0.1,0.4-0.4,0.8-0.8,0.9c-0.5,0,1,0.3,0.9,0.1c-0.4,0.4-0.9,0.5-1.4,0.7c0.3,0,1.4-0.1,1.4,0
					c-0.3,0.1-0.5,0.1-0.8,0.2c0.2,0-0.1,0-0.1,0c0.3,0,0.4,0.1,0.5,0.3c-0.8-0.5-2.8,0.3-3.7,0.4c0.8,0.5,0.8,2.9-0.4,2.9
					c-1.3,0-1.3-2.7-0.2-3C78.9,736.5,76.3,736.6,76.2,735.4C76.2,735.7,76.2,735.1,76.2,735.4z M78.5,735.1
					c-0.2-0.2-0.3-0.3-0.5-0.4C78.6,735.5,78.9,735.7,78.5,735.1C78.3,735,78.5,735.2,78.5,735.1z M81.1,736.1
					C80.1,736.9,82.1,736.1,81.1,736.1C81,736.2,81.2,736.1,81.1,736.1z M81.3,736c0.2,0.1,0.4,0,0.5,0
					C81.6,735.8,81.5,735.8,81.3,736C81.5,736,81.4,736,81.3,736z M81.7,735.7c0.3,0.1,0.5,0.1,0.8-0.2
					C82.2,735.5,82,735.6,81.7,735.7C81.8,735.7,82,735.6,81.7,735.7z M84,735.4c-0.6-0.1-1.2,0-1.7,0.4
					C82.9,735.9,83.4,735.5,84,735.4C83.7,735.4,83.7,735.5,84,735.4z M82.8,736.1c-0.7-0.3-1.8,0.4-2.5,0.5
					c0.6-0.3,1.3-0.4,1.9-0.6c-0.4,0-1.1,0.3-1.3,0.3c-0.2,0.1-0.4,0.3-0.6,0.3C80.8,736.9,82.1,736.3,82.8,736.1
					C82.7,736.1,81.6,736.3,82.8,736.1z"/>
				<path fill="#69539C" d="M82.8,732.7L82.8,732.7L82.8,732.7z"/>
			</g>
			<g>
				<path fill="#90D166" d="M78.6,749.9c0,0,1.7-0.9,2.3-4.9c0.5-4,0.4,2.3-0.4,3.5C78.8,750.9,78.6,749.9,78.6,749.9z"/>
				<path fill="#90D166" d="M77.3,757.9L77.3,757.9c0.2-2.4,0.8-5,1.1-7.5c0.2-1.8,0.1-3.5,0.4-5.1c0.3-0.9,0.5-1.7,0.7-2.7
					c0.2-0.8,0.1-1.8,0.1-2.7l0,0c-0.4-0.2-0.7-0.8-0.7-1.4c0-0.8,0.4-1.5,0.8-1.5c0.4,0,0.8,0.7,0.8,1.5c0,0.8-0.3,1.3-0.7,1.4l0,0
					c0,1.8-0.3,3.2-0.7,5c-0.5,1.8-0.4,3.7-0.5,5.6c-0.2,2.4-0.8,4.9-1,7.3c0.9-0.3,2.7-1.2,4.3-4.4c2.2-4.5-0.3,3-1.9,4
					c-1.3,0.8-2,1-2.4,1c0,0.9,0.1,1.9,0.3,2.7c0,0.1-0.4,0.1-0.4,0c-0.3-1-0.3-1.9-0.3-2.9C77.3,758.1,77.3,757.9,77.3,757.9z"/>
				<path fill="#90D166" d="M76.2,747.1c0,0-0.5,2.2,1.6,5.1c2.2,3-1.8-1.1-2-2.7C75.3,746.6,76.2,747.1,76.2,747.1z"/>
			</g>
		</g>
		<g>
			<g>
				<path fill="#69539C" d="M101.4,722.9C101.4,722.9,101.4,722.9,101.4,722.9C101.4,722.9,101.4,722.9,101.4,722.9z"/>
				<path fill="#69539C" d="M102.3,723.1c0-0.2,0.1-0.3,0.3-0.3c0.9,0.3-0.8,2.4-0.8,2.3C102.1,724.5,102.3,723.6,102.3,723.1
					C102.3,723,102.3,723.9,102.3,723.1z"/>
				<path fill="#69539C" d="M100.7,727.3L100.7,727.3L100.7,727.3z"/>
				<path fill="#69539C" d="M100.7,727.3C100.9,727.2,100.4,727.6,100.7,727.3C100.7,727.3,100.6,727.4,100.7,727.3z"/>
				<path fill="#69539C" d="M103.8,727L103.8,727C103.9,727,103.9,727,103.8,727z"/>
				<path fill="#69539C" d="M96.4,726.1c0,0.4,1.1,0.8,1.1,0.4c0-0.2-1.1-0.3-1-0.6c0.8,0.5,1.7,0.7,2.5,1.1
					c-0.8-0.5-1.6-1.2-2.4-1.6c0.3,0.1,0.5,0.3,0.8,0.3c0-0.1-0.4-0.9-0.4-0.9c0.4,0.9,1.4,1.7,2.2,2.3c-0.4-0.4-2.3-1.9-2.3-2.4
					c0.3,0.4,0.6,0.1,0.3-0.4c-0.3,0.1,1.6,1.3,1.2,1.1c-0.3-0.5-0.5-1.1-0.7-1.6c-0.1,0.4,1-0.3,0.8-0.5c0.2,0.4,0.4,0.9,0.7,1.3
					c-0.1-0.4-0.2-0.9-0.3-1.3c-0.1,0.4,0.7,2.7,0.9,3.1c-0.3-0.9-0.8-2.4-0.7-3.4c0.4,0.4,0.6,2.6,0.8,3.2c0.3-0.7-0.3-2.4-0.3-3.2
					c0.2,0.8,0.8,1.4,1,3.1c-0.3-5.6,0.8-3.1,0.8-2.1c-0.1-0.6,0-0.9,0.3-0.8c-0.3,0.6-0.3,1.4-0.4,2.2c0.3-0.5,1.1-1.8,0.9-2.2
					c0.3,1-0.5,1.9-0.8,2.7c-0.3,0.3,1.4-1.3,1.2-0.5c-0.1,0.1,2.1-2.4,0.9-0.3c0.2-0.2,0.3-0.3,0.5-0.4c-0.1,0.9-0.5,1.4-1.3,1.6
					c0.3,0,1.7-0.8,1.7-1c-0.1,0.4-0.4,0.8-0.8,0.9c-0.5,0,1,0.3,0.9,0.1c-0.4,0.4-0.9,0.5-1.4,0.7c0.3,0,1.4-0.1,1.4,0
					c-0.3,0.1-0.5,0.1-0.8,0.2c0.2,0-0.1,0-0.1,0c0.3,0,0.4,0.1,0.5,0.3c-0.8-0.5-2.8,0.3-3.7,0.4c0.8,0.5,0.8,2.9-0.4,2.9
					c-1.3,0-1.3-2.7-0.2-3C99.2,727.2,96.5,727.2,96.4,726.1C96.4,726.4,96.4,725.9,96.4,726.1z M98.7,725.9
					c-0.2-0.2-0.3-0.3-0.5-0.4C98.8,726.3,99,726.4,98.7,725.9C98.6,725.7,98.7,725.9,98.7,725.9z M101.3,726.8
					C100.3,727.6,102.3,726.7,101.3,726.8C101.2,726.9,101.4,726.8,101.3,726.8z M101.5,726.7c0.2,0.1,0.4,0,0.5,0
					C101.9,726.4,101.7,726.5,101.5,726.7C101.7,726.7,101.5,726.6,101.5,726.7z M101.9,726.4c0.3,0.1,0.5,0.1,0.8-0.2
					C102.4,726.3,102.3,726.4,101.9,726.4C102.1,726.4,102.2,726.3,101.9,726.4z M104.2,726c-0.6-0.1-1.2,0-1.7,0.4
					C103.1,726.6,103.6,726.3,104.2,726C104,726.1,104,726.2,104.2,726z M103,726.8c-0.7-0.3-1.8,0.4-2.5,0.5
					c0.6-0.3,1.3-0.4,1.9-0.6c-0.4,0-1.1,0.3-1.3,0.3c-0.2,0.1-0.4,0.3-0.6,0.3C101,727.5,102.3,727,103,726.8
					C103,726.8,101.9,727,103,726.8z"/>
				<path fill="#69539C" d="M102.9,723.4L102.9,723.4L102.9,723.4z"/>
			</g>
			<g>
				<path fill="#90D166" d="M98.6,740.6c0,0,1.7-0.9,2.3-4.9c0.5-4,0.4,2.3-0.4,3.5C98.9,741.6,98.6,740.6,98.6,740.6z"/>
				<path fill="#90D166" d="M97.5,748.6L97.5,748.6c0.2-2.4,0.8-5,1.1-7.5c0.2-1.8,0.1-3.5,0.4-5.1c0.3-0.9,0.5-1.7,0.7-2.7
					c0.2-0.8,0.1-1.8,0.1-2.7l0,0c-0.4-0.2-0.7-0.8-0.7-1.4c0-0.8,0.4-1.5,0.8-1.5c0.4,0,0.8,0.7,0.8,1.5c0,0.8-0.3,1.3-0.7,1.4l0,0
					c0,1.8-0.3,3.2-0.7,5c-0.5,1.8-0.4,3.7-0.5,5.6c-0.2,2.4-0.8,4.9-1,7.3c0.9-0.3,2.7-1.2,4.3-4.4c2.2-4.5-0.3,3-1.9,4
					c-1.3,0.8-2,1-2.4,1c0,0.9,0.1,1.9,0.3,2.7c0,0.1-0.4,0.1-0.4,0c-0.3-1-0.3-1.9-0.3-2.9C97.5,748.8,97.5,748.6,97.5,748.6z"/>
				<path fill="#90D166" d="M96.3,737.7c0,0-0.5,2.2,1.6,5.1c2.2,3-1.8-1.1-2-2.7C95.5,737.2,96.3,737.7,96.3,737.7z"/>
			</g>
		</g>
		<g>
			<g>
				<path fill="#90D166" d="M114.7,736.5c0,0,1.7-0.9,2.3-4.9c0.5-4,0.4,2.3-0.4,3.5C114.9,737.5,114.7,736.5,114.7,736.5z"/>
				<path fill="#90D166" d="M113.3,744.5L113.3,744.5c0.2-2.4,0.8-5,1.1-7.5c0.2-1.8,0.1-3.5,0.4-5.1c0.3-0.9,0.5-1.7,0.7-2.7
					c0.2-0.8,0.1-1.8,0.1-2.7l0,0c-0.4-0.2-0.7-0.8-0.7-1.4c0-0.8,0.4-1.5,0.8-1.5c0.4,0,0.8,0.7,0.8,1.5c0,0.8-0.3,1.3-0.7,1.4l0,0
					c0,1.8-0.3,3.2-0.7,5c-0.5,1.8-0.4,3.7-0.5,5.6c-0.2,2.4-0.8,4.9-1,7.3c0.9-0.3,2.7-1.2,4.3-4.4c2.2-4.5-0.3,3-1.9,4
					c-1.3,0.8-2,1-2.4,1c0,0.9,0.1,1.9,0.3,2.7c0,0.1-0.4,0.1-0.4,0c-0.3-1-0.3-1.9-0.3-2.9C113.3,744.7,113.3,744.5,113.3,744.5z"
					/>
				<path fill="#90D166" d="M112.3,733.7c0,0-0.5,2.2,1.6,5.1c2.2,3-1.8-1.1-2-2.7C111.5,733.1,112.3,733.7,112.3,733.7z"/>
			</g>
		</g>
		<g>
			<g>
				<path fill="#90D166" d="M60.7,740.6c0,0,1.7-0.9,2.3-4.9c0.5-4,0.4,2.3-0.4,3.5C60.9,741.6,60.7,740.6,60.7,740.6z"/>
				<path fill="#90D166" d="M59.4,748.6L59.4,748.6c0.2-2.4,0.8-5,1.1-7.5c0.2-1.8,0.1-3.5,0.4-5.1c0.3-0.9,0.5-1.7,0.7-2.7
					c0.2-0.8,0.1-1.8,0.1-2.7l0,0c-0.4-0.2-0.7-0.8-0.7-1.4c0-0.8,0.4-1.5,0.8-1.5s0.8,0.7,0.8,1.5c0,0.8-0.3,1.3-0.7,1.4l0,0
					c0,1.8-0.3,3.2-0.7,5c-0.5,1.8-0.4,3.7-0.5,5.6c-0.2,2.4-0.8,4.9-1,7.3c0.9-0.3,2.7-1.2,4.3-4.4c2.2-4.5-0.3,3-1.9,4
					c-1.3,0.8-2,1-2.4,1c0,0.9,0.1,1.9,0.3,2.7c0,0.1-0.4,0.1-0.4,0c-0.3-1-0.3-1.9-0.3-2.9C59.4,748.8,59.4,748.6,59.4,748.6z"/>
				<path fill="#90D166" d="M58.3,737.7c0,0-0.5,2.2,1.6,5.1c2.2,3-1.8-1.1-2-2.7C57.5,737.3,58.3,737.7,58.3,737.7z"/>
			</g>
		</g>
		<g>
			<g>
				<path fill="#69539C" d="M76.9,719.3L76.9,719.3C76.9,719.2,76.9,719.3,76.9,719.3z"/>
				<path fill="#69539C" d="M77.8,719.4c0-0.2,0.1-0.3,0.3-0.3c0.9,0.3-0.8,2.4-0.8,2.3C77.5,720.9,77.7,720.1,77.8,719.4
					C77.8,719.4,77.7,720.2,77.8,719.4z"/>
				<path fill="#69539C" d="M76.1,723.8C76.2,723.7,76.1,723.8,76.1,723.8L76.1,723.8z"/>
				<path fill="#69539C" d="M76.1,723.7C76.4,723.6,75.9,723.9,76.1,723.7C76.1,723.7,76,723.8,76.1,723.7z"/>
				<path fill="#69539C" d="M79.2,723.4L79.2,723.4C79.3,723.4,79.3,723.4,79.2,723.4z"/>
				<path fill="#69539C" d="M71.8,722.5c0,0.4,1.1,0.8,1.1,0.4c0-0.2-1.1-0.3-1-0.6c0.8,0.5,1.7,0.7,2.5,1.1
					c-0.8-0.5-1.6-1.2-2.4-1.6c0.3,0.1,0.5,0.3,0.8,0.3c0-0.1-0.4-0.9-0.4-0.9c0.4,0.9,1.4,1.7,2.2,2.3c-0.4-0.4-2.3-1.9-2.3-2.4
					c0.3,0.4,0.6,0.1,0.3-0.4c-0.3,0.1,1.6,1.3,1.2,1.1c-0.3-0.5-0.5-1.1-0.7-1.6c-0.1,0.4,1-0.3,0.8-0.5c0.2,0.4,0.4,0.9,0.7,1.3
					c-0.1-0.4-0.2-0.9-0.3-1.3c-0.1,0.4,0.7,2.7,0.9,3.1c-0.3-0.9-0.8-2.4-0.7-3.4c0.4,0.4,0.6,2.6,0.8,3.2c0.3-0.7-0.3-2.4-0.3-3.2
					c0.2,0.8,0.8,1.4,1,3.1c-0.3-5.6,0.8-3.1,0.8-2.1c-0.1-0.6,0-0.9,0.3-0.8c-0.3,0.6-0.3,1.4-0.4,2.2c0.3-0.5,1.1-1.8,0.9-2.2
					c0.3,1-0.5,1.9-0.8,2.7c-0.3,0.3,1.4-1.3,1.2-0.5c-0.1,0.1,2.1-2.4,0.9-0.3c0.2-0.2,0.3-0.3,0.5-0.4c-0.1,0.9-0.5,1.4-1.3,1.6
					c0.3,0,1.7-0.8,1.7-1c-0.1,0.4-0.4,0.8-0.8,0.9c-0.5,0,1,0.3,0.9,0.1c-0.4,0.4-0.9,0.5-1.4,0.7c0.3,0,1.4-0.1,1.4,0
					c-0.3,0.1-0.5,0.1-0.8,0.2c0.2,0-0.1,0-0.1,0c0.3,0,0.4,0.1,0.5,0.3c-0.8-0.5-2.8,0.3-3.7,0.4c0.8,0.5,0.8,2.9-0.4,2.9
					c-1.3,0-1.3-2.7-0.2-3C74.6,723.6,71.9,723.6,71.8,722.5C71.8,722.8,71.8,722.2,71.8,722.5z M74.2,722.2
					c-0.2-0.2-0.3-0.3-0.5-0.4C74.2,722.7,74.4,722.8,74.2,722.2C74,722,74.2,722.3,74.2,722.2z M76.8,723.2
					C75.8,723.9,77.7,723.1,76.8,723.2C76.6,723.3,76.9,723.2,76.8,723.2z M76.9,723c0.2,0.1,0.4,0,0.5,0
					C77.3,722.8,77.1,722.8,76.9,723C77.1,723,76.9,723,76.9,723z M77.4,722.8c0.3,0.1,0.5,0.1,0.8-0.2
					C77.9,722.6,77.6,722.7,77.4,722.8C77.5,722.8,77.6,722.7,77.4,722.8z M79.6,722.5c-0.6-0.1-1.2,0-1.7,0.4
					C78.6,723,79.1,722.7,79.6,722.5C79.4,722.5,79.4,722.6,79.6,722.5z M78.5,723.2c-0.7-0.3-1.8,0.4-2.5,0.5
					c0.6-0.3,1.3-0.4,1.9-0.6c-0.4,0-1.1,0.3-1.3,0.3c-0.2,0.1-0.4,0.3-0.6,0.3C76.4,723.9,77.8,723.4,78.5,723.2
					C78.4,723.2,77.3,723.5,78.5,723.2z"/>
				<path fill="#69539C" d="M78.4,719.7L78.4,719.7L78.4,719.7z"/>
			</g>
			<g>
				<path fill="#90D166" d="M74.1,737c0,0,1.7-0.9,2.3-4.9c0.5-4,0.4,2.3-0.4,3.5C74.3,737.9,74.1,737,74.1,737z"/>
				<path fill="#90D166" d="M72.9,744.9L72.9,744.9c0.2-2.4,0.8-5,1.1-7.5c0.2-1.8,0.1-3.5,0.4-5.1c0.3-0.9,0.5-1.7,0.7-2.7
					c0.2-0.8,0.1-1.8,0.1-2.7l0,0c-0.4-0.2-0.7-0.8-0.7-1.4c0-0.8,0.4-1.5,0.8-1.5c0.4,0,0.8,0.7,0.8,1.5c0,0.8-0.3,1.3-0.7,1.4l0,0
					c0,1.8-0.3,3.2-0.7,5c-0.5,1.8-0.4,3.7-0.5,5.6c-0.2,2.4-0.8,4.9-1,7.3c0.9-0.3,2.7-1.2,4.3-4.4c2.2-4.5-0.3,3-1.9,4
					c-1.3,0.8-2,1-2.4,1c0,0.9,0.1,1.9,0.3,2.7c0,0.1-0.4,0.1-0.4,0c-0.3-1-0.3-1.9-0.3-2.9C72.9,745.2,72.9,744.9,72.9,744.9z"/>
				<path fill="#90D166" d="M71.7,734.1c0,0-0.5,2.2,1.6,5.1c2.2,3-1.8-1.1-2-2.7C71,733.6,71.7,734.1,71.7,734.1z"/>
			</g>
		</g>
		<g>
			<g>
				<path fill="#69539C" d="M86.3,725C86.3,724.9,86.3,724.9,86.3,725C86.3,724.8,86.3,724.9,86.3,725z"/>
				<path fill="#69539C" d="M85.5,725.1c0-0.2-0.1-0.3-0.3-0.3c-0.9,0.3,0.8,2.4,0.8,2.3C85.7,726.5,85.5,725.7,85.5,725.1
					C85.5,725.1,85.5,725.8,85.5,725.1z"/>
				<path fill="#69539C" d="M87.1,729.4L87.1,729.4L87.1,729.4z"/>
				<path fill="#69539C" d="M87.1,729.4C86.8,729.3,87.3,729.6,87.1,729.4C87.1,729.4,87.2,729.4,87.1,729.4z"/>
				<path fill="#69539C" d="M84.1,729.1C84.1,729.1,84.1,729,84.1,729.1C84,729.1,84,729.1,84.1,729.1z"/>
				<path fill="#69539C" d="M91.5,728.2c0,0.4-1.1,0.8-1.1,0.4c0-0.2,1.1-0.3,1-0.6c-0.8,0.5-1.7,0.7-2.5,1.1
					c0.8-0.5,1.6-1.2,2.4-1.6c-0.3,0.1-0.5,0.3-0.8,0.3c0-0.1,0.4-0.9,0.4-0.9c-0.4,0.9-1.4,1.7-2.2,2.3c0.4-0.4,2.3-1.9,2.3-2.4
					c-0.3,0.4-0.6,0.1-0.3-0.4c0.3,0.1-1.6,1.3-1.2,1.1c0.3-0.5,0.5-1.1,0.7-1.6c0.1,0.4-1-0.3-0.8-0.5c-0.2,0.4-0.4,0.9-0.7,1.3
					c0.1-0.4,0.2-0.9,0.3-1.3c0.1,0.4-0.7,2.7-0.9,3.1c0.3-0.9,0.8-2.4,0.7-3.4c-0.4,0.4-0.6,2.6-0.8,3.2c-0.3-0.7,0.3-2.4,0.3-3.2
					c-0.2,0.8-0.8,1.4-1,3.1c0.3-5.6-0.8-3.1-0.8-2.1c0.1-0.6,0-0.9-0.3-0.8c0.3,0.6,0.3,1.4,0.4,2.2c-0.3-0.5-1.1-1.8-0.9-2.2
					c-0.3,1,0.5,1.9,0.8,2.7c0.3,0.3-1.4-1.3-1.2-0.5c0.1,0.1-2.1-2.4-0.9-0.3c-0.2-0.2-0.3-0.3-0.5-0.4c0.1,0.9,0.5,1.4,1.3,1.6
					c-0.3,0-1.7-0.8-1.7-1c0.1,0.4,0.4,0.8,0.8,0.9c0.5,0-1,0.3-0.9,0.1c0.4,0.4,0.9,0.5,1.4,0.7c-0.3,0-1.4-0.1-1.4,0
					c0.3,0.1,0.5,0.1,0.8,0.2c-0.2,0,0.1,0,0.1,0c-0.3,0-0.4,0.1-0.5,0.3c0.8-0.5,2.8,0.3,3.7,0.4c-0.8,0.5-0.8,2.9,0.4,2.9
					c1.3,0,1.3-2.7,0.2-3C88.7,729.3,91.4,729.3,91.5,728.2C91.5,728.6,91.5,728,91.5,728.2z M89.2,728c0.2-0.2,0.3-0.3,0.5-0.4
					C89.1,728.4,88.9,728.6,89.2,728C89.4,727.8,89.2,728.1,89.2,728z M86.6,729C87.6,729.8,85.7,728.9,86.6,729
					C86.8,729,86.5,728.9,86.6,729z M86.4,728.7c-0.2,0.1-0.4,0-0.5,0C86,728.6,86.3,728.7,86.4,728.7
					C86.2,728.7,86.4,728.7,86.4,728.7z M85.9,728.5c-0.3,0.1-0.5,0.1-0.8-0.2C85.4,728.3,85.8,728.4,85.9,728.5
					C85.9,728.5,85.8,728.4,85.9,728.5z M83.7,728.2c0.6-0.1,1.2,0,1.7,0.4C84.8,728.7,84.2,728.4,83.7,728.2
					C84.1,728.2,84,728.2,83.7,728.2z M84.9,729c0.7-0.3,1.8,0.4,2.5,0.5c-0.6-0.3-1.3-0.4-1.9-0.6c0.4,0,1.1,0.3,1.3,0.3
					c0.2,0.1,0.4,0.3,0.6,0.3C86.9,729.7,85.6,729.1,84.9,729C85,728.9,86,729.2,84.9,729z"/>
				<path fill="#69539C" d="M85,725.4L85,725.4L85,725.4z"/>
			</g>
			<g>
				<path fill="#90D166" d="M88.2,739.7c0,0-1.7-0.9-2.3-4.9c-0.5-4-0.4,2.3,0.4,3.5C88,740.6,88.2,739.7,88.2,739.7z"/>
				<path fill="#90D166" d="M90.4,750.6L90.4,750.6c-0.2-2.4-0.8-5-1.1-7.5c-0.2-1.8-0.1-3.5-0.4-5.1c-0.3-0.9-0.5-1.7-0.7-2.7
					c-0.2-0.8-0.1-1.8-0.1-2.7l0,0c0.4-0.2,0.7-0.8,0.7-1.4c0-0.8-0.4-1.5-0.8-1.5c-0.4,0-0.8,0.7-0.8,1.5c0,0.8,0.3,1.3,0.7,1.4
					l0,0c0,1.8,0.3,3.2,0.7,5c0.5,1.8,0.4,3.7,0.5,5.6c0.2,2.4,0.8,4.9,1,7.3c-0.9-0.3-2.7-1.2-4.3-4.4c-2.2-4.5,0.3,3,1.9,4
					c1.3,0.8,2,1,2.4,1c0,0.9,0,6.2-0.3,7.1c0,0.1,0.4,0.1,0.4,0c0.3-1,0.3-6.3,0.3-7.3C90.4,750.8,90.4,750.6,90.4,750.6z"/>
				<path fill="#90D166" d="M91.7,739.7c0,0,0.5,2.2-1.6,5.1s1.8-1.1,2-2.7C92.5,739.1,91.7,739.7,91.7,739.7z"/>
			</g>
		</g>
		<g>
			<g>
				<path fill="#69539C" d="M65.9,713.5C65.9,713.4,65.9,713.4,65.9,713.5C65.9,713.4,65.9,713.4,65.9,713.5z"/>
				<path fill="#69539C" d="M65.1,713.7c0-0.2-0.1-0.3-0.3-0.3c-0.9,0.3,0.8,2.4,0.8,2.3C65.3,715,65.1,714.2,65.1,713.7
					C65.1,713.6,65.1,714.4,65.1,713.7z"/>
				<path fill="#69539C" d="M66.7,717.9L66.7,717.9L66.7,717.9z"/>
				<path fill="#69539C" d="M66.7,717.9C66.4,717.8,66.9,718.2,66.7,717.9C66.7,717.9,66.8,717.9,66.7,717.9z"/>
				<path fill="#69539C" d="M63.6,717.7C63.7,717.7,63.7,717.7,63.6,717.7C63.5,717.7,63.5,717.7,63.6,717.7z"/>
				<path fill="#69539C" d="M71.1,716.7c0,0.4-1.1,0.8-1.1,0.4c0-0.2,1.1-0.3,1-0.6c-0.8,0.5-1.7,0.7-2.5,1.1
					c0.8-0.5,1.6-1.2,2.4-1.6c-0.3,0.1-0.5,0.3-0.8,0.3c0-0.1,0.4-0.9,0.4-0.9c-0.4,0.9-1.4,1.7-2.2,2.3c0.4-0.4,2.3-1.9,2.3-2.4
					c-0.3,0.4-0.6,0.1-0.3-0.4c0.3,0.1-1.6,1.3-1.2,1.1c0.3-0.5,0.5-1.1,0.7-1.6c0.1,0.4-1-0.3-0.8-0.5c-0.2,0.4-0.4,0.9-0.7,1.3
					c0.1-0.4,0.2-0.9,0.3-1.3c0.1,0.4-0.7,2.7-0.9,3.1c0.3-0.9,0.8-2.4,0.7-3.4c-0.4,0.4-0.6,2.6-0.8,3.2c-0.3-0.7,0.3-2.4,0.3-3.2
					c-0.2,0.8-0.8,1.4-1,3.1c0.3-5.6-0.8-3.1-0.8-2.1c0.1-0.6,0-0.9-0.3-0.8c0.3,0.6,0.3,1.4,0.4,2.2c-0.3-0.5-1.1-1.8-0.9-2.2
					c-0.3,1,0.5,1.9,0.8,2.7c0.3,0.3-1.4-1.3-1.2-0.5c0.1,0.1-2.1-2.4-0.9-0.3c-0.2-0.2-0.3-0.3-0.5-0.4c0.1,0.9,0.5,1.4,1.3,1.6
					c-0.3,0-1.7-0.8-1.7-1c0.1,0.4,0.4,0.8,0.8,0.9c0.5,0-1,0.3-0.9,0.1c0.4,0.4,0.9,0.5,1.4,0.7c-0.3,0-1.4-0.1-1.4,0
					c0.3,0.1,0.5,0.1,0.8,0.2c-0.2,0,0.1,0,0.1,0c-0.3,0-0.4,0.1-0.5,0.3c0.8-0.5,2.8,0.3,3.7,0.4c-0.8,0.5-0.8,2.9,0.4,2.9
					c1.3,0,1.3-2.7,0.2-3C68.3,717.8,71,717.8,71.1,716.7C71.1,717,71.1,716.4,71.1,716.7z M68.7,716.4c0.2-0.2,0.3-0.3,0.5-0.4
					C68.6,716.8,68.5,717,68.7,716.4C69,716.2,68.7,716.5,68.7,716.4z M66.1,717.4C67.1,718.2,65.2,717.3,66.1,717.4
					C66.3,717.4,66,717.4,66.1,717.4z M65.9,717.2c-0.2,0.1-0.4,0-0.5,0C65.7,717,65.9,717,65.9,717.2
					C65.9,717.2,65.9,717.2,65.9,717.2z M65.5,716.9c-0.3,0.1-0.5,0.1-0.8-0.2C65,716.8,65.3,716.9,65.5,716.9
					C65.4,717,65.3,716.8,65.5,716.9z M63.2,716.6c0.6-0.1,1.2,0,1.7,0.4C64.3,717.2,63.8,716.8,63.2,716.6
					C63.6,716.7,63.6,716.7,63.2,716.6z M64.5,717.4c0.7-0.3,1.8,0.4,2.5,0.5c-0.6-0.3-1.3-0.4-1.9-0.6c0.4,0,1.1,0.3,1.3,0.3
					c0.2,0.1,0.4,0.3,0.6,0.3C66.4,718.1,65.1,717.5,64.5,717.4C64.6,717.4,65.6,717.6,64.5,717.4z"/>
				<path fill="#69539C" d="M64.5,714L64.5,714C64.5,713.9,64.5,713.9,64.5,714z"/>
			</g>
			<g>
				<path fill="#90D166" d="M67.9,728.2c0,0-1.7-0.9-2.3-4.9c-0.5-4-0.4,2.3,0.4,3.5C67.6,729.2,67.9,728.2,67.9,728.2z"/>
				<path fill="#90D166" d="M70,739.2L70,739.2c-0.2-2.4-0.8-5-1.1-7.5c-0.2-1.8-0.1-3.5-0.4-5.1c-0.3-0.9-0.5-1.7-0.7-2.7
					c-0.2-0.8-0.1-1.8-0.1-2.7l0,0c0.4-0.2,0.7-0.8,0.7-1.4c0-0.8-0.4-1.5-0.8-1.5c-0.4,0-0.8,0.7-0.8,1.5c0,0.8,0.3,1.3,0.7,1.4
					l0,0c0,1.8,0.3,3.2,0.7,5c0.5,1.8,0.4,3.7,0.5,5.6c0.2,2.4,0.8,4.9,1,7.3c-0.9-0.3-2.7-1.2-4.3-4.4c-2.2-4.5,0.3,3,1.9,4
					c1.3,0.8,2,1,2.4,1c0,0.9,0,6.2-0.3,7.1c0,0.1,0.4,0.1,0.4,0c0.3-1,0.3-6.3,0.3-7.3C70,739.3,70,739.2,70,739.2z"/>
				<path fill="#90D166" d="M71.3,728.2c0,0,0.5,2.2-1.6,5.1c-2.2,3,1.8-1.1,2-2.7C72,727.7,71.3,728.2,71.3,728.2z"/>
			</g>
		</g>
		<g>
			<g>
				<path fill="#69539C" d="M106.5,717.7C106.5,717.6,106.5,717.6,106.5,717.7C106.5,717.5,106.4,717.6,106.5,717.7z"/>
				<path fill="#69539C" d="M105.6,717.7c0-0.2-0.1-0.3-0.3-0.3c-0.9,0.3,0.8,2.4,0.8,2.3C105.8,719.2,105.6,718.4,105.6,717.7
					C105.6,717.7,105.6,718.5,105.6,717.7z"/>
				<path fill="#69539C" d="M107.3,722.1C107.2,722.1,107.3,722.1,107.3,722.1L107.3,722.1z"/>
				<path fill="#69539C" d="M107.3,722.1C107,722,107.4,722.2,107.3,722.1L107.3,722.1z"/>
				<path fill="#69539C" d="M104.2,721.7L104.2,721.7C104.1,721.7,104.1,721.7,104.2,721.7z"/>
				<path fill="#69539C" d="M111.6,720.7c0,0.4-1.1,0.8-1.1,0.4c0-0.2,1.1-0.3,1-0.6c-0.8,0.5-1.7,0.7-2.5,1.1
					c0.8-0.5,1.6-1.2,2.4-1.6c-0.3,0.1-0.5,0.3-0.8,0.3c0-0.1,0.4-0.9,0.4-0.9c-0.4,0.9-1.4,1.7-2.2,2.3c0.4-0.4,2.3-1.9,2.3-2.4
					c-0.3,0.4-0.6,0.1-0.3-0.4c0.3,0.1-1.6,1.3-1.2,1.1c0.3-0.5,0.5-1.1,0.7-1.6c0.1,0.4-1-0.3-0.8-0.5c-0.2,0.4-0.4,0.9-0.7,1.3
					c0.1-0.4,0.2-0.9,0.3-1.3c0.1,0.4-0.7,2.7-0.9,3.1c0.3-0.9,0.8-2.4,0.7-3.4c-0.4,0.4-0.6,2.6-0.8,3.2c-0.3-0.7,0.3-2.4,0.3-3.2
					c-0.2,0.8-0.8,1.4-1,3.1c0.3-5.6-0.8-3.1-0.8-2.1c0.1-0.6,0-0.9-0.3-0.8c0.3,0.6,0.3,1.4,0.4,2.2c-0.3-0.5-1.1-1.8-0.9-2.2
					c-0.3,1,0.5,1.9,0.8,2.7c0.3,0.3-1.4-1.3-1.2-0.5c0.1,0.1-2.1-2.4-0.9-0.3c-0.2-0.2-0.3-0.3-0.5-0.4c0.1,0.9,0.5,1.4,1.3,1.6
					c-0.3,0-1.7-0.8-1.7-1c0.1,0.4,0.4,0.8,0.8,0.9c0.5,0-1,0.3-0.9,0.1c0.4,0.4,0.9,0.5,1.4,0.7c-0.3,0-1.4-0.1-1.4,0
					c0.3,0.1,0.5,0.1,0.8,0.2c-0.2,0,0.1,0,0.1,0c-0.3,0-0.4,0.1-0.5,0.3c0.8-0.5,2.8,0.3,3.7,0.4c-0.8,0.5-0.8,2.9,0.4,2.9
					c1.3,0,1.3-2.7,0.2-3C108.8,721.9,111.5,721.9,111.6,720.7C111.5,721.1,111.6,720.5,111.6,720.7z M109.2,720.5
					c0.2-0.2,0.3-0.3,0.5-0.4C109.1,721,109,721.1,109.2,720.5C109.4,720.3,109.1,720.5,109.2,720.5z M106.6,721.5
					C107.6,722.2,105.7,721.4,106.6,721.5C106.8,721.6,106.4,721.5,106.6,721.5z M106.4,721.2c-0.2,0.1-0.4,0-0.5,0
					C106.1,721.1,106.3,721.1,106.4,721.2C106.3,721.2,106.4,721.2,106.4,721.2z M105.9,721.1c-0.3,0.1-0.5,0.1-0.8-0.2
					C105.4,720.9,105.7,721,105.9,721.1C105.9,721.1,105.8,721,105.9,721.1z M103.7,720.7c0.6-0.1,1.2,0,1.7,0.4
					C104.8,721.2,104.3,721,103.7,720.7C104,720.7,104,720.9,103.7,720.7z M104.9,721.5c0.7-0.3,1.8,0.4,2.5,0.5
					c-0.6-0.3-1.3-0.4-1.9-0.6c0.4,0,1.1,0.3,1.3,0.3c0.2,0.1,0.4,0.3,0.6,0.3C106.9,722.2,105.6,721.6,104.9,721.5
					C105,721.5,106.1,721.7,104.9,721.5z"/>
				<path fill="#69539C" d="M105,718L105,718L105,718z"/>
			</g>
			<g>
				<path fill="#90D166" d="M108.3,732.3c0,0-1.7-0.9-2.3-4.9c-0.5-4-0.4,2.3,0.4,3.5C108.1,733.2,108.3,732.3,108.3,732.3z"/>
				<path fill="#90D166" d="M110.5,743.3L110.5,743.3c-0.2-2.4-0.8-5-1.1-7.5c-0.2-1.8-0.1-3.5-0.4-5.1c-0.3-0.9-0.5-1.7-0.7-2.7
					c-0.2-0.8-0.1-1.8-0.1-2.7l0,0c0.4-0.2,0.7-0.8,0.7-1.4c0-0.8-0.4-1.5-0.8-1.5c-0.4,0-0.8,0.7-0.8,1.5c0,0.8,0.3,1.3,0.7,1.4
					l0,0c0,1.8,0.3,3.2,0.7,5c0.5,1.8,0.4,3.7,0.5,5.6c0.2,2.4,0.8,4.9,1,7.3c-0.9-0.3-2.7-1.2-4.3-4.4c-2.2-4.5,0.3,3,1.9,4
					c1.3,0.8,2,1,2.4,1c0,0.9,0,6.2-0.3,7.1c0,0.1,0.4,0.1,0.4,0c0.3-1,0.3-6.3,0.3-7.3C110.5,743.5,110.5,743.3,110.5,743.3z"/>
				<path fill="#90D166" d="M111.8,732.3c0,0,0.5,2.2-1.6,5.1c-2.2,3,1.8-1.1,2-2.7C112.6,731.8,111.8,732.3,111.8,732.3z"/>
			</g>
		</g>
	</g>
	<g>
		<path fill="#88C167" d="M134.8,697.9v-16.2c0-3.3-2.7-6-6-6c-3.3,0-6,2.7-6,6v17.8c0,0-0.6,2.9,2.4,5.9s6.8,3.1,6.8,3.1h18.8
			v-10.6H134.8z"/>
		<path fill="#5B924B" d="M167.5,679.5v-12.3c0-2.5,1.9-4.6,4.2-4.6s4.2,2,4.2,4.6v14.3c0,0,0.3,2-2,4.2c-2.3,2.3-4.5,1.9-4.5,1.9
			h-12.9v-8.1H167.5z"/>
		<path fill="#88C167" d="M161.5,745v-84.9c0-6-4.9-10.9-10.9-10.9c-6,0-10.9,4.9-10.9,10.9V745C146.6,747.7,153.9,747.2,161.5,745z
			"/>
		<path fill="#5B924B" d="M151.1,649.3l-0.7,97.6c3.6,0,6.9-0.7,11-1.8l0.1-84.9C161.6,654.3,156.9,649.5,151.1,649.3z"/>
	</g>
	<polygon fill="#416635" points="156.8,656.1 159.4,656.2 159.6,649.7 	"/>
	<polygon fill="#416635" points="128,679 129.8,679.1 130,674.9 	"/>
	<polygon fill="#416635" points="171.8,665.1 173.8,665.2 173.9,661 	"/>
	<polygon fill="#416635" points="152.5,693.8 154.5,693.9 154.6,689.7 	"/>
	<polygon fill="#416635" points="141.1,660.7 143.1,659 138.7,654.1 	"/>
	<polygon fill="#416635" points="123.2,695.6 124.7,694.3 122.1,691.3 	"/>
	<polygon fill="#416635" points="153.4,665.5 155.3,667.2 159.5,662.1 	"/>
	<g>
		<path fill="#489140" d="M191.2,754.5c2.5-3.9,6-14.6,6-20.2c0-12.3-7.5-18-16.4-18s-15.8,5.7-15.8,18c0,5.6,3.5,16.3,6,20.2
			C177.8,755.6,184.5,755.5,191.2,754.5z"/>
		<path fill="#4B753D" d="M180.8,716.3c-0.9,0-1.8,0.1-2.6,0.2c0.2,0,0.4,0,0.6,0c8.9,0,16.4,5.7,16.4,18c0,5.5-5.7,19.9-5.9,20
			s1.9,0,1.9,0c2.5-3.9,6-14.6,6-20.2C197.2,722,189.7,716.3,180.8,716.3z"/>
		<path fill="#5DB250" d="M176.9,721.8c-1.1-2.3-5.4-7.4-8-9.4c-5.7-4.4-9.5-3.5-11.9-0.3c-2.5,3.2-2.7,7.3,3,11.8
			c2.6,2,8.8,4.6,11.3,5.2C171.7,725.9,173.7,723.6,176.9,721.8z"/>
		<path fill="#56A54A" d="M192,723.7c2.7-2.2,7-6.4,8.9-10.5c4.1-8.9,2.7-16.5-2.3-18.8c-5-2.3-11.7,1.6-15.8,10.5
			c-1.9,4.1-2.3,10.1-2.2,13.6C185,718.5,188.6,720.6,192,723.7z"/>
		<path fill="#4B753D" d="M198.6,694.4c-0.9-0.4-2-0.6-3-0.6c0.3,0.1,0.6,0.2,0.8,0.3c5,2.3,6.4,9.9,2.3,18.8
			c-1.7,3.8-5.7,7.8-8.4,10.1l1.7,0.8c2.7-2.2,7-6.4,8.9-10.5C205,704.3,203.6,696.7,198.6,694.4z"/>
		<polygon fill="#B3CC23" points="174.3,730.6 174.9,728.9 174.6,730.7 175.9,729.4 174.8,730.9 176.5,730.3 174.9,731.1 
			176.7,731.5 174.8,731.4 176.3,732.6 174.7,731.6 175.4,733.3 174.4,731.8 174.3,733.6 174.1,731.8 173.2,733.3 173.9,731.6 
			172.3,732.6 173.7,731.4 171.9,731.5 173.7,731.1 172,730.3 173.8,730.9 172.7,729.4 174,730.7 173.7,728.9 		"/>
		<polygon fill="#B3CC23" points="183.3,724.1 183.9,722.4 183.6,724.2 184.9,722.9 183.8,724.4 185.6,723.9 183.9,724.6 185.7,725 
			183.9,724.9 185.3,726.1 183.7,725.2 184.5,726.8 183.5,725.3 183.3,727.1 183.2,725.3 182.2,726.8 183,725.2 181.4,726.1 
			182.8,724.9 181,725 182.8,724.6 181.1,723.9 182.9,724.4 181.8,722.9 183.1,724.2 182.8,722.4 		"/>
		<polygon fill="#B3CC23" points="164.8,721.1 165.4,719.4 165.1,721.2 166.4,720 165.3,721.4 167.1,720.9 165.4,721.7 167.2,722 
			165.4,722 166.8,723.1 165.2,722.2 165.9,723.9 165,722.3 164.8,724.1 164.7,722.3 163.7,723.9 164.4,722.2 162.9,723.1 
			164.3,722 162.5,722 164.2,721.7 162.6,720.9 164.3,721.4 163.2,720 164.6,721.2 164.3,719.4 		"/>
		<polygon fill="#B3CC23" points="183.5,709.6 184.1,707.8 183.8,709.6 185.1,708.4 184,709.8 185.8,709.3 184.1,710.1 185.9,710.5 
			184.1,710.4 185.5,711.5 183.9,710.6 184.7,712.3 183.7,710.7 183.5,712.6 183.4,710.7 182.4,712.3 183.1,710.6 181.6,711.5 
			183,710.4 181.2,710.5 182.9,710.1 181.3,709.3 183,709.8 181.9,708.4 183.3,709.6 183,707.8 		"/>
		<polygon fill="#B3CC23" points="193.7,708.6 194.3,706.8 194,708.6 195.3,707.4 194.2,708.8 195.9,708.3 194.3,709.1 196.1,709.4 
			194.2,709.4 195.7,710.5 194.1,709.6 194.8,711.3 193.8,709.7 193.7,711.6 193.5,709.7 192.6,711.3 193.3,709.6 191.7,710.5 
			193.1,709.4 191.3,709.4 193.1,709.1 191.4,708.3 193.2,708.8 192.1,707.4 193.4,708.6 193.1,706.8 		"/>
		<polygon fill="#B3CC23" points="187.1,737.7 187.7,736 187.4,737.7 188.7,736.5 187.6,737.9 189.4,737.4 187.7,738.2 189.5,738.6 
			187.7,738.5 189.1,739.6 187.5,738.7 188.3,740.4 187.3,738.9 187.1,740.7 187,738.9 186,740.4 186.7,738.7 185.2,739.6 
			186.6,738.5 184.8,738.6 186.6,738.2 184.9,737.4 186.7,737.9 185.6,736.5 186.9,737.7 186.6,736 		"/>
		<g>
			<path fill="#C418C9" d="M200.1,694.9c-0.5,0-4.2-1.3-2-3.3c2.2-2,2.8-2.5,2.8-2.5s0.3,0.2,0.5,2.2
				C201.8,693.9,200.1,694.9,200.1,694.9z"/>
			<path fill="#C418C9" d="M198.2,696.5c0-0.5,1.3-4.2,3.3-2c2,2.2,2.5,2.8,2.5,2.8s-0.2,0.3-2.2,0.5
				C199.2,698.2,198.2,696.5,198.2,696.5z"/>
			<path fill="#C418C9" d="M197,694.1c0.4,0,3.6,0.8,1.9,2.7s-2.2,2.3-2.2,2.3s-0.2-0.1-0.6-1.8C195.7,695.1,197,694.1,197,694.1z"
				/>
			<path fill="#C418C9" d="M198.5,692.6c0,0.4-0.8,3.6-2.6,1.9c-1.9-1.7-2.3-2.2-2.3-2.2s0.1-0.2,1.8-0.6
				C197.5,691.3,198.5,692.6,198.5,692.6z"/>
		</g>
	</g>
	<g>
		<g>
			<path fill="#006014" d="M196.8,740.6c0,0,2.5-1,4.7,0.8c0,0-1-2.4,0.5-6c0,0,1.8,1.4,2.7,4.1c0,0,0.3-1.9,2.5-4.5
				c0,0,2,3.2,1.8,5.3c0,0,0.3-1.4,3.3-2.4c0,0,0.4,1.9-0.4,3.9c0,0,2.3-0.7,5.7-1c0,0,1.2,1.9-2.1,4.8c0,0,1.7,0.1,3.5,3.4
				c0,0-2.4,1.7-6,0.9c0,0,2.9,0.1,5.4,4.1c0,0-5.4,1-7.8-1.7c0,0,1.4,2.3,0.3,6.2c0,0-3.1-2.3-3.4-5.5c0,0-0.3,2.5-4.1,5
				c0,0-1.2-3.2,0.3-5.7c0,0-0.5,1.7-4.7,3.3c0,0,0.1-4,2.1-5.7c0,0-2.1,1.4-4.7,1.6c0,0,0.1-2.8,3.3-3.7c0,0-2.3,0.3-5.8-0.4
				c0,0,1.8-2.3,4.9-2.3C198.8,744.9,197.4,743.1,196.8,740.6z"/>
		</g>
		<g>
			<path fill="#608039" d="M199.4,745.5l0.3-0.3c0.1-0.1,0.3-0.1,0.3-0.2c0.1-0.1,0.3-0.1,0.3-0.2c0.1-0.1,0.3-0.1,0.3-0.2
				c0.3-0.1,1.2-0.4,1.4-0.5c0.3-0.1,0.5-0.1,0.8-0.1c0.5-0.1,1-0.1,1.6-0.1l0,0l0,0l0,0l0,0l-0.3-0.5c-0.1-0.1-0.1-0.2-0.2-0.3
				l-0.2-0.3c-0.1-0.2-0.2-0.4-0.3-0.6c-0.1-0.2-0.2-0.4-0.3-0.6c-0.2-0.4-0.3-0.8-0.5-1.2c-0.2-0.4-0.3-0.8-0.5-1.2
				c0,0,0.3,0.3,0.6,0.4c0.1,0.1,0.3,0.1,0.3,0.1l0.3,0.2c0.3,0.1,0.4,0.3,0.7,0.3c0.3,0.1,0.4,0.3,0.7,0.4c0.1,0.1,0.2,0.1,0.3,0.3
				l0.3,0.3c0.2,0.2,0.4,0.3,0.6,0.5c0.2,0.2,0.3,0.3,0.5,0.5c0.2,0.2,0.3,0.3,0.5,0.5l0,0l0,0c0.1,0,0.1,0,0.1-0.1l0,0l0.3-0.5
				c0.1-0.2,0.3-0.3,0.3-0.5c0.1-0.2,0.3-0.3,0.4-0.5l0.4-0.5c0.1-0.2,0.3-0.3,0.4-0.5c0.1-0.2,0.3-0.3,0.5-0.5
				c0.3-0.3,0.9-0.9,0.9-0.9l0,0c0.1,0.3,0.1,0.4,0.1,0.6c0,0.3,0.1,0.4,0.1,0.6c0,0.3,0,0.4,0,0.6c0,0.3,0,0.4-0.1,0.6
				c-0.1,0.4-0.2,0.8-0.3,1.2c-0.1,0.4-0.3,0.8-0.5,1.2l0,0v0.1c0,0.1,0.7,0.1,1,0.1h0.4l0.4,0.1c0.1,0,0.3,0.1,0.3,0.1
				c0.1,0,0.3,0.1,0.3,0.1c0.3,0.1,0.5,0.2,0.7,0.3c0.1,0.1,0.3,0.1,0.3,0.2c0.1,0.1,0.3,0.1,0.3,0.2c0.3,0.1,0.4,0.3,0.6,0.5
				c0.4,0.3,0.8,0.7,1,1.1l0,0c0,0-0.4,0.1-0.7,0.2c-0.3,0.1-0.4,0.1-0.7,0.2c-0.4,0.1-0.9,0.2-1.4,0.3c-0.3,0-0.5,0-0.7,0
				c-0.3,0-0.5,0-0.7,0c-0.5,0-1-0.1-1.4-0.1l0,0l0,0c0,0,0,0,0,0.1c0,0,0.3,0.5,0.3,0.7c0.1,0.3,0.2,0.5,0.3,0.8
				c0,0.1,0.1,0.3,0.1,0.4c0,0.1,0.1,0.3,0.1,0.4c0,0.3,0.1,0.5,0.1,0.8c0,0.5,0,1-0.1,1.5c-0.1,0.5-0.1,1.4-0.1,1.4l-0.3-0.2
				c-0.1-0.1-0.3-0.1-0.3-0.2c-0.1-0.1-0.2-0.1-0.3-0.3c-0.1-0.1-0.2-0.2-0.3-0.3c-0.2-0.2-0.3-0.3-0.5-0.5
				c-0.1-0.1-0.1-0.2-0.3-0.3c-0.1-0.1-0.1-0.2-0.2-0.3c-0.5-0.8-0.9-1.8-1.1-2.8c0-0.1-0.1-0.1-0.1-0.1c-0.1,0-0.2,0-0.3,0.1l0,0
				l-0.3,0.7c0,0.1-0.1,0.3-0.2,0.3l-0.2,0.3c-0.1,0.3-0.3,0.4-0.4,0.6c-0.1,0.2-0.3,0.4-0.4,0.6l-0.5,0.6c-0.2,0.2-0.3,0.3-0.5,0.5
				c-0.3,0.3-0.8,1.1-0.8,1.1l-0.1-0.8c0-0.3-0.1-0.5,0-0.8v-0.8c0-0.3,0.1-0.5,0.1-0.8c0-0.1,0-0.3,0.1-0.3l0.1-0.3
				c0.1-0.3,0.1-0.5,0.2-0.7s0.2-0.5,0.3-0.7c0.1-0.3,0.2-0.5,0.3-0.6c0,0,0,0,0-0.1c0-0.1-0.1-0.1-0.1-0.1l0,0l-0.3,0.1
				c-0.1,0.1-0.3,0.1-0.3,0.1c-0.3,0.1-0.5,0-0.7,0h-0.3c-0.1,0-0.3-0.1-0.3-0.1c-0.1,0-0.3-0.1-0.3-0.1c-0.1,0-0.3-0.1-0.3-0.1
				c-0.5-0.2-0.9-0.4-1.3-0.6c-0.3-0.3-0.7-0.5-1-0.7C199,745.8,199.2,745.7,199.4,745.5z"/>
		</g>
	</g>
	<g>
		<g>
			<path fill="#006014" d="M217.7,735.2c0,0,2.1-0.8,3.9,0.7c0,0-0.8-2,0.4-4.9c0,0,1.4,1.1,2.2,3.3c0,0,0.3-1.6,2.1-3.7
				c0,0,1.6,2.6,1.4,4.3c0,0,0.3-1.1,2.7-1.9c0,0,0.3,1.6-0.3,3.1c0,0,1.8-0.6,4.6-0.8c0,0,1,1.6-1.7,3.9c0,0,1.4,0.1,2.9,2.8
				c0,0-2,1.4-4.9,0.7c0,0,2.4,0.1,4.4,3.3c0,0-4.4,0.8-6.3-1.4c0,0,1.1,1.8,0.2,5c0,0-2.5-1.8-2.7-4.5c0,0-0.3,2-3.3,4.1
				c0,0-1-2.6,0.2-4.6c0,0-0.4,1.4-3.8,2.7c0,0,0.1-3.2,1.7-4.7c0,0-1.7,1.1-3.9,1.3c0,0,0.1-2.2,2.6-3c0,0-1.8,0.2-4.7-0.3
				c0,0,1.4-1.8,4-1.8C219.4,738.8,218.2,737.3,217.7,735.2z"/>
		</g>
		<g>
			<path fill="#608039" d="M219.8,739.3l0.3-0.2c0.1-0.1,0.2-0.1,0.3-0.2c0.1-0.1,0.2-0.1,0.3-0.2c0.1-0.1,0.2-0.1,0.3-0.2
				c0.2-0.1,1-0.3,1.2-0.4c0.2-0.1,0.4-0.1,0.6-0.1c0.4-0.1,0.8-0.1,1.3-0.1l0,0l0,0l0,0l0,0l-0.3-0.4c-0.1-0.1-0.1-0.2-0.2-0.3
				l-0.2-0.3c-0.1-0.2-0.2-0.3-0.3-0.5c-0.1-0.2-0.2-0.3-0.3-0.5c-0.2-0.3-0.3-0.7-0.4-0.9c-0.2-0.3-0.3-0.7-0.4-0.9
				c0,0,0.3,0.3,0.5,0.3c0.1,0.1,0.2,0.1,0.3,0.1l0.3,0.2c0.2,0.1,0.3,0.2,0.5,0.3c0.2,0.1,0.3,0.3,0.5,0.3c0.1,0.1,0.2,0.1,0.3,0.2
				l0.3,0.2c0.2,0.2,0.3,0.3,0.5,0.4c0.2,0.2,0.3,0.3,0.4,0.4c0.2,0.2,0.3,0.3,0.4,0.4l0,0l0,0c0.1,0,0.1,0,0.1-0.1l0,0l0.3-0.4
				c0.1-0.2,0.2-0.3,0.3-0.4c0.1-0.2,0.2-0.3,0.3-0.4l0.3-0.4c0.1-0.2,0.3-0.3,0.3-0.4c0.1-0.2,0.3-0.3,0.4-0.4
				c0.3-0.3,0.7-0.7,0.7-0.7l0,0c0.1,0.2,0.1,0.3,0.1,0.5s0.1,0.3,0.1,0.5c0,0.2,0,0.3,0,0.5s0,0.3-0.1,0.5c-0.1,0.3-0.2,0.7-0.3,1
				s-0.3,0.7-0.4,0.9l0,0v0.1c0,0.1,0.6,0.1,0.8,0.1h0.3l0.3,0.1c0.1,0,0.2,0.1,0.3,0.1c0.1,0,0.2,0.1,0.3,0.1
				c0.2,0.1,0.4,0.2,0.6,0.3c0.1,0.1,0.2,0.1,0.3,0.2c0.1,0.1,0.2,0.1,0.3,0.2c0.2,0.1,0.3,0.3,0.5,0.4c0.3,0.3,0.6,0.6,0.8,0.9l0,0
				c0,0-0.3,0.1-0.5,0.2s-0.3,0.1-0.5,0.2c-0.3,0.1-0.7,0.2-1.1,0.2c-0.2,0-0.4,0-0.6,0c-0.2,0-0.4,0-0.6,0c-0.4,0-0.8-0.1-1.2-0.1
				l0,0l0,0c0,0,0,0,0,0.1c0,0,0.2,0.4,0.3,0.6c0.1,0.2,0.2,0.4,0.2,0.6c0,0.1,0.1,0.2,0.1,0.3s0.1,0.2,0.1,0.3
				c0,0.2,0.1,0.4,0.1,0.6c0,0.4,0,0.8-0.1,1.3c-0.1,0.4-0.1,1.1-0.1,1.1l-0.3-0.2c-0.1-0.1-0.2-0.1-0.3-0.2
				c-0.1-0.1-0.2-0.1-0.3-0.2c-0.1-0.1-0.2-0.2-0.3-0.2c-0.2-0.2-0.3-0.3-0.4-0.4c-0.1-0.1-0.1-0.2-0.2-0.3
				c-0.1-0.1-0.1-0.2-0.2-0.3c-0.4-0.7-0.7-1.5-0.9-2.2c0-0.1-0.1-0.1-0.1-0.1s-0.2,0-0.2,0.1l0,0l-0.3,0.6c0,0.1-0.1,0.2-0.2,0.3
				l-0.2,0.3c-0.1,0.2-0.2,0.3-0.3,0.5c-0.1,0.2-0.3,0.3-0.3,0.5l-0.4,0.5c-0.2,0.2-0.3,0.3-0.4,0.4c-0.3,0.3-0.7,0.9-0.7,0.9
				l-0.1-0.6c0-0.2-0.1-0.4,0-0.6v-0.6c0-0.2,0.1-0.4,0.1-0.6c0-0.1,0-0.2,0.1-0.3l0.1-0.3c0.1-0.2,0.1-0.4,0.2-0.6
				c0.1-0.2,0.2-0.4,0.2-0.6c0.1-0.2,0.2-0.4,0.3-0.5c0,0,0,0,0-0.1s-0.1-0.1-0.1-0.1l0,0l-0.3,0.1c-0.1,0.1-0.2,0.1-0.3,0.1
				c-0.2,0.1-0.4,0-0.6,0h-0.3c-0.1,0-0.2-0.1-0.3-0.1c-0.1,0-0.2-0.1-0.3-0.1c-0.1,0-0.2-0.1-0.3-0.1c-0.4-0.2-0.7-0.3-1.1-0.5
				c-0.3-0.2-0.6-0.4-0.8-0.6C219.6,739.5,219.7,739.4,219.8,739.3z"/>
		</g>
	</g>
	<g>
		<g>
			<path fill="#006014" d="M205.1,726c0,0,1.8-0.7,3.3,0.6c0,0-0.7-1.7,0.4-4.2c0,0,1.2,0.9,1.9,2.8c0,0,0.2-1.3,1.8-3.1
				c0,0,1.4,2.2,1.2,3.7c0,0,0.2-0.9,2.3-1.7c0,0,0.3,1.3-0.3,2.7c0,0,1.6-0.5,4-0.7c0,0,0.9,1.3-1.4,3.3c0,0,1.2,0.1,2.4,2.4
				c0,0-1.7,1.2-4.2,0.6c0,0,2,0,3.7,2.8c0,0-3.7,0.7-5.4-1.2c0,0,0.9,1.6,0.2,4.3c0,0-2.2-1.6-2.3-3.8c0,0-0.2,1.7-2.8,3.5
				c0,0-0.9-2.2,0.2-3.9c0,0-0.4,1.2-3.2,2.3c0,0,0.1-2.8,1.4-4c0,0-1.4,1-3.3,1.1c0,0,0-1.9,2.3-2.6c0,0-1.6,0.2-4-0.3
				c0,0,1.2-1.6,3.4-1.6C206.6,729.1,205.6,727.8,205.1,726z"/>
		</g>
		<g>
			<path fill="#608039" d="M206.9,729.5l0.2-0.2c0.1,0,0.2-0.1,0.2-0.1c0.1,0,0.2-0.1,0.2-0.1c0.1,0,0.2-0.1,0.2-0.1
				c0.2-0.1,0.8-0.3,1-0.3c0.2,0,0.3-0.1,0.5-0.1c0.3,0,0.7-0.1,1.1-0.1l0,0l0,0l0,0l0,0l-0.2-0.4c0,0-0.1-0.1-0.1-0.2l-0.1-0.2
				c-0.1-0.1-0.1-0.3-0.2-0.4c0-0.1-0.1-0.3-0.2-0.4c-0.1-0.3-0.2-0.6-0.3-0.8c-0.1-0.3-0.2-0.6-0.4-0.8c0,0,0.2,0.2,0.4,0.3
				c0.1,0,0.2,0,0.2,0.1l0.2,0.1c0.2,0.1,0.3,0.2,0.5,0.2c0.2,0.1,0.3,0.2,0.5,0.3c0.1,0,0.1,0.1,0.2,0.2l0.2,0.2
				c0.1,0.1,0.3,0.2,0.4,0.3c0.1,0.1,0.2,0.2,0.4,0.4c0.1,0.1,0.2,0.2,0.4,0.4l0,0l0,0c0,0,0.1,0,0.1,0l0,0l0.2-0.4
				c0.1-0.1,0.2-0.2,0.2-0.4c0.1-0.1,0.2-0.2,0.3-0.4l0.3-0.3c0.1-0.1,0.2-0.2,0.3-0.3c0.1-0.1,0.2-0.2,0.3-0.3
				c0.2-0.2,0.6-0.6,0.6-0.6l0,0c0,0.2,0.1,0.3,0.1,0.4s0,0.3,0,0.4s0,0.3,0,0.4s0,0.3,0,0.4c0,0.3-0.1,0.6-0.2,0.8
				s-0.2,0.6-0.3,0.8l0,0v0c0,0.1,0.5,0,0.7,0.1h0.3l0.3,0c0.1,0,0.2,0,0.2,0c0.1,0,0.2,0,0.2,0.1c0.2,0,0.3,0.1,0.5,0.2
				c0.1,0,0.2,0.1,0.2,0.1c0.1,0,0.2,0.1,0.2,0.1c0.2,0.1,0.3,0.2,0.4,0.3c0.3,0.2,0.5,0.5,0.7,0.8l0,0c0,0-0.3,0.1-0.5,0.1
				c-0.2,0-0.3,0.1-0.5,0.1c-0.3,0.1-0.6,0.1-0.9,0.2c-0.2,0-0.3,0-0.5,0s-0.3,0-0.5,0c-0.3,0-0.7,0-1-0.1l0,0l0,0c0,0,0,0,0,0
				c0,0,0.2,0.3,0.2,0.5c0.1,0.2,0.1,0.3,0.2,0.5c0,0.1,0,0.2,0,0.3c0,0.1,0,0.2,0,0.3c0,0.2,0,0.4,0,0.5c0,0.4,0,0.7-0.1,1.1
				c0,0.3-0.1,0.9-0.1,0.9l-0.2-0.1c-0.1,0-0.2-0.1-0.2-0.1c-0.1,0-0.1-0.1-0.2-0.2c0,0-0.1-0.1-0.2-0.2c-0.1-0.1-0.2-0.2-0.3-0.4
				c0,0-0.1-0.1-0.2-0.2c0-0.1-0.1-0.1-0.1-0.2c-0.3-0.6-0.6-1.2-0.8-1.9c0,0,0-0.1-0.1-0.1s-0.1,0-0.2,0.1l0,0l-0.2,0.5
				c0,0.1,0,0.2-0.1,0.2l-0.1,0.2c-0.1,0.2-0.2,0.3-0.3,0.4c-0.1,0.1-0.2,0.3-0.3,0.4l-0.3,0.4c-0.1,0.1-0.2,0.2-0.3,0.4
				c-0.2,0.2-0.6,0.8-0.6,0.8l0-0.5c0-0.2,0-0.3,0-0.5V733c0-0.2,0-0.3,0.1-0.5c0-0.1,0-0.2,0-0.2l0-0.2c0-0.2,0.1-0.3,0.1-0.5
				c0-0.2,0.1-0.3,0.2-0.5c0-0.2,0.1-0.3,0.2-0.4c0,0,0,0,0,0s0,0,0,0l0,0l-0.2,0.1c-0.1,0-0.2,0-0.2,0c-0.2,0-0.3,0-0.5,0h-0.2
				c-0.1,0-0.2,0-0.2,0s-0.2,0-0.2,0c-0.1,0-0.2,0-0.2-0.1c-0.3-0.1-0.6-0.3-0.9-0.4c-0.2-0.2-0.5-0.3-0.7-0.5
				C206.7,729.7,206.9,729.6,206.9,729.5z"/>
		</g>
	</g>
	<g>
		<g>
			<path fill="#005014" d="M137.7,761.8l2.1-33.6c0,0,5.9,9,5.9,14.2c0,5.2,0.7,19,0.7,19"/>
			<path fill="#006014" d="M138.7,761.8l-9.1-25.5c0,0,6.8,5,8.4,8.9s6.4,13.9,6.4,13.9"/>
			<path fill="#005014" d="M142.9,760.1c0,0,1.4-9,4.5-12.5c3.1-3.5,12.1-8,12.1-8s-3.1,10.4-5.2,13.8c-2.1,3.5-9,8.3-10.7,9.3
				C141.9,763.9,142.9,760.1,142.9,760.1z"/>
			<path fill="#005014" d="M122.5,743.8c0,0,7.4,13.7,9.9,15.5c2.5,1.8,8,5.1,10.6,4c2.6-1-1.1-6.5-4.5-9.4
				C135.1,750.9,122.5,743.8,122.5,743.8z"/>
			<path fill="#006014" d="M150.9,733.8c0,0-9.4,12.4-9.9,15.5c-0.6,3-1.2,9.4,0.8,11.3c2,1.9,5.4-3.7,6.7-8.1
				C149.7,748.2,150.9,733.8,150.9,733.8z"/>
			<path fill="#005014" d="M161.2,750.4c0,0-13.4,3.8-15.3,5.5s-5.5,5.6-4.8,7.9c0.7,2.2,6.1,0.1,9.2-2.2
				C153.4,759.3,161.2,750.4,161.2,750.4z"/>
		</g>
	</g>
</g>
</svg>
